<svg width="60" height="60" viewBox="0 0 60 60" fill="none" xmlns="http://www.w3.org/2000/svg">
<path fill-rule="evenodd" clip-rule="evenodd" d="M30.0045 1H29.982C23.6927 1 18.7744 1 14.8573 1.57472C10.9288 2.1511 7.97934 3.3089 5.6445 5.64456C3.30972 7.98018 2.15192 10.9296 1.57533 14.8578C1 18.7776 1 23.6997 1 29.9955V30.018C1 36.3073 1 41.2256 1.57472 45.1427C2.1511 49.0712 3.3089 52.0206 5.64456 54.3554C7.98018 56.6902 10.9296 57.848 14.8578 58.4246C18.7778 59 23.7002 59 29.9964 59H30.018C36.3073 59 41.2256 59 45.1429 58.4253C49.0716 57.8489 52.0215 56.6911 54.3572 54.3554C56.6919 52.0207 57.8493 49.0726 58.4255 45.1466C59 41.2319 59 36.3172 59 30.0324V29.982C59 23.6927 59 18.7744 58.4255 14.8573C57.8493 10.9288 56.692 7.97937 54.3572 5.64453C52.0223 3.30971 49.0724 2.15191 45.1436 1.57533C41.2232 1 36.3003 1 30.0045 1ZM57.0916 44.9464C56.5399 48.7093 55.4613 51.3438 53.4034 53.4016C51.3455 55.4595 48.7105 56.5386 44.9472 57.0907C41.1459 57.6484 36.3364 57.6512 30 57.6512C23.6637 57.6512 18.8546 57.648 15.0537 57.0901C11.2908 56.5377 8.65611 55.4587 6.59816 53.4015C4.54041 51.3445 3.46139 48.7101 2.90927 44.9469C2.35158 41.1459 2.34884 36.3364 2.34884 30C2.34884 23.6637 2.35199 18.8546 2.90987 15.0537C3.46219 11.2908 4.54123 8.65611 6.59844 6.59816C8.65547 4.54041 11.2899 3.46139 15.0531 2.90927C18.8541 2.35158 23.6636 2.34884 30 2.34884C36.3363 2.34884 41.1463 2.35199 44.9477 2.90988C48.7114 3.46221 51.3463 4.54127 53.4034 6.5983C55.4604 8.65531 56.539 11.2898 57.0909 15.053C57.6484 18.8541 57.6512 23.6636 57.6512 30C57.6512 36.3365 57.6489 41.1455 57.0916 44.9464Z" fill="black"/>
<path d="M17 9H48V10H19.2361H17V9Z" fill="black"/>
<path d="M12 50H14.2361H43V51H12V50Z" fill="black"/>
<path d="M9 46H10H14H14.2361H15H41V45.7639V45H9V46Z" fill="black"/>
<path d="M45 12H46V14V48H45V45.7639V12Z" fill="black"/>
<path d="M40 45H41V45.7639V48H40V45Z" fill="black"/>
<path d="M9 45H10V46V48H9V45Z" fill="black"/>
<path d="M50 12H51V15H50V14V12Z" fill="black"/>
<path d="M45 14H46H50H51V15H45V14Z" fill="black"/>
<path fill-rule="evenodd" clip-rule="evenodd" d="M14 12H15V14.2361V46H14.2361H14H12H10V48C10 49.1046 10.8954 50 12 50H14.2361C13.6868 50.6138 12.8885 51 12 51C10.3431 51 9 49.6569 9 48C9 46.3431 10.3431 45 12 45C12.7684 45 13.4692 45.2889 14 45.7639V12Z" fill="black"/>
<path fill-rule="evenodd" clip-rule="evenodd" d="M46 48C46 49.6569 44.6569 51 43 51C41.3431 51 40 49.6569 40 48C40 47.1115 40.3863 46.3132 41 45.7639V46V48C41 49.1046 41.8954 50 43 50C44.1046 50 45 49.1046 45 48V45.7639C45.6138 46.3132 46 47.1115 46 48Z" fill="black"/>
<path fill-rule="evenodd" clip-rule="evenodd" d="M15 14.2361V12C15 10.8954 15.8954 10 17 10H19.2361C18.6868 9.38625 17.8885 9 17 9C15.3431 9 14 10.3431 14 12C14 12.8885 14.3863 13.6868 15 14.2361Z" fill="black"/>
<path fill-rule="evenodd" clip-rule="evenodd" d="M48 15C49.6569 15 51 13.6569 51 12C51 10.3431 49.6569 9 48 9C46.3431 9 45 10.3431 45 12C45 13.6569 46.3431 15 48 15ZM48 10C49.1046 10 50 10.8954 50 12V14H48H46V12C46 10.8954 46.8954 10 48 10Z" fill="black"/>
<g clip-path="url(#clip0_514_2289)">
<path d="M29.9312 35.1311C32.5126 35.1311 33.8528 33.6048 33.8551 30.9275V28.705H31.3696V31.0954C31.3696 32.2907 30.8429 32.72 30.0056 32.72C29.1684 32.72 28.6441 32.2883 28.6448 31.0931L28.6528 22.0578C28.6528 20.8634 29.1795 20.4095 30.0167 20.4103C30.854 20.4111 31.3783 20.8657 31.3775 22.0602V23.8535H33.8631V22.2281C33.8646 19.5501 32.5276 18.0198 29.9462 18.0174C27.3648 18.0151 26.0246 19.5438 26.0223 22.221L26.0151 30.9212C26.0128 33.5984 27.3466 35.1295 29.9312 35.1311Z" fill="black"/>
<path d="M33.92 37.68H26V42H33.92V37.68Z" fill="black"/>
</g>
<defs>
<clipPath id="clip0_514_2289">
<rect width="7.92" height="24" fill="white" transform="translate(26 18)"/>
</clipPath>
</defs>
</svg>
