<?xml version="1.0" encoding="UTF-8"?>
<!DOCTYPE svg PUBLIC "-//W3C//DTD SVG 1.1//EN" "http://www.w3.org/Graphics/SVG/1.1/DTD/svg11.dtd">
<svg xmlns="http://www.w3.org/2000/svg" version="1.1" width="200px" height="200px" style="shape-rendering:geometricPrecision; text-rendering:geometricPrecision; image-rendering:optimizeQuality; fill-rule:evenodd; clip-rule:evenodd" xmlns:xlink="http://www.w3.org/1999/xlink">
<g><path style="opacity:0.992" fill="#badfd7" d="M 87.5,-0.5 C 95.5,-0.5 103.5,-0.5 111.5,-0.5C 115.878,1.32818 120.211,3.49485 124.5,6C 125.381,6.7083 126.047,7.54163 126.5,8.5C 125.149,12.5416 122.815,15.8749 119.5,18.5C 119.489,16.9826 118.823,15.8159 117.5,15C 109.831,10.0001 101.498,8.3334 92.5,10C 91.244,10.4169 90.5774,11.2502 90.5,12.5C 89.2719,11.6935 88.2719,10.6935 87.5,9.5C 86.701,6.57006 86.3677,3.57006 86.5,0.5C 87.1667,0.5 87.5,0.166667 87.5,-0.5 Z"/></g>
<g><path style="opacity:1" fill="#2bb2db" d="M 126.5,8.5 C 130.833,12.1667 134.833,16.1667 138.5,20.5C 134.705,22.2315 131.038,24.2315 127.5,26.5C 125.5,28.671 123.666,31.0043 122,33.5C 121.174,36.2116 121.674,38.5449 123.5,40.5C 125.299,42.6763 125.632,45.0097 124.5,47.5C 121.103,49.5259 117.77,51.5259 114.5,53.5C 110.992,54.5041 107.826,56.1707 105,58.5C 104.333,59.1667 104.333,59.8333 105,60.5C 106.757,61.1189 107.924,62.2856 108.5,64C 107.396,65.7153 106.062,67.2153 104.5,68.5C 103.566,69.5676 103.232,70.901 103.5,72.5C 102.662,72.1583 102.328,71.4916 102.5,70.5C 100.526,68.572 99.0259,66.2387 98,63.5C 91.8423,48.515 85.6756,33.515 79.5,18.5C 81.1089,15.8321 83.4422,13.8321 86.5,12.5C 87.3857,11.675 87.719,10.675 87.5,9.5C 88.2719,10.6935 89.2719,11.6935 90.5,12.5C 94.1064,12.2108 97.6064,12.5442 101,13.5C 101.499,16.0217 101.332,18.5217 100.5,21C 100.439,22.7106 101.106,24.044 102.5,25C 109.253,25.6218 114.919,23.4551 119.5,18.5C 122.815,15.8749 125.149,12.5416 126.5,8.5 Z"/></g>
<g><path style="opacity:1" fill="#e2efd3" d="M 119.5,18.5 C 114.919,23.4551 109.253,25.6218 102.5,25C 101.106,24.044 100.439,22.7106 100.5,21C 101.332,18.5217 101.499,16.0217 101,13.5C 97.6064,12.5442 94.1064,12.2108 90.5,12.5C 90.5774,11.2502 91.244,10.4169 92.5,10C 101.498,8.3334 109.831,10.0001 117.5,15C 118.823,15.8159 119.489,16.9826 119.5,18.5 Z"/></g>
<g><path style="opacity:1" fill="#bce0d8" d="M 138.5,20.5 C 156.799,38.2983 174.965,56.2983 193,74.5C 195.505,78.7887 197.672,83.122 199.5,87.5C 199.5,88.1667 199.5,88.8333 199.5,89.5C 197.302,89.1201 195.635,89.7868 194.5,91.5C 192.421,91.9707 190.421,92.6373 188.5,93.5C 186.738,84.0527 181.738,76.7193 173.5,71.5C 158.782,55.7811 143.449,40.7811 127.5,26.5C 131.038,24.2315 134.705,22.2315 138.5,20.5 Z"/></g>
<g><path style="opacity:1" fill="#2aadd8" d="M 86.5,0.5 C 86.3677,3.57006 86.701,6.57006 87.5,9.5C 87.719,10.675 87.3857,11.675 86.5,12.5C 83.4422,13.8321 81.1089,15.8321 79.5,18.5C 85.6756,33.515 91.8423,48.515 98,63.5C 99.0259,66.2387 100.526,68.572 102.5,70.5C 94.8858,72.1386 87.5525,74.6386 80.5,78C 76.8282,80.838 72.8282,83.1713 68.5,85C 67.7476,85.6708 67.4142,86.5041 67.5,87.5C 66.5987,86.7095 65.9321,85.7095 65.5,84.5C 64.5651,81.8872 64.3985,79.2205 65,76.5C 67.6794,72.9239 70.8461,69.9239 74.5,67.5C 77.7865,66.7271 79.2865,64.7271 79,61.5C 75.732,59.2941 72.232,57.4607 68.5,56C 62.9124,52.3946 62.079,47.8946 66,42.5C 70.0869,39.084 73.4203,35.084 76,30.5C 76.9724,27.7058 76.1391,25.7058 73.5,24.5C 68.9093,23.1085 64.2426,22.1085 59.5,21.5C 64.2969,16.202 69.2969,11.0354 74.5,6C 78.4329,3.8644 82.4329,2.03107 86.5,0.5 Z"/></g>
<g><path style="opacity:1" fill="#e9f2d3" d="M 127.5,26.5 C 143.449,40.7811 158.782,55.7811 173.5,71.5C 166.051,70.2016 158.718,68.3682 151.5,66C 142.279,56.7792 133.113,47.6126 124,38.5C 123.536,39.0944 123.369,39.7611 123.5,40.5C 121.674,38.5449 121.174,36.2116 122,33.5C 123.666,31.0043 125.5,28.671 127.5,26.5 Z"/></g>
<g><path style="opacity:0.891" fill="#a4d3b0" d="M 59.5,21.5 C 64.2426,22.1085 68.9093,23.1085 73.5,24.5C 65.555,30.7765 58.2216,37.7765 51.5,45.5C 49.5,47.1667 47.5,48.8333 45.5,50.5C 42.3494,48.7558 39.3494,46.7558 36.5,44.5C 43.8333,36.5 51.5,28.8333 59.5,21.5 Z"/></g>
<g><path style="opacity:1" fill="#cbe3aa" d="M 73.5,24.5 C 76.1391,25.7058 76.9724,27.7058 76,30.5C 73.4203,35.084 70.0869,39.084 66,42.5C 62.079,47.8946 62.9124,52.3946 68.5,56C 72.232,57.4607 75.732,59.2941 79,61.5C 79.2865,64.7271 77.7865,66.7271 74.5,67.5C 67.4659,59.4651 59.7993,52.1317 51.5,45.5C 58.2216,37.7765 65.555,30.7765 73.5,24.5 Z"/></g>
<g><path style="opacity:1" fill="#e1eec9" d="M 173.5,71.5 C 181.738,76.7193 186.738,84.0527 188.5,93.5C 186.473,93.6621 184.473,93.4955 182.5,93C 177.184,86.8413 170.517,83.008 162.5,81.5C 157.941,81.9509 157.441,83.6176 161,86.5C 161.789,88.7116 161.622,90.7116 160.5,92.5C 155.354,85.8408 149.521,79.5075 143,73.5C 142.51,74.7932 142.343,76.1266 142.5,77.5C 140.039,69.6991 135.039,64.0324 127.5,60.5C 125.927,60.7517 124.594,61.4183 123.5,62.5C 121.522,58.5216 118.522,55.5216 114.5,53.5C 117.77,51.5259 121.103,49.5259 124.5,47.5C 125.632,45.0097 125.299,42.6763 123.5,40.5C 123.369,39.7611 123.536,39.0944 124,38.5C 133.113,47.6126 142.279,56.7792 151.5,66C 158.718,68.3682 166.051,70.2016 173.5,71.5 Z"/></g>
<g><path style="opacity:1" fill="#cbe5c5" d="M 106.5,44.5 C 111.709,43.3961 114.709,45.3961 115.5,50.5C 112.813,50.6641 110.146,50.4974 107.5,50C 105.365,48.4443 105.032,46.6109 106.5,44.5 Z"/></g>
<g><path style="opacity:0.906" fill="#9acea1" d="M 36.5,44.5 C 39.3494,46.7558 42.3494,48.7558 45.5,50.5C 43.5,52.8333 41.5,55.1667 39.5,57.5C 36.8333,59.8333 34.1667,62.1667 31.5,64.5C 30.1266,64.6567 28.7932,64.49 27.5,64C 26.157,61.7678 24.4903,59.9345 22.5,58.5C 26.8333,53.5 31.5,48.8333 36.5,44.5 Z"/></g>
<g><path style="opacity:1" fill="#c4df9b" d="M 51.5,45.5 C 59.7993,52.1317 67.4659,59.4651 74.5,67.5C 70.8461,69.9239 67.6794,72.9239 65,76.5C 64.3985,79.2205 64.5651,81.8872 65.5,84.5C 63.9328,83.3192 63.0995,81.6526 63,79.5C 55.2506,71.912 47.4172,64.5786 39.5,57.5C 41.5,55.1667 43.5,52.8333 45.5,50.5C 47.5,48.8333 49.5,47.1667 51.5,45.5 Z"/></g>
<g><path style="opacity:1" fill="#d4e8bb" d="M 114.5,53.5 C 118.522,55.5216 121.522,58.5216 123.5,62.5C 122.815,64.4144 122.315,66.4144 122,68.5C 121.623,69.9423 120.79,70.9423 119.5,71.5C 119.67,70.1779 119.337,69.0113 118.5,68C 113.78,67.2832 109.114,67.4498 104.5,68.5C 106.062,67.2153 107.396,65.7153 108.5,64C 107.924,62.2856 106.757,61.1189 105,60.5C 104.333,59.8333 104.333,59.1667 105,58.5C 107.826,56.1707 110.992,54.5041 114.5,53.5 Z"/></g>
<g><path style="opacity:1" fill="#b9da8c" d="M 39.5,57.5 C 47.4172,64.5786 55.2506,71.912 63,79.5C 63.0995,81.6526 63.9328,83.3192 65.5,84.5C 65.9321,85.7095 66.5987,86.7095 67.5,87.5C 70.5026,92.2968 70.1692,96.7968 66.5,101C 64.8659,101.494 63.1992,101.66 61.5,101.5C 61.0951,98.2854 60.0951,95.2854 58.5,92.5C 57.9717,91.2794 57.305,90.1127 56.5,89C 53.5624,88.2879 50.8957,88.7879 48.5,90.5C 48.631,89.7611 48.4643,89.0944 48,88.5C 40.9237,82.2506 34.0904,75.9172 27.5,69.5C 28.8333,67.8333 30.1667,66.1667 31.5,64.5C 34.1667,62.1667 36.8333,59.8333 39.5,57.5 Z"/></g>
<g><path style="opacity:0.897" fill="#91ca94" d="M 22.5,58.5 C 24.4903,59.9345 26.157,61.7678 27.5,64C 28.7932,64.49 30.1266,64.6567 31.5,64.5C 30.1667,66.1667 28.8333,67.8333 27.5,69.5C 22.8333,73.5 18.5,77.8333 14.5,82.5C 10.5103,80.8821 8.17692,77.8821 7.5,73.5C 12.1667,68.1667 17.1667,63.1667 22.5,58.5 Z"/></g>
<g><path style="opacity:1" fill="#cbe3aa" d="M 119.5,71.5 C 116.383,73.8073 112.883,75.474 109,76.5C 106.808,76.1373 104.974,75.1373 103.5,73.5C 103.5,73.1667 103.5,72.8333 103.5,72.5C 103.232,70.901 103.566,69.5676 104.5,68.5C 109.114,67.4498 113.78,67.2832 118.5,68C 119.337,69.0113 119.67,70.1779 119.5,71.5 Z"/></g>
<g><path style="opacity:1" fill="#b4d883" d="M 27.5,69.5 C 34.0904,75.9172 40.9237,82.2506 48,88.5C 48.4643,89.0944 48.631,89.7611 48.5,90.5C 47.2073,92.2959 45.7073,93.9625 44,95.5C 43.1668,98.171 43.6668,100.504 45.5,102.5C 42.0799,100.928 39.0799,98.5946 36.5,95.5C 35.4822,96.1925 34.4822,96.8592 33.5,97.5C 34.1924,93.2795 33.1924,89.6128 30.5,86.5C 25.0963,85.1716 19.763,83.8383 14.5,82.5C 18.5,77.8333 22.8333,73.5 27.5,69.5 Z"/></g>
<g><path style="opacity:1" fill="#d7e8b7" d="M 160.5,92.5 C 160.426,94.4109 159.426,95.5776 157.5,96C 155.19,96.4966 152.857,96.6633 150.5,96.5C 143.982,91.9832 141.315,85.6499 142.5,77.5C 142.343,76.1266 142.51,74.7932 143,73.5C 149.521,79.5075 155.354,85.8408 160.5,92.5 Z"/></g>
<g><path style="opacity:1" fill="#28a3d0" d="M 7.5,73.5 C 8.17692,77.8821 10.5103,80.8821 14.5,82.5C 19.763,83.8383 25.0963,85.1716 30.5,86.5C 33.1924,89.6128 34.1924,93.2795 33.5,97.5C 30.1562,103.025 26.9895,108.692 24,114.5C 23.2832,119.22 23.4498,123.886 24.5,128.5C 21.8544,130.479 19.5211,132.812 17.5,135.5C 8.74826,129.435 2.74826,121.435 -0.5,111.5C -0.5,103.5 -0.5,95.5 -0.5,87.5C 1.63302,82.5719 4.29969,77.9053 7.5,73.5 Z"/></g>
<g><path style="opacity:1" fill="#c9e2a7" d="M 112.5,79.5 C 120.191,79.4309 125.691,82.7643 129,89.5C 130.579,91.0412 132.413,92.2078 134.5,93C 138.523,93.1452 142.356,93.9785 146,95.5C 146.107,100.948 144.274,105.615 140.5,109.5C 140.649,108.448 140.483,107.448 140,106.5C 130.938,97.2704 121.772,88.2704 112.5,79.5 Z"/></g>
<g><path style="opacity:1" fill="#c6df9a" d="M 102.5,79.5 C 105.833,79.5 109.167,79.5 112.5,79.5C 121.772,88.2704 130.938,97.2704 140,106.5C 140.483,107.448 140.649,108.448 140.5,109.5C 138.2,113.762 136.2,118.095 134.5,122.5C 133.564,119.041 131.564,116.207 128.5,114C 119.863,106.364 111.53,98.3643 103.5,90C 100.603,87.59 97.6032,85.4233 94.5,83.5C 96.5792,81.127 99.2459,79.7936 102.5,79.5 Z"/></g>
<g><path style="opacity:1" fill="#10abd9" d="M 188.5,93.5 C 190.421,92.6373 192.421,91.9707 194.5,91.5C 194.666,96.5111 194.499,101.511 194,106.5C 191.722,112.707 189.222,118.707 186.5,124.5C 185.194,122.527 183.527,120.861 181.5,119.5C 177.658,114.754 172.658,113.254 166.5,115C 164.14,116.18 161.807,117.347 159.5,118.5C 157.448,110.781 154.448,103.447 150.5,96.5C 152.857,96.6633 155.19,96.4966 157.5,96C 159.426,95.5776 160.426,94.4109 160.5,92.5C 161.622,90.7116 161.789,88.7116 161,86.5C 157.441,83.6176 157.941,81.9509 162.5,81.5C 170.517,83.008 177.184,86.8413 182.5,93C 184.473,93.4955 186.473,93.6621 188.5,93.5 Z"/></g>
<g><path style="opacity:1" fill="#039ccf" d="M 102.5,70.5 C 102.328,71.4916 102.662,72.1583 103.5,72.5C 103.5,72.8333 103.5,73.1667 103.5,73.5C 103.286,75.1439 103.62,76.6439 104.5,78C 103.584,78.2784 102.918,78.7784 102.5,79.5C 99.2459,79.7936 96.5792,81.127 94.5,83.5C 89.7749,85.8922 86.4416,89.5588 84.5,94.5C 79.3422,101.558 79.3422,108.558 84.5,115.5C 93.9052,138.64 103.572,161.64 113.5,184.5C 112.508,184.328 111.842,184.662 111.5,185.5C 108.848,185.41 106.515,186.076 104.5,187.5C 102.5,187.833 100.5,188.167 98.5,188.5C 88.6207,167.408 79.2874,146.075 70.5,124.5C 70.6621,122.473 70.4955,120.473 70,118.5C 63.7348,111.397 56.2348,106.064 47.5,102.5C 50.5164,98.485 54.1831,95.1517 58.5,92.5C 60.0951,95.2854 61.0951,98.2854 61.5,101.5C 63.1992,101.66 64.8659,101.494 66.5,101C 70.1692,96.7968 70.5026,92.2968 67.5,87.5C 67.4142,86.5041 67.7476,85.6708 68.5,85C 72.8282,83.1713 76.8282,80.838 80.5,78C 87.5525,74.6386 94.8858,72.1386 102.5,70.5 Z"/></g>
<g><path style="opacity:1" fill="#bedb8e" d="M 94.5,83.5 C 97.6032,85.4233 100.603,87.59 103.5,90C 111.53,98.3643 119.863,106.364 128.5,114C 131.564,116.207 133.564,119.041 134.5,122.5C 135.361,129.668 135.361,136.668 134.5,143.5C 134.66,141.801 134.494,140.134 134,138.5C 118.638,122.804 102.971,107.471 87,92.5C 86.2917,93.3805 85.4584,94.0472 84.5,94.5C 86.4416,89.5588 89.7749,85.8922 94.5,83.5 Z"/></g>
<g><path style="opacity:0.851" fill="#0493c8" d="M 199.5,89.5 C 199.5,96.8333 199.5,104.167 199.5,111.5C 197.672,115.878 195.505,120.211 193,124.5C 191.629,126.041 190.129,127.375 188.5,128.5C 187.326,127.486 186.66,126.153 186.5,124.5C 189.222,118.707 191.722,112.707 194,106.5C 194.499,101.511 194.666,96.5111 194.5,91.5C 195.635,89.7868 197.302,89.1201 199.5,89.5 Z"/></g>
<g><path style="opacity:1" fill="#2da9d0" d="M 58.5,92.5 C 54.1831,95.1517 50.5164,98.485 47.5,102.5C 46.8333,102.5 46.1667,102.5 45.5,102.5C 43.6668,100.504 43.1668,98.171 44,95.5C 45.7073,93.9625 47.2073,92.2959 48.5,90.5C 50.8957,88.7879 53.5624,88.2879 56.5,89C 57.305,90.1127 57.9717,91.2794 58.5,92.5 Z"/></g>
<g><path style="opacity:1" fill="#d2e8c8" d="M 179.5,94.5 C 182.947,94.8143 186.28,95.6476 189.5,97C 190.337,98.0113 190.67,99.1779 190.5,100.5C 187.351,100.789 184.351,100.289 181.5,99C 179.963,97.8904 179.297,96.3904 179.5,94.5 Z"/></g>
<g><path style="opacity:1" fill="#17a7d5" d="M 142.5,77.5 C 141.315,85.6499 143.982,91.9832 150.5,96.5C 154.448,103.447 157.448,110.781 159.5,118.5C 153.821,122.346 148.988,127.013 145,132.5C 143.996,135.993 144.496,139.159 146.5,142C 151.194,142.564 155.86,142.397 160.5,141.5C 163.059,141.198 165.393,141.532 167.5,142.5C 167.167,142.5 166.833,142.5 166.5,142.5C 163.753,142.187 161.086,142.52 158.5,143.5C 152.483,149.351 146.317,155.017 140,160.5C 138.178,156.856 136.344,153.189 134.5,149.5C 133.817,149.863 133.15,150.196 132.5,150.5C 133.455,148.254 134.122,145.921 134.5,143.5C 135.361,136.668 135.361,129.668 134.5,122.5C 136.2,118.095 138.2,113.762 140.5,109.5C 144.274,105.615 146.107,100.948 146,95.5C 142.356,93.9785 138.523,93.1452 134.5,93C 132.413,92.2078 130.579,91.0412 129,89.5C 125.691,82.7643 120.191,79.4309 112.5,79.5C 109.167,79.5 105.833,79.5 102.5,79.5C 102.918,78.7784 103.584,78.2784 104.5,78C 103.62,76.6439 103.286,75.1439 103.5,73.5C 104.974,75.1373 106.808,76.1373 109,76.5C 112.883,75.474 116.383,73.8073 119.5,71.5C 120.79,70.9423 121.623,69.9423 122,68.5C 122.315,66.4144 122.815,64.4144 123.5,62.5C 124.594,61.4183 125.927,60.7517 127.5,60.5C 135.039,64.0324 140.039,69.6991 142.5,77.5 Z"/></g>
<g><path style="opacity:1" fill="#b4d781" d="M 134.5,143.5 C 134.122,145.921 133.455,148.254 132.5,150.5C 130.659,154.183 128.326,157.516 125.5,160.5C 120.643,152.803 114.476,146.136 107,140.5C 106.333,141.167 105.667,141.833 105,142.5C 104.501,146.152 104.335,149.818 104.5,153.5C 103.355,149.689 103.188,145.689 104,141.5C 108.304,133.471 106.804,126.638 99.5,121C 94.6524,118.663 89.6524,116.83 84.5,115.5C 79.3422,108.558 79.3422,101.558 84.5,94.5C 85.4584,94.0472 86.2917,93.3805 87,92.5C 102.971,107.471 118.638,122.804 134,138.5C 134.494,140.134 134.66,141.801 134.5,143.5 Z"/></g>
<g><path style="opacity:1" fill="#a5d16d" d="M 45.5,102.5 C 46.1667,102.5 46.8333,102.5 47.5,102.5C 56.2348,106.064 63.7348,111.397 70,118.5C 70.4955,120.473 70.6621,122.473 70.5,124.5C 69.5275,126.139 68.1942,127.473 66.5,128.5C 66.2914,127.078 65.7914,125.745 65,124.5C 58.0635,118.181 51.0635,111.848 44,105.5C 37.3373,111.164 31.3373,117.497 26,124.5C 25.51,125.793 25.3433,127.127 25.5,128.5C 25.1667,128.5 24.8333,128.5 24.5,128.5C 23.4498,123.886 23.2832,119.22 24,114.5C 26.9895,108.692 30.1562,103.025 33.5,97.5C 34.4822,96.8592 35.4822,96.1925 36.5,95.5C 39.0799,98.5946 42.0799,100.928 45.5,102.5 Z"/></g>
<g><path style="opacity:1" fill="#9ccc56" d="M 66.5,128.5 C 58.8596,134.655 50.8596,140.322 42.5,145.5C 38.3599,140.016 33.3599,135.683 27.5,132.5C 26.3995,131.395 25.7329,130.062 25.5,128.5C 25.3433,127.127 25.51,125.793 26,124.5C 31.3373,117.497 37.3373,111.164 44,105.5C 51.0635,111.848 58.0635,118.181 65,124.5C 65.7914,125.745 66.2914,127.078 66.5,128.5 Z"/></g>
<g><path style="opacity:1" fill="#069ecf" d="M 84.5,115.5 C 89.6524,116.83 94.6524,118.663 99.5,121C 106.804,126.638 108.304,133.471 104,141.5C 103.188,145.689 103.355,149.689 104.5,153.5C 105.377,158.864 108.043,163.031 112.5,166C 118.262,167.45 122.595,165.617 125.5,160.5C 128.326,157.516 130.659,154.183 132.5,150.5C 133.15,150.196 133.817,149.863 134.5,149.5C 136.344,153.189 138.178,156.856 140,160.5C 146.317,155.017 152.483,149.351 158.5,143.5C 161.086,142.52 163.753,142.187 166.5,142.5C 154.107,155.56 141.44,168.227 128.5,180.5C 130.291,181.17 131.958,181.837 133.5,182.5C 128.786,182.353 124.119,182.686 119.5,183.5C 117.379,183.325 115.379,183.659 113.5,184.5C 103.572,161.64 93.9052,138.64 84.5,115.5 Z"/></g>
<g><path style="opacity:1" fill="#c7e1a2" d="M 181.5,119.5 C 174.5,126.833 167.5,134.167 160.5,141.5C 155.86,142.397 151.194,142.564 146.5,142C 144.496,139.159 143.996,135.993 145,132.5C 148.988,127.013 153.821,122.346 159.5,118.5C 161.807,117.347 164.14,116.18 166.5,115C 172.658,113.254 177.658,114.754 181.5,119.5 Z"/></g>
<g><path style="opacity:1" fill="#0297cb" d="M 70.5,124.5 C 79.2874,146.075 88.6207,167.408 98.5,188.5C 92.4477,190.016 86.4477,191.85 80.5,194C 79.944,194.383 79.6107,194.883 79.5,195.5C 77.8599,194.68 76.1932,193.847 74.5,193C 61.6314,180.298 48.9647,167.465 36.5,154.5C 38.5,151.5 40.5,148.5 42.5,145.5C 50.8596,140.322 58.8596,134.655 66.5,128.5C 68.1942,127.473 69.5275,126.139 70.5,124.5 Z"/></g>
<g><path style="opacity:0.848" fill="#0493c6" d="M 24.5,128.5 C 24.8333,128.5 25.1667,128.5 25.5,128.5C 25.7329,130.062 26.3995,131.395 27.5,132.5C 28.6954,136.787 28.6954,141.12 27.5,145.5C 23.8333,142.5 20.5,139.167 17.5,135.5C 19.5211,132.812 21.8544,130.479 24.5,128.5 Z"/></g>
<g><path style="opacity:1" fill="#6bb966" d="M 27.5,132.5 C 33.3599,135.683 38.3599,140.016 42.5,145.5C 40.5,148.5 38.5,151.5 36.5,154.5C 33.1667,151.833 30.1667,148.833 27.5,145.5C 28.6954,141.12 28.6954,136.787 27.5,132.5 Z"/></g>
<g><path style="opacity:0.914" fill="#98ceae" d="M 181.5,119.5 C 183.527,120.861 185.194,122.527 186.5,124.5C 186.66,126.153 187.326,127.486 188.5,128.5C 183.167,134.5 177.5,140.167 171.5,145.5C 170.738,143.738 169.404,142.738 167.5,142.5C 165.393,141.532 163.059,141.198 160.5,141.5C 167.5,134.167 174.5,126.833 181.5,119.5 Z"/></g>
<g><path style="opacity:0.839" fill="#0092c8" d="M 166.5,142.5 C 166.833,142.5 167.167,142.5 167.5,142.5C 169.404,142.738 170.738,143.738 171.5,145.5C 159.5,158.167 147.167,170.5 134.5,182.5C 134.167,182.5 133.833,182.5 133.5,182.5C 131.958,181.837 130.291,181.17 128.5,180.5C 141.44,168.227 154.107,155.56 166.5,142.5 Z"/></g>
<g><path style="opacity:1" fill="#a8d270" d="M 125.5,160.5 C 122.595,165.617 118.262,167.45 112.5,166C 108.043,163.031 105.377,158.864 104.5,153.5C 104.335,149.818 104.501,146.152 105,142.5C 105.667,141.833 106.333,141.167 107,140.5C 114.476,146.136 120.643,152.803 125.5,160.5 Z"/></g>
<g><path style="opacity:1" fill="#4eb299" d="M 119.5,183.5 C 117.095,184.768 114.428,185.435 111.5,185.5C 111.842,184.662 112.508,184.328 113.5,184.5C 115.379,183.659 117.379,183.325 119.5,183.5 Z"/></g>
<g><path style="opacity:0.887" fill="#77be76" d="M 133.5,182.5 C 133.833,182.5 134.167,182.5 134.5,182.5C 129.693,188.977 123.693,193.977 116.5,197.5C 113.987,194.82 111.654,191.987 109.5,189C 109.905,188.055 110.572,187.388 111.5,187C 109.203,186.982 106.869,187.149 104.5,187.5C 106.515,186.076 108.848,185.41 111.5,185.5C 114.428,185.435 117.095,184.768 119.5,183.5C 124.119,182.686 128.786,182.353 133.5,182.5 Z"/></g>
<g><path style="opacity:0.928" fill="#6fbb69" d="M 116.5,197.5 C 114.597,197.796 112.93,198.463 111.5,199.5C 103.5,199.5 95.5,199.5 87.5,199.5C 84.7845,198.366 82.1178,197.033 79.5,195.5C 79.6107,194.883 79.944,194.383 80.5,194C 86.4477,191.85 92.4477,190.016 98.5,188.5C 100.5,188.167 102.5,187.833 104.5,187.5C 106.869,187.149 109.203,186.982 111.5,187C 110.572,187.388 109.905,188.055 109.5,189C 111.654,191.987 113.987,194.82 116.5,197.5 Z"/></g>
</svg>
