<svg width="58" height="58" viewBox="0 0 58 58" fill="none" xmlns="http://www.w3.org/2000/svg">
<path fill-rule="evenodd" clip-rule="evenodd" d="M29.0045 0H28.982C22.6927 0 17.7744 0 13.8573 0.574717C9.9288 1.1511 6.97934 2.3089 4.6445 4.64456C2.30972 6.98018 1.15192 9.92959 0.575335 13.8578C0 17.7776 0 22.6997 0 28.9955V29.018C0 35.3073 0 40.2256 0.574717 44.1427C1.1511 48.0712 2.3089 51.0206 4.64456 53.3554C6.98018 55.6902 9.92959 56.848 13.8578 57.4246C17.7778 58 22.7002 58 28.9964 58H29.018C35.3073 58 40.2256 58 44.1429 57.4253C48.0716 56.8489 51.0215 55.6911 53.3572 53.3554C55.6919 51.0207 56.8493 48.0726 57.4255 44.1466C58 40.2319 58 35.3172 58 29.0324V28.982C58 22.6927 58 17.7744 57.4255 13.8573C56.8493 9.92883 55.692 6.97937 53.3572 4.64453C51.0223 2.30971 48.0724 1.15191 44.1436 0.575334C40.2232 0 35.3003 0 29.0045 0ZM56.0916 43.9464C55.5399 47.7093 54.4613 50.3438 52.4034 52.4016C50.3455 54.4595 47.7105 55.5386 43.9472 56.0907C40.1459 56.6484 35.3364 56.6512 29 56.6512C22.6637 56.6512 17.8546 56.648 14.0537 56.0901C10.2908 55.5377 7.65611 54.4587 5.59816 52.4015C3.54041 50.3445 2.46139 47.7101 1.90927 43.9469C1.35158 40.1459 1.34884 35.3364 1.34884 29C1.34884 22.6637 1.35199 17.8546 1.90987 14.0537C2.46219 10.2908 3.54123 7.65611 5.59844 5.59816C7.65547 3.54041 10.2899 2.46139 14.0531 1.90927C17.8541 1.35158 22.6636 1.34884 29 1.34884C35.3363 1.34884 40.1463 1.35199 43.9477 1.90988C47.7114 2.46221 50.3463 3.54127 52.4034 5.5983C54.4604 7.65531 55.539 10.2898 56.0909 14.053C56.6484 17.8541 56.6512 22.6636 56.6512 29C56.6512 35.3365 56.6489 40.1455 56.0916 43.9464Z" fill="black"/>
<path d="M16 8H47V9H18.2361H16V8Z" fill="black"/>
<path d="M11 49H13.2361H42V50H11V49Z" fill="black"/>
<path d="M8 45H9H13H13.2361H14H40V44.7639V44H8V45Z" fill="black"/>
<path d="M44 11H45V13V47H44V44.7639V11Z" fill="black"/>
<path d="M39 44H40V44.7639V47H39V44Z" fill="black"/>
<path d="M8 44H9V45V47H8V44Z" fill="black"/>
<path d="M49 11H50V14H49V13V11Z" fill="black"/>
<path d="M44 13H45H49H50V14H44V13Z" fill="black"/>
<path fill-rule="evenodd" clip-rule="evenodd" d="M13 11H14V13.2361V45H13.2361H13H11H9V47C9 48.1046 9.89543 49 11 49H13.2361C12.6868 49.6138 11.8885 50 11 50C9.34315 50 8 48.6569 8 47C8 45.3431 9.34315 44 11 44C11.7684 44 12.4692 44.2889 13 44.7639V11Z" fill="black"/>
<path fill-rule="evenodd" clip-rule="evenodd" d="M45 47C45 48.6569 43.6569 50 42 50C40.3431 50 39 48.6569 39 47C39 46.1115 39.3863 45.3132 40 44.7639V45V47C40 48.1046 40.8954 49 42 49C43.1046 49 44 48.1046 44 47V44.7639C44.6138 45.3132 45 46.1115 45 47Z" fill="black"/>
<path fill-rule="evenodd" clip-rule="evenodd" d="M14 13.2361V11C14 9.89543 14.8954 9 16 9H18.2361C17.6868 8.38625 16.8885 8 16 8C14.3431 8 13 9.34315 13 11C13 11.8885 13.3863 12.6868 14 13.2361Z" fill="black"/>
<path fill-rule="evenodd" clip-rule="evenodd" d="M47 14C48.6569 14 50 12.6569 50 11C50 9.34315 48.6569 8 47 8C45.3431 8 44 9.34315 44 11C44 12.6569 45.3431 14 47 14ZM47 9C48.1046 9 49 9.89543 49 11V13H47H45V11C45 9.89543 45.8954 9 47 9Z" fill="black"/>
<path d="M23.5 27H21.5V34H23.5V27ZM29.5 27H27.5V34H29.5V27ZM38 36H19V38H38V36ZM35.5 27H33.5V34H35.5V27ZM28.5 20.26L33.71 23H23.29L28.5 20.26ZM28.5 18L19 23V25H38V23L28.5 18Z" fill="black"/>
</svg>