<svg height="16" viewBox="0 0 16 16" width="16" xmlns="http://www.w3.org/2000/svg"><path d="m3.05025253 3.05025253c2.73367004-2.73367004 7.16582487-2.73367004 9.89949497 0 2.73367 2.73367004 2.73367 7.16582487 0 9.89949497-2.7336701 2.73367-7.16582493 2.73367-9.89949497 0-1.21603467-1.2160347-1.89113342-2.7681639-2.02529625-4.3573737l1.98453389-.28350484c.07226648 1.17479527.55725846 2.32894744 1.45497592 3.22666494 1.95262146 1.9526215 5.11844636 1.9526215 7.07106781 0 1.9526215-1.95262145 1.9526215-5.11844635 0-7.07106781-1.95262145-1.95262145-5.11844635-1.95262145-7.07106781 0l1.41421357 1.41421357-4.94974747.70710678.70710678-4.94974747zm7.65685427 6.24264069-1.41421358 1.41421358-2.29289322-2.29289324v-3.41421356h2v2.58578644z" fill="#293040"/></svg>