<?xml version="1.0" encoding="us-ascii" standalone="no"?><svg xmlns="http://www.w3.org/2000/svg" xmlns:xlink="http://www.w3.org/1999/xlink" contentStyleType="text/css" height="415px" preserveAspectRatio="none" style="width:878px;height:415px;background:#FFFFFF;" version="1.1" viewBox="0 0 878 415" width="878px" zoomAndPan="magnify"><defs/><g><rect fill="#FFFFFF" height="116.5313" style="stroke:#181818;stroke-width:1.0;" width="10" x="29" y="124.4297"/><rect fill="#FFFFFF" height="125.5313" style="stroke:#181818;stroke-width:1.0;" width="10" x="843" y="199.8281"/><line style="stroke:#181818;stroke-width:0.5;stroke-dasharray:5.0,5.0;" x1="34" x2="34" y1="81.2969" y2="334.3594"/><line style="stroke:#181818;stroke-width:0.5;stroke-dasharray:5.0,5.0;" x1="440.5" x2="440.5" y1="81.2969" y2="334.3594"/><line style="stroke:#181818;stroke-width:0.5;stroke-dasharray:5.0,5.0;" x1="848" x2="848" y1="81.2969" y2="334.3594"/><text fill="#000000" font-family="sans-serif" font-size="14" lengthAdjust="spacing" textLength="52" x="5" y="77.9951">Client 1</text><ellipse cx="34" cy="13.5" fill="#E2E2F0" rx="8" ry="8" style="stroke:#181818;stroke-width:0.5;"/><path d="M34,21.5 L34,48.5 M21,29.5 L47,29.5 M34,48.5 L21,63.5 M34,48.5 L47,63.5 " fill="none" style="stroke:#181818;stroke-width:0.5;"/><text fill="#000000" font-family="sans-serif" font-size="14" lengthAdjust="spacing" textLength="52" x="5" y="346.3545">Client 1</text><ellipse cx="34" cy="358.1563" fill="#E2E2F0" rx="8" ry="8" style="stroke:#181818;stroke-width:0.5;"/><path d="M34,366.1563 L34,393.1563 M21,374.1563 L47,374.1563 M34,393.1563 L21,408.1563 M34,393.1563 L47,408.1563 " fill="none" style="stroke:#181818;stroke-width:0.5;"/><rect fill="#E2E2F0" height="30.2969" rx="2.5" ry="2.5" style="stroke:#181818;stroke-width:0.5;" width="157" x="362.5" y="50"/><text fill="#000000" font-family="sans-serif" font-size="14" lengthAdjust="spacing" textLength="143" x="369.5" y="69.9951">Admin portal RestAPI</text><rect fill="#E2E2F0" height="30.2969" rx="2.5" ry="2.5" style="stroke:#181818;stroke-width:0.5;" width="157" x="362.5" y="333.3594"/><text fill="#000000" font-family="sans-serif" font-size="14" lengthAdjust="spacing" textLength="143" x="369.5" y="353.3545">Admin portal RestAPI</text><text fill="#000000" font-family="sans-serif" font-size="14" lengthAdjust="spacing" textLength="52" x="819" y="77.9951">Client 2</text><ellipse cx="848" cy="13.5" fill="#E2E2F0" rx="8" ry="8" style="stroke:#181818;stroke-width:0.5;"/><path d="M848,21.5 L848,48.5 M835,29.5 L861,29.5 M848,48.5 L835,63.5 M848,48.5 L861,63.5 " fill="none" style="stroke:#181818;stroke-width:0.5;"/><text fill="#000000" font-family="sans-serif" font-size="14" lengthAdjust="spacing" textLength="52" x="819" y="346.3545">Client 2</text><ellipse cx="848" cy="358.1563" fill="#E2E2F0" rx="8" ry="8" style="stroke:#181818;stroke-width:0.5;"/><path d="M848,366.1563 L848,393.1563 M835,374.1563 L861,374.1563 M848,393.1563 L835,408.1563 M848,393.1563 L861,408.1563 " fill="none" style="stroke:#181818;stroke-width:0.5;"/><rect fill="#FFFFFF" height="116.5313" style="stroke:#181818;stroke-width:1.0;" width="10" x="29" y="124.4297"/><rect fill="#FFFFFF" height="125.5313" style="stroke:#181818;stroke-width:1.0;" width="10" x="843" y="199.8281"/><polygon fill="#181818" points="429,108.4297,439,112.4297,429,116.4297,433,112.4297" style="stroke:#181818;stroke-width:1.0;"/><line style="stroke:#181818;stroke-width:1.0;" x1="34" x2="435" y1="112.4297" y2="112.4297"/><text fill="#000000" font-family="sans-serif" font-size="13" font-weight="bold" lengthAdjust="spacing" textLength="9" x="41" y="107.3638">1</text><text fill="#000000" font-family="sans-serif" font-size="13" lengthAdjust="spacing" textLength="241" x="54" y="107.3638">GET /versions/1/forms/form1 HTTP/1.1</text><polygon fill="#181818" points="50,120.4297,40,124.4297,50,128.4297,46,124.4297" style="stroke:#181818;stroke-width:1.0;"/><line style="stroke:#181818;stroke-width:1.0;" x1="44" x2="440" y1="124.4297" y2="124.4297"/><text fill="#000000" font-family="sans-serif" font-size="13" font-weight="bold" lengthAdjust="spacing" textLength="9" x="56" y="137.4966">2</text><text fill="#000000" font-family="sans-serif" font-size="13" lengthAdjust="spacing" textLength="208" x="69" y="137.4966">HTTP/1.1 200 OK; Etag: "abcde1"</text><polygon fill="#181818" points="452,149.5625,442,153.5625,452,157.5625,448,153.5625" style="stroke:#181818;stroke-width:1.0;"/><line style="stroke:#181818;stroke-width:1.0;" x1="446" x2="847" y1="153.5625" y2="153.5625"/><text fill="#000000" font-family="sans-serif" font-size="13" font-weight="bold" lengthAdjust="spacing" textLength="9" x="458" y="166.6294">3</text><text fill="#000000" font-family="sans-serif" font-size="13" lengthAdjust="spacing" textLength="241" x="471" y="166.6294">GET /versions/1/forms/form1 HTTP/1.1</text><polygon fill="#181818" points="831,195.8281,841,199.8281,831,203.8281,835,199.8281" style="stroke:#181818;stroke-width:1.0;"/><line style="stroke:#181818;stroke-width:1.0;" x1="441" x2="837" y1="199.8281" y2="199.8281"/><text fill="#000000" font-family="sans-serif" font-size="13" font-weight="bold" lengthAdjust="spacing" textLength="9" x="448" y="194.7622">4</text><text fill="#000000" font-family="sans-serif" font-size="13" lengthAdjust="spacing" textLength="208" x="461" y="194.7622">HTTP/1.1 200 OK; Etag: "abcde1"</text><polygon fill="#181818" points="429,224.9609,439,228.9609,429,232.9609,433,228.9609" style="stroke:#181818;stroke-width:1.0;"/><line style="stroke:#181818;stroke-width:1.0;" x1="39" x2="435" y1="228.9609" y2="228.9609"/><text fill="#000000" font-family="sans-serif" font-size="13" font-weight="bold" lengthAdjust="spacing" textLength="9" x="46" y="223.895">5</text><text fill="#000000" font-family="sans-serif" font-size="13" lengthAdjust="spacing" textLength="365" x="59" y="223.895">PUT /versions/1/forms/form1 HTTP/1.1; If-Match: "abcde1"</text><polygon fill="#181818" points="45,236.9609,35,240.9609,45,244.9609,41,240.9609" style="stroke:#181818;stroke-width:1.0;"/><line style="stroke:#181818;stroke-width:1.0;" x1="39" x2="440" y1="240.9609" y2="240.9609"/><text fill="#000000" font-family="sans-serif" font-size="13" font-weight="bold" lengthAdjust="spacing" textLength="9" x="51" y="254.0278">6</text><text fill="#000000" font-family="sans-serif" font-size="13" lengthAdjust="spacing" textLength="208" x="64" y="254.0278">HTTP/1.1 200 OK; Etag: "abcde2"</text><polygon fill="#181818" points="452,266.0938,442,270.0938,452,274.0938,448,270.0938" style="stroke:#181818;stroke-width:1.0;"/><line style="stroke:#181818;stroke-width:1.0;" x1="446" x2="842" y1="270.0938" y2="270.0938"/><text fill="#000000" font-family="sans-serif" font-size="13" font-weight="bold" lengthAdjust="spacing" textLength="9" x="458" y="283.1606">7</text><text fill="#000000" font-family="sans-serif" font-size="13" lengthAdjust="spacing" textLength="365" x="471" y="283.1606">PUT /versions/1/forms/form1 HTTP/1.1; If-Match: "abcde1"</text><polygon fill="#181818" points="831,312.3594,841,316.3594,831,320.3594,835,316.3594" style="stroke:#181818;stroke-width:1.0;"/><line style="stroke:#181818;stroke-width:1.0;" x1="441" x2="837" y1="316.3594" y2="316.3594"/><text fill="#000000" font-family="sans-serif" font-size="13" font-weight="bold" lengthAdjust="spacing" textLength="9" x="448" y="311.2935">8</text><text fill="#000000" font-family="sans-serif" font-size="13" lengthAdjust="spacing" textLength="212" x="461" y="311.2935">HTTP/1.1 412 Precondition Failed;</text><!--SRC=[hP31JiCm38RlUGehzz8buhHEameQCA692ie3UAat8jgcSjBjzIcZxIQO108kaIBRdx_Vs0PNjzMQMFXNMpV8M06JRrpjQKNUuvQkg7JxbDdj8N1BGg09Za5UbvRg04e2UlZuAD4HWZMsmQuYqwAoDJIE0vRmI3wasVBG_KIyiuO-aVG9IGlH8o6Q3_rJk5ta4E-8lUq4OnLl75V-y2guo_CiLXTg79n5ny6X27eoWOVx11O1jrEGk3O5AVbkOdSOQ0pIQ_nsk_xBzcFuQ3uoikVlboUmt4Gh3ERb1DwZPj7FTBGK1Nqvnn3h_uJqEQ5BfI5ZCgukREYuS8Esf28ve_G6]--></g></svg>