<?xml version="1.0" encoding="us-ascii" standalone="no"?><svg xmlns="http://www.w3.org/2000/svg" xmlns:xlink="http://www.w3.org/1999/xlink" contentStyleType="text/css" height="754px" preserveAspectRatio="none" style="width:731px;height:754px;background:#FFFFFF;" version="1.1" viewBox="0 0 731 754" width="731px" zoomAndPan="magnify"><defs/><g><rect fill="#FFFFFF" height="29.1328" style="stroke:#181818;stroke-width:1.0;" width="10" x="50.5" y="488.1563"/><rect fill="#FFFFFF" height="326.4609" style="stroke:#181818;stroke-width:1.0;" width="10" x="118.5" y="91.2969"/><rect fill="#FFFFFF" height="29.1328" style="stroke:#181818;stroke-width:1.0;" width="10" x="118.5" y="619.4922"/><rect fill="#FFFFFF" height="305.3281" style="stroke:#181818;stroke-width:1.0;" width="10" x="520.5" y="112.4297"/><rect fill="#FFFFFF" height="29.1328" style="stroke:#181818;stroke-width:1.0;" width="10" x="659" y="488.1563"/><rect fill="#FFFFFF" height="29.1328" style="stroke:#181818;stroke-width:1.0;" width="10" x="659" y="619.4922"/><rect fill="none" height="104.5313" style="stroke:#000000;stroke-width:1.5;" width="523" x="91" y="273.0938"/><rect fill="none" height="206.7344" style="stroke:#000000;stroke-width:1.5;" width="714" x="10" y="449.8906"/><line style="stroke:#181818;stroke-width:0.5;stroke-dasharray:5.0,5.0;" x1="55" x2="55" y1="81.2969" y2="673.625"/><line style="stroke:#181818;stroke-width:0.5;stroke-dasharray:5.0,5.0;" x1="123" x2="123" y1="81.2969" y2="673.625"/><line style="stroke:#181818;stroke-width:0.5;stroke-dasharray:5.0,5.0;" x1="525" x2="525" y1="81.2969" y2="673.625"/><line style="stroke:#181818;stroke-width:0.5;stroke-dasharray:5.0,5.0;" x1="664" x2="664" y1="81.2969" y2="673.625"/><text fill="#000000" font-family="sans-serif" font-size="14" lengthAdjust="spacing" textLength="65" x="20" y="77.9951">Inspector</text><ellipse cx="55.5" cy="13.5" fill="#E2E2F0" rx="8" ry="8" style="stroke:#181818;stroke-width:0.5;"/><path d="M55.5,21.5 L55.5,48.5 M42.5,29.5 L68.5,29.5 M55.5,48.5 L42.5,63.5 M55.5,48.5 L68.5,63.5 " fill="none" style="stroke:#181818;stroke-width:0.5;"/><text fill="#000000" font-family="sans-serif" font-size="14" lengthAdjust="spacing" textLength="65" x="20" y="685.6201">Inspector</text><ellipse cx="55.5" cy="697.4219" fill="#E2E2F0" rx="8" ry="8" style="stroke:#181818;stroke-width:0.5;"/><path d="M55.5,705.4219 L55.5,732.4219 M42.5,713.4219 L68.5,713.4219 M55.5,732.4219 L42.5,747.4219 M55.5,732.4219 L68.5,747.4219 " fill="none" style="stroke:#181818;stroke-width:0.5;"/><text fill="#000000" font-family="sans-serif" font-size="14" lengthAdjust="spacing" textLength="39" x="101" y="77.9951">Client</text><ellipse cx="123.5" cy="13.5" fill="#E2E2F0" rx="8" ry="8" style="stroke:#181818;stroke-width:0.5;"/><path d="M123.5,21.5 L123.5,48.5 M110.5,29.5 L136.5,29.5 M123.5,48.5 L110.5,63.5 M123.5,48.5 L136.5,63.5 " fill="none" style="stroke:#181818;stroke-width:0.5;"/><text fill="#000000" font-family="sans-serif" font-size="14" lengthAdjust="spacing" textLength="39" x="101" y="685.6201">Client</text><ellipse cx="123.5" cy="697.4219" fill="#E2E2F0" rx="8" ry="8" style="stroke:#181818;stroke-width:0.5;"/><path d="M123.5,705.4219 L123.5,732.4219 M110.5,713.4219 L136.5,713.4219 M123.5,732.4219 L110.5,747.4219 M123.5,732.4219 L136.5,747.4219 " fill="none" style="stroke:#181818;stroke-width:0.5;"/><rect fill="#E2E2F0" height="30.2969" rx="2.5" ry="2.5" style="stroke:#181818;stroke-width:0.5;" width="157" x="447" y="50"/><text fill="#000000" font-family="sans-serif" font-size="14" lengthAdjust="spacing" textLength="143" x="454" y="69.9951">Admin portal RestAPI</text><rect fill="#E2E2F0" height="30.2969" rx="2.5" ry="2.5" style="stroke:#181818;stroke-width:0.5;" width="157" x="447" y="672.625"/><text fill="#000000" font-family="sans-serif" font-size="14" lengthAdjust="spacing" textLength="143" x="454" y="692.6201">Admin portal RestAPI</text><rect fill="#E2E2F0" height="30.2969" rx="2.5" ry="2.5" style="stroke:#181818;stroke-width:0.5;" width="100" x="614" y="50"/><text fill="#000000" font-family="sans-serif" font-size="14" lengthAdjust="spacing" textLength="86" x="621" y="69.9951">Gerrit WebUI</text><rect fill="#E2E2F0" height="30.2969" rx="2.5" ry="2.5" style="stroke:#181818;stroke-width:0.5;" width="100" x="614" y="672.625"/><text fill="#000000" font-family="sans-serif" font-size="14" lengthAdjust="spacing" textLength="86" x="621" y="692.6201">Gerrit WebUI</text><rect fill="#FFFFFF" height="29.1328" style="stroke:#181818;stroke-width:1.0;" width="10" x="50.5" y="488.1563"/><rect fill="#FFFFFF" height="326.4609" style="stroke:#181818;stroke-width:1.0;" width="10" x="118.5" y="91.2969"/><rect fill="#FFFFFF" height="29.1328" style="stroke:#181818;stroke-width:1.0;" width="10" x="118.5" y="619.4922"/><rect fill="#FFFFFF" height="305.3281" style="stroke:#181818;stroke-width:1.0;" width="10" x="520.5" y="112.4297"/><rect fill="#FFFFFF" height="29.1328" style="stroke:#181818;stroke-width:1.0;" width="10" x="659" y="488.1563"/><rect fill="#FFFFFF" height="29.1328" style="stroke:#181818;stroke-width:1.0;" width="10" x="659" y="619.4922"/><polygon fill="#181818" points="508.5,108.4297,518.5,112.4297,508.5,116.4297,512.5,112.4297" style="stroke:#181818;stroke-width:1.0;"/><line style="stroke:#181818;stroke-width:1.0;" x1="128.5" x2="514.5" y1="112.4297" y2="112.4297"/><text fill="#000000" font-family="sans-serif" font-size="13" font-weight="bold" lengthAdjust="spacing" textLength="9" x="135.5" y="107.3638">1</text><text fill="#000000" font-family="sans-serif" font-size="13" lengthAdjust="spacing" textLength="146" x="148.5" y="107.3638">GET /versions HTTP/1.1</text><polygon fill="#181818" points="139.5,120.4297,129.5,124.4297,139.5,128.4297,135.5,124.4297" style="stroke:#181818;stroke-width:1.0;"/><line style="stroke:#181818;stroke-width:1.0;" x1="133.5" x2="519.5" y1="124.4297" y2="124.4297"/><text fill="#000000" font-family="sans-serif" font-size="13" font-weight="bold" lengthAdjust="spacing" textLength="9" x="145.5" y="137.4966">2</text><text fill="#000000" font-family="sans-serif" font-size="13" lengthAdjust="spacing" textLength="209" x="158.5" y="137.4966">HTTP/1.1 200 OK; List of versions</text><polygon fill="#181818" points="508.5,166.6953,518.5,170.6953,508.5,174.6953,512.5,170.6953" style="stroke:#181818;stroke-width:1.0;"/><line style="stroke:#181818;stroke-width:1.0;" x1="128.5" x2="514.5" y1="170.6953" y2="170.6953"/><text fill="#000000" font-family="sans-serif" font-size="13" font-weight="bold" lengthAdjust="spacing" textLength="9" x="135.5" y="165.6294">3</text><text fill="#000000" font-family="sans-serif" font-size="13" lengthAdjust="spacing" textLength="158" x="148.5" y="165.6294">GET /versions/1 HTTP/1.1</text><polygon fill="#181818" points="139.5,178.6953,129.5,182.6953,139.5,186.6953,135.5,182.6953" style="stroke:#181818;stroke-width:1.0;"/><line style="stroke:#181818;stroke-width:1.0;" x1="133.5" x2="519.5" y1="182.6953" y2="182.6953"/><text fill="#000000" font-family="sans-serif" font-size="13" font-weight="bold" lengthAdjust="spacing" textLength="9" x="145.5" y="195.7622">4</text><text fill="#000000" font-family="sans-serif" font-size="13" lengthAdjust="spacing" textLength="355" x="158.5" y="195.7622">HTTP/1.1 200 OK; Specific details of version-candidate 1</text><polygon fill="#181818" points="508.5,224.9609,518.5,228.9609,508.5,232.9609,512.5,228.9609" style="stroke:#181818;stroke-width:1.0;"/><line style="stroke:#181818;stroke-width:1.0;" x1="128.5" x2="514.5" y1="228.9609" y2="228.9609"/><text fill="#000000" font-family="sans-serif" font-size="13" font-weight="bold" lengthAdjust="spacing" textLength="9" x="135.5" y="223.895">5</text><text fill="#000000" font-family="sans-serif" font-size="13" lengthAdjust="spacing" textLength="155" x="148.5" y="223.895">POST /versions HTTP/1.1</text><polygon fill="#181818" points="139.5,236.9609,129.5,240.9609,139.5,244.9609,135.5,240.9609" style="stroke:#181818;stroke-width:1.0;"/><line style="stroke:#181818;stroke-width:1.0;" x1="133.5" x2="519.5" y1="240.9609" y2="240.9609"/><text fill="#000000" font-family="sans-serif" font-size="13" font-weight="bold" lengthAdjust="spacing" textLength="9" x="145.5" y="254.0278">6</text><text fill="#000000" font-family="sans-serif" font-size="13" lengthAdjust="spacing" textLength="342" x="158.5" y="254.0278">HTTP/1.1 200 OK; New version-candidate details (id:2)</text><path d="M91,273.0938 L431,273.0938 L431,280.2266 L421,290.2266 L91,290.2266 L91,273.0938 " fill="#EEEEEE" style="stroke:#000000;stroke-width:1.5;"/><rect fill="none" height="104.5313" style="stroke:#000000;stroke-width:1.5;" width="523" x="91" y="273.0938"/><text fill="#000000" font-family="sans-serif" font-size="13" font-weight="bold" lengthAdjust="spacing" textLength="295" x="106" y="286.1606">registry regulations entity management</text><polygon fill="#181818" points="508.5,307.3594,518.5,311.3594,508.5,315.3594,512.5,311.3594" style="stroke:#181818;stroke-width:1.0;"/><line style="stroke:#181818;stroke-width:1.0;" x1="128.5" x2="514.5" y1="311.3594" y2="311.3594"/><text fill="#000000" font-family="sans-serif" font-size="13" font-weight="bold" lengthAdjust="spacing" textLength="9" x="135.5" y="306.2935">7</text><text fill="#000000" font-family="sans-serif" font-size="13" lengthAdjust="spacing" textLength="78" x="148.5" y="306.2935">CRUD forms</text><polygon fill="#181818" points="508.5,336.4922,518.5,340.4922,508.5,344.4922,512.5,340.4922" style="stroke:#181818;stroke-width:1.0;"/><line style="stroke:#181818;stroke-width:1.0;" x1="128.5" x2="514.5" y1="340.4922" y2="340.4922"/><text fill="#000000" font-family="sans-serif" font-size="13" font-weight="bold" lengthAdjust="spacing" textLength="9" x="135.5" y="335.4263">8</text><text fill="#000000" font-family="sans-serif" font-size="13" lengthAdjust="spacing" textLength="167" x="148.5" y="335.4263">CRUD business-processes</text><polygon fill="#181818" points="508.5,365.625,518.5,369.625,508.5,373.625,512.5,369.625" style="stroke:#181818;stroke-width:1.0;"/><line style="stroke:#181818;stroke-width:1.0;" x1="128.5" x2="514.5" y1="369.625" y2="369.625"/><text fill="#000000" font-family="sans-serif" font-size="13" font-weight="bold" lengthAdjust="spacing" textLength="9" x="135.5" y="364.5591">9</text><text fill="#000000" font-family="sans-serif" font-size="13" lengthAdjust="spacing" textLength="109" x="148.5" y="364.5591">Read data model</text><polygon fill="#181818" points="508.5,401.7578,518.5,405.7578,508.5,409.7578,512.5,405.7578" style="stroke:#181818;stroke-width:1.0;"/><line style="stroke:#181818;stroke-width:1.0;" x1="128.5" x2="514.5" y1="405.7578" y2="405.7578"/><text fill="#000000" font-family="sans-serif" font-size="13" font-weight="bold" lengthAdjust="spacing" textLength="18" x="135.5" y="400.6919">10</text><text fill="#000000" font-family="sans-serif" font-size="13" lengthAdjust="spacing" textLength="146" x="157.5" y="400.6919">GET /versions/2/rebase</text><polygon fill="#181818" points="134.5,413.7578,124.5,417.7578,134.5,421.7578,130.5,417.7578" style="stroke:#181818;stroke-width:1.0;"/><line style="stroke:#181818;stroke-width:1.0;" x1="128.5" x2="524.5" y1="417.7578" y2="417.7578"/><text fill="#000000" font-family="sans-serif" font-size="13" font-weight="bold" lengthAdjust="spacing" textLength="18" x="140.5" y="430.8247">11</text><text fill="#000000" font-family="sans-serif" font-size="13" lengthAdjust="spacing" textLength="205" x="162.5" y="430.8247">HTTP/1.1 Rebase response code</text><path d="M10,449.8906 L74,449.8906 L74,457.0234 L64,467.0234 L10,467.0234 L10,449.8906 " fill="#EEEEEE" style="stroke:#000000;stroke-width:1.5;"/><rect fill="none" height="206.7344" style="stroke:#000000;stroke-width:1.5;" width="714" x="10" y="449.8906"/><text fill="#000000" font-family="sans-serif" font-size="13" font-weight="bold" lengthAdjust="spacing" textLength="19" x="25" y="462.9575">alt</text><text fill="#000000" font-family="sans-serif" font-size="11" font-weight="bold" lengthAdjust="spacing" textLength="183" x="89" y="462.1011">[rebase status code == 200]</text><polygon fill="#181818" points="647,484.1563,657,488.1563,647,492.1563,651,488.1563" style="stroke:#181818;stroke-width:1.0;"/><line style="stroke:#181818;stroke-width:1.0;" x1="60.5" x2="653" y1="488.1563" y2="488.1563"/><text fill="#000000" font-family="sans-serif" font-size="13" font-weight="bold" lengthAdjust="spacing" textLength="18" x="67.5" y="483.0903">12</text><text fill="#000000" font-family="sans-serif" font-size="13" lengthAdjust="spacing" textLength="66" x="89.5" y="483.0903">Review MR</text><polygon fill="#181818" points="652,513.2891,662,517.2891,652,521.2891,656,517.2891" style="stroke:#181818;stroke-width:1.0;"/><line style="stroke:#181818;stroke-width:1.0;" x1="55.5" x2="658" y1="517.2891" y2="517.2891"/><text fill="#000000" font-family="sans-serif" font-size="13" font-weight="bold" lengthAdjust="spacing" textLength="18" x="62.5" y="512.2231">13</text><text fill="#000000" font-family="sans-serif" font-size="13" lengthAdjust="spacing" textLength="76" x="84.5" y="512.2231">Approve MR</text><polygon fill="#181818" points="513.5,542.4219,523.5,546.4219,513.5,550.4219,517.5,546.4219" style="stroke:#181818;stroke-width:1.0;"/><line style="stroke:#181818;stroke-width:1.0;" x1="123.5" x2="519.5" y1="546.4219" y2="546.4219"/><text fill="#000000" font-family="sans-serif" font-size="13" font-weight="bold" lengthAdjust="spacing" textLength="18" x="130.5" y="541.356">14</text><text fill="#000000" font-family="sans-serif" font-size="13" lengthAdjust="spacing" textLength="146" x="152.5" y="541.356">GET /versions/2/submit</text><polygon fill="#181818" points="134.5,554.4219,124.5,558.4219,134.5,562.4219,130.5,558.4219" style="stroke:#181818;stroke-width:1.0;"/><line style="stroke:#181818;stroke-width:1.0;" x1="128.5" x2="524.5" y1="558.4219" y2="558.4219"/><text fill="#000000" font-family="sans-serif" font-size="13" font-weight="bold" lengthAdjust="spacing" textLength="18" x="140.5" y="571.4888">15</text><text fill="#000000" font-family="sans-serif" font-size="13" lengthAdjust="spacing" textLength="110" x="162.5" y="571.4888">HTTP/1.1 200 OK;</text><line style="stroke:#000000;stroke-width:1.0;stroke-dasharray:2.0,2.0;" x1="10" x2="724" y1="584.5547" y2="584.5547"/><text fill="#000000" font-family="sans-serif" font-size="11" font-weight="bold" lengthAdjust="spacing" textLength="100" x="15" y="594.7651">[have conflicts]</text><polygon fill="#181818" points="647,615.4922,657,619.4922,647,623.4922,651,619.4922" style="stroke:#181818;stroke-width:1.0;"/><line style="stroke:#181818;stroke-width:1.0;" x1="128.5" x2="653" y1="619.4922" y2="619.4922"/><text fill="#000000" font-family="sans-serif" font-size="13" font-weight="bold" lengthAdjust="spacing" textLength="18" x="135.5" y="614.4263">16</text><text fill="#000000" font-family="sans-serif" font-size="13" lengthAdjust="spacing" textLength="73" x="157.5" y="614.4263">Fix conflicts</text><polygon fill="#181818" points="652,644.625,662,648.625,652,652.625,656,648.625" style="stroke:#181818;stroke-width:1.0;"/><line style="stroke:#181818;stroke-width:1.0;" x1="123.5" x2="658" y1="648.625" y2="648.625"/><text fill="#000000" font-family="sans-serif" font-size="13" font-weight="bold" lengthAdjust="spacing" textLength="18" x="130.5" y="643.5591">17</text><text fill="#000000" font-family="sans-serif" font-size="13" lengthAdjust="spacing" textLength="69" x="152.5" y="643.5591">Submit MR</text><!--SRC=[ZLHDRzim3BthLn0vROSiJOxTMY3jjgxOkWPEYfrfYyc8oP8XoSxwxoVPySS2j_L9iaJoFJuz6ajlT9cdP8Nxmxf0YpbOSeNHZXx8EJpG3IbpN5jhZk1jIK9Wves5sRrs1SNj3D11zzNTtoecxUlBPYj4gEyvumArXzbQvgoXCDQZWeISNs_kw-WjsOepEWk_8slPmozAdvgmvg26umezTIZD2lFhjj8bt7tPmQ8YwpWq1jzskyrY-M7PfxQGfzHFypwr3ORLnGKyVly8FzXvC7jeoxqDk5Zsa5CGja59tdC6aZooSWEqUOPQieoSbwF0cyVjQAjJS7_ISGId9V6EvUNglH07QyeYcEGGTB3FSLCgz3LQG63_33dgu9lyfSUuJPu-mzxOtBrucvQETR3VlB0c2okDXYQ44W97XDn8KaAGbXDUOxMmbA9x_RMJEgIR1SW2WX2IpjqsEEbyYyf30m7EeozTdGrNLr5f8RfHYHmR5yTUAWxoFoIzAVkHwevEdX-ji2w2M1N54WDIfup1oM1I9qZboZGF-HFi4-HNeUFVM4Mrz5vnvlyRZfReL_ux23WNz9pvI85jpIas-dgdxGyXsE8V]--></g></svg>