<?xml version="1.0" encoding="us-ascii" standalone="no"?><svg xmlns="http://www.w3.org/2000/svg" xmlns:xlink="http://www.w3.org/1999/xlink" contentStyleType="text/css" height="207px" preserveAspectRatio="none" style="width:176px;height:207px;background:#FFFFFF;" version="1.1" viewBox="0 0 176 207" width="176px" zoomAndPan="magnify"><defs/><g><path d="M17,8.9688 L17,10.9688 L25,10.9688 L25,9.9688 L20,9.9688 L20,8.9688 L17,8.9688 M17,11.9688 L17,16.4688 C17,16.7488 17.22,16.9688 17.5,16.9688 L24.5,16.9688 C24.78,16.9688 25,16.7488 25,16.4688 L25,11.9688 L17,11.9688 " fill="#000000" style="stroke:;stroke-width:0.0;stroke-dasharray:;"/><text fill="#000000" font-family="sans-serif" font-size="12" lengthAdjust="spacing" textLength="115" x="30" y="17.1387">registry-regulation</text><path d="M47,22.9375 L47,24.9375 L55,24.9375 L55,23.9375 L50,23.9375 L50,22.9375 L47,22.9375 M47,25.9375 L47,30.4375 C47,30.7175 47.22,30.9375 47.5,30.9375 L54.5,30.9375 C54.78,30.9375 55,30.7175 55,30.4375 L55,25.9375 L47,25.9375 " fill="#000000" style="stroke:;stroke-width:0.0;stroke-dasharray:;"/><text fill="#000000" font-family="sans-serif" font-size="12" lengthAdjust="spacing" textLength="4" x="56" y="31.1074">&#160;</text><text fill="#000000" font-family="sans-serif" font-size="12" font-weight="bold" lengthAdjust="spacing" textLength="39" x="60" y="31.1074">bpmn</text><path d="M67,36.9063 L67,44.9063 L74,44.9063 L74,40.9063 L70,40.9063 L70,36.9063 L67,36.9063 M71,36.9063 L71,39.9063 L74,39.9063 L71,36.9063 " fill="#000000" style="stroke:;stroke-width:0.0;stroke-dasharray:;"/><text fill="#000000" font-family="sans-serif" font-size="12" lengthAdjust="spacing" textLength="89" x="80" y="45.0762">process.bpmn</text><path d="M67,50.875 L67,58.875 L74,58.875 L74,54.875 L70,54.875 L70,50.875 L67,50.875 M71,50.875 L71,53.875 L74,53.875 L71,50.875 " fill="#000000" style="stroke:;stroke-width:0.0;stroke-dasharray:;"/><text fill="#000000" font-family="sans-serif" font-size="12" lengthAdjust="spacing" textLength="12" x="80" y="59.0449">...</text><path d="M47,64.8438 L47,66.8438 L55,66.8438 L55,65.8438 L50,65.8438 L50,64.8438 L47,64.8438 M47,67.8438 L47,72.3438 C47,72.6238 47.22,72.8438 47.5,72.8438 L54.5,72.8438 C54.78,72.8438 55,72.6238 55,72.3438 L55,67.8438 L47,67.8438 " fill="#000000" style="stroke:;stroke-width:0.0;stroke-dasharray:;"/><text fill="#000000" font-family="sans-serif" font-size="12" lengthAdjust="spacing" textLength="4" x="56" y="73.0137">&#160;</text><text fill="#000000" font-family="sans-serif" font-size="12" font-weight="bold" lengthAdjust="spacing" textLength="30" x="60" y="73.0137">dmn</text><path d="M67,78.8125 L67,86.8125 L74,86.8125 L74,82.8125 L70,82.8125 L70,78.8125 L67,78.8125 M71,78.8125 L71,81.8125 L74,81.8125 L71,78.8125 " fill="#000000" style="stroke:;stroke-width:0.0;stroke-dasharray:;"/><text fill="#000000" font-family="sans-serif" font-size="12" lengthAdjust="spacing" textLength="55" x="80" y="86.9824">rule.dmn</text><path d="M67,92.7813 L67,100.7813 L74,100.7813 L74,96.7813 L70,96.7813 L70,92.7813 L67,92.7813 M71,92.7813 L71,95.7813 L74,95.7813 L71,92.7813 " fill="#000000" style="stroke:;stroke-width:0.0;stroke-dasharray:;"/><text fill="#000000" font-family="sans-serif" font-size="12" lengthAdjust="spacing" textLength="12" x="80" y="100.9512">...</text><path d="M47,106.75 L47,108.75 L55,108.75 L55,107.75 L50,107.75 L50,106.75 L47,106.75 M47,109.75 L47,114.25 C47,114.53 47.22,114.75 47.5,114.75 L54.5,114.75 C54.78,114.75 55,114.53 55,114.25 L55,109.75 L47,109.75 " fill="#000000" style="stroke:;stroke-width:0.0;stroke-dasharray:;"/><text fill="#000000" font-family="sans-serif" font-size="12" lengthAdjust="spacing" textLength="4" x="56" y="114.9199">&#160;</text><text fill="#000000" font-family="sans-serif" font-size="12" font-weight="bold" lengthAdjust="spacing" textLength="40" x="60" y="114.9199">forms</text><path d="M67,120.7188 L67,128.7188 L74,128.7188 L74,124.7188 L70,124.7188 L70,120.7188 L67,120.7188 M71,120.7188 L71,123.7188 L74,123.7188 L71,120.7188 " fill="#000000" style="stroke:;stroke-width:0.0;stroke-dasharray:;"/><text fill="#000000" font-family="sans-serif" font-size="12" lengthAdjust="spacing" textLength="58" x="80" y="128.8887">form.json</text><path d="M67,134.6875 L67,142.6875 L74,142.6875 L74,138.6875 L70,138.6875 L70,134.6875 L67,134.6875 M71,134.6875 L71,137.6875 L74,137.6875 L71,134.6875 " fill="#000000" style="stroke:;stroke-width:0.0;stroke-dasharray:;"/><text fill="#000000" font-family="sans-serif" font-size="12" lengthAdjust="spacing" textLength="12" x="80" y="142.8574">...</text><path d="M47,148.6563 L47,150.6563 L55,150.6563 L55,149.6563 L50,149.6563 L50,148.6563 L47,148.6563 M47,151.6563 L47,156.1563 C47,156.4363 47.22,156.6563 47.5,156.6563 L54.5,156.6563 C54.78,156.6563 55,156.4363 55,156.1563 L55,151.6563 L47,151.6563 " fill="#000000" style="stroke:;stroke-width:0.0;stroke-dasharray:;"/><text fill="#000000" font-family="sans-serif" font-size="12" lengthAdjust="spacing" textLength="4" x="56" y="156.8262">&#160;</text><text fill="#000000" font-family="sans-serif" font-size="12" font-weight="bold" lengthAdjust="spacing" textLength="48" x="60" y="156.8262">scripts</text><path d="M67,162.625 L67,170.625 L74,170.625 L74,166.625 L70,166.625 L70,162.625 L67,162.625 M71,162.625 L71,165.625 L74,165.625 L71,162.625 " fill="#000000" style="stroke:;stroke-width:0.0;stroke-dasharray:;"/><text fill="#000000" font-family="sans-serif" font-size="12" lengthAdjust="spacing" textLength="80" x="80" y="170.7949">script.groovy</text><path d="M67,176.5938 L67,184.5938 L74,184.5938 L74,180.5938 L70,180.5938 L70,176.5938 L67,176.5938 M71,176.5938 L71,179.5938 L74,179.5938 L71,176.5938 " fill="#000000" style="stroke:;stroke-width:0.0;stroke-dasharray:;"/><text fill="#000000" font-family="sans-serif" font-size="12" lengthAdjust="spacing" textLength="12" x="80" y="184.7637">...</text><text fill="#000000" font-family="sans-serif" font-size="12" lengthAdjust="spacing" textLength="12" x="46" y="198.7324">...</text><rect fill="none" height="2" style="stroke:#888888;stroke-width:1.0;" width="2" x="9" y="11.9844"/><rect fill="none" height="2" style="stroke:#888888;stroke-width:1.0;" width="2" x="39" y="25.9531"/><line style="stroke:#888888;stroke-width:1.0;" x1="10" x2="10" y1="14.9844" y2="26.9531"/><line style="stroke:#888888;stroke-width:1.0;" x1="10" x2="38" y1="26.9531" y2="26.9531"/><line style="stroke:#888888;stroke-width:1.0;" x1="40" x2="40" y1="28.9531" y2="40.9219"/><line style="stroke:#888888;stroke-width:1.0;" x1="40" x2="58" y1="40.9219" y2="40.9219"/><line style="stroke:#888888;stroke-width:1.0;" x1="40" x2="40" y1="28.9531" y2="54.8906"/><line style="stroke:#888888;stroke-width:1.0;" x1="40" x2="58" y1="54.8906" y2="54.8906"/><rect fill="none" height="2" style="stroke:#888888;stroke-width:1.0;" width="2" x="39" y="67.8594"/><line style="stroke:#888888;stroke-width:1.0;" x1="10" x2="10" y1="14.9844" y2="68.8594"/><line style="stroke:#888888;stroke-width:1.0;" x1="10" x2="38" y1="68.8594" y2="68.8594"/><line style="stroke:#888888;stroke-width:1.0;" x1="40" x2="40" y1="70.8594" y2="82.8281"/><line style="stroke:#888888;stroke-width:1.0;" x1="40" x2="58" y1="82.8281" y2="82.8281"/><line style="stroke:#888888;stroke-width:1.0;" x1="40" x2="40" y1="70.8594" y2="96.7969"/><line style="stroke:#888888;stroke-width:1.0;" x1="40" x2="58" y1="96.7969" y2="96.7969"/><rect fill="none" height="2" style="stroke:#888888;stroke-width:1.0;" width="2" x="39" y="109.7656"/><line style="stroke:#888888;stroke-width:1.0;" x1="10" x2="10" y1="14.9844" y2="110.7656"/><line style="stroke:#888888;stroke-width:1.0;" x1="10" x2="38" y1="110.7656" y2="110.7656"/><line style="stroke:#888888;stroke-width:1.0;" x1="40" x2="40" y1="112.7656" y2="124.7344"/><line style="stroke:#888888;stroke-width:1.0;" x1="40" x2="58" y1="124.7344" y2="124.7344"/><line style="stroke:#888888;stroke-width:1.0;" x1="40" x2="40" y1="112.7656" y2="138.7031"/><line style="stroke:#888888;stroke-width:1.0;" x1="40" x2="58" y1="138.7031" y2="138.7031"/><rect fill="none" height="2" style="stroke:#888888;stroke-width:1.0;" width="2" x="39" y="151.6719"/><line style="stroke:#888888;stroke-width:1.0;" x1="10" x2="10" y1="14.9844" y2="152.6719"/><line style="stroke:#888888;stroke-width:1.0;" x1="10" x2="38" y1="152.6719" y2="152.6719"/><line style="stroke:#888888;stroke-width:1.0;" x1="40" x2="40" y1="154.6719" y2="166.6406"/><line style="stroke:#888888;stroke-width:1.0;" x1="40" x2="58" y1="166.6406" y2="166.6406"/><line style="stroke:#888888;stroke-width:1.0;" x1="40" x2="40" y1="154.6719" y2="180.6094"/><line style="stroke:#888888;stroke-width:1.0;" x1="40" x2="58" y1="180.6094" y2="180.6094"/><line style="stroke:#888888;stroke-width:1.0;" x1="10" x2="10" y1="14.9844" y2="194.5781"/><line style="stroke:#888888;stroke-width:1.0;" x1="10" x2="38" y1="194.5781" y2="194.5781"/><!--SRC=[ZP5jQy8m482_vrVSfw68cNMwZI95fjkWKoRpPP_JvYmPQLBoKX3PVr-gZ8tHWRalHvxBa-DkQXqppZBfo94SDwG7awkzbXnD0WOBOPqvz4FY9ND2Az8BvrV994kogbIJwomveJCK4XEeZCxHMjhmlunIscBYxIBZ9L9-gMIlJMdRD0sW7rPVwB6v4PLhDPqHBOpMzU5VMvDyXfYYugVvafLaocsN2wZHs31CYEXmCBoXqQ3pZXnIBo4QGZIEnwDuS0VRpGmQtYMTvzK2hFOcH-3DIaJccsrqISfg1czUEL5Y3AyLgdJ-ydq1ZweMHgiIbIFfRlbJS3lgFmW7QpIX5TWjoHptp4iNNkIQ2rN4uVUd_ZrPC5LuLWGtAZBJmMiEWQs_0000]--></g></svg>