<?xml version="1.0" encoding="us-ascii" standalone="no"?><svg xmlns="http://www.w3.org/2000/svg" xmlns:xlink="http://www.w3.org/1999/xlink" contentStyleType="text/css" height="875px" preserveAspectRatio="none" style="width:1252px;height:875px;background:#FFFFFF;" version="1.1" viewBox="0 0 1252 875" width="1252px" zoomAndPan="magnify"><defs/><g><rect fill="#FFFFFF" height="653.2813" style="stroke:#181818;stroke-width:1.0;" width="10" x="48" y="107.5938"/><rect fill="#FFFFFF" height="573.8828" style="stroke:#181818;stroke-width:1.0;" width="10" x="341" y="128.7266"/><rect fill="#FFFFFF" height="423.0234" style="stroke:#181818;stroke-width:1.0;" width="10" x="566" y="308.7188"/><rect fill="#FFFFFF" height="94.5938" style="stroke:#181818;stroke-width:1.0;" width="10" x="724" y="157.8594"/><rect fill="#FFFFFF" height="572.8828" style="stroke:#181818;stroke-width:1.0;" width="10" x="885.5" y="196.9922"/><rect fill="#FFFFFF" height="522.5859" style="stroke:#181818;stroke-width:1.0;" width="10" x="1073.5" y="238.2891"/><line style="stroke:#181818;stroke-width:0.5;stroke-dasharray:5.0,5.0;" x1="53" x2="53" y1="97.5938" y2="778.875"/><line style="stroke:#181818;stroke-width:0.5;stroke-dasharray:5.0,5.0;" x1="345.5" x2="345.5" y1="97.5938" y2="778.875"/><line style="stroke:#181818;stroke-width:0.5;stroke-dasharray:5.0,5.0;" x1="570.5" x2="570.5" y1="308.2344" y2="778.875"/><line style="stroke:#181818;stroke-width:0.5;stroke-dasharray:5.0,5.0;" x1="728.5" x2="728.5" y1="97.5938" y2="778.875"/><line style="stroke:#181818;stroke-width:0.5;stroke-dasharray:5.0,5.0;" x1="890" x2="890" y1="196.5078" y2="778.875"/><line style="stroke:#181818;stroke-width:0.5;stroke-dasharray:5.0,5.0;" x1="1078" x2="1078" y1="237.8047" y2="778.875"/><text fill="#000000" font-family="sans-serif" font-size="14" lengthAdjust="spacing" textLength="79" x="10.5" y="77.9951">&#1056;&#1086;&#1079;&#1088;&#1086;&#1073;&#1085;&#1080;&#1082;</text><text fill="#000000" font-family="sans-serif" font-size="14" lengthAdjust="spacing" textLength="86" x="9" y="94.292">&#1088;&#1077;&#1075;&#1083;&#1072;&#1084;&#1077;&#1085;&#1090;&#1091;</text><ellipse cx="53" cy="13.5" fill="#E2E2F0" rx="8" ry="8" style="stroke:#181818;stroke-width:0.5;"/><path d="M53,21.5 L53,48.5 M40,29.5 L66,29.5 M53,48.5 L40,63.5 M53,48.5 L66,63.5 " fill="none" style="stroke:#181818;stroke-width:0.5;"/><text fill="#000000" font-family="sans-serif" font-size="14" lengthAdjust="spacing" textLength="79" x="10.5" y="790.8701">&#1056;&#1086;&#1079;&#1088;&#1086;&#1073;&#1085;&#1080;&#1082;</text><text fill="#000000" font-family="sans-serif" font-size="14" lengthAdjust="spacing" textLength="86" x="9" y="807.167">&#1088;&#1077;&#1075;&#1083;&#1072;&#1084;&#1077;&#1085;&#1090;&#1091;</text><ellipse cx="53" cy="818.9688" fill="#E2E2F0" rx="8" ry="8" style="stroke:#181818;stroke-width:0.5;"/><path d="M53,826.9688 L53,853.9688 M40,834.9688 L66,834.9688 M53,853.9688 L40,868.9688 M53,853.9688 L66,868.9688 " fill="none" style="stroke:#181818;stroke-width:0.5;"/><rect fill="#E2E2F0" height="30.2969" rx="2.5" ry="2.5" style="stroke:#181818;stroke-width:0.5;" width="113" x="289.5" y="66.2969"/><text fill="#000000" font-family="sans-serif" font-size="14" lengthAdjust="spacing" textLength="99" x="296.5" y="86.292">Monaco Editor</text><rect fill="#E2E2F0" height="30.2969" rx="2.5" ry="2.5" style="stroke:#181818;stroke-width:0.5;" width="113" x="289.5" y="777.875"/><text fill="#000000" font-family="sans-serif" font-size="14" lengthAdjust="spacing" textLength="99" x="296.5" y="797.8701">Monaco Editor</text><rect fill="#E2E2F0" height="30.2969" rx="2.5" ry="2.5" style="stroke:#181818;stroke-width:0.5;" width="159" x="491.5" y="777.875"/><text fill="#000000" font-family="sans-serif" font-size="14" lengthAdjust="spacing" textLength="145" x="498.5" y="797.8701">Frontend Websocket</text><rect fill="#E2E2F0" height="46.5938" rx="2.5" ry="2.5" style="stroke:#181818;stroke-width:0.5;" width="137" x="660.5" y="50"/><text fill="#000000" font-family="sans-serif" font-size="14" lengthAdjust="spacing" textLength="123" x="667.5" y="69.9951">Language servers</text><text fill="#000000" font-family="sans-serif" font-size="14" lengthAdjust="spacing" textLength="85" x="688.5" y="86.292">orchestrator</text><rect fill="#E2E2F0" height="46.5938" rx="2.5" ry="2.5" style="stroke:#181818;stroke-width:0.5;" width="137" x="660.5" y="777.875"/><text fill="#000000" font-family="sans-serif" font-size="14" lengthAdjust="spacing" textLength="123" x="667.5" y="797.8701">Language servers</text><text fill="#000000" font-family="sans-serif" font-size="14" lengthAdjust="spacing" textLength="85" x="688.5" y="814.167">orchestrator</text><rect fill="#E2E2F0" height="30.2969" rx="2.5" ry="2.5" style="stroke:#181818;stroke-width:0.5;" width="157" x="812" y="777.875"/><text fill="#000000" font-family="sans-serif" font-size="14" lengthAdjust="spacing" textLength="143" x="819" y="797.8701">Backend Websocket</text><rect fill="#E2E2F0" height="30.2969" rx="2.5" ry="2.5" style="stroke:#181818;stroke-width:0.5;" width="129" x="1014" y="777.875"/><text fill="#000000" font-family="sans-serif" font-size="14" lengthAdjust="spacing" textLength="115" x="1021" y="797.8701">Language server</text><rect fill="#FFFFFF" height="653.2813" style="stroke:#181818;stroke-width:1.0;" width="10" x="48" y="107.5938"/><rect fill="#FFFFFF" height="573.8828" style="stroke:#181818;stroke-width:1.0;" width="10" x="341" y="128.7266"/><rect fill="#FFFFFF" height="423.0234" style="stroke:#181818;stroke-width:1.0;" width="10" x="566" y="308.7188"/><rect fill="#FFFFFF" height="94.5938" style="stroke:#181818;stroke-width:1.0;" width="10" x="724" y="157.8594"/><rect fill="#FFFFFF" height="572.8828" style="stroke:#181818;stroke-width:1.0;" width="10" x="885.5" y="196.9922"/><rect fill="#FFFFFF" height="522.5859" style="stroke:#181818;stroke-width:1.0;" width="10" x="1073.5" y="238.2891"/><polygon fill="#181818" points="329,124.7266,339,128.7266,329,132.7266,333,128.7266" style="stroke:#181818;stroke-width:1.0;"/><line style="stroke:#181818;stroke-width:1.0;" x1="58" x2="335" y1="128.7266" y2="128.7266"/><text fill="#000000" font-family="sans-serif" font-size="13" font-weight="bold" lengthAdjust="spacing" textLength="9" x="65" y="123.6606">1</text><text fill="#000000" font-family="sans-serif" font-size="13" lengthAdjust="spacing" textLength="157" x="78" y="123.6606">open and edit document</text><polygon fill="#181818" points="712,153.8594,722,157.8594,712,161.8594,716,157.8594" style="stroke:#181818;stroke-width:1.0;"/><line style="stroke:#181818;stroke-width:1.0;" x1="351" x2="718" y1="157.8594" y2="157.8594"/><text fill="#000000" font-family="sans-serif" font-size="13" font-weight="bold" lengthAdjust="spacing" textLength="9" x="358" y="152.7935">2</text><text fill="#000000" font-family="sans-serif" font-size="13" lengthAdjust="spacing" textLength="109" x="371" y="152.7935">WSS GET /groovy</text><polygon fill="#181818" points="800,182.9922,810,186.9922,800,190.9922,804,186.9922" style="stroke:#181818;stroke-width:1.0;"/><line style="stroke:#181818;stroke-width:1.0;" x1="734" x2="806" y1="186.9922" y2="186.9922"/><text fill="#000000" font-family="sans-serif" font-size="13" font-weight="bold" lengthAdjust="spacing" textLength="9" x="741" y="181.9263">3</text><text fill="#000000" font-family="sans-serif" font-size="13" lengthAdjust="spacing" textLength="41" x="754" y="181.9263">create</text><rect fill="#E2E2F0" height="30.2969" rx="2.5" ry="2.5" style="stroke:#181818;stroke-width:0.5;" width="157" x="812" y="165.8594"/><text fill="#000000" font-family="sans-serif" font-size="14" lengthAdjust="spacing" textLength="143" x="819" y="185.8545">Backend Websocket</text><polygon fill="#181818" points="1002,224.2891,1012,228.2891,1002,232.2891,1006,228.2891" style="stroke:#181818;stroke-width:1.0;"/><line style="stroke:#181818;stroke-width:1.0;" x1="734" x2="1008" y1="228.2891" y2="228.2891"/><text fill="#000000" font-family="sans-serif" font-size="13" font-weight="bold" lengthAdjust="spacing" textLength="9" x="741" y="223.2231">4</text><text fill="#000000" font-family="sans-serif" font-size="13" lengthAdjust="spacing" textLength="41" x="754" y="223.2231">create</text><rect fill="#E2E2F0" height="30.2969" rx="2.5" ry="2.5" style="stroke:#181818;stroke-width:0.5;" width="129" x="1014" y="207.1563"/><text fill="#000000" font-family="sans-serif" font-size="14" lengthAdjust="spacing" textLength="115" x="1021" y="227.1514">Language server</text><polygon fill="#181818" points="362,248.4531,352,252.4531,362,256.4531,358,252.4531" style="stroke:#181818;stroke-width:1.0;"/><line style="stroke:#181818;stroke-width:1.0;stroke-dasharray:2.0,2.0;" x1="356" x2="728" y1="252.4531" y2="252.4531"/><text fill="#000000" font-family="sans-serif" font-size="13" font-weight="bold" lengthAdjust="spacing" textLength="9" x="368" y="265.52">5</text><text fill="#000000" font-family="sans-serif" font-size="13" lengthAdjust="spacing" textLength="67" x="381" y="265.52">websocket</text><polygon fill="#181818" points="479.5,294.7188,489.5,298.7188,479.5,302.7188,483.5,298.7188" style="stroke:#181818;stroke-width:1.0;"/><line style="stroke:#181818;stroke-width:1.0;" x1="351" x2="485.5" y1="298.7188" y2="298.7188"/><text fill="#000000" font-family="sans-serif" font-size="13" font-weight="bold" lengthAdjust="spacing" textLength="9" x="358" y="293.6528">6</text><text fill="#000000" font-family="sans-serif" font-size="13" lengthAdjust="spacing" textLength="41" x="371" y="293.6528">create</text><rect fill="#E2E2F0" height="30.2969" rx="2.5" ry="2.5" style="stroke:#181818;stroke-width:0.5;" width="159" x="491.5" y="277.5859"/><text fill="#000000" font-family="sans-serif" font-size="14" lengthAdjust="spacing" textLength="145" x="498.5" y="297.5811">Frontend Websocket</text><polygon fill="#181818" points="329,336.0156,339,340.0156,329,344.0156,333,340.0156" style="stroke:#181818;stroke-width:1.0;"/><line style="stroke:#181818;stroke-width:1.0;" x1="58" x2="335" y1="340.0156" y2="340.0156"/><text fill="#000000" font-family="sans-serif" font-size="13" font-weight="bold" lengthAdjust="spacing" textLength="9" x="65" y="334.9497">7</text><text fill="#000000" font-family="sans-serif" font-size="13" lengthAdjust="spacing" textLength="246" x="78" y="334.9497">Focus on variable using mouse pointer</text><polygon fill="#181818" points="554,365.1484,564,369.1484,554,373.1484,558,369.1484" style="stroke:#181818;stroke-width:1.0;"/><line style="stroke:#181818;stroke-width:1.0;" x1="351" x2="560" y1="369.1484" y2="369.1484"/><text fill="#000000" font-family="sans-serif" font-size="13" font-weight="bold" lengthAdjust="spacing" textLength="9" x="358" y="364.0825">8</text><text fill="#000000" font-family="sans-serif" font-size="13" lengthAdjust="spacing" textLength="178" x="371" y="364.0825">[LSP] textDocument/hoover</text><polygon fill="#181818" points="873.5,394.2813,883.5,398.2813,873.5,402.2813,877.5,398.2813" style="stroke:#181818;stroke-width:1.0;"/><line style="stroke:#181818;stroke-width:1.0;" x1="576" x2="879.5" y1="398.2813" y2="398.2813"/><text fill="#000000" font-family="sans-serif" font-size="13" font-weight="bold" lengthAdjust="spacing" textLength="9" x="583" y="393.2153">9</text><text fill="#000000" font-family="sans-serif" font-size="13" lengthAdjust="spacing" textLength="183" x="596" y="393.2153">[WSS] textDocument/hoover</text><polygon fill="#181818" points="1061.5,423.4141,1071.5,427.4141,1061.5,431.4141,1065.5,427.4141" style="stroke:#181818;stroke-width:1.0;"/><line style="stroke:#181818;stroke-width:1.0;" x1="895.5" x2="1067.5" y1="427.4141" y2="427.4141"/><text fill="#000000" font-family="sans-serif" font-size="13" font-weight="bold" lengthAdjust="spacing" textLength="18" x="902.5" y="422.3481">10</text><text fill="#000000" font-family="sans-serif" font-size="13" lengthAdjust="spacing" textLength="132" x="924.5" y="422.3481">textDocument/hover</text><line style="stroke:#181818;stroke-width:1.0;" x1="1083.5" x2="1125.5" y1="456.5469" y2="456.5469"/><line style="stroke:#181818;stroke-width:1.0;" x1="1125.5" x2="1125.5" y1="456.5469" y2="469.5469"/><line style="stroke:#181818;stroke-width:1.0;" x1="1084.5" x2="1125.5" y1="469.5469" y2="469.5469"/><polygon fill="#181818" points="1094.5,465.5469,1084.5,469.5469,1094.5,473.5469,1090.5,469.5469" style="stroke:#181818;stroke-width:1.0;"/><text fill="#000000" font-family="sans-serif" font-size="13" font-weight="bold" lengthAdjust="spacing" textLength="18" x="1090.5" y="451.481">11</text><text fill="#000000" font-family="sans-serif" font-size="13" lengthAdjust="spacing" textLength="133" x="1112.5" y="451.481">process hover action</text><polygon fill="#181818" points="906.5,477.5469,896.5,481.5469,906.5,485.5469,902.5,481.5469" style="stroke:#181818;stroke-width:1.0;"/><line style="stroke:#181818;stroke-width:1.0;stroke-dasharray:2.0,2.0;" x1="900.5" x2="1072.5" y1="481.5469" y2="481.5469"/><text fill="#000000" font-family="sans-serif" font-size="13" font-weight="bold" lengthAdjust="spacing" textLength="18" x="912.5" y="494.6138">12</text><text fill="#000000" font-family="sans-serif" font-size="13" lengthAdjust="spacing" textLength="114" x="934.5" y="494.6138">[LSP] hover result</text><polygon fill="#181818" points="587,506.6797,577,510.6797,587,514.6797,583,510.6797" style="stroke:#181818;stroke-width:1.0;"/><line style="stroke:#181818;stroke-width:1.0;stroke-dasharray:2.0,2.0;" x1="581" x2="884.5" y1="510.6797" y2="510.6797"/><text fill="#000000" font-family="sans-serif" font-size="13" font-weight="bold" lengthAdjust="spacing" textLength="18" x="593" y="523.7466">13</text><text fill="#000000" font-family="sans-serif" font-size="13" lengthAdjust="spacing" textLength="119" x="615" y="523.7466">[WSS] hover result</text><polygon fill="#181818" points="362,535.8125,352,539.8125,362,543.8125,358,539.8125" style="stroke:#181818;stroke-width:1.0;"/><line style="stroke:#181818;stroke-width:1.0;stroke-dasharray:2.0,2.0;" x1="356" x2="565" y1="539.8125" y2="539.8125"/><text fill="#000000" font-family="sans-serif" font-size="13" font-weight="bold" lengthAdjust="spacing" textLength="18" x="368" y="552.8794">14</text><text fill="#000000" font-family="sans-serif" font-size="13" lengthAdjust="spacing" textLength="114" x="390" y="552.8794">[LSP] hover result</text><polygon fill="#181818" points="69,564.9453,59,568.9453,69,572.9453,65,568.9453" style="stroke:#181818;stroke-width:1.0;"/><line style="stroke:#181818;stroke-width:1.0;stroke-dasharray:2.0,2.0;" x1="63" x2="340" y1="568.9453" y2="568.9453"/><text fill="#000000" font-family="sans-serif" font-size="13" font-weight="bold" lengthAdjust="spacing" textLength="18" x="75" y="582.0122">15</text><text fill="#000000" font-family="sans-serif" font-size="13" lengthAdjust="spacing" textLength="82" x="97" y="582.0122">Hover popup</text><polygon fill="#181818" points="1061.5,611.2109,1071.5,615.2109,1061.5,619.2109,1065.5,615.2109" style="stroke:#181818;stroke-width:1.0;"/><line style="stroke:#181818;stroke-width:1.0;" x1="895.5" x2="1067.5" y1="615.2109" y2="615.2109"/><text fill="#000000" font-family="sans-serif" font-size="13" font-weight="bold" lengthAdjust="spacing" textLength="18" x="902.5" y="610.145">16</text><text fill="#000000" font-family="sans-serif" font-size="13" lengthAdjust="spacing" textLength="132" x="924.5" y="610.145">textDocument/hover</text><polygon fill="#181818" points="906.5,623.2109,896.5,627.2109,906.5,631.2109,902.5,627.2109" style="stroke:#181818;stroke-width:1.0;"/><line style="stroke:#181818;stroke-width:1.0;stroke-dasharray:2.0,2.0;" x1="900.5" x2="1072.5" y1="627.2109" y2="627.2109"/><text fill="#000000" font-family="sans-serif" font-size="13" font-weight="bold" lengthAdjust="spacing" textLength="18" x="912.5" y="640.2778">17</text><text fill="#000000" font-family="sans-serif" font-size="13" lengthAdjust="spacing" textLength="123" x="934.5" y="640.2778">Hoover information</text><polygon fill="#181818" points="329,669.4766,339,673.4766,329,677.4766,333,673.4766" style="stroke:#181818;stroke-width:1.0;"/><line style="stroke:#181818;stroke-width:1.0;" x1="58" x2="335" y1="673.4766" y2="673.4766"/><text fill="#000000" font-family="sans-serif" font-size="13" font-weight="bold" lengthAdjust="spacing" textLength="18" x="65" y="668.4106">18</text><text fill="#000000" font-family="sans-serif" font-size="13" lengthAdjust="spacing" textLength="102" x="87" y="668.4106">close document</text><polygon fill="#181818" points="554,698.6094,564,702.6094,554,706.6094,558,702.6094" style="stroke:#181818;stroke-width:1.0;"/><line style="stroke:#181818;stroke-width:1.0;" x1="346" x2="560" y1="702.6094" y2="702.6094"/><text fill="#000000" font-family="sans-serif" font-size="13" font-weight="bold" lengthAdjust="spacing" textLength="18" x="353" y="697.5435">19</text><text fill="#000000" font-family="sans-serif" font-size="13" lengthAdjust="spacing" textLength="33" x="375" y="697.5435">close</text><polygon fill="#181818" points="873.5,727.7422,883.5,731.7422,873.5,735.7422,877.5,731.7422" style="stroke:#181818;stroke-width:1.0;"/><line style="stroke:#181818;stroke-width:1.0;stroke-dasharray:2.0,2.0;" x1="571" x2="879.5" y1="731.7422" y2="731.7422"/><text fill="#000000" font-family="sans-serif" font-size="13" font-weight="bold" lengthAdjust="spacing" textLength="18" x="578" y="726.6763">20</text><text fill="#000000" font-family="sans-serif" font-size="13" lengthAdjust="spacing" textLength="33" x="600" y="726.6763">close</text><polygon fill="#181818" points="1066.5,756.875,1076.5,760.875,1066.5,764.875,1070.5,760.875" style="stroke:#181818;stroke-width:1.0;"/><line style="stroke:#181818;stroke-width:1.0;" x1="895.5" x2="1072.5" y1="760.875" y2="760.875"/><text fill="#000000" font-family="sans-serif" font-size="13" font-weight="bold" lengthAdjust="spacing" textLength="18" x="902.5" y="755.8091">21</text><text fill="#000000" font-family="sans-serif" font-size="13" lengthAdjust="spacing" textLength="83" x="924.5" y="755.8091">close stream</text><!--SRC=[dLJ1RjD04BtxAqOvLefwjwfA619wQ0MIaNe03flDaAvgxrYxwmHk27w4Jm0X10BADpX_n7ZjE5x7QH6N91w_DpFlpKn4wKYN-G9DP6-LBeGHEHYq1McBLsYjM6626MqU6KCRSAR4A1BIaO59zQdwKttVlkVFBzLTzQFw-Ke3FtwhlbQ_gi_LR_vrj_sm_JW1OU5nfb2xAE8IJabL2ErWSaLQI8BPKd563siY8MfkI3lKIxZ6XILvYyv3vxFkESHV2hqgkN6mQDPeBBT5HjwWTKRiwgJyIabyrek7IHB1YGzg9lzOquDtiTI7l6zgBHnsNZJVC3rlPST01MeGN1RP4bYIBFCQsJ5RUrhVc3YY8uRhD8MdinTmkZ94wtTx-fZgQ2HOP-v9XPCJY44Qv1pxP7qlZkG87HXFCtIfrNOsdOwBstH5btY_iBrByuUqz7TfP2np7eG5qh0MHeb5Xb1QfLUGKsaH2bAydySAnl3oCdt-6Xo-TK_QWPxUy5ngHh-nq7EcyHYFq9AG5beO3parPJ294L9XIFB1WyT3xGpf0zf1ZrvQG-6_ZJ9pOMy7LdXD0Nu-mEyy7qdT6SomPaWnN7X0GKLP_8ylVKQzSaFAXNSSb7v39XVUav7za1dn7dJdUcmHFAo_jkqv3or8xYK5k_g0ugOnlWWKUTHFChowtgj6tby0]--></g></svg>