<?xml version="1.0" encoding="us-ascii" standalone="no"?><svg xmlns="http://www.w3.org/2000/svg" xmlns:xlink="http://www.w3.org/1999/xlink" contentStyleType="text/css" height="202px" preserveAspectRatio="none" style="width:635px;height:202px;background:#FFFFFF;" version="1.1" viewBox="0 0 635 202" width="635px" zoomAndPan="magnify"><defs/><g><!--class AbstractBpmnParseListener--><g id="elem_AbstractBpmnParseListener"><rect codeLine="1" fill="#F1F1F1" height="64.2969" id="AbstractBpmnParseListener" rx="2.5" ry="2.5" style="stroke:#181818;stroke-width:0.5;" width="224" x="55.5" y="7"/><ellipse cx="70.5" cy="23" fill="#ADD1B2" rx="11" ry="11" style="stroke:#181818;stroke-width:1.0;"/><path d="M73.4688,28.6406 Q72.8906,28.9375 72.25,29.0781 Q71.6094,29.2344 70.9063,29.2344 Q68.4063,29.2344 67.0781,27.5938 Q65.7656,25.9375 65.7656,22.8125 Q65.7656,19.6875 67.0781,18.0313 Q68.4063,16.375 70.9063,16.375 Q71.6094,16.375 72.25,16.5313 Q72.9063,16.6875 73.4688,16.9844 L73.4688,19.7031 Q72.8438,19.125 72.25,18.8594 Q71.6563,18.5781 71.0313,18.5781 Q69.6875,18.5781 69,19.6563 Q68.3125,20.7188 68.3125,22.8125 Q68.3125,24.9063 69,25.9844 Q69.6875,27.0469 71.0313,27.0469 Q71.6563,27.0469 72.25,26.7813 Q72.8438,26.5 73.4688,25.9219 L73.4688,28.6406 Z " fill="#000000"/><text fill="#000000" font-family="sans-serif" font-size="14" lengthAdjust="spacing" textLength="192" x="84.5" y="27.8467">AbstractBpmnParseListener</text><line style="stroke:#181818;stroke-width:0.5;" x1="56.5" x2="278.5" y1="39" y2="39"/><line style="stroke:#181818;stroke-width:0.5;" x1="56.5" x2="278.5" y1="47" y2="47"/><text fill="#000000" font-family="sans-serif" font-size="14" lengthAdjust="spacing" textLength="114" x="61.5" y="63.9951">parseUserTask()</text></g><!--class CamundaSystemVariablesSupportListener--><g id="elem_CamundaSystemVariablesSupportListener"><rect codeLine="5" fill="#ADD8E6" height="64.2969" id="CamundaSystemVariablesSupportListener" rx="2.5" ry="2.5" style="stroke:#008000;stroke-width:0.5;" width="321" x="7" y="131.29"/><ellipse cx="22" cy="147.29" fill="#ADD1B2" rx="11" ry="11" style="stroke:#181818;stroke-width:1.0;"/><path d="M24.9688,152.9306 Q24.3906,153.2275 23.75,153.3681 Q23.1094,153.5244 22.4063,153.5244 Q19.9063,153.5244 18.5781,151.8838 Q17.2656,150.2275 17.2656,147.1025 Q17.2656,143.9775 18.5781,142.3213 Q19.9063,140.665 22.4063,140.665 Q23.1094,140.665 23.75,140.8213 Q24.4063,140.9775 24.9688,141.2744 L24.9688,143.9931 Q24.3438,143.415 23.75,143.1494 Q23.1563,142.8681 22.5313,142.8681 Q21.1875,142.8681 20.5,143.9463 Q19.8125,145.0088 19.8125,147.1025 Q19.8125,149.1963 20.5,150.2744 Q21.1875,151.3369 22.5313,151.3369 Q23.1563,151.3369 23.75,151.0713 Q24.3438,150.79 24.9688,150.2119 L24.9688,152.9306 Z " fill="#000000"/><text fill="#000000" font-family="sans-serif" font-size="14" lengthAdjust="spacing" textLength="289" x="36" y="152.1367">CamundaSystemVariablesSupportListener</text><line style="stroke:#008000;stroke-width:0.5;" x1="8" x2="327" y1="163.29" y2="163.29"/><line style="stroke:#008000;stroke-width:0.5;" x1="8" x2="327" y1="171.29" y2="171.29"/><text fill="#000000" font-family="sans-serif" font-size="14" lengthAdjust="spacing" textLength="114" x="13" y="188.2851">parseUserTask()</text></g><!--class TaskListener--><g id="elem_TaskListener"><rect codeLine="9" fill="#F1F1F1" height="64.2969" id="TaskListener" rx="2.5" ry="2.5" style="stroke:#181818;stroke-width:0.5;" width="155" x="418" y="7"/><ellipse cx="448.75" cy="23" fill="#B4A7E5" rx="11" ry="11" style="stroke:#181818;stroke-width:1.0;"/><path d="M444.6719,18.7656 L444.6719,16.6094 L452.0625,16.6094 L452.0625,18.7656 L449.5938,18.7656 L449.5938,26.8438 L452.0625,26.8438 L452.0625,29 L444.6719,29 L444.6719,26.8438 L447.1406,26.8438 L447.1406,18.7656 L444.6719,18.7656 Z " fill="#000000"/><text fill="#000000" font-family="sans-serif" font-size="14" font-style="italic" lengthAdjust="spacing" textLength="88" x="466.25" y="27.8467">TaskListener</text><line style="stroke:#181818;stroke-width:0.5;" x1="419" x2="572" y1="39" y2="39"/><line style="stroke:#181818;stroke-width:0.5;" x1="419" x2="572" y1="47" y2="47"/><text fill="#000000" font-family="sans-serif" font-size="14" lengthAdjust="spacing" textLength="143" x="424" y="63.9951">notify(DelegateTask)</text></g><!--class PutFormDataToCephTaskListener--><g id="elem_PutFormDataToCephTaskListener"><rect codeLine="13" fill="#ADD8E6" height="64.2969" id="PutFormDataToCephTaskListener" rx="2.5" ry="2.5" style="stroke:#008000;stroke-width:0.5;" width="265" x="363" y="131.29"/><ellipse cx="378" cy="147.29" fill="#ADD1B2" rx="11" ry="11" style="stroke:#181818;stroke-width:1.0;"/><path d="M380.9688,152.9306 Q380.3906,153.2275 379.75,153.3681 Q379.1094,153.5244 378.4063,153.5244 Q375.9063,153.5244 374.5781,151.8838 Q373.2656,150.2275 373.2656,147.1025 Q373.2656,143.9775 374.5781,142.3213 Q375.9063,140.665 378.4063,140.665 Q379.1094,140.665 379.75,140.8213 Q380.4063,140.9775 380.9688,141.2744 L380.9688,143.9931 Q380.3438,143.415 379.75,143.1494 Q379.1563,142.8681 378.5313,142.8681 Q377.1875,142.8681 376.5,143.9463 Q375.8125,145.0088 375.8125,147.1025 Q375.8125,149.1963 376.5,150.2744 Q377.1875,151.3369 378.5313,151.3369 Q379.1563,151.3369 379.75,151.0713 Q380.3438,150.79 380.9688,150.2119 L380.9688,152.9306 Z " fill="#000000"/><text fill="#000000" font-family="sans-serif" font-size="14" lengthAdjust="spacing" textLength="233" x="392" y="152.1367">PutFormDataToCephTaskListener</text><line style="stroke:#008000;stroke-width:0.5;" x1="364" x2="627" y1="163.29" y2="163.29"/><line style="stroke:#008000;stroke-width:0.5;" x1="364" x2="627" y1="171.29" y2="171.29"/><text fill="#000000" font-family="sans-serif" font-size="14" lengthAdjust="spacing" textLength="175" x="369" y="188.2851">void notify(DelegateTask)</text></g><!--reverse link AbstractBpmnParseListener to CamundaSystemVariablesSupportListener--><g id="link_AbstractBpmnParseListener_CamundaSystemVariablesSupportListener"><path d="M167.5,92.22 C167.5,105.43 167.5,119.23 167.5,131.05 " fill="none" id="AbstractBpmnParseListener-backto-CamundaSystemVariablesSupportListener" style="stroke:#181818;stroke-width:1.0;"/><polygon fill="none" points="160.5,92.64,167.5,72.64,174.5,92.64,160.5,92.64" style="stroke:#181818;stroke-width:1.0;"/></g><!--reverse link TaskListener to PutFormDataToCephTaskListener--><g id="link_TaskListener_PutFormDataToCephTaskListener"><path d="M495.5,92.22 C495.5,105.43 495.5,119.23 495.5,131.05 " fill="none" id="TaskListener-backto-PutFormDataToCephTaskListener" style="stroke:#181818;stroke-width:1.0;stroke-dasharray:7.0,7.0;"/><polygon fill="none" points="488.5,92.64,495.5,72.64,502.5,92.64,488.5,92.64" style="stroke:#181818;stroke-width:1.0;"/></g><!--reverse link CamundaSystemVariablesSupportListener to PutFormDataToCephTaskListener--><g id="link_CamundaSystemVariablesSupportListener_PutFormDataToCephTaskListener"><path codeLine="17" d="M342.23,163.44 C349.01,163.44 355.8,163.44 362.59,163.44 " fill="none" id="CamundaSystemVariablesSupportListener-backto-PutFormDataToCephTaskListener" style="stroke:#181818;stroke-width:1.0;"/><polygon fill="none" points="329.3,163.44,335.3,167.44,341.3,163.44,335.3,159.44,329.3,163.44" style="stroke:#181818;stroke-width:1.0;"/></g><!--SRC=[dP2xQWD134Nx_Og1D4wH7rXNiKsg50O_UitizNhmZ6QGj2OcvD-zcoB4X0IJJjo7T518fEgUlPfGi4NDl2PHl4OrCCIzDyxLITafP4jwcZqs7qqJFcjBoWDtjBcCuRmdYUGJT3FKMiI-LZnu2gSsnVveFWsOfyXeUm5uRdYprgVHT-C4xlw14jaW1mfmatQJvcBnS9cjaD2JOVA_qQy7UocILsIqBKlKuqt_FkgOQq86c_wyVYwn-nNXljULfxyfhm00]--></g></svg>