<?xml version="1.0" encoding="us-ascii" standalone="no"?><svg xmlns="http://www.w3.org/2000/svg" xmlns:xlink="http://www.w3.org/1999/xlink" contentStyleType="text/css" height="385px" preserveAspectRatio="none" style="width:5610px;height:385px;background:#FFFFFF;" version="1.1" viewBox="0 0 5610 385" width="5610px" zoomAndPan="magnify"><defs/><g><!--cluster liquibase-core--><g id="cluster_liquibase-core"><path d="M4575.5,173 L4688.5,173 A3.75,3.75 0 0 1 4691,175.5 L4698,195.2969 L5600.5,195.2969 A2.5,2.5 0 0 1 5603,197.7969 L5603,375.63 A2.5,2.5 0 0 1 5600.5,378.13 L4575.5,378.13 A2.5,2.5 0 0 1 4573,375.63 L4573,175.5 A2.5,2.5 0 0 1 4575.5,173 " fill="#FFFFFF" style="stroke:#000000;stroke-width:1.0;"/><line style="stroke:#000000;stroke-width:1.0;" x1="4573" x2="4698" y1="195.2969" y2="195.2969"/><text fill="#000000" font-family="Verdana" font-size="14" font-weight="bold" lengthAdjust="spacing" textLength="112" x="4577" y="187.9951">liquibase-core</text></g><!--cluster extension--><g id="cluster_extension"><path d="M13.5,11 L92.5,11 A3.75,3.75 0 0 1 95,13.5 L102,33.2969 L4546.5,33.2969 A2.5,2.5 0 0 1 4549,35.7969 L4549,295.63 A2.5,2.5 0 0 1 4546.5,298.13 L13.5,298.13 A2.5,2.5 0 0 1 11,295.63 L11,13.5 A2.5,2.5 0 0 1 13.5,11 " fill="#FFFFFF" style="stroke:#000000;stroke-width:1.0;"/><line style="stroke:#000000;stroke-width:1.0;" x1="11" x2="102" y1="33.2969" y2="33.2969"/><text fill="#000000" font-family="Verdana" font-size="14" font-weight="bold" lengthAdjust="spacing" textLength="78" x="15" y="25.9951">extension</text></g><!--cluster change-core--><g id="cluster_change-core"><path d="M37.5,54 L138.5,54 A3.75,3.75 0 0 1 141,56.5 L148,76.2969 L2383.5,76.2969 A2.5,2.5 0 0 1 2386,78.7969 L2386,271.63 A2.5,2.5 0 0 1 2383.5,274.13 L37.5,274.13 A2.5,2.5 0 0 1 35,271.63 L35,56.5 A2.5,2.5 0 0 1 37.5,54 " fill="#FFFFFF" style="stroke:#000000;stroke-width:1.0;"/><line style="stroke:#000000;stroke-width:1.0;" x1="35" x2="148" y1="76.2969" y2="76.2969"/><text fill="#000000" font-family="Verdana" font-size="14" font-weight="bold" lengthAdjust="spacing" textLength="100" x="39" y="68.9951">change-core</text></g><!--cluster sqlgenerator-core--><g id="cluster_sqlgenerator-core"><path d="M3298.5,54 L3443.5,54 A3.75,3.75 0 0 1 3446,56.5 L3453,76.2969 L4522.5,76.2969 A2.5,2.5 0 0 1 4525,78.7969 L4525,146.5 A2.5,2.5 0 0 1 4522.5,149 L3298.5,149 A2.5,2.5 0 0 1 3296,146.5 L3296,56.5 A2.5,2.5 0 0 1 3298.5,54 " fill="#FFFFFF" style="stroke:#000000;stroke-width:1.0;"/><line style="stroke:#000000;stroke-width:1.0;" x1="3296" x2="3453" y1="76.2969" y2="76.2969"/><text fill="#000000" font-family="Verdana" font-size="14" font-weight="bold" lengthAdjust="spacing" textLength="144" x="3300" y="68.9951">sqlgenerator-core</text></g><!--cluster statement-core--><g id="cluster_statement-core"><path d="M2412.5,54 L2535.5,54 A3.75,3.75 0 0 1 2538,56.5 L2545,76.2969 L3269.5,76.2969 A2.5,2.5 0 0 1 3272,78.7969 L3272,146.5 A2.5,2.5 0 0 1 3269.5,149 L2412.5,149 A2.5,2.5 0 0 1 2410,146.5 L2410,56.5 A2.5,2.5 0 0 1 2412.5,54 " fill="#FFFFFF" style="stroke:#000000;stroke-width:1.0;"/><line style="stroke:#000000;stroke-width:1.0;" x1="2410" x2="2545" y1="76.2969" y2="76.2969"/><text fill="#000000" font-family="Verdana" font-size="14" font-weight="bold" lengthAdjust="spacing" textLength="122" x="2414" y="68.9951">statement-core</text></g><!--class AbstractChange--><g id="elem_AbstractChange"><rect codeLine="6" fill="#FFFFFF" height="44" id="AbstractChange" rx="2.5" ry="2.5" style="stroke:#000000;stroke-width:1.0;" width="139" x="5447.5" y="318.13"/><ellipse cx="5460.5" cy="332.13" fill="#FFFFFF" rx="9" ry="9" style="stroke:#000000;stroke-width:1.0;"/><path d="M5463.4688,337.7706 Q5462.8906,338.0675 5462.25,338.2081 Q5461.6094,338.3644 5460.9063,338.3644 Q5458.4063,338.3644 5457.0781,336.7238 Q5455.7656,335.0675 5455.7656,331.9425 Q5455.7656,328.8175 5457.0781,327.1613 Q5458.4063,325.505 5460.9063,325.505 Q5461.6094,325.505 5462.25,325.6613 Q5462.9063,325.8175 5463.4688,326.1144 L5463.4688,328.8331 Q5462.8438,328.255 5462.25,327.9894 Q5461.6563,327.7081 5461.0313,327.7081 Q5459.6875,327.7081 5459,328.7863 Q5458.3125,329.8488 5458.3125,331.9425 Q5458.3125,334.0363 5459,335.1144 Q5459.6875,336.1769 5461.0313,336.1769 Q5461.6563,336.1769 5462.25,335.9113 Q5462.8438,335.63 5463.4688,335.0519 L5463.4688,337.7706 Z " fill="#000000"/><text fill="#000000" font-family="Verdana" font-size="14" lengthAdjust="spacing" textLength="111" x="5472.5" y="336.9767">AbstractChange</text><line style="stroke:#000000;stroke-width:1.0;" x1="5448.5" x2="5585.5" y1="346.13" y2="346.13"/><line style="stroke:#000000;stroke-width:1.0;" x1="5448.5" x2="5585.5" y1="354.13" y2="354.13"/></g><!--class AbstractSqlGenerator--><g id="elem_AbstractSqlGenerator"><rect codeLine="7" fill="#FFFFFF" height="44" id="AbstractSqlGenerator" rx="2.5" ry="2.5" style="stroke:#000000;stroke-width:1.0;" width="187" x="5400.5" y="208"/><ellipse cx="5413.5" cy="222" fill="#FFFFFF" rx="9" ry="9" style="stroke:#000000;stroke-width:1.0;"/><path d="M5416.4688,227.6406 Q5415.8906,227.9375 5415.25,228.0781 Q5414.6094,228.2344 5413.9063,228.2344 Q5411.4063,228.2344 5410.0781,226.5938 Q5408.7656,224.9375 5408.7656,221.8125 Q5408.7656,218.6875 5410.0781,217.0313 Q5411.4063,215.375 5413.9063,215.375 Q5414.6094,215.375 5415.25,215.5313 Q5415.9063,215.6875 5416.4688,215.9844 L5416.4688,218.7031 Q5415.8438,218.125 5415.25,217.8594 Q5414.6563,217.5781 5414.0313,217.5781 Q5412.6875,217.5781 5412,218.6563 Q5411.3125,219.7188 5411.3125,221.8125 Q5411.3125,223.9063 5412,224.9844 Q5412.6875,226.0469 5414.0313,226.0469 Q5414.6563,226.0469 5415.25,225.7813 Q5415.8438,225.5 5416.4688,224.9219 L5416.4688,227.6406 Z " fill="#000000"/><text fill="#000000" font-family="Verdana" font-size="14" lengthAdjust="spacing" textLength="148" x="5425.5" y="226.8467">AbstractSqlGenerator</text><rect fill="#FFFFFF" height="15.9688" style="stroke:#000000;stroke-width:1.0;stroke-dasharray:2.0,2.0;" width="9" x="5581.5" y="205"/><text fill="#000000" font-family="Verdana" font-size="12" font-style="italic" lengthAdjust="spacing" textLength="7" x="5582.5" y="217.1387">T</text><line style="stroke:#000000;stroke-width:1.0;" x1="5401.5" x2="5586.5" y1="236" y2="236"/><line style="stroke:#000000;stroke-width:1.0;" x1="5401.5" x2="5586.5" y1="244" y2="244"/></g><!--class AbstractSqlStatement--><g id="elem_AbstractSqlStatement"><rect codeLine="8" fill="#FFFFFF" height="44" id="AbstractSqlStatement" rx="2.5" ry="2.5" style="stroke:#000000;stroke-width:1.0;" width="178" x="5188" y="208"/><ellipse cx="5201" cy="222" fill="#FFFFFF" rx="9" ry="9" style="stroke:#000000;stroke-width:1.0;"/><path d="M5203.9688,227.6406 Q5203.3906,227.9375 5202.75,228.0781 Q5202.1094,228.2344 5201.4063,228.2344 Q5198.9063,228.2344 5197.5781,226.5938 Q5196.2656,224.9375 5196.2656,221.8125 Q5196.2656,218.6875 5197.5781,217.0313 Q5198.9063,215.375 5201.4063,215.375 Q5202.1094,215.375 5202.75,215.5313 Q5203.4063,215.6875 5203.9688,215.9844 L5203.9688,218.7031 Q5203.3438,218.125 5202.75,217.8594 Q5202.1563,217.5781 5201.5313,217.5781 Q5200.1875,217.5781 5199.5,218.6563 Q5198.8125,219.7188 5198.8125,221.8125 Q5198.8125,223.9063 5199.5,224.9844 Q5200.1875,226.0469 5201.5313,226.0469 Q5202.1563,226.0469 5202.75,225.7813 Q5203.3438,225.5 5203.9688,224.9219 L5203.9688,227.6406 Z " fill="#000000"/><text fill="#000000" font-family="Verdana" font-size="14" lengthAdjust="spacing" textLength="150" x="5213" y="226.8467">AbstractSqlStatement</text><line style="stroke:#000000;stroke-width:1.0;" x1="5189" x2="5365" y1="236" y2="236"/><line style="stroke:#000000;stroke-width:1.0;" x1="5189" x2="5365" y1="244" y2="244"/></g><!--class AddColumnChange--><g id="elem_AddColumnChange"><rect codeLine="9" fill="#FFFFFF" height="44" id="AddColumnChange" rx="2.5" ry="2.5" style="stroke:#000000;stroke-width:1.0;" width="162" x="4589" y="208"/><ellipse cx="4602" cy="222" fill="#FFFFFF" rx="9" ry="9" style="stroke:#000000;stroke-width:1.0;"/><path d="M4604.9688,227.6406 Q4604.3906,227.9375 4603.75,228.0781 Q4603.1094,228.2344 4602.4063,228.2344 Q4599.9063,228.2344 4598.5781,226.5938 Q4597.2656,224.9375 4597.2656,221.8125 Q4597.2656,218.6875 4598.5781,217.0313 Q4599.9063,215.375 4602.4063,215.375 Q4603.1094,215.375 4603.75,215.5313 Q4604.4063,215.6875 4604.9688,215.9844 L4604.9688,218.7031 Q4604.3438,218.125 4603.75,217.8594 Q4603.1563,217.5781 4602.5313,217.5781 Q4601.1875,217.5781 4600.5,218.6563 Q4599.8125,219.7188 4599.8125,221.8125 Q4599.8125,223.9063 4600.5,224.9844 Q4601.1875,226.0469 4602.5313,226.0469 Q4603.1563,226.0469 4603.75,225.7813 Q4604.3438,225.5 4604.9688,224.9219 L4604.9688,227.6406 Z " fill="#000000"/><text fill="#000000" font-family="Verdana" font-size="14" lengthAdjust="spacing" textLength="134" x="4614" y="226.8467">AddColumnChange</text><line style="stroke:#000000;stroke-width:1.0;" x1="4590" x2="4750" y1="236" y2="236"/><line style="stroke:#000000;stroke-width:1.0;" x1="4590" x2="4750" y1="244" y2="244"/></g><!--class CreateIndexChange--><g id="elem_CreateIndexChange"><rect codeLine="10" fill="#FFFFFF" height="44" id="CreateIndexChange" rx="2.5" ry="2.5" style="stroke:#000000;stroke-width:1.0;" width="165" x="4987.5" y="208"/><ellipse cx="5000.5" cy="222" fill="#FFFFFF" rx="9" ry="9" style="stroke:#000000;stroke-width:1.0;"/><path d="M5003.4688,227.6406 Q5002.8906,227.9375 5002.25,228.0781 Q5001.6094,228.2344 5000.9063,228.2344 Q4998.4063,228.2344 4997.0781,226.5938 Q4995.7656,224.9375 4995.7656,221.8125 Q4995.7656,218.6875 4997.0781,217.0313 Q4998.4063,215.375 5000.9063,215.375 Q5001.6094,215.375 5002.25,215.5313 Q5002.9063,215.6875 5003.4688,215.9844 L5003.4688,218.7031 Q5002.8438,218.125 5002.25,217.8594 Q5001.6563,217.5781 5001.0313,217.5781 Q4999.6875,217.5781 4999,218.6563 Q4998.3125,219.7188 4998.3125,221.8125 Q4998.3125,223.9063 4999,224.9844 Q4999.6875,226.0469 5001.0313,226.0469 Q5001.6563,226.0469 5002.25,225.7813 Q5002.8438,225.5 5003.4688,224.9219 L5003.4688,227.6406 Z " fill="#000000"/><text fill="#000000" font-family="Verdana" font-size="14" lengthAdjust="spacing" textLength="137" x="5012.5" y="226.8467">CreateIndexChange</text><line style="stroke:#000000;stroke-width:1.0;" x1="4988.5" x2="5151.5" y1="236" y2="236"/><line style="stroke:#000000;stroke-width:1.0;" x1="4988.5" x2="5151.5" y1="244" y2="244"/></g><!--class CreateTableChange--><g id="elem_CreateTableChange"><rect codeLine="11" fill="#FFFFFF" height="44" id="CreateTableChange" rx="2.5" ry="2.5" style="stroke:#000000;stroke-width:1.0;" width="166" x="4786" y="208"/><ellipse cx="4799" cy="222" fill="#FFFFFF" rx="9" ry="9" style="stroke:#000000;stroke-width:1.0;"/><path d="M4801.9688,227.6406 Q4801.3906,227.9375 4800.75,228.0781 Q4800.1094,228.2344 4799.4063,228.2344 Q4796.9063,228.2344 4795.5781,226.5938 Q4794.2656,224.9375 4794.2656,221.8125 Q4794.2656,218.6875 4795.5781,217.0313 Q4796.9063,215.375 4799.4063,215.375 Q4800.1094,215.375 4800.75,215.5313 Q4801.4063,215.6875 4801.9688,215.9844 L4801.9688,218.7031 Q4801.3438,218.125 4800.75,217.8594 Q4800.1563,217.5781 4799.5313,217.5781 Q4798.1875,217.5781 4797.5,218.6563 Q4796.8125,219.7188 4796.8125,221.8125 Q4796.8125,223.9063 4797.5,224.9844 Q4798.1875,226.0469 4799.5313,226.0469 Q4800.1563,226.0469 4800.75,225.7813 Q4801.3438,225.5 4801.9688,224.9219 L4801.9688,227.6406 Z " fill="#000000"/><text fill="#000000" font-family="Verdana" font-size="14" lengthAdjust="spacing" textLength="138" x="4811" y="226.8467">CreateTableChange</text><line style="stroke:#000000;stroke-width:1.0;" x1="4787" x2="4951" y1="236" y2="236"/><line style="stroke:#000000;stroke-width:1.0;" x1="4787" x2="4951" y1="244" y2="244"/></g><!--class DdmAbstractViewChange--><g id="elem_DdmAbstractViewChange"><rect codeLine="15" fill="#FFFFFF" height="44" id="DdmAbstractViewChange" rx="2.5" ry="2.5" style="stroke:#000000;stroke-width:1.0;" width="204" x="79" y="208"/><ellipse cx="92" cy="222" fill="#FFFFFF" rx="9" ry="9" style="stroke:#000000;stroke-width:1.0;"/><path d="M94.9688,227.6406 Q94.3906,227.9375 93.75,228.0781 Q93.1094,228.2344 92.4063,228.2344 Q89.9063,228.2344 88.5781,226.5938 Q87.2656,224.9375 87.2656,221.8125 Q87.2656,218.6875 88.5781,217.0313 Q89.9063,215.375 92.4063,215.375 Q93.1094,215.375 93.75,215.5313 Q94.4063,215.6875 94.9688,215.9844 L94.9688,218.7031 Q94.3438,218.125 93.75,217.8594 Q93.1563,217.5781 92.5313,217.5781 Q91.1875,217.5781 90.5,218.6563 Q89.8125,219.7188 89.8125,221.8125 Q89.8125,223.9063 90.5,224.9844 Q91.1875,226.0469 92.5313,226.0469 Q93.1563,226.0469 93.75,225.7813 Q94.3438,225.5 94.9688,224.9219 L94.9688,227.6406 Z " fill="#000000"/><text fill="#000000" font-family="Verdana" font-size="14" lengthAdjust="spacing" textLength="176" x="104" y="226.8467">DdmAbstractViewChange</text><line style="stroke:#000000;stroke-width:1.0;" x1="80" x2="282" y1="236" y2="236"/><line style="stroke:#000000;stroke-width:1.0;" x1="80" x2="282" y1="244" y2="244"/></g><!--class DdmAddColumnChange--><g id="elem_DdmAddColumnChange"><rect codeLine="16" fill="#FFFFFF" height="44" id="DdmAddColumnChange" rx="2.5" ry="2.5" style="stroke:#000000;stroke-width:1.0;" width="195" x="339.5" y="89"/><ellipse cx="352.5" cy="103" fill="#FFFFFF" rx="9" ry="9" style="stroke:#000000;stroke-width:1.0;"/><path d="M355.4688,108.6406 Q354.8906,108.9375 354.25,109.0781 Q353.6094,109.2344 352.9063,109.2344 Q350.4063,109.2344 349.0781,107.5938 Q347.7656,105.9375 347.7656,102.8125 Q347.7656,99.6875 349.0781,98.0313 Q350.4063,96.375 352.9063,96.375 Q353.6094,96.375 354.25,96.5313 Q354.9063,96.6875 355.4688,96.9844 L355.4688,99.7031 Q354.8438,99.125 354.25,98.8594 Q353.6563,98.5781 353.0313,98.5781 Q351.6875,98.5781 351,99.6563 Q350.3125,100.7188 350.3125,102.8125 Q350.3125,104.9063 351,105.9844 Q351.6875,107.0469 353.0313,107.0469 Q353.6563,107.0469 354.25,106.7813 Q354.8438,106.5 355.4688,105.9219 L355.4688,108.6406 Z " fill="#000000"/><text fill="#000000" font-family="Verdana" font-size="14" lengthAdjust="spacing" textLength="167" x="364.5" y="107.8467">DdmAddColumnChange</text><line style="stroke:#000000;stroke-width:1.0;" x1="340.5" x2="533.5" y1="117" y2="117"/><line style="stroke:#000000;stroke-width:1.0;" x1="340.5" x2="533.5" y1="125" y2="125"/></g><!--class DdmCreateAnalyticsIndexChange--><g id="elem_DdmCreateAnalyticsIndexChange"><rect codeLine="17" fill="#FFFFFF" height="44" id="DdmCreateAnalyticsIndexChange" rx="2.5" ry="2.5" style="stroke:#000000;stroke-width:1.0;" width="258" x="803" y="89"/><ellipse cx="816" cy="103" fill="#FFFFFF" rx="9" ry="9" style="stroke:#000000;stroke-width:1.0;"/><path d="M818.9688,108.6406 Q818.3906,108.9375 817.75,109.0781 Q817.1094,109.2344 816.4063,109.2344 Q813.9063,109.2344 812.5781,107.5938 Q811.2656,105.9375 811.2656,102.8125 Q811.2656,99.6875 812.5781,98.0313 Q813.9063,96.375 816.4063,96.375 Q817.1094,96.375 817.75,96.5313 Q818.4063,96.6875 818.9688,96.9844 L818.9688,99.7031 Q818.3438,99.125 817.75,98.8594 Q817.1563,98.5781 816.5313,98.5781 Q815.1875,98.5781 814.5,99.6563 Q813.8125,100.7188 813.8125,102.8125 Q813.8125,104.9063 814.5,105.9844 Q815.1875,107.0469 816.5313,107.0469 Q817.1563,107.0469 817.75,106.7813 Q818.3438,106.5 818.9688,105.9219 L818.9688,108.6406 Z " fill="#000000"/><text fill="#000000" font-family="Verdana" font-size="14" lengthAdjust="spacing" textLength="230" x="828" y="107.8467">DdmCreateAnalyticsIndexChange</text><line style="stroke:#000000;stroke-width:1.0;" x1="804" x2="1060" y1="117" y2="117"/><line style="stroke:#000000;stroke-width:1.0;" x1="804" x2="1060" y1="125" y2="125"/></g><!--class DdmCreateAnalyticsViewChange--><g id="elem_DdmCreateAnalyticsViewChange"><rect codeLine="18" fill="#FFFFFF" height="44" id="DdmCreateAnalyticsViewChange" rx="2.5" ry="2.5" style="stroke:#000000;stroke-width:1.0;" width="253" x="51.5" y="89"/><ellipse cx="64.5" cy="103" fill="#FFFFFF" rx="9" ry="9" style="stroke:#000000;stroke-width:1.0;"/><path d="M67.4688,108.6406 Q66.8906,108.9375 66.25,109.0781 Q65.6094,109.2344 64.9063,109.2344 Q62.4063,109.2344 61.0781,107.5938 Q59.7656,105.9375 59.7656,102.8125 Q59.7656,99.6875 61.0781,98.0313 Q62.4063,96.375 64.9063,96.375 Q65.6094,96.375 66.25,96.5313 Q66.9063,96.6875 67.4688,96.9844 L67.4688,99.7031 Q66.8438,99.125 66.25,98.8594 Q65.6563,98.5781 65.0313,98.5781 Q63.6875,98.5781 63,99.6563 Q62.3125,100.7188 62.3125,102.8125 Q62.3125,104.9063 63,105.9844 Q63.6875,107.0469 65.0313,107.0469 Q65.6563,107.0469 66.25,106.7813 Q66.8438,106.5 67.4688,105.9219 L67.4688,108.6406 Z " fill="#000000"/><text fill="#000000" font-family="Verdana" font-size="14" lengthAdjust="spacing" textLength="225" x="76.5" y="107.8467">DdmCreateAnalyticsViewChange</text><line style="stroke:#000000;stroke-width:1.0;" x1="52.5" x2="303.5" y1="117" y2="117"/><line style="stroke:#000000;stroke-width:1.0;" x1="52.5" x2="303.5" y1="125" y2="125"/></g><!--class DdmCreateCompositeEntityChange--><g id="elem_DdmCreateCompositeEntityChange"><rect codeLine="19" fill="#FFFFFF" height="44" id="DdmCreateCompositeEntityChange" rx="2.5" ry="2.5" style="stroke:#000000;stroke-width:1.0;" width="274" x="1096" y="89"/><ellipse cx="1109" cy="103" fill="#FFFFFF" rx="9" ry="9" style="stroke:#000000;stroke-width:1.0;"/><path d="M1111.9688,108.6406 Q1111.3906,108.9375 1110.75,109.0781 Q1110.1094,109.2344 1109.4063,109.2344 Q1106.9063,109.2344 1105.5781,107.5938 Q1104.2656,105.9375 1104.2656,102.8125 Q1104.2656,99.6875 1105.5781,98.0313 Q1106.9063,96.375 1109.4063,96.375 Q1110.1094,96.375 1110.75,96.5313 Q1111.4063,96.6875 1111.9688,96.9844 L1111.9688,99.7031 Q1111.3438,99.125 1110.75,98.8594 Q1110.1563,98.5781 1109.5313,98.5781 Q1108.1875,98.5781 1107.5,99.6563 Q1106.8125,100.7188 1106.8125,102.8125 Q1106.8125,104.9063 1107.5,105.9844 Q1108.1875,107.0469 1109.5313,107.0469 Q1110.1563,107.0469 1110.75,106.7813 Q1111.3438,106.5 1111.9688,105.9219 L1111.9688,108.6406 Z " fill="#000000"/><text fill="#000000" font-family="Verdana" font-size="14" lengthAdjust="spacing" textLength="246" x="1121" y="107.8467">DdmCreateCompositeEntityChange</text><line style="stroke:#000000;stroke-width:1.0;" x1="1097" x2="1369" y1="117" y2="117"/><line style="stroke:#000000;stroke-width:1.0;" x1="1097" x2="1369" y1="125" y2="125"/></g><!--class DdmCreateTableChange--><g id="elem_DdmCreateTableChange"><rect codeLine="20" fill="#FFFFFF" height="44" id="DdmCreateTableChange" rx="2.5" ry="2.5" style="stroke:#000000;stroke-width:1.0;" width="199" x="569.5" y="89"/><ellipse cx="582.5" cy="103" fill="#FFFFFF" rx="9" ry="9" style="stroke:#000000;stroke-width:1.0;"/><path d="M585.4688,108.6406 Q584.8906,108.9375 584.25,109.0781 Q583.6094,109.2344 582.9063,109.2344 Q580.4063,109.2344 579.0781,107.5938 Q577.7656,105.9375 577.7656,102.8125 Q577.7656,99.6875 579.0781,98.0313 Q580.4063,96.375 582.9063,96.375 Q583.6094,96.375 584.25,96.5313 Q584.9063,96.6875 585.4688,96.9844 L585.4688,99.7031 Q584.8438,99.125 584.25,98.8594 Q583.6563,98.5781 583.0313,98.5781 Q581.6875,98.5781 581,99.6563 Q580.3125,100.7188 580.3125,102.8125 Q580.3125,104.9063 581,105.9844 Q581.6875,107.0469 583.0313,107.0469 Q583.6563,107.0469 584.25,106.7813 Q584.8438,106.5 585.4688,105.9219 L585.4688,108.6406 Z " fill="#000000"/><text fill="#000000" font-family="Verdana" font-size="14" lengthAdjust="spacing" textLength="171" x="594.5" y="107.8467">DdmCreateTableChange</text><line style="stroke:#000000;stroke-width:1.0;" x1="570.5" x2="767.5" y1="117" y2="117"/><line style="stroke:#000000;stroke-width:1.0;" x1="570.5" x2="767.5" y1="125" y2="125"/></g><!--class DdmCreateTypeChange--><g id="elem_DdmCreateTypeChange"><rect codeLine="21" fill="#FFFFFF" height="44" id="DdmCreateTypeChange" rx="2.5" ry="2.5" style="stroke:#000000;stroke-width:1.0;" width="195" x="1405.5" y="89"/><ellipse cx="1418.5" cy="103" fill="#FFFFFF" rx="9" ry="9" style="stroke:#000000;stroke-width:1.0;"/><path d="M1421.4688,108.6406 Q1420.8906,108.9375 1420.25,109.0781 Q1419.6094,109.2344 1418.9063,109.2344 Q1416.4063,109.2344 1415.0781,107.5938 Q1413.7656,105.9375 1413.7656,102.8125 Q1413.7656,99.6875 1415.0781,98.0313 Q1416.4063,96.375 1418.9063,96.375 Q1419.6094,96.375 1420.25,96.5313 Q1420.9063,96.6875 1421.4688,96.9844 L1421.4688,99.7031 Q1420.8438,99.125 1420.25,98.8594 Q1419.6563,98.5781 1419.0313,98.5781 Q1417.6875,98.5781 1417,99.6563 Q1416.3125,100.7188 1416.3125,102.8125 Q1416.3125,104.9063 1417,105.9844 Q1417.6875,107.0469 1419.0313,107.0469 Q1419.6563,107.0469 1420.25,106.7813 Q1420.8438,106.5 1421.4688,105.9219 L1421.4688,108.6406 Z " fill="#000000"/><text fill="#000000" font-family="Verdana" font-size="14" lengthAdjust="spacing" textLength="167" x="1430.5" y="107.8467">DdmCreateTypeChange</text><line style="stroke:#000000;stroke-width:1.0;" x1="1406.5" x2="1599.5" y1="117" y2="117"/><line style="stroke:#000000;stroke-width:1.0;" x1="1406.5" x2="1599.5" y1="125" y2="125"/></g><!--class DdmDistributeTableChange--><g id="elem_DdmDistributeTableChange"><rect codeLine="22" fill="#FFFFFF" height="44" id="DdmDistributeTableChange" rx="2.5" ry="2.5" style="stroke:#000000;stroke-width:1.0;" width="220" x="1636" y="89"/><ellipse cx="1649" cy="103" fill="#FFFFFF" rx="9" ry="9" style="stroke:#000000;stroke-width:1.0;"/><path d="M1651.9688,108.6406 Q1651.3906,108.9375 1650.75,109.0781 Q1650.1094,109.2344 1649.4063,109.2344 Q1646.9063,109.2344 1645.5781,107.5938 Q1644.2656,105.9375 1644.2656,102.8125 Q1644.2656,99.6875 1645.5781,98.0313 Q1646.9063,96.375 1649.4063,96.375 Q1650.1094,96.375 1650.75,96.5313 Q1651.4063,96.6875 1651.9688,96.9844 L1651.9688,99.7031 Q1651.3438,99.125 1650.75,98.8594 Q1650.1563,98.5781 1649.5313,98.5781 Q1648.1875,98.5781 1647.5,99.6563 Q1646.8125,100.7188 1646.8125,102.8125 Q1646.8125,104.9063 1647.5,105.9844 Q1648.1875,107.0469 1649.5313,107.0469 Q1650.1563,107.0469 1650.75,106.7813 Q1651.3438,106.5 1651.9688,105.9219 L1651.9688,108.6406 Z " fill="#000000"/><text fill="#000000" font-family="Verdana" font-size="14" lengthAdjust="spacing" textLength="192" x="1661" y="107.8467">DdmDistributeTableChange</text><line style="stroke:#000000;stroke-width:1.0;" x1="1637" x2="1855" y1="117" y2="117"/><line style="stroke:#000000;stroke-width:1.0;" x1="1637" x2="1855" y1="125" y2="125"/></g><!--class DdmDropAnalyticsViewChange--><g id="elem_DdmDropAnalyticsViewChange"><rect codeLine="23" fill="#FFFFFF" height="44" id="DdmDropAnalyticsViewChange" rx="2.5" ry="2.5" style="stroke:#000000;stroke-width:1.0;" width="241" x="1891.5" y="89"/><ellipse cx="1904.5" cy="103" fill="#FFFFFF" rx="9" ry="9" style="stroke:#000000;stroke-width:1.0;"/><path d="M1907.4688,108.6406 Q1906.8906,108.9375 1906.25,109.0781 Q1905.6094,109.2344 1904.9063,109.2344 Q1902.4063,109.2344 1901.0781,107.5938 Q1899.7656,105.9375 1899.7656,102.8125 Q1899.7656,99.6875 1901.0781,98.0313 Q1902.4063,96.375 1904.9063,96.375 Q1905.6094,96.375 1906.25,96.5313 Q1906.9063,96.6875 1907.4688,96.9844 L1907.4688,99.7031 Q1906.8438,99.125 1906.25,98.8594 Q1905.6563,98.5781 1905.0313,98.5781 Q1903.6875,98.5781 1903,99.6563 Q1902.3125,100.7188 1902.3125,102.8125 Q1902.3125,104.9063 1903,105.9844 Q1903.6875,107.0469 1905.0313,107.0469 Q1905.6563,107.0469 1906.25,106.7813 Q1906.8438,106.5 1907.4688,105.9219 L1907.4688,108.6406 Z " fill="#000000"/><text fill="#000000" font-family="Verdana" font-size="14" lengthAdjust="spacing" textLength="213" x="1916.5" y="107.8467">DdmDropAnalyticsViewChange</text><line style="stroke:#000000;stroke-width:1.0;" x1="1892.5" x2="2131.5" y1="117" y2="117"/><line style="stroke:#000000;stroke-width:1.0;" x1="1892.5" x2="2131.5" y1="125" y2="125"/></g><!--class DdmDropColumnChange--><g id="elem_DdmDropColumnChange"><rect codeLine="24" fill="#FFFFFF" height="44" id="DdmDropColumnChange" rx="2.5" ry="2.5" style="stroke:#000000;stroke-width:1.0;" width="202" x="2168" y="89"/><ellipse cx="2181" cy="103" fill="#FFFFFF" rx="9" ry="9" style="stroke:#000000;stroke-width:1.0;"/><path d="M2183.9688,108.6406 Q2183.3906,108.9375 2182.75,109.0781 Q2182.1094,109.2344 2181.4063,109.2344 Q2178.9063,109.2344 2177.5781,107.5938 Q2176.2656,105.9375 2176.2656,102.8125 Q2176.2656,99.6875 2177.5781,98.0313 Q2178.9063,96.375 2181.4063,96.375 Q2182.1094,96.375 2182.75,96.5313 Q2183.4063,96.6875 2183.9688,96.9844 L2183.9688,99.7031 Q2183.3438,99.125 2182.75,98.8594 Q2182.1563,98.5781 2181.5313,98.5781 Q2180.1875,98.5781 2179.5,99.6563 Q2178.8125,100.7188 2178.8125,102.8125 Q2178.8125,104.9063 2179.5,105.9844 Q2180.1875,107.0469 2181.5313,107.0469 Q2182.1563,107.0469 2182.75,106.7813 Q2183.3438,106.5 2183.9688,105.9219 L2183.9688,108.6406 Z " fill="#000000"/><text fill="#000000" font-family="Verdana" font-size="14" lengthAdjust="spacing" textLength="174" x="2193" y="107.8467">DdmDropColumnChange</text><line style="stroke:#000000;stroke-width:1.0;" x1="2169" x2="2369" y1="117" y2="117"/><line style="stroke:#000000;stroke-width:1.0;" x1="2169" x2="2369" y1="125" y2="125"/></g><!--class DdmArchiveAffectableChange--><g id="elem_DdmArchiveAffectableChange"><rect codeLine="25" fill="#FFFFFF" height="56.2656" id="DdmArchiveAffectableChange" rx="2.5" ry="2.5" style="stroke:#000000;stroke-width:1.0;" width="233" x="320.5" y="201.86"/><ellipse cx="333.5" cy="221.9928" fill="#FFFFFF" rx="9" ry="9" style="stroke:#000000;stroke-width:1.0;"/><path d="M329.4219,217.7584 L329.4219,215.6022 L336.8125,215.6022 L336.8125,217.7584 L334.3438,217.7584 L334.3438,225.8366 L336.8125,225.8366 L336.8125,227.9928 L329.4219,227.9928 L329.4219,225.8366 L331.8906,225.8366 L331.8906,217.7584 L329.4219,217.7584 Z " fill="#000000"/><text fill="#000000" font-family="Verdana" font-size="12" font-style="italic" lengthAdjust="spacing" textLength="70" x="413" y="217.9987">&#171;interface&#187;</text><text fill="#000000" font-family="Verdana" font-size="14" font-style="italic" lengthAdjust="spacing" textLength="205" x="345.5" y="233.8239">DdmArchiveAffectableChange</text><line style="stroke:#000000;stroke-width:1.0;" x1="321.5" x2="552.5" y1="242.1256" y2="242.1256"/><line style="stroke:#000000;stroke-width:1.0;" x1="321.5" x2="552.5" y1="250.1256" y2="250.1256"/></g><!--class DdmCreateAbstractViewGenerator--><g id="elem_DdmCreateAbstractViewGenerator"><rect codeLine="29" fill="#FFFFFF" height="44" id="DdmCreateAbstractViewGenerator" rx="2.5" ry="2.5" style="stroke:#000000;stroke-width:1.0;" width="266" x="4243" y="89"/><ellipse cx="4256" cy="103" fill="#FFFFFF" rx="9" ry="9" style="stroke:#000000;stroke-width:1.0;"/><path d="M4258.9688,108.6406 Q4258.3906,108.9375 4257.75,109.0781 Q4257.1094,109.2344 4256.4063,109.2344 Q4253.9063,109.2344 4252.5781,107.5938 Q4251.2656,105.9375 4251.2656,102.8125 Q4251.2656,99.6875 4252.5781,98.0313 Q4253.9063,96.375 4256.4063,96.375 Q4257.1094,96.375 4257.75,96.5313 Q4258.4063,96.6875 4258.9688,96.9844 L4258.9688,99.7031 Q4258.3438,99.125 4257.75,98.8594 Q4257.1563,98.5781 4256.5313,98.5781 Q4255.1875,98.5781 4254.5,99.6563 Q4253.8125,100.7188 4253.8125,102.8125 Q4253.8125,104.9063 4254.5,105.9844 Q4255.1875,107.0469 4256.5313,107.0469 Q4257.1563,107.0469 4257.75,106.7813 Q4258.3438,106.5 4258.9688,105.9219 L4258.9688,108.6406 Z " fill="#000000"/><text fill="#000000" font-family="Verdana" font-size="14" lengthAdjust="spacing" textLength="238" x="4268" y="107.8467">DdmCreateAbstractViewGenerator</text><line style="stroke:#000000;stroke-width:1.0;" x1="4244" x2="4508" y1="117" y2="117"/><line style="stroke:#000000;stroke-width:1.0;" x1="4244" x2="4508" y1="125" y2="125"/></g><!--class DdmCreateDomainGenerator--><g id="elem_DdmCreateDomainGenerator"><rect codeLine="30" fill="#FFFFFF" height="44" id="DdmCreateDomainGenerator" rx="2.5" ry="2.5" style="stroke:#000000;stroke-width:1.0;" width="230" x="3978" y="89"/><ellipse cx="3991" cy="103" fill="#FFFFFF" rx="9" ry="9" style="stroke:#000000;stroke-width:1.0;"/><path d="M3993.9688,108.6406 Q3993.3906,108.9375 3992.75,109.0781 Q3992.1094,109.2344 3991.4063,109.2344 Q3988.9063,109.2344 3987.5781,107.5938 Q3986.2656,105.9375 3986.2656,102.8125 Q3986.2656,99.6875 3987.5781,98.0313 Q3988.9063,96.375 3991.4063,96.375 Q3992.1094,96.375 3992.75,96.5313 Q3993.4063,96.6875 3993.9688,96.9844 L3993.9688,99.7031 Q3993.3438,99.125 3992.75,98.8594 Q3992.1563,98.5781 3991.5313,98.5781 Q3990.1875,98.5781 3989.5,99.6563 Q3988.8125,100.7188 3988.8125,102.8125 Q3988.8125,104.9063 3989.5,105.9844 Q3990.1875,107.0469 3991.5313,107.0469 Q3992.1563,107.0469 3992.75,106.7813 Q3993.3438,106.5 3993.9688,105.9219 L3993.9688,108.6406 Z " fill="#000000"/><text fill="#000000" font-family="Verdana" font-size="14" lengthAdjust="spacing" textLength="202" x="4003" y="107.8467">DdmCreateDomainGenerator</text><line style="stroke:#000000;stroke-width:1.0;" x1="3979" x2="4207" y1="117" y2="117"/><line style="stroke:#000000;stroke-width:1.0;" x1="3979" x2="4207" y1="125" y2="125"/></g><!--class DdmCreateMany2ManyGenerator--><g id="elem_DdmCreateMany2ManyGenerator"><rect codeLine="31" fill="#FFFFFF" height="44" id="DdmCreateMany2ManyGenerator" rx="2.5" ry="2.5" style="stroke:#000000;stroke-width:1.0;" width="258" x="3685" y="89"/><ellipse cx="3698" cy="103" fill="#FFFFFF" rx="9" ry="9" style="stroke:#000000;stroke-width:1.0;"/><path d="M3700.9688,108.6406 Q3700.3906,108.9375 3699.75,109.0781 Q3699.1094,109.2344 3698.4063,109.2344 Q3695.9063,109.2344 3694.5781,107.5938 Q3693.2656,105.9375 3693.2656,102.8125 Q3693.2656,99.6875 3694.5781,98.0313 Q3695.9063,96.375 3698.4063,96.375 Q3699.1094,96.375 3699.75,96.5313 Q3700.4063,96.6875 3700.9688,96.9844 L3700.9688,99.7031 Q3700.3438,99.125 3699.75,98.8594 Q3699.1563,98.5781 3698.5313,98.5781 Q3697.1875,98.5781 3696.5,99.6563 Q3695.8125,100.7188 3695.8125,102.8125 Q3695.8125,104.9063 3696.5,105.9844 Q3697.1875,107.0469 3698.5313,107.0469 Q3699.1563,107.0469 3699.75,106.7813 Q3700.3438,106.5 3700.9688,105.9219 L3700.9688,108.6406 Z " fill="#000000"/><text fill="#000000" font-family="Verdana" font-size="14" lengthAdjust="spacing" textLength="230" x="3710" y="107.8467">DdmCreateMany2ManyGenerator</text><line style="stroke:#000000;stroke-width:1.0;" x1="3686" x2="3942" y1="117" y2="117"/><line style="stroke:#000000;stroke-width:1.0;" x1="3686" x2="3942" y1="125" y2="125"/></g><!--class DdmCreateSimpleSearchConditionGenerator--><g id="elem_DdmCreateSimpleSearchConditionGenerator"><rect codeLine="32" fill="#FFFFFF" height="44" id="DdmCreateSimpleSearchConditionGenerator" rx="2.5" ry="2.5" style="stroke:#000000;stroke-width:1.0;" width="337" x="3312.5" y="89"/><ellipse cx="3325.5" cy="103" fill="#FFFFFF" rx="9" ry="9" style="stroke:#000000;stroke-width:1.0;"/><path d="M3328.4688,108.6406 Q3327.8906,108.9375 3327.25,109.0781 Q3326.6094,109.2344 3325.9063,109.2344 Q3323.4063,109.2344 3322.0781,107.5938 Q3320.7656,105.9375 3320.7656,102.8125 Q3320.7656,99.6875 3322.0781,98.0313 Q3323.4063,96.375 3325.9063,96.375 Q3326.6094,96.375 3327.25,96.5313 Q3327.9063,96.6875 3328.4688,96.9844 L3328.4688,99.7031 Q3327.8438,99.125 3327.25,98.8594 Q3326.6563,98.5781 3326.0313,98.5781 Q3324.6875,98.5781 3324,99.6563 Q3323.3125,100.7188 3323.3125,102.8125 Q3323.3125,104.9063 3324,105.9844 Q3324.6875,107.0469 3326.0313,107.0469 Q3326.6563,107.0469 3327.25,106.7813 Q3327.8438,106.5 3328.4688,105.9219 L3328.4688,108.6406 Z " fill="#000000"/><text fill="#000000" font-family="Verdana" font-size="14" lengthAdjust="spacing" textLength="309" x="3337.5" y="107.8467">DdmCreateSimpleSearchConditionGenerator</text><line style="stroke:#000000;stroke-width:1.0;" x1="3313.5" x2="3648.5" y1="117" y2="117"/><line style="stroke:#000000;stroke-width:1.0;" x1="3313.5" x2="3648.5" y1="125" y2="125"/></g><!--class DdmCreateAbstractViewStatement--><g id="elem_DdmCreateAbstractViewStatement"><rect codeLine="36" fill="#FFFFFF" height="44" id="DdmCreateAbstractViewStatement" rx="2.5" ry="2.5" style="stroke:#000000;stroke-width:1.0;" width="268" x="2426" y="89"/><ellipse cx="2439" cy="103" fill="#FFFFFF" rx="9" ry="9" style="stroke:#000000;stroke-width:1.0;"/><path d="M2441.9688,108.6406 Q2441.3906,108.9375 2440.75,109.0781 Q2440.1094,109.2344 2439.4063,109.2344 Q2436.9063,109.2344 2435.5781,107.5938 Q2434.2656,105.9375 2434.2656,102.8125 Q2434.2656,99.6875 2435.5781,98.0313 Q2436.9063,96.375 2439.4063,96.375 Q2440.1094,96.375 2440.75,96.5313 Q2441.4063,96.6875 2441.9688,96.9844 L2441.9688,99.7031 Q2441.3438,99.125 2440.75,98.8594 Q2440.1563,98.5781 2439.5313,98.5781 Q2438.1875,98.5781 2437.5,99.6563 Q2436.8125,100.7188 2436.8125,102.8125 Q2436.8125,104.9063 2437.5,105.9844 Q2438.1875,107.0469 2439.5313,107.0469 Q2440.1563,107.0469 2440.75,106.7813 Q2441.3438,106.5 2441.9688,105.9219 L2441.9688,108.6406 Z " fill="#000000"/><text fill="#000000" font-family="Verdana" font-size="14" lengthAdjust="spacing" textLength="240" x="2451" y="107.8467">DdmCreateAbstractViewStatement</text><line style="stroke:#000000;stroke-width:1.0;" x1="2427" x2="2693" y1="117" y2="117"/><line style="stroke:#000000;stroke-width:1.0;" x1="2427" x2="2693" y1="125" y2="125"/></g><!--class DdmCreateDomainStatement--><g id="elem_DdmCreateDomainStatement"><rect codeLine="37" fill="#FFFFFF" height="44" id="DdmCreateDomainStatement" rx="2.5" ry="2.5" style="stroke:#000000;stroke-width:1.0;" width="232" x="3024" y="89"/><ellipse cx="3037" cy="103" fill="#FFFFFF" rx="9" ry="9" style="stroke:#000000;stroke-width:1.0;"/><path d="M3039.9688,108.6406 Q3039.3906,108.9375 3038.75,109.0781 Q3038.1094,109.2344 3037.4063,109.2344 Q3034.9063,109.2344 3033.5781,107.5938 Q3032.2656,105.9375 3032.2656,102.8125 Q3032.2656,99.6875 3033.5781,98.0313 Q3034.9063,96.375 3037.4063,96.375 Q3038.1094,96.375 3038.75,96.5313 Q3039.4063,96.6875 3039.9688,96.9844 L3039.9688,99.7031 Q3039.3438,99.125 3038.75,98.8594 Q3038.1563,98.5781 3037.5313,98.5781 Q3036.1875,98.5781 3035.5,99.6563 Q3034.8125,100.7188 3034.8125,102.8125 Q3034.8125,104.9063 3035.5,105.9844 Q3036.1875,107.0469 3037.5313,107.0469 Q3038.1563,107.0469 3038.75,106.7813 Q3039.3438,106.5 3039.9688,105.9219 L3039.9688,108.6406 Z " fill="#000000"/><text fill="#000000" font-family="Verdana" font-size="14" lengthAdjust="spacing" textLength="204" x="3049" y="107.8467">DdmCreateDomainStatement</text><line style="stroke:#000000;stroke-width:1.0;" x1="3025" x2="3255" y1="117" y2="117"/><line style="stroke:#000000;stroke-width:1.0;" x1="3025" x2="3255" y1="125" y2="125"/></g><!--class DdmCreateMany2ManyStatement--><g id="elem_DdmCreateMany2ManyStatement"><rect codeLine="38" fill="#FFFFFF" height="44" id="DdmCreateMany2ManyStatement" rx="2.5" ry="2.5" style="stroke:#000000;stroke-width:1.0;" width="260" x="2729" y="89"/><ellipse cx="2742" cy="103" fill="#FFFFFF" rx="9" ry="9" style="stroke:#000000;stroke-width:1.0;"/><path d="M2744.9688,108.6406 Q2744.3906,108.9375 2743.75,109.0781 Q2743.1094,109.2344 2742.4063,109.2344 Q2739.9063,109.2344 2738.5781,107.5938 Q2737.2656,105.9375 2737.2656,102.8125 Q2737.2656,99.6875 2738.5781,98.0313 Q2739.9063,96.375 2742.4063,96.375 Q2743.1094,96.375 2743.75,96.5313 Q2744.4063,96.6875 2744.9688,96.9844 L2744.9688,99.7031 Q2744.3438,99.125 2743.75,98.8594 Q2743.1563,98.5781 2742.5313,98.5781 Q2741.1875,98.5781 2740.5,99.6563 Q2739.8125,100.7188 2739.8125,102.8125 Q2739.8125,104.9063 2740.5,105.9844 Q2741.1875,107.0469 2742.5313,107.0469 Q2743.1563,107.0469 2743.75,106.7813 Q2744.3438,106.5 2744.9688,105.9219 L2744.9688,108.6406 Z " fill="#000000"/><text fill="#000000" font-family="Verdana" font-size="14" lengthAdjust="spacing" textLength="232" x="2754" y="107.8467">DdmCreateMany2ManyStatement</text><line style="stroke:#000000;stroke-width:1.0;" x1="2730" x2="2988" y1="117" y2="117"/><line style="stroke:#000000;stroke-width:1.0;" x1="2730" x2="2988" y1="125" y2="125"/></g><!--link AddColumnChange to AbstractChange--><g id="link_AddColumnChange_AbstractChange"><path codeLine="41" d="M4670,252.41 C4670,282.48 4670,332.13 4670,332.13 C4670,332.13 5426.33,332.13 5426.33,332.13 " fill="none" id="AddColumnChange-to-AbstractChange" style="stroke:#000082;stroke-width:1.0;"/><polygon fill="none" points="5426.33,325.13,5446.33,332.13,5426.33,339.13,5426.33,325.13" style="stroke:#000082;stroke-width:1.0;"/></g><!--link CreateIndexChange to AbstractChange--><g id="link_CreateIndexChange_AbstractChange"><path codeLine="42" d="M5070,252.07 C5070,279.61 5070,323.13 5070,323.13 C5070,323.13 5426.16,323.13 5426.16,323.13 " fill="none" id="CreateIndexChange-to-AbstractChange" style="stroke:#000082;stroke-width:1.0;"/><polygon fill="none" points="5426.16,316.13,5446.16,323.13,5426.16,330.13,5426.16,316.13" style="stroke:#000082;stroke-width:1.0;"/></g><!--link CreateTableChange to AbstractChange--><g id="link_CreateTableChange_AbstractChange"><path codeLine="43" d="M4869,252.04 C4869,280.7 4869,327.13 4869,327.13 C4869,327.13 5426.04,327.13 5426.04,327.13 " fill="none" id="CreateTableChange-to-AbstractChange" style="stroke:#000082;stroke-width:1.0;"/><polygon fill="none" points="5426.04,320.13,5446.04,327.13,5426.04,334.13,5426.04,320.13" style="stroke:#000082;stroke-width:1.0;"/></g><!--link DdmAbstractViewChange to AbstractChange--><g id="link_DdmAbstractViewChange_AbstractChange"><path codeLine="44" d="M181,252.32 C181,289.03 181,358.13 181,358.13 C181,358.13 5426.09,358.13 5426.09,358.13 " fill="none" id="DdmAbstractViewChange-to-AbstractChange" style="stroke:#000082;stroke-width:1.0;"/><polygon fill="none" points="5426.09,351.13,5446.09,358.13,5426.09,365.13,5426.09,351.13" style="stroke:#000082;stroke-width:1.0;"/></g><!--link DdmAddColumnChange to AddColumnChange--><g id="link_DdmAddColumnChange_AddColumnChange"><path codeLine="45" d="M534.79,111.13 C550.38,111.13 561.5,111.13 561.5,111.13 C561.5,111.13 561.5,230.13 561.5,230.13 C561.5,230.13 4567.85,230.13 4567.85,230.13 " fill="none" id="DdmAddColumnChange-to-AddColumnChange" style="stroke:#000082;stroke-width:1.0;"/><polygon fill="none" points="4567.85,223.13,4587.85,230.13,4567.85,237.13,4567.85,223.13" style="stroke:#000082;stroke-width:1.0;"/></g><!--link DdmAddColumnChange to DdmArchiveAffectableChange--><g id="link_DdmAddColumnChange_DdmArchiveAffectableChange"><path codeLine="46" d="M437,133.38 C437,133.38 437,180.4 437,180.4 " fill="none" id="DdmAddColumnChange-to-DdmArchiveAffectableChange" style="stroke:#008200;stroke-width:1.0;stroke-dasharray:7.0,7.0;"/><polygon fill="none" points="444,180.4,437,200.4,430,180.4,444,180.4" style="stroke:#008200;stroke-width:1.0;"/></g><!--link DdmCreateAbstractViewGenerator to AbstractSqlGenerator--><g id="link_DdmCreateAbstractViewGenerator_AbstractSqlGenerator"><path codeLine="47" d="M4509.26,111.13 C4816.82,111.13 5550.1,111.13 5550.1,111.13 C5550.1,111.13 5550.1,186.64 5550.1,186.64 " fill="none" id="DdmCreateAbstractViewGenerator-to-AbstractSqlGenerator" style="stroke:#000082;stroke-width:1.0;"/><polygon fill="none" points="5557.1,186.64,5550.1,206.64,5543.1,186.64,5557.1,186.64" style="stroke:#000082;stroke-width:1.0;"/></g><!--link DdmCreateAbstractViewStatement to AbstractSqlStatement--><g id="link_DdmCreateAbstractViewStatement_AbstractSqlStatement"><path codeLine="48" d="M2560,133.31 C2560,153.18 2560,179.13 2560,179.13 C2560,179.13 5232.5,179.13 5232.5,179.13 C5232.5,179.13 5232.5,186.54 5232.5,186.54 " fill="none" id="DdmCreateAbstractViewStatement-to-AbstractSqlStatement" style="stroke:#000082;stroke-width:1.0;"/><polygon fill="none" points="5239.5,186.54,5232.5,206.54,5225.5,186.54,5239.5,186.54" style="stroke:#000082;stroke-width:1.0;"/></g><!--link DdmCreateAnalyticsIndexChange to CreateIndexChange--><g id="link_DdmCreateAnalyticsIndexChange_CreateIndexChange"><path codeLine="49" d="M932,133.43 C932,155.89 932,187.13 932,187.13 C932,187.13 5070,187.13 5070,187.13 C5070,187.13 5070,189.17 5070,189.17 " fill="none" id="DdmCreateAnalyticsIndexChange-to-CreateIndexChange" style="stroke:#000082;stroke-width:1.0;"/><polygon fill="none" points="5077,186.56,5070,206.56,5063,186.56,5077,186.56" style="stroke:#000082;stroke-width:1.0;"/></g><!--link DdmCreateAnalyticsViewChange to DdmAbstractViewChange--><g id="link_DdmCreateAnalyticsViewChange_DdmAbstractViewChange"><path codeLine="50" d="M181,133.38 C181,133.38 181,186.71 181,186.71 " fill="none" id="DdmCreateAnalyticsViewChange-to-DdmAbstractViewChange" style="stroke:#000082;stroke-width:1.0;"/><polygon fill="none" points="188,186.71,181,206.71,174,186.71,188,186.71" style="stroke:#000082;stroke-width:1.0;"/></g><!--link DdmCreateCompositeEntityChange to AbstractChange--><g id="link_DdmCreateCompositeEntityChange_AbstractChange"><path codeLine="51" d="M1233,133.43 C1233,193.62 1233,354.13 1233,354.13 C1233,354.13 5426.1,354.13 5426.1,354.13 " fill="none" id="DdmCreateCompositeEntityChange-to-AbstractChange" style="stroke:#000082;stroke-width:1.0;"/><polygon fill="none" points="5426.1,347.13,5446.1,354.13,5426.1,361.13,5426.1,347.13" style="stroke:#000082;stroke-width:1.0;"/></g><!--link DdmCreateDomainGenerator to AbstractSqlGenerator--><g id="link_DdmCreateDomainGenerator_AbstractSqlGenerator"><path codeLine="52" d="M4093,133.21 C4093,137.73 4093,141.13 4093,141.13 C4093,141.13 5512.7,141.13 5512.7,141.13 C5512.7,141.13 5512.7,186.57 5512.7,186.57 " fill="none" id="DdmCreateDomainGenerator-to-AbstractSqlGenerator" style="stroke:#000082;stroke-width:1.0;"/><polygon fill="none" points="5519.7,186.57,5512.7,206.57,5505.7,186.57,5519.7,186.57" style="stroke:#000082;stroke-width:1.0;"/></g><!--link DdmCreateDomainStatement to AbstractSqlStatement--><g id="link_DdmCreateDomainStatement_AbstractSqlStatement"><path codeLine="53" d="M3140,133.22 C3140,147.78 3140,164.13 3140,164.13 C3140,164.13 5321.5,164.13 5321.5,164.13 C5321.5,164.13 5321.5,186.7 5321.5,186.7 " fill="none" id="DdmCreateDomainStatement-to-AbstractSqlStatement" style="stroke:#000082;stroke-width:1.0;"/><polygon fill="none" points="5328.5,186.7,5321.5,206.7,5314.5,186.7,5328.5,186.7" style="stroke:#000082;stroke-width:1.0;"/></g><!--link DdmCreateMany2ManyGenerator to AbstractSqlGenerator--><g id="link_DdmCreateMany2ManyGenerator_AbstractSqlGenerator"><path codeLine="54" d="M3814,133.18 C3814,141.57 3814,149.13 3814,149.13 C3814,149.13 5475.3,149.13 5475.3,149.13 C5475.3,149.13 5475.3,186.9 5475.3,186.9 " fill="none" id="DdmCreateMany2ManyGenerator-to-AbstractSqlGenerator" style="stroke:#000082;stroke-width:1.0;"/><polygon fill="none" points="5482.3,186.9,5475.3,206.9,5468.3,186.9,5482.3,186.9" style="stroke:#000082;stroke-width:1.0;"/></g><!--link DdmCreateMany2ManyStatement to AbstractSqlStatement--><g id="link_DdmCreateMany2ManyStatement_AbstractSqlStatement"><path codeLine="55" d="M2859,133.41 C2859,150.86 2859,172.13 2859,172.13 C2859,172.13 5277,172.13 5277,172.13 C5277,172.13 5277,186.79 5277,186.79 " fill="none" id="DdmCreateMany2ManyStatement-to-AbstractSqlStatement" style="stroke:#000082;stroke-width:1.0;"/><polygon fill="none" points="5284,186.79,5277,206.79,5270,186.79,5284,186.79" style="stroke:#000082;stroke-width:1.0;"/></g><!--link DdmCreateSimpleSearchConditionGenerator to AbstractSqlGenerator--><g id="link_DdmCreateSimpleSearchConditionGenerator_AbstractSqlGenerator"><path codeLine="56" d="M3481,133.3 C3481,144.67 3481,156.13 3481,156.13 C3481,156.13 5437.9,156.13 5437.9,156.13 C5437.9,156.13 5437.9,186.83 5437.9,186.83 " fill="none" id="DdmCreateSimpleSearchConditionGenerator-to-AbstractSqlGenerator" style="stroke:#000082;stroke-width:1.0;"/><polygon fill="none" points="5444.9,186.83,5437.9,206.83,5430.9,186.83,5444.9,186.83" style="stroke:#000082;stroke-width:1.0;"/></g><!--link DdmCreateTableChange to CreateTableChange--><g id="link_DdmCreateTableChange_CreateTableChange"><path codeLine="57" d="M669,133.1 C669,158.03 669,195.13 669,195.13 C669,195.13 4869,195.13 4869,195.13 C4869,195.13 4869,196.39 4869,196.39 " fill="none" id="DdmCreateTableChange-to-CreateTableChange" style="stroke:#000082;stroke-width:1.0;"/><polygon fill="none" points="4876,186.72,4869,206.72,4862,186.72,4876,186.72" style="stroke:#000082;stroke-width:1.0;"/></g><!--link DdmCreateTypeChange to AbstractChange--><g id="link_DdmCreateTypeChange_AbstractChange"><path codeLine="58" d="M1503,133.4 C1503,192.68 1503,349.13 1503,349.13 C1503,349.13 5426.33,349.13 5426.33,349.13 " fill="none" id="DdmCreateTypeChange-to-AbstractChange" style="stroke:#000082;stroke-width:1.0;"/><polygon fill="none" points="5426.33,342.13,5446.33,349.13,5426.33,356.13,5426.33,342.13" style="stroke:#000082;stroke-width:1.0;"/></g><!--link DdmDistributeTableChange to AbstractChange--><g id="link_DdmDistributeTableChange_AbstractChange"><path codeLine="59" d="M1746,133.45 C1746,192.05 1746,345.13 1746,345.13 C1746,345.13 5426.1,345.13 5426.1,345.13 " fill="none" id="DdmDistributeTableChange-to-AbstractChange" style="stroke:#000082;stroke-width:1.0;"/><polygon fill="none" points="5426.1,338.13,5446.1,345.13,5426.1,352.13,5426.1,338.13" style="stroke:#000082;stroke-width:1.0;"/></g><!--link DdmDropAnalyticsViewChange to AbstractChange--><g id="link_DdmDropAnalyticsViewChange_AbstractChange"><path codeLine="60" d="M2012,133.48 C2012,191.39 2012,341.13 2012,341.13 C2012,341.13 5426.38,341.13 5426.38,341.13 " fill="none" id="DdmDropAnalyticsViewChange-to-AbstractChange" style="stroke:#000082;stroke-width:1.0;"/><polygon fill="none" points="5426.38,334.13,5446.38,341.13,5426.38,348.13,5426.38,334.13" style="stroke:#000082;stroke-width:1.0;"/></g><!--link DdmDropColumnChange to AbstractChange--><g id="link_DdmDropColumnChange_AbstractChange"><path codeLine="61" d="M2269,133.41 C2269,190.35 2269,336.13 2269,336.13 C2269,336.13 5426.28,336.13 5426.28,336.13 " fill="none" id="DdmDropColumnChange-to-AbstractChange" style="stroke:#000082;stroke-width:1.0;"/><polygon fill="none" points="5426.28,329.13,5446.28,336.13,5426.28,343.13,5426.28,329.13" style="stroke:#000082;stroke-width:1.0;"/></g><!--SRC=[lLR1Rk8m4BtxAxpTQwaGfnuG4WfLrKDFL7jPTIN76OXLnmxsq2sgzj_Nq5A2OwSaeFYGWsSoyyRpdiS_C8S2Q2cPK0HrIL7JL2FgWcR204UX5R4lGfNCi89AeG0t9L1jCDU4b8o_i2NGAobMQv4o2mEk3LpHTy8bivPEKuk6SKnoffRWRSvNyXuK68RQZ9ycTUiS6Jfu2lUcB4kqN1VgA5nYmBazg0pU0ljFB9NmkV-lWXZU49HrvTtmdT43FikAFP1V0luU1TxQWaYSuIFfL36vGS5j7LNT9nJ_moNHHQcjGBXJA70JTgeMw9jSgtpBJBYgHBgE_3Wpkcn4jdKuAbqe1BDW77RdOdWkNc6wM3Zk7EBJyPWU_2QJI2ViIYxtXAZtu_FOAbtvOe_lDDE58tJK_CZKPhJzH3tceYWbp86vUXAjCh4Lmi4x0dzFrrEm-zpsi4VDNzWF7WwDnqTwqXhy_ZbqwtPqlTF_y-0FzGLRqzPbufw6ZzG8tclsu1NGQ_RMJGrcxq2DCxBVZeR3wupP7B9T-ePBeJ5zWzex77rrr9nIV8DUksN_xlTGzi0GQTFuBjebJUEf5Uswg8SqJxuU91SS7vq5NsKTYLtmvqJlmAhwxBjaRVNfr6TjpLFxtDhQpA6u7gklhi13hT_v5dmCdljcYByYBnAttL3wFkv_]--></g></svg>