<?xml version="1.0" encoding="us-ascii" standalone="no"?><svg xmlns="http://www.w3.org/2000/svg" xmlns:xlink="http://www.w3.org/1999/xlink" contentStyleType="text/css" height="1011px" preserveAspectRatio="none" style="width:1142px;height:1011px;background:#FFFFFF;" version="1.1" viewBox="0 0 1142 1011" width="1142px" zoomAndPan="magnify"><defs/><g><rect fill="#FFFFFF" height="881.4609" style="stroke:#181818;stroke-width:1.0;" width="10" x="108" y="52.2969"/><rect fill="#FFFFFF" height="109.2031" style="stroke:#181818;stroke-width:1.0;" width="10" x="495" y="81.4297"/><rect fill="#FFFFFF" height="12" style="stroke:#181818;stroke-width:1.0;" width="10" x="495" y="236.8984"/><rect fill="#FFFFFF" height="355.2656" style="stroke:#181818;stroke-width:1.0;" width="10" x="495" y="295.1641"/><rect fill="#FFFFFF" height="12" style="stroke:#181818;stroke-width:1.0;" width="10" x="495" y="892.625"/><rect fill="#FFFFFF" height="12" style="stroke:#181818;stroke-width:1.0;" width="10" x="707.5" y="377.5625"/><rect fill="#FFFFFF" height="12" style="stroke:#181818;stroke-width:1.0;" width="10" x="707.5" y="494.0938"/><rect fill="#FFFFFF" height="12" style="stroke:#181818;stroke-width:1.0;" width="10" x="707.5" y="703.6953"/><rect fill="#FFFFFF" height="12" style="stroke:#181818;stroke-width:1.0;" width="10" x="881" y="435.8281"/><rect fill="#FFFFFF" height="12" style="stroke:#181818;stroke-width:1.0;" width="10" x="982.5" y="552.3594"/><rect fill="#FFFFFF" height="12" style="stroke:#181818;stroke-width:1.0;" width="10" x="1069" y="761.9609"/><rect fill="none" height="862.4609" style="stroke:#000000;stroke-width:1.5;" width="1125" x="10" y="96.4297"/><rect fill="none" height="365.3984" style="stroke:#000000;stroke-width:1.5;" width="1003" x="20" y="310.1641"/><line style="stroke:#181818;stroke-width:0.5;stroke-dasharray:5.0,5.0;" x1="113" x2="113" y1="36.2969" y2="975.8906"/><line style="stroke:#181818;stroke-width:0.5;stroke-dasharray:5.0,5.0;" x1="500" x2="500" y1="36.2969" y2="975.8906"/><line style="stroke:#181818;stroke-width:0.5;stroke-dasharray:5.0,5.0;" x1="712" x2="712" y1="36.2969" y2="975.8906"/><line style="stroke:#181818;stroke-width:0.5;stroke-dasharray:5.0,5.0;" x1="886" x2="886" y1="36.2969" y2="975.8906"/><line style="stroke:#181818;stroke-width:0.5;stroke-dasharray:5.0,5.0;" x1="987" x2="987" y1="36.2969" y2="975.8906"/><line style="stroke:#181818;stroke-width:0.5;stroke-dasharray:5.0,5.0;" x1="1074" x2="1074" y1="36.2969" y2="975.8906"/><rect fill="#E2E2F0" height="30.2969" rx="2.5" ry="2.5" style="stroke:#181818;stroke-width:0.5;" width="166" x="30" y="5"/><text fill="#000000" font-family="sans-serif" font-size="14" lengthAdjust="spacing" textLength="152" x="37" y="24.9951">completer(&lt;task_id&gt;)</text><rect fill="#E2E2F0" height="30.2969" rx="2.5" ry="2.5" style="stroke:#181818;stroke-width:0.5;" width="166" x="30" y="974.8906"/><text fill="#000000" font-family="sans-serif" font-size="14" lengthAdjust="spacing" textLength="152" x="37" y="994.8857">completer(&lt;task_id&gt;)</text><rect fill="#E2E2F0" height="30.2969" rx="2.5" ry="2.5" style="stroke:#181818;stroke-width:0.5;" width="210" x="395" y="5"/><text fill="#000000" font-family="sans-serif" font-size="14" lengthAdjust="spacing" textLength="196" x="402" y="24.9951">Camunda Execution Context</text><rect fill="#E2E2F0" height="30.2969" rx="2.5" ry="2.5" style="stroke:#181818;stroke-width:0.5;" width="210" x="395" y="974.8906"/><text fill="#000000" font-family="sans-serif" font-size="14" lengthAdjust="spacing" textLength="196" x="402" y="994.8857">Camunda Execution Context</text><rect fill="#E2E2F0" height="30.2969" rx="2.5" ry="2.5" style="stroke:#181818;stroke-width:0.5;" width="195" x="615" y="5"/><text fill="#000000" font-family="sans-serif" font-size="14" lengthAdjust="spacing" textLength="181" x="622" y="24.9951">Spring Application Context</text><rect fill="#E2E2F0" height="30.2969" rx="2.5" ry="2.5" style="stroke:#181818;stroke-width:0.5;" width="195" x="615" y="974.8906"/><text fill="#000000" font-family="sans-serif" font-size="14" lengthAdjust="spacing" textLength="181" x="622" y="994.8857">Spring Application Context</text><rect fill="#E2E2F0" height="30.2969" rx="2.5" ry="2.5" style="stroke:#181818;stroke-width:0.5;" width="132" x="820" y="5"/><text fill="#000000" font-family="sans-serif" font-size="14" lengthAdjust="spacing" textLength="118" x="827" y="24.9951">CephKeyProvider</text><rect fill="#E2E2F0" height="30.2969" rx="2.5" ry="2.5" style="stroke:#181818;stroke-width:0.5;" width="132" x="820" y="974.8906"/><text fill="#000000" font-family="sans-serif" font-size="14" lengthAdjust="spacing" textLength="118" x="827" y="994.8857">CephKeyProvider</text><rect fill="#E2E2F0" height="30.2969" rx="2.5" ry="2.5" style="stroke:#181818;stroke-width:0.5;" width="51" x="962" y="5"/><text fill="#000000" font-family="sans-serif" font-size="14" lengthAdjust="spacing" textLength="37" x="969" y="24.9951">Ceph</text><rect fill="#E2E2F0" height="30.2969" rx="2.5" ry="2.5" style="stroke:#181818;stroke-width:0.5;" width="51" x="962" y="974.8906"/><text fill="#000000" font-family="sans-serif" font-size="14" lengthAdjust="spacing" textLength="37" x="969" y="994.8857">Ceph</text><rect fill="#E2E2F0" height="30.2969" rx="2.5" ry="2.5" style="stroke:#181818;stroke-width:0.5;" width="102" x="1023" y="5"/><text fill="#000000" font-family="sans-serif" font-size="14" lengthAdjust="spacing" textLength="88" x="1030" y="24.9951">TokenParser</text><rect fill="#E2E2F0" height="30.2969" rx="2.5" ry="2.5" style="stroke:#181818;stroke-width:0.5;" width="102" x="1023" y="974.8906"/><text fill="#000000" font-family="sans-serif" font-size="14" lengthAdjust="spacing" textLength="88" x="1030" y="994.8857">TokenParser</text><rect fill="#FFFFFF" height="881.4609" style="stroke:#181818;stroke-width:1.0;" width="10" x="108" y="52.2969"/><rect fill="#FFFFFF" height="109.2031" style="stroke:#181818;stroke-width:1.0;" width="10" x="495" y="81.4297"/><rect fill="#FFFFFF" height="12" style="stroke:#181818;stroke-width:1.0;" width="10" x="495" y="236.8984"/><rect fill="#FFFFFF" height="355.2656" style="stroke:#181818;stroke-width:1.0;" width="10" x="495" y="295.1641"/><rect fill="#FFFFFF" height="12" style="stroke:#181818;stroke-width:1.0;" width="10" x="495" y="892.625"/><rect fill="#FFFFFF" height="12" style="stroke:#181818;stroke-width:1.0;" width="10" x="707.5" y="377.5625"/><rect fill="#FFFFFF" height="12" style="stroke:#181818;stroke-width:1.0;" width="10" x="707.5" y="494.0938"/><rect fill="#FFFFFF" height="12" style="stroke:#181818;stroke-width:1.0;" width="10" x="707.5" y="703.6953"/><rect fill="#FFFFFF" height="12" style="stroke:#181818;stroke-width:1.0;" width="10" x="881" y="435.8281"/><rect fill="#FFFFFF" height="12" style="stroke:#181818;stroke-width:1.0;" width="10" x="982.5" y="552.3594"/><rect fill="#FFFFFF" height="12" style="stroke:#181818;stroke-width:1.0;" width="10" x="1069" y="761.9609"/><polygon fill="#181818" points="96,48.2969,106,52.2969,96,56.2969,100,52.2969" style="stroke:#181818;stroke-width:1.0;"/><line style="stroke:#181818;stroke-width:1.0;" x1="0" x2="102" y1="52.2969" y2="52.2969"/><polygon fill="#181818" points="483,77.4297,493,81.4297,483,85.4297,487,81.4297" style="stroke:#181818;stroke-width:1.0;"/><line style="stroke:#181818;stroke-width:1.0;" x1="118" x2="489" y1="81.4297" y2="81.4297"/><text fill="#000000" font-family="sans-serif" font-size="13" lengthAdjust="spacing" textLength="318" x="125" y="76.3638">&#1054;&#1090;&#1088;&#1080;&#1084;&#1072;&#1090;&#1080; &#1110;&#1089;&#1085;&#1091;&#1102;&#1095;&#1080;&#1081; UserDto &#1086;&#1073;'&#1108;&#1082;&#1090; &#1082;&#1086;&#1084;&#1087;&#1083;&#1110;&#1090;&#1077;&#1088;&#1072;</text><path d="M10,96.4297 L74,96.4297 L74,103.5625 L64,113.5625 L10,113.5625 L10,96.4297 " fill="#EEEEEE" style="stroke:#000000;stroke-width:1.5;"/><rect fill="none" height="862.4609" style="stroke:#000000;stroke-width:1.5;" width="1125" x="10" y="96.4297"/><text fill="#000000" font-family="sans-serif" font-size="13" font-weight="bold" lengthAdjust="spacing" textLength="19" x="25" y="109.4966">alt</text><text fill="#000000" font-family="sans-serif" font-size="11" font-weight="bold" lengthAdjust="spacing" textLength="196" x="89" y="108.6401">[&#1054;&#1073;'&#1108;&#1082;&#1090; &#1082;&#1086;&#1084;&#1087;&#1083;&#1110;&#1090;&#1077;&#1088;&#1072; &#1079;&#1085;&#1072;&#1081;&#1076;&#1077;&#1085;&#1086;]</text><polygon fill="#181818" points="129,113.5625,119,117.5625,129,121.5625,125,117.5625" style="stroke:#181818;stroke-width:1.0;"/><line style="stroke:#181818;stroke-width:1.0;stroke-dasharray:2.0,2.0;" x1="123" x2="494" y1="117.5625" y2="117.5625"/><text fill="#000000" font-family="sans-serif" font-size="13" lengthAdjust="spacing" textLength="260" x="135" y="130.6294">&#1047;&#1085;&#1072;&#1081;&#1076;&#1077;&#1085;&#1080;&#1081; UserDto &#1086;&#1073;'&#1108;&#1082;&#1090; &#1082;&#1086;&#1084;&#1087;&#1083;&#1110;&#1090;&#1077;&#1088;&#1072;</text><polygon fill="#181818" points="11,142.6953,1,146.6953,11,150.6953,7,146.6953" style="stroke:#181818;stroke-width:1.0;"/><line style="stroke:#181818;stroke-width:1.0;stroke-dasharray:2.0,2.0;" x1="5" x2="107" y1="146.6953" y2="146.6953"/><text fill="#000000" font-family="sans-serif" font-size="13" lengthAdjust="spacing" textLength="53" x="17" y="159.7622">UserDto</text><line style="stroke:#000000;stroke-width:1.0;stroke-dasharray:2.0,2.0;" x1="10" x2="1135" y1="172.8281" y2="172.8281"/><text fill="#000000" font-family="sans-serif" font-size="11" font-weight="bold" lengthAdjust="spacing" textLength="216" x="15" y="183.0386">[&#1054;&#1073;'&#1108;&#1082;&#1090; &#1082;&#1086;&#1084;&#1087;&#1083;&#1110;&#1090;&#1077;&#1088;&#1072; &#1085;&#1077; &#1079;&#1085;&#1072;&#1081;&#1076;&#1077;&#1085;&#1086;]</text><polygon fill="#181818" points="129,186.6328,119,190.6328,129,194.6328,125,190.6328" style="stroke:#181818;stroke-width:1.0;"/><line style="stroke:#181818;stroke-width:1.0;stroke-dasharray:2.0,2.0;" x1="123" x2="499" y1="190.6328" y2="190.6328"/><text fill="#000000" font-family="sans-serif" font-size="13" lengthAdjust="spacing" textLength="22" x="135" y="203.6997">null</text><polygon fill="#181818" points="483,232.8984,493,236.8984,483,240.8984,487,236.8984" style="stroke:#181818;stroke-width:1.0;"/><line style="stroke:#181818;stroke-width:1.0;" x1="118" x2="489" y1="236.8984" y2="236.8984"/><text fill="#000000" font-family="sans-serif" font-size="13" lengthAdjust="spacing" textLength="321" x="125" y="231.8325">&#1054;&#1090;&#1088;&#1080;&#1084;&#1072;&#1090;&#1080; &#1110;&#1084;'&#1103; &#1082;&#1086;&#1084;&#1087;&#1083;&#1110;&#1090;&#1077;&#1088;&#1072; &#1079; &#1074;&#1110;&#1076;&#1087;&#1086;&#1074;&#1110;&#1076;&#1085;&#1086;&#1111; &#1079;&#1084;&#1110;&#1085;&#1085;&#1086;&#1111;</text><polygon fill="#181818" points="129,244.8984,119,248.8984,129,252.8984,125,248.8984" style="stroke:#181818;stroke-width:1.0;"/><line style="stroke:#181818;stroke-width:1.0;stroke-dasharray:2.0,2.0;" x1="123" x2="499" y1="248.8984" y2="248.8984"/><text fill="#000000" font-family="sans-serif" font-size="13" lengthAdjust="spacing" textLength="104" x="135" y="261.9653">&#1030;&#1084;'&#1103; &#1082;&#1086;&#1084;&#1087;&#1083;&#1110;&#1090;&#1077;&#1088;&#1072;</text><polygon fill="#181818" points="483,291.1641,493,295.1641,483,299.1641,487,295.1641" style="stroke:#181818;stroke-width:1.0;"/><line style="stroke:#181818;stroke-width:1.0;" x1="118" x2="489" y1="295.1641" y2="295.1641"/><text fill="#000000" font-family="sans-serif" font-size="13" lengthAdjust="spacing" textLength="339" x="125" y="290.0981">&#1054;&#1090;&#1088;&#1080;&#1084;&#1072;&#1090;&#1080; &#1090;&#1086;&#1082;&#1077;&#1085; &#1082;&#1086;&#1084;&#1087;&#1083;&#1110;&#1090;&#1077;&#1088;&#1072; &#1079; &#1074;&#1110;&#1076;&#1087;&#1086;&#1074;&#1110;&#1076;&#1085;&#1086;&#1111; &#1079;&#1084;&#1110;&#1085;&#1085;&#1086;&#1111;</text><path d="M20,310.1641 L84,310.1641 L84,317.2969 L74,327.2969 L20,327.2969 L20,310.1641 " fill="#EEEEEE" style="stroke:#000000;stroke-width:1.5;"/><rect fill="none" height="365.3984" style="stroke:#000000;stroke-width:1.5;" width="1003" x="20" y="310.1641"/><text fill="#000000" font-family="sans-serif" font-size="13" font-weight="bold" lengthAdjust="spacing" textLength="19" x="35" y="323.231">alt</text><text fill="#000000" font-family="sans-serif" font-size="11" font-weight="bold" lengthAdjust="spacing" textLength="345" x="99" y="322.3745">[&#1058;&#1086;&#1082;&#1077;&#1085; &#1082;&#1086;&#1084;&#1087;&#1083;&#1110;&#1090;&#1077;&#1088;&#1072; &#1085;&#1077; &#1085;&#1072;&#1103;&#1074;&#1085;&#1080;&#1081; &#1091; Camunda &#1082;&#1086;&#1085;&#1090;&#1077;&#1082;&#1089;&#1090;&#1110;]</text><polygon fill="#181818" points="129,327.2969,119,331.2969,129,335.2969,125,331.2969" style="stroke:#181818;stroke-width:1.0;"/><line style="stroke:#181818;stroke-width:1.0;stroke-dasharray:2.0,2.0;" x1="123" x2="494" y1="331.2969" y2="331.2969"/><text fill="#000000" font-family="sans-serif" font-size="13" lengthAdjust="spacing" textLength="22" x="135" y="344.3638">null</text><polygon fill="#181818" points="695.5,373.5625,705.5,377.5625,695.5,381.5625,699.5,377.5625" style="stroke:#181818;stroke-width:1.0;"/><line style="stroke:#181818;stroke-width:1.0;" x1="118" x2="701.5" y1="377.5625" y2="377.5625"/><text fill="#000000" font-family="sans-serif" font-size="13" lengthAdjust="spacing" textLength="240" x="125" y="372.4966">&#1054;&#1090;&#1088;&#1080;&#1084;&#1072;&#1090;&#1080; &#1073;&#1110;&#1085; &#1090;&#1080;&#1087;&#1091; CephKeyProvider</text><polygon fill="#181818" points="129,385.5625,119,389.5625,129,393.5625,125,389.5625" style="stroke:#181818;stroke-width:1.0;"/><line style="stroke:#181818;stroke-width:1.0;stroke-dasharray:2.0,2.0;" x1="123" x2="711.5" y1="389.5625" y2="389.5625"/><text fill="#000000" font-family="sans-serif" font-size="13" lengthAdjust="spacing" textLength="168" x="135" y="402.6294">&#1041;&#1110;&#1085; &#1090;&#1080;&#1087;&#1091; CephKeyProvider</text><polygon fill="#181818" points="869,431.8281,879,435.8281,869,439.8281,873,435.8281" style="stroke:#181818;stroke-width:1.0;"/><line style="stroke:#181818;stroke-width:1.0;" x1="118" x2="875" y1="435.8281" y2="435.8281"/><text fill="#000000" font-family="sans-serif" font-size="13" lengthAdjust="spacing" textLength="159" x="125" y="430.7622">&#1047;&#1075;&#1077;&#1085;&#1077;&#1088;&#1091;&#1074;&#1072;&#1090;&#1080; &#1094;&#1077;&#1092; &#1082;&#1083;&#1102;&#1095;</text><polygon fill="#181818" points="129,443.8281,119,447.8281,129,451.8281,125,447.8281" style="stroke:#181818;stroke-width:1.0;"/><line style="stroke:#181818;stroke-width:1.0;stroke-dasharray:2.0,2.0;" x1="123" x2="885" y1="447.8281" y2="447.8281"/><text fill="#000000" font-family="sans-serif" font-size="13" lengthAdjust="spacing" textLength="167" x="135" y="460.895">&#1047;&#1075;&#1077;&#1085;&#1077;&#1088;&#1086;&#1074;&#1072;&#1085;&#1080;&#1081; &#1094;&#1077;&#1092; &#1082;&#1083;&#1102;&#1095;</text><polygon fill="#181818" points="695.5,490.0938,705.5,494.0938,695.5,498.0938,699.5,494.0938" style="stroke:#181818;stroke-width:1.0;"/><line style="stroke:#181818;stroke-width:1.0;" x1="118" x2="701.5" y1="494.0938" y2="494.0938"/><text fill="#000000" font-family="sans-serif" font-size="13" lengthAdjust="spacing" textLength="276" x="125" y="489.0278">&#1054;&#1090;&#1088;&#1080;&#1084;&#1072;&#1090;&#1080; &#1073;&#1110;&#1085; &#1090;&#1080;&#1087;&#1091; FormDataCephService</text><polygon fill="#181818" points="129,502.0938,119,506.0938,129,510.0938,125,506.0938" style="stroke:#181818;stroke-width:1.0;"/><line style="stroke:#181818;stroke-width:1.0;stroke-dasharray:2.0,2.0;" x1="123" x2="711.5" y1="506.0938" y2="506.0938"/><text fill="#000000" font-family="sans-serif" font-size="13" lengthAdjust="spacing" textLength="204" x="135" y="519.1606">&#1041;&#1110;&#1085; &#1090;&#1080;&#1087;&#1091; FormDataCephService</text><polygon fill="#181818" points="970.5,548.3594,980.5,552.3594,970.5,556.3594,974.5,552.3594" style="stroke:#181818;stroke-width:1.0;"/><line style="stroke:#181818;stroke-width:1.0;" x1="118" x2="976.5" y1="552.3594" y2="552.3594"/><text fill="#000000" font-family="sans-serif" font-size="13" lengthAdjust="spacing" textLength="619" x="125" y="547.2935">&#1054;&#1090;&#1088;&#1080;&#1084;&#1072;&#1090;&#1080; &#1094;&#1077;&#1092; &#1076;&#1086;&#1082;&#1091;&#1084;&#1077;&#1085;&#1090;, &#1103;&#1082;&#1080;&#1081; &#1084;&#1110;&#1089;&#1090;&#1080;&#1090;&#1100; &#1090;&#1086;&#1082;&#1077;&#1085; &#1082;&#1086;&#1084;&#1087;&#1083;&#1110;&#1090;&#1077;&#1088;&#1072; &#1079; &#1094;&#1077;&#1092;&#1091; &#1079;&#1072; &#1079;&#1075;&#1077;&#1085;&#1077;&#1088;&#1086;&#1074;&#1072;&#1085;&#1080;&#1084; &#1082;&#1083;&#1102;&#1095;&#1077;&#1084;</text><polygon fill="#181818" points="129,560.3594,119,564.3594,129,568.3594,125,564.3594" style="stroke:#181818;stroke-width:1.0;"/><line style="stroke:#181818;stroke-width:1.0;stroke-dasharray:2.0,2.0;" x1="123" x2="986.5" y1="564.3594" y2="564.3594"/><text fill="#000000" font-family="sans-serif" font-size="13" lengthAdjust="spacing" textLength="323" x="135" y="577.4263">&#1062;&#1077;&#1092; &#1076;&#1086;&#1082;&#1091;&#1084;&#1077;&#1085;&#1090;, &#1103;&#1082;&#1080;&#1081; &#1084;&#1110;&#1089;&#1090;&#1080;&#1090;&#1100; &#1090;&#1086;&#1082;&#1077;&#1085; &#1082;&#1086;&#1084;&#1087;&#1083;&#1110;&#1090;&#1077;&#1088;&#1072;</text><line style="stroke:#181818;stroke-width:1.0;" x1="118" x2="160" y1="610.625" y2="610.625"/><line style="stroke:#181818;stroke-width:1.0;" x1="160" x2="160" y1="610.625" y2="623.625"/><line style="stroke:#181818;stroke-width:1.0;" x1="119" x2="160" y1="623.625" y2="623.625"/><polygon fill="#181818" points="129,619.625,119,623.625,129,627.625,125,623.625" style="stroke:#181818;stroke-width:1.0;"/><text fill="#000000" font-family="sans-serif" font-size="13" lengthAdjust="spacing" textLength="236" x="125" y="605.5591">&#1054;&#1090;&#1088;&#1080;&#1084;&#1072;&#1090;&#1080; &#1090;&#1086;&#1082;&#1077;&#1085; &#1079; &#1094;&#1077;&#1092; &#1076;&#1086;&#1082;&#1091;&#1084;&#1077;&#1085;&#1090;&#1072;</text><line style="stroke:#000000;stroke-width:1.0;stroke-dasharray:2.0,2.0;" x1="20" x2="1023" y1="632.625" y2="632.625"/><text fill="#000000" font-family="sans-serif" font-size="11" font-weight="bold" lengthAdjust="spacing" textLength="325" x="25" y="642.8354">[&#1058;&#1086;&#1082;&#1077;&#1085; &#1082;&#1086;&#1084;&#1087;&#1083;&#1110;&#1090;&#1077;&#1088;&#1072; &#1085;&#1072;&#1103;&#1074;&#1085;&#1080;&#1081; &#1091; Camunda &#1082;&#1086;&#1085;&#1090;&#1077;&#1082;&#1089;&#1090;&#1110;]</text><polygon fill="#181818" points="129,646.4297,119,650.4297,129,654.4297,125,650.4297" style="stroke:#181818;stroke-width:1.0;"/><line style="stroke:#181818;stroke-width:1.0;stroke-dasharray:2.0,2.0;" x1="123" x2="499" y1="650.4297" y2="650.4297"/><text fill="#000000" font-family="sans-serif" font-size="13" lengthAdjust="spacing" textLength="120" x="135" y="663.4966">&#1058;&#1086;&#1082;&#1077;&#1085; &#1082;&#1086;&#1084;&#1087;&#1083;&#1110;&#1090;&#1077;&#1088;&#1072;</text><polygon fill="#181818" points="695.5,699.6953,705.5,703.6953,695.5,707.6953,699.5,703.6953" style="stroke:#181818;stroke-width:1.0;"/><line style="stroke:#181818;stroke-width:1.0;" x1="118" x2="701.5" y1="703.6953" y2="703.6953"/><text fill="#000000" font-family="sans-serif" font-size="13" lengthAdjust="spacing" textLength="211" x="125" y="698.6294">&#1054;&#1090;&#1088;&#1080;&#1084;&#1072;&#1090;&#1080; &#1073;&#1110;&#1085; &#1090;&#1080;&#1087;&#1091; TokenParser</text><polygon fill="#181818" points="129,711.6953,119,715.6953,129,719.6953,125,715.6953" style="stroke:#181818;stroke-width:1.0;"/><line style="stroke:#181818;stroke-width:1.0;stroke-dasharray:2.0,2.0;" x1="123" x2="711.5" y1="715.6953" y2="715.6953"/><text fill="#000000" font-family="sans-serif" font-size="13" lengthAdjust="spacing" textLength="139" x="135" y="728.7622">&#1041;&#1110;&#1085; &#1090;&#1080;&#1087;&#1091; TokenParser</text><polygon fill="#181818" points="1057,757.9609,1067,761.9609,1057,765.9609,1061,761.9609" style="stroke:#181818;stroke-width:1.0;"/><line style="stroke:#181818;stroke-width:1.0;" x1="118" x2="1063" y1="761.9609" y2="761.9609"/><text fill="#000000" font-family="sans-serif" font-size="13" lengthAdjust="spacing" textLength="350" x="125" y="756.895">&#1056;&#1086;&#1079;&#1087;&#1072;&#1088;&#1089;&#1080;&#1090;&#1080; &#1090;&#1086;&#1082;&#1077;&#1085; &#1082;&#1086;&#1084;&#1087;&#1083;&#1110;&#1090;&#1077;&#1088;&#1072; &#1091; &#1086;&#1073;'&#1108;&#1082;&#1090; JwtClaimsDto</text><polygon fill="#181818" points="129,769.9609,119,773.9609,129,777.9609,125,773.9609" style="stroke:#181818;stroke-width:1.0;"/><line style="stroke:#181818;stroke-width:1.0;stroke-dasharray:2.0,2.0;" x1="123" x2="1073" y1="773.9609" y2="773.9609"/><text fill="#000000" font-family="sans-serif" font-size="13" lengthAdjust="spacing" textLength="183" x="135" y="787.0278">&#1047;&#1075;&#1077;&#1085;&#1077;&#1088;&#1086;&#1074;&#1072;&#1085;&#1080;&#1081; JwtClaimsDto</text><line style="stroke:#181818;stroke-width:1.0;" x1="118" x2="160" y1="835.3594" y2="835.3594"/><line style="stroke:#181818;stroke-width:1.0;" x1="160" x2="160" y1="835.3594" y2="848.3594"/><line style="stroke:#181818;stroke-width:1.0;" x1="119" x2="160" y1="848.3594" y2="848.3594"/><polygon fill="#181818" points="129,844.3594,119,848.3594,129,852.3594,125,848.3594" style="stroke:#181818;stroke-width:1.0;"/><text fill="#000000" font-family="sans-serif" font-size="13" lengthAdjust="spacing" textLength="249" x="125" y="815.1606">&#1047;&#1073;&#1091;&#1076;&#1091;&#1074;&#1072;&#1090;&#1080; UserDto &#1074;&#1080;&#1082;&#1086;&#1088;&#1080;&#1089;&#1090;&#1086;&#1074;&#1091;&#1102;&#1095;&#1080;</text><text fill="#000000" font-family="sans-serif" font-size="13" lengthAdjust="spacing" textLength="359" x="129" y="830.2935">&#1110;&#1084;'&#1103; &#1090;&#1072; &#1090;&#1086;&#1082;&#1077;&#1085; &#1082;&#1086;&#1084;&#1087;&#1083;&#1110;&#1090;&#1077;&#1088;&#1072;, &#1079;&#1075;&#1077;&#1085;&#1077;&#1088;&#1086;&#1074;&#1072;&#1085;&#1080;&#1081; JwtClaimsDto</text><polygon fill="#181818" points="483,888.625,493,892.625,483,896.625,487,892.625" style="stroke:#181818;stroke-width:1.0;"/><line style="stroke:#181818;stroke-width:1.0;" x1="118" x2="489" y1="892.625" y2="892.625"/><text fill="#000000" font-family="sans-serif" font-size="13" lengthAdjust="spacing" textLength="289" x="125" y="872.4263">&#1047;&#1073;&#1077;&#1088;&#1077;&#1075;&#1090;&#1080; &#1079;&#1073;&#1091;&#1076;&#1086;&#1074;&#1072;&#1085;&#1080;&#1081; UserDto &#1091; &#1082;&#1086;&#1085;&#1090;&#1077;&#1082;&#1089;&#1090;&#1110;</text><text fill="#000000" font-family="sans-serif" font-size="13" lengthAdjust="spacing" textLength="166" x="125" y="887.5591">&#1091; &#1103;&#1082;&#1086;&#1089;&#1090;&#1110; transient &#1079;&#1084;&#1110;&#1085;&#1085;&#1086;&#1111;</text><polygon fill="#181818" points="129,900.625,119,904.625,129,908.625,125,904.625" style="stroke:#181818;stroke-width:1.0;"/><line style="stroke:#181818;stroke-width:1.0;stroke-dasharray:2.0,2.0;" x1="123" x2="499" y1="904.625" y2="904.625"/><text fill="#000000" font-family="sans-serif" font-size="13" lengthAdjust="spacing" textLength="77" x="135" y="917.6919">&#1047;&#1073;&#1077;&#1088;&#1077;&#1078;&#1077;&#1085;&#1086;</text><polygon fill="#181818" points="11,929.7578,1,933.7578,11,937.7578,7,933.7578" style="stroke:#181818;stroke-width:1.0;"/><line style="stroke:#181818;stroke-width:1.0;stroke-dasharray:2.0,2.0;" x1="5" x2="112" y1="933.7578" y2="933.7578"/><text fill="#000000" font-family="sans-serif" font-size="13" lengthAdjust="spacing" textLength="53" x="17" y="946.8247">UserDto</text><!--SRC=[jLPBQzj04BxxLoovf8K6qkSXX42Qj8UMGY3jhH0MUqc5PKb8wpnkZLtIIsaebEHMIWyzEubTEuxj_8NPVzJPH-orjR8LwbwCDPhvPkQRXoOfUq54OreXCKkYC4ZO6vOaT9SzPtwulnx7uJxXSPKL2eIW7lUANaG3JXQAOINo6MVnlLLEa_AELrgxlq1eGeOlI1YNyFVXygJf1grKWn8bBmvOiSgzC20ROS3P0TVsvgssVfIotevYBzWbwr7aUqMQCa_qQstzEEsRHHzUiyEjEDppK4DxHDbEcHtkH4Pgh9yuhOScHkjfIkjjM6R15eqJWn-flqRzsRAaScbjn1C-qYBtzYXdbX2b8oQbkg5bXS0FKHCVeGCzQ8WQT8Wu5KVG5tNnLNn6yHLvX-usUKXW0EUBuZjqHOr05vzwS0FNg5w35Y8qnZnhVEcN-XoTJ3Sbq8O-DE0Acj32VmEqioDUNLgoGpuRKxvZZ4IZ3R5NRerbiCnFM8ve-z2wMyX1rVULGecvECfV6-WjYfCi3WbSe4OJvGFp3-CIPpBK7ZxszQEAmnN55CQFi_tE8wqQmdObZVyZCoMKJVXhXXTLLQofE84BqrUYJcxtYxBfIsriZ2FCu5GXvwZv115cfpXuW7EPYwIZ0pVIzVXwCM1MYXggu0navEPRFbIhXbcuieofzQO6yb8D0H8fwaYUAUin2Zv9ugxbCac7dy9oPpBBfUm9d4HJiGodTeVETdkdChqCuyecvLGIkytYFQ_8vbIgREJynN8Ed26fAIS2AzQJL8hQ0uAjtrKqoh6INGuTDFsIPq8r9WQDCwaMkgi-lM5Xy6MluEY7x1QGYVoURzm5Ps-ugRG-65CNM3kBNNIdWFKtPlOocjSUck7AmO6rE5bGIcto_9DXtIw5USn36Y_V79YR2G5_8W5j9A21c-f8DacEpu_iQUkkUBNFDtpgLH9vCqnafHsvine5aRMx7CXMVYFixCOymmhKeMajuU5bT84kC3jPBpKWyaDgZZpoFXYU5h9FPp7o86ky9rAOSW9WeCgs1PUwSzewyZ6mszXb0L9TZq6ZN0t-m4XuJ8F4OtWr__l5CmhmZtNVkU-Sx9DoqiQwqd6o_W80]--></g></svg>