<?xml version="1.0" encoding="us-ascii" standalone="no"?><svg xmlns="http://www.w3.org/2000/svg" xmlns:xlink="http://www.w3.org/1999/xlink" contentStyleType="text/css" height="202px" preserveAspectRatio="none" style="width:509px;height:202px;background:#FFFFFF;" version="1.1" viewBox="0 0 509 202" width="509px" zoomAndPan="magnify"><defs/><g><!--class AbstractBpmnParseListener--><g id="elem_AbstractBpmnParseListener"><rect codeLine="1" fill="#F1F1F1" height="64.2969" id="AbstractBpmnParseListener" rx="2.5" ry="2.5" style="stroke:#181818;stroke-width:0.5;" width="224" x="9.5" y="7"/><ellipse cx="24.5" cy="23" fill="#ADD1B2" rx="11" ry="11" style="stroke:#181818;stroke-width:1.0;"/><path d="M27.4688,28.6406 Q26.8906,28.9375 26.25,29.0781 Q25.6094,29.2344 24.9063,29.2344 Q22.4063,29.2344 21.0781,27.5938 Q19.7656,25.9375 19.7656,22.8125 Q19.7656,19.6875 21.0781,18.0313 Q22.4063,16.375 24.9063,16.375 Q25.6094,16.375 26.25,16.5313 Q26.9063,16.6875 27.4688,16.9844 L27.4688,19.7031 Q26.8438,19.125 26.25,18.8594 Q25.6563,18.5781 25.0313,18.5781 Q23.6875,18.5781 23,19.6563 Q22.3125,20.7188 22.3125,22.8125 Q22.3125,24.9063 23,25.9844 Q23.6875,27.0469 25.0313,27.0469 Q25.6563,27.0469 26.25,26.7813 Q26.8438,26.5 27.4688,25.9219 L27.4688,28.6406 Z " fill="#000000"/><text fill="#000000" font-family="sans-serif" font-size="14" lengthAdjust="spacing" textLength="192" x="38.5" y="27.8467">AbstractBpmnParseListener</text><line style="stroke:#181818;stroke-width:0.5;" x1="10.5" x2="232.5" y1="39" y2="39"/><line style="stroke:#181818;stroke-width:0.5;" x1="10.5" x2="232.5" y1="47" y2="47"/><text fill="#000000" font-family="sans-serif" font-size="14" lengthAdjust="spacing" textLength="114" x="15.5" y="63.9951">parseUserTask()</text></g><!--class BpmSecuritySupportListener--><g id="elem_BpmSecuritySupportListener"><rect codeLine="5" fill="#ADD8E6" height="64.2969" id="BpmSecuritySupportListener" rx="2.5" ry="2.5" style="stroke:#008000;stroke-width:0.5;" width="229" x="7" y="131.29"/><ellipse cx="22" cy="147.29" fill="#ADD1B2" rx="11" ry="11" style="stroke:#181818;stroke-width:1.0;"/><path d="M24.9688,152.9306 Q24.3906,153.2275 23.75,153.3681 Q23.1094,153.5244 22.4063,153.5244 Q19.9063,153.5244 18.5781,151.8838 Q17.2656,150.2275 17.2656,147.1025 Q17.2656,143.9775 18.5781,142.3213 Q19.9063,140.665 22.4063,140.665 Q23.1094,140.665 23.75,140.8213 Q24.4063,140.9775 24.9688,141.2744 L24.9688,143.9931 Q24.3438,143.415 23.75,143.1494 Q23.1563,142.8681 22.5313,142.8681 Q21.1875,142.8681 20.5,143.9463 Q19.8125,145.0088 19.8125,147.1025 Q19.8125,149.1963 20.5,150.2744 Q21.1875,151.3369 22.5313,151.3369 Q23.1563,151.3369 23.75,151.0713 Q24.3438,150.79 24.9688,150.2119 L24.9688,152.9306 Z " fill="#000000"/><text fill="#000000" font-family="sans-serif" font-size="14" lengthAdjust="spacing" textLength="197" x="36" y="152.1367">BpmSecuritySupportListener</text><line style="stroke:#008000;stroke-width:0.5;" x1="8" x2="235" y1="163.29" y2="163.29"/><line style="stroke:#008000;stroke-width:0.5;" x1="8" x2="235" y1="171.29" y2="171.29"/><text fill="#000000" font-family="sans-serif" font-size="14" lengthAdjust="spacing" textLength="114" x="13" y="188.2851">parseUserTask()</text></g><!--class TaskListener--><g id="elem_TaskListener"><rect codeLine="9" fill="#F1F1F1" height="64.2969" id="TaskListener" rx="2.5" ry="2.5" style="stroke:#181818;stroke-width:0.5;" width="155" x="309" y="7"/><ellipse cx="339.75" cy="23" fill="#B4A7E5" rx="11" ry="11" style="stroke:#181818;stroke-width:1.0;"/><path d="M335.6719,18.7656 L335.6719,16.6094 L343.0625,16.6094 L343.0625,18.7656 L340.5938,18.7656 L340.5938,26.8438 L343.0625,26.8438 L343.0625,29 L335.6719,29 L335.6719,26.8438 L338.1406,26.8438 L338.1406,18.7656 L335.6719,18.7656 Z " fill="#000000"/><text fill="#000000" font-family="sans-serif" font-size="14" font-style="italic" lengthAdjust="spacing" textLength="88" x="357.25" y="27.8467">TaskListener</text><line style="stroke:#181818;stroke-width:0.5;" x1="310" x2="463" y1="39" y2="39"/><line style="stroke:#181818;stroke-width:0.5;" x1="310" x2="463" y1="47" y2="47"/><text fill="#000000" font-family="sans-serif" font-size="14" lengthAdjust="spacing" textLength="143" x="315" y="63.9951">notify(DelegateTask)</text></g><!--class CompleterTaskEventListener--><g id="elem_CompleterTaskEventListener"><rect codeLine="13" fill="#ADD8E6" height="64.2969" id="CompleterTaskEventListener" rx="2.5" ry="2.5" style="stroke:#008000;stroke-width:0.5;" width="231" x="271" y="131.29"/><ellipse cx="286" cy="147.29" fill="#ADD1B2" rx="11" ry="11" style="stroke:#181818;stroke-width:1.0;"/><path d="M288.9688,152.9306 Q288.3906,153.2275 287.75,153.3681 Q287.1094,153.5244 286.4063,153.5244 Q283.9063,153.5244 282.5781,151.8838 Q281.2656,150.2275 281.2656,147.1025 Q281.2656,143.9775 282.5781,142.3213 Q283.9063,140.665 286.4063,140.665 Q287.1094,140.665 287.75,140.8213 Q288.4063,140.9775 288.9688,141.2744 L288.9688,143.9931 Q288.3438,143.415 287.75,143.1494 Q287.1563,142.8681 286.5313,142.8681 Q285.1875,142.8681 284.5,143.9463 Q283.8125,145.0088 283.8125,147.1025 Q283.8125,149.1963 284.5,150.2744 Q285.1875,151.3369 286.5313,151.3369 Q287.1563,151.3369 287.75,151.0713 Q288.3438,150.79 288.9688,150.2119 L288.9688,152.9306 Z " fill="#000000"/><text fill="#000000" font-family="sans-serif" font-size="14" lengthAdjust="spacing" textLength="199" x="300" y="152.1367">CompleterTaskEventListener</text><line style="stroke:#008000;stroke-width:0.5;" x1="272" x2="501" y1="163.29" y2="163.29"/><line style="stroke:#008000;stroke-width:0.5;" x1="272" x2="501" y1="171.29" y2="171.29"/><text fill="#000000" font-family="sans-serif" font-size="14" lengthAdjust="spacing" textLength="175" x="277" y="188.2851">void notify(DelegateTask)</text></g><!--reverse link AbstractBpmnParseListener to BpmSecuritySupportListener--><g id="link_AbstractBpmnParseListener_BpmSecuritySupportListener"><path d="M121.5,92.22 C121.5,105.43 121.5,119.23 121.5,131.05 " fill="none" id="AbstractBpmnParseListener-backto-BpmSecuritySupportListener" style="stroke:#181818;stroke-width:1.0;"/><polygon fill="none" points="114.5,92.64,121.5,72.64,128.5,92.64,114.5,92.64" style="stroke:#181818;stroke-width:1.0;"/></g><!--reverse link TaskListener to CompleterTaskEventListener--><g id="link_TaskListener_CompleterTaskEventListener"><path d="M386.5,92.22 C386.5,105.43 386.5,119.23 386.5,131.05 " fill="none" id="TaskListener-backto-CompleterTaskEventListener" style="stroke:#181818;stroke-width:1.0;stroke-dasharray:7.0,7.0;"/><polygon fill="none" points="379.5,92.64,386.5,72.64,393.5,92.64,379.5,92.64" style="stroke:#181818;stroke-width:1.0;"/></g><!--reverse link BpmSecuritySupportListener to CompleterTaskEventListener--><g id="link_BpmSecuritySupportListener_CompleterTaskEventListener"><path codeLine="17" d="M250.34,163.44 C257.13,163.44 263.91,163.44 270.7,163.44 " fill="none" id="BpmSecuritySupportListener-backto-CompleterTaskEventListener" style="stroke:#181818;stroke-width:1.0;"/><polygon fill="none" points="237.4,163.44,243.4,167.44,249.4,163.44,243.4,159.44,237.4,163.44" style="stroke:#181818;stroke-width:1.0;"/></g><!--SRC=[dP3D2i8m48JlUOg0bthm1TgJVpSFGlK1qdHQGzCa9DjY4T_THa4KiQ2tPMQ_dM6b5Y7mPH782qahrvgzy04x5GW6dbyOvougnm1_4A59vkpAcBnZuteEsNb5GzuvPpqzkLaXP9DgLP-eq1qohGpIsWCc8vmfBVJeyt62AV_8LuRWAo71e_QsRIofQaWsqAW58VelbTUsTHhqkBNjONwjh2BVZbpuZEwjAh_cJppBBYPwtG00]--></g></svg>