<?xml version="1.0" encoding="us-ascii" standalone="no"?><svg xmlns="http://www.w3.org/2000/svg" xmlns:xlink="http://www.w3.org/1999/xlink" contentStyleType="text/css" height="439px" preserveAspectRatio="none" style="width:839px;height:439px;background:#FFFFFF;" version="1.1" viewBox="0 0 839 439" width="839px" zoomAndPan="magnify"><defs/><g><!--cluster el--><g id="cluster_el"><path d="M8.5,6 L23.5,6 A3.75,3.75 0 0 1 26,8.5 L33,28.2969 L692.5,28.2969 A2.5,2.5 0 0 1 695,30.7969 L695,429.88 A2.5,2.5 0 0 1 692.5,432.38 L8.5,432.38 A2.5,2.5 0 0 1 6,429.88 L6,8.5 A2.5,2.5 0 0 1 8.5,6 " fill="none" style="stroke:#000000;stroke-width:1.5;"/><line style="stroke:#000000;stroke-width:1.5;" x1="6" x2="33" y1="28.2969" y2="28.2969"/><text fill="#000000" font-family="sans-serif" font-size="14" font-weight="bold" lengthAdjust="spacing" textLength="14" x="10" y="20.9951">el</text></g><!--cluster juel--><g id="cluster_juel"><path d="M32.5,49 L61.5,49 A3.75,3.75 0 0 1 64,51.5 L71,71.2969 L403.5,71.2969 A2.5,2.5 0 0 1 406,73.7969 L406,348.84 A2.5,2.5 0 0 1 403.5,351.34 L32.5,351.34 A2.5,2.5 0 0 1 30,348.84 L30,51.5 A2.5,2.5 0 0 1 32.5,49 " fill="none" style="stroke:#000000;stroke-width:1.5;"/><line style="stroke:#000000;stroke-width:1.5;" x1="30" x2="71" y1="71.2969" y2="71.2969"/><text fill="#000000" font-family="sans-serif" font-size="14" font-weight="bold" lengthAdjust="spacing" textLength="28" x="34" y="63.9951">juel</text></g><!--cluster dto--><g id="cluster_dto"><path d="M445.5,179 L472.5,179 A3.75,3.75 0 0 1 475,181.5 L482,201.2969 L668.5,201.2969 A2.5,2.5 0 0 1 671,203.7969 L671,405.88 A2.5,2.5 0 0 1 668.5,408.38 L445.5,408.38 A2.5,2.5 0 0 1 443,405.88 L443,181.5 A2.5,2.5 0 0 1 445.5,179 " fill="none" style="stroke:#000000;stroke-width:1.5;"/><line style="stroke:#000000;stroke-width:1.5;" x1="443" x2="482" y1="201.2969" y2="201.2969"/><text fill="#000000" font-family="sans-serif" font-size="14" font-weight="bold" lengthAdjust="spacing" textLength="26" x="447" y="193.9951">dto</text></g><!--class AbstractApplicationContextAwareJuelFunction--><g id="elem_AbstractApplicationContextAwareJuelFunction"><rect codeLine="3" fill="#F1F1F1" height="48" id="AbstractApplicationContextAwareJuelFunction" rx="2.5" ry="2.5" style="stroke:#181818;stroke-width:0.5;" width="344" x="46" y="84"/><ellipse cx="61" cy="100" fill="#A9DCDF" rx="11" ry="11" style="stroke:#181818;stroke-width:1.0;"/><path d="M61.1094,95.3438 L59.9531,100.4219 L62.2813,100.4219 L61.1094,95.3438 Z M59.625,93.1094 L62.6094,93.1094 L65.9688,105.5 L63.5156,105.5 L62.75,102.4375 L59.4688,102.4375 L58.7188,105.5 L56.2813,105.5 L59.625,93.1094 Z " fill="#000000"/><text fill="#000000" font-family="sans-serif" font-size="14" font-style="italic" lengthAdjust="spacing" textLength="312" x="75" y="104.8467">AbstractApplicationContextAwareJuelFunction</text><line style="stroke:#181818;stroke-width:0.5;" x1="47" x2="389" y1="116" y2="116"/><line style="stroke:#181818;stroke-width:0.5;" x1="47" x2="389" y1="124" y2="124"/></g><!--class CompleterJuelFunction--><g id="elem_CompleterJuelFunction"><rect codeLine="4" fill="#ADD8E6" height="64.2969" id="CompleterJuelFunction" rx="2.5" ry="2.5" style="stroke:#008000;stroke-width:0.5;" width="330" x="46" y="271.04"/><ellipse cx="128.75" cy="287.04" fill="#ADD1B2" rx="11" ry="11" style="stroke:#181818;stroke-width:1.0;"/><path d="M131.7188,292.6806 Q131.1406,292.9775 130.5,293.1181 Q129.8594,293.2744 129.1563,293.2744 Q126.6563,293.2744 125.3281,291.6337 Q124.0156,289.9775 124.0156,286.8525 Q124.0156,283.7275 125.3281,282.0712 Q126.6563,280.415 129.1563,280.415 Q129.8594,280.415 130.5,280.5712 Q131.1563,280.7275 131.7188,281.0244 L131.7188,283.7431 Q131.0938,283.165 130.5,282.8994 Q129.9063,282.6181 129.2813,282.6181 Q127.9375,282.6181 127.25,283.6962 Q126.5625,284.7587 126.5625,286.8525 Q126.5625,288.9462 127.25,290.0244 Q127.9375,291.0869 129.2813,291.0869 Q129.9063,291.0869 130.5,290.8212 Q131.0938,290.54 131.7188,289.9619 L131.7188,292.6806 Z " fill="#000000"/><text fill="#000000" font-family="sans-serif" font-size="14" lengthAdjust="spacing" textLength="156" x="149.25" y="291.8867">CompleterJuelFunction</text><line style="stroke:#008000;stroke-width:0.5;" x1="47" x2="375" y1="303.04" y2="303.04"/><line style="stroke:#008000;stroke-width:0.5;" x1="47" x2="375" y1="311.04" y2="311.04"/><ellipse cx="57" cy="324.6884" fill="#84BE84" rx="3" ry="3" style="stroke:#038048;stroke-width:1.0;"/><text fill="#000000" font-family="sans-serif" font-size="14" lengthAdjust="spacing" text-decoration="underline" textLength="304" x="66" y="328.0351">UserDto completer(String taskDefinitionKey)</text></g><!--class UserDto--><g id="elem_UserDto"><rect codeLine="9" fill="#ADD8E6" height="178.375" id="UserDto" rx="2.5" ry="2.5" style="stroke:#008000;stroke-width:0.5;" width="197" x="458.5" y="214"/><ellipse cx="524.25" cy="230" fill="#ADD1B2" rx="11" ry="11" style="stroke:#181818;stroke-width:1.0;"/><path d="M527.2188,235.6406 Q526.6406,235.9375 526,236.0781 Q525.3594,236.2344 524.6563,236.2344 Q522.1563,236.2344 520.8281,234.5938 Q519.5156,232.9375 519.5156,229.8125 Q519.5156,226.6875 520.8281,225.0313 Q522.1563,223.375 524.6563,223.375 Q525.3594,223.375 526,223.5313 Q526.6563,223.6875 527.2188,223.9844 L527.2188,226.7031 Q526.5938,226.125 526,225.8594 Q525.4063,225.5781 524.7813,225.5781 Q523.4375,225.5781 522.75,226.6563 Q522.0625,227.7188 522.0625,229.8125 Q522.0625,231.9063 522.75,232.9844 Q523.4375,234.0469 524.7813,234.0469 Q525.4063,234.0469 526,233.7813 Q526.5938,233.5 527.2188,232.9219 L527.2188,235.6406 Z " fill="#000000"/><text fill="#000000" font-family="sans-serif" font-size="14" lengthAdjust="spacing" textLength="57" x="544.75" y="234.8467">UserDto</text><line style="stroke:#008000;stroke-width:0.5;" x1="459.5" x2="654.5" y1="246" y2="246"/><rect fill="none" height="6" style="stroke:#C82930;stroke-width:1.0;" width="6" x="466.5" y="256.6484"/><text fill="#000000" font-family="sans-serif" font-size="14" lengthAdjust="spacing" textLength="115" x="478.5" y="262.9951">String userName</text><rect fill="none" height="6" style="stroke:#C82930;stroke-width:1.0;" width="6" x="466.5" y="272.9453"/><text fill="#000000" font-family="sans-serif" font-size="14" lengthAdjust="spacing" textLength="137" x="478.5" y="279.292">String accessToken</text><rect fill="none" height="6" style="stroke:#C82930;stroke-width:1.0;" width="6" x="466.5" y="289.2422"/><text fill="#000000" font-family="sans-serif" font-size="14" lengthAdjust="spacing" textLength="136" x="478.5" y="295.5889">JwtClaimsDto claims</text><line style="stroke:#008000;stroke-width:1.0;" x1="459.5" x2="654.5" y1="302.8906" y2="302.8906"/><ellipse cx="469.5" cy="316.5391" fill="#84BE84" rx="3" ry="3" style="stroke:#038048;stroke-width:1.0;"/><text fill="#000000" font-family="sans-serif" font-size="14" lengthAdjust="spacing" textLength="149" x="478.5" y="319.8857">String getUserName()</text><ellipse cx="469.5" cy="332.8359" fill="#84BE84" rx="3" ry="3" style="stroke:#038048;stroke-width:1.0;"/><text fill="#000000" font-family="sans-serif" font-size="14" lengthAdjust="spacing" textLength="171" x="478.5" y="336.1826">String getAccessToken()</text><ellipse cx="469.5" cy="349.1328" fill="#84BE84" rx="3" ry="3" style="stroke:#038048;stroke-width:1.0;"/><text fill="#000000" font-family="sans-serif" font-size="14" lengthAdjust="spacing" textLength="140" x="478.5" y="352.4795">String getFullName()</text><ellipse cx="469.5" cy="365.4297" fill="#84BE84" rx="3" ry="3" style="stroke:#038048;stroke-width:1.0;"/><text fill="#000000" font-family="sans-serif" font-size="14" lengthAdjust="spacing" textLength="106" x="478.5" y="368.7764">String getDrfo()</text><ellipse cx="469.5" cy="381.7266" fill="#84BE84" rx="3" ry="3" style="stroke:#038048;stroke-width:1.0;"/><text fill="#000000" font-family="sans-serif" font-size="14" lengthAdjust="spacing" textLength="127" x="478.5" y="385.0732">String getEdrpou()</text></g><!--class JwtClaimsDto--><g id="elem_JwtClaimsDto"><rect fill="#F1F1F1" height="48" id="JwtClaimsDto" rx="2.5" ry="2.5" style="stroke:#181818;stroke-width:0.5;" width="121" x="711.5" y="279.19"/><ellipse cx="726.5" cy="295.19" fill="#ADD1B2" rx="11" ry="11" style="stroke:#181818;stroke-width:1.0;"/><path d="M729.4688,300.8306 Q728.8906,301.1275 728.25,301.2681 Q727.6094,301.4244 726.9063,301.4244 Q724.4063,301.4244 723.0781,299.7838 Q721.7656,298.1275 721.7656,295.0025 Q721.7656,291.8775 723.0781,290.2213 Q724.4063,288.565 726.9063,288.565 Q727.6094,288.565 728.25,288.7213 Q728.9063,288.8775 729.4688,289.1744 L729.4688,291.8931 Q728.8438,291.315 728.25,291.0494 Q727.6563,290.7681 727.0313,290.7681 Q725.6875,290.7681 725,291.8463 Q724.3125,292.9088 724.3125,295.0025 Q724.3125,297.0963 725,298.1744 Q725.6875,299.2369 727.0313,299.2369 Q727.6563,299.2369 728.25,298.9713 Q728.8438,298.69 729.4688,298.1119 L729.4688,300.8306 Z " fill="#000000"/><text fill="#000000" font-family="sans-serif" font-size="14" lengthAdjust="spacing" textLength="89" x="740.5" y="300.0367">JwtClaimsDto</text><line style="stroke:#181818;stroke-width:0.5;" x1="712.5" x2="831.5" y1="311.19" y2="311.19"/><line style="stroke:#181818;stroke-width:0.5;" x1="712.5" x2="831.5" y1="319.19" y2="319.19"/></g><!--reverse link AbstractApplicationContextAwareJuelFunction to CompleterJuelFunction--><g id="link_AbstractApplicationContextAwareJuelFunction_CompleterJuelFunction"><path d="M216.4,153.08 C215.1,189 213.3,238.85 212.14,270.81 " fill="none" id="AbstractApplicationContextAwareJuelFunction-backto-CompleterJuelFunction" style="stroke:#181818;stroke-width:1.0;"/><polygon fill="none" points="209.44,153.04,217.16,133.31,223.43,153.55,209.44,153.04" style="stroke:#181818;stroke-width:1.0;"/></g><!--link AbstractApplicationContextAwareJuelFunction to UserDto--><!--link CompleterJuelFunction to UserDto--><g id="link_CompleterJuelFunction_UserDto"><path codeLine="22" d="M376.4,303.19 C402.3,303.19 428.42,303.19 452.45,303.19 " fill="none" id="CompleterJuelFunction-to-UserDto" style="stroke:#181818;stroke-width:1.0;stroke-dasharray:7.0,7.0;"/><polygon fill="#181818" points="457.18,303.19,448.18,299.19,452.18,303.19,448.18,307.19,457.18,303.19" style="stroke:#181818;stroke-width:1.0;"/><text fill="#000000" font-family="sans-serif" font-size="13" lengthAdjust="spacing" textLength="46" x="394.25" y="296.2569">returns</text></g><!--link UserDto to JwtClaimsDto--><g id="link_UserDto_JwtClaimsDto"><path codeLine="24" d="M655.68,303.19 C669.54,303.19 683.4,303.19 697.26,303.19 " fill="none" id="UserDto-to-JwtClaimsDto" style="stroke:#181818;stroke-width:1.0;stroke-dasharray:7.0,7.0;"/><polygon fill="none" points="710.11,303.19,704.11,299.19,698.11,303.19,704.11,307.19,710.11,303.19" style="stroke:#181818;stroke-width:1.0;"/></g><!--SRC=[bP9DQiCm48NtFiL0DmabFe031UCqYnIwQRCgNSZon56jI4OQaPRWkrTs93SfBZGBWJHFtviVgMMyOJK2IZWb06quVhWG062b9SCu0PVCMiZ3CMzRAJWZeLMX5U4dvKTcSEF1jLEyZm_ucIhqePL8Q2vrk2jzkaoAUa-bTBYKGc5M6qIrx0spKdeT_0vLTLFcK3h0FPmi-QkyWwr5io8DF9OoUo4ZL0t4RBF2dL2YHv_mQpx0NN9USIILPqyNBKM__pKH2rf0oEey_imE-3lEE4ThNtM3QfGsHoea4mSxr3_iehOO6mryZRGDrhFvX9Z_-4_gQoVbd_3AxFIay5YPLhlPzUHkUR0qVTkBgaBr_X0dwnsclqqwNe4C398poYPT4cEflXhODm00]--></g></svg>