<?xml version="1.0" encoding="us-ascii" standalone="no"?><svg xmlns="http://www.w3.org/2000/svg" xmlns:xlink="http://www.w3.org/1999/xlink" contentStyleType="text/css" height="543px" preserveAspectRatio="none" style="width:1240px;height:543px;background:#FFFFFF;" version="1.1" viewBox="0 0 1240 543" width="1240px" zoomAndPan="magnify"><defs/><g><line style="stroke:#181818;stroke-width:0.5;stroke-dasharray:5.0,5.0;" x1="129" x2="129" y1="81.2969" y2="462.8906"/><line style="stroke:#181818;stroke-width:0.5;stroke-dasharray:5.0,5.0;" x1="362" x2="362" y1="81.2969" y2="462.8906"/><line style="stroke:#181818;stroke-width:0.5;stroke-dasharray:5.0,5.0;" x1="601.5" x2="601.5" y1="81.2969" y2="462.8906"/><line style="stroke:#181818;stroke-width:0.5;stroke-dasharray:5.0,5.0;" x1="795.5" x2="795.5" y1="81.2969" y2="462.8906"/><line style="stroke:#181818;stroke-width:0.5;stroke-dasharray:5.0,5.0;" x1="1006" x2="1006" y1="81.2969" y2="462.8906"/><line style="stroke:#181818;stroke-width:0.5;stroke-dasharray:5.0,5.0;" x1="1169" x2="1169" y1="81.2969" y2="462.8906"/><text fill="#000000" font-family="sans-serif" font-size="14" lengthAdjust="spacing" textLength="243" x="5" y="77.9951">&#1058;&#1077;&#1093;&#1085;&#1110;&#1095;&#1085;&#1080;&#1081; &#1072;&#1076;&#1084;&#1110;&#1085;&#1110;&#1089;&#1090;&#1088;&#1072;&#1090;&#1086;&#1088; &#1088;&#1077;&#1108;&#1089;&#1090;&#1088;&#1091;</text><ellipse cx="129.5" cy="13.5" fill="#E2E2F0" rx="8" ry="8" style="stroke:#181818;stroke-width:0.5;"/><path d="M129.5,21.5 L129.5,48.5 M116.5,29.5 L142.5,29.5 M129.5,48.5 L116.5,63.5 M129.5,48.5 L142.5,63.5 " fill="none" style="stroke:#181818;stroke-width:0.5;"/><text fill="#000000" font-family="sans-serif" font-size="14" lengthAdjust="spacing" textLength="243" x="5" y="474.8857">&#1058;&#1077;&#1093;&#1085;&#1110;&#1095;&#1085;&#1080;&#1081; &#1072;&#1076;&#1084;&#1110;&#1085;&#1110;&#1089;&#1090;&#1088;&#1072;&#1090;&#1086;&#1088; &#1088;&#1077;&#1108;&#1089;&#1090;&#1088;&#1091;</text><ellipse cx="129.5" cy="486.6875" fill="#E2E2F0" rx="8" ry="8" style="stroke:#181818;stroke-width:0.5;"/><path d="M129.5,494.6875 L129.5,521.6875 M116.5,502.6875 L142.5,502.6875 M129.5,521.6875 L116.5,536.6875 M129.5,521.6875 L142.5,536.6875 " fill="none" style="stroke:#181818;stroke-width:0.5;"/><rect fill="#E2E2F0" height="30.2969" rx="2.5" ry="2.5" style="stroke:#181818;stroke-width:0.5;" width="196" x="264" y="50"/><text fill="#000000" font-family="sans-serif" font-size="14" lengthAdjust="spacing" textLength="182" x="271" y="69.9951">&#1030;&#1085;&#1090;&#1077;&#1088;&#1092;&#1077;&#1081;&#1089; &#1072;&#1076;&#1084;&#1110;&#1085;-&#1082;&#1086;&#1085;&#1089;&#1086;&#1083;&#1110;</text><rect fill="#E2E2F0" height="30.2969" rx="2.5" ry="2.5" style="stroke:#181818;stroke-width:0.5;" width="196" x="264" y="461.8906"/><text fill="#000000" font-family="sans-serif" font-size="14" lengthAdjust="spacing" textLength="182" x="271" y="481.8857">&#1030;&#1085;&#1090;&#1077;&#1088;&#1092;&#1077;&#1081;&#1089; &#1072;&#1076;&#1084;&#1110;&#1085;-&#1082;&#1086;&#1085;&#1089;&#1086;&#1083;&#1110;</text><rect fill="#E2E2F0" height="46.5938" rx="2.5" ry="2.5" style="stroke:#181818;stroke-width:0.5;" width="205" x="499.5" y="33.7031"/><text fill="#000000" font-family="sans-serif" font-size="14" lengthAdjust="spacing" textLength="191" x="506.5" y="53.6982">&#1057;&#1080;&#1089;&#1090;&#1077;&#1084;&#1072; &#1082;&#1086;&#1085;&#1090;&#1088;&#1086;&#1083;&#1102; &#1074;&#1077;&#1088;&#1089;&#1110;&#1081;</text><text fill="#000000" font-family="sans-serif" font-size="14" lengthAdjust="spacing" textLength="38" x="583" y="69.9951">Gerrit</text><rect fill="#E2E2F0" height="46.5938" rx="2.5" ry="2.5" style="stroke:#181818;stroke-width:0.5;" width="205" x="499.5" y="461.8906"/><text fill="#000000" font-family="sans-serif" font-size="14" lengthAdjust="spacing" textLength="191" x="506.5" y="481.8857">&#1057;&#1080;&#1089;&#1090;&#1077;&#1084;&#1072; &#1082;&#1086;&#1085;&#1090;&#1088;&#1086;&#1083;&#1102; &#1074;&#1077;&#1088;&#1089;&#1110;&#1081;</text><text fill="#000000" font-family="sans-serif" font-size="14" lengthAdjust="spacing" textLength="38" x="583" y="498.1826">Gerrit</text><rect fill="#E2E2F0" height="46.5938" rx="2.5" ry="2.5" style="stroke:#181818;stroke-width:0.5;" width="162" x="714.5" y="33.7031"/><text fill="#000000" font-family="sans-serif" font-size="14" lengthAdjust="spacing" textLength="145" x="723" y="53.6982">&#1057;&#1077;&#1088;&#1074;&#1110;&#1089; &#1088;&#1086;&#1079;&#1075;&#1086;&#1088;&#1090;&#1072;&#1085;&#1085;&#1103;</text><text fill="#000000" font-family="sans-serif" font-size="14" lengthAdjust="spacing" textLength="148" x="721.5" y="69.9951">&#1082;&#1086;&#1085;&#1092;&#1110;&#1075;&#1091;&#1088;&#1072;&#1094;&#1110;&#1081; Jenkins</text><rect fill="#E2E2F0" height="46.5938" rx="2.5" ry="2.5" style="stroke:#181818;stroke-width:0.5;" width="162" x="714.5" y="461.8906"/><text fill="#000000" font-family="sans-serif" font-size="14" lengthAdjust="spacing" textLength="145" x="723" y="481.8857">&#1057;&#1077;&#1088;&#1074;&#1110;&#1089; &#1088;&#1086;&#1079;&#1075;&#1086;&#1088;&#1090;&#1072;&#1085;&#1085;&#1103;</text><text fill="#000000" font-family="sans-serif" font-size="14" lengthAdjust="spacing" textLength="148" x="721.5" y="498.1826">&#1082;&#1086;&#1085;&#1092;&#1110;&#1075;&#1091;&#1088;&#1072;&#1094;&#1110;&#1081; Jenkins</text><rect fill="#E2E2F0" height="30.2969" rx="2.5" ry="2.5" style="stroke:#181818;stroke-width:0.5;" width="177" x="918" y="50"/><text fill="#000000" font-family="sans-serif" font-size="14" lengthAdjust="spacing" textLength="163" x="925" y="69.9951">bp-webservice-gateway</text><rect fill="#E2E2F0" height="30.2969" rx="2.5" ry="2.5" style="stroke:#181818;stroke-width:0.5;" width="177" x="918" y="461.8906"/><text fill="#000000" font-family="sans-serif" font-size="14" lengthAdjust="spacing" textLength="163" x="925" y="481.8857">bp-webservice-gateway</text><rect fill="#E2E2F0" height="30.2969" rx="2.5" ry="2.5" style="stroke:#181818;stroke-width:0.5;" width="129" x="1105" y="50"/><text fill="#000000" font-family="sans-serif" font-size="14" lengthAdjust="spacing" textLength="115" x="1112" y="69.9951">registry-soap-api</text><rect fill="#E2E2F0" height="30.2969" rx="2.5" ry="2.5" style="stroke:#181818;stroke-width:0.5;" width="129" x="1105" y="461.8906"/><text fill="#000000" font-family="sans-serif" font-size="14" lengthAdjust="spacing" textLength="115" x="1112" y="481.8857">registry-soap-api</text><polygon fill="#181818" points="350,123.5625,360,127.5625,350,131.5625,354,127.5625" style="stroke:#181818;stroke-width:1.0;"/><line style="stroke:#181818;stroke-width:1.0;" x1="129.5" x2="356" y1="127.5625" y2="127.5625"/><ellipse cx="142" cy="102.9297" fill="#000000" rx="2.5" ry="2.5" style="stroke:#000000;stroke-width:0.0;"/><text fill="#000000" font-family="sans-serif" font-size="13" lengthAdjust="spacing" textLength="182" x="148.5" y="107.3638">&#1074;&#1074;&#1110;&#1084;&#1082;&#1085;&#1077;&#1085;&#1085;&#1103; &#1076;&#1086;&#1089;&#1090;&#1091;&#1087;&#1091; &#1076;&#1086; API</text><ellipse cx="142" cy="118.0625" fill="#000000" rx="2.5" ry="2.5" style="stroke:#000000;stroke-width:0.0;"/><text fill="#000000" font-family="sans-serif" font-size="13" lengthAdjust="spacing" textLength="112" x="148.5" y="122.4966">&#1087;&#1077;&#1088;&#1077;&#1083;&#1110;&#1082; IP-&#1072;&#1076;&#1088;&#1077;&#1089;</text><line style="stroke:#181818;stroke-width:1.0;" x1="362" x2="404" y1="156.6953" y2="156.6953"/><line style="stroke:#181818;stroke-width:1.0;" x1="404" x2="404" y1="156.6953" y2="169.6953"/><line style="stroke:#181818;stroke-width:1.0;" x1="363" x2="404" y1="169.6953" y2="169.6953"/><polygon fill="#181818" points="373,165.6953,363,169.6953,373,173.6953,369,169.6953" style="stroke:#181818;stroke-width:1.0;"/><text fill="#000000" font-family="sans-serif" font-size="13" lengthAdjust="spacing" textLength="126" x="369" y="151.6294">&#1074;&#1072;&#1083;&#1110;&#1076;&#1072;&#1094;&#1110;&#1103; IP-&#1072;&#1076;&#1088;&#1077;&#1089;</text><polygon fill="#181818" points="140.5,194.8281,130.5,198.8281,140.5,202.8281,136.5,198.8281" style="stroke:#181818;stroke-width:1.0;"/><line style="stroke:#181818;stroke-width:1.0;stroke-dasharray:2.0,2.0;" x1="134.5" x2="361" y1="198.8281" y2="198.8281"/><text fill="#000000" font-family="sans-serif" font-size="13" lengthAdjust="spacing" textLength="179" x="146.5" y="193.7622">&#1074;&#1072;&#1083;&#1110;&#1076;&#1072;&#1094;&#1110;&#1081;&#1085;&#1077; &#1087;&#1086;&#1074;&#1110;&#1076;&#1086;&#1084;&#1083;&#1077;&#1085;&#1085;&#1103;</text><polygon fill="#181818" points="590,223.9609,600,227.9609,590,231.9609,594,227.9609" style="stroke:#181818;stroke-width:1.0;"/><line style="stroke:#181818;stroke-width:1.0;" x1="362" x2="596" y1="227.9609" y2="227.9609"/><text fill="#000000" font-family="sans-serif" font-size="13" lengthAdjust="spacing" textLength="152" x="369" y="222.895">&#1086;&#1085;&#1086;&#1074;&#1083;&#1077;&#1085;&#1085;&#1103; values.yaml</text><polygon fill="#181818" points="373,253.0938,363,257.0938,373,261.0938,369,257.0938" style="stroke:#181818;stroke-width:1.0;"/><line style="stroke:#181818;stroke-width:1.0;stroke-dasharray:2.0,2.0;" x1="367" x2="601" y1="257.0938" y2="257.0938"/><text fill="#000000" font-family="sans-serif" font-size="13" lengthAdjust="spacing" textLength="216" x="379" y="252.0278">&#1079;&#1072;&#1087;&#1080;&#1090; &#1089;&#1090;&#1074;&#1086;&#1088;&#1077;&#1085;&#1086; &#1090;&#1072; &#1110;&#1085;&#1090;&#1077;&#1075;&#1088;&#1086;&#1074;&#1072;&#1085;&#1086;</text><polygon fill="#181818" points="783.5,282.2266,793.5,286.2266,783.5,290.2266,787.5,286.2266" style="stroke:#181818;stroke-width:1.0;"/><line style="stroke:#181818;stroke-width:1.0;" x1="602" x2="789.5" y1="286.2266" y2="286.2266"/><ellipse cx="614.5" cy="276.7266" fill="#000000" rx="2.5" ry="2.5" style="stroke:#000000;stroke-width:0.0;"/><text fill="#000000" font-family="sans-serif" font-size="13" lengthAdjust="spacing" textLength="112" x="621" y="281.1606">&#1087;&#1077;&#1088;&#1077;&#1083;&#1110;&#1082; IP-&#1072;&#1076;&#1088;&#1077;&#1089;</text><line style="stroke:#181818;stroke-width:1.0;" x1="795.5" x2="837.5" y1="315.3594" y2="315.3594"/><line style="stroke:#181818;stroke-width:1.0;" x1="837.5" x2="837.5" y1="315.3594" y2="328.3594"/><line style="stroke:#181818;stroke-width:1.0;" x1="796.5" x2="837.5" y1="328.3594" y2="328.3594"/><polygon fill="#181818" points="806.5,324.3594,796.5,328.3594,806.5,332.3594,802.5,328.3594" style="stroke:#181818;stroke-width:1.0;"/><text fill="#000000" font-family="sans-serif" font-size="13" lengthAdjust="spacing" textLength="126" x="802.5" y="310.2935">&#1074;&#1072;&#1083;&#1110;&#1076;&#1072;&#1094;&#1110;&#1103; IP-&#1072;&#1076;&#1088;&#1077;&#1089;</text><polygon fill="#181818" points="140.5,353.4922,130.5,357.4922,140.5,361.4922,136.5,357.4922" style="stroke:#181818;stroke-width:1.0;"/><line style="stroke:#181818;stroke-width:1.0;stroke-dasharray:2.0,2.0;" x1="134.5" x2="794.5" y1="357.4922" y2="357.4922"/><text fill="#000000" font-family="sans-serif" font-size="13" lengthAdjust="spacing" textLength="179" x="146.5" y="352.4263">&#1074;&#1072;&#1083;&#1110;&#1076;&#1072;&#1094;&#1110;&#1081;&#1085;&#1077; &#1087;&#1086;&#1074;&#1110;&#1076;&#1086;&#1084;&#1083;&#1077;&#1085;&#1085;&#1103;</text><polygon fill="#181818" points="994.5,382.625,1004.5,386.625,994.5,390.625,998.5,386.625" style="stroke:#181818;stroke-width:1.0;"/><line style="stroke:#181818;stroke-width:1.0;" x1="795.5" x2="1000.5" y1="386.625" y2="386.625"/><ellipse cx="808" cy="377.125" fill="#000000" rx="2.5" ry="2.5" style="stroke:#000000;stroke-width:0.0;"/><text fill="#000000" font-family="sans-serif" font-size="13" lengthAdjust="spacing" textLength="175" x="814.5" y="381.5591">&#1088;&#1086;&#1079;&#1075;&#1086;&#1088;&#1090;&#1072;&#1085;&#1085;&#1103; &#1082;&#1086;&#1085;&#1092;&#1110;&#1075;&#1091;&#1088;&#1072;&#1094;&#1110;&#1111;</text><polygon fill="#181818" points="1157.5,411.7578,1167.5,415.7578,1157.5,419.7578,1161.5,415.7578" style="stroke:#181818;stroke-width:1.0;"/><line style="stroke:#181818;stroke-width:1.0;" x1="795.5" x2="1163.5" y1="415.7578" y2="415.7578"/><ellipse cx="808" cy="406.2578" fill="#000000" rx="2.5" ry="2.5" style="stroke:#000000;stroke-width:0.0;"/><text fill="#000000" font-family="sans-serif" font-size="13" lengthAdjust="spacing" textLength="175" x="814.5" y="410.6919">&#1088;&#1086;&#1079;&#1075;&#1086;&#1088;&#1090;&#1072;&#1085;&#1085;&#1103; &#1082;&#1086;&#1085;&#1092;&#1110;&#1075;&#1091;&#1088;&#1072;&#1094;&#1110;&#1111;</text><polygon fill="#181818" points="140.5,440.8906,130.5,444.8906,140.5,448.8906,136.5,444.8906" style="stroke:#181818;stroke-width:1.0;"/><line style="stroke:#181818;stroke-width:1.0;stroke-dasharray:2.0,2.0;" x1="134.5" x2="794.5" y1="444.8906" y2="444.8906"/><text fill="#000000" font-family="sans-serif" font-size="13" lengthAdjust="spacing" textLength="226" x="146.5" y="439.8247">&#1089;&#1090;&#1072;&#1090;&#1091;&#1089; &#1088;&#1086;&#1079;&#1075;&#1086;&#1088;&#1090;&#1072;&#1085;&#1085;&#1103; &#1082;&#1086;&#1085;&#1092;&#1110;&#1075;&#1091;&#1088;&#1072;&#1094;&#1110;&#1111;</text><!--SRC=[fPC_JiDG3CRtdC9YH0e7O41YGZ1nW2wFy5G5IeXUGb6tfkNF1WigCvmWQXlH5XgkODy8smtGqW8IBD7Bo-UVxS-E2T9J1sluY0LTufHwT8rJ7E4OCCSXlb1FBpFgK1jpwc19RU1ZGNUpI-gkWKd079w4aHSRbuP169iePUOLXtPOsQOBB71CsHpJnmcM_3tZvpFrb174Nm0FE98a7Fo2ELGHKeZ4t03s5PunRroBTgnpOQgWPf0iaLY9VUa4DFu91z8AmtFkTqgtjQZYNp1kG5rjzqhGi6UZup1A57qqEo_Y3sB_t1uarZN3mFfrazfpqr9vTLwKEriFazIr_EJKnBw9GvNAYwSsWh_5Ncp2kdJ8DNFt4owoc1KAR66ftdVnbRhw2jlxkxLe7L-rpK8SnGdixljYk4uhyuBudSlKN2N3MOlCN9QoLejPbkDOYW5ELcfrd9yhV7wlhqh4C-1GDbHKdr-XQHfdDjbecPE6vsnwvYBWOUHC6r47TDnzcOm6b2030br2MOE1pgwlCoizJY6Pgf6mNp_sNyaM8dvruYFextRCvQssWIjTlOEmUWNfVXuYU_8VmcSdQdOkY_JjN_4jxmq0]--></g></svg>