<?xml version="1.0" encoding="us-ascii" standalone="no"?><svg xmlns="http://www.w3.org/2000/svg" xmlns:xlink="http://www.w3.org/1999/xlink" contentStyleType="text/css" height="1397.9167px" preserveAspectRatio="none" style="width:582px;height:1397px;" version="1.1" viewBox="0 0 582 1397" width="582.2917px" zoomAndPan="magnify"><defs><linearGradient id="g1rja9t7frmlud0" x1="50%" x2="50%" y1="0%" y2="100%"><stop offset="0%" stop-color="#F5F5F5"/><stop offset="100%" stop-color="#C2C2C2"/></linearGradient><linearGradient id="g1rja9t7frmlud1" x1="50%" x2="50%" y1="0%" y2="100%"><stop offset="0%" stop-color="#33B2E2"/><stop offset="100%" stop-color="#009FDB"/></linearGradient></defs><g><ellipse cx="283.3333" cy="20.8333" fill="#0568AE" rx="10.4167" ry="10.4167" style="stroke:#007FAF;stroke-width:1.0416666666666667;"/><rect fill="#FF0000" height="43.7174" rx="10.4167" ry="10.4167" style="stroke:#009FDB;stroke-width:1.0416666666666667;" width="71.875" x="247.3958" y="132.2103"/><text fill="#FFFFFF" font-family="Verdana" font-size="12.5" lengthAdjust="spacing" textLength="42.7083" x="261.9792" y="158.3964">ERROR</text><polygon fill="url(#g1rja9t7frmlud0)" points="214.5833,52.0833,352.0833,52.0833,364.5833,74.9674,352.0833,97.8516,214.5833,97.8516,202.0833,74.9674,214.5833,52.0833" style="stroke:#C2C2C2;stroke-width:1.0416666666666667;"/><text fill="#5A5A5A" font-family="Verdana" font-size="12.5" lengthAdjust="spacing" textLength="21.875" x="295.8333" y="117.7877">yes</text><text fill="#5A5A5A" font-family="Verdana" font-size="12.5" font-weight="bold" lengthAdjust="spacing" textLength="119.7917" x="222.9167" y="72.0194">Validate version</text><text fill="#5A5A5A" font-family="Verdana" font-size="12.5" lengthAdjust="spacing" textLength="112.5" x="231.25" y="86.5702">OldVer&gt;=NewVer</text><rect fill="url(#g1rja9t7frmlud1)" height="43.7174" rx="10.4167" ry="10.4167" style="stroke:#009FDB;stroke-width:1.0416666666666667;" width="167.7083" x="199.4792" y="219.6777"/><text fill="#FFFFFF" font-family="Verdana" font-size="12.5" font-weight="bold" lengthAdjust="spacing" textLength="138.5417" x="214.0625" y="245.8639">Update DB schema</text><rect fill="url(#g1rja9t7frmlud1)" height="43.7174" rx="10.4167" ry="10.4167" style="stroke:#009FDB;stroke-width:1.0416666666666667;" width="400" x="83.3333" y="284.2285"/><text fill="#FFFFFF" font-family="Verdana" font-size="12.5" font-weight="bold" lengthAdjust="spacing" textLength="370.8333" x="97.9167" y="310.4146">Update Version to {NewVer} in registry metadata</text><line style="stroke:#009FDB;stroke-width:1.5625;" x1="132.2917" x2="412.5" y1="348.7793" y2="348.7793"/><rect fill="url(#g1rja9t7frmlud1)" height="116.4714" rx="10.4167" ry="10.4167" style="stroke:#009FDB;stroke-width:1.0416666666666667;" width="241.6667" x="11.4583" y="425.8626"/><text fill="#FFFFFF" font-family="Verdana" font-size="12.5" font-weight="bold" lengthAdjust="spacing" textLength="85.4167" x="26.0417" y="452.0487">Create new</text><text fill="#FFFFFF" font-family="Verdana" font-size="12.5" font-weight="bold" lengthAdjust="spacing" textLength="191.6667" x="26.0417" y="466.5995">projects/codebases/repos</text><text fill="#FFFFFF" font-family="Verdana" font-size="12.5" lengthAdjust="spacing" textLength="4.1667" x="26.0417" y="481.1503">&#160;</text><text fill="#FFFFFF" font-family="Verdana" font-size="12.5" font-style="italic" lengthAdjust="spacing" textLength="203.125" x="26.0417" y="495.7011">{RegName}-rest-api-{NewVer}</text><text fill="#FFFFFF" font-family="Verdana" font-size="12.5" font-style="italic" lengthAdjust="spacing" textLength="212.5" x="26.0417" y="510.2519">{RegName}-kafka-api-{NewVer}</text><text fill="#FFFFFF" font-family="Verdana" font-size="12.5" font-style="italic" lengthAdjust="spacing" textLength="192.7083" x="26.0417" y="524.8027">{RegName}-model-{NewVer}</text><rect fill="url(#g1rja9t7frmlud1)" height="87.3698" rx="10.4167" ry="10.4167" style="stroke:#009FDB;stroke-width:1.0416666666666667;" width="238.5417" x="293.2292" y="435.1888"/><text fill="#FFFFFF" font-family="Verdana" font-size="12.5" font-weight="bold" lengthAdjust="spacing" textLength="85.4167" x="307.8125" y="461.3749">Create new</text><text fill="#FFFFFF" font-family="Verdana" font-size="12.5" font-weight="bold" lengthAdjust="spacing" textLength="166.6667" x="307.8125" y="475.9257">project/codebase/repo</text><text fill="#FFFFFF" font-family="Verdana" font-size="12.5" lengthAdjust="spacing" textLength="4.1667" x="307.8125" y="490.4765">&#160;</text><text fill="#FFFFFF" font-family="Verdana" font-size="12.5" font-style="italic" lengthAdjust="spacing" textLength="209.375" x="307.8125" y="505.0273">{RegName}-soap-api-{NewVer}</text><polygon fill="url(#g1rja9t7frmlud0)" points="294.7917,369.6126,530.2083,369.6126,542.7083,385.2214,530.2083,400.8301,294.7917,400.8301,282.2917,385.2214,294.7917,369.6126" style="stroke:#C2C2C2;stroke-width:1.0416666666666667;"/><text fill="#5A5A5A" font-family="Verdana" font-size="12.5" lengthAdjust="spacing" textLength="21.875" x="425" y="420.7662">yes</text><text fill="#5A5A5A" font-family="Verdana" font-size="12.5" lengthAdjust="spacing" textLength="218.75" x="303.125" y="389.5487">Exposed Search Conditions exist?</text><polygon fill="url(#g1rja9t7frmlud0)" points="412.5,563.1673,425,575.6673,412.5,588.1673,400,575.6673,412.5,563.1673" style="stroke:#C2C2C2;stroke-width:1.0416666666666667;"/><line style="stroke:#009FDB;stroke-width:1.5625;" x1="132.2917" x2="412.5" y1="609.0007" y2="609.0007"/><rect fill="url(#g1rja9t7frmlud1)" height="72.819" rx="10.4167" ry="10.4167" style="stroke:#009FDB;stroke-width:1.0416666666666667;" width="347.9167" x="109.375" y="629.834"/><text fill="#FFFFFF" font-family="Verdana" font-size="12.5" font-weight="bold" lengthAdjust="spacing" textLength="318.75" x="123.9583" y="656.0201">Create new build pipelines for each project</text><text fill="#FFFFFF" font-family="Verdana" font-size="12.5" lengthAdjust="spacing" textLength="4.1667" x="123.9583" y="670.5709">&#160;</text><text fill="#FFFFFF" font-family="Verdana" font-size="12.5" font-style="italic" lengthAdjust="spacing" textLength="103.125" x="123.9583" y="685.1217">{project-name}</text><rect fill="url(#g1rja9t7frmlud1)" height="43.7174" rx="10.4167" ry="10.4167" style="stroke:#009FDB;stroke-width:1.0416666666666667;" width="250" x="158.3333" y="723.4863"/><text fill="#FFFFFF" font-family="Verdana" font-size="12.5" font-weight="bold" lengthAdjust="spacing" textLength="220.8333" x="172.9167" y="749.6724">Generate code for all projects</text><rect fill="url(#g1rja9t7frmlud1)" height="43.7174" rx="10.4167" ry="10.4167" style="stroke:#009FDB;stroke-width:1.0416666666666667;" width="205.2083" x="180.7292" y="788.0371"/><text fill="#FFFFFF" font-family="Verdana" font-size="12.5" font-weight="bold" lengthAdjust="spacing" textLength="176.0417" x="195.3125" y="814.2232">Commit generated code</text><rect fill="url(#g1rja9t7frmlud1)" height="43.7174" rx="10.4167" ry="10.4167" style="stroke:#009FDB;stroke-width:1.0416666666666667;" width="281.25" x="142.7083" y="852.5879"/><text fill="#FFFFFF" font-family="Verdana" font-size="12.5" font-weight="bold" lengthAdjust="spacing" textLength="252.0833" x="157.2917" y="878.774">Run Build pipelines for all projects</text><rect fill="url(#g1rja9t7frmlud1)" height="72.819" rx="10.4167" ry="10.4167" style="stroke:#009FDB;stroke-width:1.0416666666666667;" width="428.125" x="69.2708" y="917.1387"/><text fill="#FFFFFF" font-family="Verdana" font-size="12.5" font-weight="bold" lengthAdjust="spacing" textLength="208.3333" x="83.8542" y="943.3248">Add docker images to Nexus</text><text fill="#FFFFFF" font-family="Verdana" font-size="12.5" lengthAdjust="spacing" textLength="4.1667" x="83.8542" y="957.8756">&#160;</text><text fill="#FFFFFF" font-family="Verdana" font-size="12.5" font-style="italic" lengthAdjust="spacing" textLength="398.9583" x="83.8542" y="972.4264">{project-name}-{repoChecksum}-{agentVersion}:{NewVer}</text><rect fill="url(#g1rja9t7frmlud1)" height="43.7174" rx="10.4167" ry="10.4167" style="stroke:#009FDB;stroke-width:1.0416666666666667;" width="144.7917" x="210.9375" y="1010.791"/><text fill="#FFFFFF" font-family="Verdana" font-size="12.5" font-weight="bold" lengthAdjust="spacing" textLength="115.625" x="225.5208" y="1036.9771">Deploy services</text><ellipse cx="283.3333" cy="1085.7585" fill="none" rx="10.4167" ry="10.4167" style="stroke:#0568AE;stroke-width:1.5625;"/><line style="stroke:#0568AE;stroke-width:2.604166666666667;" x1="276.8883" x2="289.7783" y1="1079.3135" y2="1092.2034"/><line style="stroke:#0568AE;stroke-width:2.604166666666667;" x1="289.7783" x2="276.8883" y1="1079.3135" y2="1092.2034"/><line style="stroke:#009FDB;stroke-width:3.125;" x1="283.3333" x2="283.3333" y1="97.8516" y2="132.2103"/><polygon fill="#009FDB" points="279.1667,121.7936,283.3333,132.2103,287.5,121.7936,283.3333,125.9603" style="stroke:#009FDB;stroke-width:1.0416666666666667;"/><line style="stroke:#009FDB;stroke-width:3.125;" x1="364.5833" x2="377.0833" y1="74.9674" y2="74.9674"/><polygon fill="#009FDB" points="372.9167,135.3353,377.0833,145.752,381.25,135.3353,377.0833,139.502" style="stroke:#009FDB;stroke-width:3.125;"/><line style="stroke:#009FDB;stroke-width:3.125;" x1="377.0833" x2="377.0833" y1="74.9674" y2="198.8444"/><line style="stroke:#009FDB;stroke-width:3.125;" x1="377.0833" x2="283.3333" y1="198.8444" y2="198.8444"/><line style="stroke:#009FDB;stroke-width:3.125;" x1="283.3333" x2="283.3333" y1="198.8444" y2="219.6777"/><polygon fill="#009FDB" points="279.1667,209.2611,283.3333,219.6777,287.5,209.2611,283.3333,213.4277" style="stroke:#009FDB;stroke-width:1.0416666666666667;"/><line style="stroke:#009FDB;stroke-width:3.125;" x1="283.3333" x2="283.3333" y1="31.25" y2="52.0833"/><polygon fill="#009FDB" points="279.1667,41.6667,283.3333,52.0833,287.5,41.6667,283.3333,45.8333" style="stroke:#009FDB;stroke-width:1.0416666666666667;"/><line style="stroke:#009FDB;stroke-width:3.125;" x1="283.3333" x2="283.3333" y1="263.3952" y2="284.2285"/><polygon fill="#009FDB" points="279.1667,273.8118,283.3333,284.2285,287.5,273.8118,283.3333,277.9785" style="stroke:#009FDB;stroke-width:1.0416666666666667;"/><line style="stroke:#009FDB;stroke-width:3.125;" x1="412.5" x2="412.5" y1="400.8301" y2="435.1888"/><polygon fill="#009FDB" points="408.3333,424.7721,412.5,435.1888,416.6667,424.7721,412.5,428.9388" style="stroke:#009FDB;stroke-width:1.0416666666666667;"/><line style="stroke:#009FDB;stroke-width:3.125;" x1="542.7083" x2="555.2083" y1="385.2214" y2="385.2214"/><polygon fill="#009FDB" points="551.0417,475.236,555.2083,485.6527,559.375,475.236,555.2083,479.4027" style="stroke:#009FDB;stroke-width:3.125;"/><line style="stroke:#009FDB;stroke-width:3.125;" x1="555.2083" x2="555.2083" y1="385.2214" y2="575.6673"/><line style="stroke:#009FDB;stroke-width:3.125;" x1="555.2083" x2="425" y1="575.6673" y2="575.6673"/><polygon fill="#009FDB" points="435.4167,571.5007,425,575.6673,435.4167,579.834,431.25,575.6673" style="stroke:#009FDB;stroke-width:1.0416666666666667;"/><line style="stroke:#009FDB;stroke-width:3.125;" x1="412.5" x2="412.5" y1="522.5586" y2="563.1673"/><polygon fill="#009FDB" points="408.3333,552.7507,412.5,563.1673,416.6667,552.7507,412.5,556.9173" style="stroke:#009FDB;stroke-width:1.0416666666666667;"/><line style="stroke:#009FDB;stroke-width:3.125;" x1="132.2917" x2="132.2917" y1="350.3418" y2="425.8626"/><polygon fill="#009FDB" points="128.125,415.446,132.2917,425.8626,136.4583,415.446,132.2917,419.6126" style="stroke:#009FDB;stroke-width:1.0416666666666667;"/><line style="stroke:#009FDB;stroke-width:3.125;" x1="412.5" x2="412.5" y1="350.3418" y2="369.6126"/><polygon fill="#009FDB" points="408.3333,359.196,412.5,369.6126,416.6667,359.196,412.5,363.3626" style="stroke:#009FDB;stroke-width:1.0416666666666667;"/><line style="stroke:#009FDB;stroke-width:3.125;" x1="132.2917" x2="132.2917" y1="542.334" y2="609.0007"/><polygon fill="#009FDB" points="128.125,598.584,132.2917,609.0007,136.4583,598.584,132.2917,602.7507" style="stroke:#009FDB;stroke-width:1.0416666666666667;"/><line style="stroke:#009FDB;stroke-width:3.125;" x1="412.5" x2="412.5" y1="588.1673" y2="609.0007"/><polygon fill="#009FDB" points="408.3333,598.584,412.5,609.0007,416.6667,598.584,412.5,602.7507" style="stroke:#009FDB;stroke-width:1.0416666666666667;"/><line style="stroke:#009FDB;stroke-width:3.125;" x1="283.3333" x2="283.3333" y1="327.946" y2="348.7793"/><polygon fill="#009FDB" points="279.1667,338.3626,283.3333,348.7793,287.5,338.3626,283.3333,342.5293" style="stroke:#009FDB;stroke-width:1.0416666666666667;"/><line style="stroke:#009FDB;stroke-width:3.125;" x1="283.3333" x2="283.3333" y1="610.5632" y2="629.834"/><polygon fill="#009FDB" points="279.1667,619.4173,283.3333,629.834,287.5,619.4173,283.3333,623.584" style="stroke:#009FDB;stroke-width:1.0416666666666667;"/><line style="stroke:#009FDB;stroke-width:3.125;" x1="283.3333" x2="283.3333" y1="702.653" y2="723.4863"/><polygon fill="#009FDB" points="279.1667,713.0697,283.3333,723.4863,287.5,713.0697,283.3333,717.2363" style="stroke:#009FDB;stroke-width:1.0416666666666667;"/><line style="stroke:#009FDB;stroke-width:3.125;" x1="283.3333" x2="283.3333" y1="767.2038" y2="788.0371"/><polygon fill="#009FDB" points="279.1667,777.6204,283.3333,788.0371,287.5,777.6204,283.3333,781.7871" style="stroke:#009FDB;stroke-width:1.0416666666666667;"/><line style="stroke:#009FDB;stroke-width:3.125;" x1="283.3333" x2="283.3333" y1="831.7546" y2="852.5879"/><polygon fill="#009FDB" points="279.1667,842.1712,283.3333,852.5879,287.5,842.1712,283.3333,846.3379" style="stroke:#009FDB;stroke-width:1.0416666666666667;"/><line style="stroke:#009FDB;stroke-width:3.125;" x1="283.3333" x2="283.3333" y1="896.3053" y2="917.1387"/><polygon fill="#009FDB" points="279.1667,906.722,283.3333,917.1387,287.5,906.722,283.3333,910.8887" style="stroke:#009FDB;stroke-width:1.0416666666666667;"/><line style="stroke:#009FDB;stroke-width:3.125;" x1="283.3333" x2="283.3333" y1="989.9577" y2="1010.791"/><polygon fill="#009FDB" points="279.1667,1000.3743,283.3333,1010.791,287.5,1000.3743,283.3333,1004.541" style="stroke:#009FDB;stroke-width:1.0416666666666667;"/><line style="stroke:#009FDB;stroke-width:3.125;" x1="283.3333" x2="283.3333" y1="1054.5085" y2="1075.3418"/><polygon fill="#009FDB" points="279.1667,1064.9251,283.3333,1075.3418,287.5,1064.9251,283.3333,1069.0918" style="stroke:#009FDB;stroke-width:1.0416666666666667;"/><rect fill="#F2F2F2" height="268.8314" id="_legend" rx="10.4167" ry="10.4167" style="stroke:#C2C2C2;stroke-width:1.0416666666666667;" width="510.4167" x="47.9167" y="1105.5501"/><text fill="#5A5A5A" font-family="Verdana" font-size="14.5833" lengthAdjust="spacing" textLength="41.6667" x="70.8333" y="1144.0867">Name</text><text fill="#5A5A5A" font-family="Verdana" font-size="14.5833" lengthAdjust="spacing" textLength="82.2917" x="220.8333" y="1144.0867">Description</text><text fill="#5A5A5A" font-family="Verdana" font-size="14.5833" lengthAdjust="spacing" textLength="66.6667" x="70.8333" y="1177.7293">{OldVer}</text><text fill="#5A5A5A" font-family="Verdana" font-size="14.5833" lengthAdjust="spacing" textLength="181.25" x="216.6667" y="1177.7293">&#1055;&#1086;&#1090;&#1086;&#1095;&#1085;&#1072; &#1074;&#1077;&#1088;&#1089;&#1110;&#1103; &#1088;&#1077;&#1108;&#1089;&#1090;&#1088;&#1091;</text><text fill="#5A5A5A" font-family="Verdana" font-size="14.5833" lengthAdjust="spacing" textLength="73.9583" x="70.8333" y="1211.3719">{NewVer}</text><text fill="#5A5A5A" font-family="Verdana" font-size="14.5833" lengthAdjust="spacing" textLength="260.4167" x="216.6667" y="1211.3719">&#1042;&#1077;&#1088;&#1089;&#1110;&#1103; &#1088;&#1077;&#1108;&#1089;&#1090;&#1088;&#1091; &#1097;&#1086; &#1088;&#1086;&#1079;&#1075;&#1086;&#1088;&#1090;&#1072;&#1108;&#1090;&#1100;&#1089;&#1103;</text><text fill="#5A5A5A" font-family="Verdana" font-size="14.5833" lengthAdjust="spacing" textLength="89.5833" x="70.8333" y="1245.0144">{RegName}</text><text fill="#5A5A5A" font-family="Verdana" font-size="14.5833" lengthAdjust="spacing" textLength="90.625" x="216.6667" y="1245.0144">&#1030;&#1084;'&#1103; &#1088;&#1077;&#1108;&#1089;&#1090;&#1088;&#1091;</text><text fill="#5A5A5A" font-family="Verdana" font-size="14.5833" lengthAdjust="spacing" textLength="114.5833" x="70.8333" y="1278.657">{project-name}</text><text fill="#5A5A5A" font-family="Verdana" font-size="14.5833" lengthAdjust="spacing" textLength="314.5833" x="220.8333" y="1278.657">&#1030;&#1084;'&#1103; &#1079;&#1075;&#1077;&#1085;&#1077;&#1088;&#1086;&#1074;&#1072;&#1085;&#1086;&#1075;&#1086; &#1087;&#1088;&#1086;&#1077;&#1082;&#1090;&#1091;/&#1088;&#1077;&#1087;&#1086;&#1079;&#1080;&#1090;&#1086;&#1088;&#1110;&#1102;</text><text fill="#5A5A5A" font-family="Verdana" font-size="14.5833" lengthAdjust="spacing" textLength="129.1667" x="70.8333" y="1312.2996">{repoChecksum}</text><text fill="#5A5A5A" font-family="Verdana" font-size="14.5833" lengthAdjust="spacing" textLength="273.9583" x="220.8333" y="1312.2996">md5sum &#1074;&#1084;&#1110;&#1089;&#1090;&#1091; &#1088;&#1077;&#1075;&#1083;&#1072;&#1084;&#1077;&#1085;&#1090;&#1091; &#1088;&#1077;&#1108;&#1089;&#1090;&#1088;&#1091;</text><text fill="#5A5A5A" font-family="Verdana" font-size="14.5833" lengthAdjust="spacing" textLength="114.5833" x="70.8333" y="1345.9422">{agentVersion}</text><text fill="#5A5A5A" font-family="Verdana" font-size="14.5833" lengthAdjust="spacing" textLength="181.25" x="220.8333" y="1345.9422">&#1042;&#1077;&#1088;&#1089;&#1110;&#1103; &#1076;&#1078;&#1077;&#1085;&#1082;&#1110;&#1085;&#1089; &#1072;&#1075;&#1077;&#1085;&#1090;&#1072;</text><line style="stroke:#5A5A5A;stroke-width:1.0416666666666667;" x1="62.5" x2="543.75" y1="1122.2168" y2="1122.2168"/><line style="stroke:#5A5A5A;stroke-width:1.0416666666666667;" x1="62.5" x2="543.75" y1="1155.8594" y2="1155.8594"/><line style="stroke:#5A5A5A;stroke-width:1.0416666666666667;" x1="62.5" x2="543.75" y1="1189.502" y2="1189.502"/><line style="stroke:#5A5A5A;stroke-width:1.0416666666666667;" x1="62.5" x2="543.75" y1="1223.1445" y2="1223.1445"/><line style="stroke:#5A5A5A;stroke-width:1.0416666666666667;" x1="62.5" x2="543.75" y1="1256.7871" y2="1256.7871"/><line style="stroke:#5A5A5A;stroke-width:1.0416666666666667;" x1="62.5" x2="543.75" y1="1290.4297" y2="1290.4297"/><line style="stroke:#5A5A5A;stroke-width:1.0416666666666667;" x1="62.5" x2="543.75" y1="1324.0723" y2="1324.0723"/><line style="stroke:#5A5A5A;stroke-width:1.0416666666666667;" x1="62.5" x2="543.75" y1="1357.7148" y2="1357.7148"/><line style="stroke:#5A5A5A;stroke-width:1.0416666666666667;" x1="62.5" x2="62.5" y1="1122.2168" y2="1357.7148"/><line style="stroke:#5A5A5A;stroke-width:1.0416666666666667;" x1="208.3333" x2="208.3333" y1="1122.2168" y2="1357.7148"/><line style="stroke:#5A5A5A;stroke-width:1.0416666666666667;" x1="543.75" x2="543.75" y1="1122.2168" y2="1357.7148"/><!--SRC=[VLDDRzD04BtdLmpYG6ifyebBAq0qhRYrKX2zR-s9isJzeTrDcoYEbBOI20cr4aAzyXUYbW0g9VqBwt_4xDgkaf1oIEBTUVFUcpVE4zt56E58z36IRDXGcadTu1tOyBn39dZ8DC8nIiNJnFCQ00SYF4JvyiK-dj3l9b1_0Xj3L9jKV2entDfhjm_QstJgSI4Qc8IyqzZol7UPuzhT0HMG9lEyxONhmr82T0gZadeCF0694LTQ3Y56pGZekbGck2P-wcv9jDq9dZXpdfV9z3q6Mlb16k8HKwXyYLcgg4nrtn-rCTfdCOwR4fLkiemtQptVNq7qMAV7_W-9IKKib2jpm2B64yBQ8FS6f8yXl4KcWowqKaf4qwmAS433lLh9SDrS2vCz3ERcAiTQzgHIbgsujjie5q7VKEQtf097VIv2o7Y6WYUee9DAG4PsArahH2BLgPbO9SjBB6ymGMbvh3FNo8Ie-rIrvbOQnvHBL6531wvgxNu2Eslqrz2y3aC8qw274dZC8WBI2xEFWxvQPx0viXcrkXZqL3-c8tKakdhLnbkB-H3tBcOY7O92USm3T8gKLaDWP4EJFEfgbtLkOyvX5rKWUMOt2NbP69L_Zd5klfbvSKQVZ-QFcOAvDhDYKfmMLyKb51CwVAN36LsTrvsLbTnyUHGAnISpjtTpyzFS4Fc49APKFoi-4-QofgfVXDnyC7VF7bLSIYg76kouPsHxvfIkpPIUvrOFpBsxcfbROZhtBQsvTsv-kM4dPFgYfbzAFeSuV4uFDeaxGbahvyuN4VycYJih-N3vhzcbnP7PnPJCT_F3ERujheZa58ZlfkGpqzpki5pXNm00]--></g></svg>