<?xml version="1.0" encoding="us-ascii" standalone="no"?><svg xmlns="http://www.w3.org/2000/svg" xmlns:xlink="http://www.w3.org/1999/xlink" contentStyleType="text/css" height="1022px" preserveAspectRatio="none" style="width:1669px;height:1022px;background:#FFFFFF;" version="1.1" viewBox="0 0 1669 1022" width="1669px" zoomAndPan="magnify"><defs/><g><rect fill="#FFFFFF" height="70.2656" style="stroke:#2688D4;stroke-width:1.0;" width="10" x="342" y="217.3203"/><rect fill="#FFFFFF" height="143.6641" style="stroke:#2688D4;stroke-width:1.0;" width="10" x="342" y="746.9063"/><rect fill="#FFFFFF" height="12" style="stroke:#2688D4;stroke-width:1.0;" width="10" x="628" y="246.4531"/><rect fill="#FFFFFF" height="12" style="stroke:#2688D4;stroke-width:1.0;" width="10" x="628" y="776.0391"/><rect fill="#FFFFFF" height="366.7891" style="stroke:#2688D4;stroke-width:1.0;" width="10" x="986" y="333.8516"/><rect fill="#FFFFFF" height="12" style="stroke:#2688D4;stroke-width:1.0;" width="10" x="1170" y="387.1172"/><rect fill="#FFFFFF" height="12" style="stroke:#2688D4;stroke-width:1.0;" width="10" x="1480" y="594.2422"/><rect fill="#FFFFFF" height="12" style="stroke:#2688D4;stroke-width:1.0;" width="10" x="1480" y="652.5078"/><rect fill="#FFFFFF" height="12" style="stroke:#2688D4;stroke-width:1.0;" width="10" x="1480" y="849.4375"/><rect fill="none" height="193.125" style="stroke:#000000;stroke-width:1.5;" width="602.5" x="949.5" y="348.8516"/><rect fill="none" height="133.6641" style="stroke:#000000;stroke-width:1.5;" width="602.5" x="949.5" y="555.9766"/><line style="stroke:#2688D4;stroke-width:0.5;stroke-dasharray:5.0,5.0;" x1="53" x2="53" y1="97.5938" y2="925.7031"/><line style="stroke:#2688D4;stroke-width:0.5;stroke-dasharray:5.0,5.0;" x1="347" x2="347" y1="97.5938" y2="925.7031"/><line style="stroke:#2688D4;stroke-width:0.5;stroke-dasharray:5.0,5.0;" x1="633" x2="633" y1="97.5938" y2="925.7031"/><line style="stroke:#2688D4;stroke-width:0.5;stroke-dasharray:5.0,5.0;" x1="990.5" x2="990.5" y1="97.5938" y2="925.7031"/><line style="stroke:#2688D4;stroke-width:0.5;stroke-dasharray:5.0,5.0;" x1="1174.5" x2="1174.5" y1="161.8906" y2="925.7031"/><line style="stroke:#2688D4;stroke-width:0.5;stroke-dasharray:5.0,5.0;" x1="1485" x2="1485" y1="478.5469" y2="925.7031"/><line style="stroke:#2688D4;stroke-width:0.5;stroke-dasharray:5.0,5.0;" x1="1607" x2="1607" y1="97.5938" y2="925.7031"/><text fill="#000000" font-family="sans-serif" font-size="14" lengthAdjust="spacing" textLength="79" x="10.5" y="77.9951">&#1056;&#1086;&#1079;&#1088;&#1086;&#1073;&#1085;&#1080;&#1082;</text><text fill="#000000" font-family="sans-serif" font-size="14" lengthAdjust="spacing" textLength="86" x="9" y="94.292">&#1088;&#1077;&#1075;&#1083;&#1072;&#1084;&#1077;&#1085;&#1090;&#1091;</text><ellipse cx="53" cy="13.5" fill="#E2E2F0" rx="8" ry="8" style="stroke:#2688D4;stroke-width:0.5;"/><path d="M53,21.5 L53,48.5 M40,29.5 L66,29.5 M53,48.5 L40,63.5 M53,48.5 L66,63.5 " fill="none" style="stroke:#2688D4;stroke-width:0.5;"/><text fill="#000000" font-family="sans-serif" font-size="14" lengthAdjust="spacing" textLength="79" x="10.5" y="937.6982">&#1056;&#1086;&#1079;&#1088;&#1086;&#1073;&#1085;&#1080;&#1082;</text><text fill="#000000" font-family="sans-serif" font-size="14" lengthAdjust="spacing" textLength="86" x="9" y="953.9951">&#1088;&#1077;&#1075;&#1083;&#1072;&#1084;&#1077;&#1085;&#1090;&#1091;</text><ellipse cx="53" cy="965.7969" fill="#E2E2F0" rx="8" ry="8" style="stroke:#2688D4;stroke-width:0.5;"/><path d="M53,973.7969 L53,1000.7969 M40,981.7969 L66,981.7969 M53,1000.7969 L40,1015.7969 M53,1000.7969 L66,1015.7969 " fill="none" style="stroke:#2688D4;stroke-width:0.5;"/><rect fill="#FFFFFF" height="46.5938" rx="2.5" ry="2.5" style="stroke:#2688D4;stroke-width:0.5;" width="148" x="273" y="50"/><text fill="#000000" font-family="sans-serif" font-size="14" lengthAdjust="spacing" textLength="134" x="280" y="69.9951">Registry Regulation</text><text fill="#000000" font-family="sans-serif" font-size="14" lengthAdjust="spacing" textLength="91" x="301.5" y="86.292">Management</text><rect fill="#FFFFFF" height="46.5938" rx="2.5" ry="2.5" style="stroke:#2688D4;stroke-width:0.5;" width="148" x="273" y="924.7031"/><text fill="#000000" font-family="sans-serif" font-size="14" lengthAdjust="spacing" textLength="134" x="280" y="944.6982">Registry Regulation</text><text fill="#000000" font-family="sans-serif" font-size="14" lengthAdjust="spacing" textLength="91" x="301.5" y="960.9951">Management</text><rect fill="#FFFFFF" height="30.2969" rx="2.5" ry="2.5" style="stroke:#2688D4;stroke-width:0.5;" width="52" x="607" y="66.2969"/><text fill="#000000" font-family="sans-serif" font-size="14" lengthAdjust="spacing" textLength="38" x="614" y="86.292">Gerrit</text><rect fill="#FFFFFF" height="30.2969" rx="2.5" ry="2.5" style="stroke:#2688D4;stroke-width:0.5;" width="52" x="607" y="924.7031"/><text fill="#000000" font-family="sans-serif" font-size="14" lengthAdjust="spacing" textLength="38" x="614" y="944.6982">Gerrit</text><rect fill="#FFFFFF" height="30.2969" rx="2.5" ry="2.5" style="stroke:#2688D4;stroke-width:0.5;" width="63" x="959.5" y="66.2969"/><text fill="#000000" font-family="sans-serif" font-size="14" lengthAdjust="spacing" textLength="49" x="966.5" y="86.292">Jenkins</text><rect fill="#FFFFFF" height="30.2969" rx="2.5" ry="2.5" style="stroke:#2688D4;stroke-width:0.5;" width="63" x="959.5" y="924.7031"/><text fill="#000000" font-family="sans-serif" font-size="14" lengthAdjust="spacing" textLength="49" x="966.5" y="944.6982">Jenkins</text><text fill="#000000" font-family="sans-serif" font-size="14" lengthAdjust="spacing" textLength="65" x="1139.5" y="937.6982">Template</text><text fill="#000000" font-family="sans-serif" font-size="14" lengthAdjust="spacing" textLength="81" x="1131.5" y="953.9951">DB Schema</text><path d="M1157,967.2969 C1157,957.2969 1175,957.2969 1175,957.2969 C1175,957.2969 1193,957.2969 1193,967.2969 L1193,993.2969 C1193,1003.2969 1175,1003.2969 1175,1003.2969 C1175,1003.2969 1157,1003.2969 1157,993.2969 L1157,967.2969 " fill="#FFFFFF" style="stroke:#2688D4;stroke-width:1.5;"/><path d="M1157,967.2969 C1157,977.2969 1175,977.2969 1175,977.2969 C1175,977.2969 1193,977.2969 1193,967.2969 " fill="none" style="stroke:#2688D4;stroke-width:1.5;"/><text fill="#000000" font-family="sans-serif" font-size="14" lengthAdjust="spacing" textLength="108" x="1428" y="937.6982">Registry dev VC</text><text fill="#000000" font-family="sans-serif" font-size="14" lengthAdjust="spacing" textLength="81" x="1441.5" y="953.9951">DB Schema</text><path d="M1467,967.2969 C1467,957.2969 1485,957.2969 1485,957.2969 C1485,957.2969 1503,957.2969 1503,967.2969 L1503,993.2969 C1503,1003.2969 1485,1003.2969 1485,1003.2969 C1485,1003.2969 1467,1003.2969 1467,993.2969 L1467,967.2969 " fill="#FFFFFF" style="stroke:#2688D4;stroke-width:1.5;"/><path d="M1467,967.2969 C1467,977.2969 1485,977.2969 1485,977.2969 C1485,977.2969 1503,977.2969 1503,967.2969 " fill="none" style="stroke:#2688D4;stroke-width:1.5;"/><rect fill="#FFFFFF" height="30.2969" rx="2.5" ry="2.5" style="stroke:#2688D4;stroke-width:0.5;" width="111" x="1552" y="66.2969"/><text fill="#000000" font-family="sans-serif" font-size="14" lengthAdjust="spacing" textLength="97" x="1559" y="86.292">run-db-scripts</text><rect fill="#FFFFFF" height="30.2969" rx="2.5" ry="2.5" style="stroke:#2688D4;stroke-width:0.5;" width="111" x="1552" y="924.7031"/><text fill="#000000" font-family="sans-serif" font-size="14" lengthAdjust="spacing" textLength="97" x="1559" y="944.6982">run-db-scripts</text><rect fill="#FFFFFF" height="70.2656" style="stroke:#2688D4;stroke-width:1.0;" width="10" x="342" y="217.3203"/><rect fill="#FFFFFF" height="143.6641" style="stroke:#2688D4;stroke-width:1.0;" width="10" x="342" y="746.9063"/><rect fill="#FFFFFF" height="12" style="stroke:#2688D4;stroke-width:1.0;" width="10" x="628" y="246.4531"/><rect fill="#FFFFFF" height="12" style="stroke:#2688D4;stroke-width:1.0;" width="10" x="628" y="776.0391"/><rect fill="#FFFFFF" height="366.7891" style="stroke:#2688D4;stroke-width:1.0;" width="10" x="986" y="333.8516"/><rect fill="#FFFFFF" height="12" style="stroke:#2688D4;stroke-width:1.0;" width="10" x="1170" y="387.1172"/><rect fill="#FFFFFF" height="12" style="stroke:#2688D4;stroke-width:1.0;" width="10" x="1480" y="594.2422"/><rect fill="#FFFFFF" height="12" style="stroke:#2688D4;stroke-width:1.0;" width="10" x="1480" y="652.5078"/><rect fill="#FFFFFF" height="12" style="stroke:#2688D4;stroke-width:1.0;" width="10" x="1480" y="849.4375"/><polygon fill="#2688D4" points="1229.5,107.5938,1219.5,111.5938,1229.5,115.5938,1225.5,111.5938" style="stroke:#2688D4;stroke-width:1.0;"/><line style="stroke:#2688D4;stroke-width:1.0;" x1="1223.5" x2="1606.5" y1="111.5938" y2="111.5938"/><text fill="#000000" font-family="sans-serif" font-size="13" lengthAdjust="spacing" textLength="155" x="1235.5" y="124.6606">&#1057;&#1090;&#1074;&#1086;&#1088;&#1102;&#1108; &#1090;&#1072; &#1088;&#1086;&#1079;&#1075;&#1086;&#1088;&#1090;&#1072;&#1108;</text><text fill="#000000" font-family="sans-serif" font-size="14" lengthAdjust="spacing" textLength="65" x="1139.5" y="166.5889">Template</text><text fill="#000000" font-family="sans-serif" font-size="14" lengthAdjust="spacing" textLength="81" x="1131.5" y="182.8857">DB Schema</text><path d="M1157,117.5938 C1157,107.5938 1175,107.5938 1175,107.5938 C1175,107.5938 1193,107.5938 1193,117.5938 L1193,143.5938 C1193,153.5938 1175,153.5938 1175,153.5938 C1175,153.5938 1157,153.5938 1157,143.5938 L1157,117.5938 " fill="#FFFFFF" style="stroke:#2688D4;stroke-width:1.5;"/><path d="M1157,117.5938 C1157,127.5938 1175,127.5938 1175,127.5938 C1175,127.5938 1193,127.5938 1193,117.5938 " fill="none" style="stroke:#2688D4;stroke-width:1.5;"/><polygon fill="#2688D4" points="330,213.3203,340,217.3203,330,221.3203,334,217.3203" style="stroke:#2688D4;stroke-width:1.0;"/><line style="stroke:#2688D4;stroke-width:1.0;" x1="53" x2="336" y1="217.3203" y2="217.3203"/><text fill="#000000" font-family="sans-serif" font-size="13" lengthAdjust="spacing" textLength="183" x="60" y="212.2544">&#1057;&#1090;&#1074;&#1086;&#1088;&#1102;&#1108; &#1074;&#1077;&#1088;&#1089;&#1110;&#1102;-&#1082;&#1072;&#1085;&#1076;&#1080;&#1076;&#1072;&#1090;</text><polygon fill="#2688D4" points="616,242.4531,626,246.4531,616,250.4531,620,246.4531" style="stroke:#2688D4;stroke-width:1.0;"/><line style="stroke:#2688D4;stroke-width:1.0;" x1="352" x2="622" y1="246.4531" y2="246.4531"/><text fill="#000000" font-family="sans-serif" font-size="13" lengthAdjust="spacing" textLength="83" x="359" y="241.3872">&#1057;&#1090;&#1074;&#1086;&#1088;&#1102;&#1108; MR</text><polygon fill="#2688D4" points="363,254.4531,353,258.4531,363,262.4531,359,258.4531" style="stroke:#2688D4;stroke-width:1.0;"/><line style="stroke:#2688D4;stroke-width:1.0;stroke-dasharray:2.0,2.0;" x1="357" x2="632" y1="258.4531" y2="258.4531"/><text fill="#000000" font-family="sans-serif" font-size="13" lengthAdjust="spacing" textLength="36" x="369" y="271.52">result</text><polygon fill="#2688D4" points="64,283.5859,54,287.5859,64,291.5859,60,287.5859" style="stroke:#2688D4;stroke-width:1.0;"/><line style="stroke:#2688D4;stroke-width:1.0;stroke-dasharray:2.0,2.0;" x1="58" x2="346" y1="287.5859" y2="287.5859"/><text fill="#000000" font-family="sans-serif" font-size="13" lengthAdjust="spacing" textLength="116" x="70" y="300.6528">&#1074;&#1077;&#1088;&#1089;&#1110;&#1103;-&#1082;&#1072;&#1085;&#1076;&#1080;&#1076;&#1072;&#1090;</text><polygon fill="#2688D4" points="974,329.8516,984,333.8516,974,337.8516,978,333.8516" style="stroke:#2688D4;stroke-width:1.0;"/><line style="stroke:#2688D4;stroke-width:1.0;" x1="633" x2="980" y1="333.8516" y2="333.8516"/><text fill="#000000" font-family="sans-serif" font-size="13" lengthAdjust="spacing" textLength="275" x="640" y="328.7856">&#1079;&#1072;&#1087;&#1091;&#1089;&#1082; &#1087;&#1072;&#1081;&#1087;&#1083;&#1072;&#1081;&#1085;&#1091; &#1087;&#1077;&#1088;&#1077;&#1074;&#1110;&#1088;&#1082;&#1080; &#1088;&#1077;&#1075;&#1083;&#1072;&#1084;&#1077;&#1085;&#1090;&#1091;</text><path d="M949.5,348.8516 L1204.5,348.8516 L1204.5,355.9844 L1194.5,365.9844 L949.5,365.9844 L949.5,348.8516 " fill="#EEEEEE" style="stroke:#000000;stroke-width:1.5;"/><rect fill="none" height="193.125" style="stroke:#000000;stroke-width:1.5;" width="602.5" x="949.5" y="348.8516"/><text fill="#000000" font-family="sans-serif" font-size="13" font-weight="bold" lengthAdjust="spacing" textLength="210" x="964.5" y="361.9185">"&#1057;&#1090;&#1074;&#1086;&#1088;&#1077;&#1085;&#1085;&#1103; &#1090;&#1080;&#1084;&#1095;&#1072;&#1089;&#1086;&#1074;&#1086;&#1111; &#1041;&#1044;"</text><polygon fill="#2688D4" points="1158,383.1172,1168,387.1172,1158,391.1172,1162,387.1172" style="stroke:#2688D4;stroke-width:1.0;"/><line style="stroke:#2688D4;stroke-width:1.0;" x1="996" x2="1164" y1="387.1172" y2="387.1172"/><text fill="#000000" font-family="sans-serif" font-size="13" lengthAdjust="spacing" textLength="155" x="1003" y="382.0513">&#1086;&#1090;&#1088;&#1080;&#1084;&#1091;&#1108; &#1077;&#1090;&#1072;&#1083;&#1086;&#1085;&#1085;&#1091; &#1041;&#1044;c</text><polygon fill="#2688D4" points="1007,395.1172,997,399.1172,1007,403.1172,1003,399.1172" style="stroke:#2688D4;stroke-width:1.0;"/><line style="stroke:#2688D4;stroke-width:1.0;stroke-dasharray:2.0,2.0;" x1="1001" x2="1174" y1="399.1172" y2="399.1172"/><text fill="#000000" font-family="sans-serif" font-size="13" lengthAdjust="spacing" textLength="36" x="1013" y="412.1841">result</text><polygon fill="#2688D4" points="1416,441.3828,1426,445.3828,1416,449.3828,1420,445.3828" style="stroke:#2688D4;stroke-width:1.0;"/><line style="stroke:#2688D4;stroke-width:1.0;" x1="996" x2="1422" y1="445.3828" y2="445.3828"/><text fill="#000000" font-family="sans-serif" font-size="13" lengthAdjust="spacing" textLength="202" x="1003" y="440.3169">&#1057;&#1090;&#1074;&#1086;&#1088;&#1102;&#1108; &#1090;&#1080;&#1084;&#1095;&#1072;&#1089;&#1086;&#1074;&#1091; &#1089;&#1093;&#1077;&#1084;&#1091; &#1041;&#1044;</text><text fill="#000000" font-family="sans-serif" font-size="14" lengthAdjust="spacing" textLength="108" x="1428" y="483.2451">Registry dev VC</text><text fill="#000000" font-family="sans-serif" font-size="14" lengthAdjust="spacing" textLength="81" x="1441.5" y="499.542">DB Schema</text><path d="M1467,434.25 C1467,424.25 1485,424.25 1485,424.25 C1485,424.25 1503,424.25 1503,434.25 L1503,460.25 C1503,470.25 1485,470.25 1485,470.25 C1485,470.25 1467,470.25 1467,460.25 L1467,434.25 " fill="#FFFFFF" style="stroke:#2688D4;stroke-width:1.5;"/><path d="M1467,434.25 C1467,444.25 1485,444.25 1485,444.25 C1485,444.25 1503,444.25 1503,434.25 " fill="none" style="stroke:#2688D4;stroke-width:1.5;"/><polygon fill="#2688D4" points="1007,512.8438,997,516.8438,1007,520.8438,1003,516.8438" style="stroke:#2688D4;stroke-width:1.0;"/><line style="stroke:#2688D4;stroke-width:1.0;stroke-dasharray:2.0,2.0;" x1="1001" x2="1484" y1="516.8438" y2="516.8438"/><text fill="#000000" font-family="sans-serif" font-size="13" lengthAdjust="spacing" textLength="36" x="1013" y="529.9106">result</text><path d="M949.5,555.9766 L1510.5,555.9766 L1510.5,563.1094 L1500.5,573.1094 L949.5,573.1094 L949.5,555.9766 " fill="#EEEEEE" style="stroke:#000000;stroke-width:1.5;"/><rect fill="none" height="133.6641" style="stroke:#000000;stroke-width:1.5;" width="602.5" x="949.5" y="555.9766"/><text fill="#000000" font-family="sans-serif" font-size="13" font-weight="bold" lengthAdjust="spacing" textLength="516" x="964.5" y="569.0435">"&#1056;&#1086;&#1079;&#1075;&#1086;&#1088;&#1090;&#1072;&#1085;&#1085;&#1103; &#1090;&#1080;&#1084;&#1095;&#1072;&#1089;&#1086;&#1074;&#1086;&#1111; &#1041;&#1044; &#1084;&#1086;&#1076;&#1077;&#1083;&#1083;&#1102; &#1076;&#1072;&#1085;&#1080;&#1093; &#1088;&#1077;&#1075;&#1083;&#1072;&#1084;&#1077;&#1085;&#1090;&#1091; &#1088;&#1077;&#1108;&#1089;&#1090;&#1088;&#1091;"</text><polygon fill="#2688D4" points="1468,590.2422,1478,594.2422,1468,598.2422,1472,594.2422" style="stroke:#2688D4;stroke-width:1.0;"/><line style="stroke:#2688D4;stroke-width:1.0;" x1="996" x2="1474" y1="594.2422" y2="594.2422"/><text fill="#000000" font-family="sans-serif" font-size="13" lengthAdjust="spacing" textLength="445" x="1003" y="589.1763">&#1056;&#1086;&#1079;&#1075;&#1086;&#1088;&#1090;&#1072;&#1085;&#1085;&#1103; &#1084;&#1086;&#1076;&#1077;&#1083;&#1110; &#1076;&#1072;&#1085;&#1080;&#1093; &#1087;&#1086; liquibase changelog's &#1084;&#1072;&#1081;&#1089;&#1090;&#1077;&#1088; &#1074;&#1077;&#1088;&#1089;&#1110;&#1111;</text><polygon fill="#2688D4" points="1007,602.2422,997,606.2422,1007,610.2422,1003,606.2422" style="stroke:#2688D4;stroke-width:1.0;"/><line style="stroke:#2688D4;stroke-width:1.0;stroke-dasharray:2.0,2.0;" x1="1001" x2="1484" y1="606.2422" y2="606.2422"/><text fill="#000000" font-family="sans-serif" font-size="13" lengthAdjust="spacing" textLength="36" x="1013" y="619.3091">result</text><polygon fill="#2688D4" points="1468,648.5078,1478,652.5078,1468,656.5078,1472,652.5078" style="stroke:#2688D4;stroke-width:1.0;"/><line style="stroke:#2688D4;stroke-width:1.0;" x1="996" x2="1474" y1="652.5078" y2="652.5078"/><text fill="#000000" font-family="sans-serif" font-size="13" lengthAdjust="spacing" textLength="465" x="1003" y="647.4419">&#1056;&#1086;&#1079;&#1075;&#1086;&#1088;&#1090;&#1072;&#1085;&#1085;&#1103; &#1084;&#1086;&#1076;&#1077;&#1083;&#1110; &#1076;&#1072;&#1085;&#1080;&#1093; &#1087;&#1086; liquibase changelog's &#1074;&#1077;&#1088;&#1089;&#1110;&#1111;-&#1082;&#1072;&#1085;&#1076;&#1080;&#1076;&#1072;&#1090;&#1091;</text><polygon fill="#2688D4" points="1007,660.5078,997,664.5078,1007,668.5078,1003,664.5078" style="stroke:#2688D4;stroke-width:1.0;"/><line style="stroke:#2688D4;stroke-width:1.0;stroke-dasharray:2.0,2.0;" x1="1001" x2="1484" y1="664.5078" y2="664.5078"/><text fill="#000000" font-family="sans-serif" font-size="13" lengthAdjust="spacing" textLength="36" x="1013" y="677.5747">result</text><polygon fill="#2688D4" points="644,696.6406,634,700.6406,644,704.6406,640,700.6406" style="stroke:#2688D4;stroke-width:1.0;"/><line style="stroke:#2688D4;stroke-width:1.0;stroke-dasharray:2.0,2.0;" x1="638" x2="990" y1="700.6406" y2="700.6406"/><text fill="#000000" font-family="sans-serif" font-size="13" lengthAdjust="spacing" textLength="329" x="650" y="713.7075">&#1087;&#1091;&#1073;&#1083;&#1110;&#1082;&#1072;&#1094;&#1110;&#1103; &#1088;&#1077;&#1079;&#1091;&#1083;&#1100;&#1090;&#1072;&#1090;&#1091; &#1088;&#1086;&#1079;&#1075;&#1086;&#1088;&#1090;&#1072;&#1085;&#1085;&#1103; (Verified +1)</text><polygon fill="#2688D4" points="330,742.9063,340,746.9063,330,750.9063,334,746.9063" style="stroke:#2688D4;stroke-width:1.0;"/><line style="stroke:#2688D4;stroke-width:1.0;" x1="53" x2="336" y1="746.9063" y2="746.9063"/><text fill="#000000" font-family="sans-serif" font-size="13" lengthAdjust="spacing" textLength="270" x="60" y="741.8403">&#1054;&#1090;&#1088;&#1080;&#1084;&#1091;&#1108; &#1087;&#1077;&#1088;&#1077;&#1083;&#1110;&#1082; &#1090;&#1072;&#1073;&#1083;&#1080;&#1094;&#1100; &#1084;&#1086;&#1076;&#1077;&#1083;&#1110; &#1076;&#1072;&#1085;&#1080;&#1093;</text><polygon fill="#2688D4" points="616,772.0391,626,776.0391,616,780.0391,620,776.0391" style="stroke:#2688D4;stroke-width:1.0;"/><line style="stroke:#2688D4;stroke-width:1.0;" x1="352" x2="622" y1="776.0391" y2="776.0391"/><text fill="#000000" font-family="sans-serif" font-size="13" lengthAdjust="spacing" textLength="257" x="359" y="770.9731">&#1079;&#1095;&#1080;&#1090;&#1091;&#1108; &#1089;&#1090;&#1072;&#1085; &#1088;&#1086;&#1079;&#1075;&#1086;&#1088;&#1090;&#1072;&#1085;&#1085;&#1103; &#1088;&#1077;&#1075;&#1083;&#1072;&#1084;&#1077;&#1085;&#1090;&#1091;</text><polygon fill="#2688D4" points="363,784.0391,353,788.0391,363,792.0391,359,788.0391" style="stroke:#2688D4;stroke-width:1.0;"/><line style="stroke:#2688D4;stroke-width:1.0;stroke-dasharray:2.0,2.0;" x1="357" x2="632" y1="788.0391" y2="788.0391"/><text fill="#000000" font-family="sans-serif" font-size="13" lengthAdjust="spacing" textLength="36" x="369" y="801.106">result</text><polygon fill="#2688D4" points="1468,845.4375,1478,849.4375,1468,853.4375,1472,849.4375" style="stroke:#2688D4;stroke-width:1.0;"/><line style="stroke:#2688D4;stroke-width:1.0;" x1="352" x2="1474" y1="849.4375" y2="849.4375"/><text fill="#000000" font-family="sans-serif" font-size="13" lengthAdjust="spacing" textLength="156" x="359" y="829.2388">&#1047;&#1095;&#1080;&#1090;&#1091;&#1074;&#1072;&#1085;&#1085;&#1103; &#1089;&#1090;&#1088;&#1091;&#1082;&#1090;&#1091;&#1088;&#1080;</text><text fill="#000000" font-family="sans-serif" font-size="13" lengthAdjust="spacing" textLength="101" x="359" y="844.3716">&#1090;&#1080;&#1084;&#1095;&#1072;&#1089;&#1086;&#1074;&#1086;&#1111; &#1041;&#1044;</text><polygon fill="#2688D4" points="363,857.4375,353,861.4375,363,865.4375,359,861.4375" style="stroke:#2688D4;stroke-width:1.0;"/><line style="stroke:#2688D4;stroke-width:1.0;stroke-dasharray:2.0,2.0;" x1="357" x2="1484" y1="861.4375" y2="861.4375"/><text fill="#000000" font-family="sans-serif" font-size="13" lengthAdjust="spacing" textLength="36" x="369" y="874.5044">result</text><polygon fill="#2688D4" points="64,886.5703,54,890.5703,64,894.5703,60,890.5703" style="stroke:#2688D4;stroke-width:1.0;"/><line style="stroke:#2688D4;stroke-width:1.0;stroke-dasharray:2.0,2.0;" x1="58" x2="346" y1="890.5703" y2="890.5703"/><text fill="#000000" font-family="sans-serif" font-size="13" lengthAdjust="spacing" textLength="113" x="70" y="903.6372">&#1087;&#1077;&#1088;&#1077;&#1083;&#1110;&#1082; &#1090;&#1072;&#1073;&#1083;&#1080;&#1094;&#1100;</text><!--SRC=[lLJTRX915BwVfvZWXLh3XSOOqvWcKXAJflMdcbvnCzsTmbYOfREpHMDCeAJrfcbZGjexKz-WrX8G2ds5cJVopEn2Ts6XzKOkO9ZpyttdE-SC2QH77CbsYQJOumZvsunNYI0Lx9U8wzKOB-8jKlPfp98dacmId-Q8irqKNi3TPQ_i2LmhCPdgvmcNYj3dtfDdpv-xJsDUxm8Qt9egT9gRvxKdRqrZVUPcyUbEGBb3yHU4uVDI2A-MzBNNZlH4MY9ZN6LRT9LnEil-bWZ975ObNDx59RKauvJpFisADwRKkA_n3WlgLptkqpNg-wH8SxJirMp1M8g08aHCbJYZpjHGTNGTld-fWUggNe5Z-DjMlrLVdQihE0tqdcvcCF5ndkuYLBtXZpFhjCXyAJvZE0Hb8fd72toDS82iK2vjb12LPD0hAWGBRKLxJ9fNA8SoV6l_69wH6uqRpdoWbIe0qGBFv_1xfqGhn7gExlEvcFEOdajtySRoPCp6SYmgmK44FEjkPdr7iAeCgRpPTbUyJOJ2NvnTYa7YXGMyYDLFlQSkr53NzP5kOVXpZgsq7L3JtCA5RY44Cffmq6Kg1evjE3RqYJxAgXvqOA0keIsN4Ba7xOSO4nhADXMzjWukeGrdHmWm2K5P8Xi9Tm2-68SvdeP1enHB8_qXeWDErxgf6wg7rJNy-GFVVVixq4rprRPpSm4vwv2ocpf6o124oQt2w8sv6oEOZurYNNMblm6B1iXcZATOVLUjZ9tyY4nIUg0sXCnr6zaq4hQDpW0xj5cRDe6JIF0YcqraY2IQm8XFnwm69-W25aYw3-LSHR1JgF6SCLpAtL2Mk3vdoScvJICCAW-XWsqelQ-Fi6ccMMczdze9UwbRG1Z4W_sULprKdaxc1bAVn05X6eQup7O2PlVGAH5UX1UeUDyt8J0p1jOCJ7mIJ- -grl_X6ICsjI8moF_UsJ7f-0B3Ii7B2xGCX3um2ncsgmE6lZwqRqRKhhJA7cnGmROOTV6ZnmyddfOVoRqORQW5iw-JGGOT3lJXB8LIdfmEp5xNK38Rq0Yfp6AN-WI4AOrcevoHMZTW4qqz7K52KyQfey5LFSi5wYpmcRi1cHFRFFznd2VKNm00]--></g></svg>