<?xml version="1.0" encoding="us-ascii" standalone="no"?><svg xmlns="http://www.w3.org/2000/svg" xmlns:xlink="http://www.w3.org/1999/xlink" contentStyleType="text/css" height="1156.25px" preserveAspectRatio="none" style="width:997px;height:1156px;" version="1.1" viewBox="0 0 997 1156" width="997.9167px" zoomAndPan="magnify"><defs><linearGradient id="ggmd63164cqhc0" x1="50%" x2="50%" y1="0%" y2="100%"><stop offset="0%" stop-color="#F5F5F5"/><stop offset="100%" stop-color="#F2F2F2"/></linearGradient><linearGradient id="ggmd63164cqhc1" x1="50%" x2="50%" y1="0%" y2="100%"><stop offset="0%" stop-color="#33B2E2"/><stop offset="100%" stop-color="#009FDB"/></linearGradient><linearGradient id="ggmd63164cqhc2" x1="50%" x2="50%" y1="0%" y2="100%"><stop offset="0%" stop-color="#F5F5F5"/><stop offset="100%" stop-color="#C2C2C2"/></linearGradient></defs><g><rect fill="url(#ggmd63164cqhc0)" height="31.2174" style="stroke:url(#ggmd63164cqhc0);stroke-width:1.0416666666666667;" width="963.5417" x="15.625" y="11.4583"/><rect fill="url(#ggmd63164cqhc1)" height="101.9206" rx="10.4167" ry="10.4167" style="stroke:#009FDB;stroke-width:1.0416666666666667;" width="275" x="21.875" y="47.8841"/><text fill="#FFFFFF" font-family="Verdana" font-size="12.5" font-weight="bold" lengthAdjust="spacing" textLength="245.8333" x="36.4583" y="74.0702">Create projects/codebases/repos</text><text fill="#FFFFFF" font-family="Verdana" font-size="12.5" lengthAdjust="spacing" textLength="50" x="36.4583" y="88.621">rest-api</text><text fill="#FFFFFF" font-family="Verdana" font-size="12.5" lengthAdjust="spacing" textLength="59.375" x="36.4583" y="103.1718">kafka-api</text><text fill="#FFFFFF" font-family="Verdana" font-size="12.5" lengthAdjust="spacing" textLength="56.25" x="36.4583" y="117.7226">soap-api</text><text fill="#FFFFFF" font-family="Verdana" font-size="12.5" lengthAdjust="spacing" textLength="39.5833" x="36.4583" y="132.2734">model</text><rect fill="url(#ggmd63164cqhc1)" height="101.9206" rx="10.4167" ry="10.4167" style="stroke:#009FDB;stroke-width:1.0416666666666667;" width="191.6667" x="63.5417" y="170.638"/><text fill="#FFFFFF" font-family="Verdana" font-size="12.5" font-weight="bold" lengthAdjust="spacing" textLength="162.5" x="78.125" y="196.8241">Create build pipelines</text><text fill="#FFFFFF" font-family="Verdana" font-size="12.5" lengthAdjust="spacing" textLength="50" x="78.125" y="211.3749">rest-api</text><text fill="#FFFFFF" font-family="Verdana" font-size="12.5" lengthAdjust="spacing" textLength="59.375" x="78.125" y="225.9257">kafka-api</text><text fill="#FFFFFF" font-family="Verdana" font-size="12.5" lengthAdjust="spacing" textLength="56.25" x="78.125" y="240.4765">soap-api</text><text fill="#FFFFFF" font-family="Verdana" font-size="12.5" lengthAdjust="spacing" textLength="39.5833" x="78.125" y="255.0273">model</text><line style="stroke:#0568AE;stroke-width:2.0833333333333335;" x1="15.625" x2="15.625" y1="11.4583" y2="987.7767"/><rect fill="url(#ggmd63164cqhc1)" height="43.7174" rx="10.4167" ry="10.4167" style="stroke:#009FDB;stroke-width:1.0416666666666667;" width="167.7083" x="551.0417" y="282.9753"/><text fill="#FFFFFF" font-family="Verdana" font-size="12.5" font-weight="bold" lengthAdjust="spacing" textLength="138.5417" x="565.625" y="309.1614">Update DB schema</text><rect fill="url(#ggmd63164cqhc1)" height="43.7174" rx="10.4167" ry="10.4167" style="stroke:#009FDB;stroke-width:1.0416666666666667;" width="400" x="434.8958" y="347.526"/><text fill="#FFFFFF" font-family="Verdana" font-size="12.5" font-weight="bold" lengthAdjust="spacing" textLength="370.8333" x="449.4792" y="373.7122">Update Version to {NewVer} in registry metadata</text><line style="stroke:#009FDB;stroke-width:1.5625;" x1="459.375" x2="795.3125" y1="412.0768" y2="412.0768"/><rect fill="url(#ggmd63164cqhc1)" height="58.2682" rx="10.4167" ry="10.4167" style="stroke:#009FDB;stroke-width:1.0416666666666667;" width="304.1667" x="307.2917" y="496.4355"/><text fill="#FFFFFF" font-family="Verdana" font-size="12.5" font-weight="bold" lengthAdjust="spacing" textLength="134.375" x="321.875" y="522.6217">Generate code for</text><text fill="#FFFFFF" font-family="Verdana" font-size="12.5" font-style="italic" font-weight="bold" lengthAdjust="spacing" textLength="136.4583" x="460.4167" y="522.6217">rest-api, kafka-api</text><text fill="#FFFFFF" font-family="Verdana" font-size="12.5" font-weight="bold" lengthAdjust="spacing" textLength="28.125" x="321.875" y="537.1724">and</text><text fill="#FFFFFF" font-family="Verdana" font-size="12.5" font-style="italic" font-weight="bold" lengthAdjust="spacing" textLength="44.7917" x="354.1667" y="537.1724">model</text><text fill="#FFFFFF" font-family="Verdana" font-size="12.5" font-weight="bold" lengthAdjust="spacing" textLength="60.4167" x="403.125" y="537.1724">projects</text><rect fill="url(#ggmd63164cqhc1)" height="43.7174" rx="10.4167" ry="10.4167" style="stroke:#009FDB;stroke-width:1.0416666666666667;" width="288.5417" x="651.0417" y="498.4863"/><text fill="#FFFFFF" font-family="Verdana" font-size="12.5" font-weight="bold" lengthAdjust="spacing" textLength="134.375" x="665.625" y="524.6724">Generate code for</text><text fill="#FFFFFF" font-family="Verdana" font-size="12.5" font-style="italic" font-weight="bold" lengthAdjust="spacing" textLength="64.5833" x="804.1667" y="524.6724">soap-api</text><text fill="#FFFFFF" font-family="Verdana" font-size="12.5" font-weight="bold" lengthAdjust="spacing" textLength="52.0833" x="872.9167" y="524.6724">project</text><polygon fill="url(#ggmd63164cqhc2)" points="677.6042,432.9102,913.0208,432.9102,925.5208,448.5189,913.0208,464.1276,677.6042,464.1276,665.1042,448.5189,677.6042,432.9102" style="stroke:#C2C2C2;stroke-width:1.0416666666666667;"/><text fill="#5A5A5A" font-family="Verdana" font-size="12.5" lengthAdjust="spacing" textLength="21.875" x="807.8125" y="484.0637">yes</text><text fill="#5A5A5A" font-family="Verdana" font-size="12.5" lengthAdjust="spacing" textLength="218.75" x="685.9375" y="452.8463">Exposed Search Conditions exist?</text><polygon fill="url(#ggmd63164cqhc2)" points="795.3125,575.5371,807.8125,588.0371,795.3125,600.5371,782.8125,588.0371,795.3125,575.5371" style="stroke:#C2C2C2;stroke-width:1.0416666666666667;"/><line style="stroke:#009FDB;stroke-width:1.5625;" x1="459.375" x2="795.3125" y1="621.3704" y2="621.3704"/><rect fill="url(#ggmd63164cqhc1)" height="58.2682" rx="10.4167" ry="10.4167" style="stroke:#009FDB;stroke-width:1.0416666666666667;" width="232.2917" x="518.75" y="642.2038"/><text fill="#FFFFFF" font-family="Verdana" font-size="12.5" font-weight="bold" lengthAdjust="spacing" textLength="203.125" x="533.3333" y="668.3899">Force push generated code</text><text fill="#FFFFFF" font-family="Verdana" font-size="12.5" font-weight="bold" lengthAdjust="spacing" textLength="121.875" x="533.3333" y="682.9407">into static repos</text><rect fill="url(#ggmd63164cqhc1)" height="43.7174" rx="10.4167" ry="10.4167" style="stroke:#009FDB;stroke-width:1.0416666666666667;" width="363.5417" x="453.125" y="721.3053"/><text fill="#FFFFFF" font-family="Verdana" font-size="12.5" font-weight="bold" lengthAdjust="spacing" textLength="334.375" x="467.7083" y="747.4915">Run Build pipelines for all generated projects</text><rect fill="url(#ggmd63164cqhc1)" height="72.819" rx="10.4167" ry="10.4167" style="stroke:#009FDB;stroke-width:1.0416666666666667;" width="354.1667" x="457.8125" y="785.8561"/><text fill="#FFFFFF" font-family="Verdana" font-size="12.5" font-weight="bold" lengthAdjust="spacing" textLength="325" x="472.3958" y="812.0422">Overwrite or Create docker images in Nexus</text><text fill="#FFFFFF" font-family="Verdana" font-size="12.5" lengthAdjust="spacing" textLength="4.1667" x="472.3958" y="826.593">&#160;</text><text fill="#FFFFFF" font-family="Verdana" font-size="12.5" font-style="italic" lengthAdjust="spacing" textLength="103.125" x="472.3958" y="841.1438">{project-name}</text><rect fill="#0000FF" height="43.7174" rx="10.4167" ry="10.4167" style="stroke:#009FDB;stroke-width:1.0416666666666667;" width="256.25" x="506.7708" y="879.5085"/><text fill="#FFFFFF" font-family="Verdana" font-size="12.5" font-weight="bold" lengthAdjust="spacing" textLength="227.0833" x="521.3542" y="905.6946">Clean up service's kafka topics</text><rect fill="url(#ggmd63164cqhc1)" height="43.7174" rx="10.4167" ry="10.4167" style="stroke:#009FDB;stroke-width:1.0416666666666667;" width="144.7917" x="562.5" y="944.0592"/><text fill="#FFFFFF" font-family="Verdana" font-size="12.5" font-weight="bold" lengthAdjust="spacing" textLength="115.625" x="577.0833" y="970.2454">Deploy services</text><line style="stroke:#0568AE;stroke-width:2.0833333333333335;" x1="301.0417" x2="301.0417" y1="11.4583" y2="987.7767"/><line style="stroke:#0568AE;stroke-width:2.0833333333333335;" x1="969.7917" x2="969.7917" y1="11.4583" y2="987.7767"/><line style="stroke:#009FDB;stroke-width:3.125;" x1="159.375" x2="159.375" y1="149.8047" y2="170.638"/><polygon fill="#009FDB" points="155.2083,160.2214,159.375,170.638,163.5417,160.2214,159.375,164.388" style="stroke:#009FDB;stroke-width:1.0416666666666667;"/><line style="stroke:#009FDB;stroke-width:3.125;" x1="634.8958" x2="634.8958" y1="326.6927" y2="347.526"/><polygon fill="#009FDB" points="630.7292,337.1094,634.8958,347.526,639.0625,337.1094,634.8958,341.276" style="stroke:#009FDB;stroke-width:1.0416666666666667;"/><line style="stroke:#009FDB;stroke-width:3.125;" x1="795.3125" x2="795.3125" y1="464.1276" y2="498.4863"/><polygon fill="#009FDB" points="791.1458,488.0697,795.3125,498.4863,799.4792,488.0697,795.3125,492.2363" style="stroke:#009FDB;stroke-width:1.0416666666666667;"/><line style="stroke:#009FDB;stroke-width:3.125;" x1="925.5208" x2="950" y1="448.5189" y2="448.5189"/><polygon fill="#009FDB" points="945.8333,516.7074,950,527.124,954.1667,516.7074,950,520.874" style="stroke:#009FDB;stroke-width:3.125;"/><line style="stroke:#009FDB;stroke-width:3.125;" x1="950" x2="950" y1="448.5189" y2="588.0371"/><line style="stroke:#009FDB;stroke-width:3.125;" x1="950" x2="807.8125" y1="588.0371" y2="588.0371"/><polygon fill="#009FDB" points="818.2292,583.8704,807.8125,588.0371,818.2292,592.2038,814.0625,588.0371" style="stroke:#009FDB;stroke-width:1.0416666666666667;"/><line style="stroke:#009FDB;stroke-width:3.125;" x1="795.3125" x2="795.3125" y1="542.2038" y2="575.5371"/><polygon fill="#009FDB" points="791.1458,565.1204,795.3125,575.5371,799.4792,565.1204,795.3125,569.2871" style="stroke:#009FDB;stroke-width:1.0416666666666667;"/><line style="stroke:#009FDB;stroke-width:3.125;" x1="459.375" x2="459.375" y1="413.6393" y2="496.4355"/><polygon fill="#009FDB" points="455.2083,486.0189,459.375,496.4355,463.5417,486.0189,459.375,490.1855" style="stroke:#009FDB;stroke-width:1.0416666666666667;"/><line style="stroke:#009FDB;stroke-width:3.125;" x1="795.3125" x2="795.3125" y1="413.6393" y2="432.9102"/><polygon fill="#009FDB" points="791.1458,422.4935,795.3125,432.9102,799.4792,422.4935,795.3125,426.6602" style="stroke:#009FDB;stroke-width:1.0416666666666667;"/><line style="stroke:#009FDB;stroke-width:3.125;" x1="459.375" x2="459.375" y1="554.7038" y2="621.3704"/><polygon fill="#009FDB" points="455.2083,610.9538,459.375,621.3704,463.5417,610.9538,459.375,615.1204" style="stroke:#009FDB;stroke-width:1.0416666666666667;"/><line style="stroke:#009FDB;stroke-width:3.125;" x1="795.3125" x2="795.3125" y1="600.5371" y2="621.3704"/><polygon fill="#009FDB" points="791.1458,610.9538,795.3125,621.3704,799.4792,610.9538,795.3125,615.1204" style="stroke:#009FDB;stroke-width:1.0416666666666667;"/><line style="stroke:#009FDB;stroke-width:3.125;" x1="634.8958" x2="634.8958" y1="391.2435" y2="412.0768"/><polygon fill="#009FDB" points="630.7292,401.6602,634.8958,412.0768,639.0625,401.6602,634.8958,405.8268" style="stroke:#009FDB;stroke-width:1.0416666666666667;"/><line style="stroke:#009FDB;stroke-width:3.125;" x1="634.8958" x2="634.8958" y1="622.9329" y2="642.2038"/><polygon fill="#009FDB" points="630.7292,631.7871,634.8958,642.2038,639.0625,631.7871,634.8958,635.9538" style="stroke:#009FDB;stroke-width:1.0416666666666667;"/><line style="stroke:#009FDB;stroke-width:3.125;" x1="634.8958" x2="634.8958" y1="700.472" y2="721.3053"/><polygon fill="#009FDB" points="630.7292,710.8887,634.8958,721.3053,639.0625,710.8887,634.8958,715.0553" style="stroke:#009FDB;stroke-width:1.0416666666666667;"/><line style="stroke:#009FDB;stroke-width:3.125;" x1="634.8958" x2="634.8958" y1="765.0228" y2="785.8561"/><polygon fill="#009FDB" points="630.7292,775.4395,634.8958,785.8561,639.0625,775.4395,634.8958,779.6061" style="stroke:#009FDB;stroke-width:1.0416666666666667;"/><line style="stroke:#009FDB;stroke-width:3.125;" x1="634.8958" x2="634.8958" y1="858.6751" y2="879.5085"/><polygon fill="#009FDB" points="630.7292,869.0918,634.8958,879.5085,639.0625,869.0918,634.8958,873.2585" style="stroke:#009FDB;stroke-width:1.0416666666666667;"/><line style="stroke:#009FDB;stroke-width:3.125;" x1="634.8958" x2="634.8958" y1="923.2259" y2="944.0592"/><polygon fill="#009FDB" points="630.7292,933.6426,634.8958,944.0592,639.0625,933.6426,634.8958,937.8092" style="stroke:#009FDB;stroke-width:1.0416666666666667;"/><text fill="#009FDB" font-family="Verdana" font-size="12.5" lengthAdjust="spacing" textLength="104.1667" x="106.25" y="31.3944">registry pipeline</text><text fill="#009FDB" font-family="Verdana" font-size="12.5" lengthAdjust="spacing" textLength="129.1667" x="570.8333" y="31.3944">data-model pipeline</text><rect fill="#F2F2F2" height="134.2611" id="_legend" rx="10.4167" ry="10.4167" style="stroke:#C2C2C2;stroke-width:1.0416666666666667;" width="437.5" x="536.4583" y="998.1934"/><text fill="#5A5A5A" font-family="Verdana" font-size="14.5833" lengthAdjust="spacing" textLength="41.6667" x="559.375" y="1036.7299">Name</text><text fill="#5A5A5A" font-family="Verdana" font-size="14.5833" lengthAdjust="spacing" textLength="82.2917" x="694.7917" y="1036.7299">Description</text><text fill="#5A5A5A" font-family="Verdana" font-size="14.5833" lengthAdjust="spacing" textLength="73.9583" x="559.375" y="1070.3725">{NewVer}</text><text fill="#5A5A5A" font-family="Verdana" font-size="14.5833" lengthAdjust="spacing" textLength="260.4167" x="690.625" y="1070.3725">&#1042;&#1077;&#1088;&#1089;&#1110;&#1103; &#1088;&#1077;&#1108;&#1089;&#1090;&#1088;&#1091; &#1097;&#1086; &#1088;&#1086;&#1079;&#1075;&#1086;&#1088;&#1090;&#1072;&#1108;&#1090;&#1100;&#1089;&#1103;</text><text fill="#5A5A5A" font-family="Verdana" font-size="14.5833" lengthAdjust="spacing" textLength="114.5833" x="559.375" y="1104.0151">{project-name}</text><text fill="#5A5A5A" font-family="Verdana" font-size="14.5833" lengthAdjust="spacing" textLength="254.1667" x="694.7917" y="1104.0151">&#1030;&#1084;'&#1103; &#1087;&#1088;&#1086;&#1077;&#1082;&#1090;&#1091;/&#1088;&#1077;&#1087;&#1086;&#1079;&#1080;&#1090;&#1086;&#1088;&#1110;&#1102; &#1089;&#1077;&#1088;&#1074;&#1110;&#1089;&#1091;</text><line style="stroke:#5A5A5A;stroke-width:1.0416666666666667;" x1="551.0417" x2="959.375" y1="1014.86" y2="1014.86"/><line style="stroke:#5A5A5A;stroke-width:1.0416666666666667;" x1="551.0417" x2="959.375" y1="1048.5026" y2="1048.5026"/><line style="stroke:#5A5A5A;stroke-width:1.0416666666666667;" x1="551.0417" x2="959.375" y1="1082.1452" y2="1082.1452"/><line style="stroke:#5A5A5A;stroke-width:1.0416666666666667;" x1="551.0417" x2="959.375" y1="1115.7878" y2="1115.7878"/><line style="stroke:#5A5A5A;stroke-width:1.0416666666666667;" x1="551.0417" x2="551.0417" y1="1014.86" y2="1115.7878"/><line style="stroke:#5A5A5A;stroke-width:1.0416666666666667;" x1="682.2917" x2="682.2917" y1="1014.86" y2="1115.7878"/><line style="stroke:#5A5A5A;stroke-width:1.0416666666666667;" x1="959.375" x2="959.375" y1="1014.86" y2="1115.7878"/><!--SRC=[ZLB1QXin4BtlLqpf8SbIetjzA2HkUtEXfRqhk-ErQbaIaZQnoGPY6mg5qa09-OxI4bfASNv1-qSToLxNEHHwMLQZUM_UlAT7VenJX5DPOsNvF6iiLi9vEmSZ34gXiCcUvlc9HUuHZDNliV2E5Rh4K-xGCOj6kppFB3hVuqPa4pwQyFJdD3VfPqhTih_7SreBMUuc_2Ty8gJCcf9xtakLFOMH-gqf8_NW65n1E_4yx- -Ltw5rGYlm6Yw6U4x7In0ATjjEqVD87L7EIE4ZzYKgj14TruMHji1O9_G9x9GoHWlaELSbtITfZEsisX42hxXG6O0OmU7p6Rc69Rn1Reind6XL2a_w7E2C13qx0if5mU4StH510FwXflFexy0u3m29RvJH5zBivCGBRGkAi7PZgBPKPU9AweKYQvpdNXImpJIXNjSAZX_6bMPpAVTezhSbqAipjETMa5Rgt6PUwcA25iIKLqH1tWznLiVeCyOkjlYUubEyPAoVFOulCZuOYLn1RS2XFHC57hYDxnIa4KKtRu16wddNawgPn2hkRqKrzid2PaZa3GpG5LQOw3OqculkHJJXIxXhhzf5UzjUGtj5XniwBAcqWlPZMCVQElm8tyEQQilmbUwNxIVgkUwe7cpIGFWGVXyGMRXFqBlmYm0h5hd3VUBwIJoHxRRz3EqYpW_VwB1eLqqCSBF67m00]--></g></svg>