<?xml version="1.0" encoding="us-ascii" standalone="no"?><svg xmlns="http://www.w3.org/2000/svg" xmlns:xlink="http://www.w3.org/1999/xlink" contentStyleType="text/css" height="575px" preserveAspectRatio="none" style="width:1046px;height:575px;background:#FFFFFF;" version="1.1" viewBox="0 0 1046 575" width="1046px" zoomAndPan="magnify"><defs/><g><!--class table--><g id="elem_table"><rect codeLine="7" fill="#F1F1F1" height="123.7813" id="table" rx="2.5" ry="2.5" style="stroke:#181818;stroke-width:0.5;" width="166" x="380" y="7"/><text fill="#000000" font-family="sans-serif" font-size="14" lengthAdjust="spacing" textLength="38" x="444" y="24.9951">Table</text><line style="stroke:#181818;stroke-width:0.5;" x1="381" x2="545" y1="33.2969" y2="33.2969"/><ellipse cx="391" cy="46.9453" fill="#000000" rx="3" ry="3" style="stroke:#000000;stroke-width:1.0;"/><text fill="#000000" font-family="sans-serif" font-size="14" lengthAdjust="spacing" textLength="59" x="400" y="50.292">id : UUID</text><line style="stroke:#181818;stroke-width:1.0;" x1="381" x2="545" y1="57.5938" y2="57.5938"/><text fill="#000000" font-family="sans-serif" font-size="14" lengthAdjust="spacing" textLength="87" x="386" y="74.5889">name: string</text><text fill="#000000" font-family="sans-serif" font-size="14" lengthAdjust="spacing" textLength="154" x="386" y="90.8857">historicalFlag: boolean</text><text fill="#000000" font-family="sans-serif" font-size="14" lengthAdjust="spacing" textLength="120" x="386" y="107.1826">objectReference:</text><text fill="#000000" font-family="sans-serif" font-size="14" lengthAdjust="spacing" textLength="126" x="386" y="123.4795">description: String</text></g><!--class index--><g id="elem_index"><rect codeLine="16" fill="#F1F1F1" height="91.1875" id="index" rx="2.5" ry="2.5" style="stroke:#181818;stroke-width:0.5;" width="217" x="121.5" y="215.23"/><text fill="#000000" font-family="sans-serif" font-size="14" lengthAdjust="spacing" textLength="37" x="211.5" y="233.2251">Index</text><line style="stroke:#181818;stroke-width:0.5;" x1="122.5" x2="337.5" y1="241.5269" y2="241.5269"/><ellipse cx="132.5" cy="255.1753" fill="#000000" rx="3" ry="3" style="stroke:#000000;stroke-width:1.0;"/><text fill="#000000" font-family="sans-serif" font-size="14" lengthAdjust="spacing" textLength="59" x="141.5" y="258.522">id : UUID</text><line style="stroke:#181818;stroke-width:1.0;" x1="122.5" x2="337.5" y1="265.8237" y2="265.8237"/><text fill="#000000" font-family="sans-serif" font-size="14" lengthAdjust="spacing" textLength="87" x="127.5" y="282.8189">name: string</text><text fill="#000000" font-family="sans-serif" font-size="14" lengthAdjust="spacing" textLength="205" x="127.5" y="299.1157">columns: array[Index.Column]</text></g><!--class index_column--><g id="elem_index_column"><rect codeLine="23" fill="#F1F1F1" height="74.8906" id="index_column" rx="2.5" ry="2.5" style="stroke:#181818;stroke-width:0.5;" width="242" x="7" y="390.86"/><text fill="#000000" font-family="sans-serif" font-size="14" lengthAdjust="spacing" textLength="94" x="81" y="408.8551">Index.Column</text><line style="stroke:#181818;stroke-width:0.5;" x1="8" x2="248" y1="417.1569" y2="417.1569"/><text fill="#000000" font-family="sans-serif" font-size="14" lengthAdjust="spacing" textLength="87" x="13" y="434.152">name: string</text><text fill="#000000" font-family="sans-serif" font-size="14" lengthAdjust="spacing" textLength="230" x="13" y="450.4489">sorting: enum[ASC, DESC, NONE]</text><line style="stroke:#181818;stroke-width:0.5;" x1="8" x2="248" y1="457.7506" y2="457.7506"/></g><!--class unique_constraint--><g id="elem_unique_constraint"><rect codeLine="28" fill="#F1F1F1" height="42.2969" id="unique_constraint" rx="2.5" ry="2.5" style="stroke:#181818;stroke-width:0.5;" width="126" x="284" y="407.16"/><text fill="#000000" font-family="sans-serif" font-size="14" lengthAdjust="spacing" textLength="120" x="287" y="425.1551">UniqueConstraint</text><line style="stroke:#181818;stroke-width:0.5;" x1="285" x2="409" y1="433.4569" y2="433.4569"/><line style="stroke:#181818;stroke-width:0.5;" x1="285" x2="409" y1="441.4569" y2="441.4569"/></g><!--class primary_key_constraint--><g id="elem_primary_key_constraint"><rect codeLine="30" fill="#F1F1F1" height="42.2969" id="primary_key_constraint" rx="2.5" ry="2.5" style="stroke:#181818;stroke-width:0.5;" width="152" x="329" y="525.75"/><text fill="#000000" font-family="sans-serif" font-size="14" lengthAdjust="spacing" textLength="146" x="332" y="543.7451">PrimaryKeyConstraint</text><line style="stroke:#181818;stroke-width:0.5;" x1="330" x2="480" y1="552.0469" y2="552.0469"/><line style="stroke:#181818;stroke-width:0.5;" x1="330" x2="480" y1="560.0469" y2="560.0469"/></g><!--class column--><g id="elem_column"><rect codeLine="32" fill="#F1F1F1" height="140.0781" id="column" rx="2.5" ry="2.5" style="stroke:#181818;stroke-width:0.5;" width="181" x="516.5" y="190.78"/><text fill="#000000" font-family="sans-serif" font-size="14" lengthAdjust="spacing" textLength="53" x="580.5" y="208.7751">Column</text><line style="stroke:#181818;stroke-width:0.5;" x1="517.5" x2="696.5" y1="217.0769" y2="217.0769"/><ellipse cx="527.5" cy="230.7253" fill="#000000" rx="3" ry="3" style="stroke:#000000;stroke-width:1.0;"/><text fill="#000000" font-family="sans-serif" font-size="14" lengthAdjust="spacing" textLength="59" x="536.5" y="234.072">id : UUID</text><line style="stroke:#181818;stroke-width:1.0;" x1="517.5" x2="696.5" y1="241.3737" y2="241.3737"/><text fill="#000000" font-family="sans-serif" font-size="14" lengthAdjust="spacing" textLength="87" x="522.5" y="258.3689">name: string</text><text fill="#000000" font-family="sans-serif" font-size="14" lengthAdjust="spacing" textLength="125" x="522.5" y="274.6657">description: string</text><text fill="#000000" font-family="sans-serif" font-size="14" lengthAdjust="spacing" textLength="169" x="522.5" y="290.9626">type: enum[clarify types]</text><text fill="#000000" font-family="sans-serif" font-size="14" lengthAdjust="spacing" textLength="137" x="522.5" y="307.2595">defaultValue: object</text><text fill="#000000" font-family="sans-serif" font-size="14" lengthAdjust="spacing" textLength="113" x="522.5" y="323.5564">notNull: boolean</text></g><!--class foreign_key--><g id="elem_foreign_key"><rect codeLine="42" fill="#F1F1F1" height="107.4844" id="foreign_key" rx="2.5" ry="2.5" style="stroke:#181818;stroke-width:0.5;" width="307" x="732.5" y="207.08"/><text fill="#000000" font-family="sans-serif" font-size="14" lengthAdjust="spacing" textLength="77" x="847.5" y="225.0751">ForeignKey</text><line style="stroke:#181818;stroke-width:0.5;" x1="733.5" x2="1038.5" y1="233.3769" y2="233.3769"/><ellipse cx="743.5" cy="247.0253" fill="#000000" rx="3" ry="3" style="stroke:#000000;stroke-width:1.0;"/><text fill="#000000" font-family="sans-serif" font-size="14" lengthAdjust="spacing" textLength="59" x="752.5" y="250.372">id : UUID</text><line style="stroke:#181818;stroke-width:1.0;" x1="733.5" x2="1038.5" y1="257.6737" y2="257.6737"/><text fill="#000000" font-family="sans-serif" font-size="14" lengthAdjust="spacing" textLength="87" x="738.5" y="274.6689">name: string</text><text fill="#000000" font-family="sans-serif" font-size="14" lengthAdjust="spacing" textLength="127" x="738.5" y="290.9657">targetTable: string</text><text fill="#000000" font-family="sans-serif" font-size="14" lengthAdjust="spacing" textLength="295" x="738.5" y="307.2626">columnPairs: array[ForeignKey.ColumnPair]</text></g><!--class foreign_key_column_pair--><g id="elem_foreign_key_column_pair"><rect codeLine="50" fill="#F1F1F1" height="74.8906" id="foreign_key_column_pair" rx="2.5" ry="2.5" style="stroke:#181818;stroke-width:0.5;" width="201" x="785.5" y="390.86"/><text fill="#000000" font-family="sans-serif" font-size="14" lengthAdjust="spacing" textLength="159" x="806.5" y="408.8551">ForeignKey.ColumnPair</text><line style="stroke:#181818;stroke-width:0.5;" x1="786.5" x2="985.5" y1="417.1569" y2="417.1569"/><text fill="#000000" font-family="sans-serif" font-size="14" lengthAdjust="spacing" textLength="189" x="791.5" y="434.152">sourceColumnName: string</text><text fill="#000000" font-family="sans-serif" font-size="14" lengthAdjust="spacing" textLength="182" x="791.5" y="450.4489">targetColumnName: string</text><line style="stroke:#181818;stroke-width:0.5;" x1="786.5" x2="985.5" y1="457.7506" y2="457.7506"/></g><!--class ddm_role_permission--><g id="elem_ddm_role_permission"><rect codeLine="55" fill="#F1F1F1" height="123.7813" id="ddm_role_permission" rx="2.5" ry="2.5" style="stroke:#181818;stroke-width:0.5;" width="375" x="581.5" y="7"/><text fill="#000000" font-family="sans-serif" font-size="14" lengthAdjust="spacing" textLength="140" x="699" y="24.9951">DdmRolePermission</text><line style="stroke:#181818;stroke-width:0.5;" x1="582.5" x2="955.5" y1="33.2969" y2="33.2969"/><ellipse cx="592.5" cy="46.9453" fill="#000000" rx="3" ry="3" style="stroke:#000000;stroke-width:1.0;"/><text fill="#000000" font-family="sans-serif" font-size="14" lengthAdjust="spacing" textLength="135" x="601.5" y="50.292">permissionId : UUID</text><line style="stroke:#181818;stroke-width:1.0;" x1="582.5" x2="955.5" y1="57.5938" y2="57.5938"/><text fill="#000000" font-family="sans-serif" font-size="14" lengthAdjust="spacing" textLength="118" x="587.5" y="74.5889">roleName : string</text><text fill="#000000" font-family="sans-serif" font-size="14" lengthAdjust="spacing" textLength="253" x="587.5" y="90.8857">objectName : string // it's table name</text><text fill="#000000" font-family="sans-serif" font-size="14" lengthAdjust="spacing" textLength="143" x="587.5" y="107.1826">columnName : string</text><text fill="#000000" font-family="sans-serif" font-size="14" lengthAdjust="spacing" textLength="363" x="587.5" y="123.4795">operation: enum[INSERT, SELECT, UPDATE, DELETE]</text></g><!--reverse link index to unique_constraint--><g id="link_index_unique_constraint"><path d="M311.25,327.59 C311.25,327.59 311.25,407.03 311.25,407.03 " fill="none" id="index-backto-unique_constraint" style="stroke:#181818;stroke-width:1.0;"/><polygon fill="none" points="304.25,327.59,311.25,307.59,318.25,327.59,304.25,327.59" style="stroke:#181818;stroke-width:1.0;"/></g><!--reverse link unique_constraint to primary_key_constraint--><g id="link_unique_constraint_primary_key_constraint"><path d="M369.5,470.78 C369.5,470.78 369.5,525.58 369.5,525.58 " fill="none" id="unique_constraint-backto-primary_key_constraint" style="stroke:#181818;stroke-width:1.0;"/><polygon fill="none" points="362.5,470.78,369.5,450.78,376.5,470.78,362.5,470.78" style="stroke:#181818;stroke-width:1.0;"/></g><!--link table to index--><g id="link_table_index"><path codeLine="65" d="M390,140.28 C390,140.28 390,261.05 390,261.05 C390,261.05 347.94,261.05 347.94,261.05 " fill="none" id="table-index" style="stroke:#181818;stroke-width:1.0;stroke-dasharray:7.0,7.0;"/><line style="stroke:#181818;stroke-width:1.0;" x1="386" x2="394" y1="136.28" y2="136.28"/><line style="stroke:#181818;stroke-width:1.0;" x1="386" x2="394" y1="139.28" y2="139.28"/><line style="stroke:#181818;stroke-width:1.0;" x1="390" x2="390" y1="140.28" y2="132.28"/><line style="stroke:#181818;stroke-width:1.0;" x1="347.94" x2="339.94" y1="261.05" y2="267.05"/><line style="stroke:#181818;stroke-width:1.0;" x1="347.94" x2="339.94" y1="261.05" y2="255.05"/><line style="stroke:#181818;stroke-width:1.0;" x1="347.94" x2="339.94" y1="261.05" y2="261.05"/><ellipse cx="353.94" cy="261.05" fill="none" rx="4" ry="4" style="stroke:#181818;stroke-width:1.0;"/></g><!--link table to column--><g id="link_table_column"><path codeLine="66" d="M526.33,140.21 C526.33,140.21 526.33,181.51 526.33,181.51 " fill="none" id="table-column" style="stroke:#181818;stroke-width:1.0;stroke-dasharray:7.0,7.0;"/><line style="stroke:#181818;stroke-width:1.0;" x1="522.33" x2="530.33" y1="136.21" y2="136.21"/><line style="stroke:#181818;stroke-width:1.0;" x1="522.33" x2="530.33" y1="139.21" y2="139.21"/><line style="stroke:#181818;stroke-width:1.0;" x1="526.33" x2="526.33" y1="140.21" y2="132.21"/><line style="stroke:#181818;stroke-width:1.0;" x1="526.33" x2="532.33" y1="181.51" y2="189.51"/><line style="stroke:#181818;stroke-width:1.0;" x1="526.33" x2="520.33" y1="181.51" y2="189.51"/><line style="stroke:#181818;stroke-width:1.0;" x1="526.33" x2="526.33" y1="181.51" y2="189.51"/><ellipse cx="526.33" cy="175.51" fill="none" rx="4" ry="4" style="stroke:#181818;stroke-width:1.0;"/></g><!--link table to foreign_key--><g id="link_table_foreign_key"><path codeLine="67" d="M536.17,140.13 C536.17,140.13 536.17,161.05 536.17,161.05 C536.17,161.05 844.5,161.05 844.5,161.05 C844.5,161.05 844.5,197.85 844.5,197.85 " fill="none" id="table-foreign_key" style="stroke:#181818;stroke-width:1.0;stroke-dasharray:7.0,7.0;"/><line style="stroke:#181818;stroke-width:1.0;" x1="532.17" x2="540.17" y1="136.13" y2="136.13"/><line style="stroke:#181818;stroke-width:1.0;" x1="532.17" x2="540.17" y1="139.13" y2="139.13"/><line style="stroke:#181818;stroke-width:1.0;" x1="536.17" x2="536.17" y1="140.13" y2="132.13"/><line style="stroke:#181818;stroke-width:1.0;" x1="844.5" x2="850.5" y1="197.85" y2="205.85"/><line style="stroke:#181818;stroke-width:1.0;" x1="844.5" x2="838.5" y1="197.85" y2="205.85"/><line style="stroke:#181818;stroke-width:1.0;" x1="844.5" x2="844.5" y1="197.85" y2="205.85"/><ellipse cx="844.5" cy="191.85" fill="none" rx="4" ry="4" style="stroke:#181818;stroke-width:1.0;"/></g><!--link table to unique_constraint--><g id="link_table_unique_constraint"><path codeLine="68" d="M400,140.09 C400,140.09 400,398.04 400,398.04 " fill="none" id="table-unique_constraint" style="stroke:#181818;stroke-width:1.0;stroke-dasharray:7.0,7.0;"/><line style="stroke:#181818;stroke-width:1.0;" x1="396" x2="404" y1="136.09" y2="136.09"/><line style="stroke:#181818;stroke-width:1.0;" x1="396" x2="404" y1="139.09" y2="139.09"/><line style="stroke:#181818;stroke-width:1.0;" x1="400" x2="400" y1="140.09" y2="132.09"/><line style="stroke:#181818;stroke-width:1.0;" x1="400" x2="406" y1="398.04" y2="406.04"/><line style="stroke:#181818;stroke-width:1.0;" x1="400" x2="394" y1="398.04" y2="406.04"/><line style="stroke:#181818;stroke-width:1.0;" x1="400" x2="400" y1="398.04" y2="406.04"/><ellipse cx="400" cy="392.04" fill="none" rx="4" ry="4" style="stroke:#181818;stroke-width:1.0;"/></g><!--link table to primary_key_constraint--><g id="link_table_primary_key_constraint"><path codeLine="69" d="M445.5,139.89 C445.5,139.89 445.5,516.71 445.5,516.71 " fill="none" id="table-primary_key_constraint" style="stroke:#181818;stroke-width:1.0;stroke-dasharray:7.0,7.0;"/><line style="stroke:#181818;stroke-width:1.0;" x1="441.5" x2="449.5" y1="135.89" y2="135.89"/><line style="stroke:#181818;stroke-width:1.0;" x1="441.5" x2="449.5" y1="138.89" y2="138.89"/><line style="stroke:#181818;stroke-width:1.0;" x1="445.5" x2="445.5" y1="139.89" y2="131.89"/><line style="stroke:#181818;stroke-width:1.0;" x1="445.5" x2="451.5" y1="516.71" y2="524.71"/><line style="stroke:#181818;stroke-width:1.0;" x1="445.5" x2="439.5" y1="516.71" y2="524.71"/><line style="stroke:#181818;stroke-width:1.0;" x1="445.5" x2="445.5" y1="516.71" y2="524.71"/><ellipse cx="445.5" cy="510.71" fill="none" rx="4" ry="4" style="stroke:#181818;stroke-width:1.0;"/></g><!--reverse link foreign_key to foreign_key_column_pair--><g id="link_foreign_key_foreign_key_column_pair"><path codeLine="71" d="M886,330.74 C886,330.74 886,390.4 886,390.4 " fill="none" id="foreign_key-backto-foreign_key_column_pair" style="stroke:#181818;stroke-width:1.0;"/><ellipse cx="886" cy="323.74" fill="#FFFFFF" rx="8" ry="8" style="stroke:#181818;stroke-width:1.0;"/><line style="stroke:#181818;stroke-width:1.0;" x1="886" x2="886" y1="331.74" y2="315.74"/><line style="stroke:#181818;stroke-width:1.0;" x1="878" x2="894" y1="323.74" y2="323.74"/></g><!--reverse link index to index_column--><g id="link_index_index_column"><path codeLine="72" d="M185.25,322.59 C185.25,322.59 185.25,390.51 185.25,390.51 " fill="none" id="index-backto-index_column" style="stroke:#181818;stroke-width:1.0;"/><ellipse cx="185.25" cy="315.59" fill="#FFFFFF" rx="8" ry="8" style="stroke:#181818;stroke-width:1.0;"/><line style="stroke:#181818;stroke-width:1.0;" x1="185.25" x2="185.25" y1="323.59" y2="307.59"/><line style="stroke:#181818;stroke-width:1.0;" x1="177.25" x2="193.25" y1="315.59" y2="315.59"/></g><!--SRC=[ZLHDRzim3BthLn2z1DYQzEvRaRX0i28Byh5B4GIApIHSPScJvBL6k_y-VRYndMHOBuxuA3vIZsG6SAGSmHuHJAai2rP6EXF8s03uRqKvb5hj11O6NiWUWSk3m1mohLuCx14jCyyaIwvv0O8ashf4KDeU5MCeBTaQRbRS4Tm0Ds3z2TuOm1V7dC1wFPquOpXq7yaBJC1OJVBWp2CPgpHbN3m8VaXWfvH0Bfr7xNvYPXUuHuqomyH1EPfCKsb9oGIMaU9FMy1KvlWQ2Y1_-bm1cH9L8Kq2N6jUFmMEqJY0cmlonj7csCRmaEgCs3Xvt2a1b5NnTBySty8azT_PzrdQervB-bNXM4aNoqdQG5y5qF5_e82l5cNU96wZvveAhkjlM9ynbD6nVSRw6ir5WfQoyyhE-_uhPQyz9zIFIYD29hYcVHqWimaHUru9-uEBojs97VUyoiug8Tffw8Zre3JIGRhdXlhsqVIF_5oHbki3sZ2h5rCmvwHFaz0cQhhklPlhfNHkd5VLJCYsTBvGeL6LpZ06pAxLTiNLIJh9YuKJPOww86ESr25XdXTRxU1jUSAZ7AqzFHV6t_TPe5D1R44FXRix83lus6elvqcmYt2NZiV-XuPFPyjqiRg5PVgOZjtlUZwvNwL-4HxJLLm25cdVtqSZzTRCTW-AcVfOHz- -utAeU-xhAy5OTug-3eV_wX-B_ol-HdVx_m80]--></g></svg>