<?xml version="1.0" encoding="us-ascii" standalone="no"?><svg xmlns="http://www.w3.org/2000/svg" xmlns:xlink="http://www.w3.org/1999/xlink" contentStyleType="text/css" height="440px" preserveAspectRatio="none" style="width:610px;height:440px;background:#FFFFFF;" version="1.1" viewBox="0 0 610 440" width="610px" zoomAndPan="magnify"><defs/><g><text fill="#000000" font-family="sans-serif" font-size="14" font-weight="bold" lengthAdjust="spacing" textLength="154" x="221.25" y="22.9951">&#1055;&#1088;&#1086;&#1094;&#1077;&#1089; &#1074;&#1080;&#1076;&#1072;&#1083;&#1077;&#1085;&#1085;&#1103;</text><!--entity checkout--><g id="elem_checkout"><rect fill="#F1F1F1" height="36.2969" rx="2.5" ry="2.5" style="stroke:#181818;stroke-width:0.5;" width="85" x="7" y="60.5869"/><text fill="#000000" font-family="sans-serif" font-size="14" lengthAdjust="spacing" textLength="65" x="17" y="83.582">checkout</text></g><!--entity initRegistry--><g id="elem_initRegistry"><rect fill="#F1F1F1" height="68.8906" rx="2.5" ry="2.5" style="stroke:#181818;stroke-width:0.5;" width="112" x="127.5" y="44.2969"/><text fill="#000000" font-family="sans-serif" font-size="14" lengthAdjust="spacing" textLength="85" x="137.5" y="67.292">&#1030;&#1085;&#1110;&#1094;&#1110;&#1072;&#1083;&#1110;&#1079;&#1072;&#1094;&#1110;&#1103;</text><text fill="#000000" font-family="sans-serif" font-size="14" lengthAdjust="spacing" textLength="92" x="137.5" y="83.5889">&#1082;&#1086;&#1084;&#1087;&#1086;&#1085;&#1077;&#1085;&#1090;&#1110;&#1074;</text><text fill="#000000" font-family="sans-serif" font-size="14" lengthAdjust="spacing" textLength="59" x="137.5" y="99.8857">&#1088;&#1077;&#1108;&#1089;&#1090;&#1088;&#1091;</text></g><!--entity cleanupTrigger--><g id="elem_cleanupTrigger"><rect fill="#F1F1F1" height="68.8906" rx="2.5" ry="2.5" style="stroke:#181818;stroke-width:0.5;" width="122" x="274.5" y="44.2969"/><text fill="#000000" font-family="sans-serif" font-size="14" lengthAdjust="spacing" textLength="49" x="284.5" y="67.292">&#1047;&#1072;&#1087;&#1091;&#1089;&#1082;</text><text fill="#000000" font-family="sans-serif" font-size="14" lengthAdjust="spacing" textLength="102" x="284.5" y="83.5889">Delete-release</text><text fill="#000000" font-family="sans-serif" font-size="14" lengthAdjust="spacing" textLength="81" x="284.5" y="99.8857">&#1087;&#1072;&#1081;&#1087;&#1083;&#1072;&#1081;&#1085;&#1110;&#1074;</text></g><!--entity modelComponent--><g id="elem_modelComponent"><rect fill="#F1F1F1" height="68.8906" rx="2.5" ry="2.5" style="stroke:#181818;stroke-width:0.5;" width="108" x="67.5" y="173.1869"/><text fill="#000000" font-family="sans-serif" font-size="14" lengthAdjust="spacing" textLength="81" x="77.5" y="196.182">&#1042;&#1080;&#1076;&#1072;&#1083;&#1077;&#1085;&#1085;&#1103;</text><text fill="#000000" font-family="sans-serif" font-size="14" lengthAdjust="spacing" textLength="88" x="77.5" y="212.4789">&#1082;&#1086;&#1084;&#1087;&#1086;&#1085;&#1077;&#1085;&#1090;&#1091;</text><text fill="#000000" font-family="sans-serif" font-size="14" lengthAdjust="spacing" textLength="43" x="77.5" y="228.7757">model</text></g><!--entity restComponent--><g id="elem_restComponent"><rect fill="#F1F1F1" height="68.8906" rx="2.5" ry="2.5" style="stroke:#181818;stroke-width:0.5;" width="108" x="210.5" y="173.1869"/><text fill="#000000" font-family="sans-serif" font-size="14" lengthAdjust="spacing" textLength="81" x="220.5" y="196.182">&#1042;&#1080;&#1076;&#1072;&#1083;&#1077;&#1085;&#1085;&#1103;</text><text fill="#000000" font-family="sans-serif" font-size="14" lengthAdjust="spacing" textLength="88" x="220.5" y="212.4789">&#1082;&#1086;&#1084;&#1087;&#1086;&#1085;&#1077;&#1085;&#1090;&#1091;</text><text fill="#000000" font-family="sans-serif" font-size="14" lengthAdjust="spacing" textLength="52" x="220.5" y="228.7757">rest-api</text></g><!--entity kafkaComponent--><g id="elem_kafkaComponent"><rect fill="#F1F1F1" height="68.8906" rx="2.5" ry="2.5" style="stroke:#181818;stroke-width:0.5;" width="108" x="353.5" y="173.1869"/><text fill="#000000" font-family="sans-serif" font-size="14" lengthAdjust="spacing" textLength="81" x="363.5" y="196.182">&#1042;&#1080;&#1076;&#1072;&#1083;&#1077;&#1085;&#1085;&#1103;</text><text fill="#000000" font-family="sans-serif" font-size="14" lengthAdjust="spacing" textLength="88" x="363.5" y="212.4789">&#1082;&#1086;&#1084;&#1087;&#1086;&#1085;&#1077;&#1085;&#1090;&#1091;</text><text fill="#000000" font-family="sans-serif" font-size="14" lengthAdjust="spacing" textLength="61" x="363.5" y="228.7757">kafka-api</text></g><!--entity soapComponent--><g id="elem_soapComponent"><rect fill="#F1F1F1" height="68.8906" rx="2.5" ry="2.5" style="stroke:#181818;stroke-width:0.5;" width="108" x="496.5" y="173.1869"/><text fill="#000000" font-family="sans-serif" font-size="14" lengthAdjust="spacing" textLength="81" x="506.5" y="196.182">&#1042;&#1080;&#1076;&#1072;&#1083;&#1077;&#1085;&#1085;&#1103;</text><text fill="#000000" font-family="sans-serif" font-size="14" lengthAdjust="spacing" textLength="88" x="506.5" y="212.4789">&#1082;&#1086;&#1084;&#1087;&#1086;&#1085;&#1077;&#1085;&#1090;&#1091;</text><text fill="#000000" font-family="sans-serif" font-size="14" lengthAdjust="spacing" textLength="59" x="506.5" y="228.7757">soap-api</text></g><!--entity deleteRegistryRegulations--><g id="elem_deleteRegistryRegulations"><rect fill="#F1F1F1" height="36.2969" rx="2.5" ry="2.5" style="stroke:#181818;stroke-width:0.5;" width="238" x="216.5" y="302.0769"/><text fill="#000000" font-family="sans-serif" font-size="14" lengthAdjust="spacing" textLength="218" x="226.5" y="325.072">&#1042;&#1080;&#1076;&#1072;&#1083;&#1077;&#1085;&#1085;&#1103; registry-regulations</text></g><!--entity recreateRegistryRegulations--><g id="elem_recreateRegistryRegulations"><rect fill="#F1F1F1" height="36.2969" rx="2.5" ry="2.5" style="stroke:#181818;stroke-width:0.5;" width="250" x="210.5" y="398.3669"/><text fill="#000000" font-family="sans-serif" font-size="14" lengthAdjust="spacing" textLength="230" x="220.5" y="421.362">&#1042;&#1110;&#1076;&#1085;&#1086;&#1074;&#1083;&#1077;&#1085;&#1085;&#1103; registry-regulations</text></g><!--link checkout to initRegistry--><g id="link_checkout_initRegistry"><path d="M92.42,78.7369 C102.05,78.7369 111.67,78.7369 121.3,78.7369 " fill="none" id="checkout-to-initRegistry" style="stroke:#181818;stroke-width:1.0;"/><polygon fill="#181818" points="126.29,78.7369,117.29,74.7369,121.29,78.7369,117.29,82.7369,126.29,78.7369" style="stroke:#181818;stroke-width:1.0;"/></g><!--link initRegistry to cleanupTrigger--><g id="link_initRegistry_cleanupTrigger"><path d="M239.91,78.7369 C249.39,78.7369 258.87,78.7369 268.36,78.7369 " fill="none" id="initRegistry-to-cleanupTrigger" style="stroke:#181818;stroke-width:1.0;"/><polygon fill="#181818" points="273.26,78.7369,264.26,74.7369,268.26,78.7369,264.26,82.7369,273.26,78.7369" style="stroke:#181818;stroke-width:1.0;"/></g><!--link cleanupTrigger to modelComponent--><g id="link_cleanupTrigger_modelComponent"><path d="M278.43,113.5769 C248.23,131.4869 211.18,153.4569 180.67,171.5469 " fill="none" id="cleanupTrigger-to-modelComponent" style="stroke:#181818;stroke-width:1.0;"/><polygon fill="#181818" points="176.83,174.4169,186.6129,173.2787,181.1338,171.8718,182.5407,166.3927,176.83,174.4169" style="stroke:#181818;stroke-width:1.0;"/></g><!--link cleanupTrigger to restComponent--><g id="link_cleanupTrigger_restComponent"><path d="M316.66,113.4069 C307.27,130.1869 295.87,150.5569 286.13,167.9669 " fill="none" id="cleanupTrigger-to-restComponent" style="stroke:#181818;stroke-width:1.0;"/><polygon fill="#181818" points="283.43,171.7969,291.3122,165.8917,285.8691,167.4322,284.3286,161.9891,283.43,171.7969" style="stroke:#181818;stroke-width:1.0;"/></g><!--link cleanupTrigger to kafkaComponent--><g id="link_cleanupTrigger_kafkaComponent"><path d="M354.61,113.4069 C364.13,130.1869 375.68,150.5569 385.57,167.9669 " fill="none" id="cleanupTrigger-to-kafkaComponent" style="stroke:#181818;stroke-width:1.0;"/><polygon fill="#181818" points="388.31,171.7969,387.3351,161.9964,385.837,167.4513,380.3821,165.9532,388.31,171.7969" style="stroke:#181818;stroke-width:1.0;"/></g><!--link cleanupTrigger to soapComponent--><g id="link_cleanupTrigger_soapComponent"><path d="M392.83,113.5769 C423.3,131.5569 460.69,153.6269 491.41,171.7569 " fill="none" id="cleanupTrigger-to-soapComponent" style="stroke:#181818;stroke-width:1.0;"/><polygon fill="#181818" points="495.29,174.6269,489.5793,166.6027,490.9862,172.0818,485.5071,173.4887,495.29,174.6269" style="stroke:#181818;stroke-width:1.0;"/></g><!--link modelComponent to deleteRegistryRegulations--><g id="link_modelComponent_deleteRegistryRegulations"><path d="M175.78,236.6769 C213.27,256.0569 262.28,281.3869 296.07,298.8469 " fill="none" id="modelComponent-to-deleteRegistryRegulations" style="stroke:#181818;stroke-width:1.0;"/><polygon fill="#181818" points="300.36,301.5769,294.1869,293.9027,295.9139,299.2895,290.5271,301.0165,300.36,301.5769" style="stroke:#181818;stroke-width:1.0;"/></g><!--link restComponent to deleteRegistryRegulations--><g id="link_restComponent_deleteRegistryRegulations"><path d="M286.19,242.4069 C297.57,260.1369 311.2,281.3669 321.24,297.0069 " fill="none" id="restComponent-to-deleteRegistryRegulations" style="stroke:#181818;stroke-width:1.0;"/><polygon fill="#181818" points="324.24,300.6769,322.7296,290.9445,321.5326,296.4733,316.0038,295.2763,324.24,300.6769" style="stroke:#181818;stroke-width:1.0;"/></g><!--link kafkaComponent to deleteRegistryRegulations--><g id="link_kafkaComponent_deleteRegistryRegulations"><path d="M385.51,242.4069 C373.96,260.1369 360.14,281.3669 349.96,297.0069 " fill="none" id="kafkaComponent-to-deleteRegistryRegulations" style="stroke:#181818;stroke-width:1.0;"/><polygon fill="#181818" points="346.92,300.6769,355.1774,295.3089,349.6439,296.484,348.4688,290.9506,346.92,300.6769" style="stroke:#181818;stroke-width:1.0;"/></g><!--link soapComponent to deleteRegistryRegulations--><g id="link_soapComponent_deleteRegistryRegulations"><path d="M496.25,236.5369 C458.46,255.9769 408.93,281.4469 374.89,298.9569 " fill="none" id="soapComponent-to-deleteRegistryRegulations" style="stroke:#181818;stroke-width:1.0;"/><polygon fill="#181818" points="370.57,301.6969,380.4029,301.1365,375.0161,299.4095,376.7431,294.0227,370.57,301.6969" style="stroke:#181818;stroke-width:1.0;"/></g><!--link deleteRegistryRegulations to recreateRegistryRegulations--><g id="link_deleteRegistryRegulations_recreateRegistryRegulations"><path d="M335.5,338.5169 C335.5,353.5769 335.5,375.5369 335.5,392.1569 " fill="none" id="deleteRegistryRegulations-to-recreateRegistryRegulations" style="stroke:#181818;stroke-width:1.0;"/><polygon fill="#181818" points="335.5,397.0169,339.5,388.0169,335.5,392.0169,331.5,388.0169,335.5,397.0169" style="stroke:#181818;stroke-width:1.0;"/></g><!--SRC=[fP91Ri8m44NtEONLVQxGJNi2r6KsLd23bSIER6VH7HI9BL9LqMMlW12eBJHmXV6DEZ4AnL4eg6oSVCtFysJ-66uoHk3T3c5h9x2o8m8B-8Gbp643AwYWijD0frmKLD6Sv5B8UA1apeXH9Gi2nM93HOAGctZ0ubIMvePGJHfnR809qcPsOcSr7SyFcDVAJYC1QzZ2D-pmhEfxxJFM5v70nbRsrOvG3-tOeRdWfiSIherwyl1lYDtPiHt1EXBtB6E6XGeVL3EyO8VLBpmtxbdL-7sdQ11byQ1uaZ3b0L_Qa-ZiSno9NFPPvcZkxKxcXHHCcF_H5DCcf0Ltm5fSoKlfOqeFGAUk96f9YmEm5XVoy6_skM4kIPbHmwNG3j9tSJMnzdwhFX1JMo9gYqjw0HG_LOnsOuDcGqbuww_KiQYBhGNn9GdxQ6cbtcNnS-noj8BfilYZzc_TE_wQur43vyn-B-VSNbldp2ShpPnEPlO3]--></g></svg>