<?xml version="1.0" encoding="us-ascii" standalone="no"?><svg xmlns="http://www.w3.org/2000/svg" xmlns:xlink="http://www.w3.org/1999/xlink" contentStyleType="text/css" height="622px" preserveAspectRatio="none" style="width:1152px;height:622px;background:#FFFFFF;" version="1.1" viewBox="0 0 1152 622" width="1152px" zoomAndPan="magnify"><defs/><g><rect fill="#FFFFFF" height="70.2656" style="stroke:#2688D4;stroke-width:1.0;" width="10" x="507" y="128.7266"/><rect fill="#FFFFFF" height="128.5313" style="stroke:#2688D4;stroke-width:1.0;" width="10" x="507" y="245.2578"/><rect fill="#FFFFFF" height="70.2656" style="stroke:#2688D4;stroke-width:1.0;" width="10" x="507" y="420.0547"/><rect fill="#FFFFFF" height="12" style="stroke:#2688D4;stroke-width:1.0;" width="10" x="927" y="157.8594"/><rect fill="#FFFFFF" height="12" style="stroke:#2688D4;stroke-width:1.0;" width="10" x="927" y="449.1875"/><rect fill="#FFFFFF" height="12" style="stroke:#2688D4;stroke-width:1.0;" width="10" x="1076" y="274.3906"/><rect fill="#FFFFFF" height="12" style="stroke:#2688D4;stroke-width:1.0;" width="10" x="1076" y="332.6563"/><line style="stroke:#2688D4;stroke-width:0.5;stroke-dasharray:5.0,5.0;" x1="53" x2="53" y1="97.5938" y2="525.4531"/><line style="stroke:#2688D4;stroke-width:0.5;stroke-dasharray:5.0,5.0;" x1="512" x2="512" y1="97.5938" y2="525.4531"/><line style="stroke:#2688D4;stroke-width:0.5;stroke-dasharray:5.0,5.0;" x1="932" x2="932" y1="97.5938" y2="525.4531"/><line style="stroke:#2688D4;stroke-width:0.5;stroke-dasharray:5.0,5.0;" x1="1081" x2="1081" y1="97.5938" y2="525.4531"/><text fill="#000000" font-family="sans-serif" font-size="14" lengthAdjust="spacing" textLength="79" x="10.5" y="77.9951">&#1056;&#1086;&#1079;&#1088;&#1086;&#1073;&#1085;&#1080;&#1082;</text><text fill="#000000" font-family="sans-serif" font-size="14" lengthAdjust="spacing" textLength="86" x="9" y="94.292">&#1088;&#1077;&#1075;&#1083;&#1072;&#1084;&#1077;&#1085;&#1090;&#1091;</text><ellipse cx="53" cy="13.5" fill="#E2E2F0" rx="8" ry="8" style="stroke:#2688D4;stroke-width:0.5;"/><path d="M53,21.5 L53,48.5 M40,29.5 L66,29.5 M53,48.5 L40,63.5 M53,48.5 L66,63.5 " fill="none" style="stroke:#2688D4;stroke-width:0.5;"/><text fill="#000000" font-family="sans-serif" font-size="14" lengthAdjust="spacing" textLength="79" x="10.5" y="537.4482">&#1056;&#1086;&#1079;&#1088;&#1086;&#1073;&#1085;&#1080;&#1082;</text><text fill="#000000" font-family="sans-serif" font-size="14" lengthAdjust="spacing" textLength="86" x="9" y="553.7451">&#1088;&#1077;&#1075;&#1083;&#1072;&#1084;&#1077;&#1085;&#1090;&#1091;</text><ellipse cx="53" cy="565.5469" fill="#E2E2F0" rx="8" ry="8" style="stroke:#2688D4;stroke-width:0.5;"/><path d="M53,573.5469 L53,600.5469 M40,581.5469 L66,581.5469 M53,600.5469 L40,615.5469 M53,600.5469 L66,615.5469 " fill="none" style="stroke:#2688D4;stroke-width:0.5;"/><rect fill="#FFFFFF" height="30.2969" rx="2.5" ry="2.5" style="stroke:#2688D4;stroke-width:0.5;" width="100" x="462" y="66.2969"/><text fill="#000000" font-family="sans-serif" font-size="14" lengthAdjust="spacing" textLength="86" x="469" y="86.292">Admin portal</text><rect fill="#FFFFFF" height="30.2969" rx="2.5" ry="2.5" style="stroke:#2688D4;stroke-width:0.5;" width="100" x="462" y="524.4531"/><text fill="#000000" font-family="sans-serif" font-size="14" lengthAdjust="spacing" textLength="86" x="469" y="544.4482">Admin portal</text><rect fill="#FFFFFF" height="46.5938" rx="2.5" ry="2.5" style="stroke:#2688D4;stroke-width:0.5;" width="148" x="858" y="50"/><text fill="#000000" font-family="sans-serif" font-size="14" lengthAdjust="spacing" textLength="134" x="865" y="69.9951">Registry Regulation</text><text fill="#000000" font-family="sans-serif" font-size="14" lengthAdjust="spacing" textLength="91" x="886.5" y="86.292">Management</text><rect fill="#FFFFFF" height="46.5938" rx="2.5" ry="2.5" style="stroke:#2688D4;stroke-width:0.5;" width="148" x="858" y="524.4531"/><text fill="#000000" font-family="sans-serif" font-size="14" lengthAdjust="spacing" textLength="134" x="865" y="544.4482">Registry Regulation</text><text fill="#000000" font-family="sans-serif" font-size="14" lengthAdjust="spacing" textLength="91" x="886.5" y="560.7451">Management</text><rect fill="#FFFFFF" height="30.2969" rx="2.5" ry="2.5" style="stroke:#2688D4;stroke-width:0.5;" width="130" x="1016" y="66.2969"/><text fill="#000000" font-family="sans-serif" font-size="14" lengthAdjust="spacing" textLength="116" x="1023" y="86.292">Language Server</text><rect fill="#FFFFFF" height="30.2969" rx="2.5" ry="2.5" style="stroke:#2688D4;stroke-width:0.5;" width="130" x="1016" y="524.4531"/><text fill="#000000" font-family="sans-serif" font-size="14" lengthAdjust="spacing" textLength="116" x="1023" y="544.4482">Language Server</text><rect fill="#FFFFFF" height="70.2656" style="stroke:#2688D4;stroke-width:1.0;" width="10" x="507" y="128.7266"/><rect fill="#FFFFFF" height="128.5313" style="stroke:#2688D4;stroke-width:1.0;" width="10" x="507" y="245.2578"/><rect fill="#FFFFFF" height="70.2656" style="stroke:#2688D4;stroke-width:1.0;" width="10" x="507" y="420.0547"/><rect fill="#FFFFFF" height="12" style="stroke:#2688D4;stroke-width:1.0;" width="10" x="927" y="157.8594"/><rect fill="#FFFFFF" height="12" style="stroke:#2688D4;stroke-width:1.0;" width="10" x="927" y="449.1875"/><rect fill="#FFFFFF" height="12" style="stroke:#2688D4;stroke-width:1.0;" width="10" x="1076" y="274.3906"/><rect fill="#FFFFFF" height="12" style="stroke:#2688D4;stroke-width:1.0;" width="10" x="1076" y="332.6563"/><polygon fill="#2688D4" points="495,124.7266,505,128.7266,495,132.7266,499,128.7266" style="stroke:#2688D4;stroke-width:1.0;"/><line style="stroke:#2688D4;stroke-width:1.0;" x1="53" x2="501" y1="128.7266" y2="128.7266"/><text fill="#000000" font-family="sans-serif" font-size="13" lengthAdjust="spacing" textLength="388" x="60" y="123.6606">&#1074;&#1110;&#1076;&#1082;&#1088;&#1080;&#1074;&#1072;&#1108; &#1087;&#1077;&#1088;&#1089;&#1087;&#1077;&#1082;&#1090;&#1080;&#1074;&#1091; &#1088;&#1077;&#1076;&#1072;&#1075;&#1091;&#1074;&#1072;&#1085;&#1085;&#1103; &#1089;&#1090;&#1088;&#1091;&#1082;&#1090;&#1091;&#1088;&#1080; &#1090;&#1072;&#1073;&#1083;&#1080;&#1094;&#1100;</text><polygon fill="#2688D4" points="915,153.8594,925,157.8594,915,161.8594,919,157.8594" style="stroke:#2688D4;stroke-width:1.0;"/><line style="stroke:#2688D4;stroke-width:1.0;" x1="517" x2="921" y1="157.8594" y2="157.8594"/><text fill="#000000" font-family="sans-serif" font-size="13" lengthAdjust="spacing" textLength="380" x="524" y="152.7935">[HTTPS] GET /versions/candidate/&lt;vcId&gt;/data-model/tables</text><polygon fill="#2688D4" points="528,165.8594,518,169.8594,528,173.8594,524,169.8594" style="stroke:#2688D4;stroke-width:1.0;"/><line style="stroke:#2688D4;stroke-width:1.0;stroke-dasharray:2.0,2.0;" x1="522" x2="931" y1="169.8594" y2="169.8594"/><text fill="#000000" font-family="sans-serif" font-size="13" lengthAdjust="spacing" textLength="276" x="534" y="182.9263">200, (text/xml) createTables.xml document</text><polygon fill="#2688D4" points="64,194.9922,54,198.9922,64,202.9922,60,198.9922" style="stroke:#2688D4;stroke-width:1.0;"/><line style="stroke:#2688D4;stroke-width:1.0;stroke-dasharray:2.0,2.0;" x1="58" x2="511" y1="198.9922" y2="198.9922"/><text fill="#000000" font-family="sans-serif" font-size="13" lengthAdjust="spacing" textLength="211" x="70" y="212.0591">MonacoEditor &#1079; createTables.xml</text><polygon fill="#2688D4" points="495,241.2578,505,245.2578,495,249.2578,499,245.2578" style="stroke:#2688D4;stroke-width:1.0;"/><line style="stroke:#2688D4;stroke-width:1.0;" x1="53" x2="501" y1="245.2578" y2="245.2578"/><text fill="#000000" font-family="sans-serif" font-size="13" lengthAdjust="spacing" textLength="258" x="60" y="240.1919">&#1088;&#1077;&#1076;&#1072;&#1075;&#1091;&#1074;&#1072;&#1085;&#1085;&#1103; &#1089;&#1090;&#1088;&#1091;&#1082;&#1090;&#1091;&#1088;&#1080; &#1084;&#1086;&#1076;&#1077;&#1083;&#1110; &#1076;&#1072;&#1085;&#1080;&#1093;</text><polygon fill="#2688D4" points="1064,270.3906,1074,274.3906,1064,278.3906,1068,274.3906" style="stroke:#2688D4;stroke-width:1.0;"/><line style="stroke:#2688D4;stroke-width:1.0;" x1="517" x2="1070" y1="274.3906" y2="274.3906"/><text fill="#000000" font-family="sans-serif" font-size="13" lengthAdjust="spacing" textLength="256" x="524" y="269.3247">[LSP] &#1110;&#1085;&#1110;&#1094;&#1110;&#1072;&#1083;&#1110;&#1079;&#1072;&#1094;&#1110;&#1103; &#1088;&#1077;&#1076;&#1072;&#1075;&#1091;&#1074;&#1072;&#1085;&#1085;&#1103; &#1092;&#1072;&#1081;&#1083;&#1091;</text><polygon fill="#2688D4" points="528,282.3906,518,286.3906,528,290.3906,524,286.3906" style="stroke:#2688D4;stroke-width:1.0;"/><line style="stroke:#2688D4;stroke-width:1.0;stroke-dasharray:2.0,2.0;" x1="522" x2="1080" y1="286.3906" y2="286.3906"/><text fill="#000000" font-family="sans-serif" font-size="13" lengthAdjust="spacing" textLength="36" x="534" y="299.4575">result</text><polygon fill="#2688D4" points="1064,328.6563,1074,332.6563,1064,336.6563,1068,332.6563" style="stroke:#2688D4;stroke-width:1.0;"/><line style="stroke:#2688D4;stroke-width:1.0;" x1="517" x2="1070" y1="332.6563" y2="332.6563"/><text fill="#000000" font-family="sans-serif" font-size="13" lengthAdjust="spacing" textLength="267" x="524" y="327.5903">[LSP] validation, autocompletion requests</text><polygon fill="#2688D4" points="528,340.6563,518,344.6563,528,348.6563,524,344.6563" style="stroke:#2688D4;stroke-width:1.0;"/><line style="stroke:#2688D4;stroke-width:1.0;stroke-dasharray:2.0,2.0;" x1="522" x2="1080" y1="344.6563" y2="344.6563"/><text fill="#000000" font-family="sans-serif" font-size="13" lengthAdjust="spacing" textLength="36" x="534" y="357.7231">result</text><polygon fill="#2688D4" points="64,369.7891,54,373.7891,64,377.7891,60,373.7891" style="stroke:#2688D4;stroke-width:1.0;"/><line style="stroke:#2688D4;stroke-width:1.0;stroke-dasharray:2.0,2.0;" x1="58" x2="511" y1="373.7891" y2="373.7891"/><text fill="#000000" font-family="sans-serif" font-size="13" lengthAdjust="spacing" textLength="183" x="70" y="386.856">&#1087;&#1110;&#1076;&#1082;&#1072;&#1079;&#1082;&#1080;, &#1072;&#1074;&#1090;&#1086;&#1076;&#1086;&#1087;&#1086;&#1074;&#1085;&#1077;&#1085;&#1085;&#1103;</text><polygon fill="#2688D4" points="495,416.0547,505,420.0547,495,424.0547,499,420.0547" style="stroke:#2688D4;stroke-width:1.0;"/><line style="stroke:#2688D4;stroke-width:1.0;" x1="53" x2="501" y1="420.0547" y2="420.0547"/><text fill="#000000" font-family="sans-serif" font-size="13" lengthAdjust="spacing" textLength="241" x="60" y="414.9888">&#1047;&#1073;&#1077;&#1088;&#1110;&#1075;&#1072;&#1108; &#1079;&#1084;&#1110;&#1085;&#1080; &#1074; &#1089;&#1090;&#1088;&#1091;&#1082;&#1090;&#1091;&#1088;&#1110; &#1090;&#1072;&#1073;&#1083;&#1080;&#1094;&#1100;</text><polygon fill="#2688D4" points="915,445.1875,925,449.1875,915,453.1875,919,449.1875" style="stroke:#2688D4;stroke-width:1.0;"/><line style="stroke:#2688D4;stroke-width:1.0;" x1="517" x2="921" y1="449.1875" y2="449.1875"/><text fill="#000000" font-family="sans-serif" font-size="13" lengthAdjust="spacing" textLength="391" x="524" y="444.1216">PUT (text/xml) /versions/candidate/&lt;vcId&gt;/data-model/tables</text><polygon fill="#2688D4" points="528,457.1875,518,461.1875,528,465.1875,524,461.1875" style="stroke:#2688D4;stroke-width:1.0;"/><line style="stroke:#2688D4;stroke-width:1.0;stroke-dasharray:2.0,2.0;" x1="522" x2="931" y1="461.1875" y2="461.1875"/><text fill="#000000" font-family="sans-serif" font-size="13" lengthAdjust="spacing" textLength="72" x="534" y="474.2544">status: 200</text><polygon fill="#2688D4" points="64,486.3203,54,490.3203,64,494.3203,60,490.3203" style="stroke:#2688D4;stroke-width:1.0;"/><line style="stroke:#2688D4;stroke-width:1.0;stroke-dasharray:2.0,2.0;" x1="58" x2="511" y1="490.3203" y2="490.3203"/><text fill="#000000" font-family="sans-serif" font-size="13" lengthAdjust="spacing" textLength="430" x="70" y="503.3872">&#1089;&#1090;&#1072;&#1090;&#1091;&#1089; &#1079;&#1073;&#1077;&#1088;&#1077;&#1078;&#1077;&#1085;&#1085;&#1103; &#1079;&#1084;&#1110;&#1085; (&#1074;&#1082;&#1083;&#1102;&#1095;&#1072;&#1102;&#1095;&#1080; optimistic locking &#1089;&#1090;&#1072;&#1090;&#1091;&#1089;&#1080;)</text><!--SRC=[fLLTJnD157tVNt63Bv209SGOGmm9256JOghK9-5Xt1tAXktCEZFROem9K3zUZBwO-kfFm0As5bh-mim_yinMiGtb8x4FqzcTS-yzvzmxBSkCPA69QynmaY88z7OiKgPObVGMYsGz5XNQP8dcGoVBpB2NJFCb5cvNbCn4z40cKb5zApPZSL95N0qmj-RkthiNtHb2FSruTcsg0UZAF4-akJPDZhaoY-QlCYv2Jcy2mcTHALaVnUQlGoFLk4J-i1Xlyc8i-6Nd9QPC7COf4-OcaB6IF6X9xbmMxu_6nhqTxh3YEfL2yrMkDQlm9Px8UYwOZCfu432laYRiTzktRRUBzOVjsOxjhWl2ux4zj2Vsm9vYrtFxhZ51JDCohmL1-ey_JIn6rLXGAfLXIGvXwIZW6Q_4sgZNX4sMC1DBiIvMcG2dAXScZr6gEXfKPAAI0K5hNDMuoa693WBKfva5r9Wdst9DUsIxuDgnBNlWlf8ziyTkr-tvRnpi-mFN6AWvWfP3r_18oEovB-Js86iNhxfUdaz323c03IUsupwuJp2RfRuSwCtJYqVbScbjWnwkbAa0JXf2T25a8eeZtA_2_LhuE5eeOCzcgZBYIG7t8-4QMH1FCtzepytEJjEauJkci5DDfYXK7D7b77eRRoYIOUQD2Nnj147oFArAmKAv4iM-PxPz8Mh4cPlhHNVxG1xR4zUaF0GJuDwV2qyqT1VNIXi4htkk2LUQ005jst0SJpxl9UNUOViBs0RI9VhS0CnbbfXWJ8qQIxoLy7MQ67wwGbbD4-wV4OIBguqUdshOANis60iKRsFjJ1DsBJJM2-rZClhWsFD3xLa6eoFr3Stt4zJ4yES3rRQdNhctgdN1G7XsrS2KdfU76_qVCwCDCvdEPsT4goS4dfxCdkUQauUqdt_bdGkWIQZkeXcVtKT4-BL3CZLn5NSp3YcHuRR_CnZEQ3jJlm40]--></g></svg>