<?xml version="1.0" encoding="us-ascii" standalone="no"?><svg xmlns="http://www.w3.org/2000/svg" xmlns:xlink="http://www.w3.org/1999/xlink" contentStyleType="text/css" height="344px" preserveAspectRatio="none" style="width:999px;height:344px;background:#FFFFFF;" version="1.1" viewBox="0 0 999 344" width="999px" zoomAndPan="magnify"><defs/><g><!--class SpringProcessEngineConfiguration--><g id="elem_SpringProcessEngineConfiguration"><rect codeLine="1" fill="#F1F1F1" height="64.2969" id="SpringProcessEngineConfiguration" rx="2.5" ry="2.5" style="stroke:#181818;stroke-width:0.5;" width="332" x="41" y="7"/><ellipse cx="83" cy="23" fill="#ADD1B2" rx="11" ry="11" style="stroke:#181818;stroke-width:1.0;"/><path d="M85.9688,28.6406 Q85.3906,28.9375 84.75,29.0781 Q84.1094,29.2344 83.4063,29.2344 Q80.9063,29.2344 79.5781,27.5938 Q78.2656,25.9375 78.2656,22.8125 Q78.2656,19.6875 79.5781,18.0313 Q80.9063,16.375 83.4063,16.375 Q84.1094,16.375 84.75,16.5313 Q85.4063,16.6875 85.9688,16.9844 L85.9688,19.7031 Q85.3438,19.125 84.75,18.8594 Q84.1563,18.5781 83.5313,18.5781 Q82.1875,18.5781 81.5,19.6563 Q80.8125,20.7188 80.8125,22.8125 Q80.8125,24.9063 81.5,25.9844 Q82.1875,27.0469 83.5313,27.0469 Q84.1563,27.0469 84.75,26.7813 Q85.3438,26.5 85.9688,25.9219 L85.9688,28.6406 Z " fill="#000000"/><text fill="#000000" font-family="sans-serif" font-size="14" lengthAdjust="spacing" textLength="240" x="103" y="27.8467">SpringProcessEngineConfiguration</text><line style="stroke:#181818;stroke-width:0.5;" x1="42" x2="372" y1="39" y2="39"/><text fill="#000000" font-family="sans-serif" font-size="14" lengthAdjust="spacing" textLength="320" x="47" y="55.9951">SpringExpressionManager expressionManager</text><line style="stroke:#181818;stroke-width:0.5;" x1="42" x2="372" y1="63.2969" y2="63.2969"/></g><!--class LowcodeSpringProcessEngineConfiguration--><g id="elem_LowcodeSpringProcessEngineConfiguration"><rect codeLine="5" fill="#ADD8E6" height="48" id="LowcodeSpringProcessEngineConfiguration" rx="2.5" ry="2.5" style="stroke:#008000;stroke-width:0.5;" width="334" x="7" y="140.44"/><ellipse cx="22" cy="156.44" fill="#ADD1B2" rx="11" ry="11" style="stroke:#181818;stroke-width:1.0;"/><path d="M24.9688,162.0806 Q24.3906,162.3775 23.75,162.5181 Q23.1094,162.6744 22.4063,162.6744 Q19.9063,162.6744 18.5781,161.0338 Q17.2656,159.3775 17.2656,156.2525 Q17.2656,153.1275 18.5781,151.4713 Q19.9063,149.815 22.4063,149.815 Q23.1094,149.815 23.75,149.9713 Q24.4063,150.1275 24.9688,150.4244 L24.9688,153.1431 Q24.3438,152.565 23.75,152.2994 Q23.1563,152.0181 22.5313,152.0181 Q21.1875,152.0181 20.5,153.0963 Q19.8125,154.1588 19.8125,156.2525 Q19.8125,158.3463 20.5,159.4244 Q21.1875,160.4869 22.5313,160.4869 Q23.1563,160.4869 23.75,160.2213 Q24.3438,159.94 24.9688,159.3619 L24.9688,162.0806 Z " fill="#000000"/><text fill="#000000" font-family="sans-serif" font-size="14" lengthAdjust="spacing" textLength="302" x="36" y="161.2867">LowcodeSpringProcessEngineConfiguration</text><line style="stroke:#008000;stroke-width:0.5;" x1="8" x2="340" y1="172.44" y2="172.44"/><line style="stroke:#008000;stroke-width:0.5;" x1="8" x2="340" y1="180.44" y2="180.44"/></g><!--class SpringExpressionManager--><g id="elem_SpringExpressionManager"><rect codeLine="7" fill="#F1F1F1" height="64.2969" id="SpringExpressionManager" rx="2.5" ry="2.5" style="stroke:#181818;stroke-width:0.5;" width="214" x="418" y="7"/><ellipse cx="433.9" cy="23" fill="#ADD1B2" rx="11" ry="11" style="stroke:#181818;stroke-width:1.0;"/><path d="M436.8688,28.6406 Q436.2906,28.9375 435.65,29.0781 Q435.0094,29.2344 434.3063,29.2344 Q431.8063,29.2344 430.4781,27.5938 Q429.1656,25.9375 429.1656,22.8125 Q429.1656,19.6875 430.4781,18.0313 Q431.8063,16.375 434.3063,16.375 Q435.0094,16.375 435.65,16.5313 Q436.3063,16.6875 436.8688,16.9844 L436.8688,19.7031 Q436.2438,19.125 435.65,18.8594 Q435.0563,18.5781 434.4313,18.5781 Q433.0875,18.5781 432.4,19.6563 Q431.7125,20.7188 431.7125,22.8125 Q431.7125,24.9063 432.4,25.9844 Q433.0875,27.0469 434.4313,27.0469 Q435.0563,27.0469 435.65,26.7813 Q436.2438,26.5 436.8688,25.9219 L436.8688,28.6406 Z " fill="#000000"/><text fill="#000000" font-family="sans-serif" font-size="14" lengthAdjust="spacing" textLength="180" x="448.1" y="27.8467">SpringExpressionManager</text><line style="stroke:#181818;stroke-width:0.5;" x1="419" x2="631" y1="39" y2="39"/><line style="stroke:#181818;stroke-width:0.5;" x1="419" x2="631" y1="47" y2="47"/><text fill="#000000" font-family="sans-serif" font-size="14" lengthAdjust="spacing" textLength="202" x="424" y="63.9951">ElResolver createElResolver()</text></g><!--class CamundaSpringExpressionManager--><g id="elem_CamundaSpringExpressionManager"><rect codeLine="11" fill="#ADD8E6" height="64.2969" id="CamundaSpringExpressionManager" rx="2.5" ry="2.5" style="stroke:#008000;stroke-width:0.5;" width="289" x="380.5" y="132.3"/><ellipse cx="400.45" cy="148.3" fill="#ADD1B2" rx="11" ry="11" style="stroke:#181818;stroke-width:1.0;"/><path d="M403.4188,153.9406 Q402.8406,154.2375 402.2,154.3781 Q401.5594,154.5344 400.8563,154.5344 Q398.3563,154.5344 397.0281,152.8937 Q395.7156,151.2375 395.7156,148.1125 Q395.7156,144.9875 397.0281,143.3312 Q398.3563,141.675 400.8563,141.675 Q401.5594,141.675 402.2,141.8312 Q402.8563,141.9875 403.4188,142.2844 L403.4188,145.0031 Q402.7938,144.425 402.2,144.1594 Q401.6063,143.8781 400.9813,143.8781 Q399.6375,143.8781 398.95,144.9562 Q398.2625,146.0187 398.2625,148.1125 Q398.2625,150.2062 398.95,151.2844 Q399.6375,152.3469 400.9813,152.3469 Q401.6063,152.3469 402.2,152.0812 Q402.7938,151.8 403.4188,151.2219 L403.4188,153.9406 Z " fill="#000000"/><text fill="#000000" font-family="sans-serif" font-size="14" lengthAdjust="spacing" textLength="246" x="415.55" y="153.1467">CamundaSpringExpressionManager</text><line style="stroke:#008000;stroke-width:0.5;" x1="381.5" x2="668.5" y1="164.3" y2="164.3"/><line style="stroke:#008000;stroke-width:0.5;" x1="381.5" x2="668.5" y1="172.3" y2="172.3"/><text fill="#000000" font-family="sans-serif" font-size="14" lengthAdjust="spacing" textLength="277" x="386.5" y="189.2951">CompositeElResolver createElResolver()</text></g><!--class ElResolver--><g id="elem_ElResolver"><rect codeLine="15" fill="#F1F1F1" height="64.2969" id="ElResolver" rx="2.5" ry="2.5" style="stroke:#181818;stroke-width:0.5;" width="104" x="792" y="7"/><ellipse cx="807" cy="23" fill="#A9DCDF" rx="11" ry="11" style="stroke:#181818;stroke-width:1.0;"/><path d="M807.1094,18.3438 L805.9531,23.4219 L808.2813,23.4219 L807.1094,18.3438 Z M805.625,16.1094 L808.6094,16.1094 L811.9688,28.5 L809.5156,28.5 L808.75,25.4375 L805.4688,25.4375 L804.7188,28.5 L802.2813,28.5 L805.625,16.1094 Z " fill="#000000"/><text fill="#000000" font-family="sans-serif" font-size="14" font-style="italic" lengthAdjust="spacing" textLength="72" x="821" y="27.8467">ElResolver</text><line style="stroke:#181818;stroke-width:0.5;" x1="793" x2="895" y1="39" y2="39"/><line style="stroke:#181818;stroke-width:0.5;" x1="793" x2="895" y1="47" y2="47"/><text fill="#000000" font-family="sans-serif" font-size="14" lengthAdjust="spacing" textLength="71" x="798" y="63.9951">getValue()</text></g><!--class CompositeElResolver--><g id="elem_CompositeElResolver"><rect codeLine="19" fill="#F1F1F1" height="64.2969" id="CompositeElResolver" rx="2.5" ry="2.5" style="stroke:#181818;stroke-width:0.5;" width="179" x="754.5" y="132.3"/><ellipse cx="769.5" cy="148.3" fill="#ADD1B2" rx="11" ry="11" style="stroke:#181818;stroke-width:1.0;"/><path d="M772.4688,153.9406 Q771.8906,154.2375 771.25,154.3781 Q770.6094,154.5344 769.9063,154.5344 Q767.4063,154.5344 766.0781,152.8937 Q764.7656,151.2375 764.7656,148.1125 Q764.7656,144.9875 766.0781,143.3312 Q767.4063,141.675 769.9063,141.675 Q770.6094,141.675 771.25,141.8312 Q771.9063,141.9875 772.4688,142.2844 L772.4688,145.0031 Q771.8438,144.425 771.25,144.1594 Q770.6563,143.8781 770.0313,143.8781 Q768.6875,143.8781 768,144.9562 Q767.3125,146.0187 767.3125,148.1125 Q767.3125,150.2062 768,151.2844 Q768.6875,152.3469 770.0313,152.3469 Q770.6563,152.3469 771.25,152.0812 Q771.8438,151.8 772.4688,151.2219 L772.4688,153.9406 Z " fill="#000000"/><text fill="#000000" font-family="sans-serif" font-size="14" lengthAdjust="spacing" textLength="147" x="783.5" y="153.1467">CompositeElResolver</text><line style="stroke:#181818;stroke-width:0.5;" x1="755.5" x2="932.5" y1="164.3" y2="164.3"/><line style="stroke:#181818;stroke-width:0.5;" x1="755.5" x2="932.5" y1="172.3" y2="172.3"/><text fill="#000000" font-family="sans-serif" font-size="14" lengthAdjust="spacing" textLength="71" x="760.5" y="189.2951">getValue()</text></g><!--class TransientVariableScopeElResolver--><g id="elem_TransientVariableScopeElResolver"><rect codeLine="23" fill="#ADD8E6" height="64.2969" id="TransientVariableScopeElResolver" rx="2.5" ry="2.5" style="stroke:#008000;stroke-width:0.5;" width="267" x="698.5" y="273.59"/><ellipse cx="713.5" cy="289.59" fill="#ADD1B2" rx="11" ry="11" style="stroke:#181818;stroke-width:1.0;"/><path d="M716.4688,295.2306 Q715.8906,295.5275 715.25,295.6681 Q714.6094,295.8244 713.9063,295.8244 Q711.4063,295.8244 710.0781,294.1838 Q708.7656,292.5275 708.7656,289.4025 Q708.7656,286.2775 710.0781,284.6213 Q711.4063,282.965 713.9063,282.965 Q714.6094,282.965 715.25,283.1213 Q715.9063,283.2775 716.4688,283.5744 L716.4688,286.2931 Q715.8438,285.715 715.25,285.4494 Q714.6563,285.1681 714.0313,285.1681 Q712.6875,285.1681 712,286.2463 Q711.3125,287.3088 711.3125,289.4025 Q711.3125,291.4963 712,292.5744 Q712.6875,293.6369 714.0313,293.6369 Q714.6563,293.6369 715.25,293.3713 Q715.8438,293.09 716.4688,292.5119 L716.4688,295.2306 Z " fill="#000000"/><text fill="#000000" font-family="sans-serif" font-size="14" lengthAdjust="spacing" textLength="235" x="727.5" y="294.4367">TransientVariableScopeElResolver</text><line style="stroke:#008000;stroke-width:0.5;" x1="699.5" x2="964.5" y1="305.59" y2="305.59"/><line style="stroke:#008000;stroke-width:0.5;" x1="699.5" x2="964.5" y1="313.59" y2="313.59"/><text fill="#000000" font-family="sans-serif" font-size="14" lengthAdjust="spacing" textLength="71" x="704.5" y="330.5851">getValue()</text></g><!--class CamundaConfiguration--><g id="elem_CamundaConfiguration"><rect codeLine="27" fill="#ADD8E6" height="64.2969" id="CamundaConfiguration" rx="2.5" ry="2.5" style="stroke:#008000;stroke-width:0.5;" width="246" x="94" y="273.59"/><ellipse cx="134.2" cy="289.59" fill="#ADD1B2" rx="11" ry="11" style="stroke:#181818;stroke-width:1.0;"/><path d="M137.1688,295.2306 Q136.5906,295.5275 135.95,295.6681 Q135.3094,295.8244 134.6063,295.8244 Q132.1063,295.8244 130.7781,294.1838 Q129.4656,292.5275 129.4656,289.4025 Q129.4656,286.2775 130.7781,284.6213 Q132.1063,282.965 134.6063,282.965 Q135.3094,282.965 135.95,283.1213 Q136.6063,283.2775 137.1688,283.5744 L137.1688,286.2931 Q136.5438,285.715 135.95,285.4494 Q135.3563,285.1681 134.7313,285.1681 Q133.3875,285.1681 132.7,286.2463 Q132.0125,287.3088 132.0125,289.4025 Q132.0125,291.4963 132.7,292.5744 Q133.3875,293.6369 134.7313,293.6369 Q135.3563,293.6369 135.95,293.3713 Q136.5438,293.09 137.1688,292.5119 L137.1688,295.2306 Z " fill="#000000"/><text fill="#000000" font-family="sans-serif" font-size="14" lengthAdjust="spacing" textLength="158" x="153.8" y="294.4367">CamundaConfiguration</text><line style="stroke:#008000;stroke-width:0.5;" x1="95" x2="339" y1="305.59" y2="305.59"/><line style="stroke:#008000;stroke-width:0.5;" x1="95" x2="339" y1="313.59" y2="313.59"/><text fill="#000000" font-family="sans-serif" font-size="14" lengthAdjust="spacing" textLength="234" x="100" y="330.5851">processEngineConfigurationImpl()</text></g><!--reverse link SpringProcessEngineConfiguration to LowcodeSpringProcessEngineConfiguration--><g id="link_SpringProcessEngineConfiguration_LowcodeSpringProcessEngineConfiguration"><path d="M193.21,91.68 C188.68,108.58 183.88,126.53 180.21,140.25 " fill="none" id="SpringProcessEngineConfiguration-backto-LowcodeSpringProcessEngineConfiguration" style="stroke:#181818;stroke-width:1.0;"/><polygon fill="none" points="186.65,90.09,198.59,72.58,200.18,93.71,186.65,90.09" style="stroke:#181818;stroke-width:1.0;"/></g><!--reverse link SpringExpressionManager to CamundaSpringExpressionManager--><g id="link_SpringExpressionManager_CamundaSpringExpressionManager"><path d="M525,92.52 C525,105.98 525,120.05 525,132.07 " fill="none" id="SpringExpressionManager-backto-CamundaSpringExpressionManager" style="stroke:#181818;stroke-width:1.0;"/><polygon fill="none" points="518,92.58,525,72.58,532,92.58,518,92.58" style="stroke:#181818;stroke-width:1.0;"/></g><!--reverse link ElResolver to CompositeElResolver--><g id="link_ElResolver_CompositeElResolver"><path d="M844,92.52 C844,105.98 844,120.05 844,132.07 " fill="none" id="ElResolver-backto-CompositeElResolver" style="stroke:#181818;stroke-width:1.0;"/><polygon fill="none" points="837,92.58,844,72.58,851,92.58,837,92.58" style="stroke:#181818;stroke-width:1.0;"/></g><!--reverse link ElResolver to TransientVariableScopeElResolver--><g id="link_ElResolver_TransientVariableScopeElResolver"><path d="M910.49,84.75 C926.05,98.26 940.98,114.34 951,132.3 C975.31,175.89 992.99,201.61 966,243.59 C958.26,255.64 947.49,265.34 935.39,273.15 " fill="none" id="ElResolver-backto-TransientVariableScopeElResolver" style="stroke:#181818;stroke-width:1.0;"/><polygon fill="none" points="906.4,89.64,895.23,71.64,915.19,78.75,906.4,89.64" style="stroke:#181818;stroke-width:1.0;"/></g><!--reverse link SpringProcessEngineConfiguration to SpringExpressionManager--><g id="link_SpringProcessEngineConfiguration_SpringExpressionManager"><path codeLine="31" d="M387.24,39.15 C397.34,39.15 407.45,39.15 417.56,39.15 " fill="none" id="SpringProcessEngineConfiguration-backto-SpringExpressionManager" style="stroke:#181818;stroke-width:1.0;"/><polygon fill="none" points="374.45,39.15,380.45,43.15,386.45,39.15,380.45,35.15,374.45,39.15" style="stroke:#181818;stroke-width:1.0;"/></g><!--link SpringExpressionManager to ElResolver--><g id="link_SpringExpressionManager_ElResolver"><path codeLine="32" d="M632.11,39.15 C683.45,39.15 742.94,39.15 785.79,39.15 " fill="none" id="SpringExpressionManager-to-ElResolver" style="stroke:#181818;stroke-width:1.0;"/><polygon fill="#181818" points="790.73,39.15,781.73,35.15,785.73,39.15,781.73,43.15,790.73,39.15" style="stroke:#181818;stroke-width:1.0;"/><text fill="#000000" font-family="sans-serif" font-size="13" lengthAdjust="spacing" textLength="48" x="688" y="32.2169">creates</text></g><!--reverse link LowcodeSpringProcessEngineConfiguration to CamundaConfiguration--><g id="link_LowcodeSpringProcessEngineConfiguration_CamundaConfiguration"><path codeLine="33" d="M166.86,194.44 C164.46,209.49 163.59,227.94 169,243.59 C172.66,254.18 178.99,264.33 185.88,273.21 " fill="none" id="LowcodeSpringProcessEngineConfiguration-backto-CamundaConfiguration" style="stroke:#181818;stroke-width:1.0;"/><polygon fill="#181818" points="167.89,189.65,162.3841,197.8161,167.0194,194.5736,170.2619,199.209,167.89,189.65" style="stroke:#181818;stroke-width:1.0;"/><text fill="#000000" font-family="sans-serif" font-size="13" lengthAdjust="spacing" textLength="48" x="170" y="239.6569">creates</text></g><!--reverse link CamundaSpringExpressionManager to CamundaConfiguration--><g id="link_CamundaSpringExpressionManager_CamundaConfiguration"><path codeLine="34" d="M374.43,194.27 C319.17,205.9 267.45,218.47 257,226.59 C241.96,238.29 232.07,257.2 225.89,273.48 " fill="none" id="CamundaSpringExpressionManager-backto-CamundaConfiguration" style="stroke:#181818;stroke-width:1.0;"/><polygon fill="#181818" points="379.14,193.07,369.5148,190.9829,374.2444,194.0863,371.141,198.8159,379.14,193.07" style="stroke:#181818;stroke-width:1.0;"/><text fill="#000000" font-family="sans-serif" font-size="13" lengthAdjust="spacing" textLength="372" x="258" y="239.6569">creates and injects into SpringProcessEngineConfiguration</text></g><!--link CamundaSpringExpressionManager to CompositeElResolver--><g id="link_CamundaSpringExpressionManager_CompositeElResolver"><path codeLine="35" d="M669.57,164.44 C696.27,164.44 723.55,164.44 748.35,164.44 " fill="none" id="CamundaSpringExpressionManager-to-CompositeElResolver" style="stroke:#181818;stroke-width:1.0;"/><polygon fill="#181818" points="753.27,164.44,744.27,160.44,748.27,164.44,744.27,168.44,753.27,164.44" style="stroke:#181818;stroke-width:1.0;"/><text fill="#000000" font-family="sans-serif" font-size="13" lengthAdjust="spacing" textLength="48" x="688" y="157.5069">creates</text></g><!--link CamundaSpringExpressionManager to TransientVariableScopeElResolver--><g id="link_CamundaSpringExpressionManager_TransientVariableScopeElResolver"><path codeLine="36" d="M580.79,196.91 C608.19,211.85 641.92,229.47 673,243.59 C693.97,253.12 716.91,262.52 738.66,270.97 " fill="none" id="CamundaSpringExpressionManager-to-TransientVariableScopeElResolver" style="stroke:#181818;stroke-width:1.0;"/><polygon fill="#181818" points="743.17,273.1,736.2286,266.113,738.5092,271.2898,733.3324,273.5704,743.17,273.1" style="stroke:#181818;stroke-width:1.0;"/><text fill="#000000" font-family="sans-serif" font-size="13" lengthAdjust="spacing" textLength="287" x="674" y="239.6569">creates and injects into CompositeElResolver</text></g><!--SRC=[dPF1JiGW48RlF0M95ptq1Rh6IzE3YIORrtYVqX5HEX2WkedntQLsDwrQfEwfOPZ-y_tm8pHuptVMAP9RPmHwNvDKX9MXHoLx1q4Puk-C7vhglNMnAHPlWK2Yu_YpmZuO4r-wD-PDc1QpycSDY9TIA_aK6jtZHiUEKZf4sWJSXxBHSJyE2aXjdlOuFGKycAdr7NgZN-DIE8I0K-7yOZ9GGTTJ2ocbKxX_gGmubUciyMgEaU22nWS78l0HSDO_w4WC3n19ldbOq3uYhVZztW5vXHHtd896uquOEzVwto6i0HuF_PI8398s6OphpkfnK3QHfaXT5qk5eRYQcoiFz-VPsaTmMHJBrYUfJ1pp2XoevOgUKGGVly7a7rDcPdIz5B3Lp4KKo4Ri3_w5uPy0]--></g></svg>