<?xml version="1.0" encoding="us-ascii" standalone="no"?><svg xmlns="http://www.w3.org/2000/svg" xmlns:xlink="http://www.w3.org/1999/xlink" contentStyleType="text/css" height="193px" preserveAspectRatio="none" style="width:220px;height:193px;background:#FFFFFF;" version="1.1" viewBox="0 0 220 193" width="220px" zoomAndPan="magnify"><defs/><g><path d="M17,8.9688 L17,10.9688 L25,10.9688 L25,9.9688 L20,9.9688 L20,8.9688 L17,8.9688 M17,11.9688 L17,16.4688 C17,16.7488 17.22,16.9688 17.5,16.9688 L24.5,16.9688 C24.78,16.9688 25,16.7488 25,16.4688 L25,11.9688 L17,11.9688 " fill="#000000" style="stroke:;stroke-width:0.0;stroke-dasharray:;"/><text fill="#000000" font-family="sans-serif" font-size="12" lengthAdjust="spacing" textLength="115" x="30" y="17.1387">registry-regulation</text><text fill="#000000" font-family="sans-serif" font-size="12" lengthAdjust="spacing" textLength="12" x="26" y="31.1074">...</text><path d="M27,36.9063 L27,38.9063 L35,38.9063 L35,37.9063 L30,37.9063 L30,36.9063 L27,36.9063 M27,39.9063 L27,44.4063 C27,44.6863 27.22,44.9063 27.5,44.9063 L34.5,44.9063 C34.78,44.9063 35,44.6863 35,44.4063 L35,39.9063 L27,39.9063 " fill="#000000" style="stroke:;stroke-width:0.0;stroke-dasharray:;"/><text fill="#000000" font-family="sans-serif" font-size="12" lengthAdjust="spacing" textLength="77" x="40" y="45.0762">notifications</text><path d="M37,50.875 L37,52.875 L45,52.875 L45,51.875 L40,51.875 L40,50.875 L37,50.875 M37,53.875 L37,58.375 C37,58.655 37.22,58.875 37.5,58.875 L44.5,58.875 C44.78,58.875 45,58.655 45,58.375 L45,53.875 L37,53.875 " fill="#000000" style="stroke:;stroke-width:0.0;stroke-dasharray:;"/><text fill="#000000" font-family="sans-serif" font-size="12" lengthAdjust="spacing" textLength="33" x="50" y="59.0449">email</text><path d="M47,64.8438 L47,66.8438 L55,66.8438 L55,65.8438 L50,65.8438 L50,64.8438 L47,64.8438 M47,67.8438 L47,72.3438 C47,72.6238 47.22,72.8438 47.5,72.8438 L54.5,72.8438 C54.78,72.8438 55,72.6238 55,72.3438 L55,67.8438 L47,67.8438 " fill="#000000" style="stroke:;stroke-width:0.0;stroke-dasharray:;"/><text fill="#000000" font-family="sans-serif" font-size="12" lengthAdjust="spacing" textLength="4" x="56" y="73.0137">&#160;</text><text fill="#000000" font-family="sans-serif" font-size="12" font-weight="bold" lengthAdjust="spacing" textLength="153" x="60" y="73.0137">&lt;template-directory&gt;</text><path d="M57,78.8125 L57,80.8125 L65,80.8125 L65,79.8125 L60,79.8125 L60,78.8125 L57,78.8125 M57,81.8125 L57,86.3125 C57,86.5925 57.22,86.8125 57.5,86.8125 L64.5,86.8125 C64.78,86.8125 65,86.5925 65,86.3125 L65,81.8125 L57,81.8125 " fill="#000000" style="stroke:;stroke-width:0.0;stroke-dasharray:;"/><text fill="#000000" font-family="sans-serif" font-size="12" lengthAdjust="spacing" textLength="21" x="70" y="86.9824">css</text><path d="M67,92.7813 L67,100.7813 L74,100.7813 L74,96.7813 L70,96.7813 L70,92.7813 L67,92.7813 M71,92.7813 L71,95.7813 L74,95.7813 L71,92.7813 " fill="#000000" style="stroke:;stroke-width:0.0;stroke-dasharray:;"/><text fill="#000000" font-family="sans-serif" font-size="12" lengthAdjust="spacing" textLength="54" x="80" y="100.9512">style.css</text><path d="M57,106.75 L57,108.75 L65,108.75 L65,107.75 L60,107.75 L60,106.75 L57,106.75 M57,109.75 L57,114.25 C57,114.53 57.22,114.75 57.5,114.75 L64.5,114.75 C64.78,114.75 65,114.53 65,114.25 L65,109.75 L57,109.75 " fill="#000000" style="stroke:;stroke-width:0.0;stroke-dasharray:;"/><text fill="#000000" font-family="sans-serif" font-size="12" lengthAdjust="spacing" textLength="45" x="70" y="114.9199">images</text><path d="M67,120.7188 L67,128.7188 L74,128.7188 L74,124.7188 L70,124.7188 L70,120.7188 L67,120.7188 M71,120.7188 L71,123.7188 L74,123.7188 L71,120.7188 " fill="#000000" style="stroke:;stroke-width:0.0;stroke-dasharray:;"/><text fill="#000000" font-family="sans-serif" font-size="12" lengthAdjust="spacing" textLength="61" x="80" y="128.8887">image.jpg</text><path d="M67,134.6875 L67,142.6875 L74,142.6875 L74,138.6875 L70,138.6875 L70,134.6875 L67,134.6875 M71,134.6875 L71,137.6875 L74,137.6875 L71,134.6875 " fill="#000000" style="stroke:;stroke-width:0.0;stroke-dasharray:;"/><text fill="#000000" font-family="sans-serif" font-size="12" lengthAdjust="spacing" textLength="12" x="80" y="142.8574">...</text><path d="M57,148.6563 L57,156.6563 L64,156.6563 L64,152.6563 L60,152.6563 L60,148.6563 L57,148.6563 M61,148.6563 L61,151.6563 L64,151.6563 L61,148.6563 " fill="#000000" style="stroke:;stroke-width:0.0;stroke-dasharray:;"/><text fill="#000000" font-family="sans-serif" font-size="12" lengthAdjust="spacing" textLength="94" x="70" y="156.8262">notification.ftlh</text><path d="M57,162.625 L57,170.625 L64,170.625 L64,166.625 L60,166.625 L60,162.625 L57,162.625 M61,162.625 L61,165.625 L64,165.625 L61,162.625 " fill="#000000" style="stroke:;stroke-width:0.0;stroke-dasharray:;"/><text fill="#000000" font-family="sans-serif" font-size="12" lengthAdjust="spacing" textLength="94" x="70" y="170.7949">notification.yml</text><text fill="#000000" font-family="sans-serif" font-size="12" lengthAdjust="spacing" textLength="12" x="46" y="184.7637">...</text><rect fill="none" height="2" style="stroke:#888888;stroke-width:1.0;" width="2" x="9" y="11.9844"/><line style="stroke:#888888;stroke-width:1.0;" x1="10" x2="10" y1="14.9844" y2="26.9531"/><line style="stroke:#888888;stroke-width:1.0;" x1="10" x2="18" y1="26.9531" y2="26.9531"/><rect fill="none" height="2" style="stroke:#888888;stroke-width:1.0;" width="2" x="19" y="39.9219"/><line style="stroke:#888888;stroke-width:1.0;" x1="10" x2="10" y1="14.9844" y2="40.9219"/><line style="stroke:#888888;stroke-width:1.0;" x1="10" x2="18" y1="40.9219" y2="40.9219"/><rect fill="none" height="2" style="stroke:#888888;stroke-width:1.0;" width="2" x="29" y="53.8906"/><line style="stroke:#888888;stroke-width:1.0;" x1="20" x2="20" y1="42.9219" y2="54.8906"/><line style="stroke:#888888;stroke-width:1.0;" x1="20" x2="28" y1="54.8906" y2="54.8906"/><rect fill="none" height="2" style="stroke:#888888;stroke-width:1.0;" width="2" x="39" y="67.8594"/><line style="stroke:#888888;stroke-width:1.0;" x1="30" x2="30" y1="56.8906" y2="68.8594"/><line style="stroke:#888888;stroke-width:1.0;" x1="30" x2="38" y1="68.8594" y2="68.8594"/><rect fill="none" height="2" style="stroke:#888888;stroke-width:1.0;" width="2" x="49" y="81.8281"/><line style="stroke:#888888;stroke-width:1.0;" x1="40" x2="40" y1="70.8594" y2="82.8281"/><line style="stroke:#888888;stroke-width:1.0;" x1="40" x2="48" y1="82.8281" y2="82.8281"/><line style="stroke:#888888;stroke-width:1.0;" x1="50" x2="50" y1="84.8281" y2="96.7969"/><line style="stroke:#888888;stroke-width:1.0;" x1="50" x2="58" y1="96.7969" y2="96.7969"/><rect fill="none" height="2" style="stroke:#888888;stroke-width:1.0;" width="2" x="49" y="109.7656"/><line style="stroke:#888888;stroke-width:1.0;" x1="40" x2="40" y1="70.8594" y2="110.7656"/><line style="stroke:#888888;stroke-width:1.0;" x1="40" x2="48" y1="110.7656" y2="110.7656"/><line style="stroke:#888888;stroke-width:1.0;" x1="50" x2="50" y1="112.7656" y2="124.7344"/><line style="stroke:#888888;stroke-width:1.0;" x1="50" x2="58" y1="124.7344" y2="124.7344"/><line style="stroke:#888888;stroke-width:1.0;" x1="50" x2="50" y1="112.7656" y2="138.7031"/><line style="stroke:#888888;stroke-width:1.0;" x1="50" x2="58" y1="138.7031" y2="138.7031"/><line style="stroke:#888888;stroke-width:1.0;" x1="40" x2="40" y1="70.8594" y2="152.6719"/><line style="stroke:#888888;stroke-width:1.0;" x1="40" x2="48" y1="152.6719" y2="152.6719"/><line style="stroke:#888888;stroke-width:1.0;" x1="40" x2="40" y1="70.8594" y2="166.6406"/><line style="stroke:#888888;stroke-width:1.0;" x1="40" x2="48" y1="166.6406" y2="166.6406"/><line style="stroke:#888888;stroke-width:1.0;" x1="30" x2="30" y1="56.8906" y2="180.6094"/><line style="stroke:#888888;stroke-width:1.0;" x1="30" x2="38" y1="180.6094" y2="180.6094"/><!--SRC=[VP1TIyCm58RlyolEbMoCndLkAgMKuQP2NN6u3w-pzhH6qcGawQ0C_xjffwueI2uItkV9ISwP6ikqDKnOSYJ7DHb0U94haQ6EG6F1ZTMrvmwLO9OhIGO3e9GsszcJolASfwrW7EeoB1aNJTODmrqKMYpthYPw6TUOMgNhABpSHQtQTLDZJbaRSe4H65iBf3-W8_EI5VZ7RrFwlYz-WrCdtQJR2isjUFkFr-LNPqsT3xUcABDsb6GfcBIRP047rCQvuDFHS7H5_M7l5JE8Am7-2Fn9C1a7mnlOh6VGy3xfFIuNO5IbKuIicJxVLSrZVHAp0uENIbfUOW3FUvJn_EaxW7jvu5h94gKbyJOv2zTZxuvRMA5sNu5jGkQOiqfOToDL6PT5u5v_y6x9WicYSeCA02MPALTNruwjFW40]--></g></svg>