<?xml version="1.0" encoding="us-ascii" standalone="no"?><svg xmlns="http://www.w3.org/2000/svg" xmlns:xlink="http://www.w3.org/1999/xlink" contentStyleType="text/css" height="348px" preserveAspectRatio="none" style="width:739px;height:348px;background:#FFFFFF;" version="1.1" viewBox="0 0 739 348" width="739px" zoomAndPan="magnify"><defs/><g><rect fill="#FFFFFF" height="91.3984" style="stroke:#2688D4;stroke-width:1.0;" width="10" x="55" y="123.8906"/><rect fill="#FFFFFF" height="91.3984" style="stroke:#2688D4;stroke-width:1.0;" width="10" x="318" y="123.8906"/><rect fill="#FFFFFF" height="70.2656" style="stroke:#2688D4;stroke-width:1.0;" width="10" x="485.5" y="145.0234"/><rect fill="#FFFFFF" height="41.1328" style="stroke:#2688D4;stroke-width:1.0;" width="10" x="649" y="174.1563"/><line style="stroke:#2688D4;stroke-width:0.5;stroke-dasharray:5.0,5.0;" x1="60" x2="60" y1="113.8906" y2="235.2891"/><line style="stroke:#2688D4;stroke-width:0.5;stroke-dasharray:5.0,5.0;" x1="322.5" x2="322.5" y1="113.8906" y2="235.2891"/><line style="stroke:#2688D4;stroke-width:0.5;stroke-dasharray:5.0,5.0;" x1="490.5" x2="490.5" y1="113.8906" y2="235.2891"/><line style="stroke:#2688D4;stroke-width:0.5;stroke-dasharray:5.0,5.0;" x1="653.5" x2="653.5" y1="113.8906" y2="235.2891"/><text fill="#000000" font-family="sans-serif" font-size="14" lengthAdjust="spacing" textLength="72" x="21" y="77.9951">&#1058;&#1077;&#1093;&#1085;&#1110;&#1095;&#1085;&#1080;&#1081;</text><text fill="#000000" font-family="sans-serif" font-size="14" lengthAdjust="spacing" textLength="104" x="5" y="94.292">&#1072;&#1076;&#1084;&#1110;&#1085;&#1110;&#1089;&#1090;&#1088;&#1072;&#1090;&#1086;&#1088;</text><text fill="#000000" font-family="sans-serif" font-size="14" lengthAdjust="spacing" textLength="59" x="29.5" y="110.5889">&#1088;&#1077;&#1108;&#1089;&#1090;&#1088;&#1091;</text><ellipse cx="60" cy="13.5" fill="#FFFFFF" rx="8" ry="8" style="stroke:#2688D4;stroke-width:0.5;"/><path d="M60,21.5 L60,48.5 M47,29.5 L73,29.5 M60,48.5 L47,63.5 M60,48.5 L73,63.5 " fill="none" style="stroke:#2688D4;stroke-width:0.5;"/><text fill="#000000" font-family="sans-serif" font-size="14" lengthAdjust="spacing" textLength="72" x="21" y="247.2842">&#1058;&#1077;&#1093;&#1085;&#1110;&#1095;&#1085;&#1080;&#1081;</text><text fill="#000000" font-family="sans-serif" font-size="14" lengthAdjust="spacing" textLength="104" x="5" y="263.5811">&#1072;&#1076;&#1084;&#1110;&#1085;&#1110;&#1089;&#1090;&#1088;&#1072;&#1090;&#1086;&#1088;</text><text fill="#000000" font-family="sans-serif" font-size="14" lengthAdjust="spacing" textLength="59" x="29.5" y="279.8779">&#1088;&#1077;&#1108;&#1089;&#1090;&#1088;&#1091;</text><ellipse cx="60" cy="291.6797" fill="#FFFFFF" rx="8" ry="8" style="stroke:#2688D4;stroke-width:0.5;"/><path d="M60,299.6797 L60,326.6797 M47,307.6797 L73,307.6797 M60,326.6797 L47,341.6797 M60,326.6797 L73,341.6797 " fill="none" style="stroke:#2688D4;stroke-width:0.5;"/><rect fill="#FFFFFF" height="30.2969" rx="2.5" ry="2.5" style="stroke:#2688D4;stroke-width:0.5;" width="167" x="239.5" y="82.5938"/><text fill="#000000" font-family="sans-serif" font-size="14" lengthAdjust="spacing" textLength="153" x="246.5" y="102.5889">Control Plane Console</text><rect fill="#FFFFFF" height="30.2969" rx="2.5" ry="2.5" style="stroke:#2688D4;stroke-width:0.5;" width="167" x="239.5" y="234.2891"/><text fill="#000000" font-family="sans-serif" font-size="14" lengthAdjust="spacing" textLength="153" x="246.5" y="254.2842">Control Plane Console</text><rect fill="#FFFFFF" height="30.2969" rx="2.5" ry="2.5" style="stroke:#2688D4;stroke-width:0.5;" width="148" x="416.5" y="82.5938"/><text fill="#000000" font-family="sans-serif" font-size="14" lengthAdjust="spacing" textLength="134" x="423.5" y="102.5889">Control Plane Gerrit</text><rect fill="#FFFFFF" height="30.2969" rx="2.5" ry="2.5" style="stroke:#2688D4;stroke-width:0.5;" width="148" x="416.5" y="234.2891"/><text fill="#000000" font-family="sans-serif" font-size="14" lengthAdjust="spacing" textLength="134" x="423.5" y="254.2842">Control Plane Gerrit</text><rect fill="#FFFFFF" height="30.2969" rx="2.5" ry="2.5" style="stroke:#2688D4;stroke-width:0.5;" width="159" x="574.5" y="82.5938"/><text fill="#000000" font-family="sans-serif" font-size="14" lengthAdjust="spacing" textLength="145" x="581.5" y="102.5889">Control Plane Jenkins</text><rect fill="#FFFFFF" height="30.2969" rx="2.5" ry="2.5" style="stroke:#2688D4;stroke-width:0.5;" width="159" x="574.5" y="234.2891"/><text fill="#000000" font-family="sans-serif" font-size="14" lengthAdjust="spacing" textLength="145" x="581.5" y="254.2842">Control Plane Jenkins</text><rect fill="#FFFFFF" height="91.3984" style="stroke:#2688D4;stroke-width:1.0;" width="10" x="55" y="123.8906"/><rect fill="#FFFFFF" height="91.3984" style="stroke:#2688D4;stroke-width:1.0;" width="10" x="318" y="123.8906"/><rect fill="#FFFFFF" height="70.2656" style="stroke:#2688D4;stroke-width:1.0;" width="10" x="485.5" y="145.0234"/><rect fill="#FFFFFF" height="41.1328" style="stroke:#2688D4;stroke-width:1.0;" width="10" x="649" y="174.1563"/><polygon fill="#2688D4" points="306,141.0234,316,145.0234,306,149.0234,310,145.0234" style="stroke:#2688D4;stroke-width:1.0;"/><line style="stroke:#2688D4;stroke-width:1.0;" x1="65" x2="312" y1="145.0234" y2="145.0234"/><text fill="#000000" font-family="sans-serif" font-size="13" lengthAdjust="spacing" textLength="229" x="72" y="139.9575">Enable mocking for external system</text><polygon fill="#2688D4" points="473.5,170.1563,483.5,174.1563,473.5,178.1563,477.5,174.1563" style="stroke:#2688D4;stroke-width:1.0;"/><line style="stroke:#2688D4;stroke-width:1.0;" x1="328" x2="479.5" y1="174.1563" y2="174.1563"/><text fill="#000000" font-family="sans-serif" font-size="13" lengthAdjust="spacing" textLength="119" x="335" y="169.0903">Save configuration</text><polygon fill="#2688D4" points="637,199.2891,647,203.2891,637,207.2891,641,203.2891" style="stroke:#2688D4;stroke-width:1.0;"/><line style="stroke:#2688D4;stroke-width:1.0;" x1="495.5" x2="643" y1="203.2891" y2="203.2891"/><text fill="#000000" font-family="sans-serif" font-size="13" lengthAdjust="spacing" textLength="118" x="502.5" y="198.2231">Start registry build</text><polygon fill="#2688D4" points="501.5,211.2891,491.5,215.2891,501.5,219.2891,497.5,215.2891" style="stroke:#2688D4;stroke-width:1.0;"/><line style="stroke:#2688D4;stroke-width:1.0;stroke-dasharray:2.0,2.0;" x1="495.5" x2="653" y1="215.2891" y2="215.2891"/><!--SRC=[ZPF1Qjj048RlUeh1FVjIIWcc568d54eIN7BDPIoDbSNhMNTt5SUKGffI-W8b3z0doA6159eym-uRTRMI8nKKkJhj_FFDh_cro2m4hr3Z4imvPcejE8SvIaE9UUeSeCKP6XfZkiYrAZYRAAaqhC-5xUIKpaXNp8kNh_VsibSjwaD1nKwh2khrEL5sfqraUbqEsGgxsULJKxrE4yLMAxdBQelrUksdLkbkfnPbw6D1d19yIY0y-rghzR-EKOvU7QyhcqTYJaU2wRd-5BKLgLWXs_z1EZSkeR6wV6w-R7NEVMvdrMHMYWqTap6OqvYaMiV0O7KHlWgMAM7WVhex_yqz-1l_tJsuU_VxZDsj- -N- -9keVl7N_ihT-cltwA_E649nvtzKilyw03GmaOBO9icg2GQ3-jfWAf6fl4IZ95Nuj8zyHreB6y7gs0U_9mw1JQJhSqmcBj3IqrwDC4qg3OPlGm6ZGyQP95YgT17_u_15wDAIPfHWDiRIiXckjmbZORWgO7IA5mIfuhd82urMA6u6jWlLR9Yg5HZ1gGsXmXtbmbYzWLaXPBO5tmo7JPYCsjktgofSIwaNR2crory0]--></g></svg>