<?xml version="1.0" encoding="us-ascii" standalone="no"?><svg xmlns="http://www.w3.org/2000/svg" xmlns:xlink="http://www.w3.org/1999/xlink" contentStyleType="text/css" height="857px" preserveAspectRatio="none" style="width:1730px;height:857px;background:#FFFFFF;" version="1.1" viewBox="0 0 1730 857" width="1730px" zoomAndPan="magnify"><defs/><g><!--cluster keycloak--><g id="cluster_keycloak"><path d="M8.5,6 L82.5,6 A3.75,3.75 0 0 1 85,8.5 L92,28.2969 L698.5,28.2969 A2.5,2.5 0 0 1 701,30.7969 L701,520.39 A2.5,2.5 0 0 1 698.5,522.89 L8.5,522.89 A2.5,2.5 0 0 1 6,520.39 L6,8.5 A2.5,2.5 0 0 1 8.5,6 " fill="none" style="stroke:#000000;stroke-width:1.5;"/><line style="stroke:#000000;stroke-width:1.5;" x1="6" x2="92" y1="28.2969" y2="28.2969"/><text fill="#000000" font-family="sans-serif" font-size="14" font-weight="bold" lengthAdjust="spacing" textLength="73" x="10" y="20.9951">KeyCloak</text></g><!--cluster registryRealms--><g id="cluster_registryRealms"><path d="M48.5,150.29 L172.5,150.29 A3.75,3.75 0 0 1 175,152.79 L182,172.5869 L464.5,172.5869 A2.5,2.5 0 0 1 467,175.0869 L467,480.39 A2.5,2.5 0 0 1 464.5,482.89 L48.5,482.89 A2.5,2.5 0 0 1 46,480.39 L46,152.79 A2.5,2.5 0 0 1 48.5,150.29 " fill="none" style="stroke:#000000;stroke-width:1.5;"/><line style="stroke:#000000;stroke-width:1.5;" x1="46" x2="182" y1="172.5869" y2="172.5869"/><text fill="#000000" font-family="sans-serif" font-size="14" font-weight="bold" lengthAdjust="spacing" textLength="123" x="50" y="165.2851">Registry realms</text></g><!--cluster openshift--><g id="cluster_openshift"><path d="M743.5,310.59 L821.5,310.59 A3.75,3.75 0 0 1 824,313.09 L831,332.8869 L1720.5,332.8869 A2.5,2.5 0 0 1 1723,335.3869 L1723,847.98 A2.5,2.5 0 0 1 1720.5,850.48 L743.5,850.48 A2.5,2.5 0 0 1 741,847.98 L741,313.09 A2.5,2.5 0 0 1 743.5,310.59 " fill="none" style="stroke:#000000;stroke-width:1.5;"/><line style="stroke:#000000;stroke-width:1.5;" x1="741" x2="831" y1="332.8869" y2="332.8869"/><text fill="#000000" font-family="sans-serif" font-size="14" font-weight="bold" lengthAdjust="spacing" textLength="77" x="745" y="325.5851">Openshift</text></g><!--cluster ocBasedAuth--><g id="cluster_ocBasedAuth"><path d="M1100.5,571.89 L1296.5,571.89 A3.75,3.75 0 0 1 1299,574.39 L1306,594.1869 L1680.5,594.1869 A2.5,2.5 0 0 1 1683,596.6869 L1683,807.98 A2.5,2.5 0 0 1 1680.5,810.48 L1100.5,810.48 A2.5,2.5 0 0 1 1098,807.98 L1098,574.39 A2.5,2.5 0 0 1 1100.5,571.89 " fill="none" style="stroke:#000000;stroke-width:1.5;"/><line style="stroke:#000000;stroke-width:1.5;" x1="1098" x2="1306" y1="594.1869" y2="594.1869"/><text fill="#000000" font-family="sans-serif" font-size="14" font-weight="bold" lengthAdjust="spacing" textLength="195" x="1102" y="586.8851">Auth based on openshift</text></g><!--cluster keycloakBasedAuth--><g id="cluster_keycloakBasedAuth"><path d="M791.5,369.59 L985.5,369.59 A3.75,3.75 0 0 1 988,372.09 L995,391.8869 L1055.5,391.8869 A2.5,2.5 0 0 1 1058,394.3869 L1058,682.68 A2.5,2.5 0 0 1 1055.5,685.18 L791.5,685.18 A2.5,2.5 0 0 1 789,682.68 L789,372.09 A2.5,2.5 0 0 1 791.5,369.59 " fill="none" style="stroke:#000000;stroke-width:1.5;"/><line style="stroke:#000000;stroke-width:1.5;" x1="789" x2="995" y1="391.8869" y2="391.8869"/><text fill="#000000" font-family="sans-serif" font-size="14" font-weight="bold" lengthAdjust="spacing" textLength="193" x="793" y="384.5851">Auth based on KeyCloak</text></g><!--entity platformRealm--><g id="elem_platformRealm"><rect fill="#F1F1F1" height="46.2969" rx="2.5" ry="2.5" style="stroke:#181818;stroke-width:0.5;" width="107" x="526.5" y="49"/><rect fill="#F1F1F1" height="10" style="stroke:#181818;stroke-width:0.5;" width="15" x="613.5" y="54"/><rect fill="#F1F1F1" height="2" style="stroke:#181818;stroke-width:0.5;" width="4" x="611.5" y="56"/><rect fill="#F1F1F1" height="2" style="stroke:#181818;stroke-width:0.5;" width="4" x="611.5" y="60"/><text fill="#000000" font-family="sans-serif" font-size="14" lengthAdjust="spacing" textLength="67" x="541.5" y="81.9951">Openshift</text></g><!--entity controlPlaneAdminRealm--><g id="elem_controlPlaneAdminRealm"><rect fill="#F1F1F1" height="46.2969" rx="2.5" ry="2.5" style="stroke:#181818;stroke-width:0.5;" width="179" x="490.5" y="193.29"/><rect fill="#F1F1F1" height="10" style="stroke:#181818;stroke-width:0.5;" width="15" x="649.5" y="198.29"/><rect fill="#F1F1F1" height="2" style="stroke:#181818;stroke-width:0.5;" width="4" x="647.5" y="200.29"/><rect fill="#F1F1F1" height="2" style="stroke:#181818;stroke-width:0.5;" width="4" x="647.5" y="204.29"/><text fill="#000000" font-family="sans-serif" font-size="14" lengthAdjust="spacing" textLength="139" x="505.5" y="226.2851">Control Plane Realm</text></g><!--entity Admin Realm--><g id="elem_Admin Realm"><rect fill="#F1F1F1" height="46.2969" rx="2.5" ry="2.5" style="stroke:#181818;stroke-width:0.5;" width="130" x="89" y="193.29"/><rect fill="#F1F1F1" height="10" style="stroke:#181818;stroke-width:0.5;" width="15" x="199" y="198.29"/><rect fill="#F1F1F1" height="2" style="stroke:#181818;stroke-width:0.5;" width="4" x="197" y="200.29"/><rect fill="#F1F1F1" height="2" style="stroke:#181818;stroke-width:0.5;" width="4" x="197" y="204.29"/><text fill="#000000" font-family="sans-serif" font-size="14" lengthAdjust="spacing" textLength="90" x="104" y="226.2851">Admin Realm</text></g><!--entity Officer Realm--><g id="elem_Officer Realm"><rect fill="#F1F1F1" height="46.2969" rx="2.5" ry="2.5" style="stroke:#181818;stroke-width:0.5;" width="131" x="254.5" y="193.29"/><rect fill="#F1F1F1" height="10" style="stroke:#181818;stroke-width:0.5;" width="15" x="365.5" y="198.29"/><rect fill="#F1F1F1" height="2" style="stroke:#181818;stroke-width:0.5;" width="4" x="363.5" y="200.29"/><rect fill="#F1F1F1" height="2" style="stroke:#181818;stroke-width:0.5;" width="4" x="363.5" y="204.29"/><text fill="#000000" font-family="sans-serif" font-size="14" lengthAdjust="spacing" textLength="91" x="269.5" y="226.2851">Officer Realm</text></g><!--entity Citizen Realm--><g id="elem_Citizen Realm"><rect fill="#F1F1F1" height="46.2969" rx="2.5" ry="2.5" style="stroke:#181818;stroke-width:0.5;" width="134" x="78" y="412.59"/><rect fill="#F1F1F1" height="10" style="stroke:#181818;stroke-width:0.5;" width="15" x="192" y="417.59"/><rect fill="#F1F1F1" height="2" style="stroke:#181818;stroke-width:0.5;" width="4" x="190" y="419.59"/><rect fill="#F1F1F1" height="2" style="stroke:#181818;stroke-width:0.5;" width="4" x="190" y="423.59"/><text fill="#000000" font-family="sans-serif" font-size="14" lengthAdjust="spacing" textLength="94" x="93" y="445.5851">Citizen Realm</text></g><!--entity External System Realm--><g id="elem_External System Realm"><rect fill="#F1F1F1" height="46.2969" rx="2.5" ry="2.5" style="stroke:#181818;stroke-width:0.5;" width="197" x="246.5" y="412.59"/><rect fill="#F1F1F1" height="10" style="stroke:#181818;stroke-width:0.5;" width="15" x="423.5" y="417.59"/><rect fill="#F1F1F1" height="2" style="stroke:#181818;stroke-width:0.5;" width="4" x="421.5" y="419.59"/><rect fill="#F1F1F1" height="2" style="stroke:#181818;stroke-width:0.5;" width="4" x="421.5" y="423.59"/><text fill="#000000" font-family="sans-serif" font-size="14" lengthAdjust="spacing" textLength="157" x="261.5" y="445.5851">External System Realm</text></g><!--entity openshiftOAuth--><g id="elem_openshiftOAuth"><rect fill="#F1F1F1" height="46.2969" rx="2.5" ry="2.5" style="stroke:#181818;stroke-width:0.5;" width="83" x="1082.5" y="412.59"/><rect fill="#F1F1F1" height="10" style="stroke:#181818;stroke-width:0.5;" width="15" x="1145.5" y="417.59"/><rect fill="#F1F1F1" height="2" style="stroke:#181818;stroke-width:0.5;" width="4" x="1143.5" y="419.59"/><rect fill="#F1F1F1" height="2" style="stroke:#181818;stroke-width:0.5;" width="4" x="1143.5" y="423.59"/><text fill="#000000" font-family="sans-serif" font-size="14" lengthAdjust="spacing" textLength="43" x="1097.5" y="445.5851">OAuth</text></g><!--entity Openshift Console--><g id="elem_Openshift Console"><rect fill="#F1F1F1" height="46.2969" rx="2.5" ry="2.5" style="stroke:#181818;stroke-width:0.5;" width="168" x="1141" y="614.89"/><rect fill="#F1F1F1" height="10" style="stroke:#181818;stroke-width:0.5;" width="15" x="1289" y="619.89"/><rect fill="#F1F1F1" height="2" style="stroke:#181818;stroke-width:0.5;" width="4" x="1287" y="621.89"/><rect fill="#F1F1F1" height="2" style="stroke:#181818;stroke-width:0.5;" width="4" x="1287" y="625.89"/><text fill="#000000" font-family="sans-serif" font-size="14" lengthAdjust="spacing" textLength="128" x="1156" y="647.8851">Openshift Console</text></g><!--entity Control Plane Console--><g id="elem_Control Plane Console"><rect fill="#F1F1F1" height="46.2969" rx="2.5" ry="2.5" style="stroke:#181818;stroke-width:0.5;" width="193" x="1344.5" y="614.89"/><rect fill="#F1F1F1" height="10" style="stroke:#181818;stroke-width:0.5;" width="15" x="1517.5" y="619.89"/><rect fill="#F1F1F1" height="2" style="stroke:#181818;stroke-width:0.5;" width="4" x="1515.5" y="621.89"/><rect fill="#F1F1F1" height="2" style="stroke:#181818;stroke-width:0.5;" width="4" x="1515.5" y="625.89"/><text fill="#000000" font-family="sans-serif" font-size="14" lengthAdjust="spacing" textLength="153" x="1359.5" y="647.8851">Control Plane Console</text></g><!--entity Kibana--><g id="elem_Kibana"><rect fill="#F1F1F1" height="46.2969" rx="2.5" ry="2.5" style="stroke:#181818;stroke-width:0.5;" width="86" x="1573" y="614.89"/><rect fill="#F1F1F1" height="10" style="stroke:#181818;stroke-width:0.5;" width="15" x="1639" y="619.89"/><rect fill="#F1F1F1" height="2" style="stroke:#181818;stroke-width:0.5;" width="4" x="1637" y="621.89"/><rect fill="#F1F1F1" height="2" style="stroke:#181818;stroke-width:0.5;" width="4" x="1637" y="625.89"/><text fill="#000000" font-family="sans-serif" font-size="14" lengthAdjust="spacing" textLength="46" x="1588" y="647.8851">Kibana</text></g><!--entity Grafana--><g id="elem_Grafana"><rect fill="#F1F1F1" height="46.2969" rx="2.5" ry="2.5" style="stroke:#181818;stroke-width:0.5;" width="93" x="1178.5" y="740.18"/><rect fill="#F1F1F1" height="10" style="stroke:#181818;stroke-width:0.5;" width="15" x="1251.5" y="745.18"/><rect fill="#F1F1F1" height="2" style="stroke:#181818;stroke-width:0.5;" width="4" x="1249.5" y="747.18"/><rect fill="#F1F1F1" height="2" style="stroke:#181818;stroke-width:0.5;" width="4" x="1249.5" y="751.18"/><text fill="#000000" font-family="sans-serif" font-size="14" lengthAdjust="spacing" textLength="53" x="1193.5" y="773.1751">Grafana</text></g><!--entity Kiali--><g id="elem_Kiali"><rect fill="#F1F1F1" height="46.2969" rx="2.5" ry="2.5" style="stroke:#181818;stroke-width:0.5;" width="66" x="1307" y="740.18"/><rect fill="#F1F1F1" height="10" style="stroke:#181818;stroke-width:0.5;" width="15" x="1353" y="745.18"/><rect fill="#F1F1F1" height="2" style="stroke:#181818;stroke-width:0.5;" width="4" x="1351" y="747.18"/><rect fill="#F1F1F1" height="2" style="stroke:#181818;stroke-width:0.5;" width="4" x="1351" y="751.18"/><text fill="#000000" font-family="sans-serif" font-size="14" lengthAdjust="spacing" textLength="26" x="1322" y="773.1751">Kiali</text></g><!--entity Jaeger--><g id="elem_Jaeger"><rect fill="#F1F1F1" height="46.2969" rx="2.5" ry="2.5" style="stroke:#181818;stroke-width:0.5;" width="83" x="1408.5" y="740.18"/><rect fill="#F1F1F1" height="10" style="stroke:#181818;stroke-width:0.5;" width="15" x="1471.5" y="745.18"/><rect fill="#F1F1F1" height="2" style="stroke:#181818;stroke-width:0.5;" width="4" x="1469.5" y="747.18"/><rect fill="#F1F1F1" height="2" style="stroke:#181818;stroke-width:0.5;" width="4" x="1469.5" y="751.18"/><text fill="#000000" font-family="sans-serif" font-size="14" lengthAdjust="spacing" textLength="43" x="1423.5" y="773.1751">Jaeger</text></g><!--entity Jenkins--><g id="elem_Jenkins"><rect fill="#F1F1F1" height="46.2969" rx="2.5" ry="2.5" style="stroke:#181818;stroke-width:0.5;" width="89" x="832.5" y="412.59"/><rect fill="#F1F1F1" height="10" style="stroke:#181818;stroke-width:0.5;" width="15" x="901.5" y="417.59"/><rect fill="#F1F1F1" height="2" style="stroke:#181818;stroke-width:0.5;" width="4" x="899.5" y="419.59"/><rect fill="#F1F1F1" height="2" style="stroke:#181818;stroke-width:0.5;" width="4" x="899.5" y="423.59"/><text fill="#000000" font-family="sans-serif" font-size="14" lengthAdjust="spacing" textLength="49" x="847.5" y="445.5851">Jenkins</text></g><!--entity Gerrit--><g id="elem_Gerrit"><rect fill="#F1F1F1" height="46.2969" rx="2.5" ry="2.5" style="stroke:#181818;stroke-width:0.5;" width="78" x="956" y="412.59"/><rect fill="#F1F1F1" height="10" style="stroke:#181818;stroke-width:0.5;" width="15" x="1014" y="417.59"/><rect fill="#F1F1F1" height="2" style="stroke:#181818;stroke-width:0.5;" width="4" x="1012" y="419.59"/><rect fill="#F1F1F1" height="2" style="stroke:#181818;stroke-width:0.5;" width="4" x="1012" y="423.59"/><text fill="#000000" font-family="sans-serif" font-size="14" lengthAdjust="spacing" textLength="38" x="971" y="445.5851">Gerrit</text></g><!--entity Nexus--><g id="elem_Nexus"><rect fill="#F1F1F1" height="46.2969" rx="2.5" ry="2.5" style="stroke:#181818;stroke-width:0.5;" width="83" x="835.5" y="614.89"/><rect fill="#F1F1F1" height="10" style="stroke:#181818;stroke-width:0.5;" width="15" x="898.5" y="619.89"/><rect fill="#F1F1F1" height="2" style="stroke:#181818;stroke-width:0.5;" width="4" x="896.5" y="621.89"/><rect fill="#F1F1F1" height="2" style="stroke:#181818;stroke-width:0.5;" width="4" x="896.5" y="625.89"/><text fill="#000000" font-family="sans-serif" font-size="14" lengthAdjust="spacing" textLength="43" x="850.5" y="647.8851">Nexus</text></g><!--reverse link keycloak to openshift--><!--reverse link openshiftOAuth to ocBasedAuth--><g id="link_openshiftOAuth_ocBasedAuth"><path d="M1121.46,465.02 C1119.02,492.18 1115.24,534.2425 1112.0288,569.9738 C1111.9786,570.5321 1111.9285,571.0888 1111.8786,571.6439 " fill="none" id="openshiftOAuth-backto-ocBasedAuth" style="stroke:#181818;stroke-width:1.0;"/><polygon fill="#181818" points="1121.97,460.33,1117.1894,468.9408,1121.5276,465.3104,1125.158,469.6486,1121.97,460.33" style="stroke:#181818;stroke-width:1.0;"/></g><!--reverse link platformRealm to openshiftOAuth--><g id="link_platformRealm_openshiftOAuth"><path d="M637.7,97.87 C756.03,148.94 1017.83,263.85 1050,294.59 C1085.11,328.14 1106.98,382.05 1117.18,412.29 " fill="none" id="platformRealm-backto-openshiftOAuth" style="stroke:#181818;stroke-width:1.0;"/><polygon fill="#181818" points="633.52,95.64,640.1895,102.8869,638.1083,97.6268,643.3684,95.5457,633.52,95.64" style="stroke:#181818;stroke-width:1.0;"/><text fill="#000000" font-family="sans-serif" font-size="13" lengthAdjust="spacing" textLength="140" x="950" y="221.0069">integrated via OAuth2</text></g><!--reverse link controlPlaneAdminRealm to keycloakBasedAuth--><g id="link_controlPlaneAdminRealm_keycloakBasedAuth"><path d="M568.47,245.5 C564.69,259.62 563.74,275.94 574,286.59 C590.9,304.12 775.85,277.3 793,294.59 C803.8,305.4775 809.5269,319.4938 812.0234,334.4395 C813.2717,341.9124 813.7124,349.6177 813.5759,357.2804 C813.5076,361.1118 813.2951,364.9326 812.967,368.7083 C812.9465,368.9443 812.9255,369.1801 812.9041,369.4157 " fill="none" id="controlPlaneAdminRealm-backto-keycloakBasedAuth" style="stroke:#181818;stroke-width:1.0;"/><polygon fill="#181818" points="570.1,241.01,563.7133,248.5074,568.683,245.805,571.3853,250.7746,570.1,241.01" style="stroke:#181818;stroke-width:1.0;"/><text fill="#000000" font-family="sans-serif" font-size="13" lengthAdjust="spacing" textLength="140" x="575" y="282.6569">integrated via OAuth2</text></g><!--reverse link platformRealm to controlPlaneAdminRealm--><g id="link_platformRealm_controlPlaneAdminRealm"><path d="M580,101.56 C580,128.45 580,168.27 580,193 " fill="none" id="platformRealm-backto-controlPlaneAdminRealm" style="stroke:#181818;stroke-width:1.0;"/><polygon fill="#181818" points="580,96.69,576,105.69,580,101.69,584,105.69,580,96.69" style="stroke:#181818;stroke-width:1.0;"/></g><!--reverse link platformRealm to registryRealms--><g id="link_platformRealm_registryRealms"><path d="M520.61,76.02 C391.38,82.87 93.67,102.01 62,134.29 C58.9262,137.4237 56.4797,140.9884 54.5535,144.8337 C54.0719,145.7951 53.6229,146.7739 53.2047,147.768 C52.9956,148.265 52.7943,148.7659 52.6004,149.2702 C52.5034,149.5224 52.4084,149.7754 52.3152,150.0293 " fill="none" id="platformRealm-backto-registryRealms" style="stroke:#181818;stroke-width:1.0;"/><polygon fill="#181818" points="525.26,75.73,516.0564,72.2237,520.2674,76.001,516.4901,80.212,525.26,75.73" style="stroke:#181818;stroke-width:1.0;"/></g><!--SRC=[TLB9ReCm4Btp5QFUkVJOGwKqgYebKbEbnuZ310PYOMnacoeqoh_N2qkTa1jluSqRsotcDLO4JrlgrrnY_GIeeQO-Tm0k2S1XrvBG9rQQp6ajHrDArUm9UMFbTapOKyMqKJqefsWVf0REcxMFiu6hec42F9S5PbUMB2SLSMjcs2_5llUp8IMGmtUl3JMpTdL5rr8O9JbySHGqQAv57dXF-zcX-pL9flBJZhws7D4bEUnMdJbb4Ukf_wix34VKL80KiozavMzES9PX_MaMsC9QSXeNZkh7sfOTKU00FXIMCzeov6putY1LfCO3UT1lyQflIsv8r4peSI8fnSm0FkdSwJ337k6qBQI74oiA4bcNfgzJi7NC9m1fPwMRWunXi4Ilx0MOC5GfD7Q17uRWZS_9NVVmx_9rFmfPTY-qI6uUyxtZ3m00]--></g></svg>