<?xml version="1.0" encoding="us-ascii" standalone="no"?><svg xmlns="http://www.w3.org/2000/svg" xmlns:xlink="http://www.w3.org/1999/xlink" contentStyleType="text/css" height="578px" preserveAspectRatio="none" style="width:961px;height:578px;background:#FFFFFF;" version="1.1" viewBox="0 0 961 578" width="961px" zoomAndPan="magnify"><defs/><g><!--class ExceptionMapper--><g id="elem_ExceptionMapper"><rect codeLine="1" fill="#F1F1F1" height="64.2969" id="ExceptionMapper" rx="2.5" ry="2.5" style="stroke:#181818;stroke-width:0.5;" width="220" x="400.65" y="10"/><ellipse cx="415.65" cy="26" fill="#B4A7E5" rx="11" ry="11" style="stroke:#181818;stroke-width:1.0;"/><path d="M411.5719,21.7656 L411.5719,19.6094 L418.9625,19.6094 L418.9625,21.7656 L416.4938,21.7656 L416.4938,29.8438 L418.9625,29.8438 L418.9625,32 L411.5719,32 L411.5719,29.8438 L414.0406,29.8438 L414.0406,21.7656 L411.5719,21.7656 Z " fill="#000000"/><text fill="#000000" font-family="sans-serif" font-size="14" font-style="italic" lengthAdjust="spacing" textLength="120" x="429.65" y="30.8467">ExceptionMapper</text><rect fill="#FFFFFF" height="15.9688" style="stroke:#181818;stroke-width:1.0;stroke-dasharray:2.0,2.0;" width="66" x="557.65" y="7"/><text fill="#000000" font-family="sans-serif" font-size="12" font-style="italic" lengthAdjust="spacing" textLength="64" x="558.65" y="19.1387">Throwable</text><line style="stroke:#181818;stroke-width:0.5;" x1="401.65" x2="619.65" y1="42" y2="42"/><line style="stroke:#181818;stroke-width:0.5;" x1="401.65" x2="619.65" y1="50" y2="50"/><text fill="#000000" font-family="sans-serif" font-size="14" lengthAdjust="spacing" textLength="95" x="406.65" y="66.9951">toResponse()</text></g><!--class CamundaSystemExceptionMapper--><g id="elem_CamundaSystemExceptionMapper"><rect codeLine="5" fill="#ADD8E6" height="64.2969" id="CamundaSystemExceptionMapper" rx="2.5" ry="2.5" style="stroke:#008000;stroke-width:0.5;" width="379" x="149.15" y="258.59"/><ellipse cx="164.15" cy="274.59" fill="#ADD1B2" rx="11" ry="11" style="stroke:#181818;stroke-width:1.0;"/><path d="M167.1188,280.2306 Q166.5406,280.5275 165.9,280.6681 Q165.2594,280.8244 164.5563,280.8244 Q162.0563,280.8244 160.7281,279.1838 Q159.4156,277.5275 159.4156,274.4025 Q159.4156,271.2775 160.7281,269.6213 Q162.0563,267.965 164.5563,267.965 Q165.2594,267.965 165.9,268.1213 Q166.5563,268.2775 167.1188,268.5744 L167.1188,271.2931 Q166.4938,270.715 165.9,270.4494 Q165.3063,270.1681 164.6813,270.1681 Q163.3375,270.1681 162.65,271.2463 Q161.9625,272.3088 161.9625,274.4025 Q161.9625,276.4963 162.65,277.5744 Q163.3375,278.6369 164.6813,278.6369 Q165.3063,278.6369 165.9,278.3713 Q166.4938,278.09 167.1188,277.5119 L167.1188,280.2306 Z " fill="#000000"/><text fill="#000000" font-family="sans-serif" font-size="14" lengthAdjust="spacing" textLength="237" x="178.15" y="279.4367">CamundaSystemExceptionMapper</text><rect fill="#FFFFFF" height="15.9688" style="stroke:#181818;stroke-width:1.0;stroke-dasharray:2.0,2.0;" width="108" x="423.15" y="255.59"/><text fill="#000000" font-family="sans-serif" font-size="12" font-style="italic" lengthAdjust="spacing" textLength="106" x="424.15" y="267.7287">SystemException</text><line style="stroke:#008000;stroke-width:0.5;" x1="150.15" x2="527.15" y1="290.59" y2="290.59"/><line style="stroke:#008000;stroke-width:0.5;" x1="150.15" x2="527.15" y1="298.59" y2="298.59"/><text fill="#000000" font-family="sans-serif" font-size="14" lengthAdjust="spacing" textLength="95" x="155.15" y="315.5851">toResponse()</text></g><!--class CamundaRestExceptionMapper--><g id="elem_CamundaRestExceptionMapper"><rect codeLine="9" fill="#ADD8E6" height="64.2969" id="CamundaRestExceptionMapper" rx="2.5" ry="2.5" style="stroke:#008000;stroke-width:0.5;" width="343" x="114.15" y="134.29"/><ellipse cx="129.15" cy="150.29" fill="#ADD1B2" rx="11" ry="11" style="stroke:#181818;stroke-width:1.0;"/><path d="M132.1188,155.9306 Q131.5406,156.2275 130.9,156.3681 Q130.2594,156.5244 129.5563,156.5244 Q127.0563,156.5244 125.7281,154.8838 Q124.4156,153.2275 124.4156,150.1025 Q124.4156,146.9775 125.7281,145.3213 Q127.0563,143.665 129.5563,143.665 Q130.2594,143.665 130.9,143.8213 Q131.5563,143.9775 132.1188,144.2744 L132.1188,146.9931 Q131.4938,146.415 130.9,146.1494 Q130.3063,145.8681 129.6813,145.8681 Q128.3375,145.8681 127.65,146.9463 Q126.9625,148.0088 126.9625,150.1025 Q126.9625,152.1963 127.65,153.2744 Q128.3375,154.3369 129.6813,154.3369 Q130.3063,154.3369 130.9,154.0713 Q131.4938,153.79 132.1188,153.2119 L132.1188,155.9306 Z " fill="#000000"/><text fill="#000000" font-family="sans-serif" font-size="14" lengthAdjust="spacing" textLength="218" x="143.15" y="155.1367">CamundaRestExceptionMapper</text><rect fill="#FFFFFF" height="15.9688" style="stroke:#181818;stroke-width:1.0;stroke-dasharray:2.0,2.0;" width="91" x="369.15" y="131.29"/><text fill="#000000" font-family="sans-serif" font-size="12" font-style="italic" lengthAdjust="spacing" textLength="89" x="370.15" y="143.4287">RestException</text><line style="stroke:#008000;stroke-width:0.5;" x1="115.15" x2="456.15" y1="166.29" y2="166.29"/><line style="stroke:#008000;stroke-width:0.5;" x1="115.15" x2="456.15" y1="174.29" y2="174.29"/><text fill="#000000" font-family="sans-serif" font-size="14" lengthAdjust="spacing" textLength="95" x="120.15" y="191.2851">toResponse()</text></g><!--class UserDataValidationExceptionMapper--><g id="elem_UserDataValidationExceptionMapper"><rect codeLine="13" fill="#ADD8E6" height="64.2969" id="UserDataValidationExceptionMapper" rx="2.5" ry="2.5" style="stroke:#008000;stroke-width:0.5;" width="409" x="204.15" y="382.89"/><ellipse cx="219.15" cy="398.89" fill="#ADD1B2" rx="11" ry="11" style="stroke:#181818;stroke-width:1.0;"/><path d="M222.1188,404.5306 Q221.5406,404.8275 220.9,404.9681 Q220.2594,405.1244 219.5563,405.1244 Q217.0563,405.1244 215.7281,403.4838 Q214.4156,401.8275 214.4156,398.7025 Q214.4156,395.5775 215.7281,393.9213 Q217.0563,392.265 219.5563,392.265 Q220.2594,392.265 220.9,392.4213 Q221.5563,392.5775 222.1188,392.8744 L222.1188,395.5931 Q221.4938,395.015 220.9,394.7494 Q220.3063,394.4681 219.6813,394.4681 Q218.3375,394.4681 217.65,395.5463 Q216.9625,396.6088 216.9625,398.7025 Q216.9625,400.7963 217.65,401.8744 Q218.3375,402.9369 219.6813,402.9369 Q220.3063,402.9369 220.9,402.6713 Q221.4938,402.39 222.1188,401.8119 L222.1188,404.5306 Z " fill="#000000"/><text fill="#000000" font-family="sans-serif" font-size="14" lengthAdjust="spacing" textLength="250" x="233.15" y="403.7367">UserDataValidationExceptionMapper</text><rect fill="#FFFFFF" height="15.9688" style="stroke:#181818;stroke-width:1.0;stroke-dasharray:2.0,2.0;" width="125" x="491.15" y="379.89"/><text fill="#000000" font-family="sans-serif" font-size="12" font-style="italic" lengthAdjust="spacing" textLength="123" x="492.15" y="392.0287">ValidationException</text><line style="stroke:#008000;stroke-width:0.5;" x1="205.15" x2="612.15" y1="414.89" y2="414.89"/><line style="stroke:#008000;stroke-width:0.5;" x1="205.15" x2="612.15" y1="422.89" y2="422.89"/><text fill="#000000" font-family="sans-serif" font-size="14" lengthAdjust="spacing" textLength="95" x="210.15" y="439.8851">toResponse()</text></g><!--class TaskAlreadyInCompletionExceptionMapper--><g id="elem_TaskAlreadyInCompletionExceptionMapper"><rect codeLine="18" fill="#ADD8E6" height="64.2969" id="TaskAlreadyInCompletionExceptionMapper" rx="2.5" ry="2.5" style="stroke:#008000;stroke-width:0.5;" width="547" x="98.15" y="507.18"/><ellipse cx="113.15" cy="523.18" fill="#ADD1B2" rx="11" ry="11" style="stroke:#181818;stroke-width:1.0;"/><path d="M116.1188,528.8206 Q115.5406,529.1175 114.9,529.2581 Q114.2594,529.4144 113.5563,529.4144 Q111.0563,529.4144 109.7281,527.7738 Q108.4156,526.1175 108.4156,522.9925 Q108.4156,519.8675 109.7281,518.2113 Q111.0563,516.555 113.5563,516.555 Q114.2594,516.555 114.9,516.7113 Q115.5563,516.8675 116.1188,517.1644 L116.1188,519.8831 Q115.4938,519.305 114.9,519.0394 Q114.3063,518.7581 113.6813,518.7581 Q112.3375,518.7581 111.65,519.8363 Q110.9625,520.8988 110.9625,522.9925 Q110.9625,525.0863 111.65,526.1644 Q112.3375,527.2269 113.6813,527.2269 Q114.3063,527.2269 114.9,526.9613 Q115.4938,526.68 116.1188,526.1019 L116.1188,528.8206 Z " fill="#000000"/><text fill="#000000" font-family="sans-serif" font-size="14" lengthAdjust="spacing" textLength="294" x="127.15" y="528.0267">TaskAlreadyInCompletionExceptionMapper</text><rect fill="#FFFFFF" height="15.9688" style="stroke:#181818;stroke-width:1.0;stroke-dasharray:2.0,2.0;" width="219" x="429.15" y="504.18"/><text fill="#000000" font-family="sans-serif" font-size="12" font-style="italic" lengthAdjust="spacing" textLength="217" x="430.15" y="516.3187">TaskAlreadyInCompletionException</text><line style="stroke:#008000;stroke-width:0.5;" x1="99.15" x2="644.15" y1="539.18" y2="539.18"/><line style="stroke:#008000;stroke-width:0.5;" x1="99.15" x2="644.15" y1="547.18" y2="547.18"/><text fill="#000000" font-family="sans-serif" font-size="14" lengthAdjust="spacing" textLength="95" x="104.15" y="564.1751">toResponse()</text></g><!--class RestException--><g id="elem_RestException"><rect codeLine="22" fill="#F1F1F1" height="48" id="RestException" rx="2.5" ry="2.5" style="stroke:#181818;stroke-width:0.5;" width="132" x="634.65" y="142.44"/><ellipse cx="649.65" cy="158.44" fill="#ADD1B2" rx="11" ry="11" style="stroke:#181818;stroke-width:1.0;"/><path d="M652.6188,164.0806 Q652.0406,164.3775 651.4,164.5181 Q650.7594,164.6744 650.0563,164.6744 Q647.5563,164.6744 646.2281,163.0338 Q644.9156,161.3775 644.9156,158.2525 Q644.9156,155.1275 646.2281,153.4713 Q647.5563,151.815 650.0563,151.815 Q650.7594,151.815 651.4,151.9713 Q652.0563,152.1275 652.6188,152.4244 L652.6188,155.1431 Q651.9938,154.565 651.4,154.2994 Q650.8063,154.0181 650.1813,154.0181 Q648.8375,154.0181 648.15,155.0963 Q647.4625,156.1588 647.4625,158.2525 Q647.4625,160.3463 648.15,161.4244 Q648.8375,162.4869 650.1813,162.4869 Q650.8063,162.4869 651.4,162.2213 Q651.9938,161.94 652.6188,161.3619 L652.6188,164.0806 Z " fill="#000000"/><text fill="#000000" font-family="sans-serif" font-size="14" lengthAdjust="spacing" textLength="100" x="663.65" y="163.2867">RestException</text><line style="stroke:#181818;stroke-width:0.5;" x1="635.65" x2="765.65" y1="174.44" y2="174.44"/><line style="stroke:#181818;stroke-width:0.5;" x1="635.65" x2="765.65" y1="182.44" y2="182.44"/></g><!--class Throwable--><g id="elem_Throwable"><rect fill="#F1F1F1" height="48" id="Throwable" rx="2.5" ry="2.5" style="stroke:#181818;stroke-width:0.5;" width="104" x="767.65" y="18.14"/><ellipse cx="782.65" cy="34.14" fill="#ADD1B2" rx="11" ry="11" style="stroke:#181818;stroke-width:1.0;"/><path d="M785.6188,39.7806 Q785.0406,40.0775 784.4,40.2181 Q783.7594,40.3744 783.0563,40.3744 Q780.5563,40.3744 779.2281,38.7337 Q777.9156,37.0775 777.9156,33.9525 Q777.9156,30.8275 779.2281,29.1712 Q780.5563,27.515 783.0563,27.515 Q783.7594,27.515 784.4,27.6712 Q785.0563,27.8275 785.6188,28.1244 L785.6188,30.8431 Q784.9938,30.265 784.4,29.9994 Q783.8063,29.7181 783.1813,29.7181 Q781.8375,29.7181 781.15,30.7962 Q780.4625,31.8587 780.4625,33.9525 Q780.4625,36.0462 781.15,37.1244 Q781.8375,38.1869 783.1813,38.1869 Q783.8063,38.1869 784.4,37.9212 Q784.9938,37.64 785.6188,37.0619 L785.6188,39.7806 Z " fill="#000000"/><text fill="#000000" font-family="sans-serif" font-size="14" lengthAdjust="spacing" textLength="72" x="796.65" y="38.9867">Throwable</text><line style="stroke:#181818;stroke-width:0.5;" x1="768.65" x2="870.65" y1="50.14" y2="50.14"/><line style="stroke:#181818;stroke-width:0.5;" x1="768.65" x2="870.65" y1="58.14" y2="58.14"/></g><!--class SystemException--><g id="elem_SystemException"><rect codeLine="23" fill="#90EE90" height="48" id="SystemException" rx="2.5" ry="2.5" style="stroke:#008000;stroke-width:0.5;" width="151" x="662.15" y="266.74"/><ellipse cx="677.15" cy="282.74" fill="#ADD1B2" rx="11" ry="11" style="stroke:#181818;stroke-width:1.0;"/><path d="M680.1188,288.3806 Q679.5406,288.6775 678.9,288.8181 Q678.2594,288.9744 677.5563,288.9744 Q675.0563,288.9744 673.7281,287.3338 Q672.4156,285.6775 672.4156,282.5525 Q672.4156,279.4275 673.7281,277.7713 Q675.0563,276.115 677.5563,276.115 Q678.2594,276.115 678.9,276.2713 Q679.5563,276.4275 680.1188,276.7244 L680.1188,279.4431 Q679.4938,278.865 678.9,278.5994 Q678.3063,278.3181 677.6813,278.3181 Q676.3375,278.3181 675.65,279.3963 Q674.9625,280.4588 674.9625,282.5525 Q674.9625,284.6463 675.65,285.7244 Q676.3375,286.7869 677.6813,286.7869 Q678.3063,286.7869 678.9,286.5213 Q679.4938,286.24 680.1188,285.6619 L680.1188,288.3806 Z " fill="#000000"/><text fill="#000000" font-family="sans-serif" font-size="14" lengthAdjust="spacing" textLength="119" x="691.15" y="287.5867">SystemException</text><line style="stroke:#008000;stroke-width:0.5;" x1="663.15" x2="812.15" y1="298.74" y2="298.74"/><line style="stroke:#008000;stroke-width:0.5;" x1="663.15" x2="812.15" y1="306.74" y2="306.74"/></g><!--class ValidationException--><g id="elem_ValidationException"><rect codeLine="24" fill="#90EE90" height="48" id="ValidationException" rx="2.5" ry="2.5" style="stroke:#008000;stroke-width:0.5;" width="166" x="698.65" y="391.03"/><ellipse cx="713.65" cy="407.03" fill="#ADD1B2" rx="11" ry="11" style="stroke:#181818;stroke-width:1.0;"/><path d="M716.6188,412.6706 Q716.0406,412.9675 715.4,413.1081 Q714.7594,413.2644 714.0563,413.2644 Q711.5563,413.2644 710.2281,411.6238 Q708.9156,409.9675 708.9156,406.8425 Q708.9156,403.7175 710.2281,402.0613 Q711.5563,400.405 714.0563,400.405 Q714.7594,400.405 715.4,400.5613 Q716.0563,400.7175 716.6188,401.0144 L716.6188,403.7331 Q715.9938,403.155 715.4,402.8894 Q714.8063,402.6081 714.1813,402.6081 Q712.8375,402.6081 712.15,403.6863 Q711.4625,404.7488 711.4625,406.8425 Q711.4625,408.9363 712.15,410.0144 Q712.8375,411.0769 714.1813,411.0769 Q714.8063,411.0769 715.4,410.8113 Q715.9938,410.53 716.6188,409.9519 L716.6188,412.6706 Z " fill="#000000"/><text fill="#000000" font-family="sans-serif" font-size="14" lengthAdjust="spacing" textLength="134" x="727.65" y="411.8767">ValidationException</text><line style="stroke:#008000;stroke-width:0.5;" x1="699.65" x2="863.65" y1="423.03" y2="423.03"/><line style="stroke:#008000;stroke-width:0.5;" x1="699.65" x2="863.65" y1="431.03" y2="431.03"/></g><!--class TaskAlreadyInCompletionException--><g id="elem_TaskAlreadyInCompletionException"><rect codeLine="25" fill="#ADD8E6" height="48" id="TaskAlreadyInCompletionException" rx="2.5" ry="2.5" style="stroke:#008000;stroke-width:0.5;" width="274" x="680.65" y="515.33"/><ellipse cx="695.65" cy="531.33" fill="#ADD1B2" rx="11" ry="11" style="stroke:#181818;stroke-width:1.0;"/><path d="M698.6188,536.9706 Q698.0406,537.2675 697.4,537.4081 Q696.7594,537.5644 696.0563,537.5644 Q693.5563,537.5644 692.2281,535.9238 Q690.9156,534.2675 690.9156,531.1425 Q690.9156,528.0175 692.2281,526.3613 Q693.5563,524.705 696.0563,524.705 Q696.7594,524.705 697.4,524.8613 Q698.0563,525.0175 698.6188,525.3144 L698.6188,528.0331 Q697.9938,527.455 697.4,527.1894 Q696.8063,526.9081 696.1813,526.9081 Q694.8375,526.9081 694.15,527.9863 Q693.4625,529.0488 693.4625,531.1425 Q693.4625,533.2363 694.15,534.3144 Q694.8375,535.3769 696.1813,535.3769 Q696.8063,535.3769 697.4,535.1113 Q697.9938,534.83 698.6188,534.2519 L698.6188,536.9706 Z " fill="#000000"/><text fill="#000000" font-family="sans-serif" font-size="14" lengthAdjust="spacing" textLength="242" x="709.65" y="536.1767">TaskAlreadyInCompletionException</text><line style="stroke:#008000;stroke-width:0.5;" x1="681.65" x2="953.65" y1="547.33" y2="547.33"/><line style="stroke:#008000;stroke-width:0.5;" x1="681.65" x2="953.65" y1="555.33" y2="555.33"/></g><!--reverse link ExceptionMapper to CamundaSystemExceptionMapper--><g id="link_ExceptionMapper_CamundaSystemExceptionMapper"><path d="M508.18,95.43 C504.45,127.59 495.55,168.3 474.65,198.59 C457.46,223.51 431.03,243.47 406.03,258.28 " fill="none" id="ExceptionMapper-backto-CamundaSystemExceptionMapper" style="stroke:#181818;stroke-width:1.0;stroke-dasharray:7.0,7.0;"/><polygon fill="none" points="501.28,95.06,510.02,75.76,515.22,96.3,501.28,95.06" style="stroke:#181818;stroke-width:1.0;"/></g><!--reverse link ExceptionMapper to CamundaRestExceptionMapper--><g id="link_ExceptionMapper_CamundaRestExceptionMapper"><path d="M434.37,84.61 C404.75,100.7 371.4,118.83 343.79,133.84 " fill="none" id="ExceptionMapper-backto-CamundaRestExceptionMapper" style="stroke:#181818;stroke-width:1.0;stroke-dasharray:7.0,7.0;"/><polygon fill="none" points="430.79,78.04,451.71,74.64,437.48,90.34,430.79,78.04" style="stroke:#181818;stroke-width:1.0;"/></g><!--reverse link ExceptionMapper to UserDataValidationExceptionMapper--><g id="link_ExceptionMapper_UserDataValidationExceptionMapper"><path d="M533.91,93.71 C557.22,152.38 584.52,250.33 545.65,322.89 C531.96,348.45 507.59,368.07 483.16,382.44 " fill="none" id="ExceptionMapper-backto-UserDataValidationExceptionMapper" style="stroke:#181818;stroke-width:1.0;stroke-dasharray:7.0,7.0;"/><polygon fill="none" points="527.22,96.85,525.95,75.7,540.13,91.44,527.22,96.85" style="stroke:#181818;stroke-width:1.0;"/></g><!--reverse link ExceptionMapper to TaskAlreadyInCompletionExceptionMapper--><g id="link_ExceptionMapper_TaskAlreadyInCompletionExceptionMapper"><path d="M379.6,54.34 C272,66.58 131.81,90.55 96.65,134.29 C6,247.08 86.46,342.78 186.65,447.18 C211.44,473.02 245.09,492.58 276.9,506.82 " fill="none" id="ExceptionMapper-backto-TaskAlreadyInCompletionExceptionMapper" style="stroke:#181818;stroke-width:1.0;stroke-dasharray:7.0,7.0;"/><polygon fill="none" points="378.66,47.3,399.31,52.09,380.18,61.21,378.66,47.3" style="stroke:#181818;stroke-width:1.0;"/></g><!--reverse link Throwable to RestException--><g id="link_Throwable_RestException"><path d="M782.41,81.42 C763.01,101.36 739.92,125.09 723.23,142.24 " fill="none" id="Throwable-backto-RestException" style="stroke:#181818;stroke-width:1.0;"/><polygon fill="none" points="777.02,76.89,795.99,67.44,787.06,86.65,777.02,76.89" style="stroke:#181818;stroke-width:1.0;"/></g><!--reverse link Throwable to SystemException--><g id="link_Throwable_SystemException"><path d="M812.36,87.23 C806.44,118.8 796.9,162.02 783.65,198.59 C774.96,222.59 761.49,248.43 751.37,266.44 " fill="none" id="Throwable-backto-SystemException" style="stroke:#181818;stroke-width:1.0;"/><polygon fill="none" points="805.64,86.03,816.03,67.56,819.43,88.47,805.64,86.03" style="stroke:#181818;stroke-width:1.0;"/></g><!--reverse link Throwable to ValidationException--><g id="link_Throwable_ValidationException"><path d="M828.9,86.86 C838.98,142.6 851.14,241.48 830.65,322.89 C824.42,347.63 810.03,372.96 798.44,390.63 " fill="none" id="Throwable-backto-ValidationException" style="stroke:#181818;stroke-width:1.0;"/><polygon fill="none" points="821.87,88.41,824.94,67.45,835.62,85.75,821.87,88.41" style="stroke:#181818;stroke-width:1.0;"/></g><!--reverse link Throwable to TaskAlreadyInCompletionException--><g id="link_Throwable_TaskAlreadyInCompletionException"><path d="M844.39,84.72 C852.23,99.83 860.05,117.36 864.65,134.29 C901.19,268.71 925.11,314.52 882.65,447.18 C874.36,473.1 855.69,497.93 840.49,515.11 " fill="none" id="Throwable-backto-TaskAlreadyInCompletionException" style="stroke:#181818;stroke-width:1.0;"/><polygon fill="none" points="837.88,88.4,834.34,67.51,850.14,81.64,837.88,88.4" style="stroke:#181818;stroke-width:1.0;"/></g><!--link ExceptionMapper to Throwable--><g id="link_ExceptionMapper_Throwable"><path codeLine="27" d="M621.09,42.14 C667.83,42.14 714.57,42.14 761.3,42.14 " fill="none" id="ExceptionMapper-to-Throwable" style="stroke:#181818;stroke-width:1.0;stroke-dasharray:7.0,7.0;"/><polygon fill="#181818" points="766.3,42.14,757.3,38.14,761.3,42.14,757.3,46.14,766.3,42.14" style="stroke:#181818;stroke-width:1.0;"/></g><!--link CamundaRestExceptionMapper to RestException--><g id="link_CamundaRestExceptionMapper_RestException"><path codeLine="28" d="M457.49,166.44 C514.42,166.44 571.36,166.44 628.29,166.44 " fill="none" id="CamundaRestExceptionMapper-to-RestException" style="stroke:#181818;stroke-width:1.0;stroke-dasharray:7.0,7.0;"/><polygon fill="#181818" points="633.16,166.44,624.16,162.44,628.16,166.44,624.16,170.44,633.16,166.44" style="stroke:#181818;stroke-width:1.0;"/></g><!--link CamundaSystemExceptionMapper to SystemException--><g id="link_CamundaSystemExceptionMapper_SystemException"><path codeLine="29" d="M528.41,290.74 C571.04,290.74 613.67,290.74 656.3,290.74 " fill="none" id="CamundaSystemExceptionMapper-to-SystemException" style="stroke:#181818;stroke-width:1.0;stroke-dasharray:7.0,7.0;"/><polygon fill="#181818" points="661.05,290.74,652.05,286.74,656.05,290.74,652.05,294.74,661.05,290.74" style="stroke:#181818;stroke-width:1.0;"/></g><!--link UserDataValidationExceptionMapper to ValidationException--><g id="link_UserDataValidationExceptionMapper_ValidationException"><path codeLine="30" d="M613.36,415.03 C639.64,415.03 665.92,415.03 692.2,415.03 " fill="none" id="UserDataValidationExceptionMapper-to-ValidationException" style="stroke:#181818;stroke-width:1.0;stroke-dasharray:7.0,7.0;"/><polygon fill="#181818" points="697.16,415.03,688.16,411.03,692.16,415.03,688.16,419.03,697.16,415.03" style="stroke:#181818;stroke-width:1.0;"/></g><!--link TaskAlreadyInCompletionExceptionMapper to TaskAlreadyInCompletionException--><g id="link_TaskAlreadyInCompletionExceptionMapper_TaskAlreadyInCompletionException"><path codeLine="31" d="M645.61,539.33 C655.16,539.33 664.72,539.33 674.27,539.33 " fill="none" id="TaskAlreadyInCompletionExceptionMapper-to-TaskAlreadyInCompletionException" style="stroke:#181818;stroke-width:1.0;stroke-dasharray:7.0,7.0;"/><polygon fill="#181818" points="679.22,539.33,670.22,535.33,674.22,539.33,670.22,543.33,679.22,539.33" style="stroke:#181818;stroke-width:1.0;"/></g><!--link CamundaRestExceptionMapper to CamundaSystemExceptionMapper--><!--link CamundaSystemExceptionMapper to UserDataValidationExceptionMapper--><!--link UserDataValidationExceptionMapper to TaskAlreadyInCompletionExceptionMapper--><!--link RestException to SystemException--><!--link SystemException to ValidationException--><!--link ValidationException to TaskAlreadyInCompletionException--><!--SRC=[jPJ1JiCm38RlUOf8NCPXF427Ag71WGCNDhWW3cvZrcXf4YMPs8HuTneOKXgofXFgrNP-VVvjXqk7vWrgf7Vx6hNZIZw0rcYkrurHxr09BEa7eTIfHxHQIOkpI_99I2t0Mhg4TYSPh0xMOHihHD6INbHGRml1Dushn0uNWaiiDWPHBXpkNL69BazvgmMsA9sDcV8WNSh56BtOf11F5iqjE7W6mHdu9p5B8ZCHqH5f3NPx8mm2EzpBfV8QAQvSsQIszGP4Ep6Kh2F_tRzZLRHD8T0FHfheb5nY4l-Lp9auqiE_yYJsygeCigTNtzVrmcJeNdrrb23PZVQF4aaoRk- -6ybKag46v_ENXZE6yhKS_8k66mzLiXsFy2JK6sS4wTz0A12F9Bw3i3OrYTIYdmFu1G00]--></g></svg>