<?xml version="1.0" encoding="us-ascii" standalone="no"?><svg xmlns="http://www.w3.org/2000/svg" xmlns:xlink="http://www.w3.org/1999/xlink" contentStyleType="text/css" height="494px" preserveAspectRatio="none" style="width:1436px;height:494px;background:#FFFFFF;" version="1.1" viewBox="0 0 1436 494" width="1436px" zoomAndPan="magnify"><defs/><g><!--class ValidationException--><g id="elem_ValidationException"><rect codeLine="1" fill="#90EE90" height="48" id="ValidationException" rx="2.5" ry="2.5" style="stroke:#008000;stroke-width:0.5;" width="166" x="372" y="115"/><ellipse cx="387" cy="131" fill="#ADD1B2" rx="11" ry="11" style="stroke:#181818;stroke-width:1.0;"/><path d="M389.9688,136.6406 Q389.3906,136.9375 388.75,137.0781 Q388.1094,137.2344 387.4063,137.2344 Q384.9063,137.2344 383.5781,135.5938 Q382.2656,133.9375 382.2656,130.8125 Q382.2656,127.6875 383.5781,126.0313 Q384.9063,124.375 387.4063,124.375 Q388.1094,124.375 388.75,124.5313 Q389.4063,124.6875 389.9688,124.9844 L389.9688,127.7031 Q389.3438,127.125 388.75,126.8594 Q388.1563,126.5781 387.5313,126.5781 Q386.1875,126.5781 385.5,127.6563 Q384.8125,128.7188 384.8125,130.8125 Q384.8125,132.9063 385.5,133.9844 Q386.1875,135.0469 387.5313,135.0469 Q388.1563,135.0469 388.75,134.7813 Q389.3438,134.5 389.9688,133.9219 L389.9688,136.6406 Z " fill="#000000"/><text fill="#000000" font-family="sans-serif" font-size="14" lengthAdjust="spacing" textLength="134" x="401" y="135.8467">ValidationException</text><line style="stroke:#008000;stroke-width:0.5;" x1="373" x2="537" y1="147" y2="147"/><line style="stroke:#008000;stroke-width:0.5;" x1="373" x2="537" y1="155" y2="155"/></g><!--class RuntimeException--><g id="elem_RuntimeException"><rect fill="#F1F1F1" height="48" id="RuntimeException" rx="2.5" ry="2.5" style="stroke:#181818;stroke-width:0.5;" width="158" x="473" y="7"/><ellipse cx="488" cy="23" fill="#ADD1B2" rx="11" ry="11" style="stroke:#181818;stroke-width:1.0;"/><path d="M490.9688,28.6406 Q490.3906,28.9375 489.75,29.0781 Q489.1094,29.2344 488.4063,29.2344 Q485.9063,29.2344 484.5781,27.5938 Q483.2656,25.9375 483.2656,22.8125 Q483.2656,19.6875 484.5781,18.0313 Q485.9063,16.375 488.4063,16.375 Q489.1094,16.375 489.75,16.5313 Q490.4063,16.6875 490.9688,16.9844 L490.9688,19.7031 Q490.3438,19.125 489.75,18.8594 Q489.1563,18.5781 488.5313,18.5781 Q487.1875,18.5781 486.5,19.6563 Q485.8125,20.7188 485.8125,22.8125 Q485.8125,24.9063 486.5,25.9844 Q487.1875,27.0469 488.5313,27.0469 Q489.1563,27.0469 489.75,26.7813 Q490.3438,26.5 490.9688,25.9219 L490.9688,28.6406 Z " fill="#000000"/><text fill="#000000" font-family="sans-serif" font-size="14" lengthAdjust="spacing" textLength="126" x="502" y="27.8467">RuntimeException</text><line style="stroke:#181818;stroke-width:0.5;" x1="474" x2="630" y1="39" y2="39"/><line style="stroke:#181818;stroke-width:0.5;" x1="474" x2="630" y1="47" y2="47"/></g><!--class SystemException--><g id="elem_SystemException"><rect codeLine="2" fill="#90EE90" height="48" id="SystemException" rx="2.5" ry="2.5" style="stroke:#008000;stroke-width:0.5;" width="151" x="582.5" y="115"/><ellipse cx="597.5" cy="131" fill="#ADD1B2" rx="11" ry="11" style="stroke:#181818;stroke-width:1.0;"/><path d="M600.4688,136.6406 Q599.8906,136.9375 599.25,137.0781 Q598.6094,137.2344 597.9063,137.2344 Q595.4063,137.2344 594.0781,135.5938 Q592.7656,133.9375 592.7656,130.8125 Q592.7656,127.6875 594.0781,126.0313 Q595.4063,124.375 597.9063,124.375 Q598.6094,124.375 599.25,124.5313 Q599.9063,124.6875 600.4688,124.9844 L600.4688,127.7031 Q599.8438,127.125 599.25,126.8594 Q598.6563,126.5781 598.0313,126.5781 Q596.6875,126.5781 596,127.6563 Q595.3125,128.7188 595.3125,130.8125 Q595.3125,132.9063 596,133.9844 Q596.6875,135.0469 598.0313,135.0469 Q598.6563,135.0469 599.25,134.7813 Q599.8438,134.5 600.4688,133.9219 L600.4688,136.6406 Z " fill="#000000"/><text fill="#000000" font-family="sans-serif" font-size="14" lengthAdjust="spacing" textLength="119" x="611.5" y="135.8467">SystemException</text><line style="stroke:#008000;stroke-width:0.5;" x1="583.5" x2="732.5" y1="147" y2="147"/><line style="stroke:#008000;stroke-width:0.5;" x1="583.5" x2="732.5" y1="155" y2="155"/></g><!--class RestSystemException--><g id="elem_RestSystemException"><rect codeLine="3" fill="#90EE90" height="48" id="RestSystemException" rx="2.5" ry="2.5" style="stroke:#008000;stroke-width:0.5;" width="183" x="575.5" y="223"/><ellipse cx="590.5" cy="239" fill="#ADD1B2" rx="11" ry="11" style="stroke:#181818;stroke-width:1.0;"/><path d="M593.4688,244.6406 Q592.8906,244.9375 592.25,245.0781 Q591.6094,245.2344 590.9063,245.2344 Q588.4063,245.2344 587.0781,243.5938 Q585.7656,241.9375 585.7656,238.8125 Q585.7656,235.6875 587.0781,234.0313 Q588.4063,232.375 590.9063,232.375 Q591.6094,232.375 592.25,232.5313 Q592.9063,232.6875 593.4688,232.9844 L593.4688,235.7031 Q592.8438,235.125 592.25,234.8594 Q591.6563,234.5781 591.0313,234.5781 Q589.6875,234.5781 589,235.6563 Q588.3125,236.7188 588.3125,238.8125 Q588.3125,240.9063 589,241.9844 Q589.6875,243.0469 591.0313,243.0469 Q591.6563,243.0469 592.25,242.7813 Q592.8438,242.5 593.4688,241.9219 L593.4688,244.6406 Z " fill="#000000"/><text fill="#000000" font-family="sans-serif" font-size="14" lengthAdjust="spacing" textLength="151" x="604.5" y="243.8467">RestSystemException</text><line style="stroke:#008000;stroke-width:0.5;" x1="576.5" x2="757.5" y1="255" y2="255"/><line style="stroke:#008000;stroke-width:0.5;" x1="576.5" x2="757.5" y1="263" y2="263"/></g><!--class ClientValidationException--><g id="elem_ClientValidationException"><rect codeLine="5" fill="#ADD8E6" height="48" id="ClientValidationException" rx="2.5" ry="2.5" style="stroke:#008000;stroke-width:0.5;" width="205" x="335.5" y="223"/><ellipse cx="350.5" cy="239" fill="#ADD1B2" rx="11" ry="11" style="stroke:#181818;stroke-width:1.0;"/><path d="M353.4688,244.6406 Q352.8906,244.9375 352.25,245.0781 Q351.6094,245.2344 350.9063,245.2344 Q348.4063,245.2344 347.0781,243.5938 Q345.7656,241.9375 345.7656,238.8125 Q345.7656,235.6875 347.0781,234.0313 Q348.4063,232.375 350.9063,232.375 Q351.6094,232.375 352.25,232.5313 Q352.9063,232.6875 353.4688,232.9844 L353.4688,235.7031 Q352.8438,235.125 352.25,234.8594 Q351.6563,234.5781 351.0313,234.5781 Q349.6875,234.5781 349,235.6563 Q348.3125,236.7188 348.3125,238.8125 Q348.3125,240.9063 349,241.9844 Q349.6875,243.0469 351.0313,243.0469 Q351.6563,243.0469 352.25,242.7813 Q352.8438,242.5 353.4688,241.9219 L353.4688,244.6406 Z " fill="#000000"/><text fill="#000000" font-family="sans-serif" font-size="14" lengthAdjust="spacing" textLength="173" x="364.5" y="243.8467">ClientValidationException</text><line style="stroke:#008000;stroke-width:0.5;" x1="336.5" x2="539.5" y1="255" y2="255"/><line style="stroke:#008000;stroke-width:0.5;" x1="336.5" x2="539.5" y1="263" y2="263"/></g><!--class AuthenticationException--><g id="elem_AuthenticationException"><rect codeLine="7" fill="#ADD8E6" height="48" id="AuthenticationException" rx="2.5" ry="2.5" style="stroke:#008000;stroke-width:0.5;" width="200" x="7" y="331"/><ellipse cx="22" cy="347" fill="#ADD1B2" rx="11" ry="11" style="stroke:#181818;stroke-width:1.0;"/><path d="M24.9688,352.6406 Q24.3906,352.9375 23.75,353.0781 Q23.1094,353.2344 22.4063,353.2344 Q19.9063,353.2344 18.5781,351.5938 Q17.2656,349.9375 17.2656,346.8125 Q17.2656,343.6875 18.5781,342.0313 Q19.9063,340.375 22.4063,340.375 Q23.1094,340.375 23.75,340.5313 Q24.4063,340.6875 24.9688,340.9844 L24.9688,343.7031 Q24.3438,343.125 23.75,342.8594 Q23.1563,342.5781 22.5313,342.5781 Q21.1875,342.5781 20.5,343.6563 Q19.8125,344.7188 19.8125,346.8125 Q19.8125,348.9063 20.5,349.9844 Q21.1875,351.0469 22.5313,351.0469 Q23.1563,351.0469 23.75,350.7813 Q24.3438,350.5 24.9688,349.9219 L24.9688,352.6406 Z " fill="#000000"/><text fill="#000000" font-family="sans-serif" font-size="14" lengthAdjust="spacing" textLength="168" x="36" y="351.8467">AuthenticationException</text><line style="stroke:#008000;stroke-width:0.5;" x1="8" x2="206" y1="363" y2="363"/><line style="stroke:#008000;stroke-width:0.5;" x1="8" x2="206" y1="371" y2="371"/></g><!--class AuthorizationException--><g id="elem_AuthorizationException"><rect codeLine="8" fill="#ADD8E6" height="48" id="AuthorizationException" rx="2.5" ry="2.5" style="stroke:#008000;stroke-width:0.5;" width="191" x="242.5" y="331"/><ellipse cx="257.5" cy="347" fill="#ADD1B2" rx="11" ry="11" style="stroke:#181818;stroke-width:1.0;"/><path d="M260.4688,352.6406 Q259.8906,352.9375 259.25,353.0781 Q258.6094,353.2344 257.9063,353.2344 Q255.4063,353.2344 254.0781,351.5938 Q252.7656,349.9375 252.7656,346.8125 Q252.7656,343.6875 254.0781,342.0313 Q255.4063,340.375 257.9063,340.375 Q258.6094,340.375 259.25,340.5313 Q259.9063,340.6875 260.4688,340.9844 L260.4688,343.7031 Q259.8438,343.125 259.25,342.8594 Q258.6563,342.5781 258.0313,342.5781 Q256.6875,342.5781 256,343.6563 Q255.3125,344.7188 255.3125,346.8125 Q255.3125,348.9063 256,349.9844 Q256.6875,351.0469 258.0313,351.0469 Q258.6563,351.0469 259.25,350.7813 Q259.8438,350.5 260.4688,349.9219 L260.4688,352.6406 Z " fill="#000000"/><text fill="#000000" font-family="sans-serif" font-size="14" lengthAdjust="spacing" textLength="159" x="271.5" y="351.8467">AuthorizationException</text><line style="stroke:#008000;stroke-width:0.5;" x1="243.5" x2="432.5" y1="363" y2="363"/><line style="stroke:#008000;stroke-width:0.5;" x1="243.5" x2="432.5" y1="371" y2="371"/></g><!--class BadRequestException--><g id="elem_BadRequestException"><rect codeLine="9" fill="#ADD8E6" height="48" id="BadRequestException" rx="2.5" ry="2.5" style="stroke:#008000;stroke-width:0.5;" width="186" x="468" y="331"/><ellipse cx="483" cy="347" fill="#ADD1B2" rx="11" ry="11" style="stroke:#181818;stroke-width:1.0;"/><path d="M485.9688,352.6406 Q485.3906,352.9375 484.75,353.0781 Q484.1094,353.2344 483.4063,353.2344 Q480.9063,353.2344 479.5781,351.5938 Q478.2656,349.9375 478.2656,346.8125 Q478.2656,343.6875 479.5781,342.0313 Q480.9063,340.375 483.4063,340.375 Q484.1094,340.375 484.75,340.5313 Q485.4063,340.6875 485.9688,340.9844 L485.9688,343.7031 Q485.3438,343.125 484.75,342.8594 Q484.1563,342.5781 483.5313,342.5781 Q482.1875,342.5781 481.5,343.6563 Q480.8125,344.7188 480.8125,346.8125 Q480.8125,348.9063 481.5,349.9844 Q482.1875,351.0469 483.5313,351.0469 Q484.1563,351.0469 484.75,350.7813 Q485.3438,350.5 485.9688,349.9219 L485.9688,352.6406 Z " fill="#000000"/><text fill="#000000" font-family="sans-serif" font-size="14" lengthAdjust="spacing" textLength="154" x="497" y="351.8467">BadRequestException</text><line style="stroke:#008000;stroke-width:0.5;" x1="469" x2="653" y1="363" y2="363"/><line style="stroke:#008000;stroke-width:0.5;" x1="469" x2="653" y1="371" y2="371"/></g><!--class NotFoundException--><g id="elem_NotFoundException"><rect codeLine="10" fill="#ADD8E6" height="48" id="NotFoundException" rx="2.5" ry="2.5" style="stroke:#008000;stroke-width:0.5;" width="168" x="689" y="331"/><ellipse cx="704" cy="347" fill="#ADD1B2" rx="11" ry="11" style="stroke:#181818;stroke-width:1.0;"/><path d="M706.9688,352.6406 Q706.3906,352.9375 705.75,353.0781 Q705.1094,353.2344 704.4063,353.2344 Q701.9063,353.2344 700.5781,351.5938 Q699.2656,349.9375 699.2656,346.8125 Q699.2656,343.6875 700.5781,342.0313 Q701.9063,340.375 704.4063,340.375 Q705.1094,340.375 705.75,340.5313 Q706.4063,340.6875 706.9688,340.9844 L706.9688,343.7031 Q706.3438,343.125 705.75,342.8594 Q705.1563,342.5781 704.5313,342.5781 Q703.1875,342.5781 702.5,343.6563 Q701.8125,344.7188 701.8125,346.8125 Q701.8125,348.9063 702.5,349.9844 Q703.1875,351.0469 704.5313,351.0469 Q705.1563,351.0469 705.75,350.7813 Q706.3438,350.5 706.9688,349.9219 L706.9688,352.6406 Z " fill="#000000"/><text fill="#000000" font-family="sans-serif" font-size="14" lengthAdjust="spacing" textLength="136" x="718" y="351.8467">NotFoundException</text><line style="stroke:#008000;stroke-width:0.5;" x1="690" x2="856" y1="363" y2="363"/><line style="stroke:#008000;stroke-width:0.5;" x1="690" x2="856" y1="371" y2="371"/></g><!--class CamundaCommunicationException--><g id="elem_CamundaCommunicationException"><rect codeLine="11" fill="#ADD8E6" height="48" id="CamundaCommunicationException" rx="2.5" ry="2.5" style="stroke:#008000;stroke-width:0.5;" width="274" x="892" y="331"/><ellipse cx="907" cy="347" fill="#ADD1B2" rx="11" ry="11" style="stroke:#181818;stroke-width:1.0;"/><path d="M909.9688,352.6406 Q909.3906,352.9375 908.75,353.0781 Q908.1094,353.2344 907.4063,353.2344 Q904.9063,353.2344 903.5781,351.5938 Q902.2656,349.9375 902.2656,346.8125 Q902.2656,343.6875 903.5781,342.0313 Q904.9063,340.375 907.4063,340.375 Q908.1094,340.375 908.75,340.5313 Q909.4063,340.6875 909.9688,340.9844 L909.9688,343.7031 Q909.3438,343.125 908.75,342.8594 Q908.1563,342.5781 907.5313,342.5781 Q906.1875,342.5781 905.5,343.6563 Q904.8125,344.7188 904.8125,346.8125 Q904.8125,348.9063 905.5,349.9844 Q906.1875,351.0469 907.5313,351.0469 Q908.1563,351.0469 908.75,350.7813 Q909.3438,350.5 909.9688,349.9219 L909.9688,352.6406 Z " fill="#000000"/><text fill="#000000" font-family="sans-serif" font-size="14" lengthAdjust="spacing" textLength="242" x="921" y="351.8467">CamundaCommunicationException</text><line style="stroke:#008000;stroke-width:0.5;" x1="893" x2="1165" y1="363" y2="363"/><line style="stroke:#008000;stroke-width:0.5;" x1="893" x2="1165" y1="371" y2="371"/></g><!--class InternalServerErrorException--><g id="elem_InternalServerErrorException"><rect codeLine="12" fill="#ADD8E6" height="48" id="InternalServerErrorException" rx="2.5" ry="2.5" style="stroke:#008000;stroke-width:0.5;" width="228" x="1201" y="331"/><ellipse cx="1216" cy="347" fill="#ADD1B2" rx="11" ry="11" style="stroke:#181818;stroke-width:1.0;"/><path d="M1218.9688,352.6406 Q1218.3906,352.9375 1217.75,353.0781 Q1217.1094,353.2344 1216.4063,353.2344 Q1213.9063,353.2344 1212.5781,351.5938 Q1211.2656,349.9375 1211.2656,346.8125 Q1211.2656,343.6875 1212.5781,342.0313 Q1213.9063,340.375 1216.4063,340.375 Q1217.1094,340.375 1217.75,340.5313 Q1218.4063,340.6875 1218.9688,340.9844 L1218.9688,343.7031 Q1218.3438,343.125 1217.75,342.8594 Q1217.1563,342.5781 1216.5313,342.5781 Q1215.1875,342.5781 1214.5,343.6563 Q1213.8125,344.7188 1213.8125,346.8125 Q1213.8125,348.9063 1214.5,349.9844 Q1215.1875,351.0469 1216.5313,351.0469 Q1217.1563,351.0469 1217.75,350.7813 Q1218.3438,350.5 1218.9688,349.9219 L1218.9688,352.6406 Z " fill="#000000"/><text fill="#000000" font-family="sans-serif" font-size="14" lengthAdjust="spacing" textLength="196" x="1230" y="351.8467">InternalServerErrorException</text><line style="stroke:#008000;stroke-width:0.5;" x1="1202" x2="1428" y1="363" y2="363"/><line style="stroke:#008000;stroke-width:0.5;" x1="1202" x2="1428" y1="371" y2="371"/></g><!--class ProcessDefinitionNotFoundException--><g id="elem_ProcessDefinitionNotFoundException"><rect codeLine="14" fill="#ADD8E6" height="48" id="ProcessDefinitionNotFoundException" rx="2.5" ry="2.5" style="stroke:#008000;stroke-width:0.5;" width="289" x="134.5" y="439"/><ellipse cx="149.5" cy="455" fill="#ADD1B2" rx="11" ry="11" style="stroke:#181818;stroke-width:1.0;"/><path d="M152.4688,460.6406 Q151.8906,460.9375 151.25,461.0781 Q150.6094,461.2344 149.9063,461.2344 Q147.4063,461.2344 146.0781,459.5938 Q144.7656,457.9375 144.7656,454.8125 Q144.7656,451.6875 146.0781,450.0313 Q147.4063,448.375 149.9063,448.375 Q150.6094,448.375 151.25,448.5313 Q151.9063,448.6875 152.4688,448.9844 L152.4688,451.7031 Q151.8438,451.125 151.25,450.8594 Q150.6563,450.5781 150.0313,450.5781 Q148.6875,450.5781 148,451.6563 Q147.3125,452.7188 147.3125,454.8125 Q147.3125,456.9063 148,457.9844 Q148.6875,459.0469 150.0313,459.0469 Q150.6563,459.0469 151.25,458.7813 Q151.8438,458.5 152.4688,457.9219 L152.4688,460.6406 Z " fill="#000000"/><text fill="#000000" font-family="sans-serif" font-size="14" lengthAdjust="spacing" textLength="257" x="163.5" y="459.8467">ProcessDefinitionNotFoundException</text><line style="stroke:#008000;stroke-width:0.5;" x1="135.5" x2="422.5" y1="471" y2="471"/><line style="stroke:#008000;stroke-width:0.5;" x1="135.5" x2="422.5" y1="479" y2="479"/></g><!--class ProcessInstanceNotFoundException--><g id="elem_ProcessInstanceNotFoundException"><rect codeLine="15" fill="#ADD8E6" height="48" id="ProcessInstanceNotFoundException" rx="2.5" ry="2.5" style="stroke:#008000;stroke-width:0.5;" width="283" x="458.5" y="439"/><ellipse cx="473.5" cy="455" fill="#ADD1B2" rx="11" ry="11" style="stroke:#181818;stroke-width:1.0;"/><path d="M476.4688,460.6406 Q475.8906,460.9375 475.25,461.0781 Q474.6094,461.2344 473.9063,461.2344 Q471.4063,461.2344 470.0781,459.5938 Q468.7656,457.9375 468.7656,454.8125 Q468.7656,451.6875 470.0781,450.0313 Q471.4063,448.375 473.9063,448.375 Q474.6094,448.375 475.25,448.5313 Q475.9063,448.6875 476.4688,448.9844 L476.4688,451.7031 Q475.8438,451.125 475.25,450.8594 Q474.6563,450.5781 474.0313,450.5781 Q472.6875,450.5781 472,451.6563 Q471.3125,452.7188 471.3125,454.8125 Q471.3125,456.9063 472,457.9844 Q472.6875,459.0469 474.0313,459.0469 Q474.6563,459.0469 475.25,458.7813 Q475.8438,458.5 476.4688,457.9219 L476.4688,460.6406 Z " fill="#000000"/><text fill="#000000" font-family="sans-serif" font-size="14" lengthAdjust="spacing" textLength="251" x="487.5" y="459.8467">ProcessInstanceNotFoundException</text><line style="stroke:#008000;stroke-width:0.5;" x1="459.5" x2="740.5" y1="471" y2="471"/><line style="stroke:#008000;stroke-width:0.5;" x1="459.5" x2="740.5" y1="479" y2="479"/></g><!--class ProcessInstanceVariableNotFoundException--><g id="elem_ProcessInstanceVariableNotFoundException"><rect codeLine="16" fill="#ADD8E6" height="48" id="ProcessInstanceVariableNotFoundException" rx="2.5" ry="2.5" style="stroke:#008000;stroke-width:0.5;" width="337" x="776.5" y="439"/><ellipse cx="791.5" cy="455" fill="#ADD1B2" rx="11" ry="11" style="stroke:#181818;stroke-width:1.0;"/><path d="M794.4688,460.6406 Q793.8906,460.9375 793.25,461.0781 Q792.6094,461.2344 791.9063,461.2344 Q789.4063,461.2344 788.0781,459.5938 Q786.7656,457.9375 786.7656,454.8125 Q786.7656,451.6875 788.0781,450.0313 Q789.4063,448.375 791.9063,448.375 Q792.6094,448.375 793.25,448.5313 Q793.9063,448.6875 794.4688,448.9844 L794.4688,451.7031 Q793.8438,451.125 793.25,450.8594 Q792.6563,450.5781 792.0313,450.5781 Q790.6875,450.5781 790,451.6563 Q789.3125,452.7188 789.3125,454.8125 Q789.3125,456.9063 790,457.9844 Q790.6875,459.0469 792.0313,459.0469 Q792.6563,459.0469 793.25,458.7813 Q793.8438,458.5 794.4688,457.9219 L794.4688,460.6406 Z " fill="#000000"/><text fill="#000000" font-family="sans-serif" font-size="14" lengthAdjust="spacing" textLength="305" x="805.5" y="459.8467">ProcessInstanceVariableNotFoundException</text><line style="stroke:#008000;stroke-width:0.5;" x1="777.5" x2="1112.5" y1="471" y2="471"/><line style="stroke:#008000;stroke-width:0.5;" x1="777.5" x2="1112.5" y1="479" y2="479"/></g><!--class TaskNotFoundException--><g id="elem_TaskNotFoundException"><rect codeLine="17" fill="#ADD8E6" height="48" id="TaskNotFoundException" rx="2.5" ry="2.5" style="stroke:#008000;stroke-width:0.5;" width="201" x="1148.5" y="439"/><ellipse cx="1163.5" cy="455" fill="#ADD1B2" rx="11" ry="11" style="stroke:#181818;stroke-width:1.0;"/><path d="M1166.4688,460.6406 Q1165.8906,460.9375 1165.25,461.0781 Q1164.6094,461.2344 1163.9063,461.2344 Q1161.4063,461.2344 1160.0781,459.5938 Q1158.7656,457.9375 1158.7656,454.8125 Q1158.7656,451.6875 1160.0781,450.0313 Q1161.4063,448.375 1163.9063,448.375 Q1164.6094,448.375 1165.25,448.5313 Q1165.9063,448.6875 1166.4688,448.9844 L1166.4688,451.7031 Q1165.8438,451.125 1165.25,450.8594 Q1164.6563,450.5781 1164.0313,450.5781 Q1162.6875,450.5781 1162,451.6563 Q1161.3125,452.7188 1161.3125,454.8125 Q1161.3125,456.9063 1162,457.9844 Q1162.6875,459.0469 1164.0313,459.0469 Q1164.6563,459.0469 1165.25,458.7813 Q1165.8438,458.5 1166.4688,457.9219 L1166.4688,460.6406 Z " fill="#000000"/><text fill="#000000" font-family="sans-serif" font-size="14" lengthAdjust="spacing" textLength="169" x="1177.5" y="459.8467">TaskNotFoundException</text><line style="stroke:#008000;stroke-width:0.5;" x1="1149.5" x2="1348.5" y1="471" y2="471"/><line style="stroke:#008000;stroke-width:0.5;" x1="1149.5" x2="1348.5" y1="479" y2="479"/></g><!--reverse link RuntimeException to ValidationException--><g id="link_RuntimeException_ValidationException"><path d="M516.79,70.48 C503.2,85.33 488.11,101.82 476.24,114.79 " fill="none" id="RuntimeException-backto-ValidationException" style="stroke:#181818;stroke-width:1.0;"/><polygon fill="none" points="511.05,66.29,529.71,56.26,521.38,75.74,511.05,66.29" style="stroke:#181818;stroke-width:1.0;"/></g><!--reverse link RuntimeException to SystemException--><g id="link_RuntimeException_SystemException"><path d="M590.01,70.01 C604.98,84.98 621.69,101.68 634.79,114.79 " fill="none" id="RuntimeException-backto-SystemException" style="stroke:#181818;stroke-width:1.0;"/><polygon fill="none" points="585.45,75.35,576.26,56.26,595.35,65.45,585.45,75.35" style="stroke:#181818;stroke-width:1.0;"/></g><!--reverse link SystemException to RestSystemException--><g id="link_SystemException_RestSystemException"><path d="M661.71,183.75 C662.85,197.14 664.06,211.34 665.03,222.79 " fill="none" id="SystemException-backto-RestSystemException" style="stroke:#181818;stroke-width:1.0;"/><polygon fill="none" points="654.69,184.78,659.98,164.26,668.64,183.6,654.69,184.78" style="stroke:#181818;stroke-width:1.0;"/></g><!--reverse link ValidationException to ClientValidationException--><g id="link_ValidationException_ClientValidationException"><path d="M447.98,183.75 C445.84,197.14 443.56,211.34 441.72,222.79 " fill="none" id="ValidationException-backto-ClientValidationException" style="stroke:#181818;stroke-width:1.0;"/><polygon fill="none" points="441.19,182.9,451.27,164.26,455.01,185.12,441.19,182.9" style="stroke:#181818;stroke-width:1.0;"/></g><!--reverse link RestSystemException to AuthenticationException--><g id="link_RestSystemException_AuthenticationException"><path d="M554.61,271.59 C406.98,300.2 366.46,304.47 225,331 C219.26,332.08 213.36,333.19 207.41,334.33 " fill="none" id="RestSystemException-backto-AuthenticationException" style="stroke:#181818;stroke-width:1.0;"/><polygon fill="none" points="553.19,264.54,574.16,267.58,555.87,278.28,553.19,264.54" style="stroke:#181818;stroke-width:1.0;"/></g><!--reverse link RestSystemException to AuthorizationException--><g id="link_RestSystemException_AuthorizationException"><path d="M574.44,277.82 C522.62,294.52 458.92,315.04 410.71,330.57 " fill="none" id="RestSystemException-backto-AuthorizationException" style="stroke:#181818;stroke-width:1.0;"/><polygon fill="none" points="572.21,270.86,593.39,271.39,576.5,284.19,572.21,270.86" style="stroke:#181818;stroke-width:1.0;"/></g><!--reverse link RestSystemException to BadRequestException--><g id="link_RestSystemException_BadRequestException"><path d="M628.99,286.01 C614.02,300.98 597.32,317.68 584.21,330.79 " fill="none" id="RestSystemException-backto-BadRequestException" style="stroke:#181818;stroke-width:1.0;"/><polygon fill="none" points="623.65,281.45,642.74,272.26,633.55,291.35,623.65,281.45" style="stroke:#181818;stroke-width:1.0;"/></g><!--reverse link RestSystemException to NotFoundException--><g id="link_RestSystemException_NotFoundException"><path d="M705.01,286.01 C719.98,300.98 736.69,317.68 749.79,330.79 " fill="none" id="RestSystemException-backto-NotFoundException" style="stroke:#181818;stroke-width:1.0;"/><polygon fill="none" points="700.45,291.35,691.26,272.26,710.35,281.45,700.45,291.35" style="stroke:#181818;stroke-width:1.0;"/></g><!--reverse link RestSystemException to CamundaCommunicationException--><g id="link_RestSystemException_CamundaCommunicationException"><path d="M766.95,277.27 C824.31,294.06 895.36,314.87 949,330.57 " fill="none" id="RestSystemException-backto-CamundaCommunicationException" style="stroke:#181818;stroke-width:1.0;"/><polygon fill="none" points="765.12,283.73,747.89,271.39,769.05,270.3,765.12,283.73" style="stroke:#181818;stroke-width:1.0;"/></g><!--reverse link RestSystemException to InternalServerErrorException--><g id="link_RestSystemException_InternalServerErrorException"><path d="M779.1,265.51 C883.87,281.99 1044.63,307.58 1184,331 C1189.47,331.92 1195.06,332.87 1200.7,333.83 " fill="none" id="RestSystemException-backto-InternalServerErrorException" style="stroke:#181818;stroke-width:1.0;"/><polygon fill="none" points="778.26,272.31,759.59,262.29,780.43,258.48,778.26,272.31" style="stroke:#181818;stroke-width:1.0;"/></g><!--reverse link NotFoundException to ProcessDefinitionNotFoundException--><g id="link_NotFoundException_ProcessDefinitionNotFoundException"><path d="M668.47,379.52 C564.22,402.25 465.5,423.09 391.88,438.51 " fill="none" id="NotFoundException-backto-ProcessDefinitionNotFoundException" style="stroke:#181818;stroke-width:1.0;"/><polygon fill="none" points="666.66,372.53,687.69,375.1,669.65,386.21,666.66,372.53" style="stroke:#181818;stroke-width:1.0;"/></g><!--reverse link NotFoundException to ProcessInstanceNotFoundException--><g id="link_NotFoundException_ProcessInstanceNotFoundException"><path d="M717.14,390.23 C691.33,406.04 661.35,424.41 638.18,438.61 " fill="none" id="NotFoundException-backto-ProcessInstanceNotFoundException" style="stroke:#181818;stroke-width:1.0;"/><polygon fill="none" points="713.32,383.74,734.03,379.26,720.64,395.68,713.32,383.74" style="stroke:#181818;stroke-width:1.0;"/></g><!--reverse link NotFoundException to ProcessInstanceVariableNotFoundException--><g id="link_NotFoundException_ProcessInstanceVariableNotFoundException"><path d="M828.54,390.23 C854.2,406.04 884.01,424.41 907.05,438.61 " fill="none" id="NotFoundException-backto-ProcessInstanceVariableNotFoundException" style="stroke:#181818;stroke-width:1.0;"/><polygon fill="none" points="825.1,395.71,811.75,379.26,832.45,383.8,825.1,395.71" style="stroke:#181818;stroke-width:1.0;"/></g><!--reverse link NotFoundException to TaskNotFoundException--><g id="link_NotFoundException_TaskNotFoundException"><path d="M877.48,379.77 C979.79,402.71 1077.42,424.28 1148.29,439.88 " fill="none" id="NotFoundException-backto-TaskNotFoundException" style="stroke:#181818;stroke-width:1.0;"/><polygon fill="none" points="876.29,386.45,858.31,375.24,879.36,372.79,876.29,386.45" style="stroke:#181818;stroke-width:1.0;"/></g><!--SRC=[lP3BJiD034Nt_Of8_4LOGIXIDmYbg7jdObghZgVO7bJuUgPG48zANMJ2QgxakUT8Dp2OLIjWwi4fodmVS7S8rKK7OLiphJU-LaIvP1AiFwBZtkkEyuSg9vJUgZQ9qu1V_Lbu9ozVp74eJMtHV2JvLtrs93TCA7vcZuuJdi6V87mghf9lieF2AC692RxnezBhHFXhw5jyIlbUddqN_JOcwSkJ6nWo5veuv7UowHVYg0AyH7r6dQj6BIavMkur1ZIxmKSIEXp6plQd_rEq47EGWF-aMO4IT3oPxW5iMvpz1W00]--></g></svg>