<?xml version="1.0" encoding="us-ascii" standalone="no"?><svg xmlns="http://www.w3.org/2000/svg" xmlns:xlink="http://www.w3.org/1999/xlink" contentStyleType="text/css" height="278px" preserveAspectRatio="none" style="width:1098px;height:278px;background:#FFFFFF;" version="1.1" viewBox="0 0 1098 278" width="1098px" zoomAndPan="magnify"><defs/><g><!--class BaseFeignClient--><g id="elem_BaseFeignClient"><rect codeLine="1" fill="#ADD8E6" height="48" id="BaseFeignClient" rx="2.5" ry="2.5" style="stroke:#008000;stroke-width:0.5;" width="144" x="450.5" y="7"/><ellipse cx="465.5" cy="23" fill="#B4A7E5" rx="11" ry="11" style="stroke:#181818;stroke-width:1.0;"/><path d="M461.4219,18.7656 L461.4219,16.6094 L468.8125,16.6094 L468.8125,18.7656 L466.3438,18.7656 L466.3438,26.8438 L468.8125,26.8438 L468.8125,29 L461.4219,29 L461.4219,26.8438 L463.8906,26.8438 L463.8906,18.7656 L461.4219,18.7656 Z " fill="#000000"/><text fill="#000000" font-family="sans-serif" font-size="14" font-style="italic" lengthAdjust="spacing" textLength="112" x="479.5" y="27.8467">BaseFeignClient</text><line style="stroke:#008000;stroke-width:0.5;" x1="451.5" x2="593.5" y1="39" y2="39"/><line style="stroke:#008000;stroke-width:0.5;" x1="451.5" x2="593.5" y1="47" y2="47"/></g><!--class CamundaTaskRestClient--><g id="elem_CamundaTaskRestClient"><rect codeLine="2" fill="#ADD8E6" height="48" id="CamundaTaskRestClient" rx="2.5" ry="2.5" style="stroke:#008000;stroke-width:0.5;" width="202" x="213.5" y="7"/><ellipse cx="228.5" cy="23" fill="#B4A7E5" rx="11" ry="11" style="stroke:#181818;stroke-width:1.0;"/><path d="M224.4219,18.7656 L224.4219,16.6094 L231.8125,16.6094 L231.8125,18.7656 L229.3438,18.7656 L229.3438,26.8438 L231.8125,26.8438 L231.8125,29 L224.4219,29 L224.4219,26.8438 L226.8906,26.8438 L226.8906,18.7656 L224.4219,18.7656 Z " fill="#000000"/><text fill="#000000" font-family="sans-serif" font-size="14" font-style="italic" lengthAdjust="spacing" textLength="170" x="242.5" y="27.8467">CamundaTaskRestClient</text><line style="stroke:#008000;stroke-width:0.5;" x1="214.5" x2="414.5" y1="39" y2="39"/><line style="stroke:#008000;stroke-width:0.5;" x1="214.5" x2="414.5" y1="47" y2="47"/></g><!--class HistoryTaskRestClient--><g id="elem_HistoryTaskRestClient"><rect codeLine="3" fill="#ADD8E6" height="48" id="HistoryTaskRestClient" rx="2.5" ry="2.5" style="stroke:#008000;stroke-width:0.5;" width="183" x="7" y="115"/><ellipse cx="22" cy="131" fill="#B4A7E5" rx="11" ry="11" style="stroke:#181818;stroke-width:1.0;"/><path d="M17.9219,126.7656 L17.9219,124.6094 L25.3125,124.6094 L25.3125,126.7656 L22.8438,126.7656 L22.8438,134.8438 L25.3125,134.8438 L25.3125,137 L17.9219,137 L17.9219,134.8438 L20.3906,134.8438 L20.3906,126.7656 L17.9219,126.7656 Z " fill="#000000"/><text fill="#000000" font-family="sans-serif" font-size="14" font-style="italic" lengthAdjust="spacing" textLength="151" x="36" y="135.8467">HistoryTaskRestClient</text><line style="stroke:#008000;stroke-width:0.5;" x1="8" x2="189" y1="147" y2="147"/><line style="stroke:#008000;stroke-width:0.5;" x1="8" x2="189" y1="155" y2="155"/></g><!--class HistoryVariableInstanceClient--><g id="elem_HistoryVariableInstanceClient"><rect codeLine="4" fill="#ADD8E6" height="48" id="HistoryVariableInstanceClient" rx="2.5" ry="2.5" style="stroke:#008000;stroke-width:0.5;" width="231" x="56" y="223"/><ellipse cx="71" cy="239" fill="#B4A7E5" rx="11" ry="11" style="stroke:#181818;stroke-width:1.0;"/><path d="M66.9219,234.7656 L66.9219,232.6094 L74.3125,232.6094 L74.3125,234.7656 L71.8438,234.7656 L71.8438,242.8438 L74.3125,242.8438 L74.3125,245 L66.9219,245 L66.9219,242.8438 L69.3906,242.8438 L69.3906,234.7656 L66.9219,234.7656 Z " fill="#000000"/><text fill="#000000" font-family="sans-serif" font-size="14" font-style="italic" lengthAdjust="spacing" textLength="199" x="85" y="243.8467">HistoryVariableInstanceClient</text><line style="stroke:#008000;stroke-width:0.5;" x1="57" x2="286" y1="255" y2="255"/><line style="stroke:#008000;stroke-width:0.5;" x1="57" x2="286" y1="263" y2="263"/></g><!--class ProcessInstanceHistoryRestClient--><g id="elem_ProcessInstanceHistoryRestClient"><rect codeLine="5" fill="#ADD8E6" height="48" id="ProcessInstanceHistoryRestClient" rx="2.5" ry="2.5" style="stroke:#008000;stroke-width:0.5;" width="265" x="297" y="115"/><ellipse cx="312" cy="131" fill="#B4A7E5" rx="11" ry="11" style="stroke:#181818;stroke-width:1.0;"/><path d="M307.9219,126.7656 L307.9219,124.6094 L315.3125,124.6094 L315.3125,126.7656 L312.8438,126.7656 L312.8438,134.8438 L315.3125,134.8438 L315.3125,137 L307.9219,137 L307.9219,134.8438 L310.3906,134.8438 L310.3906,126.7656 L307.9219,126.7656 Z " fill="#000000"/><text fill="#000000" font-family="sans-serif" font-size="14" font-style="italic" lengthAdjust="spacing" textLength="233" x="326" y="135.8467">ProcessInstanceHistoryRestClient</text><line style="stroke:#008000;stroke-width:0.5;" x1="298" x2="561" y1="147" y2="147"/><line style="stroke:#008000;stroke-width:0.5;" x1="298" x2="561" y1="155" y2="155"/></g><!--class ProcessDefinitionRestClient--><g id="elem_ProcessDefinitionRestClient"><rect codeLine="6" fill="#ADD8E6" height="48" id="ProcessDefinitionRestClient" rx="2.5" ry="2.5" style="stroke:#008000;stroke-width:0.5;" width="224" x="584.5" y="223"/><ellipse cx="599.5" cy="239" fill="#B4A7E5" rx="11" ry="11" style="stroke:#181818;stroke-width:1.0;"/><path d="M595.4219,234.7656 L595.4219,232.6094 L602.8125,232.6094 L602.8125,234.7656 L600.3438,234.7656 L600.3438,242.8438 L602.8125,242.8438 L602.8125,245 L595.4219,245 L595.4219,242.8438 L597.8906,242.8438 L597.8906,234.7656 L595.4219,234.7656 Z " fill="#000000"/><text fill="#000000" font-family="sans-serif" font-size="14" font-style="italic" lengthAdjust="spacing" textLength="192" x="613.5" y="243.8467">ProcessDefinitionRestClient</text><line style="stroke:#008000;stroke-width:0.5;" x1="585.5" x2="807.5" y1="255" y2="255"/><line style="stroke:#008000;stroke-width:0.5;" x1="585.5" x2="807.5" y1="263" y2="263"/></g><!--class ProcessInstanceRestClient--><g id="elem_ProcessInstanceRestClient"><rect codeLine="7" fill="#ADD8E6" height="48" id="ProcessInstanceRestClient" rx="2.5" ry="2.5" style="stroke:#008000;stroke-width:0.5;" width="218" x="668.5" y="115"/><ellipse cx="683.5" cy="131" fill="#B4A7E5" rx="11" ry="11" style="stroke:#181818;stroke-width:1.0;"/><path d="M679.4219,126.7656 L679.4219,124.6094 L686.8125,124.6094 L686.8125,126.7656 L684.3438,126.7656 L684.3438,134.8438 L686.8125,134.8438 L686.8125,137 L679.4219,137 L679.4219,134.8438 L681.8906,134.8438 L681.8906,126.7656 L679.4219,126.7656 Z " fill="#000000"/><text fill="#000000" font-family="sans-serif" font-size="14" font-style="italic" lengthAdjust="spacing" textLength="186" x="697.5" y="135.8467">ProcessInstanceRestClient</text><line style="stroke:#008000;stroke-width:0.5;" x1="669.5" x2="885.5" y1="147" y2="147"/><line style="stroke:#008000;stroke-width:0.5;" x1="669.5" x2="885.5" y1="155" y2="155"/></g><!--class TaskPropertyRestClient--><g id="elem_TaskPropertyRestClient"><rect codeLine="8" fill="#ADD8E6" height="48" id="TaskPropertyRestClient" rx="2.5" ry="2.5" style="stroke:#008000;stroke-width:0.5;" width="194" x="629.5" y="7"/><ellipse cx="644.5" cy="23" fill="#B4A7E5" rx="11" ry="11" style="stroke:#181818;stroke-width:1.0;"/><path d="M640.4219,18.7656 L640.4219,16.6094 L647.8125,16.6094 L647.8125,18.7656 L645.3438,18.7656 L645.3438,26.8438 L647.8125,26.8438 L647.8125,29 L640.4219,29 L640.4219,26.8438 L642.8906,26.8438 L642.8906,18.7656 L640.4219,18.7656 Z " fill="#000000"/><text fill="#000000" font-family="sans-serif" font-size="14" font-style="italic" lengthAdjust="spacing" textLength="162" x="658.5" y="27.8467">TaskPropertyRestClient</text><line style="stroke:#008000;stroke-width:0.5;" x1="630.5" x2="822.5" y1="39" y2="39"/><line style="stroke:#008000;stroke-width:0.5;" x1="630.5" x2="822.5" y1="47" y2="47"/></g><!--class StartFormRestClient--><g id="elem_StartFormRestClient"><rect codeLine="9" fill="#ADD8E6" height="48" id="StartFormRestClient" rx="2.5" ry="2.5" style="stroke:#008000;stroke-width:0.5;" width="170" x="921.5" y="115"/><ellipse cx="936.5" cy="131" fill="#B4A7E5" rx="11" ry="11" style="stroke:#181818;stroke-width:1.0;"/><path d="M932.4219,126.7656 L932.4219,124.6094 L939.8125,124.6094 L939.8125,126.7656 L937.3438,126.7656 L937.3438,134.8438 L939.8125,134.8438 L939.8125,137 L932.4219,137 L932.4219,134.8438 L934.8906,134.8438 L934.8906,126.7656 L932.4219,126.7656 Z " fill="#000000"/><text fill="#000000" font-family="sans-serif" font-size="14" font-style="italic" lengthAdjust="spacing" textLength="138" x="950.5" y="135.8467">StartFormRestClient</text><line style="stroke:#008000;stroke-width:0.5;" x1="922.5" x2="1090.5" y1="147" y2="147"/><line style="stroke:#008000;stroke-width:0.5;" x1="922.5" x2="1090.5" y1="155" y2="155"/></g><!--reverse link BaseFeignClient to HistoryTaskRestClient--><g id="link_BaseFeignClient_HistoryTaskRestClient"><path d="M429.95,55.87 C338.62,78.94 253.02,100.1 190.27,115.53 " fill="none" id="BaseFeignClient-backto-HistoryTaskRestClient" style="stroke:#181818;stroke-width:1.0;"/><polygon fill="none" points="428.04,48.88,449.14,50.76,431.47,62.45,428.04,48.88" style="stroke:#181818;stroke-width:1.0;"/></g><!--reverse link BaseFeignClient to HistoryVariableInstanceClient--><g id="link_BaseFeignClient_HistoryVariableInstanceClient"><path d="M430.18,57.83 C372.53,75.05 304.63,97.61 279.5,115 C237.69,143.93 203.19,193.35 185.13,222.51 " fill="none" id="BaseFeignClient-backto-HistoryVariableInstanceClient" style="stroke:#181818;stroke-width:1.0;"/><polygon fill="none" points="427.9,50.92,449.06,51.99,431.85,64.35,427.9,50.92" style="stroke:#181818;stroke-width:1.0;"/></g><!--reverse link BaseFeignClient to ProcessInstanceHistoryRestClient--><g id="link_BaseFeignClient_ProcessInstanceHistoryRestClient"><path d="M488.32,70.96 C475.4,85.68 461.12,101.96 449.86,114.79 " fill="none" id="BaseFeignClient-backto-ProcessInstanceHistoryRestClient" style="stroke:#181818;stroke-width:1.0;"/><polygon fill="none" points="483.64,66.68,502.09,56.26,494.16,75.91,483.64,66.68" style="stroke:#181818;stroke-width:1.0;"/></g><!--reverse link BaseFeignClient to ProcessDefinitionRestClient--><g id="link_BaseFeignClient_ProcessDefinitionRestClient"><path d="M554.58,71.45 C590.65,115.82 648.04,186.4 677.57,222.72 " fill="none" id="BaseFeignClient-backto-ProcessDefinitionRestClient" style="stroke:#181818;stroke-width:1.0;"/><polygon fill="none" points="548.64,76.24,541.45,56.31,559.5,67.41,548.64,76.24" style="stroke:#181818;stroke-width:1.0;"/></g><!--reverse link BaseFeignClient to ProcessInstanceRestClient--><g id="link_BaseFeignClient_ProcessInstanceRestClient"><path d="M598.03,63.4 C637.56,79.83 685.14,99.61 721.37,114.67 " fill="none" id="BaseFeignClient-backto-ProcessInstanceRestClient" style="stroke:#181818;stroke-width:1.0;"/><polygon fill="none" points="595.56,69.53,579.78,55.39,600.93,56.61,595.56,69.53" style="stroke:#181818;stroke-width:1.0;"/></g><!--reverse link BaseFeignClient to StartFormRestClient--><g id="link_BaseFeignClient_StartFormRestClient"><path d="M614.98,55.42 C745.02,85.03 781.18,88.43 904.5,115 C909.91,116.17 915.48,117.38 921.1,118.62 " fill="none" id="BaseFeignClient-backto-StartFormRestClient" style="stroke:#181818;stroke-width:1.0;"/><polygon fill="none" points="613.56,62.05,595.64,50.76,616.7,48.41,613.56,62.05" style="stroke:#181818;stroke-width:1.0;"/></g><!--link CamundaTaskRestClient to BaseFeignClient--><g id="link_CamundaTaskRestClient_BaseFeignClient"><path codeLine="11" d="M415.66,31 C420.26,31 424.86,31 429.46,31 " fill="none" id="CamundaTaskRestClient-to-BaseFeignClient" style="stroke:#181818;stroke-width:1.0;"/><polygon fill="none" points="429.3,24,449.3,31,429.3,38,429.3,24" style="stroke:#181818;stroke-width:1.0;"/></g><!--reverse link BaseFeignClient to TaskPropertyRestClient--><g id="link_BaseFeignClient_TaskPropertyRestClient"><path codeLine="12" d="M615.38,31 C619.97,31 624.55,31 629.13,31 " fill="none" id="BaseFeignClient-backto-TaskPropertyRestClient" style="stroke:#181818;stroke-width:1.0;"/><polygon fill="none" points="615.62,38,595.62,31,615.62,24,615.62,38" style="stroke:#181818;stroke-width:1.0;"/></g><!--reverse link ProcessInstanceRestClient to ProcessDefinitionRestClient--><!--link HistoryTaskRestClient to HistoryVariableInstanceClient--><!--SRC=[jPF12i9034Jl_Og2v_s1AXvKH6-YuaKyfErOWsigkn4K_7WhL95gnOAzBUpcpKuoOL6uBIK81-Gn1cSoj0pHCEp4bEmZozbEOtj2rx8WoXmWNSLPezWMzm4_0KCwd2Ib9Vdz75vBJ5FAXBtcxbAX_8O9YnCazLKlx_WLEQROOYfUIHByMsRcyWJUF_2bQXk6IgKHjYoid4kB8WyxRKZS1rx87E6qUPzUE0ibf-FS7PfciFQFmUTWcsl_xMbrXtfNKsCig6zfpwntdAQGZVastQ1cKyoplFyzxJS0]--></g></svg>