<?xml version="1.0" encoding="us-ascii" standalone="no"?><svg xmlns="http://www.w3.org/2000/svg" xmlns:xlink="http://www.w3.org/1999/xlink" contentStyleType="text/css" height="377px" preserveAspectRatio="none" style="width:751px;height:377px;background:#FFFFFF;" version="1.1" viewBox="0 0 751 377" width="751px" zoomAndPan="magnify"><defs/><g><!--class Decoder--><g id="elem_Decoder"><rect codeLine="1" fill="#F1F1F1" height="64.2969" id="Decoder" rx="2.5" ry="2.5" style="stroke:#181818;stroke-width:0.5;" width="92" x="556" y="7"/><ellipse cx="571" cy="23" fill="#B4A7E5" rx="11" ry="11" style="stroke:#181818;stroke-width:1.0;"/><path d="M566.9219,18.7656 L566.9219,16.6094 L574.3125,16.6094 L574.3125,18.7656 L571.8438,18.7656 L571.8438,26.8438 L574.3125,26.8438 L574.3125,29 L566.9219,29 L566.9219,26.8438 L569.3906,26.8438 L569.3906,18.7656 L566.9219,18.7656 Z " fill="#000000"/><text fill="#000000" font-family="sans-serif" font-size="14" font-style="italic" lengthAdjust="spacing" textLength="60" x="585" y="27.8467">Decoder</text><line style="stroke:#181818;stroke-width:0.5;" x1="557" x2="647" y1="39" y2="39"/><line style="stroke:#181818;stroke-width:0.5;" x1="557" x2="647" y1="47" y2="47"/><text fill="#000000" font-family="sans-serif" font-size="14" lengthAdjust="spacing" textLength="63" x="562" y="63.9951">decode()</text></g><!--class BpmsResponseDecoder--><g id="elem_BpmsResponseDecoder"><rect codeLine="5" fill="#ADD8E6" height="64.2969" id="BpmsResponseDecoder" rx="2.5" ry="2.5" style="stroke:#008000;stroke-width:0.5;" width="203" x="541.5" y="297.74"/><ellipse cx="556.5" cy="313.74" fill="#ADD1B2" rx="11" ry="11" style="stroke:#181818;stroke-width:1.0;"/><path d="M559.4688,319.3806 Q558.8906,319.6775 558.25,319.8181 Q557.6094,319.9744 556.9063,319.9744 Q554.4063,319.9744 553.0781,318.3338 Q551.7656,316.6775 551.7656,313.5525 Q551.7656,310.4275 553.0781,308.7713 Q554.4063,307.115 556.9063,307.115 Q557.6094,307.115 558.25,307.2713 Q558.9063,307.4275 559.4688,307.7244 L559.4688,310.4431 Q558.8438,309.865 558.25,309.5994 Q557.6563,309.3181 557.0313,309.3181 Q555.6875,309.3181 555,310.3963 Q554.3125,311.4588 554.3125,313.5525 Q554.3125,315.6463 555,316.7244 Q555.6875,317.7869 557.0313,317.7869 Q557.6563,317.7869 558.25,317.5213 Q558.8438,317.24 559.4688,316.6619 L559.4688,319.3806 Z " fill="#000000"/><text fill="#000000" font-family="sans-serif" font-size="14" lengthAdjust="spacing" textLength="171" x="570.5" y="318.5867">BpmsResponseDecoder</text><line style="stroke:#008000;stroke-width:0.5;" x1="542.5" x2="743.5" y1="329.74" y2="329.74"/><line style="stroke:#008000;stroke-width:0.5;" x1="542.5" x2="743.5" y1="337.74" y2="337.74"/><text fill="#000000" font-family="sans-serif" font-size="14" lengthAdjust="spacing" textLength="63" x="547.5" y="354.7351">decode()</text></g><!--class ErrorDecoder--><g id="elem_ErrorDecoder"><rect codeLine="9" fill="#F1F1F1" height="64.2969" id="ErrorDecoder" rx="2.5" ry="2.5" style="stroke:#181818;stroke-width:0.5;" width="125" x="131.5" y="7"/><ellipse cx="146.5" cy="23" fill="#B4A7E5" rx="11" ry="11" style="stroke:#181818;stroke-width:1.0;"/><path d="M142.4219,18.7656 L142.4219,16.6094 L149.8125,16.6094 L149.8125,18.7656 L147.3438,18.7656 L147.3438,26.8438 L149.8125,26.8438 L149.8125,29 L142.4219,29 L142.4219,26.8438 L144.8906,26.8438 L144.8906,18.7656 L142.4219,18.7656 Z " fill="#000000"/><text fill="#000000" font-family="sans-serif" font-size="14" font-style="italic" lengthAdjust="spacing" textLength="93" x="160.5" y="27.8467">ErrorDecoder</text><line style="stroke:#181818;stroke-width:0.5;" x1="132.5" x2="255.5" y1="39" y2="39"/><line style="stroke:#181818;stroke-width:0.5;" x1="132.5" x2="255.5" y1="47" y2="47"/><text fill="#000000" font-family="sans-serif" font-size="14" lengthAdjust="spacing" textLength="63" x="137.5" y="63.9951">decode()</text></g><!--class BpmsAnnotationErrorDecoder--><g id="elem_BpmsAnnotationErrorDecoder"><rect codeLine="13" fill="#ADD8E6" height="80.5938" id="BpmsAnnotationErrorDecoder" rx="2.5" ry="2.5" style="stroke:#008000;stroke-width:0.5;" width="240" x="186" y="289.6"/><ellipse cx="201" cy="305.6" fill="#ADD1B2" rx="11" ry="11" style="stroke:#181818;stroke-width:1.0;"/><path d="M203.9688,311.2406 Q203.3906,311.5375 202.75,311.6781 Q202.1094,311.8344 201.4063,311.8344 Q198.9063,311.8344 197.5781,310.1937 Q196.2656,308.5375 196.2656,305.4125 Q196.2656,302.2875 197.5781,300.6312 Q198.9063,298.975 201.4063,298.975 Q202.1094,298.975 202.75,299.1312 Q203.4063,299.2875 203.9688,299.5844 L203.9688,302.3031 Q203.3438,301.725 202.75,301.4594 Q202.1563,301.1781 201.5313,301.1781 Q200.1875,301.1781 199.5,302.2562 Q198.8125,303.3187 198.8125,305.4125 Q198.8125,307.5062 199.5,308.5844 Q200.1875,309.6469 201.5313,309.6469 Q202.1563,309.6469 202.75,309.3812 Q203.3438,309.1 203.9688,308.5219 L203.9688,311.2406 Z " fill="#000000"/><text fill="#000000" font-family="sans-serif" font-size="14" lengthAdjust="spacing" textLength="208" x="215" y="310.4467">BpmsAnnotationErrorDecoder</text><line style="stroke:#008000;stroke-width:0.5;" x1="187" x2="425" y1="321.6" y2="321.6"/><text fill="#000000" font-family="sans-serif" font-size="14" lengthAdjust="spacing" textLength="216" x="192" y="338.5951">List&lt;BaseFeignClients&gt; clients</text><line style="stroke:#008000;stroke-width:0.5;" x1="187" x2="425" y1="345.8969" y2="345.8969"/><text fill="#000000" font-family="sans-serif" font-size="14" lengthAdjust="spacing" textLength="63" x="192" y="362.892">decode()</text></g><!--class AnnotationErrorDecoder--><g id="elem_AnnotationErrorDecoder"><rect codeLine="18" fill="#F1F1F1" height="64.2969" id="AnnotationErrorDecoder" rx="2.5" ry="2.5" style="stroke:#181818;stroke-width:0.5;" width="200" x="206" y="148.3"/><ellipse cx="221" cy="164.3" fill="#ADD1B2" rx="11" ry="11" style="stroke:#181818;stroke-width:1.0;"/><path d="M223.9688,169.9406 Q223.3906,170.2375 222.75,170.3781 Q222.1094,170.5344 221.4063,170.5344 Q218.9063,170.5344 217.5781,168.8938 Q216.2656,167.2375 216.2656,164.1125 Q216.2656,160.9875 217.5781,159.3313 Q218.9063,157.675 221.4063,157.675 Q222.1094,157.675 222.75,157.8313 Q223.4063,157.9875 223.9688,158.2844 L223.9688,161.0031 Q223.3438,160.425 222.75,160.1594 Q222.1563,159.8781 221.5313,159.8781 Q220.1875,159.8781 219.5,160.9563 Q218.8125,162.0188 218.8125,164.1125 Q218.8125,166.2063 219.5,167.2844 Q220.1875,168.3469 221.5313,168.3469 Q222.1563,168.3469 222.75,168.0813 Q223.3438,167.8 223.9688,167.2219 L223.9688,169.9406 Z " fill="#000000"/><text fill="#000000" font-family="sans-serif" font-size="14" lengthAdjust="spacing" textLength="168" x="235" y="169.1467">AnnotationErrorDecoder</text><line style="stroke:#181818;stroke-width:0.5;" x1="207" x2="405" y1="180.3" y2="180.3"/><line style="stroke:#181818;stroke-width:0.5;" x1="207" x2="405" y1="188.3" y2="188.3"/><text fill="#000000" font-family="sans-serif" font-size="14" lengthAdjust="spacing" textLength="63" x="212" y="205.2951">decode()</text></g><!--class BaseFeignClient--><g id="elem_BaseFeignClient"><rect codeLine="22" fill="#ADD8E6" height="48" id="BaseFeignClient" rx="2.5" ry="2.5" style="stroke:#008000;stroke-width:0.5;" width="144" x="7" y="305.89"/><ellipse cx="22" cy="321.89" fill="#ADD1B2" rx="11" ry="11" style="stroke:#181818;stroke-width:1.0;"/><path d="M24.9688,327.5306 Q24.3906,327.8275 23.75,327.9681 Q23.1094,328.1244 22.4063,328.1244 Q19.9063,328.1244 18.5781,326.4838 Q17.2656,324.8275 17.2656,321.7025 Q17.2656,318.5775 18.5781,316.9213 Q19.9063,315.265 22.4063,315.265 Q23.1094,315.265 23.75,315.4213 Q24.4063,315.5775 24.9688,315.8744 L24.9688,318.5931 Q24.3438,318.015 23.75,317.7494 Q23.1563,317.4681 22.5313,317.4681 Q21.1875,317.4681 20.5,318.5463 Q19.8125,319.6088 19.8125,321.7025 Q19.8125,323.7963 20.5,324.8744 Q21.1875,325.9369 22.5313,325.9369 Q23.1563,325.9369 23.75,325.6713 Q24.3438,325.39 24.9688,324.8119 L24.9688,327.5306 Z " fill="#000000"/><text fill="#000000" font-family="sans-serif" font-size="14" lengthAdjust="spacing" textLength="112" x="36" y="326.7367">BaseFeignClient</text><line style="stroke:#008000;stroke-width:0.5;" x1="8" x2="150" y1="337.89" y2="337.89"/><line style="stroke:#008000;stroke-width:0.5;" x1="8" x2="150" y1="345.89" y2="345.89"/></g><!--reverse link Decoder to BpmsResponseDecoder--><g id="link_Decoder_BpmsResponseDecoder"><path d="M666.72,67 C680.41,75.83 693.1,87.13 701,101.3 C736.75,165.4 693.55,251.88 664.75,297.57 " fill="none" id="Decoder-backto-BpmsResponseDecoder" style="stroke:#181818;stroke-width:1.0;stroke-dasharray:7.0,7.0;"/><polygon fill="none" points="663.49,72.65,649.46,56.78,670.33,60.44,663.49,72.65" style="stroke:#181818;stroke-width:1.0;"/></g><!--reverse link ErrorDecoder to BpmsAnnotationErrorDecoder--><g id="link_ErrorDecoder_BpmsAnnotationErrorDecoder"><path d="M181.12,92.32 C175.01,127.63 172.09,174.58 188,212.6 C200.66,242.84 225.44,269.22 249.04,289.16 " fill="none" id="ErrorDecoder-backto-BpmsAnnotationErrorDecoder" style="stroke:#181818;stroke-width:1.0;stroke-dasharray:7.0,7.0;"/><polygon fill="none" points="174.45,91,185.25,72.77,188.17,93.76,174.45,91" style="stroke:#181818;stroke-width:1.0;"/></g><!--reverse link ErrorDecoder to AnnotationErrorDecoder--><g id="link_ErrorDecoder_AnnotationErrorDecoder"><path d="M203,91.78 C206.12,101.15 210.33,110.43 216,118.3 C224.17,129.64 235.14,139.54 246.6,147.87 " fill="none" id="ErrorDecoder-backto-AnnotationErrorDecoder" style="stroke:#181818;stroke-width:1.0;stroke-dasharray:7.0,7.0;"/><polygon fill="none" points="196.02,93.77,197.74,72.65,209.56,90.23,196.02,93.77" style="stroke:#181818;stroke-width:1.0;"/></g><!--reverse link ErrorDecoder to AnnotationErrorDecoder--><g id="link_ErrorDecoder_AnnotationErrorDecoder"><path codeLine="25" d="M218.07,76.54 C227.35,89.96 238.29,105.11 249,118.3 C257.05,128.22 266.3,138.54 274.97,147.82 " fill="none" id="ErrorDecoder-backto-AnnotationErrorDecoder-1" style="stroke:#181818;stroke-width:1.0;"/><polygon fill="#181818" points="214.73,72.68,216.5169,82.3654,217.556,76.8048,223.1166,77.8438,214.73,72.68" style="stroke:#181818;stroke-width:1.0;"/><text fill="#000000" font-family="sans-serif" font-size="13" lengthAdjust="spacing" textLength="188" x="250" y="114.3669">uses as default error decoder</text></g><!--reverse link Decoder to AnnotationErrorDecoder--><g id="link_Decoder_AnnotationErrorDecoder"><path codeLine="24" d="M550.32,66.15 C519.34,81.59 479.07,101.39 443,118.3 C422.01,128.14 399.06,138.53 378.04,147.89 " fill="none" id="Decoder-backto-AnnotationErrorDecoder" style="stroke:#181818;stroke-width:1.0;"/><polygon fill="#181818" points="554.6,63.52,544.7602,63.9421,550.1222,65.7447,548.3196,71.1066,554.6,63.52" style="stroke:#181818;stroke-width:1.0;"/><text fill="#000000" font-family="sans-serif" font-size="13" lengthAdjust="spacing" textLength="216" x="479" y="114.3669">uses as default response decoder</text></g><!--reverse link AnnotationErrorDecoder to BpmsAnnotationErrorDecoder--><g id="link_AnnotationErrorDecoder_BpmsAnnotationErrorDecoder"><path codeLine="26" d="M306,218.98 C306,240.44 306,267.33 306,289.15 " fill="none" id="AnnotationErrorDecoder-backto-BpmsAnnotationErrorDecoder" style="stroke:#181818;stroke-width:1.0;"/><polygon fill="#181818" points="306,214.08,302,223.08,306,219.08,310,223.08,306,214.08" style="stroke:#181818;stroke-width:1.0;"/><text fill="#000000" font-family="sans-serif" font-size="13" lengthAdjust="spacing" textLength="48" x="307" y="255.6669">creates</text></g><!--reverse link BpmsAnnotationErrorDecoder to BpmsResponseDecoder--><g id="link_BpmsAnnotationErrorDecoder_BpmsResponseDecoder"><path codeLine="27" d="M440.33,329.89 C473.91,329.89 507.49,329.89 541.07,329.89 " fill="none" id="BpmsAnnotationErrorDecoder-backto-BpmsResponseDecoder" style="stroke:#181818;stroke-width:1.0;"/><polygon fill="none" points="427.45,329.89,433.45,333.89,439.45,329.89,433.45,325.89,427.45,329.89" style="stroke:#181818;stroke-width:1.0;"/></g><!--link BaseFeignClient to BpmsAnnotationErrorDecoder--><g id="link_BaseFeignClient_BpmsAnnotationErrorDecoder"><path codeLine="28" d="M151.27,329.89 C158.09,329.89 164.9,329.89 171.72,329.89 " fill="none" id="BaseFeignClient-to-BpmsAnnotationErrorDecoder" style="stroke:#181818;stroke-width:1.0;"/><polygon fill="none" points="184.72,329.89,178.72,325.89,172.72,329.89,178.72,333.89,184.72,329.89" style="stroke:#181818;stroke-width:1.0;"/></g><!--SRC=[bP91JiD034NtFeKbDh381QOL4WMwOiKD9jFVO36PYSQEX8IuEmsqbG99e3jB_lx_UJoI36Nl0_W18UzG-9sOTr_rzGrz48NeLNdJjVeCxN9Id9HNjG-lBahpOdNiiOgIu9e2f9NXpLmT3tsMjejeaKnd8-GCyLXABd-JtAMKpPlaD1gu6EXNt9EehJTUiOKqwJxA8Blby5rCyiomBALCB3ME_DycH2VJTLNDSJZk5SfU3wbxtqVZSZpZ4QFGI7-H5ORssMTcR71SE9hZKE0DIWkYN4tzGFhvR5LUIFe4]--></g></svg>