<?xml version="1.0" encoding="us-ascii" standalone="no"?><svg xmlns="http://www.w3.org/2000/svg" xmlns:xlink="http://www.w3.org/1999/xlink" contentStyleType="text/css" height="318px" preserveAspectRatio="none" style="width:259px;height:318px;background:#FFFFFF;" version="1.1" viewBox="0 0 259 318" width="259px" zoomAndPan="magnify"><defs/><g><path d="M17,8.9688 L17,10.9688 L25,10.9688 L25,9.9688 L20,9.9688 L20,8.9688 L17,8.9688 M17,11.9688 L17,16.4688 C17,16.7488 17.22,16.9688 17.5,16.9688 L24.5,16.9688 C24.78,16.9688 25,16.7488 25,16.4688 L25,11.9688 L17,11.9688 " fill="#000000" style="stroke:;stroke-width:0.0;stroke-dasharray:;"/><text fill="#000000" font-family="sans-serif" font-size="12" lengthAdjust="spacing" textLength="30" x="30" y="17.1387">docs</text><path d="M27,22.9375 L27,24.9375 L35,24.9375 L35,23.9375 L30,23.9375 L30,22.9375 L27,22.9375 M27,25.9375 L27,30.4375 C27,30.7175 27.22,30.9375 27.5,30.9375 L34.5,30.9375 C34.78,30.9375 35,30.7175 35,30.4375 L35,25.9375 L27,25.9375 " fill="#000000" style="stroke:;stroke-width:0.0;stroke-dasharray:;"/><text fill="#000000" font-family="sans-serif" font-size="12" lengthAdjust="spacing" textLength="53" x="40" y="31.1074">modules</text><path d="M37,36.9063 L37,38.9063 L45,38.9063 L45,37.9063 L40,37.9063 L40,36.9063 L37,36.9063 M37,39.9063 L37,44.4063 C37,44.6863 37.22,44.9063 37.5,44.9063 L44.5,44.9063 C44.78,44.9063 45,44.6863 45,44.4063 L45,39.9063 L37,39.9063 " fill="#000000" style="stroke:;stroke-width:0.0;stroke-dasharray:;"/><text fill="#000000" font-family="sans-serif" font-size="12" lengthAdjust="spacing" textLength="202" x="50" y="45.0762">registry-regulation-management</text><path d="M47,50.875 L47,52.875 L55,52.875 L55,51.875 L50,51.875 L50,50.875 L47,50.875 M47,53.875 L47,58.375 C47,58.655 47.22,58.875 47.5,58.875 L54.5,58.875 C54.78,58.875 55,58.655 55,58.375 L55,53.875 L47,53.875 " fill="#000000" style="stroke:;stroke-width:0.0;stroke-dasharray:;"/><text fill="#000000" font-family="sans-serif" font-size="12" lengthAdjust="spacing" textLength="39" x="60" y="59.0449">pages</text><path d="M57,64.8438 L57,66.8438 L65,66.8438 L65,65.8438 L60,65.8438 L60,64.8438 L57,64.8438 M57,67.8438 L57,72.3438 C57,72.6238 57.22,72.8438 57.5,72.8438 L64.5,72.8438 C64.78,72.8438 65,72.6238 65,72.3438 L65,67.8438 L57,67.8438 " fill="#000000" style="stroke:;stroke-width:0.0;stroke-dasharray:;"/><text fill="#000000" font-family="sans-serif" font-size="12" lengthAdjust="spacing" textLength="104" x="70" y="73.0137">rest-api-includes</text><text fill="#000000" font-family="sans-serif" font-size="12" lengthAdjust="spacing" textLength="12" x="66" y="86.9824">...</text><path d="M57,92.7813 L57,94.7813 L65,94.7813 L65,93.7813 L60,93.7813 L60,92.7813 L57,92.7813 M57,95.7813 L57,100.2813 C57,100.5613 57.22,100.7813 57.5,100.7813 L64.5,100.7813 C64.78,100.7813 65,100.5613 65,100.2813 L65,95.7813 L57,95.7813 " fill="#000000" style="stroke:;stroke-width:0.0;stroke-dasharray:;"/><text fill="#000000" font-family="sans-serif" font-size="12" lengthAdjust="spacing" textLength="118" x="70" y="100.9512">rest-api-generated</text><text fill="#000000" font-family="sans-serif" font-size="12" lengthAdjust="spacing" textLength="12" x="66" y="114.9199">...</text><path d="M17,120.7188 L17,122.7188 L25,122.7188 L25,121.7188 L20,121.7188 L20,120.7188 L17,120.7188 M17,123.7188 L17,128.2188 C17,128.4988 17.22,128.7188 17.5,128.7188 L24.5,128.7188 C24.78,128.7188 25,128.4988 25,128.2188 L25,123.7188 L17,123.7188 " fill="#000000" style="stroke:;stroke-width:0.0;stroke-dasharray:;"/><text fill="#000000" font-family="sans-serif" font-size="12" lengthAdjust="spacing" textLength="39" x="30" y="128.8887">target</text><path d="M27,134.6875 L27,136.6875 L35,136.6875 L35,135.6875 L30,135.6875 L30,134.6875 L27,134.6875 M27,137.6875 L27,142.1875 C27,142.4675 27.22,142.6875 27.5,142.6875 L34.5,142.6875 C34.78,142.6875 35,142.4675 35,142.1875 L35,137.6875 L27,137.6875 " fill="#000000" style="stroke:;stroke-width:0.0;stroke-dasharray:;"/><text fill="#000000" font-family="sans-serif" font-size="12" lengthAdjust="spacing" textLength="4" x="36" y="142.8574">&#160;</text><text fill="#000000" font-family="sans-serif" font-size="12" font-weight="bold" lengthAdjust="spacing" textLength="142" x="40" y="142.8574">generated-snippets</text><path d="M57,148.6563 L57,150.6563 L65,150.6563 L65,149.6563 L60,149.6563 L60,148.6563 L57,148.6563 M57,151.6563 L57,156.1563 C57,156.4363 57.22,156.6563 57.5,156.6563 L64.5,156.6563 C64.78,156.6563 65,156.4363 65,156.1563 L65,151.6563 L57,151.6563 " fill="#000000" style="stroke:;stroke-width:0.0;stroke-dasharray:;"/><text fill="#000000" font-family="sans-serif" font-size="12" lengthAdjust="spacing" textLength="52" x="70" y="156.8262">versions</text><path d="M67,162.625 L67,164.625 L75,164.625 L75,163.625 L70,163.625 L70,162.625 L67,162.625 M67,165.625 L67,170.125 C67,170.405 67.22,170.625 67.5,170.625 L74.5,170.625 C74.78,170.625 75,170.405 75,170.125 L75,165.625 L67,165.625 " fill="#000000" style="stroke:;stroke-width:0.0;stroke-dasharray:;"/><text fill="#000000" font-family="sans-serif" font-size="12" lengthAdjust="spacing" textLength="70" x="80" y="170.7949">candidates</text><path d="M77,176.5938 L77,178.5938 L85,178.5938 L85,177.5938 L80,177.5938 L80,176.5938 L77,176.5938 M77,179.5938 L77,184.0938 C77,184.3738 77.22,184.5938 77.5,184.5938 L84.5,184.5938 C84.78,184.5938 85,184.3738 85,184.0938 L85,179.5938 L77,179.5938 " fill="#000000" style="stroke:;stroke-width:0.0;stroke-dasharray:;"/><text fill="#000000" font-family="sans-serif" font-size="12" lengthAdjust="spacing" textLength="140" x="90" y="184.7637">&lt;versionCandidateId&gt;</text><path d="M87,190.5625 L87,192.5625 L95,192.5625 L95,191.5625 L90,191.5625 L90,190.5625 L87,190.5625 M87,193.5625 L87,198.0625 C87,198.3425 87.22,198.5625 87.5,198.5625 L94.5,198.5625 C94.78,198.5625 95,198.3425 95,198.0625 L95,193.5625 L87,193.5625 " fill="#000000" style="stroke:;stroke-width:0.0;stroke-dasharray:;"/><text fill="#000000" font-family="sans-serif" font-size="12" lengthAdjust="spacing" textLength="32" x="100" y="198.7324">POST</text><path d="M97,204.5313 L97,212.5313 L104,212.5313 L104,208.5313 L100,208.5313 L100,204.5313 L97,204.5313 M101,204.5313 L101,207.5313 L104,207.5313 L101,204.5313 " fill="#000000" style="stroke:;stroke-width:0.0;stroke-dasharray:;"/><text fill="#000000" font-family="sans-serif" font-size="12" lengthAdjust="spacing" textLength="114" x="110" y="212.7012">http-request.adoc</text><path d="M97,218.5 L97,226.5 L104,226.5 L104,222.5 L100,222.5 L100,218.5 L97,218.5 M101,218.5 L101,221.5 L104,221.5 L101,218.5 " fill="#000000" style="stroke:;stroke-width:0.0;stroke-dasharray:;"/><text fill="#000000" font-family="sans-serif" font-size="12" lengthAdjust="spacing" textLength="124" x="110" y="226.6699">http-response.adoc</text><path d="M87,232.4688 L87,234.4688 L95,234.4688 L95,233.4688 L90,233.4688 L90,232.4688 L87,232.4688 M87,235.4688 L87,239.9688 C87,240.2488 87.22,240.4688 87.5,240.4688 L94.5,240.4688 C94.78,240.4688 95,240.2488 95,239.9688 L95,235.4688 L87,235.4688 " fill="#000000" style="stroke:;stroke-width:0.0;stroke-dasharray:;"/><text fill="#000000" font-family="sans-serif" font-size="12" lengthAdjust="spacing" textLength="24" x="100" y="240.6387">GET</text><path d="M97,246.4375 L97,254.4375 L104,254.4375 L104,250.4375 L100,250.4375 L100,246.4375 L97,246.4375 M101,246.4375 L101,249.4375 L104,249.4375 L101,246.4375 " fill="#000000" style="stroke:;stroke-width:0.0;stroke-dasharray:;"/><text fill="#000000" font-family="sans-serif" font-size="12" lengthAdjust="spacing" textLength="114" x="110" y="254.6074">http-request.adoc</text><path d="M97,260.4063 L97,268.4063 L104,268.4063 L104,264.4063 L100,264.4063 L100,260.4063 L97,260.4063 M101,260.4063 L101,263.4063 L104,263.4063 L101,260.4063 " fill="#000000" style="stroke:;stroke-width:0.0;stroke-dasharray:;"/><text fill="#000000" font-family="sans-serif" font-size="12" lengthAdjust="spacing" textLength="124" x="110" y="268.5762">http-response.adoc</text><path d="M77,274.375 L77,276.375 L85,276.375 L85,275.375 L80,275.375 L80,274.375 L77,274.375 M77,277.375 L77,281.875 C77,282.155 77.22,282.375 77.5,282.375 L84.5,282.375 C84.78,282.375 85,282.155 85,281.875 L85,277.375 L77,277.375 " fill="#000000" style="stroke:;stroke-width:0.0;stroke-dasharray:;"/><text fill="#000000" font-family="sans-serif" font-size="12" lengthAdjust="spacing" textLength="24" x="90" y="282.5449">GET</text><path d="M87,288.3438 L87,296.3438 L94,296.3438 L94,292.3438 L90,292.3438 L90,288.3438 L87,288.3438 M91,288.3438 L91,291.3438 L94,291.3438 L91,288.3438 " fill="#000000" style="stroke:;stroke-width:0.0;stroke-dasharray:;"/><text fill="#000000" font-family="sans-serif" font-size="12" lengthAdjust="spacing" textLength="114" x="100" y="296.5137">http-request.adoc</text><path d="M87,302.3125 L87,310.3125 L94,310.3125 L94,306.3125 L90,306.3125 L90,302.3125 L87,302.3125 M91,302.3125 L91,305.3125 L94,305.3125 L91,302.3125 " fill="#000000" style="stroke:;stroke-width:0.0;stroke-dasharray:;"/><text fill="#000000" font-family="sans-serif" font-size="12" lengthAdjust="spacing" textLength="124" x="100" y="310.4824">http-response.adoc</text><rect fill="none" height="2" style="stroke:#888888;stroke-width:1.0;" width="2" x="9" y="11.9844"/><rect fill="none" height="2" style="stroke:#888888;stroke-width:1.0;" width="2" x="19" y="25.9531"/><line style="stroke:#888888;stroke-width:1.0;" x1="10" x2="10" y1="14.9844" y2="26.9531"/><line style="stroke:#888888;stroke-width:1.0;" x1="10" x2="18" y1="26.9531" y2="26.9531"/><rect fill="none" height="2" style="stroke:#888888;stroke-width:1.0;" width="2" x="29" y="39.9219"/><line style="stroke:#888888;stroke-width:1.0;" x1="20" x2="20" y1="28.9531" y2="40.9219"/><line style="stroke:#888888;stroke-width:1.0;" x1="20" x2="28" y1="40.9219" y2="40.9219"/><rect fill="none" height="2" style="stroke:#888888;stroke-width:1.0;" width="2" x="39" y="53.8906"/><line style="stroke:#888888;stroke-width:1.0;" x1="30" x2="30" y1="42.9219" y2="54.8906"/><line style="stroke:#888888;stroke-width:1.0;" x1="30" x2="38" y1="54.8906" y2="54.8906"/><rect fill="none" height="2" style="stroke:#888888;stroke-width:1.0;" width="2" x="49" y="67.8594"/><line style="stroke:#888888;stroke-width:1.0;" x1="40" x2="40" y1="56.8906" y2="68.8594"/><line style="stroke:#888888;stroke-width:1.0;" x1="40" x2="48" y1="68.8594" y2="68.8594"/><line style="stroke:#888888;stroke-width:1.0;" x1="50" x2="50" y1="70.8594" y2="82.8281"/><line style="stroke:#888888;stroke-width:1.0;" x1="50" x2="58" y1="82.8281" y2="82.8281"/><rect fill="none" height="2" style="stroke:#888888;stroke-width:1.0;" width="2" x="49" y="95.7969"/><line style="stroke:#888888;stroke-width:1.0;" x1="40" x2="40" y1="56.8906" y2="96.7969"/><line style="stroke:#888888;stroke-width:1.0;" x1="40" x2="48" y1="96.7969" y2="96.7969"/><line style="stroke:#888888;stroke-width:1.0;" x1="50" x2="50" y1="98.7969" y2="110.7656"/><line style="stroke:#888888;stroke-width:1.0;" x1="50" x2="58" y1="110.7656" y2="110.7656"/><rect fill="none" height="2" style="stroke:#888888;stroke-width:1.0;" width="2" x="9" y="123.7344"/><rect fill="none" height="2" style="stroke:#888888;stroke-width:1.0;" width="2" x="19" y="137.7031"/><line style="stroke:#888888;stroke-width:1.0;" x1="10" x2="10" y1="126.7344" y2="138.7031"/><line style="stroke:#888888;stroke-width:1.0;" x1="10" x2="18" y1="138.7031" y2="138.7031"/><rect fill="none" height="2" style="stroke:#888888;stroke-width:1.0;" width="2" x="49" y="151.6719"/><line style="stroke:#888888;stroke-width:1.0;" x1="20" x2="20" y1="140.7031" y2="152.6719"/><line style="stroke:#888888;stroke-width:1.0;" x1="20" x2="48" y1="152.6719" y2="152.6719"/><rect fill="none" height="2" style="stroke:#888888;stroke-width:1.0;" width="2" x="59" y="165.6406"/><line style="stroke:#888888;stroke-width:1.0;" x1="50" x2="50" y1="154.6719" y2="166.6406"/><line style="stroke:#888888;stroke-width:1.0;" x1="50" x2="58" y1="166.6406" y2="166.6406"/><rect fill="none" height="2" style="stroke:#888888;stroke-width:1.0;" width="2" x="69" y="179.6094"/><line style="stroke:#888888;stroke-width:1.0;" x1="60" x2="60" y1="168.6406" y2="180.6094"/><line style="stroke:#888888;stroke-width:1.0;" x1="60" x2="68" y1="180.6094" y2="180.6094"/><rect fill="none" height="2" style="stroke:#888888;stroke-width:1.0;" width="2" x="79" y="193.5781"/><line style="stroke:#888888;stroke-width:1.0;" x1="70" x2="70" y1="182.6094" y2="194.5781"/><line style="stroke:#888888;stroke-width:1.0;" x1="70" x2="78" y1="194.5781" y2="194.5781"/><line style="stroke:#888888;stroke-width:1.0;" x1="80" x2="80" y1="196.5781" y2="208.5469"/><line style="stroke:#888888;stroke-width:1.0;" x1="80" x2="88" y1="208.5469" y2="208.5469"/><line style="stroke:#888888;stroke-width:1.0;" x1="80" x2="80" y1="196.5781" y2="222.5156"/><line style="stroke:#888888;stroke-width:1.0;" x1="80" x2="88" y1="222.5156" y2="222.5156"/><rect fill="none" height="2" style="stroke:#888888;stroke-width:1.0;" width="2" x="79" y="235.4844"/><line style="stroke:#888888;stroke-width:1.0;" x1="70" x2="70" y1="182.6094" y2="236.4844"/><line style="stroke:#888888;stroke-width:1.0;" x1="70" x2="78" y1="236.4844" y2="236.4844"/><line style="stroke:#888888;stroke-width:1.0;" x1="80" x2="80" y1="238.4844" y2="250.4531"/><line style="stroke:#888888;stroke-width:1.0;" x1="80" x2="88" y1="250.4531" y2="250.4531"/><line style="stroke:#888888;stroke-width:1.0;" x1="80" x2="80" y1="238.4844" y2="264.4219"/><line style="stroke:#888888;stroke-width:1.0;" x1="80" x2="88" y1="264.4219" y2="264.4219"/><rect fill="none" height="2" style="stroke:#888888;stroke-width:1.0;" width="2" x="69" y="277.3906"/><line style="stroke:#888888;stroke-width:1.0;" x1="60" x2="60" y1="168.6406" y2="278.3906"/><line style="stroke:#888888;stroke-width:1.0;" x1="60" x2="68" y1="278.3906" y2="278.3906"/><line style="stroke:#888888;stroke-width:1.0;" x1="70" x2="70" y1="280.3906" y2="292.3594"/><line style="stroke:#888888;stroke-width:1.0;" x1="70" x2="78" y1="292.3594" y2="292.3594"/><line style="stroke:#888888;stroke-width:1.0;" x1="70" x2="70" y1="280.3906" y2="306.3281"/><line style="stroke:#888888;stroke-width:1.0;" x1="70" x2="78" y1="306.3281" y2="306.3281"/><!--SRC=[hP9RJy9048NVzrVCau6GLa1Gqv2624X424GkFY_TeMwoREjUI0Znlxj52yM0lfY-D6U-ENjcCcrjg3AQ2aDsP3SZbTRLAX4CLGWiYJIf58Hrmgp0J2k82cEkZTfwxiSAQdWYlJMLDCOrIfEn1JXryhx_r44RZwRSup8IbkL01NpVlyZ6A55HWwm85zExiM8q9_bRo_3Gvcd9qnIDRbqlmv-lR51fDqSUv5Y8g6ISkVwyL7J_xkhap1CBSwg0JSRJsK7ET2umX3TZKhV1T-lcywdR_4L4fouOVZ5dxFkzVtS_R_wtzs_M7-vhesJxmoCJGQMPZuRvug7crwlr6xzMBRqYWu4LKAj3hHaq6q7r3kQp3cJrCYdr9qFGYLKH0ilEa2zjTe5bCg0R2YzM6hx60COfoa7tEHUW9pTS9N9_eOF5w0ZSDhm7Rc2AoaM1nOXqSKMjCAuZIXYNSU1UV_JkoP3AsBfh3W0bwIJELsrTRVe9]--></g></svg>