<?xml version="1.0" encoding="us-ascii" standalone="no"?><svg xmlns="http://www.w3.org/2000/svg" xmlns:xlink="http://www.w3.org/1999/xlink" contentStyleType="text/css" height="221px" preserveAspectRatio="none" style="width:259px;height:221px;background:#FFFFFF;" version="1.1" viewBox="0 0 259 221" width="259px" zoomAndPan="magnify"><defs/><g><path d="M17,8.9688 L17,10.9688 L25,10.9688 L25,9.9688 L20,9.9688 L20,8.9688 L17,8.9688 M17,11.9688 L17,16.4688 C17,16.7488 17.22,16.9688 17.5,16.9688 L24.5,16.9688 C24.78,16.9688 25,16.7488 25,16.4688 L25,11.9688 L17,11.9688 " fill="#000000" style="stroke:;stroke-width:0.0;stroke-dasharray:;"/><text fill="#000000" font-family="sans-serif" font-size="12" lengthAdjust="spacing" textLength="30" x="30" y="17.1387">docs</text><path d="M27,22.9375 L27,24.9375 L35,24.9375 L35,23.9375 L30,23.9375 L30,22.9375 L27,22.9375 M27,25.9375 L27,30.4375 C27,30.7175 27.22,30.9375 27.5,30.9375 L34.5,30.9375 C34.78,30.9375 35,30.7175 35,30.4375 L35,25.9375 L27,25.9375 " fill="#000000" style="stroke:;stroke-width:0.0;stroke-dasharray:;"/><text fill="#000000" font-family="sans-serif" font-size="12" lengthAdjust="spacing" textLength="53" x="40" y="31.1074">modules</text><path d="M37,36.9063 L37,38.9063 L45,38.9063 L45,37.9063 L40,37.9063 L40,36.9063 L37,36.9063 M37,39.9063 L37,44.4063 C37,44.6863 37.22,44.9063 37.5,44.9063 L44.5,44.9063 C44.78,44.9063 45,44.6863 45,44.4063 L45,39.9063 L37,39.9063 " fill="#000000" style="stroke:;stroke-width:0.0;stroke-dasharray:;"/><text fill="#000000" font-family="sans-serif" font-size="12" lengthAdjust="spacing" textLength="202" x="50" y="45.0762">registry-regulation-management</text><path d="M47,50.875 L47,52.875 L55,52.875 L55,51.875 L50,51.875 L50,50.875 L47,50.875 M47,53.875 L47,58.375 C47,58.655 47.22,58.875 47.5,58.875 L54.5,58.875 C54.78,58.875 55,58.655 55,58.375 L55,53.875 L47,53.875 " fill="#000000" style="stroke:;stroke-width:0.0;stroke-dasharray:;"/><text fill="#000000" font-family="sans-serif" font-size="12" lengthAdjust="spacing" textLength="39" x="60" y="59.0449">pages</text><path d="M57,64.8438 L57,66.8438 L65,66.8438 L65,65.8438 L60,65.8438 L60,64.8438 L57,64.8438 M57,67.8438 L57,72.3438 C57,72.6238 57.22,72.8438 57.5,72.8438 L64.5,72.8438 C64.78,72.8438 65,72.6238 65,72.3438 L65,67.8438 L57,67.8438 " fill="#000000" style="stroke:;stroke-width:0.0;stroke-dasharray:;"/><text fill="#000000" font-family="sans-serif" font-size="12" lengthAdjust="spacing" textLength="104" x="70" y="73.0137">rest-api-includes</text><path d="M67,78.8125 L67,86.8125 L74,86.8125 L74,82.8125 L70,82.8125 L70,78.8125 L67,78.8125 M71,78.8125 L71,81.8125 L74,81.8125 L71,78.8125 " fill="#000000" style="stroke:;stroke-width:0.0;stroke-dasharray:;"/><text fill="#000000" font-family="sans-serif" font-size="12" lengthAdjust="spacing" textLength="64" x="80" y="86.9824">intro.adoc</text><path d="M67,92.7813 L67,94.7813 L75,94.7813 L75,93.7813 L70,93.7813 L70,92.7813 L67,92.7813 M67,95.7813 L67,100.2813 C67,100.5613 67.22,100.7813 67.5,100.7813 L74.5,100.7813 C74.78,100.7813 75,100.5613 75,100.2813 L75,95.7813 L67,95.7813 " fill="#000000" style="stroke:;stroke-width:0.0;stroke-dasharray:;"/><text fill="#000000" font-family="sans-serif" font-size="12" lengthAdjust="spacing" textLength="4" x="76" y="100.9512">&#160;</text><text fill="#000000" font-family="sans-serif" font-size="12" font-weight="bold" lengthAdjust="spacing" textLength="60" x="80" y="100.9512">versions</text><path d="M77,106.75 L77,108.75 L85,108.75 L85,107.75 L80,107.75 L80,106.75 L77,106.75 M77,109.75 L77,114.25 C77,114.53 77.22,114.75 77.5,114.75 L84.5,114.75 C84.78,114.75 85,114.53 85,114.25 L85,109.75 L77,109.75 " fill="#000000" style="stroke:;stroke-width:0.0;stroke-dasharray:;"/><text fill="#000000" font-family="sans-serif" font-size="12" lengthAdjust="spacing" textLength="70" x="90" y="114.9199">candidates</text><path d="M87,120.7188 L87,122.7188 L95,122.7188 L95,121.7188 L90,121.7188 L90,120.7188 L87,120.7188 M87,123.7188 L87,128.2188 C87,128.4988 87.22,128.7188 87.5,128.7188 L94.5,128.7188 C94.78,128.7188 95,128.4988 95,128.2188 L95,123.7188 L87,123.7188 " fill="#000000" style="stroke:;stroke-width:0.0;stroke-dasharray:;"/><text fill="#000000" font-family="sans-serif" font-size="12" lengthAdjust="spacing" textLength="140" x="100" y="128.8887">&lt;versionCandidateId&gt;</text><path d="M97,134.6875 L97,136.6875 L105,136.6875 L105,135.6875 L100,135.6875 L100,134.6875 L97,134.6875 M97,137.6875 L97,142.1875 C97,142.4675 97.22,142.6875 97.5,142.6875 L104.5,142.6875 C104.78,142.6875 105,142.4675 105,142.1875 L105,137.6875 L97,137.6875 " fill="#000000" style="stroke:;stroke-width:0.0;stroke-dasharray:;"/><text fill="#000000" font-family="sans-serif" font-size="12" lengthAdjust="spacing" textLength="32" x="110" y="142.8574">POST</text><path d="M107,148.6563 L107,156.6563 L114,156.6563 L114,152.6563 L110,152.6563 L110,148.6563 L107,148.6563 M111,148.6563 L111,151.6563 L114,151.6563 L111,148.6563 " fill="#000000" style="stroke:;stroke-width:0.0;stroke-dasharray:;"/><text fill="#000000" font-family="sans-serif" font-size="12" lengthAdjust="spacing" textLength="65" x="120" y="156.8262">spec.adoc</text><path d="M87,162.625 L87,164.625 L95,164.625 L95,163.625 L90,163.625 L90,162.625 L87,162.625 M87,165.625 L87,170.125 C87,170.405 87.22,170.625 87.5,170.625 L94.5,170.625 C94.78,170.625 95,170.405 95,170.125 L95,165.625 L87,165.625 " fill="#000000" style="stroke:;stroke-width:0.0;stroke-dasharray:;"/><text fill="#000000" font-family="sans-serif" font-size="12" lengthAdjust="spacing" textLength="24" x="100" y="170.7949">GET</text><path d="M97,176.5938 L97,184.5938 L104,184.5938 L104,180.5938 L100,180.5938 L100,176.5938 L97,176.5938 M101,176.5938 L101,179.5938 L104,179.5938 L101,176.5938 " fill="#000000" style="stroke:;stroke-width:0.0;stroke-dasharray:;"/><text fill="#000000" font-family="sans-serif" font-size="12" lengthAdjust="spacing" textLength="65" x="110" y="184.7637">spec.adoc</text><path d="M67,190.5625 L67,192.5625 L75,192.5625 L75,191.5625 L70,191.5625 L70,190.5625 L67,190.5625 M67,193.5625 L67,198.0625 C67,198.3425 67.22,198.5625 67.5,198.5625 L74.5,198.5625 C74.78,198.5625 75,198.3425 75,198.0625 L75,193.5625 L67,193.5625 " fill="#000000" style="stroke:;stroke-width:0.0;stroke-dasharray:;"/><text fill="#000000" font-family="sans-serif" font-size="12" lengthAdjust="spacing" textLength="118" x="80" y="198.7324">rest-api-generated</text><text fill="#000000" font-family="sans-serif" font-size="12" lengthAdjust="spacing" textLength="12" x="76" y="212.7012">...</text><rect fill="none" height="2" style="stroke:#888888;stroke-width:1.0;" width="2" x="9" y="11.9844"/><rect fill="none" height="2" style="stroke:#888888;stroke-width:1.0;" width="2" x="19" y="25.9531"/><line style="stroke:#888888;stroke-width:1.0;" x1="10" x2="10" y1="14.9844" y2="26.9531"/><line style="stroke:#888888;stroke-width:1.0;" x1="10" x2="18" y1="26.9531" y2="26.9531"/><rect fill="none" height="2" style="stroke:#888888;stroke-width:1.0;" width="2" x="29" y="39.9219"/><line style="stroke:#888888;stroke-width:1.0;" x1="20" x2="20" y1="28.9531" y2="40.9219"/><line style="stroke:#888888;stroke-width:1.0;" x1="20" x2="28" y1="40.9219" y2="40.9219"/><rect fill="none" height="2" style="stroke:#888888;stroke-width:1.0;" width="2" x="39" y="53.8906"/><line style="stroke:#888888;stroke-width:1.0;" x1="30" x2="30" y1="42.9219" y2="54.8906"/><line style="stroke:#888888;stroke-width:1.0;" x1="30" x2="38" y1="54.8906" y2="54.8906"/><rect fill="none" height="2" style="stroke:#888888;stroke-width:1.0;" width="2" x="49" y="67.8594"/><line style="stroke:#888888;stroke-width:1.0;" x1="40" x2="40" y1="56.8906" y2="68.8594"/><line style="stroke:#888888;stroke-width:1.0;" x1="40" x2="48" y1="68.8594" y2="68.8594"/><line style="stroke:#888888;stroke-width:1.0;" x1="50" x2="50" y1="70.8594" y2="82.8281"/><line style="stroke:#888888;stroke-width:1.0;" x1="50" x2="58" y1="82.8281" y2="82.8281"/><rect fill="none" height="2" style="stroke:#888888;stroke-width:1.0;" width="2" x="59" y="95.7969"/><line style="stroke:#888888;stroke-width:1.0;" x1="50" x2="50" y1="70.8594" y2="96.7969"/><line style="stroke:#888888;stroke-width:1.0;" x1="50" x2="58" y1="96.7969" y2="96.7969"/><rect fill="none" height="2" style="stroke:#888888;stroke-width:1.0;" width="2" x="69" y="109.7656"/><line style="stroke:#888888;stroke-width:1.0;" x1="60" x2="60" y1="98.7969" y2="110.7656"/><line style="stroke:#888888;stroke-width:1.0;" x1="60" x2="68" y1="110.7656" y2="110.7656"/><rect fill="none" height="2" style="stroke:#888888;stroke-width:1.0;" width="2" x="79" y="123.7344"/><line style="stroke:#888888;stroke-width:1.0;" x1="70" x2="70" y1="112.7656" y2="124.7344"/><line style="stroke:#888888;stroke-width:1.0;" x1="70" x2="78" y1="124.7344" y2="124.7344"/><rect fill="none" height="2" style="stroke:#888888;stroke-width:1.0;" width="2" x="89" y="137.7031"/><line style="stroke:#888888;stroke-width:1.0;" x1="80" x2="80" y1="126.7344" y2="138.7031"/><line style="stroke:#888888;stroke-width:1.0;" x1="80" x2="88" y1="138.7031" y2="138.7031"/><line style="stroke:#888888;stroke-width:1.0;" x1="90" x2="90" y1="140.7031" y2="152.6719"/><line style="stroke:#888888;stroke-width:1.0;" x1="90" x2="98" y1="152.6719" y2="152.6719"/><rect fill="none" height="2" style="stroke:#888888;stroke-width:1.0;" width="2" x="79" y="165.6406"/><line style="stroke:#888888;stroke-width:1.0;" x1="70" x2="70" y1="112.7656" y2="166.6406"/><line style="stroke:#888888;stroke-width:1.0;" x1="70" x2="78" y1="166.6406" y2="166.6406"/><line style="stroke:#888888;stroke-width:1.0;" x1="80" x2="80" y1="168.6406" y2="180.6094"/><line style="stroke:#888888;stroke-width:1.0;" x1="80" x2="88" y1="180.6094" y2="180.6094"/><rect fill="none" height="2" style="stroke:#888888;stroke-width:1.0;" width="2" x="59" y="193.5781"/><line style="stroke:#888888;stroke-width:1.0;" x1="50" x2="50" y1="70.8594" y2="194.5781"/><line style="stroke:#888888;stroke-width:1.0;" x1="50" x2="58" y1="194.5781" y2="194.5781"/><line style="stroke:#888888;stroke-width:1.0;" x1="60" x2="60" y1="196.5781" y2="208.5469"/><line style="stroke:#888888;stroke-width:1.0;" x1="60" x2="68" y1="208.5469" y2="208.5469"/><!--SRC=[XL5RQy8m57xFhpXFGv5srkasYeXCdSmfohpiEJR74aYJaeiWil- -L5gjC1Xv2T_bd2_vXiPIRGqLbfp9UKDQ_OU34Wpr09XA36dLW4mn9x30Qg36b1khJu6_E44jLpB8gAGfPYXjeQs9SmzV_FSJZ0repWCk4-5O9IWKNE00kBHQXTJ78JUczFRtWoDguvUQ_kD-KF8rGK8buupQwzGxT-aTLQ8FTXrHrwsMwyqDlmOpEIPtkUgUwMH3_dVyyGifIjG-2wli48OX8J_-356oIrLa9QYqsyKSoXT057RQdQSmQZU-aS7C2OWw4FNYNZTkly1sCuA2RvB6T3K7evnE45XH7D-xehCccT4ZXIydBSymXcMESZR-h02Oo2FNIbuwdUqMDy5pDtZZ5jQeVHJOBSWO3zG9wns9ObociT_-7hoIEPMfy_t7W9ACb9-hJvvR_m80]--></g></svg>