<?xml version="1.0" encoding="us-ascii" standalone="no"?><svg xmlns="http://www.w3.org/2000/svg" xmlns:xlink="http://www.w3.org/1999/xlink" contentStyleType="text/css" height="416px" preserveAspectRatio="none" style="width:259px;height:416px;background:#FFFFFF;" version="1.1" viewBox="0 0 259 416" width="259px" zoomAndPan="magnify"><defs/><g><path d="M17,8.9688 L17,10.9688 L25,10.9688 L25,9.9688 L20,9.9688 L20,8.9688 L17,8.9688 M17,11.9688 L17,16.4688 C17,16.7488 17.22,16.9688 17.5,16.9688 L24.5,16.9688 C24.78,16.9688 25,16.7488 25,16.4688 L25,11.9688 L17,11.9688 " fill="#000000" style="stroke:;stroke-width:0.0;stroke-dasharray:;"/><text fill="#000000" font-family="sans-serif" font-size="12" lengthAdjust="spacing" textLength="30" x="30" y="17.1387">docs</text><path d="M27,22.9375 L27,24.9375 L35,24.9375 L35,23.9375 L30,23.9375 L30,22.9375 L27,22.9375 M27,25.9375 L27,30.4375 C27,30.7175 27.22,30.9375 27.5,30.9375 L34.5,30.9375 C34.78,30.9375 35,30.7175 35,30.4375 L35,25.9375 L27,25.9375 " fill="#000000" style="stroke:;stroke-width:0.0;stroke-dasharray:;"/><text fill="#000000" font-family="sans-serif" font-size="12" lengthAdjust="spacing" textLength="53" x="40" y="31.1074">modules</text><path d="M37,36.9063 L37,38.9063 L45,38.9063 L45,37.9063 L40,37.9063 L40,36.9063 L37,36.9063 M37,39.9063 L37,44.4063 C37,44.6863 37.22,44.9063 37.5,44.9063 L44.5,44.9063 C44.78,44.9063 45,44.6863 45,44.4063 L45,39.9063 L37,39.9063 " fill="#000000" style="stroke:;stroke-width:0.0;stroke-dasharray:;"/><text fill="#000000" font-family="sans-serif" font-size="12" lengthAdjust="spacing" textLength="202" x="50" y="45.0762">registry-regulation-management</text><path d="M47,50.875 L47,52.875 L55,52.875 L55,51.875 L50,51.875 L50,50.875 L47,50.875 M47,53.875 L47,58.375 C47,58.655 47.22,58.875 47.5,58.875 L54.5,58.875 C54.78,58.875 55,58.655 55,58.375 L55,53.875 L47,53.875 " fill="#000000" style="stroke:;stroke-width:0.0;stroke-dasharray:;"/><text fill="#000000" font-family="sans-serif" font-size="12" lengthAdjust="spacing" textLength="39" x="60" y="59.0449">pages</text><path d="M57,64.8438 L57,66.8438 L65,66.8438 L65,65.8438 L60,65.8438 L60,64.8438 L57,64.8438 M57,67.8438 L57,72.3438 C57,72.6238 57.22,72.8438 57.5,72.8438 L64.5,72.8438 C64.78,72.8438 65,72.6238 65,72.3438 L65,67.8438 L57,67.8438 " fill="#000000" style="stroke:;stroke-width:0.0;stroke-dasharray:;"/><text fill="#000000" font-family="sans-serif" font-size="12" lengthAdjust="spacing" textLength="104" x="70" y="73.0137">rest-api-includes</text><path d="M67,78.8125 L67,86.8125 L74,86.8125 L74,82.8125 L70,82.8125 L70,78.8125 L67,78.8125 M71,78.8125 L71,81.8125 L74,81.8125 L71,78.8125 " fill="#000000" style="stroke:;stroke-width:0.0;stroke-dasharray:;"/><text fill="#000000" font-family="sans-serif" font-size="12" lengthAdjust="spacing" textLength="64" x="80" y="86.9824">intro.adoc</text><path d="M57,92.7813 L57,94.7813 L65,94.7813 L65,93.7813 L60,93.7813 L60,92.7813 L57,92.7813 M57,95.7813 L57,100.2813 C57,100.5613 57.22,100.7813 57.5,100.7813 L64.5,100.7813 C64.78,100.7813 65,100.5613 65,100.2813 L65,95.7813 L57,95.7813 " fill="#000000" style="stroke:;stroke-width:0.0;stroke-dasharray:;"/><text fill="#000000" font-family="sans-serif" font-size="12" lengthAdjust="spacing" textLength="52" x="70" y="100.9512">versions</text><path d="M67,106.75 L67,108.75 L75,108.75 L75,107.75 L70,107.75 L70,106.75 L67,106.75 M67,109.75 L67,114.25 C67,114.53 67.22,114.75 67.5,114.75 L74.5,114.75 C74.78,114.75 75,114.53 75,114.25 L75,109.75 L67,109.75 " fill="#000000" style="stroke:;stroke-width:0.0;stroke-dasharray:;"/><text fill="#000000" font-family="sans-serif" font-size="12" lengthAdjust="spacing" textLength="70" x="80" y="114.9199">candidates</text><path d="M77,120.7188 L77,122.7188 L85,122.7188 L85,121.7188 L80,121.7188 L80,120.7188 L77,120.7188 M77,123.7188 L77,128.2188 C77,128.4988 77.22,128.7188 77.5,128.7188 L84.5,128.7188 C84.78,128.7188 85,128.4988 85,128.2188 L85,123.7188 L77,123.7188 " fill="#000000" style="stroke:;stroke-width:0.0;stroke-dasharray:;"/><text fill="#000000" font-family="sans-serif" font-size="12" lengthAdjust="spacing" textLength="140" x="90" y="128.8887">&lt;versionCandidateId&gt;</text><path d="M87,134.6875 L87,136.6875 L95,136.6875 L95,135.6875 L90,135.6875 L90,134.6875 L87,134.6875 M87,137.6875 L87,142.1875 C87,142.4675 87.22,142.6875 87.5,142.6875 L94.5,142.6875 C94.78,142.6875 95,142.4675 95,142.1875 L95,137.6875 L87,137.6875 " fill="#000000" style="stroke:;stroke-width:0.0;stroke-dasharray:;"/><text fill="#000000" font-family="sans-serif" font-size="12" lengthAdjust="spacing" textLength="32" x="100" y="142.8574">POST</text><path d="M97,148.6563 L97,156.6563 L104,156.6563 L104,152.6563 L100,152.6563 L100,148.6563 L97,148.6563 M101,148.6563 L101,151.6563 L104,151.6563 L101,148.6563 " fill="#000000" style="stroke:;stroke-width:0.0;stroke-dasharray:;"/><text fill="#000000" font-family="sans-serif" font-size="12" lengthAdjust="spacing" textLength="65" x="110" y="156.8262">spec.adoc</text><path d="M77,162.625 L77,164.625 L85,164.625 L85,163.625 L80,163.625 L80,162.625 L77,162.625 M77,165.625 L77,170.125 C77,170.405 77.22,170.625 77.5,170.625 L84.5,170.625 C84.78,170.625 85,170.405 85,170.125 L85,165.625 L77,165.625 " fill="#000000" style="stroke:;stroke-width:0.0;stroke-dasharray:;"/><text fill="#000000" font-family="sans-serif" font-size="12" lengthAdjust="spacing" textLength="24" x="90" y="170.7949">GET</text><path d="M87,176.5938 L87,184.5938 L94,184.5938 L94,180.5938 L90,180.5938 L90,176.5938 L87,176.5938 M91,176.5938 L91,179.5938 L94,179.5938 L91,176.5938 " fill="#000000" style="stroke:;stroke-width:0.0;stroke-dasharray:;"/><text fill="#000000" font-family="sans-serif" font-size="12" lengthAdjust="spacing" textLength="65" x="100" y="184.7637">spec.adoc</text><path d="M57,190.5625 L57,192.5625 L65,192.5625 L65,191.5625 L60,191.5625 L60,190.5625 L57,190.5625 M57,193.5625 L57,198.0625 C57,198.3425 57.22,198.5625 57.5,198.5625 L64.5,198.5625 C64.78,198.5625 65,198.3425 65,198.0625 L65,193.5625 L57,193.5625 " fill="#000000" style="stroke:;stroke-width:0.0;stroke-dasharray:;"/><text fill="#000000" font-family="sans-serif" font-size="12" lengthAdjust="spacing" textLength="118" x="70" y="198.7324">rest-api-generated</text><text fill="#000000" font-family="sans-serif" font-size="12" lengthAdjust="spacing" textLength="12" x="66" y="212.7012">...</text><path d="M17,218.5 L17,220.5 L25,220.5 L25,219.5 L20,219.5 L20,218.5 L17,218.5 M17,221.5 L17,226 C17,226.28 17.22,226.5 17.5,226.5 L24.5,226.5 C24.78,226.5 25,226.28 25,226 L25,221.5 L17,221.5 " fill="#000000" style="stroke:;stroke-width:0.0;stroke-dasharray:;"/><text fill="#000000" font-family="sans-serif" font-size="12" lengthAdjust="spacing" textLength="39" x="30" y="226.6699">target</text><path d="M27,232.4688 L27,234.4688 L35,234.4688 L35,233.4688 L30,233.4688 L30,232.4688 L27,232.4688 M27,235.4688 L27,239.9688 C27,240.2488 27.22,240.4688 27.5,240.4688 L34.5,240.4688 C34.78,240.4688 35,240.2488 35,239.9688 L35,235.4688 L27,235.4688 " fill="#000000" style="stroke:;stroke-width:0.0;stroke-dasharray:;"/><text fill="#000000" font-family="sans-serif" font-size="12" lengthAdjust="spacing" textLength="124" x="40" y="240.6387">generated-snippets</text><path d="M57,246.4375 L57,248.4375 L65,248.4375 L65,247.4375 L60,247.4375 L60,246.4375 L57,246.4375 M57,249.4375 L57,253.9375 C57,254.2175 57.22,254.4375 57.5,254.4375 L64.5,254.4375 C64.78,254.4375 65,254.2175 65,253.9375 L65,249.4375 L57,249.4375 " fill="#000000" style="stroke:;stroke-width:0.0;stroke-dasharray:;"/><text fill="#000000" font-family="sans-serif" font-size="12" lengthAdjust="spacing" textLength="52" x="70" y="254.6074">versions</text><path d="M67,260.4063 L67,262.4063 L75,262.4063 L75,261.4063 L70,261.4063 L70,260.4063 L67,260.4063 M67,263.4063 L67,267.9063 C67,268.1863 67.22,268.4063 67.5,268.4063 L74.5,268.4063 C74.78,268.4063 75,268.1863 75,267.9063 L75,263.4063 L67,263.4063 " fill="#000000" style="stroke:;stroke-width:0.0;stroke-dasharray:;"/><text fill="#000000" font-family="sans-serif" font-size="12" lengthAdjust="spacing" textLength="70" x="80" y="268.5762">candidates</text><path d="M77,274.375 L77,276.375 L85,276.375 L85,275.375 L80,275.375 L80,274.375 L77,274.375 M77,277.375 L77,281.875 C77,282.155 77.22,282.375 77.5,282.375 L84.5,282.375 C84.78,282.375 85,282.155 85,281.875 L85,277.375 L77,277.375 " fill="#000000" style="stroke:;stroke-width:0.0;stroke-dasharray:;"/><text fill="#000000" font-family="sans-serif" font-size="12" lengthAdjust="spacing" textLength="140" x="90" y="282.5449">&lt;versionCandidateId&gt;</text><path d="M87,288.3438 L87,290.3438 L95,290.3438 L95,289.3438 L90,289.3438 L90,288.3438 L87,288.3438 M87,291.3438 L87,295.8438 C87,296.1238 87.22,296.3438 87.5,296.3438 L94.5,296.3438 C94.78,296.3438 95,296.1238 95,295.8438 L95,291.3438 L87,291.3438 " fill="#000000" style="stroke:;stroke-width:0.0;stroke-dasharray:;"/><text fill="#000000" font-family="sans-serif" font-size="12" lengthAdjust="spacing" textLength="32" x="100" y="296.5137">POST</text><path d="M97,302.3125 L97,310.3125 L104,310.3125 L104,306.3125 L100,306.3125 L100,302.3125 L97,302.3125 M101,302.3125 L101,305.3125 L104,305.3125 L101,302.3125 " fill="#000000" style="stroke:;stroke-width:0.0;stroke-dasharray:;"/><text fill="#000000" font-family="sans-serif" font-size="12" lengthAdjust="spacing" textLength="114" x="110" y="310.4824">http-request.adoc</text><path d="M97,316.2813 L97,324.2813 L104,324.2813 L104,320.2813 L100,320.2813 L100,316.2813 L97,316.2813 M101,316.2813 L101,319.2813 L104,319.2813 L101,316.2813 " fill="#000000" style="stroke:;stroke-width:0.0;stroke-dasharray:;"/><text fill="#000000" font-family="sans-serif" font-size="12" lengthAdjust="spacing" textLength="124" x="110" y="324.4512">http-response.adoc</text><path d="M87,330.25 L87,332.25 L95,332.25 L95,331.25 L90,331.25 L90,330.25 L87,330.25 M87,333.25 L87,337.75 C87,338.03 87.22,338.25 87.5,338.25 L94.5,338.25 C94.78,338.25 95,338.03 95,337.75 L95,333.25 L87,333.25 " fill="#000000" style="stroke:;stroke-width:0.0;stroke-dasharray:;"/><text fill="#000000" font-family="sans-serif" font-size="12" lengthAdjust="spacing" textLength="24" x="100" y="338.4199">GET</text><path d="M97,344.2188 L97,352.2188 L104,352.2188 L104,348.2188 L100,348.2188 L100,344.2188 L97,344.2188 M101,344.2188 L101,347.2188 L104,347.2188 L101,344.2188 " fill="#000000" style="stroke:;stroke-width:0.0;stroke-dasharray:;"/><text fill="#000000" font-family="sans-serif" font-size="12" lengthAdjust="spacing" textLength="114" x="110" y="352.3887">http-request.adoc</text><path d="M97,358.1875 L97,366.1875 L104,366.1875 L104,362.1875 L100,362.1875 L100,358.1875 L97,358.1875 M101,358.1875 L101,361.1875 L104,361.1875 L101,358.1875 " fill="#000000" style="stroke:;stroke-width:0.0;stroke-dasharray:;"/><text fill="#000000" font-family="sans-serif" font-size="12" lengthAdjust="spacing" textLength="124" x="110" y="366.3574">http-response.adoc</text><path d="M77,372.1563 L77,374.1563 L85,374.1563 L85,373.1563 L80,373.1563 L80,372.1563 L77,372.1563 M77,375.1563 L77,379.6563 C77,379.9363 77.22,380.1563 77.5,380.1563 L84.5,380.1563 C84.78,380.1563 85,379.9363 85,379.6563 L85,375.1563 L77,375.1563 " fill="#000000" style="stroke:;stroke-width:0.0;stroke-dasharray:;"/><text fill="#000000" font-family="sans-serif" font-size="12" lengthAdjust="spacing" textLength="24" x="90" y="380.3262">GET</text><path d="M87,386.125 L87,394.125 L94,394.125 L94,390.125 L90,390.125 L90,386.125 L87,386.125 M91,386.125 L91,389.125 L94,389.125 L91,386.125 " fill="#000000" style="stroke:;stroke-width:0.0;stroke-dasharray:;"/><text fill="#000000" font-family="sans-serif" font-size="12" lengthAdjust="spacing" textLength="114" x="100" y="394.2949">http-request.adoc</text><path d="M87,400.0938 L87,408.0938 L94,408.0938 L94,404.0938 L90,404.0938 L90,400.0938 L87,400.0938 M91,400.0938 L91,403.0938 L94,403.0938 L91,400.0938 " fill="#000000" style="stroke:;stroke-width:0.0;stroke-dasharray:;"/><text fill="#000000" font-family="sans-serif" font-size="12" lengthAdjust="spacing" textLength="124" x="100" y="408.2637">http-response.adoc</text><rect fill="none" height="2" style="stroke:#888888;stroke-width:1.0;" width="2" x="9" y="11.9844"/><rect fill="none" height="2" style="stroke:#888888;stroke-width:1.0;" width="2" x="19" y="25.9531"/><line style="stroke:#888888;stroke-width:1.0;" x1="10" x2="10" y1="14.9844" y2="26.9531"/><line style="stroke:#888888;stroke-width:1.0;" x1="10" x2="18" y1="26.9531" y2="26.9531"/><rect fill="none" height="2" style="stroke:#888888;stroke-width:1.0;" width="2" x="29" y="39.9219"/><line style="stroke:#888888;stroke-width:1.0;" x1="20" x2="20" y1="28.9531" y2="40.9219"/><line style="stroke:#888888;stroke-width:1.0;" x1="20" x2="28" y1="40.9219" y2="40.9219"/><rect fill="none" height="2" style="stroke:#888888;stroke-width:1.0;" width="2" x="39" y="53.8906"/><line style="stroke:#888888;stroke-width:1.0;" x1="30" x2="30" y1="42.9219" y2="54.8906"/><line style="stroke:#888888;stroke-width:1.0;" x1="30" x2="38" y1="54.8906" y2="54.8906"/><rect fill="none" height="2" style="stroke:#888888;stroke-width:1.0;" width="2" x="49" y="67.8594"/><line style="stroke:#888888;stroke-width:1.0;" x1="40" x2="40" y1="56.8906" y2="68.8594"/><line style="stroke:#888888;stroke-width:1.0;" x1="40" x2="48" y1="68.8594" y2="68.8594"/><line style="stroke:#888888;stroke-width:1.0;" x1="50" x2="50" y1="70.8594" y2="82.8281"/><line style="stroke:#888888;stroke-width:1.0;" x1="50" x2="58" y1="82.8281" y2="82.8281"/><rect fill="none" height="2" style="stroke:#888888;stroke-width:1.0;" width="2" x="49" y="95.7969"/><line style="stroke:#888888;stroke-width:1.0;" x1="40" x2="40" y1="56.8906" y2="96.7969"/><line style="stroke:#888888;stroke-width:1.0;" x1="40" x2="48" y1="96.7969" y2="96.7969"/><rect fill="none" height="2" style="stroke:#888888;stroke-width:1.0;" width="2" x="59" y="109.7656"/><line style="stroke:#888888;stroke-width:1.0;" x1="50" x2="50" y1="98.7969" y2="110.7656"/><line style="stroke:#888888;stroke-width:1.0;" x1="50" x2="58" y1="110.7656" y2="110.7656"/><rect fill="none" height="2" style="stroke:#888888;stroke-width:1.0;" width="2" x="69" y="123.7344"/><line style="stroke:#888888;stroke-width:1.0;" x1="60" x2="60" y1="112.7656" y2="124.7344"/><line style="stroke:#888888;stroke-width:1.0;" x1="60" x2="68" y1="124.7344" y2="124.7344"/><rect fill="none" height="2" style="stroke:#888888;stroke-width:1.0;" width="2" x="79" y="137.7031"/><line style="stroke:#888888;stroke-width:1.0;" x1="70" x2="70" y1="126.7344" y2="138.7031"/><line style="stroke:#888888;stroke-width:1.0;" x1="70" x2="78" y1="138.7031" y2="138.7031"/><line style="stroke:#888888;stroke-width:1.0;" x1="80" x2="80" y1="140.7031" y2="152.6719"/><line style="stroke:#888888;stroke-width:1.0;" x1="80" x2="88" y1="152.6719" y2="152.6719"/><rect fill="none" height="2" style="stroke:#888888;stroke-width:1.0;" width="2" x="69" y="165.6406"/><line style="stroke:#888888;stroke-width:1.0;" x1="60" x2="60" y1="112.7656" y2="166.6406"/><line style="stroke:#888888;stroke-width:1.0;" x1="60" x2="68" y1="166.6406" y2="166.6406"/><line style="stroke:#888888;stroke-width:1.0;" x1="70" x2="70" y1="168.6406" y2="180.6094"/><line style="stroke:#888888;stroke-width:1.0;" x1="70" x2="78" y1="180.6094" y2="180.6094"/><rect fill="none" height="2" style="stroke:#888888;stroke-width:1.0;" width="2" x="49" y="193.5781"/><line style="stroke:#888888;stroke-width:1.0;" x1="40" x2="40" y1="56.8906" y2="194.5781"/><line style="stroke:#888888;stroke-width:1.0;" x1="40" x2="48" y1="194.5781" y2="194.5781"/><line style="stroke:#888888;stroke-width:1.0;" x1="50" x2="50" y1="196.5781" y2="208.5469"/><line style="stroke:#888888;stroke-width:1.0;" x1="50" x2="58" y1="208.5469" y2="208.5469"/><rect fill="none" height="2" style="stroke:#888888;stroke-width:1.0;" width="2" x="9" y="221.5156"/><rect fill="none" height="2" style="stroke:#888888;stroke-width:1.0;" width="2" x="19" y="235.4844"/><line style="stroke:#888888;stroke-width:1.0;" x1="10" x2="10" y1="224.5156" y2="236.4844"/><line style="stroke:#888888;stroke-width:1.0;" x1="10" x2="18" y1="236.4844" y2="236.4844"/><rect fill="none" height="2" style="stroke:#888888;stroke-width:1.0;" width="2" x="49" y="249.4531"/><line style="stroke:#888888;stroke-width:1.0;" x1="20" x2="20" y1="238.4844" y2="250.4531"/><line style="stroke:#888888;stroke-width:1.0;" x1="20" x2="48" y1="250.4531" y2="250.4531"/><rect fill="none" height="2" style="stroke:#888888;stroke-width:1.0;" width="2" x="59" y="263.4219"/><line style="stroke:#888888;stroke-width:1.0;" x1="50" x2="50" y1="252.4531" y2="264.4219"/><line style="stroke:#888888;stroke-width:1.0;" x1="50" x2="58" y1="264.4219" y2="264.4219"/><rect fill="none" height="2" style="stroke:#888888;stroke-width:1.0;" width="2" x="69" y="277.3906"/><line style="stroke:#888888;stroke-width:1.0;" x1="60" x2="60" y1="266.4219" y2="278.3906"/><line style="stroke:#888888;stroke-width:1.0;" x1="60" x2="68" y1="278.3906" y2="278.3906"/><rect fill="none" height="2" style="stroke:#888888;stroke-width:1.0;" width="2" x="79" y="291.3594"/><line style="stroke:#888888;stroke-width:1.0;" x1="70" x2="70" y1="280.3906" y2="292.3594"/><line style="stroke:#888888;stroke-width:1.0;" x1="70" x2="78" y1="292.3594" y2="292.3594"/><line style="stroke:#888888;stroke-width:1.0;" x1="80" x2="80" y1="294.3594" y2="306.3281"/><line style="stroke:#888888;stroke-width:1.0;" x1="80" x2="88" y1="306.3281" y2="306.3281"/><line style="stroke:#888888;stroke-width:1.0;" x1="80" x2="80" y1="294.3594" y2="320.2969"/><line style="stroke:#888888;stroke-width:1.0;" x1="80" x2="88" y1="320.2969" y2="320.2969"/><rect fill="none" height="2" style="stroke:#888888;stroke-width:1.0;" width="2" x="79" y="333.2656"/><line style="stroke:#888888;stroke-width:1.0;" x1="70" x2="70" y1="280.3906" y2="334.2656"/><line style="stroke:#888888;stroke-width:1.0;" x1="70" x2="78" y1="334.2656" y2="334.2656"/><line style="stroke:#888888;stroke-width:1.0;" x1="80" x2="80" y1="336.2656" y2="348.2344"/><line style="stroke:#888888;stroke-width:1.0;" x1="80" x2="88" y1="348.2344" y2="348.2344"/><line style="stroke:#888888;stroke-width:1.0;" x1="80" x2="80" y1="336.2656" y2="362.2031"/><line style="stroke:#888888;stroke-width:1.0;" x1="80" x2="88" y1="362.2031" y2="362.2031"/><rect fill="none" height="2" style="stroke:#888888;stroke-width:1.0;" width="2" x="69" y="375.1719"/><line style="stroke:#888888;stroke-width:1.0;" x1="60" x2="60" y1="266.4219" y2="376.1719"/><line style="stroke:#888888;stroke-width:1.0;" x1="60" x2="68" y1="376.1719" y2="376.1719"/><line style="stroke:#888888;stroke-width:1.0;" x1="70" x2="70" y1="378.1719" y2="390.1406"/><line style="stroke:#888888;stroke-width:1.0;" x1="70" x2="78" y1="390.1406" y2="390.1406"/><line style="stroke:#888888;stroke-width:1.0;" x1="70" x2="70" y1="378.1719" y2="404.1094"/><line style="stroke:#888888;stroke-width:1.0;" x1="70" x2="78" y1="404.1094" y2="404.1094"/><!--SRC=[nLDDJ-Cm4BtxLym9WL2YjdmgGXNQyg7jjgAY1Suc7hAMt77M7bT2QFyxJccAYoXSLbhbOhrvx_bv9dFkMJhsqh1u4IypiN-sysIDGjS7PKilzXDWRbKms609wB3Idjrp5W_1IDQMihaaMU4SYHjkGguZlDHlEdZEPAqpJQK9gYKq36sm3vhOsLp6EEAZT87EnmiJnQfGIb9QILwR9RMpbMhGSdwgVijAQ9ERwMmDhyFu6iiqIwgulfo9x_YVFBj2GXTZg9KOyZmNwI3YX2haZL6iDPadNTV8_l-tvZTp7V-2Fo4-xEt9soY-Zi5miurR-lYFtByUqdRlhwp_nkySIIsNHqoC9BuRZzh6GpVlTNe7URUp-u0AXi50jmVTe-BeiEYSmDri04rzJ-nUJqRWRN0bWcfMIJ-6Pelsn50k9Dm6OZt70cvgfE75hnQ0IrfePscvPSFxyJlX-33xeHccw68Kk1-B2toImN1Kb5Pfgefu-rLsAaQIgX0tiW0aCR3Hrpt7slGL]--></g></svg>