<?xml version="1.0" encoding="us-ascii" standalone="no"?><svg xmlns="http://www.w3.org/2000/svg" xmlns:xlink="http://www.w3.org/1999/xlink" contentStyleType="text/css" height="239px" preserveAspectRatio="none" style="width:1196px;height:239px;background:#FFFFFF;" version="1.1" viewBox="0 0 1196 239" width="1196px" zoomAndPan="magnify"><defs/><g><rect fill="#F1F1F1" height="33.9688" rx="12.5" ry="12.5" style="stroke:#181818;stroke-width:0.5;" width="124" x="337" y="11"/><text fill="#000000" font-family="sans-serif" font-size="12" lengthAdjust="spacing" textLength="104" x="347" y="32.1387">&#1042;&#1093;&#1110;&#1076; &#1076;&#1083;&#1103; &#1073;&#1110;&#1079;&#1085;&#1077;&#1089;&#1091;</text><polygon fill="#F1F1F1" points="310,64.9688,488,64.9688,500,76.9688,488,88.9688,310,88.9688,298,76.9688,310,64.9688" style="stroke:#181818;stroke-width:0.5;"/><text fill="#000000" font-family="sans-serif" font-size="11" lengthAdjust="spacing" textLength="178" x="310" y="80.7769">&#1040;&#1082;&#1090;&#1080;&#1074;&#1086;&#1074;&#1072;&#1085;&#1072; &#1087;&#1077;&#1088;&#1077;&#1074;&#1110;&#1088;&#1082;&#1072; &#1074; &#1045;&#1044;&#1056;?</text><text fill="#000000" font-family="sans-serif" font-size="11" lengthAdjust="spacing" textLength="21" x="277" y="74.3745">&#1090;&#1072;&#1082;</text><text fill="#000000" font-family="sans-serif" font-size="11" lengthAdjust="spacing" textLength="10" x="500" y="74.3745">&#1085;&#1110;</text><rect fill="#F1F1F1" height="33.9688" rx="12.5" ry="12.5" style="stroke:#181818;stroke-width:0.5;" width="189" x="11" y="98.9688"/><text fill="#000000" font-family="sans-serif" font-size="12" lengthAdjust="spacing" textLength="169" x="21" y="120.1074">&#1055;&#1086;&#1096;&#1091;&#1082; &#1082;&#1086;&#1088;&#1080;&#1089;&#1090;&#1091;&#1074;&#1072;&#1095;&#1072; &#1074; &#1045;&#1044;&#1056;</text><rect fill="#F1F1F1" height="33.9688" rx="12.5" ry="12.5" style="stroke:#181818;stroke-width:0.5;" width="32" x="89.5" y="167.9375"/><text fill="#000000" font-family="sans-serif" font-size="12" lengthAdjust="spacing" textLength="12" x="99.5" y="189.0762">...</text><polygon fill="#F1F1F1" points="270.5,123.9688,374.5,123.9688,386.5,135.9688,374.5,147.9688,270.5,147.9688,258.5,135.9688,270.5,123.9688" style="stroke:#181818;stroke-width:0.5;"/><text fill="#000000" font-family="sans-serif" font-size="11" lengthAdjust="spacing" textLength="10" x="326.5" y="158.1792">&#1085;&#1110;</text><text fill="#000000" font-family="sans-serif" font-size="11" lengthAdjust="spacing" textLength="104" x="270.5" y="139.7769">&#1052;&#1110;&#1089;&#1090;&#1080;&#1090;&#1100; &#1028;&#1044;&#1056;&#1055;&#1054;&#1059;?</text><rect fill="#F1F1F1" height="33.9688" rx="12.5" ry="12.5" style="stroke:#181818;stroke-width:0.5;" width="225" x="210" y="180.7734"/><text fill="#000000" font-family="sans-serif" font-size="12" lengthAdjust="spacing" textLength="205" x="220" y="201.9121">&#1059;&#1087;&#1110;&#1096;&#1085;&#1072; &#1072;&#1074;&#1090;&#1077;&#1085;&#1090;&#1080;&#1092;&#1110;&#1082;&#1072;&#1094;&#1110;&#1103; &#1103;&#1082; &#1060;&#1054;&#1055;</text><polygon fill="#F1F1F1" points="482.5,123.9688,652.5,123.9688,664.5,135.9688,652.5,147.9688,482.5,147.9688,470.5,135.9688,482.5,123.9688" style="stroke:#181818;stroke-width:0.5;"/><text fill="#000000" font-family="sans-serif" font-size="11" lengthAdjust="spacing" textLength="21" x="571.5" y="158.1792">&#1090;&#1072;&#1082;</text><text fill="#000000" font-family="sans-serif" font-size="11" lengthAdjust="spacing" textLength="170" x="482.5" y="139.7769">&#1028;&#1044;&#1056;&#1055;&#1054;&#1059; &#1110; &#1056;&#1053;&#1054;&#1050;&#1055;&#1055; &#1086;&#1076;&#1085;&#1072;&#1082;&#1086;&#1074;&#1110;?</text><rect fill="#F1F1F1" height="33.9688" rx="12.5" ry="12.5" style="stroke:#181818;stroke-width:0.5;" width="225" x="455" y="180.7734"/><text fill="#000000" font-family="sans-serif" font-size="12" lengthAdjust="spacing" textLength="205" x="465" y="201.9121">&#1059;&#1087;&#1110;&#1096;&#1085;&#1072; &#1072;&#1074;&#1090;&#1077;&#1085;&#1090;&#1080;&#1092;&#1110;&#1082;&#1072;&#1094;&#1110;&#1103; &#1103;&#1082; &#1060;&#1054;&#1055;</text><polygon fill="#F1F1F1" points="747,123.9688,916,123.9688,928,135.9688,916,147.9688,747,147.9688,735,135.9688,747,123.9688" style="stroke:#181818;stroke-width:0.5;"/><text fill="#000000" font-family="sans-serif" font-size="11" lengthAdjust="spacing" textLength="120" x="835.5" y="158.1792">&#1076;&#1086;&#1074;&#1078;&#1080;&#1085;&#1072; 8 &#1089;&#1080;&#1084;&#1074;&#1086;&#1083;&#1110;&#1074;</text><text fill="#000000" font-family="sans-serif" font-size="11" lengthAdjust="spacing" textLength="169" x="747" y="139.7769">&#1055;&#1077;&#1088;&#1077;&#1074;&#1110;&#1088;&#1082;&#1072; &#1076;&#1086;&#1074;&#1078;&#1080;&#1085;&#1080; &#1028;&#1044;&#1056;&#1055;&#1054;&#1059;</text><text fill="#000000" font-family="sans-serif" font-size="11" lengthAdjust="spacing" textLength="127" x="928" y="133.3745">&#1076;&#1086;&#1074;&#1078;&#1080;&#1085;&#1072; 10 &#1089;&#1080;&#1084;&#1074;&#1086;&#1083;&#1110;&#1074;</text><rect fill="#F1F1F1" height="47.9375" rx="12.5" ry="12.5" style="stroke:#181818;stroke-width:0.5;" width="283" x="690" y="180.7734"/><text fill="#000000" font-family="sans-serif" font-size="12" lengthAdjust="spacing" textLength="263" x="700" y="201.9121">&#1059;&#1087;&#1110;&#1096;&#1085;&#1072; &#1072;&#1074;&#1090;&#1077;&#1085;&#1090;&#1080;&#1092;&#1110;&#1082;&#1072;&#1094;&#1110;&#1103; &#1103;&#1082; &#1087;&#1088;&#1077;&#1076;&#1089;&#1090;&#1072;&#1074;&#1085;&#1080;&#1082;</text><text fill="#000000" font-family="sans-serif" font-size="12" lengthAdjust="spacing" textLength="112" x="700" y="215.8809">&#1102;&#1088;&#1077;&#1076;&#1080;&#1095;&#1085;&#1086;&#1111; &#1086;&#1089;&#1086;&#1073;&#1080;</text><rect fill="#F1F1F1" height="47.9375" rx="12.5" ry="12.5" style="stroke:#181818;stroke-width:0.5;" width="192" x="993" y="177.3711"/><text fill="#000000" font-family="sans-serif" font-size="12" lengthAdjust="spacing" textLength="172" x="1003" y="198.5098">&#1059;&#1087;&#1110;&#1096;&#1085;&#1072; &#1072;&#1074;&#1090;&#1077;&#1085;&#1090;&#1080;&#1092;&#1110;&#1082;&#1072;&#1094;&#1110;&#1103; &#1103;&#1082;</text><text fill="#000000" font-family="sans-serif" font-size="12" lengthAdjust="spacing" textLength="120" x="1003" y="212.4785">&#1087;&#1088;&#1077;&#1076;&#1089;&#1090;&#1072;&#1074;&#1085;&#1080;&#1082; &#1060;&#1054;&#1055;</text><line style="stroke:#181818;stroke-width:1.0;" x1="105.5" x2="105.5" y1="132.9375" y2="167.9375"/><polygon fill="#181818" points="101.5,157.9375,105.5,167.9375,109.5,157.9375,105.5,161.9375" style="stroke:#181818;stroke-width:1.0;"/><line style="stroke:#181818;stroke-width:1.0;" x1="322.5" x2="322.5" y1="147.9688" y2="180.7734"/><polygon fill="#181818" points="318.5,170.7734,322.5,180.7734,326.5,170.7734,322.5,174.7734" style="stroke:#181818;stroke-width:1.0;"/><line style="stroke:#181818;stroke-width:1.0;" x1="567.5" x2="567.5" y1="147.9688" y2="180.7734"/><polygon fill="#181818" points="563.5,170.7734,567.5,180.7734,571.5,170.7734,567.5,174.7734" style="stroke:#181818;stroke-width:1.0;"/><line style="stroke:#181818;stroke-width:1.0;" x1="831.5" x2="831.5" y1="147.9688" y2="180.7734"/><polygon fill="#181818" points="827.5,170.7734,831.5,180.7734,835.5,170.7734,831.5,174.7734" style="stroke:#181818;stroke-width:1.0;"/><line style="stroke:#181818;stroke-width:1.0;" x1="386.5" x2="470.5" y1="135.9688" y2="135.9688"/><polygon fill="#181818" points="460.5,131.9688,470.5,135.9688,460.5,139.9688,464.5,135.9688" style="stroke:#181818;stroke-width:1.0;"/><line style="stroke:#181818;stroke-width:1.0;" x1="664.5" x2="735" y1="135.9688" y2="135.9688"/><polygon fill="#181818" points="725,131.9688,735,135.9688,725,139.9688,729,135.9688" style="stroke:#181818;stroke-width:1.0;"/><line style="stroke:#181818;stroke-width:1.0;" x1="500" x2="692.5" y1="76.9688" y2="76.9688"/><line style="stroke:#181818;stroke-width:1.0;" x1="692.5" x2="692.5" y1="76.9688" y2="98.9688"/><line style="stroke:#181818;stroke-width:1.0;" x1="692.5" x2="322.5" y1="98.9688" y2="98.9688"/><line style="stroke:#181818;stroke-width:1.0;" x1="322.5" x2="322.5" y1="98.9688" y2="123.9688"/><polygon fill="#181818" points="318.5,113.9688,322.5,123.9688,326.5,113.9688,322.5,117.9688" style="stroke:#181818;stroke-width:1.0;"/><line style="stroke:#181818;stroke-width:1.0;" x1="928" x2="1089" y1="135.9688" y2="135.9688"/><line style="stroke:#181818;stroke-width:1.0;" x1="1089" x2="1089" y1="135.9688" y2="177.3711"/><polygon fill="#181818" points="1085,167.3711,1089,177.3711,1093,167.3711,1089,171.3711" style="stroke:#181818;stroke-width:1.0;"/><line style="stroke:#181818;stroke-width:1.0;" x1="298" x2="105.5" y1="76.9688" y2="76.9688"/><line style="stroke:#181818;stroke-width:1.0;" x1="105.5" x2="105.5" y1="76.9688" y2="98.9688"/><polygon fill="#181818" points="101.5,88.9688,105.5,98.9688,109.5,88.9688,105.5,92.9688" style="stroke:#181818;stroke-width:1.0;"/><line style="stroke:#181818;stroke-width:1.0;" x1="399" x2="399" y1="44.9688" y2="64.9688"/><polygon fill="#181818" points="395,54.9688,399,64.9688,403,54.9688,399,58.9688" style="stroke:#181818;stroke-width:1.0;"/><!--SRC=[jP7DJi9G48Ntzobc2HkYEzCkV16MGYIIRlG1v4TXGSGOhObHQu8FK9gYJR7b5SwyaUTU4iHKtQXDsawdSsQ-UyR3bPvfY5IGOgbJmPnVhoYmq9uEVDDfImsNoBMF30bAtZ7_ne8LIqwnGA8XtxbD9O8RNEDfloudXwr0QbJ5oEl6GuHInpf0BYmjASZOlyy4- -beM-mRhz5e-EQeq-sQLlUuHO12mxeHNWxddXDx5eWD9eAXLN708sQRmHyAUtcOOKNHU4qUaxbFyiBr6FB0fDTp5an5fnRncSqYVwDtA3QmE4HW_wsXeg4mVc1ynqmaT2cra-n9hJqLE-I_m6gSNzbAwhRsmlqLo3xPjN5hkoIMFT4UmpUtxoKfabzOkN8ugLiOgoq3ycQW5-iyLIFcIhsbRHnROexicmDMG7Tt_ewq6NoD-eFdmK6dRTpp7G00]--></g></svg>