<?xml version="1.0" encoding="us-ascii" standalone="no"?><svg xmlns="http://www.w3.org/2000/svg" xmlns:xlink="http://www.w3.org/1999/xlink" contentStyleType="text/css" height="580px" preserveAspectRatio="none" style="width:906px;height:580px;background:#FFFFFF;" version="1.1" viewBox="0 0 906 580" width="906px" zoomAndPan="magnify"><defs/><g><!--cluster Citus_O--><g id="cluster_Citus_O"><path d="M574.5,269.59 C574.5,259.59 732,259.59 732,259.59 C732,259.59 889.5,259.59 889.5,269.59 L889.5,553.48 C889.5,563.48 732,563.48 732,563.48 C732,563.48 574.5,563.48 574.5,553.48 L574.5,269.59 " fill="none" style="stroke:#181818;stroke-width:1.0;"/><path d="M574.5,269.59 C574.5,279.59 732,279.59 732,279.59 C732,279.59 889.5,279.59 889.5,269.59 " fill="none" style="stroke:#181818;stroke-width:1.0;"/><text fill="#000000" font-family="sans-serif" font-size="14" font-weight="bold" lengthAdjust="spacing" textLength="117" x="673.5" y="294.5851">Operational DB</text><text fill="#000000" font-family="sans-serif" font-size="14" font-weight="bold" lengthAdjust="spacing" textLength="40" x="712" y="310.882">Citus</text><text fill="#000000" font-family="sans-serif" font-size="14" font-weight="bold" lengthAdjust="spacing" textLength="5" x="729.5" y="327.1789">&#160;</text></g><!--cluster Citus_R--><g id="cluster_Citus_R"><path d="M104.5,270.59 C104.5,260.59 266.5,260.59 266.5,260.59 C266.5,260.59 428.5,260.59 428.5,270.59 L428.5,553.48 C428.5,563.48 266.5,563.48 266.5,563.48 C266.5,563.48 104.5,563.48 104.5,553.48 L104.5,270.59 " fill="none" style="stroke:#181818;stroke-width:1.0;"/><path d="M104.5,270.59 C104.5,280.59 266.5,280.59 266.5,280.59 C266.5,280.59 428.5,280.59 428.5,270.59 " fill="none" style="stroke:#181818;stroke-width:1.0;"/><text fill="#000000" font-family="sans-serif" font-size="14" font-weight="bold" lengthAdjust="spacing" textLength="101" x="216" y="295.5851">Analytical DB</text><text fill="#000000" font-family="sans-serif" font-size="14" font-weight="bold" lengthAdjust="spacing" textLength="40" x="246.5" y="311.882">Citus</text></g><!--entity Perm_Check--><g id="elem_Perm_Check"><rect fill="#F1F1F1" height="46.2969" rx="2.5" ry="2.5" style="stroke:#181818;stroke-width:0.5;" width="164" x="709.5" y="341.59"/><rect fill="#F1F1F1" height="10" style="stroke:#181818;stroke-width:0.5;" width="15" x="853.5" y="346.59"/><rect fill="#F1F1F1" height="2" style="stroke:#181818;stroke-width:0.5;" width="4" x="851.5" y="348.59"/><rect fill="#F1F1F1" height="2" style="stroke:#181818;stroke-width:0.5;" width="4" x="851.5" y="352.59"/><text fill="#000000" font-family="sans-serif" font-size="14" lengthAdjust="spacing" textLength="124" x="724.5" y="374.5851">Permission Check</text></g><!--entity Roles--><g id="elem_Roles"><rect fill="#F1F1F1" height="39.2969" rx="2.5" ry="2.5" style="stroke:#181818;stroke-width:0.5;" width="69" x="704" y="501.53"/><polygon fill="#F1F1F1" points="756,506.53,756,520.53,768,520.53,768,512.53,762,506.53,756,506.53" style="stroke:#181818;stroke-width:0.5;"/><line style="stroke:#181818;stroke-width:0.5;" x1="762" x2="762" y1="506.53" y2="512.53"/><line style="stroke:#181818;stroke-width:0.5;" x1="768" x2="762" y1="512.53" y2="512.53"/><text fill="#000000" font-family="sans-serif" font-size="14" lengthAdjust="spacing" textLength="39" x="714" y="527.5251">Roles</text></g><g id="elem_GMN11"><path d="M808,501.05 L808,517.18 L773.16,521.18 L808,525.18 L808,541.3156 A0,0 0 0 0 808,541.3156 L873,541.3156 A0,0 0 0 0 873,541.3156 L873,511.05 L863,501.05 L808,501.05 A0,0 0 0 0 808,501.05 " fill="#FAFAFA" style="stroke:#181818;stroke-width:0.5;"/><path d="M863,501.05 L863,511.05 L873,511.05 L863,501.05 " fill="#FAFAFA" style="stroke:#181818;stroke-width:0.5;"/><text fill="#000000" font-family="sans-serif" font-size="13" lengthAdjust="spacing" textLength="44" x="814" y="518.1169">access</text><text fill="#000000" font-family="sans-serif" font-size="13" lengthAdjust="spacing" textLength="29" x="814" y="533.2497">map</text></g><!--entity Tables_O--><g id="elem_Tables_O"><rect fill="#F1F1F1" height="48.5938" rx="2.5" ry="2.5" style="stroke:#181818;stroke-width:0.5;" width="62" x="594.5" y="498.89"/><rect fill="#F1F1F1" height="48.5938" rx="2.5" ry="2.5" style="stroke:#181818;stroke-width:0.5;" width="62" x="590.5" y="494.89"/><text fill="#000000" font-family="sans-serif" font-size="14" lengthAdjust="spacing" textLength="32" x="606.5" y="515.8851">Data</text><text fill="#000000" font-family="sans-serif" font-size="14" lengthAdjust="spacing" textLength="46" x="598.5" y="532.182">Tables</text></g><!--entity Routine--><g id="elem_Routine"><rect fill="#F1F1F1" height="39.2969" rx="2.5" ry="2.5" style="stroke:#181818;stroke-width:0.5;" width="84" x="590.5" y="345.09"/><polygon fill="#F1F1F1" points="657.5,350.09,657.5,364.09,669.5,364.09,669.5,356.09,663.5,350.09,657.5,350.09" style="stroke:#181818;stroke-width:0.5;"/><line style="stroke:#181818;stroke-width:0.5;" x1="663.5" x2="663.5" y1="350.09" y2="356.09"/><line style="stroke:#181818;stroke-width:0.5;" x1="669.5" x2="663.5" y1="356.09" y2="356.09"/><text fill="#000000" font-family="sans-serif" font-size="14" lengthAdjust="spacing" textLength="54" x="600.5" y="371.0851">Routine</text></g><!--entity DB_User--><g id="elem_DB_User"><ellipse cx="149.5" cy="335.09" fill="#F1F1F1" rx="8" ry="8" style="stroke:#181818;stroke-width:0.5;"/><path d="M149.5,343.09 L149.5,370.09 M136.5,351.09 L162.5,351.09 M149.5,370.09 L136.5,385.09 M149.5,370.09 L162.5,385.09 " fill="none" style="stroke:#181818;stroke-width:0.5;"/><text fill="#000000" font-family="sans-serif" font-size="14" lengthAdjust="spacing" textLength="57" x="121" y="399.5851">DB User</text></g><!--entity Views--><g id="elem_Views"><rect fill="#F1F1F1" height="32.2969" rx="2.5" ry="2.5" style="stroke:#181818;stroke-width:0.5;" width="56" x="217.5" y="350.59"/><rect fill="#F1F1F1" height="32.2969" rx="2.5" ry="2.5" style="stroke:#181818;stroke-width:0.5;" width="56" x="213.5" y="346.59"/><text fill="#000000" font-family="sans-serif" font-size="14" lengthAdjust="spacing" textLength="40" x="221.5" y="367.5851">Views</text></g><g id="elem_GMN19"><path d="M309,344.6 L309,360.74 L273.66,364.74 L309,368.74 L309,384.8656 A0,0 0 0 0 309,384.8656 L412,384.8656 A0,0 0 0 0 412,384.8656 L412,354.6 L402,344.6 L309,344.6 A0,0 0 0 0 309,344.6 " fill="#FAFAFA" style="stroke:#181818;stroke-width:0.5;"/><path d="M402,344.6 L402,354.6 L412,354.6 L402,344.6 " fill="#FAFAFA" style="stroke:#181818;stroke-width:0.5;"/><text fill="#000000" font-family="sans-serif" font-size="13" lengthAdjust="spacing" textLength="82" x="315" y="361.6669">limits access</text><text fill="#000000" font-family="sans-serif" font-size="13" lengthAdjust="spacing" textLength="71" x="315" y="376.7997">to the data</text></g><!--entity Tables_R--><g id="elem_Tables_R"><rect fill="#F1F1F1" height="48.5938" rx="2.5" ry="2.5" style="stroke:#181818;stroke-width:0.5;" width="62" x="316.5" y="498.89"/><rect fill="#F1F1F1" height="48.5938" rx="2.5" ry="2.5" style="stroke:#181818;stroke-width:0.5;" width="62" x="312.5" y="494.89"/><text fill="#000000" font-family="sans-serif" font-size="14" lengthAdjust="spacing" textLength="32" x="328.5" y="515.8851">Data</text><text fill="#000000" font-family="sans-serif" font-size="14" lengthAdjust="spacing" textLength="46" x="320.5" y="532.182">Tables</text></g><!--entity Redash--><g id="elem_Redash"><rect fill="#F1F1F1" height="36.2969" rx="2.5" ry="2.5" style="stroke:#181818;stroke-width:0.5;" width="73" x="7" y="140.29"/><text fill="#000000" font-family="sans-serif" font-size="14" lengthAdjust="spacing" textLength="53" x="17" y="163.2851">Redash</text></g><!--entity User--><g id="elem_User"><ellipse cx="214.5" cy="128.79" fill="#F1F1F1" rx="8" ry="8" style="stroke:#181818;stroke-width:0.5;"/><path d="M214.5,136.79 L214.5,163.79 M201.5,144.79 L227.5,144.79 M214.5,163.79 L201.5,178.79 M214.5,163.79 L227.5,178.79 " fill="none" style="stroke:#181818;stroke-width:0.5;"/><text fill="#000000" font-family="sans-serif" font-size="14" lengthAdjust="spacing" textLength="32" x="198.5" y="193.2851">User</text></g><!--entity Gateway--><g id="elem_Gateway"><rect fill="#F1F1F1" height="36.2969" rx="2.5" ry="2.5" style="stroke:#181818;stroke-width:0.5;" width="79" x="379" y="140.29"/><text fill="#000000" font-family="sans-serif" font-size="14" lengthAdjust="spacing" textLength="59" x="389" y="163.2851">Gateway</text></g><!--entity Lowcode--><g id="elem_Lowcode"><rect fill="#F1F1F1" height="36.2969" rx="2.5" ry="2.5" style="stroke:#181818;stroke-width:0.5;" width="82" x="515.5" y="140.29"/><text fill="#000000" font-family="sans-serif" font-size="14" lengthAdjust="spacing" textLength="62" x="525.5" y="163.2851">Lowcode</text></g><!--entity Keycloak--><g id="elem_Keycloak"><rect fill="#F1F1F1" height="36.2969" rx="2.5" ry="2.5" style="stroke:#181818;stroke-width:0.5;" width="81" x="240" y="7"/><text fill="#000000" font-family="sans-serif" font-size="14" lengthAdjust="spacing" textLength="61" x="250" y="29.9951">Keycloak</text></g><!--entity Datafactory--><g id="elem_Datafactory"><rect fill="#F1F1F1" height="36.2969" rx="2.5" ry="2.5" style="stroke:#181818;stroke-width:0.5;" width="98" x="654.5" y="140.29"/><text fill="#000000" font-family="sans-serif" font-size="14" lengthAdjust="spacing" textLength="78" x="664.5" y="163.2851">Datafactory</text></g><!--link User to Gateway--><g id="link_User_Gateway"><path d="M230.88,164.15 C245.85,169.05 268.74,175.74 289.25,178.44 C317.07,182.1 348.16,177.56 372.87,171.89 " fill="none" id="User-to-Gateway" style="stroke:#181818;stroke-width:1.0;"/><polygon fill="#181818" points="377.68,170.51,367.9992,168.6982,372.8154,171.6655,369.8481,176.4817,377.68,170.51" style="stroke:#181818;stroke-width:1.0;"/><text fill="#000000" font-family="sans-serif" font-size="13" lengthAdjust="spacing" textLength="29" x="290.25" y="174.5069">auth</text></g><!--link User to Gateway--><g id="link_User_Gateway"><path d="M236.84,158.44 C269.43,158.44 330.73,158.44 373.05,158.44 " fill="none" id="User-Gateway" style="stroke:#181818;stroke-width:1.0;"/><polygon fill="#181818" points="231.85,158.44,240.85,162.44,236.85,158.44,240.85,154.44,231.85,158.44" style="stroke:#181818;stroke-width:1.0;"/><polygon fill="#181818" points="377.89,158.44,368.89,154.44,372.89,158.44,368.89,162.44,377.89,158.44" style="stroke:#181818;stroke-width:1.0;"/><text fill="#000000" font-family="sans-serif" font-size="13" lengthAdjust="spacing" textLength="112" x="248.75" y="151.5069">request/response</text></g><!--link Redash to User--><g id="link_Redash_User"><path d="M85.88,158.44 C119.59,158.44 165.42,158.44 192.29,158.44 " fill="none" id="Redash-User" style="stroke:#181818;stroke-width:1.0;"/><polygon fill="#181818" points="81.18,158.44,90.18,162.44,86.18,158.44,90.18,154.44,81.18,158.44" style="stroke:#181818;stroke-width:1.0;"/><polygon fill="#181818" points="197.05,158.44,188.05,154.44,192.05,158.44,188.05,162.44,197.05,158.44" style="stroke:#181818;stroke-width:1.0;"/><text fill="#000000" font-family="sans-serif" font-size="13" lengthAdjust="spacing" textLength="82" x="98.25" y="151.5069">data request</text></g><!--reverse link Keycloak to Redash--><g id="link_Keycloak_Redash"><path d="M233.9,34.92 C203.05,42.1 162.52,54.24 130.5,73.29 C100.7,91.02 73.17,120.85 57.37,139.82 " fill="none" id="Keycloak-backto-Redash" style="stroke:#181818;stroke-width:1.0;"/><polygon fill="#181818" points="238.54,33.64,228.88,31.7206,233.6628,34.7413,230.6421,39.5241,238.54,33.64" style="stroke:#181818;stroke-width:1.0;"/><text fill="#000000" font-family="sans-serif" font-size="13" lengthAdjust="spacing" textLength="70" x="131.5" y="86.3569">credentials</text></g><!--link Keycloak to Redash--><g id="link_Keycloak_Redash"><path d="M263.54,43.71 C249.31,57.71 227.92,77.09 206.5,90.29 C168.05,114 119.75,132.69 85.74,144.27 " fill="none" id="Keycloak-to-Redash" style="stroke:#181818;stroke-width:1.0;"/><polygon fill="#181818" points="81.41,146.07,91.2164,146.9833,86.1477,144.4717,88.6592,139.403,81.41,146.07" style="stroke:#181818;stroke-width:1.0;"/><text fill="#000000" font-family="sans-serif" font-size="13" lengthAdjust="spacing" textLength="29" x="228.5" y="86.3569">auth</text></g><!--link Redash to DB_User--><g id="link_Redash_DB_User"><path d="M55.29,182.17 C72.62,215.57 105.3,278.55 127.24,320.83 " fill="none" id="Redash-DB_User" style="stroke:#181818;stroke-width:1.0;"/><polygon fill="#181818" points="52.54,177.86,53.1383,187.6907,54.8445,182.2973,60.2379,184.0035,52.54,177.86" style="stroke:#181818;stroke-width:1.0;"/><polygon fill="#181818" points="129.99,325.14,129.4046,315.3086,127.6913,320.6997,122.3002,318.9864,129.99,325.14" style="stroke:#181818;stroke-width:1.0;"/><text fill="#000000" font-family="sans-serif" font-size="13" lengthAdjust="spacing" textLength="36" x="88.5" y="239.6569">query</text></g><!--link DB_User to Views--><g id="link_DB_User_Views"><path d="M183.88,364.74 C191.65,364.74 199.41,364.74 207.18,364.74 " fill="none" id="DB_User-Views" style="stroke:#181818;stroke-width:1.0;"/><polygon fill="#181818" points="179.14,364.74,188.14,368.74,184.14,364.74,188.14,360.74,179.14,364.74" style="stroke:#181818;stroke-width:1.0;"/><polygon fill="#181818" points="212.12,364.74,203.12,360.74,207.12,364.74,203.12,368.74,212.12,364.74" style="stroke:#181818;stroke-width:1.0;"/></g><!--reverse link Keycloak to Gateway--><g id="link_Keycloak_Gateway"><path d="M296.02,48.29 C305.55,61.18 318.41,77.39 331.5,90.29 C350.39,108.91 374.41,127.11 392.43,139.85 " fill="none" id="Keycloak-backto-Gateway" style="stroke:#181818;stroke-width:1.0;"/><polygon fill="#181818" points="292.66,44.7,294.7448,54.3257,295.6119,48.7356,301.2019,49.6027,292.66,44.7" style="stroke:#181818;stroke-width:1.0;"/><text fill="#000000" font-family="sans-serif" font-size="13" lengthAdjust="spacing" textLength="29" x="332.5" y="86.3569">auth</text></g><!--reverse link Gateway to Keycloak--><g id="link_Gateway_Keycloak"><path d="M409.74,134.61 C401.77,116.21 388.49,90.65 370.5,73.29 C356.54,59.82 337.96,49.22 321.3,41.51 " fill="none" id="Gateway-backto-Keycloak" style="stroke:#181818;stroke-width:1.0;"/><polygon fill="#181818" points="412.05,139.07,412.244,129.2231,410.1097,134.4618,404.8709,132.3275,412.05,139.07" style="stroke:#181818;stroke-width:1.0;"/><text fill="#000000" font-family="sans-serif" font-size="13" lengthAdjust="spacing" textLength="21" x="384.5" y="86.3569">JWT</text></g><!--link Gateway to Lowcode--><g id="link_Gateway_Lowcode"><path d="M464.37,158.44 C478.88,158.44 494.93,158.44 509.51,158.44 " fill="none" id="Gateway-Lowcode" style="stroke:#181818;stroke-width:1.0;"/><polygon fill="#181818" points="459.42,158.44,468.42,162.44,464.42,158.44,468.42,154.44,459.42,158.44" style="stroke:#181818;stroke-width:1.0;"/><polygon fill="#181818" points="514.24,158.44,505.24,154.44,509.24,158.44,505.24,162.44,514.24,158.44" style="stroke:#181818;stroke-width:1.0;"/><text fill="#000000" font-family="sans-serif" font-size="13" lengthAdjust="spacing" textLength="21" x="476.25" y="151.5069">JWT</text></g><!--link Lowcode to Datafactory--><g id="link_Lowcode_Datafactory"><path d="M603.68,158.44 C617.91,158.44 633.65,158.44 648.34,158.44 " fill="none" id="Lowcode-Datafactory" style="stroke:#181818;stroke-width:1.0;"/><polygon fill="#181818" points="598.84,158.44,607.84,162.44,603.84,158.44,607.84,154.44,598.84,158.44" style="stroke:#181818;stroke-width:1.0;"/><polygon fill="#181818" points="653.13,158.44,644.13,154.44,648.13,158.44,644.13,162.44,653.13,158.44" style="stroke:#181818;stroke-width:1.0;"/><text fill="#000000" font-family="sans-serif" font-size="13" lengthAdjust="spacing" textLength="20" x="616" y="151.5069">API</text></g><!--link Datafactory to Perm_Check--><g id="link_Datafactory_Perm_Check"><path d="M713.17,181.89 C729.35,219.46 761.88,294.96 779.5,335.87 " fill="none" id="Datafactory-Perm_Check" style="stroke:#181818;stroke-width:1.0;"/><polygon fill="#181818" points="711,177.86,710.8687,187.708,712.9696,182.4557,718.2219,184.5566,711,177.86" style="stroke:#181818;stroke-width:1.0;"/><polygon fill="#181818" points="781.78,340.16,781.9113,330.312,779.8104,335.5643,774.5581,333.4634,781.78,340.16" style="stroke:#181818;stroke-width:1.0;"/><text fill="#000000" font-family="sans-serif" font-size="13" lengthAdjust="spacing" textLength="31" x="740.5" y="239.6569">JDBC</text></g><!--link Perm_Check to Roles--><g id="link_Perm_Check_Roles"><path d="M781.88,393.78 C771.92,422.81 756.5,467.72 746.98,495.46 " fill="none" id="Perm_Check-Roles" style="stroke:#181818;stroke-width:1.0;"/><polygon fill="#181818" points="783.79,389.2,777.0968,396.425,782.1746,393.9319,784.6678,399.0097,783.79,389.2" style="stroke:#181818;stroke-width:1.0;"/><polygon fill="#181818" points="745.05,500.11,751.7627,492.9031,746.6782,495.3825,744.1988,490.298,745.05,500.11" style="stroke:#181818;stroke-width:1.0;"/><text fill="#000000" font-family="sans-serif" font-size="13" lengthAdjust="spacing" textLength="70" x="768.5" y="445.9569">permission</text><text fill="#000000" font-family="sans-serif" font-size="13" lengthAdjust="spacing" textLength="37" x="785" y="461.0897">check</text></g><!--link Datafactory to Tables_O--><g id="link_Datafactory_Tables_O"><path d="M654.97,179.25 C610,198.72 548.07,228.74 534.5,251.59 C500.17,309.41 513.06,339.15 534.5,402.89 C545.89,436.73 571.35,468.56 592.13,490.5 " fill="none" id="Datafactory-Tables_O" style="stroke:#181818;stroke-width:1.0;"/><polygon fill="#181818" points="659.36,176.93,649.5119,176.8098,654.7665,178.9048,652.6715,184.1594,659.36,176.93" style="stroke:#181818;stroke-width:1.0;"/><polygon fill="#181818" points="595.22,493.76,591.8522,484.5049,591.7493,490.1608,586.0934,490.0579,595.22,493.76" style="stroke:#181818;stroke-width:1.0;"/><text fill="#000000" font-family="sans-serif" font-size="13" lengthAdjust="spacing" textLength="36" x="535.5" y="369.3069">query</text></g><!--link Datafactory to Routine--><g id="link_Datafactory_Routine"><path d="M697.45,176.86 C684.83,213.17 655.68,297.05 641.11,338.97 " fill="none" id="Datafactory-to-Routine" style="stroke:#181818;stroke-width:1.0;"/><polygon fill="#181818" points="639.15,343.59,645.8627,336.3831,640.7782,338.8625,638.2988,333.778,639.15,343.59" style="stroke:#181818;stroke-width:1.0;"/><text fill="#000000" font-family="sans-serif" font-size="13" lengthAdjust="spacing" textLength="28" x="679.5" y="239.6569">DML</text></g><!--link Routine to Tables_O--><g id="link_Routine_Tables_O"><path d="M631.4,384.68 C629.89,410.61 627.15,457.51 625.33,488.75 " fill="none" id="Routine-to-Tables_O" style="stroke:#181818;stroke-width:1.0;"/><polygon fill="#181818" points="625,493.4,629.5333,484.6565,625.3003,488.409,621.5478,484.176,625,493.4" style="stroke:#181818;stroke-width:1.0;"/><text fill="#000000" font-family="sans-serif" font-size="13" lengthAdjust="spacing" textLength="28" x="629.5" y="453.4569">DML</text></g><!--link Tables_O to Tables_R--><g id="link_Tables_O_Tables_R"><path d="M590.16,529.2 C569.63,533.72 542.7,538.9 518.5,541.18 C488.41,544.02 480.59,544.02 450.5,541.18 C428.47,539.1 404.19,534.62 384.52,530.43 " fill="none" id="Tables_O-to-Tables_R" style="stroke:#181818;stroke-width:2.0;"/><polygon fill="#181818" points="379.84,529.2,387.7905,535.0129,384.7269,530.2574,389.4824,527.1938,379.84,529.2" style="stroke:#181818;stroke-width:2.0;"/><text fill="#000000" font-family="sans-serif" font-size="13" lengthAdjust="spacing" textLength="66" x="451.5" y="537.2469">replication</text></g><!--reverse link Views to Tables_R--><g id="link_Views_Tables_R"><path d="M258.1,387.84 C276.75,416.08 308.96,464.85 328.63,494.65 " fill="none" id="Views-backto-Tables_R" style="stroke:#181818;stroke-width:1.0;"/><polygon fill="#181818" points="255,384.15,256.6256,393.8638,257.757,388.3212,263.2996,389.4526,255,384.15" style="stroke:#181818;stroke-width:1.0;"/><text fill="#000000" font-family="sans-serif" font-size="13" lengthAdjust="spacing" textLength="29" x="307.5" y="453.4569">data</text></g><!--SRC=[bLDDYzim4BthLmpf8QUbTxDTI69Oscx94hRj9H0KUHABs98hoGHJ-jyx-h2ZU7kfyS4pypHltkZPNgJgkE4jj5ffKHlT8ZZJ8rlQgNJaud8skbVLHZVQm0SUdXpII8Lkw12qSRN-PwNJpU03nWmAnzMvGTXXnMtDLi9Hs-yMJLPxvWwlV61BfHr2WoS7-ZHc2x2LhKxqPYTUz5Ne2hFCLnn4e_bbrcHC5sc0PnBNsRtYpXbvx1qcl97dUdR0w0PjBg7aZf-u5p0VDVQ-vu0JRNXgHupMohEoq9DsS1eiYjv8Du3VTySgQdxa5c6nxT1m9xNY3PJhlTf8rzF42-0MmlTX-vi1FKAtdLQe72nUqRII2BI2JOtY4i0-UGXXW7FZf1yVTa6OJzrB3_a2k11eYR3bNQ9f6je1zRQmWB25lNhZHm87clXvsCv9UkSjy2TJjY99WvCY5vR9saLPqIABSXri4khb-X0iCn_dXyJhN4b1FcobivCEshMh4VmO_wDdHwCppmeFJpSlyjxLCVkOfmt-wj6wZmOjNOb55fqGG1vT1FeHDbOV-exgDyS9WnLTf-IDlJKWJ0O9_5EDJgVL542ToPSf3CHnEsd6TsIXqrXyp3c-_7pB2a_ZpnOBAGY5x8SeOFNwcMM9EDtDWdIwN6_OBH41oNFTvD-z4i6nxrgDDfkKPe3OAHYkWFBR2qi1t1_qbJ62JrDbv- -lQyYNtXHicNuoZqZ6l0UCnz9AmvhZ1Vy5]--></g></svg>