<?xml version="1.0" encoding="us-ascii" standalone="no"?><svg xmlns="http://www.w3.org/2000/svg" xmlns:xlink="http://www.w3.org/1999/xlink" contentStyleType="text/css" height="447px" preserveAspectRatio="none" style="width:931px;height:447px;background:#FFFFFF;" version="1.1" viewBox="0 0 931 447" width="931px" zoomAndPan="magnify"><defs/><g><rect fill="#FFFFFF" height="116.5313" style="stroke:#181818;stroke-width:1.0;" width="10" x="55.5" y="140.7266"/><rect fill="#FFFFFF" height="125.5313" style="stroke:#181818;stroke-width:1.0;" width="10" x="869.5" y="216.125"/><line style="stroke:#181818;stroke-width:0.5;stroke-dasharray:5.0,5.0;" x1="60" x2="60" y1="97.5938" y2="350.6563"/><line style="stroke:#181818;stroke-width:0.5;stroke-dasharray:5.0,5.0;" x1="467.5" x2="467.5" y1="97.5938" y2="350.6563"/><line style="stroke:#181818;stroke-width:0.5;stroke-dasharray:5.0,5.0;" x1="874" x2="874" y1="97.5938" y2="350.6563"/><text fill="#000000" font-family="sans-serif" font-size="14" lengthAdjust="spacing" textLength="105" x="5" y="77.9951">&#1040;&#1076;&#1084;&#1110;&#1085;&#1110;&#1089;&#1090;&#1088;&#1072;&#1090;&#1086;&#1088;</text><text fill="#000000" font-family="sans-serif" font-size="14" lengthAdjust="spacing" textLength="99" x="10" y="94.292">&#1088;&#1077;&#1075;&#1083;&#1072;&#1084;&#1077;&#1085;&#1090;&#1091; 1</text><ellipse cx="60.5" cy="13.5" fill="#E2E2F0" rx="8" ry="8" style="stroke:#181818;stroke-width:0.5;"/><path d="M60.5,21.5 L60.5,48.5 M47.5,29.5 L73.5,29.5 M60.5,48.5 L47.5,63.5 M60.5,48.5 L73.5,63.5 " fill="none" style="stroke:#181818;stroke-width:0.5;"/><text fill="#000000" font-family="sans-serif" font-size="14" lengthAdjust="spacing" textLength="105" x="5" y="362.6514">&#1040;&#1076;&#1084;&#1110;&#1085;&#1110;&#1089;&#1090;&#1088;&#1072;&#1090;&#1086;&#1088;</text><text fill="#000000" font-family="sans-serif" font-size="14" lengthAdjust="spacing" textLength="99" x="10" y="378.9482">&#1088;&#1077;&#1075;&#1083;&#1072;&#1084;&#1077;&#1085;&#1090;&#1091; 1</text><ellipse cx="60.5" cy="390.75" fill="#E2E2F0" rx="8" ry="8" style="stroke:#181818;stroke-width:0.5;"/><path d="M60.5,398.75 L60.5,425.75 M47.5,406.75 L73.5,406.75 M60.5,425.75 L47.5,440.75 M60.5,425.75 L73.5,440.75 " fill="none" style="stroke:#181818;stroke-width:0.5;"/><rect fill="#E2E2F0" height="30.2969" rx="2.5" ry="2.5" style="stroke:#181818;stroke-width:0.5;" width="202" x="366.5" y="66.2969"/><text fill="#000000" font-family="sans-serif" font-size="14" lengthAdjust="spacing" textLength="188" x="373.5" y="86.292">&#1040;&#1076;&#1084;&#1110;&#1085;&#1110;&#1089;&#1090;&#1088;&#1072;&#1090;&#1080;&#1074;&#1085;&#1080;&#1081; &#1087;&#1086;&#1088;&#1090;&#1072;&#1083;</text><rect fill="#E2E2F0" height="30.2969" rx="2.5" ry="2.5" style="stroke:#181818;stroke-width:0.5;" width="202" x="366.5" y="349.6563"/><text fill="#000000" font-family="sans-serif" font-size="14" lengthAdjust="spacing" textLength="188" x="373.5" y="369.6514">&#1040;&#1076;&#1084;&#1110;&#1085;&#1110;&#1089;&#1090;&#1088;&#1072;&#1090;&#1080;&#1074;&#1085;&#1080;&#1081; &#1087;&#1086;&#1088;&#1090;&#1072;&#1083;</text><text fill="#000000" font-family="sans-serif" font-size="14" lengthAdjust="spacing" textLength="105" x="819" y="77.9951">&#1040;&#1076;&#1084;&#1110;&#1085;&#1110;&#1089;&#1090;&#1088;&#1072;&#1090;&#1086;&#1088;</text><text fill="#000000" font-family="sans-serif" font-size="14" lengthAdjust="spacing" textLength="99" x="824" y="94.292">&#1088;&#1077;&#1075;&#1083;&#1072;&#1084;&#1077;&#1085;&#1090;&#1091; 2</text><ellipse cx="874.5" cy="13.5" fill="#E2E2F0" rx="8" ry="8" style="stroke:#181818;stroke-width:0.5;"/><path d="M874.5,21.5 L874.5,48.5 M861.5,29.5 L887.5,29.5 M874.5,48.5 L861.5,63.5 M874.5,48.5 L887.5,63.5 " fill="none" style="stroke:#181818;stroke-width:0.5;"/><text fill="#000000" font-family="sans-serif" font-size="14" lengthAdjust="spacing" textLength="105" x="819" y="362.6514">&#1040;&#1076;&#1084;&#1110;&#1085;&#1110;&#1089;&#1090;&#1088;&#1072;&#1090;&#1086;&#1088;</text><text fill="#000000" font-family="sans-serif" font-size="14" lengthAdjust="spacing" textLength="99" x="824" y="378.9482">&#1088;&#1077;&#1075;&#1083;&#1072;&#1084;&#1077;&#1085;&#1090;&#1091; 2</text><ellipse cx="874.5" cy="390.75" fill="#E2E2F0" rx="8" ry="8" style="stroke:#181818;stroke-width:0.5;"/><path d="M874.5,398.75 L874.5,425.75 M861.5,406.75 L887.5,406.75 M874.5,425.75 L861.5,440.75 M874.5,425.75 L887.5,440.75 " fill="none" style="stroke:#181818;stroke-width:0.5;"/><rect fill="#FFFFFF" height="116.5313" style="stroke:#181818;stroke-width:1.0;" width="10" x="55.5" y="140.7266"/><rect fill="#FFFFFF" height="125.5313" style="stroke:#181818;stroke-width:1.0;" width="10" x="869.5" y="216.125"/><polygon fill="#181818" points="455.5,124.7266,465.5,128.7266,455.5,132.7266,459.5,128.7266" style="stroke:#181818;stroke-width:1.0;"/><line style="stroke:#181818;stroke-width:1.0;" x1="60.5" x2="461.5" y1="128.7266" y2="128.7266"/><text fill="#000000" font-family="sans-serif" font-size="13" font-weight="bold" lengthAdjust="spacing" textLength="9" x="67.5" y="123.6606">1</text><text fill="#000000" font-family="sans-serif" font-size="13" lengthAdjust="spacing" textLength="241" x="80.5" y="123.6606">GET /versions/1/forms/form1 HTTP/1.1</text><polygon fill="#181818" points="76.5,136.7266,66.5,140.7266,76.5,144.7266,72.5,140.7266" style="stroke:#181818;stroke-width:1.0;"/><line style="stroke:#181818;stroke-width:1.0;" x1="70.5" x2="466.5" y1="140.7266" y2="140.7266"/><text fill="#000000" font-family="sans-serif" font-size="13" font-weight="bold" lengthAdjust="spacing" textLength="9" x="82.5" y="153.7935">2</text><text fill="#000000" font-family="sans-serif" font-size="13" lengthAdjust="spacing" textLength="208" x="95.5" y="153.7935">HTTP/1.1 200 OK; Etag: "abcde1"</text><polygon fill="#181818" points="478.5,165.8594,468.5,169.8594,478.5,173.8594,474.5,169.8594" style="stroke:#181818;stroke-width:1.0;"/><line style="stroke:#181818;stroke-width:1.0;" x1="472.5" x2="873.5" y1="169.8594" y2="169.8594"/><text fill="#000000" font-family="sans-serif" font-size="13" font-weight="bold" lengthAdjust="spacing" textLength="9" x="484.5" y="182.9263">3</text><text fill="#000000" font-family="sans-serif" font-size="13" lengthAdjust="spacing" textLength="241" x="497.5" y="182.9263">GET /versions/1/forms/form1 HTTP/1.1</text><polygon fill="#181818" points="857.5,212.125,867.5,216.125,857.5,220.125,861.5,216.125" style="stroke:#181818;stroke-width:1.0;"/><line style="stroke:#181818;stroke-width:1.0;" x1="467.5" x2="863.5" y1="216.125" y2="216.125"/><text fill="#000000" font-family="sans-serif" font-size="13" font-weight="bold" lengthAdjust="spacing" textLength="9" x="474.5" y="211.0591">4</text><text fill="#000000" font-family="sans-serif" font-size="13" lengthAdjust="spacing" textLength="208" x="487.5" y="211.0591">HTTP/1.1 200 OK; Etag: "abcde1"</text><polygon fill="#181818" points="455.5,241.2578,465.5,245.2578,455.5,249.2578,459.5,245.2578" style="stroke:#181818;stroke-width:1.0;"/><line style="stroke:#181818;stroke-width:1.0;" x1="65.5" x2="461.5" y1="245.2578" y2="245.2578"/><text fill="#000000" font-family="sans-serif" font-size="13" font-weight="bold" lengthAdjust="spacing" textLength="9" x="72.5" y="240.1919">5</text><text fill="#000000" font-family="sans-serif" font-size="13" lengthAdjust="spacing" textLength="365" x="85.5" y="240.1919">PUT /versions/1/forms/form1 HTTP/1.1; If-Match: "abcde1"</text><polygon fill="#181818" points="71.5,253.2578,61.5,257.2578,71.5,261.2578,67.5,257.2578" style="stroke:#181818;stroke-width:1.0;"/><line style="stroke:#181818;stroke-width:1.0;" x1="65.5" x2="466.5" y1="257.2578" y2="257.2578"/><text fill="#000000" font-family="sans-serif" font-size="13" font-weight="bold" lengthAdjust="spacing" textLength="9" x="77.5" y="270.3247">6</text><text fill="#000000" font-family="sans-serif" font-size="13" lengthAdjust="spacing" textLength="208" x="90.5" y="270.3247">HTTP/1.1 200 OK; Etag: "abcde2"</text><polygon fill="#181818" points="478.5,282.3906,468.5,286.3906,478.5,290.3906,474.5,286.3906" style="stroke:#181818;stroke-width:1.0;"/><line style="stroke:#181818;stroke-width:1.0;" x1="472.5" x2="868.5" y1="286.3906" y2="286.3906"/><text fill="#000000" font-family="sans-serif" font-size="13" font-weight="bold" lengthAdjust="spacing" textLength="9" x="484.5" y="299.4575">7</text><text fill="#000000" font-family="sans-serif" font-size="13" lengthAdjust="spacing" textLength="365" x="497.5" y="299.4575">PUT /versions/1/forms/form1 HTTP/1.1; If-Match: "abcde1"</text><polygon fill="#181818" points="857.5,328.6563,867.5,332.6563,857.5,336.6563,861.5,332.6563" style="stroke:#181818;stroke-width:1.0;"/><line style="stroke:#181818;stroke-width:1.0;" x1="467.5" x2="863.5" y1="332.6563" y2="332.6563"/><text fill="#000000" font-family="sans-serif" font-size="13" font-weight="bold" lengthAdjust="spacing" textLength="9" x="474.5" y="327.5903">8</text><text fill="#000000" font-family="sans-serif" font-size="13" lengthAdjust="spacing" textLength="212" x="487.5" y="327.5903">HTTP/1.1 412 Precondition Failed;</text><!--SRC=[hP3BJW8n58RtynGdin-7Dgw0aAZ1ImoHHDovAJC7R8IMj0MsY2_WYkSWNX8DeA_Glf6539T4Z0RTD6rFplT_vx2kaQBRhgCAz2qN7QPO6nJgZXGQAwWrQ-8XjcJ_G2dP1wEw60GiCL91Q1_iivswaPsvaRjpGpUmOpUqxsvmBS0_NkoJdTYndVhRp9VlWOJ0D1orE0f30XzcUC8xJ9XlOQ_sqSxy-GRsOqxsNsCxMM0kKVLuWhlRq0qR6WIP5aIb9JeF9-KQn3rKcljzn2HkIDNMYvF0QQrMZSaUMJKMetNZiWWqbuEBymAK3Mlc8MJr94KIpgLvZnbSBIFJs3MT_YLzFNnKMZ6gLp-75-2i4LMOIMusu1cg6FrEXuP1Yb_MiHph_uJeDg5zGg6gC94YvSPpuPZn5gQ5BKgV]--></g></svg>