<?xml version="1.0" encoding="us-ascii" standalone="no"?><svg xmlns="http://www.w3.org/2000/svg" xmlns:xlink="http://www.w3.org/1999/xlink" contentStyleType="text/css" height="476px" preserveAspectRatio="none" style="width:847px;height:476px;background:#FFFFFF;" version="1.1" viewBox="0 0 847 476" width="847px" zoomAndPan="magnify"><defs/><g><rect fill="#FFFFFF" height="237.0625" style="stroke:#2688D4;stroke-width:1.0;" width="10" x="48" y="107.5938"/><rect fill="#FFFFFF" height="120.5313" style="stroke:#2688D4;stroke-width:1.0;" width="10" x="187" y="107.5938"/><rect fill="#FFFFFF" height="70.2656" style="stroke:#2688D4;stroke-width:1.0;" width="10" x="444" y="128.7266"/><rect fill="#FFFFFF" height="41.1328" style="stroke:#2688D4;stroke-width:1.0;" width="10" x="609" y="157.8594"/><rect fill="#FFFFFF" height="96.3984" style="stroke:#2688D4;stroke-width:1.0;" width="10" x="609" y="274.3906"/><rect fill="#FFFFFF" height="142.6641" style="stroke:#2688D4;stroke-width:1.0;" width="10" x="774" y="228.125"/><line style="stroke:#2688D4;stroke-width:0.5;stroke-dasharray:5.0,5.0;" x1="53" x2="53" y1="97.5938" y2="379.7891"/><line style="stroke:#2688D4;stroke-width:0.5;stroke-dasharray:5.0,5.0;" x1="192" x2="192" y1="97.5938" y2="379.7891"/><line style="stroke:#2688D4;stroke-width:0.5;stroke-dasharray:5.0,5.0;" x1="448.5" x2="448.5" y1="97.5938" y2="379.7891"/><line style="stroke:#2688D4;stroke-width:0.5;stroke-dasharray:5.0,5.0;" x1="614" x2="614" y1="97.5938" y2="379.7891"/><line style="stroke:#2688D4;stroke-width:0.5;stroke-dasharray:5.0,5.0;" x1="779" x2="779" y1="97.5938" y2="379.7891"/><text fill="#000000" font-family="sans-serif" font-size="14" lengthAdjust="spacing" textLength="79" x="10.5" y="77.9951">&#1056;&#1086;&#1079;&#1088;&#1086;&#1073;&#1085;&#1080;&#1082;</text><text fill="#000000" font-family="sans-serif" font-size="14" lengthAdjust="spacing" textLength="86" x="9" y="94.292">&#1088;&#1077;&#1075;&#1083;&#1072;&#1084;&#1077;&#1085;&#1090;&#1091;</text><ellipse cx="53" cy="13.5" fill="#FFFFFF" rx="8" ry="8" style="stroke:#2688D4;stroke-width:0.5;"/><path d="M53,21.5 L53,48.5 M40,29.5 L66,29.5 M53,48.5 L40,63.5 M53,48.5 L66,63.5 " fill="none" style="stroke:#2688D4;stroke-width:0.5;"/><text fill="#000000" font-family="sans-serif" font-size="14" lengthAdjust="spacing" textLength="79" x="10.5" y="391.7842">&#1056;&#1086;&#1079;&#1088;&#1086;&#1073;&#1085;&#1080;&#1082;</text><text fill="#000000" font-family="sans-serif" font-size="14" lengthAdjust="spacing" textLength="86" x="9" y="408.0811">&#1088;&#1077;&#1075;&#1083;&#1072;&#1084;&#1077;&#1085;&#1090;&#1091;</text><ellipse cx="53" cy="419.8828" fill="#FFFFFF" rx="8" ry="8" style="stroke:#2688D4;stroke-width:0.5;"/><path d="M53,427.8828 L53,454.8828 M40,435.8828 L66,435.8828 M53,454.8828 L40,469.8828 M53,454.8828 L66,469.8828 " fill="none" style="stroke:#2688D4;stroke-width:0.5;"/><rect fill="#FFFFFF" height="30.2969" rx="2.5" ry="2.5" style="stroke:#2688D4;stroke-width:0.5;" width="112" x="136" y="66.2969"/><text fill="#000000" font-family="sans-serif" font-size="14" lengthAdjust="spacing" textLength="98" x="143" y="86.292">Registry Gerrit</text><rect fill="#FFFFFF" height="30.2969" rx="2.5" ry="2.5" style="stroke:#2688D4;stroke-width:0.5;" width="112" x="136" y="378.7891"/><text fill="#000000" font-family="sans-serif" font-size="14" lengthAdjust="spacing" textLength="98" x="143" y="398.7842">Registry Gerrit</text><rect fill="#FFFFFF" height="30.2969" rx="2.5" ry="2.5" style="stroke:#2688D4;stroke-width:0.5;" width="123" x="387.5" y="66.2969"/><text fill="#000000" font-family="sans-serif" font-size="14" lengthAdjust="spacing" textLength="109" x="394.5" y="86.292">Registry Jenkins</text><rect fill="#FFFFFF" height="30.2969" rx="2.5" ry="2.5" style="stroke:#2688D4;stroke-width:0.5;" width="123" x="387.5" y="378.7891"/><text fill="#000000" font-family="sans-serif" font-size="14" lengthAdjust="spacing" textLength="109" x="394.5" y="398.7842">Registry Jenkins</text><rect fill="#FFFFFF" height="30.2969" rx="2.5" ry="2.5" style="stroke:#2688D4;stroke-width:0.5;" width="142" x="543" y="66.2969"/><text fill="#000000" font-family="sans-serif" font-size="14" lengthAdjust="spacing" textLength="128" x="550" y="86.292">Registry Wiremock</text><rect fill="#FFFFFF" height="30.2969" rx="2.5" ry="2.5" style="stroke:#2688D4;stroke-width:0.5;" width="142" x="543" y="378.7891"/><text fill="#000000" font-family="sans-serif" font-size="14" lengthAdjust="spacing" textLength="128" x="550" y="398.7842">Registry Wiremock</text><rect fill="#FFFFFF" height="30.2969" rx="2.5" ry="2.5" style="stroke:#2688D4;stroke-width:0.5;" width="124" x="717" y="66.2969"/><text fill="#000000" font-family="sans-serif" font-size="14" lengthAdjust="spacing" textLength="110" x="724" y="86.292">Registry Service</text><rect fill="#FFFFFF" height="30.2969" rx="2.5" ry="2.5" style="stroke:#2688D4;stroke-width:0.5;" width="124" x="717" y="378.7891"/><text fill="#000000" font-family="sans-serif" font-size="14" lengthAdjust="spacing" textLength="110" x="724" y="398.7842">Registry Service</text><rect fill="#FFFFFF" height="237.0625" style="stroke:#2688D4;stroke-width:1.0;" width="10" x="48" y="107.5938"/><rect fill="#FFFFFF" height="120.5313" style="stroke:#2688D4;stroke-width:1.0;" width="10" x="187" y="107.5938"/><rect fill="#FFFFFF" height="70.2656" style="stroke:#2688D4;stroke-width:1.0;" width="10" x="444" y="128.7266"/><rect fill="#FFFFFF" height="41.1328" style="stroke:#2688D4;stroke-width:1.0;" width="10" x="609" y="157.8594"/><rect fill="#FFFFFF" height="96.3984" style="stroke:#2688D4;stroke-width:1.0;" width="10" x="609" y="274.3906"/><rect fill="#FFFFFF" height="142.6641" style="stroke:#2688D4;stroke-width:1.0;" width="10" x="774" y="228.125"/><polygon fill="#2688D4" points="175,124.7266,185,128.7266,175,132.7266,179,128.7266" style="stroke:#2688D4;stroke-width:1.0;"/><line style="stroke:#2688D4;stroke-width:1.0;" x1="58" x2="181" y1="128.7266" y2="128.7266"/><text fill="#000000" font-family="sans-serif" font-size="13" lengthAdjust="spacing" textLength="105" x="65" y="123.6606">Add a new mock</text><polygon fill="#2688D4" points="432,153.8594,442,157.8594,432,161.8594,436,157.8594" style="stroke:#2688D4;stroke-width:1.0;"/><line style="stroke:#2688D4;stroke-width:1.0;" x1="197" x2="438" y1="157.8594" y2="157.8594"/><text fill="#000000" font-family="sans-serif" font-size="13" lengthAdjust="spacing" textLength="223" x="204" y="152.7935">Start new registry-regulations build</text><polygon fill="#2688D4" points="597,182.9922,607,186.9922,597,190.9922,601,186.9922" style="stroke:#2688D4;stroke-width:1.0;"/><line style="stroke:#2688D4;stroke-width:1.0;" x1="454" x2="603" y1="186.9922" y2="186.9922"/><text fill="#000000" font-family="sans-serif" font-size="13" lengthAdjust="spacing" textLength="131" x="461" y="181.9263">Import new mapping</text><polygon fill="#2688D4" points="460,194.9922,450,198.9922,460,202.9922,456,198.9922" style="stroke:#2688D4;stroke-width:1.0;"/><line style="stroke:#2688D4;stroke-width:1.0;stroke-dasharray:2.0,2.0;" x1="454" x2="613" y1="198.9922" y2="198.9922"/><text fill="#000000" font-family="sans-serif" font-size="13" lengthAdjust="spacing" textLength="98" x="466" y="212.0591">Mapping added</text><polygon fill="#2688D4" points="203,224.125,193,228.125,203,232.125,199,228.125" style="stroke:#2688D4;stroke-width:1.0;"/><line style="stroke:#2688D4;stroke-width:1.0;stroke-dasharray:2.0,2.0;" x1="197" x2="448" y1="228.125" y2="228.125"/><text fill="#000000" font-family="sans-serif" font-size="13" lengthAdjust="spacing" textLength="101" x="209" y="241.1919">Build successful</text><polygon fill="#2688D4" points="762,270.3906,772,274.3906,762,278.3906,766,274.3906" style="stroke:#2688D4;stroke-width:1.0;"/><line style="stroke:#2688D4;stroke-width:1.0;" x1="58" x2="768" y1="274.3906" y2="274.3906"/><text fill="#000000" font-family="sans-serif" font-size="13" lengthAdjust="spacing" textLength="135" x="65" y="269.3247">Act business process</text><polygon fill="#2688D4" points="630,282.3906,620,286.3906,630,290.3906,626,286.3906" style="stroke:#2688D4;stroke-width:1.0;"/><line style="stroke:#2688D4;stroke-width:1.0;" x1="624" x2="773" y1="286.3906" y2="286.3906"/><text fill="#000000" font-family="sans-serif" font-size="13" lengthAdjust="spacing" textLength="131" x="636" y="299.4575">Request mocked API</text><polygon fill="#2688D4" points="762,328.6563,772,332.6563,762,336.6563,766,332.6563" style="stroke:#2688D4;stroke-width:1.0;"/><line style="stroke:#2688D4;stroke-width:1.0;stroke-dasharray:2.0,2.0;" x1="619" x2="768" y1="332.6563" y2="332.6563"/><text fill="#000000" font-family="sans-serif" font-size="13" lengthAdjust="spacing" textLength="102" x="626" y="327.5903">Return mapping</text><polygon fill="#2688D4" points="64,340.6563,54,344.6563,64,348.6563,60,344.6563" style="stroke:#2688D4;stroke-width:1.0;"/><line style="stroke:#2688D4;stroke-width:1.0;stroke-dasharray:2.0,2.0;" x1="58" x2="773" y1="344.6563" y2="344.6563"/><text fill="#000000" font-family="sans-serif" font-size="13" lengthAdjust="spacing" textLength="183" x="70" y="357.7231">Business process completed</text><!--SRC=[ZPJVRjCm5CRlynH7vRet2A6fGaXjGMXeGwExu8ORBpxjh2Psy9-52I4XU14U0OJG432UmNqZRCTnqv6qzAAoZt_do_UTrb5hnYiYIGdgab1HCxw29IaKPYgTF26QN125CvAlLr8OJkUY41BgIwPxEI4foeQvT__XqH5zqA5U6ZG7fHfehyuBeG_A16QlobEkcRu-f1EflKfpmRKKnI6f5jkhDSsraFrA7KhX6uCyHtYNWVjCfHJrhc8e1wsUn_d34xR44yPnwFoCICroLX6k_mVfTUoXcNWxrE-FUllUTxDAL9NW2azHARB26HQY3e51I-EcGdnA6DdFze-zsNnmtr_jhVrXVxxcuBRVxJVxotwnlztgTlDnysa4HC6yOCXrbbNR231Qu8efBQ_X6Kh9T02RvG3t7BcpgG8OrmFaAoQn5FaweErcW3r7USLo36XSPrd8oQw8nkGz5QB7fWxZnx4mWIcbG81Z3U5ngQ7rsd2-8rOcSAwTfz0Yev-nMvY2QEP-1BWmhA1RePGazdkfjZQ1ux8IKQmaLULUC8bxD1vtmDFc50YbI3EA_-ftQdVCUwNaVkRjWJ9vxluiIrDq- -AKqhuTxNPiiJBn5ySbLUvsA0ML55wj9tJaTqCl_DLKEamSAKpFZXEt6tg1saYU9XDjU2RvcDtn0BaegmAr6r8tMTFw5m00]--></g></svg>