<?xml version="1.0" encoding="us-ascii" standalone="no"?><svg xmlns="http://www.w3.org/2000/svg" xmlns:xlink="http://www.w3.org/1999/xlink" contentStyleType="text/css" height="1021px" preserveAspectRatio="none" style="width:1307px;height:1021px;background:#FFFFFF;" version="1.1" viewBox="0 0 1307 1021" width="1307px" zoomAndPan="magnify"><defs/><g><text fill="#000000" font-family="sans-serif" font-size="14" font-weight="bold" lengthAdjust="spacing" textLength="378" x="460.75" y="27.9951">&#1057;&#1094;&#1077;&#1085;&#1072;&#1088;&#1110;&#1111; &#1082;&#1086;&#1088;&#1080;&#1089;&#1090;&#1091;&#1074;&#1072;&#1095;&#1072; &#1079; inbox &#1087;&#1086;&#1074;&#1110;&#1076;&#1086;&#1084;&#1083;&#1077;&#1085;&#1085;&#1103;&#1084;&#1080;</text><rect fill="#FFFFFF" height="262.3281" style="stroke:#2688D4;stroke-width:1.0;" width="10" x="355.5" y="207.9922"/><rect fill="#FFFFFF" height="291.4609" style="stroke:#2688D4;stroke-width:1.0;" width="10" x="355.5" y="586.8516"/><rect fill="#FFFFFF" height="188.9297" style="stroke:#2688D4;stroke-width:1.0;" width="10" x="554.5" y="267.3906"/><rect fill="#FFFFFF" height="188.9297" style="stroke:#2688D4;stroke-width:1.0;" width="10" x="554.5" y="675.3828"/><rect fill="#FFFFFF" height="73.3984" style="stroke:#2688D4;stroke-width:1.0;" width="10" x="943.5" y="368.9219"/><rect fill="#FFFFFF" height="73.3984" style="stroke:#2688D4;stroke-width:1.0;" width="10" x="943.5" y="776.9141"/><line style="stroke:#2688D4;stroke-width:0.5;stroke-dasharray:5.0,5.0;" x1="50" x2="50" y1="118.5938" y2="940.5781"/><line style="stroke:#2688D4;stroke-width:0.5;stroke-dasharray:5.0,5.0;" x1="360" x2="360" y1="118.5938" y2="940.5781"/><line style="stroke:#2688D4;stroke-width:0.5;stroke-dasharray:5.0,5.0;" x1="559.5" x2="559.5" y1="118.5938" y2="940.5781"/><line style="stroke:#2688D4;stroke-width:0.5;stroke-dasharray:5.0,5.0;" x1="948.5" x2="948.5" y1="118.5938" y2="940.5781"/><line style="stroke:#2688D4;stroke-width:0.5;stroke-dasharray:5.0,5.0;" x1="1190.5" x2="1190.5" y1="118.5938" y2="940.5781"/><text fill="#000000" font-family="sans-serif" font-size="14" lengthAdjust="spacing" textLength="85" x="5" y="115.292">&#1050;&#1086;&#1088;&#1080;&#1089;&#1090;&#1091;&#1074;&#1072;&#1095;</text><ellipse cx="50.5" cy="50.7969" fill="#E2E2F0" rx="8" ry="8" style="stroke:#2688D4;stroke-width:0.5;"/><path d="M50.5,58.7969 L50.5,85.7969 M37.5,66.7969 L63.5,66.7969 M50.5,85.7969 L37.5,100.7969 M50.5,85.7969 L63.5,100.7969 " fill="none" style="stroke:#2688D4;stroke-width:0.5;"/><text fill="#000000" font-family="sans-serif" font-size="14" lengthAdjust="spacing" textLength="85" x="5" y="952.5732">&#1050;&#1086;&#1088;&#1080;&#1089;&#1090;&#1091;&#1074;&#1072;&#1095;</text><ellipse cx="50.5" cy="964.375" fill="#E2E2F0" rx="8" ry="8" style="stroke:#2688D4;stroke-width:0.5;"/><path d="M50.5,972.375 L50.5,999.375 M37.5,980.375 L63.5,980.375 M50.5,999.375 L37.5,1014.375 M50.5,999.375 L63.5,1014.375 " fill="none" style="stroke:#2688D4;stroke-width:0.5;"/><rect fill="#FFFFFF" height="46.5938" rx="2.5" ry="2.5" style="stroke:#2688D4;stroke-width:0.5;" width="175" x="273" y="71"/><text fill="#000000" font-family="sans-serif" font-size="14" lengthAdjust="spacing" textLength="157" x="282" y="90.9951">&#1050;&#1083;&#1110;&#1108;&#1085;&#1090;&#1089;&#1100;&#1082;&#1080;&#1081; &#1076;&#1086;&#1076;&#1072;&#1090;&#1086;&#1082;</text><text fill="#000000" font-family="sans-serif" font-size="14" lengthAdjust="spacing" textLength="157" x="284" y="107.292">&#1082;&#1072;&#1073;&#1110;&#1085;&#1077;&#1090;&#1091; &#1082;&#1086;&#1088;&#1080;&#1089;&#1090;&#1091;&#1074;&#1072;&#1095;&#1072;</text><rect fill="#FFFFFF" height="46.5938" rx="2.5" ry="2.5" style="stroke:#2688D4;stroke-width:0.5;" width="175" x="273" y="939.5781"/><text fill="#000000" font-family="sans-serif" font-size="14" lengthAdjust="spacing" textLength="157" x="282" y="959.5732">&#1050;&#1083;&#1110;&#1108;&#1085;&#1090;&#1089;&#1100;&#1082;&#1080;&#1081; &#1076;&#1086;&#1076;&#1072;&#1090;&#1086;&#1082;</text><text fill="#000000" font-family="sans-serif" font-size="14" lengthAdjust="spacing" textLength="157" x="284" y="975.8701">&#1082;&#1072;&#1073;&#1110;&#1085;&#1077;&#1090;&#1091; &#1082;&#1086;&#1088;&#1080;&#1089;&#1090;&#1091;&#1074;&#1072;&#1095;&#1072;</text><rect fill="#FFFFFF" height="46.5938" rx="2.5" ry="2.5" style="stroke:#2688D4;stroke-width:0.5;" width="130" x="494.5" y="71"/><text fill="#000000" font-family="sans-serif" font-size="14" lengthAdjust="spacing" textLength="36" x="539.5" y="90.9951">Kong</text><text fill="#000000" font-family="sans-serif" font-size="14" lengthAdjust="spacing" textLength="116" x="501.5" y="107.292">API Management</text><rect fill="#FFFFFF" height="46.5938" rx="2.5" ry="2.5" style="stroke:#2688D4;stroke-width:0.5;" width="130" x="494.5" y="939.5781"/><text fill="#000000" font-family="sans-serif" font-size="14" lengthAdjust="spacing" textLength="36" x="539.5" y="959.5732">Kong</text><text fill="#000000" font-family="sans-serif" font-size="14" lengthAdjust="spacing" textLength="116" x="501.5" y="975.8701">API Management</text><rect fill="#FFFFFF" height="46.5938" rx="2.5" ry="2.5" style="stroke:#2688D4;stroke-width:0.5;" width="188" x="854.5" y="71"/><text fill="#000000" font-family="sans-serif" font-size="14" lengthAdjust="spacing" textLength="136" x="878.5" y="90.9951">&#1057;&#1077;&#1088;&#1074;&#1110;&#1089; &#1076;&#1083;&#1103; &#1088;&#1086;&#1073;&#1086;&#1090;&#1080;</text><text fill="#000000" font-family="sans-serif" font-size="14" lengthAdjust="spacing" textLength="174" x="861.5" y="107.292">&#1079; inbox &#1087;&#1086;&#1074;&#1110;&#1076;&#1086;&#1084;&#1083;&#1077;&#1085;&#1085;&#1103;&#1084;&#1080;</text><rect fill="#FFFFFF" height="46.5938" rx="2.5" ry="2.5" style="stroke:#2688D4;stroke-width:0.5;" width="188" x="854.5" y="939.5781"/><text fill="#000000" font-family="sans-serif" font-size="14" lengthAdjust="spacing" textLength="136" x="878.5" y="959.5732">&#1057;&#1077;&#1088;&#1074;&#1110;&#1089; &#1076;&#1083;&#1103; &#1088;&#1086;&#1073;&#1086;&#1090;&#1080;</text><text fill="#000000" font-family="sans-serif" font-size="14" lengthAdjust="spacing" textLength="174" x="861.5" y="975.8701">&#1079; inbox &#1087;&#1086;&#1074;&#1110;&#1076;&#1086;&#1084;&#1083;&#1077;&#1085;&#1085;&#1103;&#1084;&#1080;</text><text fill="#000000" font-family="sans-serif" font-size="14" lengthAdjust="spacing" textLength="204" x="1085.5" y="115.292">&#1057;&#1093;&#1086;&#1074;&#1080;&#1097;&#1077; inbox &#1087;&#1086;&#1074;&#1110;&#1076;&#1086;&#1084;&#1083;&#1077;&#1085;&#1100;</text><path d="M1172.5,66.2969 C1172.5,56.2969 1190.5,56.2969 1190.5,56.2969 C1190.5,56.2969 1208.5,56.2969 1208.5,66.2969 L1208.5,92.2969 C1208.5,102.2969 1190.5,102.2969 1190.5,102.2969 C1190.5,102.2969 1172.5,102.2969 1172.5,92.2969 L1172.5,66.2969 " fill="#FFFFFF" style="stroke:#2688D4;stroke-width:1.5;"/><path d="M1172.5,66.2969 C1172.5,76.2969 1190.5,76.2969 1190.5,76.2969 C1190.5,76.2969 1208.5,76.2969 1208.5,66.2969 " fill="none" style="stroke:#2688D4;stroke-width:1.5;"/><text fill="#000000" font-family="sans-serif" font-size="14" lengthAdjust="spacing" textLength="204" x="1085.5" y="952.5732">&#1057;&#1093;&#1086;&#1074;&#1080;&#1097;&#1077; inbox &#1087;&#1086;&#1074;&#1110;&#1076;&#1086;&#1084;&#1083;&#1077;&#1085;&#1100;</text><path d="M1172.5,965.875 C1172.5,955.875 1190.5,955.875 1190.5,955.875 C1190.5,955.875 1208.5,955.875 1208.5,965.875 L1208.5,991.875 C1208.5,1001.875 1190.5,1001.875 1190.5,1001.875 C1190.5,1001.875 1172.5,1001.875 1172.5,991.875 L1172.5,965.875 " fill="#FFFFFF" style="stroke:#2688D4;stroke-width:1.5;"/><path d="M1172.5,965.875 C1172.5,975.875 1190.5,975.875 1190.5,975.875 C1190.5,975.875 1208.5,975.875 1208.5,965.875 " fill="none" style="stroke:#2688D4;stroke-width:1.5;"/><rect fill="#FFFFFF" height="262.3281" style="stroke:#2688D4;stroke-width:1.0;" width="10" x="355.5" y="207.9922"/><rect fill="#FFFFFF" height="291.4609" style="stroke:#2688D4;stroke-width:1.0;" width="10" x="355.5" y="586.8516"/><rect fill="#FFFFFF" height="188.9297" style="stroke:#2688D4;stroke-width:1.0;" width="10" x="554.5" y="267.3906"/><rect fill="#FFFFFF" height="188.9297" style="stroke:#2688D4;stroke-width:1.0;" width="10" x="554.5" y="675.3828"/><rect fill="#FFFFFF" height="73.3984" style="stroke:#2688D4;stroke-width:1.0;" width="10" x="943.5" y="368.9219"/><rect fill="#FFFFFF" height="73.3984" style="stroke:#2688D4;stroke-width:1.0;" width="10" x="943.5" y="776.9141"/><rect fill="#EEEEEE" height="3" style="stroke:#EEEEEE;stroke-width:1.0;" width="1300.5" x="0" y="149.1602"/><line style="stroke:#000000;stroke-width:1.0;" x1="0" x2="1300.5" y1="149.1602" y2="149.1602"/><line style="stroke:#000000;stroke-width:1.0;" x1="0" x2="1300.5" y1="152.1602" y2="152.1602"/><rect fill="#EEEEEE" height="23.1328" style="stroke:#000000;stroke-width:2.0;" width="317" x="491.75" y="138.5938"/><text fill="#000000" font-family="sans-serif" font-size="13" font-weight="bold" lengthAdjust="spacing" textLength="298" x="497.75" y="154.6606">&#1054;&#1090;&#1088;&#1080;&#1084;&#1072;&#1085;&#1085;&#1103; &#1082;&#1086;&#1088;&#1080;&#1089;&#1090;&#1091;&#1074;&#1072;&#1095;&#1077;&#1084; &#1087;&#1086;&#1074;&#1110;&#1076;&#1086;&#1084;&#1083;&#1077;&#1085;&#1100;</text><polygon fill="#2688D4" points="343.5,203.9922,353.5,207.9922,343.5,211.9922,347.5,207.9922" style="stroke:#2688D4;stroke-width:1.0;"/><line style="stroke:#2688D4;stroke-width:1.0;" x1="50.5" x2="349.5" y1="207.9922" y2="207.9922"/><text fill="#000000" font-family="sans-serif" font-size="13" lengthAdjust="spacing" textLength="134" x="57.5" y="187.7935">&#1055;&#1077;&#1088;&#1077;&#1093;&#1110;&#1076; &#1085;&#1072; &#1074;&#1082;&#1083;&#1072;&#1076;&#1082;&#1091;</text><text fill="#000000" font-family="sans-serif" font-size="13" lengthAdjust="spacing" textLength="101" x="57.5" y="202.9263">'&#1055;&#1086;&#1074;&#1110;&#1076;&#1086;&#1084;&#1083;&#1077;&#1085;&#1085;&#1103;'</text><polygon fill="#2688D4" points="542.5,263.3906,552.5,267.3906,542.5,271.3906,546.5,267.3906" style="stroke:#2688D4;stroke-width:1.0;"/><line style="stroke:#2688D4;stroke-width:1.0;" x1="365.5" x2="548.5" y1="267.3906" y2="267.3906"/><text fill="#000000" font-family="sans-serif" font-size="13" lengthAdjust="spacing" textLength="87" x="372.5" y="232.0591">&#1047;&#1072;&#1087;&#1080;&#1090; &#1076;&#1072;&#1085;&#1080;&#1093;</text><text fill="#000000" font-family="sans-serif" font-size="13" lengthAdjust="spacing" textLength="79" x="372.5" y="247.1919">&#1055;&#1072;&#1088;&#1072;&#1084;&#1077;&#1090;&#1088;&#1080;:</text><text fill="#000000" font-family="sans-serif" font-size="13" lengthAdjust="spacing" textLength="170" x="372.5" y="262.3247">&#1030;&#1076;&#1077;&#1085;&#1090;&#1080;&#1092;&#1110;&#1082;&#1072;&#1090;&#1086;&#1088; &#1089;&#1077;&#1089;&#1110;&#1111; Kong</text><line style="stroke:#2688D4;stroke-width:1.0;" x1="564.5" x2="606.5" y1="296.5234" y2="296.5234"/><line style="stroke:#2688D4;stroke-width:1.0;" x1="606.5" x2="606.5" y1="296.5234" y2="309.5234"/><line style="stroke:#2688D4;stroke-width:1.0;" x1="565.5" x2="606.5" y1="309.5234" y2="309.5234"/><polygon fill="#2688D4" points="575.5,305.5234,565.5,309.5234,575.5,313.5234,571.5,309.5234" style="stroke:#2688D4;stroke-width:1.0;"/><text fill="#000000" font-family="sans-serif" font-size="13" lengthAdjust="spacing" textLength="101" x="571.5" y="291.4575">&#1055;&#1077;&#1088;&#1077;&#1074;&#1110;&#1088;&#1082;&#1072; &#1089;&#1077;&#1089;&#1110;&#1111;</text><polygon fill="#2688D4" points="931.5,364.9219,941.5,368.9219,931.5,372.9219,935.5,368.9219" style="stroke:#2688D4;stroke-width:1.0;"/><line style="stroke:#2688D4;stroke-width:1.0;" x1="564.5" x2="937.5" y1="368.9219" y2="368.9219"/><text fill="#000000" font-family="sans-serif" font-size="13" lengthAdjust="spacing" textLength="87" x="571.5" y="333.5903">&#1047;&#1072;&#1087;&#1080;&#1090; &#1076;&#1072;&#1085;&#1080;&#1093;</text><rect fill="#000000" height="3.5" style="stroke:#000000;stroke-width:0.0;" width="3.5" x="580.5" y="341.7891"/><text fill="#000000" font-family="sans-serif" font-size="13" lengthAdjust="spacing" textLength="171" x="587.5" y="348.7231">GET /api/notifications/inbox</text><text fill="#000000" font-family="sans-serif" font-size="13" lengthAdjust="spacing" textLength="184" x="571.5" y="363.856">&#1055;&#1072;&#1088;&#1072;&#1084;&#1077;&#1090;&#1088;&#1080;: X-Access-Token</text><polygon fill="#2688D4" points="1178.5,409.1875,1188.5,413.1875,1178.5,417.1875,1182.5,413.1875" style="stroke:#2688D4;stroke-width:1.0;"/><line style="stroke:#2688D4;stroke-width:1.0;" x1="953.5" x2="1184.5" y1="413.1875" y2="413.1875"/><text fill="#000000" font-family="sans-serif" font-size="13" lengthAdjust="spacing" textLength="186" x="960.5" y="392.9888">&#1047;&#1072;&#1087;&#1080;&#1090; &#1076;&#1086; &#1041;&#1044; &#1085;&#1072; &#1086;&#1090;&#1088;&#1080;&#1084;&#1072;&#1085;&#1085;&#1103;</text><text fill="#000000" font-family="sans-serif" font-size="13" lengthAdjust="spacing" textLength="213" x="960.5" y="408.1216">&#1087;&#1086;&#1074;&#1110;&#1076;&#1086;&#1084;&#1083;&#1077;&#1085;&#1100; &#1079;&#1072; &lt;idFromToken&gt;</text><polygon fill="#2688D4" points="959.5,438.3203,949.5,442.3203,959.5,446.3203,955.5,442.3203" style="stroke:#2688D4;stroke-width:1.0;"/><line style="stroke:#2688D4;stroke-width:1.0;stroke-dasharray:2.0,2.0;" x1="953.5" x2="1189.5" y1="442.3203" y2="442.3203"/><text fill="#000000" font-family="sans-serif" font-size="13" lengthAdjust="spacing" textLength="123" x="965.5" y="437.2544">&#1056;&#1077;&#1079;&#1091;&#1083;&#1100;&#1090;&#1072;&#1090; &#1079;&#1072;&#1087;&#1080;&#1090;&#1091;</text><polygon fill="#2688D4" points="570.5,452.3203,560.5,456.3203,570.5,460.3203,566.5,456.3203" style="stroke:#2688D4;stroke-width:1.0;"/><line style="stroke:#2688D4;stroke-width:1.0;stroke-dasharray:2.0,2.0;" x1="564.5" x2="947.5" y1="456.3203" y2="456.3203"/><polygon fill="#2688D4" points="371.5,466.3203,361.5,470.3203,371.5,474.3203,367.5,470.3203" style="stroke:#2688D4;stroke-width:1.0;"/><line style="stroke:#2688D4;stroke-width:1.0;stroke-dasharray:2.0,2.0;" x1="365.5" x2="558.5" y1="470.3203" y2="470.3203"/><polygon fill="#2688D4" points="61.5,510.5859,51.5,514.5859,61.5,518.5859,57.5,514.5859" style="stroke:#2688D4;stroke-width:1.0;"/><line style="stroke:#2688D4;stroke-width:1.0;stroke-dasharray:2.0,2.0;" x1="55.5" x2="359.5" y1="514.5859" y2="514.5859"/><text fill="#000000" font-family="sans-serif" font-size="13" lengthAdjust="spacing" textLength="180" x="67.5" y="494.3872">&#1042;&#1110;&#1076;&#1086;&#1073;&#1088;&#1072;&#1078;&#1077;&#1085;&#1085;&#1103; &#1089;&#1082;&#1086;&#1088;&#1086;&#1095;&#1077;&#1085;&#1080;&#1093;</text><text fill="#000000" font-family="sans-serif" font-size="13" lengthAdjust="spacing" textLength="165" x="67.5" y="509.52">&#1087;&#1086;&#1074;&#1110;&#1076;&#1086;&#1084;&#1083;&#1077;&#1085;&#1100; &#1085;&#1072; &#1089;&#1090;&#1086;&#1088;&#1110;&#1085;&#1094;&#1110;</text><rect fill="#EEEEEE" height="3" style="stroke:#EEEEEE;stroke-width:1.0;" width="1300.5" x="0" y="543.1523"/><line style="stroke:#000000;stroke-width:1.0;" x1="0" x2="1300.5" y1="543.1523" y2="543.1523"/><line style="stroke:#000000;stroke-width:1.0;" x1="0" x2="1300.5" y1="546.1523" y2="546.1523"/><rect fill="#EEEEEE" height="23.1328" style="stroke:#000000;stroke-width:2.0;" width="305" x="497.75" y="532.5859"/><text fill="#000000" font-family="sans-serif" font-size="13" font-weight="bold" lengthAdjust="spacing" textLength="286" x="503.75" y="548.6528">&#1063;&#1080;&#1090;&#1072;&#1085;&#1085;&#1103; &#1082;&#1086;&#1088;&#1080;&#1089;&#1090;&#1091;&#1074;&#1072;&#1095;&#1077;&#1084; &#1087;&#1086;&#1074;&#1110;&#1076;&#1086;&#1084;&#1083;&#1077;&#1085;&#1085;&#1103;</text><polygon fill="#2688D4" points="343.5,582.8516,353.5,586.8516,343.5,590.8516,347.5,586.8516" style="stroke:#2688D4;stroke-width:1.0;"/><line style="stroke:#2688D4;stroke-width:1.0;" x1="50.5" x2="349.5" y1="586.8516" y2="586.8516"/><text fill="#000000" font-family="sans-serif" font-size="13" lengthAdjust="spacing" textLength="286" x="57.5" y="581.7856">&#1053;&#1072;&#1090;&#1080;&#1089;&#1082;&#1072;&#1108; "&#1055;&#1086;&#1082;&#1072;&#1079;&#1072;&#1090;&#1080; &#1087;&#1086;&#1074;&#1085;&#1077; &#1087;&#1086;&#1074;&#1110;&#1076;&#1086;&#1084;&#1083;&#1077;&#1085;&#1085;&#1103;"</text><polygon fill="#2688D4" points="61.5,611.9844,51.5,615.9844,61.5,619.9844,57.5,615.9844" style="stroke:#2688D4;stroke-width:1.0;"/><line style="stroke:#2688D4;stroke-width:1.0;stroke-dasharray:2.0,2.0;" x1="55.5" x2="354.5" y1="615.9844" y2="615.9844"/><text fill="#000000" font-family="sans-serif" font-size="13" lengthAdjust="spacing" textLength="255" x="67.5" y="610.9185">&#1042;&#1110;&#1076;&#1086;&#1073;&#1088;&#1072;&#1078;&#1077;&#1085;&#1085;&#1103; &#1087;&#1086;&#1074;&#1085;&#1086;&#1075;&#1086; &#1087;&#1086;&#1074;&#1110;&#1076;&#1086;&#1084;&#1083;&#1077;&#1085;&#1085;&#1103;</text><polygon fill="#2688D4" points="542.5,671.3828,552.5,675.3828,542.5,679.3828,546.5,675.3828" style="stroke:#2688D4;stroke-width:1.0;"/><line style="stroke:#2688D4;stroke-width:1.0;" x1="365.5" x2="548.5" y1="675.3828" y2="675.3828"/><text fill="#000000" font-family="sans-serif" font-size="13" lengthAdjust="spacing" textLength="87" x="372.5" y="640.0513">&#1047;&#1072;&#1087;&#1080;&#1090; &#1076;&#1072;&#1085;&#1080;&#1093;</text><text fill="#000000" font-family="sans-serif" font-size="13" lengthAdjust="spacing" textLength="79" x="372.5" y="655.1841">&#1055;&#1072;&#1088;&#1072;&#1084;&#1077;&#1090;&#1088;&#1080;:</text><text fill="#000000" font-family="sans-serif" font-size="13" lengthAdjust="spacing" textLength="170" x="372.5" y="670.3169">&#1030;&#1076;&#1077;&#1085;&#1090;&#1080;&#1092;&#1110;&#1082;&#1072;&#1090;&#1086;&#1088; &#1089;&#1077;&#1089;&#1110;&#1111; Kong</text><line style="stroke:#2688D4;stroke-width:1.0;" x1="564.5" x2="606.5" y1="704.5156" y2="704.5156"/><line style="stroke:#2688D4;stroke-width:1.0;" x1="606.5" x2="606.5" y1="704.5156" y2="717.5156"/><line style="stroke:#2688D4;stroke-width:1.0;" x1="565.5" x2="606.5" y1="717.5156" y2="717.5156"/><polygon fill="#2688D4" points="575.5,713.5156,565.5,717.5156,575.5,721.5156,571.5,717.5156" style="stroke:#2688D4;stroke-width:1.0;"/><text fill="#000000" font-family="sans-serif" font-size="13" lengthAdjust="spacing" textLength="101" x="571.5" y="699.4497">&#1055;&#1077;&#1088;&#1077;&#1074;&#1110;&#1088;&#1082;&#1072; &#1089;&#1077;&#1089;&#1110;&#1111;</text><polygon fill="#2688D4" points="931.5,772.9141,941.5,776.9141,931.5,780.9141,935.5,776.9141" style="stroke:#2688D4;stroke-width:1.0;"/><line style="stroke:#2688D4;stroke-width:1.0;" x1="564.5" x2="937.5" y1="776.9141" y2="776.9141"/><text fill="#000000" font-family="sans-serif" font-size="13" lengthAdjust="spacing" textLength="356" x="571.5" y="741.5825">&#1047;&#1072;&#1087;&#1080;&#1090; &#1085;&#1072; &#1084;&#1072;&#1088;&#1082;&#1091;&#1074;&#1072;&#1085;&#1085;&#1103; &#1087;&#1086;&#1074;&#1110;&#1076;&#1086;&#1084;&#1083;&#1077;&#1085;&#1085;&#1103; &#1103;&#1082; &#1087;&#1088;&#1086;&#1095;&#1080;&#1090;&#1072;&#1085;&#1086;&#1075;&#1086;</text><rect fill="#000000" height="3.5" style="stroke:#000000;stroke-width:0.0;" width="3.5" x="580.5" y="749.7813"/><text fill="#000000" font-family="sans-serif" font-size="13" lengthAdjust="spacing" textLength="237" x="587.5" y="756.7153">POST /api/notifications/inbox/{id}/ack</text><text fill="#000000" font-family="sans-serif" font-size="13" lengthAdjust="spacing" textLength="184" x="571.5" y="771.8481">&#1055;&#1072;&#1088;&#1072;&#1084;&#1077;&#1090;&#1088;&#1080;: X-Access-Token</text><polygon fill="#2688D4" points="1178.5,817.1797,1188.5,821.1797,1178.5,825.1797,1182.5,821.1797" style="stroke:#2688D4;stroke-width:1.0;"/><line style="stroke:#2688D4;stroke-width:1.0;" x1="953.5" x2="1184.5" y1="821.1797" y2="821.1797"/><text fill="#000000" font-family="sans-serif" font-size="13" lengthAdjust="spacing" textLength="108" x="960.5" y="800.981">&#1047;&#1072;&#1087;&#1080;&#1090; &#1076;&#1086; &#1041;&#1044; &#1085;&#1072;</text><text fill="#000000" font-family="sans-serif" font-size="13" lengthAdjust="spacing" textLength="170" x="960.5" y="816.1138">&#1086;&#1085;&#1086;&#1074;&#1083;&#1077;&#1085;&#1085;&#1103; &#1087;&#1086;&#1074;&#1110;&#1076;&#1086;&#1084;&#1083;&#1077;&#1085;&#1085;&#1103;</text><polygon fill="#2688D4" points="959.5,846.3125,949.5,850.3125,959.5,854.3125,955.5,850.3125" style="stroke:#2688D4;stroke-width:1.0;"/><line style="stroke:#2688D4;stroke-width:1.0;stroke-dasharray:2.0,2.0;" x1="953.5" x2="1189.5" y1="850.3125" y2="850.3125"/><text fill="#000000" font-family="sans-serif" font-size="13" lengthAdjust="spacing" textLength="123" x="965.5" y="845.2466">&#1056;&#1077;&#1079;&#1091;&#1083;&#1100;&#1090;&#1072;&#1090; &#1079;&#1072;&#1087;&#1080;&#1090;&#1091;</text><polygon fill="#2688D4" points="570.5,860.3125,560.5,864.3125,570.5,868.3125,566.5,864.3125" style="stroke:#2688D4;stroke-width:1.0;"/><line style="stroke:#2688D4;stroke-width:1.0;stroke-dasharray:2.0,2.0;" x1="564.5" x2="947.5" y1="864.3125" y2="864.3125"/><polygon fill="#2688D4" points="371.5,874.3125,361.5,878.3125,371.5,882.3125,367.5,878.3125" style="stroke:#2688D4;stroke-width:1.0;"/><line style="stroke:#2688D4;stroke-width:1.0;stroke-dasharray:2.0,2.0;" x1="365.5" x2="558.5" y1="878.3125" y2="878.3125"/><polygon fill="#2688D4" points="61.5,918.5781,51.5,922.5781,61.5,926.5781,57.5,922.5781" style="stroke:#2688D4;stroke-width:1.0;"/><line style="stroke:#2688D4;stroke-width:1.0;stroke-dasharray:2.0,2.0;" x1="55.5" x2="359.5" y1="922.5781" y2="922.5781"/><text fill="#000000" font-family="sans-serif" font-size="13" lengthAdjust="spacing" textLength="162" x="67.5" y="902.3794">&#1055;&#1086;&#1074;&#1110;&#1076;&#1086;&#1084;&#1083;&#1077;&#1085;&#1085;&#1103; &#1087;&#1077;&#1088;&#1077;&#1089;&#1090;&#1072;&#1108;</text><text fill="#000000" font-family="sans-serif" font-size="13" lengthAdjust="spacing" textLength="169" x="67.5" y="917.5122">&#1074;&#1110;&#1076;&#1086;&#1073;&#1088;&#1072;&#1078;&#1072;&#1090;&#1080;&#1089;&#1100; &#1103;&#1082; '&#1053;&#1086;&#1074;&#1077;'</text><!--SRC=[tLNVInj147w_lsAn3m4X14ef8esW_KMfRItwq0T1DdUhBZ5xwTr51H6IM2q5GLg2Gg6rVUhhcJPDcX_dlx3x7tLcxn8JlOlIfs8Wv38x-yqtCz_CkNakYjIX1UAkKylUucADhD8DbndkuEGHzMYEkcoEclarnou9ww6zOJjaQvrxiNwsOp4dzBbpz_xKb7LloEjrYPMkXGgTnkAyjBrhORJFM1INlIqnOJAoOn3up3gElJNggyscPpjnG7WuprVPF1SiwNo1EXutUP4AxoOkiIcXqvozdNGVZsBlxHe6HUvaGdwMWIhBbggegjgJTUchznE4kgJaCiSeNX3GhXrrh6go1wuLTIZRiYN_4FbB1l3rLHL-syk2WDsNP-fOzcG3GT5m9ORqTHIJvg14tcYWvpQeRLdCBZmZBwYWQwp0XAVTyt1oYTHt25AMTI1MGIeTTKJWVo3F86PLjW17DWaNENkRo7EmWwTct9KTsG2AFNK4poqDhzrM2inr8UWA562Jcymmh4Z064tj8mRaya4sni2gmo50AsSO7lSs687x1pgghyh0-2IXDEH6b0qZcoNoArm4033uuL4yPaDs4uYIRDOmiDiaFTFlnpIHfxgk3RMF_WGf4u1gmoqVxhUXhSiY1Lwnz58eBxv9FJReCEa_OHZi8yGu0Qnp85h5pY7zbjh7XfrYVS3GrGA2LARHUW1Eo1Ywgjv1p7QeELKcgWAE5LrGr0x46eJFX_-9VXWA7QMdXLD6g26G4VzOJIHpdvny-dY9P6YHPuJjyLLkKe_Rmis4_OnFxarwrZGXGdh9pZEXmmyIYDSaqP_OimlILkuopu38Zx8MTJEueXnW5oyHsOGB3xZrnB4BckFC20ChHz9ZIlKDK9gWn8uwX8RvIANPPwNsD9B5Rf1mGhfHKuqHbCWITl52sCQGIzyqq2MuuHm0uqzH1SvqftxtPOqQ2OShq2Cr46n2rNfQLg58SH-g0tKSJkqFpFtV9bRVY9_PBteYMfgbhsgmht0-SHqtmvC843Tp8lP4tEmEJU_rLHe42UHFb5n2eDky4lI0TJNdTjZHaTh4T1HsUXjE8strrH5M4DVAmgl5vBsIsU7MRWPUzV_JWW4gWKwXFfJc637SudsIy9h4QeHlsOfEf8Orgr-QgcYaOPzeYQHWoh6aZTHV]--></g></svg>