<?xml version="1.0" encoding="us-ascii" standalone="no"?><svg xmlns="http://www.w3.org/2000/svg" xmlns:xlink="http://www.w3.org/1999/xlink" contentStyleType="text/css" height="202px" preserveAspectRatio="none" style="width:530px;height:202px;background:#FFFFFF;" version="1.1" viewBox="0 0 530 202" width="530px" zoomAndPan="magnify"><defs/><g><!--class AbstractBpmnParseListener--><g id="elem_AbstractBpmnParseListener"><rect codeLine="1" fill="#F1F1F1" height="64.2969" id="AbstractBpmnParseListener" rx="2.5" ry="2.5" style="stroke:#181818;stroke-width:0.5;" width="224" x="9.5" y="7"/><ellipse cx="24.5" cy="23" fill="#ADD1B2" rx="11" ry="11" style="stroke:#181818;stroke-width:1.0;"/><path d="M27.4688,28.6406 Q26.8906,28.9375 26.25,29.0781 Q25.6094,29.2344 24.9063,29.2344 Q22.4063,29.2344 21.0781,27.5938 Q19.7656,25.9375 19.7656,22.8125 Q19.7656,19.6875 21.0781,18.0313 Q22.4063,16.375 24.9063,16.375 Q25.6094,16.375 26.25,16.5313 Q26.9063,16.6875 27.4688,16.9844 L27.4688,19.7031 Q26.8438,19.125 26.25,18.8594 Q25.6563,18.5781 25.0313,18.5781 Q23.6875,18.5781 23,19.6563 Q22.3125,20.7188 22.3125,22.8125 Q22.3125,24.9063 23,25.9844 Q23.6875,27.0469 25.0313,27.0469 Q25.6563,27.0469 26.25,26.7813 Q26.8438,26.5 27.4688,25.9219 L27.4688,28.6406 Z " fill="#000000"/><text fill="#000000" font-family="sans-serif" font-size="14" lengthAdjust="spacing" textLength="192" x="38.5" y="27.8467">AbstractBpmnParseListener</text><line style="stroke:#181818;stroke-width:0.5;" x1="10.5" x2="232.5" y1="39" y2="39"/><line style="stroke:#181818;stroke-width:0.5;" x1="10.5" x2="232.5" y1="47" y2="47"/><text fill="#000000" font-family="sans-serif" font-size="14" lengthAdjust="spacing" textLength="120" x="15.5" y="63.9951">parseStartEvent()</text></g><!--class BpmSecuritySupportListener--><g id="elem_BpmSecuritySupportListener"><rect codeLine="5" fill="#ADD8E6" height="64.2969" id="BpmSecuritySupportListener" rx="2.5" ry="2.5" style="stroke:#008000;stroke-width:0.5;" width="229" x="7" y="131.29"/><ellipse cx="22" cy="147.29" fill="#ADD1B2" rx="11" ry="11" style="stroke:#181818;stroke-width:1.0;"/><path d="M24.9688,152.9306 Q24.3906,153.2275 23.75,153.3681 Q23.1094,153.5244 22.4063,153.5244 Q19.9063,153.5244 18.5781,151.8838 Q17.2656,150.2275 17.2656,147.1025 Q17.2656,143.9775 18.5781,142.3213 Q19.9063,140.665 22.4063,140.665 Q23.1094,140.665 23.75,140.8213 Q24.4063,140.9775 24.9688,141.2744 L24.9688,143.9931 Q24.3438,143.415 23.75,143.1494 Q23.1563,142.8681 22.5313,142.8681 Q21.1875,142.8681 20.5,143.9463 Q19.8125,145.0088 19.8125,147.1025 Q19.8125,149.1963 20.5,150.2744 Q21.1875,151.3369 22.5313,151.3369 Q23.1563,151.3369 23.75,151.0713 Q24.3438,150.79 24.9688,150.2119 L24.9688,152.9306 Z " fill="#000000"/><text fill="#000000" font-family="sans-serif" font-size="14" lengthAdjust="spacing" textLength="197" x="36" y="152.1367">BpmSecuritySupportListener</text><line style="stroke:#008000;stroke-width:0.5;" x1="8" x2="235" y1="163.29" y2="163.29"/><line style="stroke:#008000;stroke-width:0.5;" x1="8" x2="235" y1="171.29" y2="171.29"/><text fill="#000000" font-family="sans-serif" font-size="14" lengthAdjust="spacing" textLength="120" x="13" y="188.2851">parseStartEvent()</text></g><!--class ExecutionListener--><g id="elem_ExecutionListener"><rect codeLine="9" fill="#F1F1F1" height="64.2969" id="ExecutionListener" rx="2.5" ry="2.5" style="stroke:#181818;stroke-width:0.5;" width="190" x="302.5" y="7"/><ellipse cx="333.25" cy="23" fill="#B4A7E5" rx="11" ry="11" style="stroke:#181818;stroke-width:1.0;"/><path d="M329.1719,18.7656 L329.1719,16.6094 L336.5625,16.6094 L336.5625,18.7656 L334.0938,18.7656 L334.0938,26.8438 L336.5625,26.8438 L336.5625,29 L329.1719,29 L329.1719,26.8438 L331.6406,26.8438 L331.6406,18.7656 L329.1719,18.7656 Z " fill="#000000"/><text fill="#000000" font-family="sans-serif" font-size="14" font-style="italic" lengthAdjust="spacing" textLength="123" x="350.75" y="27.8467">ExecutionListener</text><line style="stroke:#181818;stroke-width:0.5;" x1="303.5" x2="491.5" y1="39" y2="39"/><line style="stroke:#181818;stroke-width:0.5;" x1="303.5" x2="491.5" y1="47" y2="47"/><text fill="#000000" font-family="sans-serif" font-size="14" lengthAdjust="spacing" textLength="178" x="308.5" y="63.9951">notify(DelegateExecution)</text></g><!--class InitiatorTokenStartEventListener--><g id="elem_InitiatorTokenStartEventListener"><rect codeLine="13" fill="#ADD8E6" height="64.2969" id="InitiatorTokenStartEventListener" rx="2.5" ry="2.5" style="stroke:#008000;stroke-width:0.5;" width="252" x="271.5" y="131.29"/><ellipse cx="286.5" cy="147.29" fill="#ADD1B2" rx="11" ry="11" style="stroke:#181818;stroke-width:1.0;"/><path d="M289.4688,152.9306 Q288.8906,153.2275 288.25,153.3681 Q287.6094,153.5244 286.9063,153.5244 Q284.4063,153.5244 283.0781,151.8838 Q281.7656,150.2275 281.7656,147.1025 Q281.7656,143.9775 283.0781,142.3213 Q284.4063,140.665 286.9063,140.665 Q287.6094,140.665 288.25,140.8213 Q288.9063,140.9775 289.4688,141.2744 L289.4688,143.9931 Q288.8438,143.415 288.25,143.1494 Q287.6563,142.8681 287.0313,142.8681 Q285.6875,142.8681 285,143.9463 Q284.3125,145.0088 284.3125,147.1025 Q284.3125,149.1963 285,150.2744 Q285.6875,151.3369 287.0313,151.3369 Q287.6563,151.3369 288.25,151.0713 Q288.8438,150.79 289.4688,150.2119 L289.4688,152.9306 Z " fill="#000000"/><text fill="#000000" font-family="sans-serif" font-size="14" lengthAdjust="spacing" textLength="220" x="300.5" y="152.1367">InitiatorTokenStartEventListener</text><line style="stroke:#008000;stroke-width:0.5;" x1="272.5" x2="522.5" y1="163.29" y2="163.29"/><line style="stroke:#008000;stroke-width:0.5;" x1="272.5" x2="522.5" y1="171.29" y2="171.29"/><text fill="#000000" font-family="sans-serif" font-size="14" lengthAdjust="spacing" textLength="210" x="277.5" y="188.2851">void notify(DelegateExecution)</text></g><!--reverse link AbstractBpmnParseListener to BpmSecuritySupportListener--><g id="link_AbstractBpmnParseListener_BpmSecuritySupportListener"><path d="M121.5,92.22 C121.5,105.43 121.5,119.23 121.5,131.05 " fill="none" id="AbstractBpmnParseListener-backto-BpmSecuritySupportListener" style="stroke:#181818;stroke-width:1.0;"/><polygon fill="none" points="114.5,92.64,121.5,72.64,128.5,92.64,114.5,92.64" style="stroke:#181818;stroke-width:1.0;"/></g><!--reverse link ExecutionListener to InitiatorTokenStartEventListener--><g id="link_ExecutionListener_InitiatorTokenStartEventListener"><path d="M397.5,92.22 C397.5,105.43 397.5,119.23 397.5,131.05 " fill="none" id="ExecutionListener-backto-InitiatorTokenStartEventListener" style="stroke:#181818;stroke-width:1.0;stroke-dasharray:7.0,7.0;"/><polygon fill="none" points="390.5,92.64,397.5,72.64,404.5,92.64,390.5,92.64" style="stroke:#181818;stroke-width:1.0;"/></g><!--reverse link BpmSecuritySupportListener to InitiatorTokenStartEventListener--><g id="link_BpmSecuritySupportListener_InitiatorTokenStartEventListener"><path codeLine="17" d="M250.24,163.44 C257.25,163.44 264.26,163.44 271.26,163.44 " fill="none" id="BpmSecuritySupportListener-backto-InitiatorTokenStartEventListener" style="stroke:#181818;stroke-width:1.0;"/><polygon fill="none" points="237.32,163.44,243.32,167.44,249.32,163.44,243.32,159.44,237.32,163.44" style="stroke:#181818;stroke-width:1.0;"/></g><!--SRC=[dP0nRW9134NxFSL8QQ381POg28f8AI8j5vWTFXkBMS_8ynU18kxEa88aHOYIphB_avyTeY_5FVM5vWENUTHNRmKlKWY5kVV6kNpjTFJ6zG7AsRmvDqtu02lG8KmcF7LJpibu8nzw7_PjbE6DVPomYA9e1mDqGHpPzh7ENQsWstyPY1Asym5kVQmEbAJV84sKtMcsGiJWYLleY_wp2iKpsIRjePyB_dY4Z3bYh5pvGUMGP7lVvyuZq-EldXS0]--></g></svg>