<?xml version="1.0" encoding="us-ascii" standalone="no"?><svg xmlns="http://www.w3.org/2000/svg" xmlns:xlink="http://www.w3.org/1999/xlink" contentStyleType="text/css" height="439px" preserveAspectRatio="none" style="width:826px;height:439px;background:#FFFFFF;" version="1.1" viewBox="0 0 826 439" width="826px" zoomAndPan="magnify"><defs/><g><!--cluster el--><g id="cluster_el"><path d="M8.5,6 L23.5,6 A3.75,3.75 0 0 1 26,8.5 L33,28.2969 L679.5,28.2969 A2.5,2.5 0 0 1 682,30.7969 L682,429.88 A2.5,2.5 0 0 1 679.5,432.38 L8.5,432.38 A2.5,2.5 0 0 1 6,429.88 L6,8.5 A2.5,2.5 0 0 1 8.5,6 " fill="none" style="stroke:#000000;stroke-width:1.5;"/><line style="stroke:#000000;stroke-width:1.5;" x1="6" x2="33" y1="28.2969" y2="28.2969"/><text fill="#000000" font-family="sans-serif" font-size="14" font-weight="bold" lengthAdjust="spacing" textLength="14" x="10" y="20.9951">el</text></g><!--cluster juel--><g id="cluster_juel"><path d="M32.5,49 L61.5,49 A3.75,3.75 0 0 1 64,51.5 L71,71.2969 L403.5,71.2969 A2.5,2.5 0 0 1 406,73.7969 L406,348.84 A2.5,2.5 0 0 1 403.5,351.34 L32.5,351.34 A2.5,2.5 0 0 1 30,348.84 L30,51.5 A2.5,2.5 0 0 1 32.5,49 " fill="none" style="stroke:#000000;stroke-width:1.5;"/><line style="stroke:#000000;stroke-width:1.5;" x1="30" x2="71" y1="71.2969" y2="71.2969"/><text fill="#000000" font-family="sans-serif" font-size="14" font-weight="bold" lengthAdjust="spacing" textLength="28" x="34" y="63.9951">juel</text></g><!--cluster dto--><g id="cluster_dto"><path d="M432.5,179 L459.5,179 A3.75,3.75 0 0 1 462,181.5 L469,201.2969 L655.5,201.2969 A2.5,2.5 0 0 1 658,203.7969 L658,405.88 A2.5,2.5 0 0 1 655.5,408.38 L432.5,408.38 A2.5,2.5 0 0 1 430,405.88 L430,181.5 A2.5,2.5 0 0 1 432.5,179 " fill="none" style="stroke:#000000;stroke-width:1.5;"/><line style="stroke:#000000;stroke-width:1.5;" x1="430" x2="469" y1="201.2969" y2="201.2969"/><text fill="#000000" font-family="sans-serif" font-size="14" font-weight="bold" lengthAdjust="spacing" textLength="26" x="434" y="193.9951">dto</text></g><!--class AbstractApplicationContextAwareJuelFunction--><g id="elem_AbstractApplicationContextAwareJuelFunction"><rect codeLine="3" fill="#F1F1F1" height="48" id="AbstractApplicationContextAwareJuelFunction" rx="2.5" ry="2.5" style="stroke:#181818;stroke-width:0.5;" width="344" x="46" y="84"/><ellipse cx="61" cy="100" fill="#A9DCDF" rx="11" ry="11" style="stroke:#181818;stroke-width:1.0;"/><path d="M61.1094,95.3438 L59.9531,100.4219 L62.2813,100.4219 L61.1094,95.3438 Z M59.625,93.1094 L62.6094,93.1094 L65.9688,105.5 L63.5156,105.5 L62.75,102.4375 L59.4688,102.4375 L58.7188,105.5 L56.2813,105.5 L59.625,93.1094 Z " fill="#000000"/><text fill="#000000" font-family="sans-serif" font-size="14" font-style="italic" lengthAdjust="spacing" textLength="312" x="75" y="104.8467">AbstractApplicationContextAwareJuelFunction</text><line style="stroke:#181818;stroke-width:0.5;" x1="47" x2="389" y1="116" y2="116"/><line style="stroke:#181818;stroke-width:0.5;" x1="47" x2="389" y1="124" y2="124"/></g><!--class InitiatorJuelFunction--><g id="elem_InitiatorJuelFunction"><rect codeLine="4" fill="#ADD8E6" height="64.2969" id="InitiatorJuelFunction" rx="2.5" ry="2.5" style="stroke:#008000;stroke-width:0.5;" width="166" x="181" y="271.04"/><ellipse cx="196" cy="287.04" fill="#ADD1B2" rx="11" ry="11" style="stroke:#181818;stroke-width:1.0;"/><path d="M198.9688,292.6806 Q198.3906,292.9775 197.75,293.1181 Q197.1094,293.2744 196.4063,293.2744 Q193.9063,293.2744 192.5781,291.6337 Q191.2656,289.9775 191.2656,286.8525 Q191.2656,283.7275 192.5781,282.0712 Q193.9063,280.415 196.4063,280.415 Q197.1094,280.415 197.75,280.5712 Q198.4063,280.7275 198.9688,281.0244 L198.9688,283.7431 Q198.3438,283.165 197.75,282.8994 Q197.1563,282.6181 196.5313,282.6181 Q195.1875,282.6181 194.5,283.6962 Q193.8125,284.7587 193.8125,286.8525 Q193.8125,288.9462 194.5,290.0244 Q195.1875,291.0869 196.5313,291.0869 Q197.1563,291.0869 197.75,290.8212 Q198.3438,290.54 198.9688,289.9619 L198.9688,292.6806 Z " fill="#000000"/><text fill="#000000" font-family="sans-serif" font-size="14" lengthAdjust="spacing" textLength="134" x="210" y="291.8867">InitiatorJuelFunction</text><line style="stroke:#008000;stroke-width:0.5;" x1="182" x2="346" y1="303.04" y2="303.04"/><line style="stroke:#008000;stroke-width:0.5;" x1="182" x2="346" y1="311.04" y2="311.04"/><ellipse cx="192" cy="324.6884" fill="#84BE84" rx="3" ry="3" style="stroke:#038048;stroke-width:1.0;"/><text fill="#000000" font-family="sans-serif" font-size="14" lengthAdjust="spacing" text-decoration="underline" textLength="121" x="201" y="328.0351">UserDto initiator()</text></g><!--class UserDto--><g id="elem_UserDto"><rect codeLine="9" fill="#ADD8E6" height="178.375" id="UserDto" rx="2.5" ry="2.5" style="stroke:#008000;stroke-width:0.5;" width="197" x="445.5" y="214"/><ellipse cx="511.25" cy="230" fill="#ADD1B2" rx="11" ry="11" style="stroke:#181818;stroke-width:1.0;"/><path d="M514.2188,235.6406 Q513.6406,235.9375 513,236.0781 Q512.3594,236.2344 511.6563,236.2344 Q509.1563,236.2344 507.8281,234.5938 Q506.5156,232.9375 506.5156,229.8125 Q506.5156,226.6875 507.8281,225.0313 Q509.1563,223.375 511.6563,223.375 Q512.3594,223.375 513,223.5313 Q513.6563,223.6875 514.2188,223.9844 L514.2188,226.7031 Q513.5938,226.125 513,225.8594 Q512.4063,225.5781 511.7813,225.5781 Q510.4375,225.5781 509.75,226.6563 Q509.0625,227.7188 509.0625,229.8125 Q509.0625,231.9063 509.75,232.9844 Q510.4375,234.0469 511.7813,234.0469 Q512.4063,234.0469 513,233.7813 Q513.5938,233.5 514.2188,232.9219 L514.2188,235.6406 Z " fill="#000000"/><text fill="#000000" font-family="sans-serif" font-size="14" lengthAdjust="spacing" textLength="57" x="531.75" y="234.8467">UserDto</text><line style="stroke:#008000;stroke-width:0.5;" x1="446.5" x2="641.5" y1="246" y2="246"/><rect fill="none" height="6" style="stroke:#C82930;stroke-width:1.0;" width="6" x="453.5" y="256.6484"/><text fill="#000000" font-family="sans-serif" font-size="14" lengthAdjust="spacing" textLength="115" x="465.5" y="262.9951">String userName</text><rect fill="none" height="6" style="stroke:#C82930;stroke-width:1.0;" width="6" x="453.5" y="272.9453"/><text fill="#000000" font-family="sans-serif" font-size="14" lengthAdjust="spacing" textLength="137" x="465.5" y="279.292">String accessToken</text><rect fill="none" height="6" style="stroke:#C82930;stroke-width:1.0;" width="6" x="453.5" y="289.2422"/><text fill="#000000" font-family="sans-serif" font-size="14" lengthAdjust="spacing" textLength="136" x="465.5" y="295.5889">JwtClaimsDto claims</text><line style="stroke:#008000;stroke-width:1.0;" x1="446.5" x2="641.5" y1="302.8906" y2="302.8906"/><ellipse cx="456.5" cy="316.5391" fill="#84BE84" rx="3" ry="3" style="stroke:#038048;stroke-width:1.0;"/><text fill="#000000" font-family="sans-serif" font-size="14" lengthAdjust="spacing" textLength="149" x="465.5" y="319.8857">String getUserName()</text><ellipse cx="456.5" cy="332.8359" fill="#84BE84" rx="3" ry="3" style="stroke:#038048;stroke-width:1.0;"/><text fill="#000000" font-family="sans-serif" font-size="14" lengthAdjust="spacing" textLength="171" x="465.5" y="336.1826">String getAccessToken()</text><ellipse cx="456.5" cy="349.1328" fill="#84BE84" rx="3" ry="3" style="stroke:#038048;stroke-width:1.0;"/><text fill="#000000" font-family="sans-serif" font-size="14" lengthAdjust="spacing" textLength="140" x="465.5" y="352.4795">String getFullName()</text><ellipse cx="456.5" cy="365.4297" fill="#84BE84" rx="3" ry="3" style="stroke:#038048;stroke-width:1.0;"/><text fill="#000000" font-family="sans-serif" font-size="14" lengthAdjust="spacing" textLength="106" x="465.5" y="368.7764">String getDrfo()</text><ellipse cx="456.5" cy="381.7266" fill="#84BE84" rx="3" ry="3" style="stroke:#038048;stroke-width:1.0;"/><text fill="#000000" font-family="sans-serif" font-size="14" lengthAdjust="spacing" textLength="127" x="465.5" y="385.0732">String getEdrpou()</text></g><!--class JwtClaimsDto--><g id="elem_JwtClaimsDto"><rect fill="#F1F1F1" height="48" id="JwtClaimsDto" rx="2.5" ry="2.5" style="stroke:#181818;stroke-width:0.5;" width="121" x="698.5" y="279.19"/><ellipse cx="713.5" cy="295.19" fill="#ADD1B2" rx="11" ry="11" style="stroke:#181818;stroke-width:1.0;"/><path d="M716.4688,300.8306 Q715.8906,301.1275 715.25,301.2681 Q714.6094,301.4244 713.9063,301.4244 Q711.4063,301.4244 710.0781,299.7838 Q708.7656,298.1275 708.7656,295.0025 Q708.7656,291.8775 710.0781,290.2213 Q711.4063,288.565 713.9063,288.565 Q714.6094,288.565 715.25,288.7213 Q715.9063,288.8775 716.4688,289.1744 L716.4688,291.8931 Q715.8438,291.315 715.25,291.0494 Q714.6563,290.7681 714.0313,290.7681 Q712.6875,290.7681 712,291.8463 Q711.3125,292.9088 711.3125,295.0025 Q711.3125,297.0963 712,298.1744 Q712.6875,299.2369 714.0313,299.2369 Q714.6563,299.2369 715.25,298.9713 Q715.8438,298.69 716.4688,298.1119 L716.4688,300.8306 Z " fill="#000000"/><text fill="#000000" font-family="sans-serif" font-size="14" lengthAdjust="spacing" textLength="89" x="727.5" y="300.0367">JwtClaimsDto</text><line style="stroke:#181818;stroke-width:0.5;" x1="699.5" x2="818.5" y1="311.19" y2="311.19"/><line style="stroke:#181818;stroke-width:0.5;" x1="699.5" x2="818.5" y1="319.19" y2="319.19"/></g><!--reverse link AbstractApplicationContextAwareJuelFunction to InitiatorJuelFunction--><g id="link_AbstractApplicationContextAwareJuelFunction_InitiatorJuelFunction"><path d="M228.37,152.57 C236.94,188.53 248.88,238.69 256.53,270.81 " fill="none" id="AbstractApplicationContextAwareJuelFunction-backto-InitiatorJuelFunction" style="stroke:#181818;stroke-width:1.0;"/><polygon fill="none" points="221.37,154.39,223.55,133.31,234.99,151.14,221.37,154.39" style="stroke:#181818;stroke-width:1.0;"/></g><!--link AbstractApplicationContextAwareJuelFunction to UserDto--><!--link InitiatorJuelFunction to UserDto--><g id="link_InitiatorJuelFunction_UserDto"><path codeLine="22" d="M347.25,303.19 C376.16,303.19 408.96,303.19 439.37,303.19 " fill="none" id="InitiatorJuelFunction-to-UserDto" style="stroke:#181818;stroke-width:1.0;stroke-dasharray:7.0,7.0;"/><polygon fill="#181818" points="444.02,303.19,435.02,299.19,439.02,303.19,435.02,307.19,444.02,303.19" style="stroke:#181818;stroke-width:1.0;"/><text fill="#000000" font-family="sans-serif" font-size="13" lengthAdjust="spacing" textLength="46" x="373.25" y="296.2569">returns</text></g><!--link UserDto to JwtClaimsDto--><g id="link_UserDto_JwtClaimsDto"><path codeLine="24" d="M642.68,303.19 C656.54,303.19 670.4,303.19 684.26,303.19 " fill="none" id="UserDto-to-JwtClaimsDto" style="stroke:#181818;stroke-width:1.0;stroke-dasharray:7.0,7.0;"/><polygon fill="none" points="697.11,303.19,691.11,299.19,685.11,303.19,691.11,307.19,697.11,303.19" style="stroke:#181818;stroke-width:1.0;"/></g><!--SRC=[bLB1QiCm3BtdAmIxR8pc0r8OX7Q5zR3BrjFOmR6rrArh1rkcWv1_dvFQMLioM0y6MK_lFKbsm_YUrGYeeCq0cdZT-PW0O9KZopW1LymvAEErR1ebEIDfzC9emcygZypYEX1NNlC-Fz1Fh1SjIJ8ozXo7kohO5KhMMwgKnxcI6elQ8kfvBrXKAk0G8jJY9kVOEi0Zj8v2AUzWuz0koO1ChTm_34LTTZffT15gshFM4-z_pIRZ6RoHbRe67-Ylx83NUSOvElTkzgX7Q7saXMBou7e_FaG9cuq3HNwDj8dISP1BiFpLdyHNNga_oKlxPIQ1Ps4RuwysTyl3vFd7LWg1-lCfRJOeJ7-FV2o10YoIjzfbNPPokRbOs0y0]--></g></svg>