<?xml version="1.0" encoding="us-ascii" standalone="no"?><svg xmlns="http://www.w3.org/2000/svg" xmlns:xlink="http://www.w3.org/1999/xlink" contentStyleType="text/css" height="793px" preserveAspectRatio="none" style="width:927px;height:793px;background:#FFFFFF;" version="1.1" viewBox="0 0 927 793" width="927px" zoomAndPan="magnify"><defs/><g><rect fill="#FFFFFF" height="663.5313" style="stroke:#181818;stroke-width:1.0;" width="10" x="79" y="52.2969"/><rect fill="#FFFFFF" height="109.2031" style="stroke:#181818;stroke-width:1.0;" width="10" x="473" y="81.4297"/><rect fill="#FFFFFF" height="12" style="stroke:#181818;stroke-width:1.0;" width="10" x="473" y="236.8984"/><rect fill="#FFFFFF" height="137.3359" style="stroke:#181818;stroke-width:1.0;" width="10" x="473" y="295.1641"/><rect fill="#FFFFFF" height="12" style="stroke:#181818;stroke-width:1.0;" width="10" x="473" y="674.6953"/><rect fill="#FFFFFF" height="12" style="stroke:#181818;stroke-width:1.0;" width="10" x="685.5" y="478.7656"/><rect fill="#FFFFFF" height="12" style="stroke:#181818;stroke-width:1.0;" width="10" x="844" y="537.0313"/><rect fill="none" height="644.5313" style="stroke:#000000;stroke-width:1.5;" width="917" x="3" y="96.4297"/><rect fill="none" height="321.2656" style="stroke:#000000;stroke-width:1.5;" width="873" x="37" y="310.1641"/><line style="stroke:#181818;stroke-width:0.5;stroke-dasharray:5.0,5.0;" x1="84" x2="84" y1="36.2969" y2="757.9609"/><line style="stroke:#181818;stroke-width:0.5;stroke-dasharray:5.0,5.0;" x1="478" x2="478" y1="36.2969" y2="757.9609"/><line style="stroke:#181818;stroke-width:0.5;stroke-dasharray:5.0,5.0;" x1="690" x2="690" y1="36.2969" y2="757.9609"/><line style="stroke:#181818;stroke-width:0.5;stroke-dasharray:5.0,5.0;" x1="849" x2="849" y1="36.2969" y2="757.9609"/><rect fill="#E2E2F0" height="30.2969" rx="2.5" ry="2.5" style="stroke:#181818;stroke-width:0.5;" width="74" x="47" y="5"/><text fill="#000000" font-family="sans-serif" font-size="14" lengthAdjust="spacing" textLength="60" x="54" y="24.9951">initiator()</text><rect fill="#E2E2F0" height="30.2969" rx="2.5" ry="2.5" style="stroke:#181818;stroke-width:0.5;" width="74" x="47" y="756.9609"/><text fill="#000000" font-family="sans-serif" font-size="14" lengthAdjust="spacing" textLength="60" x="54" y="776.9561">initiator()</text><rect fill="#E2E2F0" height="30.2969" rx="2.5" ry="2.5" style="stroke:#181818;stroke-width:0.5;" width="210" x="373" y="5"/><text fill="#000000" font-family="sans-serif" font-size="14" lengthAdjust="spacing" textLength="196" x="380" y="24.9951">Camunda Execution Context</text><rect fill="#E2E2F0" height="30.2969" rx="2.5" ry="2.5" style="stroke:#181818;stroke-width:0.5;" width="210" x="373" y="756.9609"/><text fill="#000000" font-family="sans-serif" font-size="14" lengthAdjust="spacing" textLength="196" x="380" y="776.9561">Camunda Execution Context</text><rect fill="#E2E2F0" height="30.2969" rx="2.5" ry="2.5" style="stroke:#181818;stroke-width:0.5;" width="195" x="593" y="5"/><text fill="#000000" font-family="sans-serif" font-size="14" lengthAdjust="spacing" textLength="181" x="600" y="24.9951">Spring Application Context</text><rect fill="#E2E2F0" height="30.2969" rx="2.5" ry="2.5" style="stroke:#181818;stroke-width:0.5;" width="195" x="593" y="756.9609"/><text fill="#000000" font-family="sans-serif" font-size="14" lengthAdjust="spacing" textLength="181" x="600" y="776.9561">Spring Application Context</text><rect fill="#E2E2F0" height="30.2969" rx="2.5" ry="2.5" style="stroke:#181818;stroke-width:0.5;" width="102" x="798" y="5"/><text fill="#000000" font-family="sans-serif" font-size="14" lengthAdjust="spacing" textLength="88" x="805" y="24.9951">TokenParser</text><rect fill="#E2E2F0" height="30.2969" rx="2.5" ry="2.5" style="stroke:#181818;stroke-width:0.5;" width="102" x="798" y="756.9609"/><text fill="#000000" font-family="sans-serif" font-size="14" lengthAdjust="spacing" textLength="88" x="805" y="776.9561">TokenParser</text><rect fill="#FFFFFF" height="663.5313" style="stroke:#181818;stroke-width:1.0;" width="10" x="79" y="52.2969"/><rect fill="#FFFFFF" height="109.2031" style="stroke:#181818;stroke-width:1.0;" width="10" x="473" y="81.4297"/><rect fill="#FFFFFF" height="12" style="stroke:#181818;stroke-width:1.0;" width="10" x="473" y="236.8984"/><rect fill="#FFFFFF" height="137.3359" style="stroke:#181818;stroke-width:1.0;" width="10" x="473" y="295.1641"/><rect fill="#FFFFFF" height="12" style="stroke:#181818;stroke-width:1.0;" width="10" x="473" y="674.6953"/><rect fill="#FFFFFF" height="12" style="stroke:#181818;stroke-width:1.0;" width="10" x="685.5" y="478.7656"/><rect fill="#FFFFFF" height="12" style="stroke:#181818;stroke-width:1.0;" width="10" x="844" y="537.0313"/><polygon fill="#181818" points="67,48.2969,77,52.2969,67,56.2969,71,52.2969" style="stroke:#181818;stroke-width:1.0;"/><line style="stroke:#181818;stroke-width:1.0;" x1="0" x2="73" y1="52.2969" y2="52.2969"/><polygon fill="#181818" points="461,77.4297,471,81.4297,461,85.4297,465,81.4297" style="stroke:#181818;stroke-width:1.0;"/><line style="stroke:#181818;stroke-width:1.0;" x1="89" x2="467" y1="81.4297" y2="81.4297"/><text fill="#000000" font-family="sans-serif" font-size="13" lengthAdjust="spacing" textLength="308" x="96" y="76.3638">&#1054;&#1090;&#1088;&#1080;&#1084;&#1072;&#1090;&#1080; &#1110;&#1089;&#1085;&#1091;&#1102;&#1095;&#1080;&#1081; UserDto &#1086;&#1073;'&#1108;&#1082;&#1090; &#1110;&#1085;&#1110;&#1094;&#1110;&#1072;&#1090;&#1086;&#1088;&#1072;</text><path d="M3,96.4297 L67,96.4297 L67,103.5625 L57,113.5625 L3,113.5625 L3,96.4297 " fill="#EEEEEE" style="stroke:#000000;stroke-width:1.5;"/><rect fill="none" height="644.5313" style="stroke:#000000;stroke-width:1.5;" width="917" x="3" y="96.4297"/><text fill="#000000" font-family="sans-serif" font-size="13" font-weight="bold" lengthAdjust="spacing" textLength="19" x="18" y="109.4966">alt</text><text fill="#000000" font-family="sans-serif" font-size="11" font-weight="bold" lengthAdjust="spacing" textLength="186" x="82" y="108.6401">[&#1086;&#1073;'&#1108;&#1082;&#1090; &#1110;&#1085;&#1110;&#1094;&#1110;&#1072;&#1090;&#1086;&#1088;&#1072; &#1079;&#1085;&#1072;&#1081;&#1076;&#1077;&#1085;&#1086;]</text><polygon fill="#181818" points="100,113.5625,90,117.5625,100,121.5625,96,117.5625" style="stroke:#181818;stroke-width:1.0;"/><line style="stroke:#181818;stroke-width:1.0;stroke-dasharray:2.0,2.0;" x1="94" x2="472" y1="117.5625" y2="117.5625"/><text fill="#000000" font-family="sans-serif" font-size="13" lengthAdjust="spacing" textLength="248" x="106" y="130.6294">&#1079;&#1085;&#1072;&#1081;&#1076;&#1077;&#1085;&#1080;&#1081; UserDto &#1086;&#1073;'&#1108;&#1082;&#1090; &#1110;&#1085;&#1110;&#1094;&#1110;&#1072;&#1090;&#1086;&#1088;&#1072;</text><polygon fill="#181818" points="11,142.6953,1,146.6953,11,150.6953,7,146.6953" style="stroke:#181818;stroke-width:1.0;"/><line style="stroke:#181818;stroke-width:1.0;stroke-dasharray:2.0,2.0;" x1="5" x2="78" y1="146.6953" y2="146.6953"/><text fill="#000000" font-family="sans-serif" font-size="13" lengthAdjust="spacing" textLength="53" x="17" y="159.7622">UserDto</text><line style="stroke:#000000;stroke-width:1.0;stroke-dasharray:2.0,2.0;" x1="3" x2="920" y1="172.8281" y2="172.8281"/><text fill="#000000" font-family="sans-serif" font-size="11" font-weight="bold" lengthAdjust="spacing" textLength="206" x="8" y="183.0386">[&#1086;&#1073;'&#1108;&#1082;&#1090; &#1110;&#1085;&#1110;&#1094;&#1110;&#1072;&#1090;&#1086;&#1088;&#1072; &#1085;&#1077; &#1079;&#1085;&#1072;&#1081;&#1076;&#1077;&#1085;&#1086;]</text><polygon fill="#181818" points="100,186.6328,90,190.6328,100,194.6328,96,190.6328" style="stroke:#181818;stroke-width:1.0;"/><line style="stroke:#181818;stroke-width:1.0;stroke-dasharray:2.0,2.0;" x1="94" x2="477" y1="190.6328" y2="190.6328"/><text fill="#000000" font-family="sans-serif" font-size="13" lengthAdjust="spacing" textLength="22" x="106" y="203.6997">null</text><polygon fill="#181818" points="461,232.8984,471,236.8984,461,240.8984,465,236.8984" style="stroke:#181818;stroke-width:1.0;"/><line style="stroke:#181818;stroke-width:1.0;" x1="89" x2="467" y1="236.8984" y2="236.8984"/><text fill="#000000" font-family="sans-serif" font-size="13" lengthAdjust="spacing" textLength="311" x="96" y="231.8325">&#1054;&#1090;&#1088;&#1080;&#1084;&#1072;&#1090;&#1080; &#1110;&#1084;'&#1103; &#1110;&#1085;&#1110;&#1094;&#1110;&#1072;&#1090;&#1086;&#1088;&#1072; &#1079; &#1074;&#1110;&#1076;&#1087;&#1086;&#1074;&#1110;&#1076;&#1085;&#1086;&#1111; &#1079;&#1084;&#1110;&#1085;&#1085;&#1086;&#1111;</text><polygon fill="#181818" points="100,244.8984,90,248.8984,100,252.8984,96,248.8984" style="stroke:#181818;stroke-width:1.0;"/><line style="stroke:#181818;stroke-width:1.0;stroke-dasharray:2.0,2.0;" x1="94" x2="477" y1="248.8984" y2="248.8984"/><text fill="#000000" font-family="sans-serif" font-size="13" lengthAdjust="spacing" textLength="94" x="106" y="261.9653">&#1030;&#1084;'&#1103; &#1110;&#1085;&#1110;&#1094;&#1110;&#1072;&#1090;&#1086;&#1088;&#1072;</text><polygon fill="#181818" points="461,291.1641,471,295.1641,461,299.1641,465,295.1641" style="stroke:#181818;stroke-width:1.0;"/><line style="stroke:#181818;stroke-width:1.0;" x1="89" x2="467" y1="295.1641" y2="295.1641"/><text fill="#000000" font-family="sans-serif" font-size="13" lengthAdjust="spacing" textLength="329" x="96" y="290.0981">&#1054;&#1090;&#1088;&#1080;&#1084;&#1072;&#1090;&#1080; &#1090;&#1086;&#1082;&#1077;&#1085; &#1110;&#1085;&#1110;&#1094;&#1110;&#1072;&#1090;&#1086;&#1088;&#1072; &#1079; &#1074;&#1110;&#1076;&#1087;&#1086;&#1074;&#1110;&#1076;&#1085;&#1086;&#1111; &#1079;&#1084;&#1110;&#1085;&#1085;&#1086;&#1111;</text><path d="M37,310.1641 L101,310.1641 L101,317.2969 L91,327.2969 L37,327.2969 L37,310.1641 " fill="#EEEEEE" style="stroke:#000000;stroke-width:1.5;"/><rect fill="none" height="321.2656" style="stroke:#000000;stroke-width:1.5;" width="873" x="37" y="310.1641"/><text fill="#000000" font-family="sans-serif" font-size="13" font-weight="bold" lengthAdjust="spacing" textLength="19" x="52" y="323.231">alt</text><text fill="#000000" font-family="sans-serif" font-size="11" font-weight="bold" lengthAdjust="spacing" textLength="335" x="116" y="322.3745">[&#1090;&#1086;&#1082;&#1077;&#1085; &#1110;&#1085;&#1110;&#1094;&#1110;&#1072;&#1090;&#1086;&#1088;&#1072; &#1085;&#1077; &#1085;&#1072;&#1103;&#1074;&#1085;&#1080;&#1081; &#1091; Camunda &#1082;&#1086;&#1085;&#1090;&#1077;&#1082;&#1089;&#1090;&#1110;]</text><polygon fill="#181818" points="100,327.2969,90,331.2969,100,335.2969,96,331.2969" style="stroke:#181818;stroke-width:1.0;"/><line style="stroke:#181818;stroke-width:1.0;stroke-dasharray:2.0,2.0;" x1="94" x2="472" y1="331.2969" y2="331.2969"/><text fill="#000000" font-family="sans-serif" font-size="13" lengthAdjust="spacing" textLength="22" x="106" y="344.3638">null</text><line style="stroke:#181818;stroke-width:1.0;" x1="89" x2="131" y1="392.6953" y2="392.6953"/><line style="stroke:#181818;stroke-width:1.0;" x1="131" x2="131" y1="392.6953" y2="405.6953"/><line style="stroke:#181818;stroke-width:1.0;" x1="90" x2="131" y1="405.6953" y2="405.6953"/><polygon fill="#181818" points="100,401.6953,90,405.6953,100,409.6953,96,405.6953" style="stroke:#181818;stroke-width:1.0;"/><text fill="#000000" font-family="sans-serif" font-size="13" lengthAdjust="spacing" textLength="247" x="96" y="372.4966">&#1079;&#1073;&#1091;&#1076;&#1091;&#1074;&#1072;&#1090;&#1080; UserDto &#1074;&#1080;&#1082;&#1086;&#1088;&#1080;&#1089;&#1090;&#1086;&#1074;&#1091;&#1102;&#1095;&#1080;</text><text fill="#000000" font-family="sans-serif" font-size="13" lengthAdjust="spacing" textLength="142" x="96" y="387.6294">&#1090;&#1110;&#1083;&#1100;&#1082;&#1080; &#1110;&#1084;'&#1103; &#1110;&#1085;&#1110;&#1094;&#1110;&#1072;&#1090;&#1086;&#1088;&#1072;</text><line style="stroke:#000000;stroke-width:1.0;stroke-dasharray:2.0,2.0;" x1="37" x2="910" y1="414.6953" y2="414.6953"/><text fill="#000000" font-family="sans-serif" font-size="11" font-weight="bold" lengthAdjust="spacing" textLength="315" x="42" y="424.9058">[&#1090;&#1086;&#1082;&#1077;&#1085; &#1110;&#1085;&#1110;&#1094;&#1110;&#1072;&#1090;&#1086;&#1088;&#1072; &#1085;&#1072;&#1103;&#1074;&#1085;&#1080;&#1081; &#1091; Camunda &#1082;&#1086;&#1085;&#1090;&#1077;&#1082;&#1089;&#1090;&#1110;]</text><polygon fill="#181818" points="100,428.5,90,432.5,100,436.5,96,432.5" style="stroke:#181818;stroke-width:1.0;"/><line style="stroke:#181818;stroke-width:1.0;stroke-dasharray:2.0,2.0;" x1="94" x2="477" y1="432.5" y2="432.5"/><text fill="#000000" font-family="sans-serif" font-size="13" lengthAdjust="spacing" textLength="112" x="106" y="445.5669">&#1090;&#1086;&#1082;&#1077;&#1085; &#1110;&#1085;&#1110;&#1094;&#1110;&#1072;&#1090;&#1086;&#1088;&#1072;</text><polygon fill="#181818" points="673.5,474.7656,683.5,478.7656,673.5,482.7656,677.5,478.7656" style="stroke:#181818;stroke-width:1.0;"/><line style="stroke:#181818;stroke-width:1.0;" x1="89" x2="679.5" y1="478.7656" y2="478.7656"/><text fill="#000000" font-family="sans-serif" font-size="13" lengthAdjust="spacing" textLength="211" x="96" y="473.6997">&#1054;&#1090;&#1088;&#1080;&#1084;&#1072;&#1090;&#1080; &#1073;&#1110;&#1085; &#1090;&#1080;&#1087;&#1091; TokenParser</text><polygon fill="#181818" points="100,486.7656,90,490.7656,100,494.7656,96,490.7656" style="stroke:#181818;stroke-width:1.0;"/><line style="stroke:#181818;stroke-width:1.0;stroke-dasharray:2.0,2.0;" x1="94" x2="689.5" y1="490.7656" y2="490.7656"/><text fill="#000000" font-family="sans-serif" font-size="13" lengthAdjust="spacing" textLength="138" x="106" y="503.8325">&#1073;&#1110;&#1085; &#1090;&#1080;&#1087;&#1091; TokenParser</text><polygon fill="#181818" points="832,533.0313,842,537.0313,832,541.0313,836,537.0313" style="stroke:#181818;stroke-width:1.0;"/><line style="stroke:#181818;stroke-width:1.0;" x1="89" x2="838" y1="537.0313" y2="537.0313"/><text fill="#000000" font-family="sans-serif" font-size="13" lengthAdjust="spacing" textLength="340" x="96" y="531.9653">&#1056;&#1086;&#1079;&#1087;&#1072;&#1088;&#1089;&#1080;&#1090;&#1080; &#1090;&#1086;&#1082;&#1077;&#1085; &#1110;&#1085;&#1110;&#1094;&#1110;&#1072;&#1090;&#1086;&#1088;&#1072; &#1091; &#1086;&#1073;'&#1108;&#1082;&#1090; JwtClaimsDto</text><polygon fill="#181818" points="100,545.0313,90,549.0313,100,553.0313,96,549.0313" style="stroke:#181818;stroke-width:1.0;"/><line style="stroke:#181818;stroke-width:1.0;stroke-dasharray:2.0,2.0;" x1="94" x2="848" y1="549.0313" y2="549.0313"/><text fill="#000000" font-family="sans-serif" font-size="13" lengthAdjust="spacing" textLength="181" x="106" y="562.0981">&#1079;&#1075;&#1077;&#1085;&#1077;&#1088;&#1086;&#1074;&#1072;&#1085;&#1080;&#1081; JwtClaimsDto</text><line style="stroke:#181818;stroke-width:1.0;" x1="89" x2="131" y1="610.4297" y2="610.4297"/><line style="stroke:#181818;stroke-width:1.0;" x1="131" x2="131" y1="610.4297" y2="623.4297"/><line style="stroke:#181818;stroke-width:1.0;" x1="90" x2="131" y1="623.4297" y2="623.4297"/><polygon fill="#181818" points="100,619.4297,90,623.4297,100,627.4297,96,623.4297" style="stroke:#181818;stroke-width:1.0;"/><text fill="#000000" font-family="sans-serif" font-size="13" lengthAdjust="spacing" textLength="247" x="96" y="590.231">&#1079;&#1073;&#1091;&#1076;&#1091;&#1074;&#1072;&#1090;&#1080; UserDto &#1074;&#1080;&#1082;&#1086;&#1088;&#1080;&#1089;&#1090;&#1086;&#1074;&#1091;&#1102;&#1095;&#1080;</text><text fill="#000000" font-family="sans-serif" font-size="13" lengthAdjust="spacing" textLength="366" x="100" y="605.3638">&#1110;&#1084;'&#1103; &#1090;&#1072; &#1090;&#1086;&#1082;&#1077;&#1085; &#1110;&#1085;&#1110;&#1094;&#1110;&#1072;&#1090;&#1086;&#1088;&#1072; &#1090;&#1072; &#1079;&#1075;&#1077;&#1085;&#1077;&#1088;&#1086;&#1074;&#1072;&#1085;&#1080;&#1081; JwtClaimsDto</text><polygon fill="#181818" points="461,670.6953,471,674.6953,461,678.6953,465,674.6953" style="stroke:#181818;stroke-width:1.0;"/><line style="stroke:#181818;stroke-width:1.0;" x1="89" x2="467" y1="674.6953" y2="674.6953"/><text fill="#000000" font-family="sans-serif" font-size="13" lengthAdjust="spacing" textLength="287" x="96" y="654.4966">&#1079;&#1073;&#1077;&#1088;&#1077;&#1075;&#1090;&#1080; &#1079;&#1073;&#1091;&#1076;&#1086;&#1074;&#1072;&#1085;&#1080;&#1081; UserDto &#1091; &#1082;&#1086;&#1085;&#1090;&#1077;&#1082;&#1089;&#1090;&#1110;</text><text fill="#000000" font-family="sans-serif" font-size="13" lengthAdjust="spacing" textLength="166" x="96" y="669.6294">&#1091; &#1103;&#1082;&#1086;&#1089;&#1090;&#1110; transient &#1079;&#1084;&#1110;&#1085;&#1085;&#1086;&#1111;</text><polygon fill="#181818" points="100,682.6953,90,686.6953,100,690.6953,96,686.6953" style="stroke:#181818;stroke-width:1.0;"/><line style="stroke:#181818;stroke-width:1.0;stroke-dasharray:2.0,2.0;" x1="94" x2="477" y1="686.6953" y2="686.6953"/><text fill="#000000" font-family="sans-serif" font-size="13" lengthAdjust="spacing" textLength="75" x="106" y="699.7622">&#1079;&#1073;&#1077;&#1088;&#1077;&#1078;&#1077;&#1085;&#1086;</text><polygon fill="#181818" points="11,711.8281,1,715.8281,11,719.8281,7,715.8281" style="stroke:#181818;stroke-width:1.0;"/><line style="stroke:#181818;stroke-width:1.0;stroke-dasharray:2.0,2.0;" x1="5" x2="83" y1="715.8281" y2="715.8281"/><text fill="#000000" font-family="sans-serif" font-size="13" lengthAdjust="spacing" textLength="53" x="17" y="728.895">UserDto</text><!--SRC=[jLRBRXen5Dtp5LOsQHT8wMCLLPLIqasbIfNQxhgnm8gi39wHnvGiaq5ADrMpgUYkwYSG0e5G8Bzm_KUvVi0CZyc0IXTHPZptd7lEzVKryIaN4PMqJYIBer34x3sBOth2th0WR1v96JQ9aWrMAX62SOfNUKI58djSSCMf2kMJftk4ncJ-Ja9POv8yErX6L6Yz8MgKl3rZrORYeI2LK2XsfYo-whywzFCLzCT8Sd52Zg8eu5Mw0e_TPuT-iOp-59uoyO7A63zYSEIUNF3B0-Ej_3frWA-qglXNgbXc4LTJZnW-4tn8uBTEz3aCOGmTdS2GwBQ-W8bkwH_w6oxVaS-OxbY51APmlQz_maWd68GXRNs9_mrgYWoTR6RFR_BIG1L22GnW0XsuWnxqyMcAkApYL-LoLl9Yy9OQYMLBkGzdOFp6WfXj87O2_UqKYqOGs80QMrUYRJO7nllwAg-81BguqeDxzE2UK9d-PSIE3SIzsen5EfPAVfcVTpV6a0n6ffJ_mvjTn3uip69t5lTLNq7NjvPkaTdXH-WKKGaIZFG5EcXRvWtsVQaGsUv3_TUw1Jtyw_fYpBkvYmf6LjlGvBFE_S4aNuGH07_rTmnvl3Ei1DlR6nHWLzuBKdbqNjyi5SnFo3MDWyLhcnJu3FUeDpCjFT4yWICfhTMT9YZaoqZEOqJ5VamZuH-imm3RjgFFSR8EDsftJ9mTG- -QgX9GNe_Tc5fmvHAjTvMA6C2DdLDzf9-QHlCxl8Ovuo-FUsSjdBPjObmNLILnLyM6LfYeFJw4KBPbwSEDwoNlOu5sviHioSePCAUmHV3468jkHKagOixmulxtgPiAlCtSCdbd9lzUMy1aVofWYHu0]--></g></svg>