<?xml version="1.0" encoding="us-ascii" standalone="no"?><svg xmlns="http://www.w3.org/2000/svg" xmlns:xlink="http://www.w3.org/1999/xlink" contentStyleType="text/css" height="978px" preserveAspectRatio="none" style="width:808px;height:978px;background:#FFFFFF;" version="1.1" viewBox="0 0 808 978" width="808px" zoomAndPan="magnify"><defs/><g><rect fill="none" height="148.7969" style="stroke:#000000;stroke-width:1.5;" width="458.5" x="205.5" y="273.0938"/><rect fill="none" height="75.3984" style="stroke:#000000;stroke-width:1.5;" width="585.5" x="205.5" y="722.9531"/><line style="stroke:#181818;stroke-width:0.5;stroke-dasharray:5.0,5.0;" x1="36" x2="36" y1="67.2969" y2="900.6172"/><line style="stroke:#181818;stroke-width:0.5;stroke-dasharray:5.0,5.0;" x1="231.5" x2="231.5" y1="67.2969" y2="900.6172"/><line style="stroke:#181818;stroke-width:0.5;stroke-dasharray:5.0,5.0;" x1="483" x2="483" y1="67.2969" y2="900.6172"/><line style="stroke:#181818;stroke-width:0.5;stroke-dasharray:5.0,5.0;" x1="571" x2="571" y1="67.2969" y2="900.6172"/><line style="stroke:#181818;stroke-width:0.5;stroke-dasharray:5.0,5.0;" x1="628" x2="628" y1="67.2969" y2="900.6172"/><line style="stroke:#181818;stroke-width:0.5;stroke-dasharray:5.0,5.0;" x1="722" x2="722" y1="67.2969" y2="900.6172"/><rect fill="#E3E3E3" height="30.2969" rx="2.5" ry="2.5" style="stroke:#181818;stroke-width:0.5;" width="63" x="5" y="36"/><text fill="#000000" font-family="sans-serif" font-size="14" lengthAdjust="spacing" textLength="49" x="12" y="55.9951">Jenkins</text><rect fill="#E3E3E3" height="30.2969" rx="2.5" ry="2.5" style="stroke:#181818;stroke-width:0.5;" width="63" x="5" y="899.6172"/><text fill="#000000" font-family="sans-serif" font-size="14" lengthAdjust="spacing" textLength="49" x="12" y="919.6123">Jenkins</text><text fill="#000000" font-family="sans-serif" font-size="14" lengthAdjust="spacing" textLength="21" x="218" y="63.9951">Job</text><ellipse cx="231.5" cy="35" fill="#E3E3E3" rx="12" ry="12" style="stroke:#181818;stroke-width:0.5;"/><polygon fill="#181818" points="227.5,23,233.5,18,231.5,23,233.5,28,227.5,23" style="stroke:#181818;stroke-width:1.0;"/><text fill="#000000" font-family="sans-serif" font-size="14" lengthAdjust="spacing" textLength="21" x="218" y="912.6123">Job</text><ellipse cx="231.5" cy="931.9141" fill="#E3E3E3" rx="12" ry="12" style="stroke:#181818;stroke-width:0.5;"/><polygon fill="#181818" points="227.5,919.9141,233.5,914.9141,231.5,919.9141,233.5,924.9141,227.5,919.9141" style="stroke:#181818;stroke-width:1.0;"/><text fill="#000000" font-family="sans-serif" font-size="14" lengthAdjust="spacing" textLength="107" x="427" y="63.9951">&#1040;&#1085;&#1072;&#1083;&#1110;&#1090;&#1080;&#1095;&#1085;&#1072; &#1041;&#1044;</text><path d="M465.5,15 C465.5,5 483.5,5 483.5,5 C483.5,5 501.5,5 501.5,15 L501.5,41 C501.5,51 483.5,51 483.5,51 C483.5,51 465.5,51 465.5,41 L465.5,15 " fill="#E3E3E3" style="stroke:#181818;stroke-width:1.5;"/><path d="M465.5,15 C465.5,25 483.5,25 483.5,25 C483.5,25 501.5,25 501.5,15 " fill="none" style="stroke:#181818;stroke-width:1.5;"/><text fill="#000000" font-family="sans-serif" font-size="14" lengthAdjust="spacing" textLength="107" x="427" y="912.6123">&#1040;&#1085;&#1072;&#1083;&#1110;&#1090;&#1080;&#1095;&#1085;&#1072; &#1041;&#1044;</text><path d="M465.5,925.9141 C465.5,915.9141 483.5,915.9141 483.5,915.9141 C483.5,915.9141 501.5,915.9141 501.5,925.9141 L501.5,951.9141 C501.5,961.9141 483.5,961.9141 483.5,961.9141 C483.5,961.9141 465.5,961.9141 465.5,951.9141 L465.5,925.9141 " fill="#E3E3E3" style="stroke:#181818;stroke-width:1.5;"/><path d="M465.5,925.9141 C465.5,935.9141 483.5,935.9141 483.5,935.9141 C483.5,935.9141 501.5,935.9141 501.5,925.9141 " fill="none" style="stroke:#181818;stroke-width:1.5;"/><rect fill="#E3E3E3" height="30.2969" rx="2.5" ry="2.5" style="stroke:#181818;stroke-width:0.5;" width="43" x="550" y="36"/><text fill="#000000" font-family="sans-serif" font-size="14" lengthAdjust="spacing" textLength="29" x="557" y="55.9951">&#1050;&#1045;&#1055;</text><rect fill="#E3E3E3" height="30.2969" rx="2.5" ry="2.5" style="stroke:#181818;stroke-width:0.5;" width="43" x="550" y="899.6172"/><text fill="#000000" font-family="sans-serif" font-size="14" lengthAdjust="spacing" textLength="29" x="557" y="919.6123">&#1050;&#1045;&#1055;</text><rect fill="#E3E3E3" height="30.2969" rx="2.5" ry="2.5" style="stroke:#181818;stroke-width:0.5;" width="51" x="603" y="36"/><text fill="#000000" font-family="sans-serif" font-size="14" lengthAdjust="spacing" textLength="37" x="610" y="55.9951">Ceph</text><rect fill="#E3E3E3" height="30.2969" rx="2.5" ry="2.5" style="stroke:#181818;stroke-width:0.5;" width="51" x="603" y="899.6172"/><text fill="#000000" font-family="sans-serif" font-size="14" lengthAdjust="spacing" textLength="37" x="610" y="919.6123">Ceph</text><rect fill="#E3E3E3" height="30.2969" rx="2.5" ry="2.5" style="stroke:#181818;stroke-width:0.5;" width="117" x="664" y="36"/><text fill="#000000" font-family="sans-serif" font-size="14" lengthAdjust="spacing" textLength="103" x="671" y="55.9951">&#1057;&#1077;&#1088;&#1074;&#1110;&#1089; &#1074;&#1080;&#1090;&#1103;&#1075;&#1110;&#1074;</text><rect fill="#E3E3E3" height="30.2969" rx="2.5" ry="2.5" style="stroke:#181818;stroke-width:0.5;" width="117" x="664" y="899.6172"/><text fill="#000000" font-family="sans-serif" font-size="14" lengthAdjust="spacing" textLength="103" x="671" y="919.6123">&#1057;&#1077;&#1088;&#1074;&#1110;&#1089; &#1074;&#1080;&#1090;&#1103;&#1075;&#1110;&#1074;</text><rect fill="#EEEEEE" height="3" style="stroke:#EEEEEE;stroke-width:1.0;" width="801" x="0" y="97.8633"/><line style="stroke:#000000;stroke-width:1.0;" x1="0" x2="801" y1="97.8633" y2="97.8633"/><line style="stroke:#000000;stroke-width:1.0;" x1="0" x2="801" y1="100.8633" y2="100.8633"/><rect fill="#EEEEEE" height="23.1328" style="stroke:#000000;stroke-width:2.0;" width="154" x="323.5" y="87.2969"/><text fill="#000000" font-family="sans-serif" font-size="13" font-weight="bold" lengthAdjust="spacing" textLength="135" x="329.5" y="103.3638">&#1054;&#1090;&#1088;&#1080;&#1084;&#1072;&#1085;&#1085;&#1103; &#1076;&#1072;&#1085;&#1080;&#1093;</text><polygon fill="#181818" points="219.5,152.6953,229.5,156.6953,219.5,160.6953,223.5,156.6953" style="stroke:#181818;stroke-width:1.0;"/><line style="stroke:#181818;stroke-width:1.0;" x1="36.5" x2="225.5" y1="156.6953" y2="156.6953"/><text fill="#000000" font-family="sans-serif" font-size="13" lengthAdjust="spacing" textLength="96" x="43.5" y="136.4966">&#1085;&#1072;&#1079;&#1074;&#1072; &#1090;&#1072;&#1073;&#1083;&#1080;&#1094;&#1110;</text><text fill="#000000" font-family="sans-serif" font-size="13" lengthAdjust="spacing" textLength="171" x="43.5" y="151.6294">&#1090;&#1072; &#1110;&#1076;&#1077;&#1085;&#1090;&#1080;&#1092;&#1110;&#1082;&#1072;&#1090;&#1086;&#1088; &#1079;&#1072;&#1087;&#1080;&#1089;&#1091;</text><polygon fill="#181818" points="471.5,181.8281,481.5,185.8281,471.5,189.8281,475.5,185.8281" style="stroke:#181818;stroke-width:1.0;"/><line style="stroke:#181818;stroke-width:1.0;" x1="231.5" x2="477.5" y1="185.8281" y2="185.8281"/><text fill="#000000" font-family="sans-serif" font-size="13" lengthAdjust="spacing" textLength="194" x="238.5" y="180.7622">&#1079;&#1072;&#1087;&#1080;&#1090; &#1076;&#1086; &#1110;&#1089;&#1090;&#1086;&#1088;&#1080;&#1095;&#1085;&#1086;&#1111; &#1090;&#1072;&#1073;&#1083;&#1080;&#1094;&#1110;</text><polygon fill="#181818" points="242.5,210.9609,232.5,214.9609,242.5,218.9609,238.5,214.9609" style="stroke:#181818;stroke-width:1.0;"/><line style="stroke:#181818;stroke-width:1.0;stroke-dasharray:2.0,2.0;" x1="236.5" x2="482.5" y1="214.9609" y2="214.9609"/><text fill="#000000" font-family="sans-serif" font-size="13" lengthAdjust="spacing" textLength="95" x="248.5" y="209.895">&#1110;&#1089;&#1090;&#1086;&#1088;&#1080;&#1095;&#1085;&#1110; &#1076;&#1072;&#1085;&#1110;</text><rect fill="#EEEEEE" height="3" style="stroke:#EEEEEE;stroke-width:1.0;" width="801" x="0" y="243.5273"/><line style="stroke:#000000;stroke-width:1.0;" x1="0" x2="801" y1="243.5273" y2="243.5273"/><line style="stroke:#000000;stroke-width:1.0;" x1="0" x2="801" y1="246.5273" y2="246.5273"/><rect fill="#EEEEEE" height="23.1328" style="stroke:#000000;stroke-width:2.0;" width="157" x="322" y="232.9609"/><text fill="#000000" font-family="sans-serif" font-size="13" font-weight="bold" lengthAdjust="spacing" textLength="138" x="328" y="249.0278">&#1047;&#1073;&#1072;&#1075;&#1072;&#1095;&#1077;&#1085;&#1085;&#1103; &#1076;&#1072;&#1085;&#1080;&#1093;</text><path d="M205.5,273.0938 L282.5,273.0938 L282.5,280.2266 L272.5,290.2266 L205.5,290.2266 L205.5,273.0938 " fill="#EEEEEE" style="stroke:#000000;stroke-width:1.5;"/><rect fill="none" height="148.7969" style="stroke:#000000;stroke-width:1.5;" width="458.5" x="205.5" y="273.0938"/><text fill="#000000" font-family="sans-serif" font-size="13" font-weight="bold" lengthAdjust="spacing" textLength="32" x="220.5" y="286.1606">loop</text><text fill="#000000" font-family="sans-serif" font-size="11" font-weight="bold" lengthAdjust="spacing" textLength="142" x="297.5" y="285.3042">[&#1076;&#1083;&#1103; &#1082;&#1086;&#1078;&#1085;&#1086;&#1075;&#1086; &#1079;&#1072;&#1087;&#1080;&#1089;&#1091;]</text><polygon fill="#181818" points="616.5,322.4922,626.5,326.4922,616.5,330.4922,620.5,326.4922" style="stroke:#181818;stroke-width:1.0;"/><line style="stroke:#181818;stroke-width:1.0;" x1="231.5" x2="622.5" y1="326.4922" y2="326.4922"/><text fill="#000000" font-family="sans-serif" font-size="13" lengthAdjust="spacing" textLength="208" x="238.5" y="306.2935">&#1086;&#1090;&#1088;&#1080;&#1084;&#1072;&#1085;&#1085;&#1103; &#1094;&#1080;&#1092;&#1088;&#1086;&#1074;&#1086;&#1075;&#1086; &#1087;&#1110;&#1076;&#1087;&#1080;&#1089;&#1091;</text><text fill="#000000" font-family="sans-serif" font-size="13" lengthAdjust="spacing" textLength="75" x="238.5" y="321.4263">&#1076;&#1083;&#1103; &#1079;&#1072;&#1087;&#1080;&#1089;&#1091;</text><polygon fill="#181818" points="242.5,351.625,232.5,355.625,242.5,359.625,238.5,355.625" style="stroke:#181818;stroke-width:1.0;"/><line style="stroke:#181818;stroke-width:1.0;stroke-dasharray:2.0,2.0;" x1="236.5" x2="627.5" y1="355.625" y2="355.625"/><text fill="#000000" font-family="sans-serif" font-size="13" lengthAdjust="spacing" textLength="116" x="248.5" y="350.5591">&#1094;&#1080;&#1092;&#1088;&#1086;&#1074;&#1080;&#1081; &#1087;&#1110;&#1076;&#1087;&#1080;&#1089;</text><polygon fill="#181818" points="559.5,380.7578,569.5,384.7578,559.5,388.7578,563.5,384.7578" style="stroke:#181818;stroke-width:1.0;"/><line style="stroke:#181818;stroke-width:1.0;" x1="231.5" x2="565.5" y1="384.7578" y2="384.7578"/><text fill="#000000" font-family="sans-serif" font-size="13" lengthAdjust="spacing" textLength="225" x="238.5" y="379.6919">&#1086;&#1090;&#1088;&#1080;&#1084;&#1072;&#1085;&#1085;&#1103; &#1110;&#1085;&#1092;&#1086;&#1088;&#1084;&#1072;&#1094;&#1110;&#1111; &#1087;&#1088;&#1086; &#1087;&#1110;&#1076;&#1087;&#1080;&#1089;</text><polygon fill="#181818" points="242.5,409.8906,232.5,413.8906,242.5,417.8906,238.5,413.8906" style="stroke:#181818;stroke-width:1.0;"/><line style="stroke:#181818;stroke-width:1.0;stroke-dasharray:2.0,2.0;" x1="236.5" x2="570.5" y1="413.8906" y2="413.8906"/><text fill="#000000" font-family="sans-serif" font-size="13" lengthAdjust="spacing" textLength="77" x="248.5" y="408.8247">&#1044;&#1056;&#1060;&#1054;, &#1055;.&#1030;.&#1041;</text><rect fill="#EEEEEE" height="3" style="stroke:#EEEEEE;stroke-width:1.0;" width="801" x="0" y="449.457"/><line style="stroke:#000000;stroke-width:1.0;" x1="0" x2="801" y1="449.457" y2="449.457"/><line style="stroke:#000000;stroke-width:1.0;" x1="0" x2="801" y1="452.457" y2="452.457"/><rect fill="#EEEEEE" height="23.1328" style="stroke:#000000;stroke-width:2.0;" width="116" x="342.5" y="438.8906"/><text fill="#000000" font-family="sans-serif" font-size="13" font-weight="bold" lengthAdjust="spacing" textLength="97" x="348.5" y="454.9575">&#1047;&#1072;&#1087;&#1080;&#1090; &#1074;&#1080;&#1090;&#1103;&#1075;&#1091;</text><line style="stroke:#181818;stroke-width:1.0;" x1="231.5" x2="273.5" y1="508.2891" y2="508.2891"/><line style="stroke:#181818;stroke-width:1.0;" x1="273.5" x2="273.5" y1="508.2891" y2="521.2891"/><line style="stroke:#181818;stroke-width:1.0;" x1="232.5" x2="273.5" y1="521.2891" y2="521.2891"/><polygon fill="#181818" points="242.5,517.2891,232.5,521.2891,242.5,525.2891,238.5,521.2891" style="stroke:#181818;stroke-width:1.0;"/><text fill="#000000" font-family="sans-serif" font-size="13" lengthAdjust="spacing" textLength="134" x="238.5" y="488.0903">&#1092;&#1086;&#1088;&#1084;&#1091;&#1074;&#1072;&#1085;&#1085;&#1103; &#1079;&#1072;&#1087;&#1080;&#1090;&#1091;</text><text fill="#000000" font-family="sans-serif" font-size="13" lengthAdjust="spacing" textLength="154" x="238.5" y="503.2231">&#1085;&#1072; &#1092;&#1086;&#1088;&#1084;&#1091;&#1074;&#1072;&#1085;&#1085;&#1103; &#1074;&#1080;&#1090;&#1103;&#1075;&#1091;</text><polygon fill="#181818" points="559.5,546.4219,569.5,550.4219,559.5,554.4219,563.5,550.4219" style="stroke:#181818;stroke-width:1.0;"/><line style="stroke:#181818;stroke-width:1.0;" x1="231.5" x2="565.5" y1="550.4219" y2="550.4219"/><text fill="#000000" font-family="sans-serif" font-size="13" lengthAdjust="spacing" textLength="216" x="238.5" y="545.356">&#1085;&#1072;&#1082;&#1083;&#1072;&#1076;&#1072;&#1085;&#1085;&#1103; &#1094;&#1080;&#1092;&#1088;&#1086;&#1074;&#1086;&#1075;&#1086; &#1087;&#1110;&#1076;&#1087;&#1080;&#1089;&#1091;</text><polygon fill="#181818" points="242.5,560.4219,232.5,564.4219,242.5,568.4219,238.5,564.4219" style="stroke:#181818;stroke-width:1.0;"/><line style="stroke:#181818;stroke-width:1.0;stroke-dasharray:2.0,2.0;" x1="236.5" x2="570.5" y1="564.4219" y2="564.4219"/><polygon fill="#181818" points="710.5,589.5547,720.5,593.5547,710.5,597.5547,714.5,593.5547" style="stroke:#181818;stroke-width:1.0;"/><line style="stroke:#181818;stroke-width:1.0;" x1="231.5" x2="716.5" y1="593.5547" y2="593.5547"/><text fill="#000000" font-family="sans-serif" font-size="13" lengthAdjust="spacing" textLength="187" x="238.5" y="588.4888">&#1079;&#1072;&#1087;&#1080;&#1090; &#1085;&#1072; &#1089;&#1090;&#1074;&#1086;&#1088;&#1077;&#1085;&#1085;&#1103; &#1074;&#1080;&#1090;&#1103;&#1075;&#1091;</text><polygon fill="#181818" points="242.5,618.6875,232.5,622.6875,242.5,626.6875,238.5,622.6875" style="stroke:#181818;stroke-width:1.0;"/><line style="stroke:#181818;stroke-width:1.0;stroke-dasharray:2.0,2.0;" x1="236.5" x2="721.5" y1="622.6875" y2="622.6875"/><text fill="#000000" font-family="sans-serif" font-size="13" lengthAdjust="spacing" textLength="152" x="248.5" y="617.6216">&#1110;&#1076;&#1077;&#1085;&#1090;&#1080;&#1092;&#1110;&#1082;&#1072;&#1090;&#1086;&#1088; &#1074;&#1080;&#1090;&#1103;&#1075;&#1091;</text><rect fill="#EEEEEE" height="3" style="stroke:#EEEEEE;stroke-width:1.0;" width="801" x="0" y="651.2539"/><line style="stroke:#000000;stroke-width:1.0;" x1="0" x2="801" y1="651.2539" y2="651.2539"/><line style="stroke:#000000;stroke-width:1.0;" x1="0" x2="801" y1="654.2539" y2="654.2539"/><rect fill="#EEEEEE" height="23.1328" style="stroke:#000000;stroke-width:2.0;" width="211" x="295" y="640.6875"/><text fill="#000000" font-family="sans-serif" font-size="13" font-weight="bold" lengthAdjust="spacing" textLength="192" x="301" y="656.7544">&#1054;&#1095;&#1110;&#1082;&#1091;&#1074;&#1072;&#1085;&#1085;&#1103; &#1079;&#1084;&#1110;&#1085;&#1080; &#1089;&#1090;&#1072;&#1090;&#1091;&#1089;&#1091;</text><line style="stroke:#181818;stroke-width:1.0;" x1="231.5" x2="273.5" y1="694.9531" y2="694.9531"/><line style="stroke:#181818;stroke-width:1.0;" x1="273.5" x2="273.5" y1="694.9531" y2="707.9531"/><line style="stroke:#181818;stroke-width:1.0;" x1="232.5" x2="273.5" y1="707.9531" y2="707.9531"/><polygon fill="#181818" points="242.5,703.9531,232.5,707.9531,242.5,711.9531,238.5,707.9531" style="stroke:#181818;stroke-width:1.0;"/><text fill="#000000" font-family="sans-serif" font-size="13" lengthAdjust="spacing" textLength="238" x="238.5" y="689.8872">&#1087;&#1086;&#1073;&#1091;&#1076;&#1086;&#1074;&#1072; &#1079;&#1072;&#1087;&#1080;&#1090;&#1091; &#1085;&#1072; &#1089;&#1090;&#1072;&#1090;&#1091;&#1089; &#1074;&#1080;&#1090;&#1103;&#1075;&#1091;</text><path d="M205.5,722.9531 L282.5,722.9531 L282.5,730.0859 L272.5,740.0859 L205.5,740.0859 L205.5,722.9531 " fill="#EEEEEE" style="stroke:#000000;stroke-width:1.5;"/><rect fill="none" height="75.3984" style="stroke:#000000;stroke-width:1.5;" width="585.5" x="205.5" y="722.9531"/><text fill="#000000" font-family="sans-serif" font-size="13" font-weight="bold" lengthAdjust="spacing" textLength="32" x="220.5" y="736.02">loop</text><polygon fill="#181818" points="710.5,757.2188,720.5,761.2188,710.5,765.2188,714.5,761.2188" style="stroke:#181818;stroke-width:1.0;"/><line style="stroke:#181818;stroke-width:1.0;" x1="231.5" x2="716.5" y1="761.2188" y2="761.2188"/><text fill="#000000" font-family="sans-serif" font-size="13" lengthAdjust="spacing" textLength="125" x="238.5" y="756.1528">&#1087;&#1077;&#1088;&#1077;&#1074;&#1110;&#1088;&#1082;&#1072; &#1089;&#1090;&#1072;&#1090;&#1091;&#1089;&#1091;</text><polygon fill="#181818" points="242.5,786.3516,232.5,790.3516,242.5,794.3516,238.5,790.3516" style="stroke:#181818;stroke-width:1.0;"/><line style="stroke:#181818;stroke-width:1.0;stroke-dasharray:2.0,2.0;" x1="236.5" x2="721.5" y1="790.3516" y2="790.3516"/><text fill="#000000" font-family="sans-serif" font-size="13" lengthAdjust="spacing" textLength="98" x="248.5" y="785.2856">&#1089;&#1090;&#1072;&#1090;&#1091;&#1089; &#1079;&#1072;&#1087;&#1080;&#1090;&#1091;</text><rect fill="#EEEEEE" height="3" style="stroke:#EEEEEE;stroke-width:1.0;" width="801" x="0" y="825.918"/><line style="stroke:#000000;stroke-width:1.0;" x1="0" x2="801" y1="825.918" y2="825.918"/><line style="stroke:#000000;stroke-width:1.0;" x1="0" x2="801" y1="828.918" y2="828.918"/><rect fill="#EEEEEE" height="23.1328" style="stroke:#000000;stroke-width:2.0;" width="167" x="317" y="815.3516"/><text fill="#000000" font-family="sans-serif" font-size="13" font-weight="bold" lengthAdjust="spacing" textLength="148" x="323" y="831.4185">&#1054;&#1085;&#1086;&#1074;&#1083;&#1077;&#1085;&#1085;&#1103; &#1088;&#1077;&#1089;&#1091;&#1088;&#1089;&#1091;</text><line style="stroke:#181818;stroke-width:1.0;" x1="231.5" x2="273.5" y1="869.6172" y2="869.6172"/><line style="stroke:#181818;stroke-width:1.0;" x1="273.5" x2="273.5" y1="869.6172" y2="882.6172"/><line style="stroke:#181818;stroke-width:1.0;" x1="232.5" x2="273.5" y1="882.6172" y2="882.6172"/><polygon fill="#181818" points="242.5,878.6172,232.5,882.6172,242.5,886.6172,238.5,882.6172" style="stroke:#181818;stroke-width:1.0;"/><text fill="#000000" font-family="sans-serif" font-size="13" lengthAdjust="spacing" textLength="238" x="238.5" y="864.5513">&#1076;&#1086;&#1076;&#1072;&#1074;&#1072;&#1085;&#1085;&#1103; &#1072;&#1085;&#1086;&#1090;&#1072;&#1094;&#1110;&#1111; &#1076;&#1086; &#1088;&#1077;&#1089;&#1091;&#1088;&#1089;&#1091; Job</text><!--SRC=[ZLH1Rjim4Bpp5GkVspp0W7FfhM_eHPQ5Hcqi6PAIis8dzZ4Da3f03quBz06COhUg7SjVMFwekwGaYueAr1TJv79sPZXa_DaF9axaZ64S1g5x5eLZ3vBemXCqc_YkFt6217hllO0AunuuCNmoO-66GHA5vxGO3ir2E1GZ9t66Jkn13x_W7YNkr59DCLSB_WAymtjTEnhQ3V0RViL7lHJx7mDxyPqtETDBBWrQ-txWHgMOKPShm8mQJTKjFgibPWRCYovzrnE30U2ArbBCyOLexN6lRW7NUfYh6nWCH2aCtfwob3ve_hy9L099aFY4EogTgoLy27W2gCiQDuJ40g_fQukIneLAWVP9FD3qbPe9GcFG4MDMyrDkNW3pDbjAZmhrqEec8Y-vY89NfSJ3yASIblT0MoG-4uK5a-eGU1w64vxQySeM2_p53MbBOVC5-fMSsV4-07LjUwVcMdHA05a5Sj2Eb33aKjMh3LufQaBa-CS2QBBWIFGxIIpfxrfxGfFi5jb7A6cBJRChtkDt_8chDu2F9pW_mJlX1QFImlfmZb6QwMmO8ZeNLKCrusnKJjS7QvHpshiB6yZ2riTvszAno_BO_ilcCXurb0cydJHDXiEJQKARBYfrolwTwMQvkL0BBcZxyCAdWhdfADaG7OUMYyIjm2VQkzRIfEtWaN89O7Vd9BzMVD1lmKQ_1YaJRr6eDLguZRPr45RwOcHq5fLN3CmOAkqKmoBuq1f6I7sRfyTOwljkmz3J-HS0]--></g></svg>