<?xml version="1.0" encoding="us-ascii" standalone="no"?><svg xmlns="http://www.w3.org/2000/svg" xmlns:xlink="http://www.w3.org/1999/xlink" contentStyleType="text/css" height="793px" preserveAspectRatio="none" style="width:2750px;height:793px;background:#FFFFFF;" version="1.1" viewBox="0 0 2750 793" width="2750px" zoomAndPan="magnify"><defs/><g><!--cluster el--><g id="cluster_el"><path d="M1127,6 L1142,6 A3.75,3.75 0 0 1 1144.5,8.5 L1151.5,28.2969 L2055,28.2969 A2.5,2.5 0 0 1 2057.5,30.7969 L2057.5,419.13 A2.5,2.5 0 0 1 2055,421.63 L1127,421.63 A2.5,2.5 0 0 1 1124.5,419.13 L1124.5,8.5 A2.5,2.5 0 0 1 1127,6 " fill="none" style="stroke:#000000;stroke-width:1.5;"/><line style="stroke:#000000;stroke-width:1.5;" x1="1124.5" x2="1151.5" y1="28.2969" y2="28.2969"/><text fill="#000000" font-family="sans-serif" font-size="14" font-weight="bold" lengthAdjust="spacing" textLength="14" x="1128.5" y="20.9951">el</text></g><!--cluster juel--><g id="cluster_juel"><path d="M1151,49 L1180,49 A3.75,3.75 0 0 1 1182.5,51.5 L1189.5,71.2969 L2031,71.2969 A2.5,2.5 0 0 1 2033.5,73.7969 L2033.5,395.13 A2.5,2.5 0 0 1 2031,397.63 L1151,397.63 A2.5,2.5 0 0 1 1148.5,395.13 L1148.5,51.5 A2.5,2.5 0 0 1 1151,49 " fill="none" style="stroke:#000000;stroke-width:1.5;"/><line style="stroke:#000000;stroke-width:1.5;" x1="1148.5" x2="1189.5" y1="71.2969" y2="71.2969"/><text fill="#000000" font-family="sans-serif" font-size="14" font-weight="bold" lengthAdjust="spacing" textLength="28" x="1152.5" y="63.9951">juel</text></g><!--cluster mapper--><g id="cluster_mapper"><path d="M1566,92 L1627,92 A3.75,3.75 0 0 1 1629.5,94.5 L1636.5,114.2969 L2007,114.2969 A2.5,2.5 0 0 1 2009.5,116.7969 L2009.5,358.54 A2.5,2.5 0 0 1 2007,361.04 L1566,361.04 A2.5,2.5 0 0 1 1563.5,358.54 L1563.5,94.5 A2.5,2.5 0 0 1 1566,92 " fill="none" style="stroke:#000000;stroke-width:1.5;"/><line style="stroke:#000000;stroke-width:1.5;" x1="1563.5" x2="1636.5" y1="114.2969" y2="114.2969"/><text fill="#000000" font-family="sans-serif" font-size="14" font-weight="bold" lengthAdjust="spacing" textLength="60" x="1567.5" y="106.9951">mapper</text></g><!--cluster scripting--><g id="cluster_scripting"><path d="M341,470.63 L411,470.63 A3.75,3.75 0 0 1 413.5,473.13 L420.5,492.9269 L1238,492.9269 A2.5,2.5 0 0 1 1240.5,495.4269 L1240.5,783.58 A2.5,2.5 0 0 1 1238,786.08 L341,786.08 A2.5,2.5 0 0 1 338.5,783.58 L338.5,473.13 A2.5,2.5 0 0 1 341,470.63 " fill="none" style="stroke:#000000;stroke-width:1.5;"/><line style="stroke:#000000;stroke-width:1.5;" x1="338.5" x2="420.5" y1="492.9269" y2="492.9269"/><text fill="#000000" font-family="sans-serif" font-size="14" font-weight="bold" lengthAdjust="spacing" textLength="69" x="342.5" y="485.6251">scripting</text></g><!--cluster groovy--><g id="cluster_groovy"><path d="M851,513.63 L907,513.63 A3.75,3.75 0 0 1 909.5,516.13 L916.5,535.9269 L1214,535.9269 A2.5,2.5 0 0 1 1216.5,538.4269 L1216.5,759.58 A2.5,2.5 0 0 1 1214,762.08 L851,762.08 A2.5,2.5 0 0 1 848.5,759.58 L848.5,516.13 A2.5,2.5 0 0 1 851,513.63 " fill="none" style="stroke:#000000;stroke-width:1.5;"/><line style="stroke:#000000;stroke-width:1.5;" x1="848.5" x2="916.5" y1="535.9269" y2="535.9269"/><text fill="#000000" font-family="sans-serif" font-size="14" font-weight="bold" lengthAdjust="spacing" textLength="55" x="852.5" y="528.6251">groovy</text></g><!--class AbstractApplicationContextAwareJuelFunction--><g id="elem_AbstractApplicationContextAwareJuelFunction"><rect codeLine="18" fill="#ADD8E6" height="137.4844" id="AbstractApplicationContextAwareJuelFunction" rx="2.5" ry="2.5" style="stroke:#008000;stroke-width:0.5;" width="379" x="1165" y="244.15"/><ellipse cx="1195.75" cy="260.15" fill="#A9DCDF" rx="11" ry="11" style="stroke:#181818;stroke-width:1.0;"/><path d="M1195.8594,255.4938 L1194.7031,260.5719 L1197.0313,260.5719 L1195.8594,255.4938 Z M1194.375,253.2594 L1197.3594,253.2594 L1200.7188,265.65 L1198.2656,265.65 L1197.5,262.5875 L1194.2188,262.5875 L1193.4688,265.65 L1191.0313,265.65 L1194.375,253.2594 Z " fill="#000000"/><text fill="#000000" font-family="sans-serif" font-size="14" font-style="italic" lengthAdjust="spacing" textLength="312" x="1213.25" y="264.9967">AbstractApplicationContextAwareJuelFunction</text><line style="stroke:#008000;stroke-width:0.5;" x1="1166" x2="1543" y1="276.15" y2="276.15"/><rect fill="none" height="6" style="stroke:#C82930;stroke-width:1.0;" width="6" x="1173" y="286.7984"/><text fill="#000000" font-family="sans-serif" font-size="14" lengthAdjust="spacing" text-decoration="underline" textLength="261" x="1185" y="293.1451">ApplicationContext applicationContext</text><line style="stroke:#008000;stroke-width:1.0;" x1="1166" x2="1543" y1="300.4469" y2="300.4469"/><ellipse cx="1176" cy="314.0953" fill="#84BE84" rx="3" ry="3" style="stroke:#038048;stroke-width:1.0;"/><text fill="#000000" font-family="sans-serif" font-size="14" lengthAdjust="spacing" textLength="353" x="1185" y="317.442">final void setApplicationContext(ApplicationContext)</text><ellipse cx="1176" cy="330.3922" fill="#84BE84" rx="3" ry="3" style="stroke:#038048;stroke-width:1.0;"/><text fill="#000000" font-family="sans-serif" font-size="14" lengthAdjust="spacing" textLength="227" x="1185" y="333.7389">Method getJuelFunctionMethod()</text><line style="stroke:#008000;stroke-width:1.0;stroke-dasharray:1.0,2.0;" x1="1166" x2="1543" y1="341.0406" y2="341.0406"/><polygon fill="#FFFF44" points="1176,349.6891,1180,353.6891,1176,357.6891,1172,353.6891" style="stroke:#B38D22;stroke-width:1.0;"/><text fill="#000000" font-family="sans-serif" font-size="14" lengthAdjust="spacing" text-decoration="underline" textLength="206" x="1185" y="358.0357">CoreExecution getExecution()</text><polygon fill="#FFFF44" points="1176,365.9859,1180,369.9859,1176,373.9859,1172,369.9859" style="stroke:#B38D22;stroke-width:1.0;"/><text fill="#000000" font-family="sans-serif" font-size="14" lengthAdjust="spacing" text-decoration="underline" textLength="189" x="1185" y="374.3326">&lt;T&gt; T getBean(Class&lt;T&gt;)</text></g><!--class ApplicationContextAware--><g id="elem_ApplicationContextAware"><rect fill="#F1F1F1" height="48" id="ApplicationContextAware" rx="2.5" ry="2.5" style="stroke:#181818;stroke-width:0.5;" width="203" x="1253" y="127"/><ellipse cx="1268" cy="143" fill="#B4A7E5" rx="11" ry="11" style="stroke:#181818;stroke-width:1.0;"/><path d="M1263.9219,138.7656 L1263.9219,136.6094 L1271.3125,136.6094 L1271.3125,138.7656 L1268.8438,138.7656 L1268.8438,146.8438 L1271.3125,146.8438 L1271.3125,149 L1263.9219,149 L1263.9219,146.8438 L1266.3906,146.8438 L1266.3906,138.7656 L1263.9219,138.7656 Z " fill="#000000"/><text fill="#000000" font-family="sans-serif" font-size="14" font-style="italic" lengthAdjust="spacing" textLength="171" x="1282" y="147.8467">ApplicationContextAware</text><line style="stroke:#181818;stroke-width:0.5;" x1="1254" x2="1455" y1="159" y2="159"/><line style="stroke:#181818;stroke-width:0.5;" x1="1254" x2="1455" y1="167" y2="167"/></g><!--class CompositeApplicationContextAwareJuelFunctionMapper--><g id="elem_CompositeApplicationContextAwareJuelFunctionMapper"><rect codeLine="28" fill="#ADD8E6" height="64.2969" id="CompositeApplicationContextAwareJuelFunctionMapper" rx="2.5" ry="2.5" style="stroke:#008000;stroke-width:0.5;" width="414" x="1579.5" y="280.74"/><ellipse cx="1594.5" cy="296.74" fill="#ADD1B2" rx="11" ry="11" style="stroke:#181818;stroke-width:1.0;"/><path d="M1597.4688,302.3806 Q1596.8906,302.6775 1596.25,302.8181 Q1595.6094,302.9744 1594.9063,302.9744 Q1592.4063,302.9744 1591.0781,301.3338 Q1589.7656,299.6775 1589.7656,296.5525 Q1589.7656,293.4275 1591.0781,291.7713 Q1592.4063,290.115 1594.9063,290.115 Q1595.6094,290.115 1596.25,290.2713 Q1596.9063,290.4275 1597.4688,290.7244 L1597.4688,293.4431 Q1596.8438,292.865 1596.25,292.5994 Q1595.6563,292.3181 1595.0313,292.3181 Q1593.6875,292.3181 1593,293.3963 Q1592.3125,294.4588 1592.3125,296.5525 Q1592.3125,298.6463 1593,299.7244 Q1593.6875,300.7869 1595.0313,300.7869 Q1595.6563,300.7869 1596.25,300.5213 Q1596.8438,300.24 1597.4688,299.6619 L1597.4688,302.3806 Z " fill="#000000"/><text fill="#000000" font-family="sans-serif" font-size="14" lengthAdjust="spacing" textLength="382" x="1608.5" y="301.5867">CompositeApplicationContextAwareJuelFunctionMapper</text><line style="stroke:#008000;stroke-width:0.5;" x1="1580.5" x2="1992.5" y1="312.74" y2="312.74"/><line style="stroke:#008000;stroke-width:0.5;" x1="1580.5" x2="1992.5" y1="320.74" y2="320.74"/><ellipse cx="1590.5" cy="334.3884" fill="#84BE84" rx="3" ry="3" style="stroke:#038048;stroke-width:1.0;"/><text fill="#000000" font-family="sans-serif" font-size="14" lengthAdjust="spacing" textLength="265" x="1599.5" y="337.7351">Method resolveFunction(String, String)</text></g><!--class FunctionMapper--><g id="elem_FunctionMapper"><rect fill="#F1F1F1" height="48" id="FunctionMapper" rx="2.5" ry="2.5" style="stroke:#181818;stroke-width:0.5;" width="144" x="1714.5" y="127"/><ellipse cx="1729.5" cy="143" fill="#ADD1B2" rx="11" ry="11" style="stroke:#181818;stroke-width:1.0;"/><path d="M1732.4688,148.6406 Q1731.8906,148.9375 1731.25,149.0781 Q1730.6094,149.2344 1729.9063,149.2344 Q1727.4063,149.2344 1726.0781,147.5938 Q1724.7656,145.9375 1724.7656,142.8125 Q1724.7656,139.6875 1726.0781,138.0313 Q1727.4063,136.375 1729.9063,136.375 Q1730.6094,136.375 1731.25,136.5313 Q1731.9063,136.6875 1732.4688,136.9844 L1732.4688,139.7031 Q1731.8438,139.125 1731.25,138.8594 Q1730.6563,138.5781 1730.0313,138.5781 Q1728.6875,138.5781 1728,139.6563 Q1727.3125,140.7188 1727.3125,142.8125 Q1727.3125,144.9063 1728,145.9844 Q1728.6875,147.0469 1730.0313,147.0469 Q1730.6563,147.0469 1731.25,146.7813 Q1731.8438,146.5 1732.4688,145.9219 L1732.4688,148.6406 Z " fill="#000000"/><text fill="#000000" font-family="sans-serif" font-size="14" lengthAdjust="spacing" textLength="112" x="1743.5" y="147.8467">FunctionMapper</text><line style="stroke:#181818;stroke-width:0.5;" x1="1715.5" x2="1857.5" y1="159" y2="159"/><line style="stroke:#181818;stroke-width:0.5;" x1="1715.5" x2="1857.5" y1="167" y2="167"/></g><!--class StaticJavaFunctionsProcessEnginePlugin--><g id="elem_StaticJavaFunctionsProcessEnginePlugin"><rect codeLine="52" fill="#ADD8E6" height="64.2969" id="StaticJavaFunctionsProcessEnginePlugin" rx="2.5" ry="2.5" style="stroke:#008000;stroke-width:0.5;" width="343" x="355" y="681.78"/><ellipse cx="384.85" cy="697.78" fill="#ADD1B2" rx="11" ry="11" style="stroke:#181818;stroke-width:1.0;"/><path d="M387.8188,703.4206 Q387.2406,703.7175 386.6,703.8581 Q385.9594,704.0144 385.2563,704.0144 Q382.7563,704.0144 381.4281,702.3738 Q380.1156,700.7175 380.1156,697.5925 Q380.1156,694.4675 381.4281,692.8113 Q382.7563,691.155 385.2563,691.155 Q385.9594,691.155 386.6,691.3113 Q387.2563,691.4675 387.8188,691.7644 L387.8188,694.4831 Q387.1938,693.905 386.6,693.6394 Q386.0063,693.3581 385.3813,693.3581 Q384.0375,693.3581 383.35,694.4363 Q382.6625,695.4988 382.6625,697.5925 Q382.6625,699.6863 383.35,700.7644 Q384.0375,701.8269 385.3813,701.8269 Q386.0063,701.8269 386.6,701.5613 Q387.1938,701.28 387.8188,700.7019 L387.8188,703.4206 Z " fill="#000000"/><text fill="#000000" font-family="sans-serif" font-size="14" lengthAdjust="spacing" textLength="278" x="402.15" y="702.6267">StaticJavaFunctionsProcessEnginePlugin</text><line style="stroke:#008000;stroke-width:0.5;" x1="356" x2="697" y1="713.78" y2="713.78"/><line style="stroke:#008000;stroke-width:0.5;" x1="356" x2="697" y1="721.78" y2="721.78"/><ellipse cx="366" cy="735.4284" fill="#84BE84" rx="3" ry="3" style="stroke:#038048;stroke-width:1.0;"/><text fill="#000000" font-family="sans-serif" font-size="14" lengthAdjust="spacing" textLength="317" x="375" y="738.7751">void postInit(ProcessEngineConfigurationImpl)</text></g><!--class AbstractProcessEnginePlugin--><g id="elem_AbstractProcessEnginePlugin"><rect fill="#F1F1F1" height="48" id="AbstractProcessEnginePlugin" rx="2.5" ry="2.5" style="stroke:#181818;stroke-width:0.5;" width="235" x="409" y="548.63"/><ellipse cx="424" cy="564.63" fill="#ADD1B2" rx="11" ry="11" style="stroke:#181818;stroke-width:1.0;"/><path d="M426.9688,570.2706 Q426.3906,570.5675 425.75,570.7081 Q425.1094,570.8644 424.4063,570.8644 Q421.9063,570.8644 420.5781,569.2238 Q419.2656,567.5675 419.2656,564.4425 Q419.2656,561.3175 420.5781,559.6613 Q421.9063,558.005 424.4063,558.005 Q425.1094,558.005 425.75,558.1613 Q426.4063,558.3175 426.9688,558.6144 L426.9688,561.3331 Q426.3438,560.755 425.75,560.4894 Q425.1563,560.2081 424.5313,560.2081 Q423.1875,560.2081 422.5,561.2863 Q421.8125,562.3488 421.8125,564.4425 Q421.8125,566.5363 422.5,567.6144 Q423.1875,568.6769 424.5313,568.6769 Q425.1563,568.6769 425.75,568.4113 Q426.3438,568.13 426.9688,567.5519 L426.9688,570.2706 Z " fill="#000000"/><text fill="#000000" font-family="sans-serif" font-size="14" lengthAdjust="spacing" textLength="203" x="438" y="569.4767">AbstractProcessEnginePlugin</text><line style="stroke:#181818;stroke-width:0.5;" x1="410" x2="643" y1="580.63" y2="580.63"/><line style="stroke:#181818;stroke-width:0.5;" x1="410" x2="643" y1="588.63" y2="588.63"/></g><!--class StaticJavaFunctionsGroovyScriptEnvResolver--><g id="elem_StaticJavaFunctionsGroovyScriptEnvResolver"><rect codeLine="48" fill="#ADD8E6" height="64.2969" id="StaticJavaFunctionsGroovyScriptEnvResolver" rx="2.5" ry="2.5" style="stroke:#008000;stroke-width:0.5;" width="336" x="864.5" y="681.78"/><ellipse cx="879.5" cy="697.78" fill="#ADD1B2" rx="11" ry="11" style="stroke:#181818;stroke-width:1.0;"/><path d="M882.4688,703.4206 Q881.8906,703.7175 881.25,703.8581 Q880.6094,704.0144 879.9063,704.0144 Q877.4063,704.0144 876.0781,702.3738 Q874.7656,700.7175 874.7656,697.5925 Q874.7656,694.4675 876.0781,692.8113 Q877.4063,691.155 879.9063,691.155 Q880.6094,691.155 881.25,691.3113 Q881.9063,691.4675 882.4688,691.7644 L882.4688,694.4831 Q881.8438,693.905 881.25,693.6394 Q880.6563,693.3581 880.0313,693.3581 Q878.6875,693.3581 878,694.4363 Q877.3125,695.4988 877.3125,697.5925 Q877.3125,699.6863 878,700.7644 Q878.6875,701.8269 880.0313,701.8269 Q880.6563,701.8269 881.25,701.5613 Q881.8438,701.28 882.4688,700.7019 L882.4688,703.4206 Z " fill="#000000"/><text fill="#000000" font-family="sans-serif" font-size="14" lengthAdjust="spacing" textLength="304" x="893.5" y="702.6267">StaticJavaFunctionsGroovyScriptEnvResolver</text><line style="stroke:#008000;stroke-width:0.5;" x1="865.5" x2="1199.5" y1="713.78" y2="713.78"/><line style="stroke:#008000;stroke-width:0.5;" x1="865.5" x2="1199.5" y1="721.78" y2="721.78"/><ellipse cx="875.5" cy="735.4284" fill="#84BE84" rx="3" ry="3" style="stroke:#038048;stroke-width:1.0;"/><text fill="#000000" font-family="sans-serif" font-size="14" lengthAdjust="spacing" textLength="154" x="884.5" y="738.7751">String[] resolve(String)</text></g><!--class ScriptEnvResolver--><g id="elem_ScriptEnvResolver"><rect fill="#F1F1F1" height="48" id="ScriptEnvResolver" rx="2.5" ry="2.5" style="stroke:#181818;stroke-width:0.5;" width="156" x="954.5" y="548.63"/><ellipse cx="969.5" cy="564.63" fill="#B4A7E5" rx="11" ry="11" style="stroke:#181818;stroke-width:1.0;"/><path d="M965.4219,560.3956 L965.4219,558.2394 L972.8125,558.2394 L972.8125,560.3956 L970.3438,560.3956 L970.3438,568.4738 L972.8125,568.4738 L972.8125,570.63 L965.4219,570.63 L965.4219,568.4738 L967.8906,568.4738 L967.8906,560.3956 L965.4219,560.3956 Z " fill="#000000"/><text fill="#000000" font-family="sans-serif" font-size="14" font-style="italic" lengthAdjust="spacing" textLength="124" x="983.5" y="569.4767">ScriptEnvResolver</text><line style="stroke:#181818;stroke-width:0.5;" x1="955.5" x2="1109.5" y1="580.63" y2="580.63"/><line style="stroke:#181818;stroke-width:0.5;" x1="955.5" x2="1109.5" y1="588.63" y2="588.63"/></g><!--class ApplicationContext--><g id="elem_ApplicationContext"><rect codeLine="1" fill="#F1F1F1" height="48" id="ApplicationContext" rx="2.5" ry="2.5" style="stroke:#181818;stroke-width:0.5;" width="161" x="228" y="127"/><ellipse cx="243" cy="143" fill="#B4A7E5" rx="11" ry="11" style="stroke:#181818;stroke-width:1.0;"/><path d="M238.9219,138.7656 L238.9219,136.6094 L246.3125,136.6094 L246.3125,138.7656 L243.8438,138.7656 L243.8438,146.8438 L246.3125,146.8438 L246.3125,149 L238.9219,149 L238.9219,146.8438 L241.3906,146.8438 L241.3906,138.7656 L238.9219,138.7656 Z " fill="#000000"/><text fill="#000000" font-family="sans-serif" font-size="14" font-style="italic" lengthAdjust="spacing" textLength="129" x="257" y="147.8467">ApplicationContext</text><line style="stroke:#181818;stroke-width:0.5;" x1="229" x2="388" y1="159" y2="159"/><line style="stroke:#181818;stroke-width:0.5;" x1="229" x2="388" y1="167" y2="167"/></g><g id="elem_GMN3"><path d="M6,138.44 L6,163.5728 A0,0 0 0 0 6,163.5728 L193,163.5728 A0,0 0 0 0 193,163.5728 L193,156.44 L227.56,151 L193,148.44 L193,148.44 L183,138.44 L6,138.44 A0,0 0 0 0 6,138.44 " fill="#FEFFDD" style="stroke:#181818;stroke-width:0.5;"/><path d="M183,138.44 L183,148.44 L193,148.44 L183,138.44 " fill="#FEFFDD" style="stroke:#181818;stroke-width:0.5;"/><text fill="#000000" font-family="sans-serif" font-size="13" lengthAdjust="spacing" textLength="166" x="12" y="155.5069">Spring application context</text></g><!--class ApplicationContextAware--><g id="elem_ApplicationContextAware"><rect codeLine="4" fill="#F1F1F1" height="64.2969" id="ApplicationContextAware" rx="2.5" ry="2.5" style="stroke:#181818;stroke-width:0.5;" width="348" x="455.5" y="118.85"/><ellipse cx="539.75" cy="134.85" fill="#B4A7E5" rx="11" ry="11" style="stroke:#181818;stroke-width:1.0;"/><path d="M535.6719,130.6156 L535.6719,128.4594 L543.0625,128.4594 L543.0625,130.6156 L540.5938,130.6156 L540.5938,138.6938 L543.0625,138.6938 L543.0625,140.85 L535.6719,140.85 L535.6719,138.6938 L538.1406,138.6938 L538.1406,130.6156 L535.6719,130.6156 Z " fill="#000000"/><text fill="#000000" font-family="sans-serif" font-size="14" font-style="italic" lengthAdjust="spacing" textLength="171" x="560.25" y="139.6967">ApplicationContextAware</text><line style="stroke:#181818;stroke-width:0.5;" x1="456.5" x2="802.5" y1="150.85" y2="150.85"/><line style="stroke:#181818;stroke-width:0.5;" x1="456.5" x2="802.5" y1="158.85" y2="158.85"/><ellipse cx="466.5" cy="172.4984" fill="#84BE84" rx="3" ry="3" style="stroke:#038048;stroke-width:1.0;"/><text fill="#000000" font-family="sans-serif" font-size="14" lengthAdjust="spacing" textLength="322" x="475.5" y="175.8451">void setApplicationContext(ApplicationContext)</text></g><!--class CoreExecution--><g id="elem_CoreExecution"><rect codeLine="9" fill="#F1F1F1" height="48" id="CoreExecution" rx="2.5" ry="2.5" style="stroke:#181818;stroke-width:0.5;" width="133" x="242" y="288.89"/><ellipse cx="257" cy="304.89" fill="#A9DCDF" rx="11" ry="11" style="stroke:#181818;stroke-width:1.0;"/><path d="M257.1094,300.2338 L255.9531,305.3119 L258.2813,305.3119 L257.1094,300.2338 Z M255.625,297.9994 L258.6094,297.9994 L261.9688,310.39 L259.5156,310.39 L258.75,307.3275 L255.4688,307.3275 L254.7188,310.39 L252.2813,310.39 L255.625,297.9994 Z " fill="#000000"/><text fill="#000000" font-family="sans-serif" font-size="14" font-style="italic" lengthAdjust="spacing" textLength="101" x="271" y="309.7367">CoreExecution</text><line style="stroke:#181818;stroke-width:0.5;" x1="243" x2="374" y1="320.89" y2="320.89"/><line style="stroke:#181818;stroke-width:0.5;" x1="243" x2="374" y1="328.89" y2="328.89"/></g><g id="elem_GMN9"><path d="M6,300.33 L6,325.4628 A0,0 0 0 0 6,325.4628 L207,325.4628 A0,0 0 0 0 207,325.4628 L207,318.33 L241.82,312.89 L207,310.33 L207,310.33 L197,300.33 L6,300.33 A0,0 0 0 0 6,300.33 " fill="#FEFFDD" style="stroke:#181818;stroke-width:0.5;"/><path d="M197,300.33 L197,310.33 L207,310.33 L197,300.33 " fill="#FEFFDD" style="stroke:#181818;stroke-width:0.5;"/><text fill="#000000" font-family="sans-serif" font-size="13" lengthAdjust="spacing" textLength="180" x="12" y="317.3969">Camunda execution context</text></g><!--class FunctionMapper--><g id="elem_FunctionMapper"><rect codeLine="13" fill="#F1F1F1" height="64.2969" id="FunctionMapper" rx="2.5" ry="2.5" style="stroke:#181818;stroke-width:0.5;" width="291" x="2074" y="118.85"/><ellipse cx="2159.25" cy="134.85" fill="#A9DCDF" rx="11" ry="11" style="stroke:#181818;stroke-width:1.0;"/><path d="M2159.3594,130.1938 L2158.2031,135.2719 L2160.5313,135.2719 L2159.3594,130.1938 Z M2157.875,127.9594 L2160.8594,127.9594 L2164.2188,140.35 L2161.7656,140.35 L2161,137.2875 L2157.7188,137.2875 L2156.9688,140.35 L2154.5313,140.35 L2157.875,127.9594 Z " fill="#000000"/><text fill="#000000" font-family="sans-serif" font-size="14" font-style="italic" lengthAdjust="spacing" textLength="112" x="2179.75" y="139.6967">FunctionMapper</text><line style="stroke:#181818;stroke-width:0.5;" x1="2075" x2="2364" y1="150.85" y2="150.85"/><line style="stroke:#181818;stroke-width:0.5;" x1="2075" x2="2364" y1="158.85" y2="158.85"/><ellipse cx="2085" cy="172.4984" fill="#84BE84" rx="3" ry="3" style="stroke:#038048;stroke-width:1.0;"/><text fill="#000000" font-family="sans-serif" font-size="14" lengthAdjust="spacing" textLength="265" x="2094" y="175.8451">Method resolveFunction(String, String)</text></g><!--class ScriptEnvResolver--><g id="elem_ScriptEnvResolver"><rect codeLine="38" fill="#F1F1F1" height="64.2969" id="ScriptEnvResolver" rx="2.5" ry="2.5" style="stroke:#181818;stroke-width:0.5;" width="180" x="142.5" y="540.49"/><ellipse cx="168.3" cy="556.49" fill="#B4A7E5" rx="11" ry="11" style="stroke:#181818;stroke-width:1.0;"/><path d="M164.2219,552.2556 L164.2219,550.0994 L171.6125,550.0994 L171.6125,552.2556 L169.1438,552.2556 L169.1438,560.3338 L171.6125,560.3338 L171.6125,562.49 L164.2219,562.49 L164.2219,560.3338 L166.6906,560.3338 L166.6906,552.2556 L164.2219,552.2556 Z " fill="#000000"/><text fill="#000000" font-family="sans-serif" font-size="14" font-style="italic" lengthAdjust="spacing" textLength="124" x="184.7" y="561.3367">ScriptEnvResolver</text><line style="stroke:#181818;stroke-width:0.5;" x1="143.5" x2="321.5" y1="572.49" y2="572.49"/><line style="stroke:#181818;stroke-width:0.5;" x1="143.5" x2="321.5" y1="580.49" y2="580.49"/><ellipse cx="153.5" cy="594.1384" fill="#84BE84" rx="3" ry="3" style="stroke:#038048;stroke-width:1.0;"/><text fill="#000000" font-family="sans-serif" font-size="14" lengthAdjust="spacing" textLength="154" x="162.5" y="597.4851">String[] resolve(String)</text></g><!--class AbstractProcessEnginePlugin--><g id="elem_AbstractProcessEnginePlugin"><rect codeLine="42" fill="#F1F1F1" height="64.2969" id="AbstractProcessEnginePlugin" rx="2.5" ry="2.5" style="stroke:#181818;stroke-width:0.5;" width="343" x="2400" y="118.85"/><ellipse cx="2465.75" cy="134.85" fill="#A9DCDF" rx="11" ry="11" style="stroke:#181818;stroke-width:1.0;"/><path d="M2465.8594,130.1938 L2464.7031,135.2719 L2467.0313,135.2719 L2465.8594,130.1938 Z M2464.375,127.9594 L2467.3594,127.9594 L2470.7188,140.35 L2468.2656,140.35 L2467.5,137.2875 L2464.2188,137.2875 L2463.4688,140.35 L2461.0313,140.35 L2464.375,127.9594 Z " fill="#000000"/><text fill="#000000" font-family="sans-serif" font-size="14" font-style="italic" lengthAdjust="spacing" textLength="203" x="2486.25" y="139.6967">AbstractProcessEnginePlugin</text><line style="stroke:#181818;stroke-width:0.5;" x1="2401" x2="2742" y1="150.85" y2="150.85"/><line style="stroke:#181818;stroke-width:0.5;" x1="2401" x2="2742" y1="158.85" y2="158.85"/><ellipse cx="2411" cy="172.4984" fill="#84BE84" rx="3" ry="3" style="stroke:#038048;stroke-width:1.0;"/><text fill="#000000" font-family="sans-serif" font-size="14" lengthAdjust="spacing" textLength="317" x="2420" y="175.8451">void postInit(ProcessEngineConfigurationImpl)</text></g><!--entity customGroovyScript--><g id="elem_customGroovyScript"><ellipse cx="1584.5" cy="572.63" fill="#ADD8E6" rx="8" ry="8" style="stroke:#008000;stroke-width:0.5;"/><text fill="#000000" font-family="sans-serif" font-size="14" lengthAdjust="spacing" textLength="139" x="1515" y="602.6251">customGroovyScript</text></g><g id="elem_GMN38"><path d="M1256,560.07 L1256,585.2028 A0,0 0 0 0 1256,585.2028 L1541,585.2028 A0,0 0 0 0 1541,585.2028 L1541,578.07 L1575.04,572.63 L1541,570.07 L1541,570.07 L1531,560.07 L1256,560.07 A0,0 0 0 0 1256,560.07 " fill="#ADD8E6" style="stroke:#181818;stroke-width:0.5;"/><path d="M1531,560.07 L1531,570.07 L1541,570.07 L1531,560.07 " fill="#ADD8E6" style="stroke:#181818;stroke-width:0.5;"/><text fill="#000000" font-family="sans-serif" font-size="13" lengthAdjust="spacing" textLength="264" x="1262" y="577.1369">/groovy/importStaticJavaFunctions.groovy</text></g><!--reverse link ApplicationContext to ApplicationContextAware--><g id="link_ApplicationContext_ApplicationContextAware"><path codeLine="7" d="M394.87,151 C413.67,151 434.22,151 455.08,151 " fill="none" id="ApplicationContext-backto-ApplicationContextAware" style="stroke:#181818;stroke-width:1.0;stroke-dasharray:7.0,7.0;"/><polygon fill="#181818" points="390.09,151,399.09,155,395.09,151,399.09,147,390.09,151" style="stroke:#181818;stroke-width:1.0;"/><text fill="#000000" font-family="sans-serif" font-size="13" lengthAdjust="spacing" textLength="30" x="407.25" y="144.0669">uses</text></g><!--link ApplicationContext to CoreExecution--><!--reverse link ApplicationContextAware to AbstractApplicationContextAwareJuelFunction--><g id="link_ApplicationContextAware_AbstractApplicationContextAwareJuelFunction"><path d="M1354.5,196.1 C1354.5,210.91 1354.5,227.79 1354.5,243.99 " fill="none" id="ApplicationContextAware-backto-AbstractApplicationContextAwareJuelFunction" style="stroke:#181818;stroke-width:1.0;stroke-dasharray:7.0,7.0;"/><polygon fill="none" points="1347.5,196.25,1354.5,176.25,1361.5,196.25,1347.5,196.25" style="stroke:#181818;stroke-width:1.0;"/></g><!--reverse link FunctionMapper to CompositeApplicationContextAwareJuelFunctionMapper--><g id="link_FunctionMapper_CompositeApplicationContextAwareJuelFunctionMapper"><path d="M1786.5,196.17 C1786.5,222.88 1786.5,256.3 1786.5,280.35 " fill="none" id="FunctionMapper-backto-CompositeApplicationContextAwareJuelFunctionMapper" style="stroke:#181818;stroke-width:1.0;"/><polygon fill="none" points="1779.5,196.25,1786.5,176.25,1793.5,196.25,1779.5,196.25" style="stroke:#181818;stroke-width:1.0;"/></g><!--reverse link CoreExecution to AbstractApplicationContextAwareJuelFunction--><g id="link_CoreExecution_AbstractApplicationContextAwareJuelFunction"><path codeLine="34" d="M380.72,312.89 C540.74,312.89 929.54,312.89 1164.6,312.89 " fill="none" id="CoreExecution-backto-AbstractApplicationContextAwareJuelFunction" style="stroke:#181818;stroke-width:1.0;stroke-dasharray:7.0,7.0;"/><polygon fill="#181818" points="376.12,312.89,385.12,316.89,381.12,312.89,385.12,308.89,376.12,312.89" style="stroke:#181818;stroke-width:1.0;"/><text fill="#000000" font-family="sans-serif" font-size="13" lengthAdjust="spacing" textLength="102" x="717" y="290.9569">provides access</text><text fill="#000000" font-family="sans-serif" font-size="13" lengthAdjust="spacing" textLength="101" x="719.5" y="306.0897">for child classes</text></g><!--reverse link AbstractApplicationContextAwareJuelFunction to CompositeApplicationContextAwareJuelFunctionMapper--><g id="link_AbstractApplicationContextAwareJuelFunction_CompositeApplicationContextAwareJuelFunctionMapper"><path codeLine="36" d="M1558.29,312.89 C1565.31,312.89 1572.32,312.89 1579.34,312.89 " fill="none" id="AbstractApplicationContextAwareJuelFunction-backto-CompositeApplicationContextAwareJuelFunctionMapper" style="stroke:#181818;stroke-width:1.0;"/><polygon fill="none" points="1545.34,312.89,1551.34,316.89,1557.34,312.89,1551.34,308.89,1545.34,312.89" style="stroke:#181818;stroke-width:1.0;"/></g><!--reverse link ScriptEnvResolver to StaticJavaFunctionsGroovyScriptEnvResolver--><g id="link_ScriptEnvResolver_StaticJavaFunctionsGroovyScriptEnvResolver"><path d="M1032.5,617.63 C1032.5,638.35 1032.5,662.59 1032.5,681.44 " fill="none" id="ScriptEnvResolver-backto-StaticJavaFunctionsGroovyScriptEnvResolver" style="stroke:#181818;stroke-width:1.0;stroke-dasharray:7.0,7.0;"/><polygon fill="none" points="1025.5,617.95,1032.5,597.95,1039.5,617.95,1025.5,617.95" style="stroke:#181818;stroke-width:1.0;"/></g><!--reverse link AbstractProcessEnginePlugin to StaticJavaFunctionsProcessEnginePlugin--><g id="link_AbstractProcessEnginePlugin_StaticJavaFunctionsProcessEnginePlugin"><path d="M526.5,617.63 C526.5,638.35 526.5,662.59 526.5,681.44 " fill="none" id="AbstractProcessEnginePlugin-backto-StaticJavaFunctionsProcessEnginePlugin" style="stroke:#181818;stroke-width:1.0;"/><polygon fill="none" points="519.5,617.95,526.5,597.95,533.5,617.95,519.5,617.95" style="stroke:#181818;stroke-width:1.0;"/></g><!--link CoreExecution to ScriptEnvResolver--><!--reverse link StaticJavaFunctionsGroovyScriptEnvResolver to StaticJavaFunctionsProcessEnginePlugin--><g id="link_StaticJavaFunctionsGroovyScriptEnvResolver_StaticJavaFunctionsProcessEnginePlugin"><path codeLine="59" d="M850.29,713.93 C800.69,713.93 747.15,713.93 698.16,713.93 " fill="none" id="StaticJavaFunctionsGroovyScriptEnvResolver-backto-StaticJavaFunctionsProcessEnginePlugin" style="stroke:#181818;stroke-width:1.0;"/><polygon fill="none" points="863.17,713.93,857.17,709.93,851.17,713.93,857.17,717.93,863.17,713.93" style="stroke:#181818;stroke-width:1.0;"/><text fill="#000000" font-family="sans-serif" font-size="13" lengthAdjust="spacing" textLength="102" x="728.25" y="691.9969">adds to process</text><text fill="#000000" font-family="sans-serif" font-size="13" lengthAdjust="spacing" textLength="130" x="716.25" y="707.1297">engine configuration</text></g><!--reverse link customGroovyScript to StaticJavaFunctionsGroovyScriptEnvResolver--><g id="link_customGroovyScript_StaticJavaFunctionsGroovyScriptEnvResolver"><path codeLine="63" d="M1576.73,586.56 C1572.2,593.01 1565.92,600.35 1558.5,604.78 C1450.28,669.51 1309.6,696.03 1200.95,706.65 " fill="none" id="customGroovyScript-backto-StaticJavaFunctionsGroovyScriptEnvResolver" style="stroke:#181818;stroke-width:1.0;stroke-dasharray:7.0,7.0;"/><polygon fill="#181818" points="1579.84,582.88,1571.5195,588.1497,1577.0665,587.0403,1578.1759,592.5873,1579.84,582.88" style="stroke:#181818;stroke-width:1.0;"/><text fill="#000000" font-family="sans-serif" font-size="13" lengthAdjust="spacing" textLength="46" x="1494.5" y="647.8469">resolve</text></g><!--reverse link AbstractApplicationContextAwareJuelFunction to customGroovyScript--><g id="link_AbstractApplicationContextAwareJuelFunction_customGroovyScript"><path codeLine="64" d="M1481.9,385.46 C1510.74,406.94 1538.67,432.85 1558.5,462.63 C1580.17,495.18 1583.84,543.82 1584.42,563.21 " fill="none" id="AbstractApplicationContextAwareJuelFunction-backto-customGroovyScript" style="stroke:#181818;stroke-width:1.0;stroke-dasharray:7.0,7.0;"/><polygon fill="#181818" points="1478.26,382.05,1483.1286,390.6114,1482.2838,385.0179,1487.8773,384.1732,1478.26,382.05" style="stroke:#181818;stroke-width:1.0;"/><text fill="#000000" font-family="sans-serif" font-size="13" lengthAdjust="spacing" textLength="267" x="1551.5" y="450.6969">imports static methods from child classes</text></g><!--SRC=[dLN1Rjim3BthAmZqugABUtU30MsG3IrGe5XwwtfGPDhH9ak697iTWlpx92jExCH9unqCsTAZI3u-qbnQr1bb2FTbAJYZbYivKsxtmnAfB8B0p482Yr9pcGFTeu1jOOIVkUJ-3zK8Qm9mKokUWa5x38gEjwx9XXpl0apZaquIg0mQGkZIM4sP1IQeCJ1J6kSVo2flqCjfHejAfXImFTsbDE1vyhRYQOhoVN9muw6_RvLa_k3PSOKwf0xFQ5Sg1Or6YHfRIBImdjKl45QVCoaf-qrp11Jnhmg5DpzmSB_zFC73axDg7S3LqbsN29wlx59KU2Uun2JNYFBE6oHBuSw15wN00gKrPoi8C86riUwGRGQ0NN6q4cgC9iro0ncNLC186GJJBNyvscvwOJSAe3XkbgjzYBqwUTlTnzQaWvs-VeLNZtb0AgEP9zfjUTZ6FMrHYdrDOIUlebI6MxoW75j9N5OKzuOo7THJZvFFDEN1coOFfwu-9RwPHeWfWLAhcgTeW3A6BlcVCbCQs8gBDD3X-s_CbMho7mHs9yw2QLxQkQn_11hQXWlPlxstz4IT5ZlHJozQ-QJcCdVrU16LMpg3oyLe7oMtKG_c0iruNkacwaVNHhqUDarmVcwkEoBAjLBrtvw85eqAdsXDsqpDzmPrdDxeZXvcA4Ze94jxqPm9SOYmSTh-ZFhHv0_Al3EwZyWWP0JtJgqNqf00JLr-LlcMsROADW3_Zzb7JKXq3QmoLXLTfvVHsFcPNKPx0hT1VBTE7qhRWMJY0203CKtZU8nGarPKemQ2TpBWszqMGZOG9ZOKpVGpa6bLz2VGFm00]--></g></svg>