<?xml version="1.0" encoding="us-ascii" standalone="no"?><svg xmlns="http://www.w3.org/2000/svg" xmlns:xlink="http://www.w3.org/1999/xlink" contentStyleType="text/css" height="221px" preserveAspectRatio="none" style="width:215px;height:221px;background:#FFFFFF;" version="1.1" viewBox="0 0 215 221" width="215px" zoomAndPan="magnify"><defs/><g><path d="M17,8.9688 L17,10.9688 L25,10.9688 L25,9.9688 L20,9.9688 L20,8.9688 L17,8.9688 M17,11.9688 L17,16.4688 C17,16.7488 17.22,16.9688 17.5,16.9688 L24.5,16.9688 C24.78,16.9688 25,16.7488 25,16.4688 L25,11.9688 L17,11.9688 " fill="#000000" style="stroke:;stroke-width:0.0;stroke-dasharray:;"/><text fill="#000000" font-family="sans-serif" font-size="12" lengthAdjust="spacing" textLength="30" x="30" y="17.1387">docs</text><path d="M27,22.9375 L27,24.9375 L35,24.9375 L35,23.9375 L30,23.9375 L30,22.9375 L27,22.9375 M27,25.9375 L27,30.4375 C27,30.7175 27.22,30.9375 27.5,30.9375 L34.5,30.9375 C34.78,30.9375 35,30.7175 35,30.4375 L35,25.9375 L27,25.9375 " fill="#000000" style="stroke:;stroke-width:0.0;stroke-dasharray:;"/><text fill="#000000" font-family="sans-serif" font-size="12" lengthAdjust="spacing" textLength="53" x="40" y="31.1074">modules</text><path d="M37,36.9063 L37,38.9063 L45,38.9063 L45,37.9063 L40,37.9063 L40,36.9063 L37,36.9063 M37,39.9063 L37,44.4063 C37,44.6863 37.22,44.9063 37.5,44.9063 L44.5,44.9063 C44.78,44.9063 45,44.6863 45,44.4063 L45,39.9063 L37,39.9063 " fill="#000000" style="stroke:;stroke-width:0.0;stroke-dasharray:;"/><text fill="#000000" font-family="sans-serif" font-size="12" lengthAdjust="spacing" textLength="4" x="46" y="45.0762">&#160;</text><text fill="#000000" font-family="sans-serif" font-size="12" font-weight="bold" lengthAdjust="spacing" textLength="116" x="50" y="45.0762">&lt;module-name&gt;</text><path d="M47,50.875 L47,52.875 L55,52.875 L55,51.875 L50,51.875 L50,50.875 L47,50.875 M47,53.875 L47,58.375 C47,58.655 47.22,58.875 47.5,58.875 L54.5,58.875 C54.78,58.875 55,58.655 55,58.375 L55,53.875 L47,53.875 " fill="#000000" style="stroke:;stroke-width:0.0;stroke-dasharray:;"/><text fill="#000000" font-family="sans-serif" font-size="12" lengthAdjust="spacing" textLength="39" x="60" y="59.0449">pages</text><path d="M57,64.8438 L57,66.8438 L65,66.8438 L65,65.8438 L60,65.8438 L60,64.8438 L57,64.8438 M57,67.8438 L57,72.3438 C57,72.6238 57.22,72.8438 57.5,72.8438 L64.5,72.8438 C64.78,72.8438 65,72.6238 65,72.3438 L65,67.8438 L57,67.8438 " fill="#000000" style="stroke:;stroke-width:0.0;stroke-dasharray:;"/><text fill="#000000" font-family="sans-serif" font-size="12" lengthAdjust="spacing" textLength="104" x="70" y="73.0137">rest-api-includes</text><path d="M67,78.8125 L67,86.8125 L74,86.8125 L74,82.8125 L70,82.8125 L70,78.8125 L67,78.8125 M71,78.8125 L71,81.8125 L74,81.8125 L71,78.8125 " fill="#000000" style="stroke:;stroke-width:0.0;stroke-dasharray:;"/><text fill="#000000" font-family="sans-serif" font-size="12" lengthAdjust="spacing" textLength="64" x="80" y="86.9824">intro.adoc</text><path d="M57,92.7813 L57,94.7813 L65,94.7813 L65,93.7813 L60,93.7813 L60,92.7813 L57,92.7813 M57,95.7813 L57,100.2813 C57,100.5613 57.22,100.7813 57.5,100.7813 L64.5,100.7813 C64.78,100.7813 65,100.5613 65,100.2813 L65,95.7813 L57,95.7813 " fill="#000000" style="stroke:;stroke-width:0.0;stroke-dasharray:;"/><text fill="#000000" font-family="sans-serif" font-size="12" lengthAdjust="spacing" textLength="4" x="66" y="100.9512">&#160;</text><text fill="#000000" font-family="sans-serif" font-size="12" font-weight="bold" lengthAdjust="spacing" textLength="133" x="70" y="100.9512">&lt;endpoint path 1&gt;</text><path d="M67,106.75 L67,108.75 L75,108.75 L75,107.75 L70,107.75 L70,106.75 L67,106.75 M67,109.75 L67,114.25 C67,114.53 67.22,114.75 67.5,114.75 L74.5,114.75 C74.78,114.75 75,114.53 75,114.25 L75,109.75 L67,109.75 " fill="#000000" style="stroke:;stroke-width:0.0;stroke-dasharray:;"/><text fill="#000000" font-family="sans-serif" font-size="12" lengthAdjust="spacing" textLength="128" x="80" y="114.9199">&lt;endpoint method&gt;</text><path d="M77,120.7188 L77,128.7188 L84,128.7188 L84,124.7188 L80,124.7188 L80,120.7188 L77,120.7188 M81,120.7188 L81,123.7188 L84,123.7188 L81,120.7188 " fill="#000000" style="stroke:;stroke-width:0.0;stroke-dasharray:;"/><text fill="#000000" font-family="sans-serif" font-size="12" lengthAdjust="spacing" textLength="65" x="90" y="128.8887">spec.adoc</text><text fill="#000000" font-family="sans-serif" font-size="12" lengthAdjust="spacing" textLength="12" x="56" y="142.8574">...</text><path d="M57,148.6563 L57,150.6563 L65,150.6563 L65,149.6563 L60,149.6563 L60,148.6563 L57,148.6563 M57,151.6563 L57,156.1563 C57,156.4363 57.22,156.6563 57.5,156.6563 L64.5,156.6563 C64.78,156.6563 65,156.4363 65,156.1563 L65,151.6563 L57,151.6563 " fill="#000000" style="stroke:;stroke-width:0.0;stroke-dasharray:;"/><text fill="#000000" font-family="sans-serif" font-size="12" lengthAdjust="spacing" textLength="4" x="66" y="156.8262">&#160;</text><text fill="#000000" font-family="sans-serif" font-size="12" font-weight="bold" lengthAdjust="spacing" textLength="134" x="70" y="156.8262">&lt;endpoint path n&gt;</text><path d="M67,162.625 L67,164.625 L75,164.625 L75,163.625 L70,163.625 L70,162.625 L67,162.625 M67,165.625 L67,170.125 C67,170.405 67.22,170.625 67.5,170.625 L74.5,170.625 C74.78,170.625 75,170.405 75,170.125 L75,165.625 L67,165.625 " fill="#000000" style="stroke:;stroke-width:0.0;stroke-dasharray:;"/><text fill="#000000" font-family="sans-serif" font-size="12" lengthAdjust="spacing" textLength="128" x="80" y="170.7949">&lt;endpoint method&gt;</text><path d="M77,176.5938 L77,184.5938 L84,184.5938 L84,180.5938 L80,180.5938 L80,176.5938 L77,176.5938 M81,176.5938 L81,179.5938 L84,179.5938 L81,176.5938 " fill="#000000" style="stroke:;stroke-width:0.0;stroke-dasharray:;"/><text fill="#000000" font-family="sans-serif" font-size="12" lengthAdjust="spacing" textLength="65" x="90" y="184.7637">spec.adoc</text><path d="M57,190.5625 L57,192.5625 L65,192.5625 L65,191.5625 L60,191.5625 L60,190.5625 L57,190.5625 M57,193.5625 L57,198.0625 C57,198.3425 57.22,198.5625 57.5,198.5625 L64.5,198.5625 C64.78,198.5625 65,198.3425 65,198.0625 L65,193.5625 L57,193.5625 " fill="#000000" style="stroke:;stroke-width:0.0;stroke-dasharray:;"/><text fill="#000000" font-family="sans-serif" font-size="12" lengthAdjust="spacing" textLength="118" x="70" y="198.7324">rest-api-generated</text><text fill="#000000" font-family="sans-serif" font-size="12" lengthAdjust="spacing" textLength="12" x="66" y="212.7012">...</text><rect fill="none" height="2" style="stroke:#888888;stroke-width:1.0;" width="2" x="9" y="11.9844"/><rect fill="none" height="2" style="stroke:#888888;stroke-width:1.0;" width="2" x="19" y="25.9531"/><line style="stroke:#888888;stroke-width:1.0;" x1="10" x2="10" y1="14.9844" y2="26.9531"/><line style="stroke:#888888;stroke-width:1.0;" x1="10" x2="18" y1="26.9531" y2="26.9531"/><rect fill="none" height="2" style="stroke:#888888;stroke-width:1.0;" width="2" x="29" y="39.9219"/><line style="stroke:#888888;stroke-width:1.0;" x1="20" x2="20" y1="28.9531" y2="40.9219"/><line style="stroke:#888888;stroke-width:1.0;" x1="20" x2="28" y1="40.9219" y2="40.9219"/><rect fill="none" height="2" style="stroke:#888888;stroke-width:1.0;" width="2" x="39" y="53.8906"/><line style="stroke:#888888;stroke-width:1.0;" x1="30" x2="30" y1="42.9219" y2="54.8906"/><line style="stroke:#888888;stroke-width:1.0;" x1="30" x2="38" y1="54.8906" y2="54.8906"/><rect fill="none" height="2" style="stroke:#888888;stroke-width:1.0;" width="2" x="49" y="67.8594"/><line style="stroke:#888888;stroke-width:1.0;" x1="40" x2="40" y1="56.8906" y2="68.8594"/><line style="stroke:#888888;stroke-width:1.0;" x1="40" x2="48" y1="68.8594" y2="68.8594"/><line style="stroke:#888888;stroke-width:1.0;" x1="50" x2="50" y1="70.8594" y2="82.8281"/><line style="stroke:#888888;stroke-width:1.0;" x1="50" x2="58" y1="82.8281" y2="82.8281"/><rect fill="none" height="2" style="stroke:#888888;stroke-width:1.0;" width="2" x="49" y="95.7969"/><line style="stroke:#888888;stroke-width:1.0;" x1="40" x2="40" y1="56.8906" y2="96.7969"/><line style="stroke:#888888;stroke-width:1.0;" x1="40" x2="48" y1="96.7969" y2="96.7969"/><rect fill="none" height="2" style="stroke:#888888;stroke-width:1.0;" width="2" x="59" y="109.7656"/><line style="stroke:#888888;stroke-width:1.0;" x1="50" x2="50" y1="98.7969" y2="110.7656"/><line style="stroke:#888888;stroke-width:1.0;" x1="50" x2="58" y1="110.7656" y2="110.7656"/><line style="stroke:#888888;stroke-width:1.0;" x1="60" x2="60" y1="112.7656" y2="124.7344"/><line style="stroke:#888888;stroke-width:1.0;" x1="60" x2="68" y1="124.7344" y2="124.7344"/><line style="stroke:#888888;stroke-width:1.0;" x1="40" x2="40" y1="56.8906" y2="138.7031"/><line style="stroke:#888888;stroke-width:1.0;" x1="40" x2="48" y1="138.7031" y2="138.7031"/><rect fill="none" height="2" style="stroke:#888888;stroke-width:1.0;" width="2" x="49" y="151.6719"/><line style="stroke:#888888;stroke-width:1.0;" x1="40" x2="40" y1="56.8906" y2="152.6719"/><line style="stroke:#888888;stroke-width:1.0;" x1="40" x2="48" y1="152.6719" y2="152.6719"/><rect fill="none" height="2" style="stroke:#888888;stroke-width:1.0;" width="2" x="59" y="165.6406"/><line style="stroke:#888888;stroke-width:1.0;" x1="50" x2="50" y1="154.6719" y2="166.6406"/><line style="stroke:#888888;stroke-width:1.0;" x1="50" x2="58" y1="166.6406" y2="166.6406"/><line style="stroke:#888888;stroke-width:1.0;" x1="60" x2="60" y1="168.6406" y2="180.6094"/><line style="stroke:#888888;stroke-width:1.0;" x1="60" x2="68" y1="180.6094" y2="180.6094"/><rect fill="none" height="2" style="stroke:#888888;stroke-width:1.0;" width="2" x="49" y="193.5781"/><line style="stroke:#888888;stroke-width:1.0;" x1="40" x2="40" y1="56.8906" y2="194.5781"/><line style="stroke:#888888;stroke-width:1.0;" x1="40" x2="48" y1="194.5781" y2="194.5781"/><line style="stroke:#888888;stroke-width:1.0;" x1="50" x2="50" y1="196.5781" y2="208.5469"/><line style="stroke:#888888;stroke-width:1.0;" x1="50" x2="58" y1="208.5469" y2="208.5469"/><!--SRC=[fP9VJy8m5CNV-odkau6GJOQWPbaM8gZ9X4WKyBcibz6aQvV-8J74xsu70jF4-63wTkxld7FJTcWirTPGOScExEQaaroibM2eKs0gDwJJ44h5dC1QQuZ9AaqEWq3I4jFaSfNMH0EfQ75mDKMDnWQquW6NkN3i2DG45vW2brQhaFebo4zhNOcILSepFjnk83hNVWDFL8bsezYHE9MO2lD3nrw6C0p_BfF_BllrBWgKgAb5zkNTBqG-_1dwzFqhaPcWqYwc4zYYDbn9YC9UjtSLHjtM6pB8d82e1z4W7lJZxWqivYEevstIUfnDm2YdSmJ6ZTLyvQmFQ9ECRYcyE6bvYJ4yLoYpyTDHW7kvvLh94gKbsN9w1gxxmHsty8hQhmBBAHdZcZfXlIDNZCiYzkqFmIsPK5au_mbYG4b6okVgTpzx_GG0]--></g></svg>