<?xml version="1.0" encoding="us-ascii" standalone="no"?><svg xmlns="http://www.w3.org/2000/svg" xmlns:xlink="http://www.w3.org/1999/xlink" contentStyleType="text/css" height="249px" preserveAspectRatio="none" style="width:295px;height:249px;background:#FFFFFF;" version="1.1" viewBox="0 0 295 249" width="295px" zoomAndPan="magnify"><defs/><g><path d="M17,8.9688 L17,10.9688 L25,10.9688 L25,9.9688 L20,9.9688 L20,8.9688 L17,8.9688 M17,11.9688 L17,16.4688 C17,16.7488 17.22,16.9688 17.5,16.9688 L24.5,16.9688 C24.78,16.9688 25,16.7488 25,16.4688 L25,11.9688 L17,11.9688 " fill="#000000" style="stroke:;stroke-width:0.0;stroke-dasharray:;"/><text fill="#000000" font-family="sans-serif" font-size="12" lengthAdjust="spacing" textLength="115" x="30" y="17.1387">registry-regulation</text><path d="M27,22.9375 L27,24.9375 L35,24.9375 L35,23.9375 L30,23.9375 L30,22.9375 L27,22.9375 M27,25.9375 L27,30.4375 C27,30.7175 27.22,30.9375 27.5,30.9375 L34.5,30.9375 C34.78,30.9375 35,30.7175 35,30.4375 L35,25.9375 L27,25.9375 " fill="#000000" style="stroke:;stroke-width:0.0;stroke-dasharray:;"/><text fill="#000000" font-family="sans-serif" font-size="12" lengthAdjust="spacing" textLength="35" x="40" y="31.1074">bpmn</text><path d="M27,36.9063 L27,38.9063 L35,38.9063 L35,37.9063 L30,37.9063 L30,36.9063 L27,36.9063 M27,39.9063 L27,44.4063 C27,44.6863 27.22,44.9063 27.5,44.9063 L34.5,44.9063 C34.78,44.9063 35,44.6863 35,44.4063 L35,39.9063 L27,39.9063 " fill="#000000" style="stroke:;stroke-width:0.0;stroke-dasharray:;"/><text fill="#000000" font-family="sans-serif" font-size="12" lengthAdjust="spacing" textLength="27" x="40" y="45.0762">dmn</text><text fill="#000000" font-family="sans-serif" font-size="12" lengthAdjust="spacing" textLength="12" x="26" y="59.0449">...</text><path d="M27,64.8438 L27,66.8438 L35,66.8438 L35,65.8438 L30,65.8438 L30,64.8438 L27,64.8438 M27,67.8438 L27,72.3438 C27,72.6238 27.22,72.8438 27.5,72.8438 L34.5,72.8438 C34.78,72.8438 35,72.6238 35,72.3438 L35,67.8438 L27,67.8438 " fill="#000000" style="stroke:;stroke-width:0.0;stroke-dasharray:;"/><text fill="#000000" font-family="sans-serif" font-size="12" lengthAdjust="spacing" textLength="4" x="36" y="73.0137">&#160;</text><text fill="#000000" font-family="sans-serif" font-size="12" font-weight="bold" lengthAdjust="spacing" textLength="89" x="40" y="73.0137">notifications</text><path d="M37,78.8125 L37,80.8125 L45,80.8125 L45,79.8125 L40,79.8125 L40,78.8125 L37,78.8125 M37,81.8125 L37,86.3125 C37,86.5925 37.22,86.8125 37.5,86.8125 L44.5,86.8125 C44.78,86.8125 45,86.5925 45,86.3125 L45,81.8125 L37,81.8125 " fill="#000000" style="stroke:;stroke-width:0.0;stroke-dasharray:;"/><text fill="#000000" font-family="sans-serif" font-size="12" lengthAdjust="spacing" textLength="42" x="50" y="86.9824">inbox (</text><text fill="#000000" font-family="sans-serif" font-size="12" font-style="italic" lengthAdjust="spacing" textLength="50" x="92" y="86.9824">channel</text><text fill="#000000" font-family="sans-serif" font-size="12" lengthAdjust="spacing" textLength="5" x="142" y="86.9824">)</text><path d="M47,92.7813 L47,94.7813 L55,94.7813 L55,93.7813 L50,93.7813 L50,92.7813 L47,92.7813 M47,95.7813 L47,100.2813 C47,100.5613 47.22,100.7813 47.5,100.7813 L54.5,100.7813 C54.78,100.7813 55,100.5613 55,100.2813 L55,95.7813 L47,95.7813 " fill="#000000" style="stroke:;stroke-width:0.0;stroke-dasharray:;"/><text fill="#000000" font-family="sans-serif" font-size="12" lengthAdjust="spacing" textLength="126" x="60" y="100.9512">excerpt-generated (</text><text fill="#000000" font-family="sans-serif" font-size="12" font-style="italic" lengthAdjust="spacing" textLength="97" x="186" y="100.9512">template_name</text><text fill="#000000" font-family="sans-serif" font-size="12" lengthAdjust="spacing" textLength="5" x="283" y="100.9512">)</text><path d="M57,106.75 L57,108.75 L65,108.75 L65,107.75 L60,107.75 L60,106.75 L57,106.75 M57,109.75 L57,114.25 C57,114.53 57.22,114.75 57.5,114.75 L64.5,114.75 C64.78,114.75 65,114.53 65,114.25 L65,109.75 L57,109.75 " fill="#000000" style="stroke:;stroke-width:0.0;stroke-dasharray:;"/><text fill="#000000" font-family="sans-serif" font-size="12" lengthAdjust="spacing" textLength="12" x="70" y="114.9199">...</text><text fill="#000000" font-family="sans-serif" font-size="12" lengthAdjust="spacing" textLength="12" x="46" y="128.8887">...</text><path d="M37,134.6875 L37,136.6875 L45,136.6875 L45,135.6875 L40,135.6875 L40,134.6875 L37,134.6875 M37,137.6875 L37,142.1875 C37,142.4675 37.22,142.6875 37.5,142.6875 L44.5,142.6875 C44.78,142.6875 45,142.4675 45,142.1875 L45,137.6875 L37,137.6875 " fill="#000000" style="stroke:;stroke-width:0.0;stroke-dasharray:;"/><text fill="#000000" font-family="sans-serif" font-size="12" lengthAdjust="spacing" textLength="42" x="50" y="142.8574">email (</text><text fill="#000000" font-family="sans-serif" font-size="12" font-style="italic" lengthAdjust="spacing" textLength="50" x="92" y="142.8574">channel</text><text fill="#000000" font-family="sans-serif" font-size="12" lengthAdjust="spacing" textLength="5" x="142" y="142.8574">)</text><path d="M47,148.6563 L47,150.6563 L55,150.6563 L55,149.6563 L50,149.6563 L50,148.6563 L47,148.6563 M47,151.6563 L47,156.1563 C47,156.4363 47.22,156.6563 47.5,156.6563 L54.5,156.6563 C54.78,156.6563 55,156.4363 55,156.1563 L55,151.6563 L47,151.6563 " fill="#000000" style="stroke:;stroke-width:0.0;stroke-dasharray:;"/><text fill="#000000" font-family="sans-serif" font-size="12" lengthAdjust="spacing" textLength="126" x="60" y="156.8262">excerpt-generated (</text><text fill="#000000" font-family="sans-serif" font-size="12" font-style="italic" lengthAdjust="spacing" textLength="97" x="186" y="156.8262">template_name</text><text fill="#000000" font-family="sans-serif" font-size="12" lengthAdjust="spacing" textLength="5" x="283" y="156.8262">)</text><path d="M57,162.625 L57,170.625 L64,170.625 L64,166.625 L60,166.625 L60,162.625 L57,162.625 M61,162.625 L61,165.625 L64,165.625 L61,162.625 " fill="#000000" style="stroke:;stroke-width:0.0;stroke-dasharray:;"/><text fill="#000000" font-family="sans-serif" font-size="12" lengthAdjust="spacing" textLength="12" x="70" y="170.7949">...</text><text fill="#000000" font-family="sans-serif" font-size="12" lengthAdjust="spacing" textLength="12" x="46" y="184.7637">...</text><path d="M37,190.5625 L37,192.5625 L45,192.5625 L45,191.5625 L40,191.5625 L40,190.5625 L37,190.5625 M37,193.5625 L37,198.0625 C37,198.3425 37.22,198.5625 37.5,198.5625 L44.5,198.5625 C44.78,198.5625 45,198.3425 45,198.0625 L45,193.5625 L37,193.5625 " fill="#000000" style="stroke:;stroke-width:0.0;stroke-dasharray:;"/><text fill="#000000" font-family="sans-serif" font-size="12" lengthAdjust="spacing" textLength="31" x="50" y="198.7324">diia (</text><text fill="#000000" font-family="sans-serif" font-size="12" font-style="italic" lengthAdjust="spacing" textLength="50" x="81" y="198.7324">channel</text><text fill="#000000" font-family="sans-serif" font-size="12" lengthAdjust="spacing" textLength="5" x="131" y="198.7324">)</text><path d="M47,204.5313 L47,206.5313 L55,206.5313 L55,205.5313 L50,205.5313 L50,204.5313 L47,204.5313 M47,207.5313 L47,212.0313 C47,212.3113 47.22,212.5313 47.5,212.5313 L54.5,212.5313 C54.78,212.5313 55,212.3113 55,212.0313 L55,207.5313 L47,207.5313 " fill="#000000" style="stroke:;stroke-width:0.0;stroke-dasharray:;"/><text fill="#000000" font-family="sans-serif" font-size="12" lengthAdjust="spacing" textLength="126" x="60" y="212.7012">excerpt-generated (</text><text fill="#000000" font-family="sans-serif" font-size="12" font-style="italic" lengthAdjust="spacing" textLength="97" x="186" y="212.7012">template_name</text><text fill="#000000" font-family="sans-serif" font-size="12" lengthAdjust="spacing" textLength="5" x="283" y="212.7012">)</text><path d="M57,218.5 L57,220.5 L65,220.5 L65,219.5 L60,219.5 L60,218.5 L57,218.5 M57,221.5 L57,226 C57,226.28 57.22,226.5 57.5,226.5 L64.5,226.5 C64.78,226.5 65,226.28 65,226 L65,221.5 L57,221.5 " fill="#000000" style="stroke:;stroke-width:0.0;stroke-dasharray:;"/><text fill="#000000" font-family="sans-serif" font-size="12" lengthAdjust="spacing" textLength="12" x="70" y="226.6699">...</text><text fill="#000000" font-family="sans-serif" font-size="12" lengthAdjust="spacing" textLength="12" x="46" y="240.6387">...</text><rect fill="none" height="2" style="stroke:#888888;stroke-width:1.0;" width="2" x="9" y="11.9844"/><line style="stroke:#888888;stroke-width:1.0;" x1="10" x2="10" y1="14.9844" y2="26.9531"/><line style="stroke:#888888;stroke-width:1.0;" x1="10" x2="18" y1="26.9531" y2="26.9531"/><line style="stroke:#888888;stroke-width:1.0;" x1="10" x2="10" y1="14.9844" y2="40.9219"/><line style="stroke:#888888;stroke-width:1.0;" x1="10" x2="18" y1="40.9219" y2="40.9219"/><line style="stroke:#888888;stroke-width:1.0;" x1="10" x2="10" y1="14.9844" y2="54.8906"/><line style="stroke:#888888;stroke-width:1.0;" x1="10" x2="18" y1="54.8906" y2="54.8906"/><rect fill="none" height="2" style="stroke:#888888;stroke-width:1.0;" width="2" x="19" y="67.8594"/><line style="stroke:#888888;stroke-width:1.0;" x1="10" x2="10" y1="14.9844" y2="68.8594"/><line style="stroke:#888888;stroke-width:1.0;" x1="10" x2="18" y1="68.8594" y2="68.8594"/><rect fill="none" height="2" style="stroke:#888888;stroke-width:1.0;" width="2" x="29" y="81.8281"/><line style="stroke:#888888;stroke-width:1.0;" x1="20" x2="20" y1="70.8594" y2="82.8281"/><line style="stroke:#888888;stroke-width:1.0;" x1="20" x2="28" y1="82.8281" y2="82.8281"/><rect fill="none" height="2" style="stroke:#888888;stroke-width:1.0;" width="2" x="39" y="95.7969"/><line style="stroke:#888888;stroke-width:1.0;" x1="30" x2="30" y1="84.8281" y2="96.7969"/><line style="stroke:#888888;stroke-width:1.0;" x1="30" x2="38" y1="96.7969" y2="96.7969"/><line style="stroke:#888888;stroke-width:1.0;" x1="40" x2="40" y1="98.7969" y2="110.7656"/><line style="stroke:#888888;stroke-width:1.0;" x1="40" x2="48" y1="110.7656" y2="110.7656"/><line style="stroke:#888888;stroke-width:1.0;" x1="30" x2="30" y1="84.8281" y2="124.7344"/><line style="stroke:#888888;stroke-width:1.0;" x1="30" x2="38" y1="124.7344" y2="124.7344"/><rect fill="none" height="2" style="stroke:#888888;stroke-width:1.0;" width="2" x="29" y="137.7031"/><line style="stroke:#888888;stroke-width:1.0;" x1="20" x2="20" y1="70.8594" y2="138.7031"/><line style="stroke:#888888;stroke-width:1.0;" x1="20" x2="28" y1="138.7031" y2="138.7031"/><rect fill="none" height="2" style="stroke:#888888;stroke-width:1.0;" width="2" x="39" y="151.6719"/><line style="stroke:#888888;stroke-width:1.0;" x1="30" x2="30" y1="140.7031" y2="152.6719"/><line style="stroke:#888888;stroke-width:1.0;" x1="30" x2="38" y1="152.6719" y2="152.6719"/><line style="stroke:#888888;stroke-width:1.0;" x1="40" x2="40" y1="154.6719" y2="166.6406"/><line style="stroke:#888888;stroke-width:1.0;" x1="40" x2="48" y1="166.6406" y2="166.6406"/><line style="stroke:#888888;stroke-width:1.0;" x1="30" x2="30" y1="140.7031" y2="180.6094"/><line style="stroke:#888888;stroke-width:1.0;" x1="30" x2="38" y1="180.6094" y2="180.6094"/><rect fill="none" height="2" style="stroke:#888888;stroke-width:1.0;" width="2" x="29" y="193.5781"/><line style="stroke:#888888;stroke-width:1.0;" x1="20" x2="20" y1="70.8594" y2="194.5781"/><line style="stroke:#888888;stroke-width:1.0;" x1="20" x2="28" y1="194.5781" y2="194.5781"/><rect fill="none" height="2" style="stroke:#888888;stroke-width:1.0;" width="2" x="39" y="207.5469"/><line style="stroke:#888888;stroke-width:1.0;" x1="30" x2="30" y1="196.5781" y2="208.5469"/><line style="stroke:#888888;stroke-width:1.0;" x1="30" x2="38" y1="208.5469" y2="208.5469"/><line style="stroke:#888888;stroke-width:1.0;" x1="40" x2="40" y1="210.5469" y2="222.5156"/><line style="stroke:#888888;stroke-width:1.0;" x1="40" x2="48" y1="222.5156" y2="222.5156"/><line style="stroke:#888888;stroke-width:1.0;" x1="30" x2="30" y1="196.5781" y2="236.4844"/><line style="stroke:#888888;stroke-width:1.0;" x1="30" x2="38" y1="236.4844" y2="236.4844"/><!--SRC=[lL9RQy8m57xFhyZJKAJLEjr6AKMcsw1J9lEonv6sn-v0UbBIL1JnloygctKFUzl8I_ZETmidWz88RKeX3TkntPorU72rKZ857N8D6PP6RnrxgQGmg8YrweIuo7yWwGbmNVSI3-AGbC4L9aURCcZ7eMNKAKYnsl16W67o8OX01cqCcmTIdGMR17HXd0m8j32G7XK6yi8MX7SIEPnrTU6fqdUt2yzSeFo3P9JmQswAAFxfmNjx1a3fST5iAWMPnMJCrw1BkmxkkTrEzzhrEeqt6n1LadjTxlNzVi_ltFB5VCWFyoPhF4t7l5ILJi2sjty3u-gmpoQBn5hmrueCvk3pbm8e6Zr_0Vo1rgWLvK26HSl9cN3JS-xHy1beMuKl9sm4Ar59OnM9If4otwO_EdTiB2YhH6QzWTXGML-zjRFP9m00]--></g></svg>