<?xml version="1.0" encoding="us-ascii" standalone="no"?><svg xmlns="http://www.w3.org/2000/svg" xmlns:xlink="http://www.w3.org/1999/xlink" contentStyleType="text/css" height="1183px" preserveAspectRatio="none" style="width:901px;height:1183px;background:#FFFFFF;" version="1.1" viewBox="0 0 901 1183" width="901px" zoomAndPan="magnify"><defs/><g><rect fill="#FFFFFF" height="418.4688" style="stroke:#181818;stroke-width:1.0;" width="10" x="463.5" y="238.7656"/><rect fill="#FFFFFF" height="362.2031" style="stroke:#181818;stroke-width:1.0;" width="10" x="463.5" y="708.1719"/><rect fill="#FFFFFF" height="329.9375" style="stroke:#181818;stroke-width:1.0;" width="10" x="671.5" y="298.1641"/><rect fill="#FFFFFF" height="288.8047" style="stroke:#181818;stroke-width:1.0;" width="10" x="671.5" y="752.4375"/><rect fill="none" height="899.6797" style="stroke:#000000;stroke-width:1.5;" width="712" x="182.5" y="185.6953"/><rect fill="none" height="294.8047" style="stroke:#000000;stroke-width:1.5;" width="692" x="192.5" y="370.4297"/><rect fill="none" height="148.4688" style="stroke:#000000;stroke-width:1.5;" width="504.5" x="202.5" y="436.6953"/><rect fill="none" height="310.9375" style="stroke:#000000;stroke-width:1.5;" width="524.5" x="192.5" y="767.4375"/><rect fill="none" height="148.4688" style="stroke:#000000;stroke-width:1.5;" width="504.5" x="202.5" y="849.8359"/><line style="stroke:#181818;stroke-width:0.5;stroke-dasharray:5.0,5.0;" x1="24" x2="24" y1="81.2969" y2="1102.375"/><line style="stroke:#181818;stroke-width:0.5;stroke-dasharray:5.0,5.0;" x1="90" x2="90" y1="81.2969" y2="1102.375"/><line style="stroke:#181818;stroke-width:0.5;stroke-dasharray:5.0,5.0;" x1="250.5" x2="250.5" y1="81.2969" y2="1102.375"/><line style="stroke:#181818;stroke-width:0.5;stroke-dasharray:5.0,5.0;" x1="468.5" x2="468.5" y1="81.2969" y2="1102.375"/><line style="stroke:#181818;stroke-width:0.5;stroke-dasharray:5.0,5.0;" x1="676" x2="676" y1="81.2969" y2="1102.375"/><text fill="#000000" font-family="sans-serif" font-size="14" lengthAdjust="spacing" textLength="32" x="5" y="77.9951">User</text><ellipse cx="24" cy="13.5" fill="#E3E3E3" rx="8" ry="8" style="stroke:#181818;stroke-width:0.5;"/><path d="M24,21.5 L24,48.5 M11,29.5 L37,29.5 M24,48.5 L11,63.5 M24,48.5 L37,63.5 " fill="none" style="stroke:#181818;stroke-width:0.5;"/><text fill="#000000" font-family="sans-serif" font-size="14" lengthAdjust="spacing" textLength="32" x="5" y="1114.3701">User</text><ellipse cx="24" cy="1126.1719" fill="#E3E3E3" rx="8" ry="8" style="stroke:#181818;stroke-width:0.5;"/><path d="M24,1134.1719 L24,1161.1719 M11,1142.1719 L37,1142.1719 M24,1161.1719 L11,1176.1719 M24,1161.1719 L37,1176.1719 " fill="none" style="stroke:#181818;stroke-width:0.5;"/><rect fill="#E3E3E3" height="30.2969" rx="2.5" ry="2.5" style="stroke:#181818;stroke-width:0.5;" width="75" x="53" y="50"/><text fill="#000000" font-family="sans-serif" font-size="14" lengthAdjust="spacing" textLength="61" x="60" y="69.9951">Keycloak</text><rect fill="#E3E3E3" height="30.2969" rx="2.5" ry="2.5" style="stroke:#181818;stroke-width:0.5;" width="75" x="53" y="1101.375"/><text fill="#000000" font-family="sans-serif" font-size="14" lengthAdjust="spacing" textLength="61" x="60" y="1121.3701">Keycloak</text><rect fill="#E3E3E3" height="30.2969" rx="2.5" ry="2.5" style="stroke:#181818;stroke-width:0.5;" width="76" x="212.5" y="50"/><text fill="#000000" font-family="sans-serif" font-size="14" lengthAdjust="spacing" textLength="62" x="219.5" y="69.9951">Lowcode</text><rect fill="#E3E3E3" height="30.2969" rx="2.5" ry="2.5" style="stroke:#181818;stroke-width:0.5;" width="76" x="212.5" y="1101.375"/><text fill="#000000" font-family="sans-serif" font-size="14" lengthAdjust="spacing" textLength="62" x="219.5" y="1121.3701">Lowcode</text><rect fill="#E3E3E3" height="30.2969" rx="2.5" ry="2.5" style="stroke:#181818;stroke-width:0.5;" width="92" x="422.5" y="50"/><text fill="#000000" font-family="sans-serif" font-size="14" lengthAdjust="spacing" textLength="78" x="429.5" y="69.9951">Datafactory</text><rect fill="#E3E3E3" height="30.2969" rx="2.5" ry="2.5" style="stroke:#181818;stroke-width:0.5;" width="92" x="422.5" y="1101.375"/><text fill="#000000" font-family="sans-serif" font-size="14" lengthAdjust="spacing" textLength="78" x="429.5" y="1121.3701">Datafactory</text><text fill="#000000" font-family="sans-serif" font-size="14" lengthAdjust="spacing" textLength="35" x="656" y="77.9951">Citus</text><path d="M658.5,29 C658.5,19 676.5,19 676.5,19 C676.5,19 694.5,19 694.5,29 L694.5,55 C694.5,65 676.5,65 676.5,65 C676.5,65 658.5,65 658.5,55 L658.5,29 " fill="#E3E3E3" style="stroke:#181818;stroke-width:1.5;"/><path d="M658.5,29 C658.5,39 676.5,39 676.5,39 C676.5,39 694.5,39 694.5,29 " fill="none" style="stroke:#181818;stroke-width:1.5;"/><text fill="#000000" font-family="sans-serif" font-size="14" lengthAdjust="spacing" textLength="35" x="656" y="1114.3701">Citus</text><path d="M658.5,1127.6719 C658.5,1117.6719 676.5,1117.6719 676.5,1117.6719 C676.5,1117.6719 694.5,1117.6719 694.5,1127.6719 L694.5,1153.6719 C694.5,1163.6719 676.5,1163.6719 676.5,1163.6719 C676.5,1163.6719 658.5,1163.6719 658.5,1153.6719 L658.5,1127.6719 " fill="#E3E3E3" style="stroke:#181818;stroke-width:1.5;"/><path d="M658.5,1127.6719 C658.5,1137.6719 676.5,1137.6719 676.5,1137.6719 C676.5,1137.6719 694.5,1137.6719 694.5,1127.6719 " fill="none" style="stroke:#181818;stroke-width:1.5;"/><rect fill="#FFFFFF" height="418.4688" style="stroke:#181818;stroke-width:1.0;" width="10" x="463.5" y="238.7656"/><rect fill="#FFFFFF" height="362.2031" style="stroke:#181818;stroke-width:1.0;" width="10" x="463.5" y="708.1719"/><rect fill="#FFFFFF" height="329.9375" style="stroke:#181818;stroke-width:1.0;" width="10" x="671.5" y="298.1641"/><rect fill="#FFFFFF" height="288.8047" style="stroke:#181818;stroke-width:1.0;" width="10" x="671.5" y="752.4375"/><polygon fill="#181818" points="238.5,108.4297,248.5,112.4297,238.5,116.4297,242.5,112.4297" style="stroke:#181818;stroke-width:1.0;"/><line style="stroke:#181818;stroke-width:1.0;" x1="24" x2="244.5" y1="112.4297" y2="112.4297"/><text fill="#000000" font-family="sans-serif" font-size="13" lengthAdjust="spacing" textLength="94" x="31" y="107.3638">HTTPS request</text><polygon fill="#181818" points="101.5,137.5625,91.5,141.5625,101.5,145.5625,97.5,141.5625" style="stroke:#181818;stroke-width:1.0;"/><line style="stroke:#181818;stroke-width:1.0;" x1="95.5" x2="249.5" y1="141.5625" y2="141.5625"/><text fill="#000000" font-family="sans-serif" font-size="13" lengthAdjust="spacing" textLength="29" x="107.5" y="136.4966">auth</text><polygon fill="#181818" points="238.5,166.6953,248.5,170.6953,238.5,174.6953,242.5,170.6953" style="stroke:#181818;stroke-width:1.0;"/><line style="stroke:#181818;stroke-width:1.0;" x1="90.5" x2="244.5" y1="170.6953" y2="170.6953"/><text fill="#000000" font-family="sans-serif" font-size="13" lengthAdjust="spacing" textLength="33" x="97.5" y="165.6294">JWT {</text><text fill="#000000" font-family="sans-serif" font-size="13" font-weight="bold" lengthAdjust="spacing" textLength="28" x="130.5" y="165.6294">role</text><text fill="#000000" font-family="sans-serif" font-size="13" lengthAdjust="spacing" textLength="75" x="158.5" y="165.6294">: officer, ...}</text><path d="M182.5,185.6953 L252.5,185.6953 L252.5,192.8281 L242.5,202.8281 L182.5,202.8281 L182.5,185.6953 " fill="#EEEEEE" style="stroke:#000000;stroke-width:1.5;"/><rect fill="none" height="899.6797" style="stroke:#000000;stroke-width:1.5;" width="712" x="182.5" y="185.6953"/><text fill="#000000" font-family="sans-serif" font-size="13" font-weight="bold" lengthAdjust="spacing" textLength="25" x="197.5" y="198.7622">opt</text><text fill="#000000" font-family="sans-serif" font-size="11" font-weight="bold" lengthAdjust="spacing" textLength="134" x="267.5" y="197.9058">[data manipulations]</text><line style="stroke:#000000;stroke-width:1.0;stroke-dasharray:2.0,2.0;" x1="182.5" x2="894.5" y1="203.8281" y2="203.8281"/><text fill="#000000" font-family="sans-serif" font-size="11" font-weight="bold" lengthAdjust="spacing" textLength="161" x="187.5" y="214.0386">[INSERT/UPDATE/DELETE]</text><polygon fill="#181818" points="451.5,234.7656,461.5,238.7656,451.5,242.7656,455.5,238.7656" style="stroke:#181818;stroke-width:1.0;"/><line style="stroke:#181818;stroke-width:1.0;" x1="250.5" x2="457.5" y1="238.7656" y2="238.7656"/><text fill="#000000" font-family="sans-serif" font-size="13" lengthAdjust="spacing" textLength="85" x="257.5" y="233.6997">API request {</text><text fill="#000000" font-family="sans-serif" font-size="13" font-weight="bold" lengthAdjust="spacing" textLength="28" x="342.5" y="233.6997">role</text><text fill="#000000" font-family="sans-serif" font-size="13" lengthAdjust="spacing" textLength="75" x="370.5" y="233.6997">: officer, ...}</text><polygon fill="#181818" points="659.5,294.1641,669.5,298.1641,659.5,302.1641,663.5,298.1641" style="stroke:#181818;stroke-width:1.0;"/><line style="stroke:#181818;stroke-width:1.0;" x1="473.5" x2="665.5" y1="298.1641" y2="298.1641"/><text fill="#000000" font-family="sans-serif" font-size="13" lengthAdjust="spacing" textLength="125" x="480.5" y="262.8325">JDBC procedure call</text><text fill="#000000" font-family="sans-serif" font-size="13" lengthAdjust="spacing" textLength="129" x="480.5" y="277.9653">insert/update/delete</text><text fill="#000000" font-family="sans-serif" font-size="13" lengthAdjust="spacing" textLength="5" x="480.5" y="293.0981">(</text><text fill="#000000" font-family="sans-serif" font-size="13" font-weight="bold" lengthAdjust="spacing" textLength="28" x="485.5" y="293.0981">role</text><text fill="#000000" font-family="sans-serif" font-size="13" lengthAdjust="spacing" textLength="75" x="513.5" y="293.0981">=officer, ...)</text><line style="stroke:#181818;stroke-width:1.0;" x1="681.5" x2="723.5" y1="342.4297" y2="342.4297"/><line style="stroke:#181818;stroke-width:1.0;" x1="723.5" x2="723.5" y1="342.4297" y2="355.4297"/><line style="stroke:#181818;stroke-width:1.0;" x1="682.5" x2="723.5" y1="355.4297" y2="355.4297"/><polygon fill="#181818" points="692.5,351.4297,682.5,355.4297,692.5,359.4297,688.5,355.4297" style="stroke:#181818;stroke-width:1.0;"/><text fill="#000000" font-family="sans-serif" font-size="13" lengthAdjust="spacing" textLength="177" x="688.5" y="322.231">query ddm_role_permission</text><text fill="#000000" font-family="sans-serif" font-size="13" lengthAdjust="spacing" textLength="149" x="688.5" y="337.3638">to check permission for</text><text fill="#000000" font-family="sans-serif" font-size="13" font-weight="bold" lengthAdjust="spacing" textLength="28" x="841.5" y="337.3638">role</text><path d="M192.5,370.4297 L256.5,370.4297 L256.5,377.5625 L246.5,387.5625 L192.5,387.5625 L192.5,370.4297 " fill="#EEEEEE" style="stroke:#000000;stroke-width:1.5;"/><rect fill="none" height="294.8047" style="stroke:#000000;stroke-width:1.5;" width="692" x="192.5" y="370.4297"/><text fill="#000000" font-family="sans-serif" font-size="13" font-weight="bold" lengthAdjust="spacing" textLength="19" x="207.5" y="383.4966">alt</text><text fill="#000000" font-family="sans-serif" font-size="11" font-weight="bold" lengthAdjust="spacing" textLength="153" x="271.5" y="382.6401">[operation is permitted]</text><line style="stroke:#181818;stroke-width:1.0;" x1="639.5" x2="681.5" y1="408.6953" y2="408.6953"/><line style="stroke:#181818;stroke-width:1.0;" x1="639.5" x2="639.5" y1="408.6953" y2="421.6953"/><line style="stroke:#181818;stroke-width:1.0;" x1="639.5" x2="680.5" y1="421.6953" y2="421.6953"/><polygon fill="#181818" points="672.5,417.6953,682.5,421.6953,672.5,425.6953,676.5,421.6953" style="stroke:#181818;stroke-width:1.0;"/><text fill="#000000" font-family="sans-serif" font-size="13" lengthAdjust="spacing" textLength="184" x="497.5" y="403.6294">execute insert/update/delete</text><path d="M202.5,436.6953 L266.5,436.6953 L266.5,443.8281 L256.5,453.8281 L202.5,453.8281 L202.5,436.6953 " fill="#EEEEEE" style="stroke:#000000;stroke-width:1.5;"/><rect fill="none" height="148.4688" style="stroke:#000000;stroke-width:1.5;" width="504.5" x="202.5" y="436.6953"/><text fill="#000000" font-family="sans-serif" font-size="13" font-weight="bold" lengthAdjust="spacing" textLength="19" x="217.5" y="449.7622">alt</text><text fill="#000000" font-family="sans-serif" font-size="11" font-weight="bold" lengthAdjust="spacing" textLength="159" x="281.5" y="448.9058">[operation is successful]</text><polygon fill="#181818" points="484.5,470.9609,474.5,474.9609,484.5,478.9609,480.5,474.9609" style="stroke:#181818;stroke-width:1.0;"/><line style="stroke:#181818;stroke-width:1.0;" x1="478.5" x2="670.5" y1="474.9609" y2="474.9609"/><text fill="#000000" font-family="sans-serif" font-size="13" lengthAdjust="spacing" textLength="120" x="490.5" y="469.895">data/return control</text><polygon fill="#181818" points="261.5,500.0938,251.5,504.0938,261.5,508.0938,257.5,504.0938" style="stroke:#181818;stroke-width:1.0;"/><line style="stroke:#181818;stroke-width:1.0;" x1="255.5" x2="462.5" y1="504.0938" y2="504.0938"/><text fill="#000000" font-family="sans-serif" font-size="13" lengthAdjust="spacing" textLength="186" x="267.5" y="499.0278">API response {code: 200, ...}</text><line style="stroke:#000000;stroke-width:1.0;stroke-dasharray:2.0,2.0;" x1="202.5" x2="707" y1="513.0938" y2="513.0938"/><text fill="#000000" font-family="sans-serif" font-size="11" font-weight="bold" lengthAdjust="spacing" textLength="184" x="207.5" y="523.3042">[operation is not successful]</text><polygon fill="#181818" points="484.5,544.0313,474.5,548.0313,484.5,552.0313,480.5,548.0313" style="stroke:#181818;stroke-width:1.0;"/><line style="stroke:#181818;stroke-width:1.0;" x1="478.5" x2="670.5" y1="548.0313" y2="548.0313"/><text fill="#000000" font-family="sans-serif" font-size="13" lengthAdjust="spacing" textLength="62" x="490.5" y="542.9653">exception</text><polygon fill="#181818" points="261.5,573.1641,251.5,577.1641,261.5,581.1641,257.5,577.1641" style="stroke:#181818;stroke-width:1.0;"/><line style="stroke:#181818;stroke-width:1.0;" x1="255.5" x2="462.5" y1="577.1641" y2="577.1641"/><text fill="#000000" font-family="sans-serif" font-size="13" lengthAdjust="spacing" textLength="186" x="267.5" y="572.0981">API response {code: 503, ...}</text><line style="stroke:#000000;stroke-width:1.0;stroke-dasharray:2.0,2.0;" x1="192.5" x2="884.5" y1="593.1641" y2="593.1641"/><text fill="#000000" font-family="sans-serif" font-size="11" font-weight="bold" lengthAdjust="spacing" textLength="178" x="197.5" y="603.3745">[operation is not permitted]</text><polygon fill="#181818" points="484.5,624.1016,474.5,628.1016,484.5,632.1016,480.5,628.1016" style="stroke:#181818;stroke-width:1.0;"/><line style="stroke:#181818;stroke-width:1.0;" x1="478.5" x2="675.5" y1="628.1016" y2="628.1016"/><text fill="#000000" font-family="sans-serif" font-size="13" lengthAdjust="spacing" textLength="62" x="490.5" y="623.0356">exception</text><polygon fill="#181818" points="261.5,653.2344,251.5,657.2344,261.5,661.2344,257.5,657.2344" style="stroke:#181818;stroke-width:1.0;"/><line style="stroke:#181818;stroke-width:1.0;" x1="255.5" x2="467.5" y1="657.2344" y2="657.2344"/><text fill="#000000" font-family="sans-serif" font-size="13" lengthAdjust="spacing" textLength="186" x="267.5" y="652.1685">API response {code: 403, ...}</text><line style="stroke:#000000;stroke-width:1.0;stroke-dasharray:2.0,2.0;" x1="182.5" x2="894.5" y1="673.2344" y2="673.2344"/><text fill="#000000" font-family="sans-serif" font-size="11" font-weight="bold" lengthAdjust="spacing" textLength="58" x="187.5" y="683.4448">[SELECT]</text><polygon fill="#181818" points="451.5,704.1719,461.5,708.1719,451.5,712.1719,455.5,708.1719" style="stroke:#181818;stroke-width:1.0;"/><line style="stroke:#181818;stroke-width:1.0;" x1="250.5" x2="457.5" y1="708.1719" y2="708.1719"/><text fill="#000000" font-family="sans-serif" font-size="13" lengthAdjust="spacing" textLength="85" x="257.5" y="703.106">API request {</text><text fill="#000000" font-family="sans-serif" font-size="13" font-weight="bold" lengthAdjust="spacing" textLength="28" x="342.5" y="703.106">role</text><text fill="#000000" font-family="sans-serif" font-size="13" lengthAdjust="spacing" textLength="75" x="370.5" y="703.106">: officer, ...}</text><polygon fill="#181818" points="659.5,748.4375,669.5,752.4375,659.5,756.4375,663.5,752.4375" style="stroke:#181818;stroke-width:1.0;"/><line style="stroke:#181818;stroke-width:1.0;" x1="473.5" x2="665.5" y1="752.4375" y2="752.4375"/><text fill="#000000" font-family="sans-serif" font-size="13" lengthAdjust="spacing" textLength="111" x="480.5" y="732.2388">JDBC function call</text><text fill="#000000" font-family="sans-serif" font-size="13" lengthAdjust="spacing" textLength="5" x="480.5" y="747.3716">(</text><text fill="#000000" font-family="sans-serif" font-size="13" font-weight="bold" lengthAdjust="spacing" textLength="28" x="485.5" y="747.3716">role</text><text fill="#000000" font-family="sans-serif" font-size="13" lengthAdjust="spacing" textLength="75" x="513.5" y="747.3716">=officer, ...)</text><path d="M192.5,767.4375 L256.5,767.4375 L256.5,774.5703 L246.5,784.5703 L192.5,784.5703 L192.5,767.4375 " fill="#EEEEEE" style="stroke:#000000;stroke-width:1.5;"/><rect fill="none" height="310.9375" style="stroke:#000000;stroke-width:1.5;" width="524.5" x="192.5" y="767.4375"/><text fill="#000000" font-family="sans-serif" font-size="13" font-weight="bold" lengthAdjust="spacing" textLength="19" x="207.5" y="780.5044">alt</text><text fill="#000000" font-family="sans-serif" font-size="11" font-weight="bold" lengthAdjust="spacing" textLength="153" x="271.5" y="779.6479">[operation is permitted]</text><polygon fill="#181818" points="484.5,801.7031,474.5,805.7031,484.5,809.7031,480.5,805.7031" style="stroke:#181818;stroke-width:1.0;"/><line style="stroke:#181818;stroke-width:1.0;" x1="478.5" x2="670.5" y1="805.7031" y2="805.7031"/><text fill="#000000" font-family="sans-serif" font-size="13" lengthAdjust="spacing" textLength="28" x="490.5" y="800.6372">True</text><polygon fill="#181818" points="659.5,830.8359,669.5,834.8359,659.5,838.8359,663.5,834.8359" style="stroke:#181818;stroke-width:1.0;"/><line style="stroke:#181818;stroke-width:1.0;" x1="473.5" x2="665.5" y1="834.8359" y2="834.8359"/><text fill="#000000" font-family="sans-serif" font-size="13" lengthAdjust="spacing" textLength="104" x="480.5" y="829.77">JDBC query data</text><path d="M202.5,849.8359 L266.5,849.8359 L266.5,856.9688 L256.5,866.9688 L202.5,866.9688 L202.5,849.8359 " fill="#EEEEEE" style="stroke:#000000;stroke-width:1.5;"/><rect fill="none" height="148.4688" style="stroke:#000000;stroke-width:1.5;" width="504.5" x="202.5" y="849.8359"/><text fill="#000000" font-family="sans-serif" font-size="13" font-weight="bold" lengthAdjust="spacing" textLength="19" x="217.5" y="862.9028">alt</text><text fill="#000000" font-family="sans-serif" font-size="11" font-weight="bold" lengthAdjust="spacing" textLength="159" x="281.5" y="862.0464">[operation is successful]</text><polygon fill="#181818" points="484.5,884.1016,474.5,888.1016,484.5,892.1016,480.5,888.1016" style="stroke:#181818;stroke-width:1.0;"/><line style="stroke:#181818;stroke-width:1.0;" x1="478.5" x2="670.5" y1="888.1016" y2="888.1016"/><text fill="#000000" font-family="sans-serif" font-size="13" lengthAdjust="spacing" textLength="29" x="490.5" y="883.0356">data</text><polygon fill="#181818" points="261.5,913.2344,251.5,917.2344,261.5,921.2344,257.5,917.2344" style="stroke:#181818;stroke-width:1.0;"/><line style="stroke:#181818;stroke-width:1.0;" x1="255.5" x2="462.5" y1="917.2344" y2="917.2344"/><text fill="#000000" font-family="sans-serif" font-size="13" lengthAdjust="spacing" textLength="189" x="267.5" y="912.1685">API response {code=200, ...}</text><line style="stroke:#000000;stroke-width:1.0;stroke-dasharray:2.0,2.0;" x1="202.5" x2="707" y1="926.2344" y2="926.2344"/><text fill="#000000" font-family="sans-serif" font-size="11" font-weight="bold" lengthAdjust="spacing" textLength="184" x="207.5" y="936.4448">[operation is not successful]</text><polygon fill="#181818" points="484.5,957.1719,474.5,961.1719,484.5,965.1719,480.5,961.1719" style="stroke:#181818;stroke-width:1.0;"/><line style="stroke:#181818;stroke-width:1.0;" x1="478.5" x2="670.5" y1="961.1719" y2="961.1719"/><text fill="#000000" font-family="sans-serif" font-size="13" lengthAdjust="spacing" textLength="62" x="490.5" y="956.106">exception</text><polygon fill="#181818" points="261.5,986.3047,251.5,990.3047,261.5,994.3047,257.5,990.3047" style="stroke:#181818;stroke-width:1.0;"/><line style="stroke:#181818;stroke-width:1.0;" x1="255.5" x2="462.5" y1="990.3047" y2="990.3047"/><text fill="#000000" font-family="sans-serif" font-size="13" lengthAdjust="spacing" textLength="189" x="267.5" y="985.2388">API response {code=503, ...}</text><line style="stroke:#000000;stroke-width:1.0;stroke-dasharray:2.0,2.0;" x1="192.5" x2="717" y1="1006.3047" y2="1006.3047"/><text fill="#000000" font-family="sans-serif" font-size="11" font-weight="bold" lengthAdjust="spacing" textLength="178" x="197.5" y="1016.5151">[operation is not permitted]</text><polygon fill="#181818" points="484.5,1037.2422,474.5,1041.2422,484.5,1045.2422,480.5,1041.2422" style="stroke:#181818;stroke-width:1.0;"/><line style="stroke:#181818;stroke-width:1.0;" x1="478.5" x2="675.5" y1="1041.2422" y2="1041.2422"/><text fill="#000000" font-family="sans-serif" font-size="13" lengthAdjust="spacing" textLength="33" x="490.5" y="1036.1763">False</text><polygon fill="#181818" points="261.5,1066.375,251.5,1070.375,261.5,1074.375,257.5,1070.375" style="stroke:#181818;stroke-width:1.0;"/><line style="stroke:#181818;stroke-width:1.0;" x1="255.5" x2="467.5" y1="1070.375" y2="1070.375"/><text fill="#000000" font-family="sans-serif" font-size="13" lengthAdjust="spacing" textLength="189" x="267.5" y="1065.3091">API response {code=403, ...}</text><!--SRC=[pLJVRzCm47xtNt4I3q17cmhOIqMHIXl4neIgDHClbIRFkL2hZXtyGsoQ-D-ntQP9jr2D2YJy5j_Tzts- -ovcpML5DIsXL5AnbLObWjKEoNEp2zrGjlwcbPFvL0cbuHcDXv09i_xpog0cFjDonYigBNp6EoOKNPCGWVvxk50_cCfn19-oRBu0ZTyT6algF7ZNRrAeiwicqYu-_vh1VQ-dbS1URmIgA3X3_Ge6Wy5FeYeBERKKIYfvvGIrN4b3K1Y4io-Bz39BhkQpIPOci_GYpL82_coX0ylCrnOqlEVkv6G4a_bPBVFtd04YSDvGJpBbrfburO8Ao34GCCzd7wPGQSKmTng1KI6MaalV8vkuoWDXagD0YqlvegOSjnbVHlY8jmCUWHVfYVAyl0ubrnNgaXlZNx-KLW5R8Lj3Smc5drYDJY8W5HQKpuWj0sussTPY7iCDfn_JbXDlaJcBqAL-L_G8rpZ6q9Z2YLtEmtur5A6nYKRhj0IcfFMAzwhgsVcA5a0zELFvwIFSRvppUZXiZIoSw8izSLBPFnE8jmohK7sqhDFXcuUovARdtV8UpwLBMR_VfQrRLyZjKlPsJrbG5HKj_EfCiyEhy-JDERWcXPCiFdsp9OVsuGdsxHvW5dvpNIdDRaKjsmNp2N_HsaUQPlnVMddyxvpyaNg0ermyRapSk5Zclm00]--></g></svg>