<?xml version="1.0" encoding="us-ascii" standalone="no"?><svg xmlns="http://www.w3.org/2000/svg" xmlns:xlink="http://www.w3.org/1999/xlink" contentStyleType="text/css" height="1109px" preserveAspectRatio="none" style="width:833px;height:1109px;background:#FFFFFF;" version="1.1" viewBox="0 0 833 1109" width="833px" zoomAndPan="magnify"><defs/><g><rect fill="#FFFFFF" height="897.7891" style="stroke:#181818;stroke-width:1.0;" width="10" x="247" y="112.4297"/><rect fill="#E9967A" height="513.3906" style="stroke:#181818;stroke-width:1.0;" width="10" x="252" y="460.6953"/><rect fill="none" height="75.3984" style="stroke:#000000;stroke-width:1.5;" width="340" x="219" y="127.4297"/><rect fill="none" height="46.2656" style="stroke:#000000;stroke-width:1.5;" width="275" x="10" y="216.8281"/><rect fill="none" height="105.3359" style="stroke:#000000;stroke-width:1.5;" width="395.5" x="431" y="277.0938"/><rect fill="none" height="75.3984" style="stroke:#000000;stroke-width:1.5;" width="340" x="219" y="480.6953"/><rect fill="none" height="46.2656" style="stroke:#000000;stroke-width:1.5;" width="275" x="10" y="570.0938"/><rect fill="none" height="191.9297" style="stroke:#000000;stroke-width:1.5;" width="665" x="10" y="748.0234"/><line style="stroke:#181818;stroke-width:0.5;stroke-dasharray:5.0,5.0;" x1="39" x2="39" y1="81.2969" y2="1028.2188"/><line style="stroke:#181818;stroke-width:0.5;stroke-dasharray:5.0,5.0;" x1="252" x2="252" y1="81.2969" y2="1028.2188"/><line style="stroke:#181818;stroke-width:0.5;stroke-dasharray:5.0,5.0;" x1="495" x2="495" y1="81.2969" y2="1028.2188"/><line style="stroke:#181818;stroke-width:0.5;stroke-dasharray:5.0,5.0;" x1="617" x2="617" y1="81.2969" y2="1028.2188"/><line style="stroke:#181818;stroke-width:0.5;stroke-dasharray:5.0,5.0;" x1="771.5" x2="771.5" y1="81.2969" y2="1028.2188"/><text fill="#000000" font-family="sans-serif" font-size="14" lengthAdjust="spacing" textLength="32" x="20" y="77.9951">User</text><ellipse cx="39" cy="13.5" fill="#E2E2F0" rx="8" ry="8" style="stroke:#181818;stroke-width:0.5;"/><path d="M39,21.5 L39,48.5 M26,29.5 L52,29.5 M39,48.5 L26,63.5 M39,48.5 L52,63.5 " fill="none" style="stroke:#181818;stroke-width:0.5;"/><text fill="#000000" font-family="sans-serif" font-size="14" lengthAdjust="spacing" textLength="32" x="20" y="1040.2139">User</text><ellipse cx="39" cy="1052.0156" fill="#E2E2F0" rx="8" ry="8" style="stroke:#181818;stroke-width:0.5;"/><path d="M39,1060.0156 L39,1087.0156 M26,1068.0156 L52,1068.0156 M39,1087.0156 L26,1102.0156 M39,1087.0156 L52,1102.0156 " fill="none" style="stroke:#181818;stroke-width:0.5;"/><rect fill="#E2E2F0" height="30.2969" rx="2.5" ry="2.5" style="stroke:#181818;stroke-width:0.5;" width="46" x="229" y="50"/><text fill="#000000" font-family="sans-serif" font-size="14" lengthAdjust="spacing" textLength="32" x="236" y="69.9951">RRM</text><rect fill="#E2E2F0" height="30.2969" rx="2.5" ry="2.5" style="stroke:#181818;stroke-width:0.5;" width="46" x="229" y="1027.2188"/><text fill="#000000" font-family="sans-serif" font-size="14" lengthAdjust="spacing" textLength="32" x="236" y="1047.2139">RRM</text><rect fill="#E2E2F0" height="30.2969" rx="2.5" ry="2.5" style="stroke:#181818;stroke-width:0.5;" width="108" x="441" y="50"/><text fill="#000000" font-family="sans-serif" font-size="14" lengthAdjust="spacing" textLength="94" x="448" y="69.9951">Local Git repo</text><rect fill="#E2E2F0" height="30.2969" rx="2.5" ry="2.5" style="stroke:#181818;stroke-width:0.5;" width="108" x="441" y="1027.2188"/><text fill="#000000" font-family="sans-serif" font-size="14" lengthAdjust="spacing" textLength="94" x="448" y="1047.2139">Local Git repo</text><rect fill="#E2E2F0" height="30.2969" rx="2.5" ry="2.5" style="stroke:#181818;stroke-width:0.5;" width="96" x="569" y="50"/><text fill="#000000" font-family="sans-serif" font-size="14" lengthAdjust="spacing" textLength="82" x="576" y="69.9951">Origin Gerrit</text><rect fill="#E2E2F0" height="30.2969" rx="2.5" ry="2.5" style="stroke:#181818;stroke-width:0.5;" width="96" x="569" y="1027.2188"/><text fill="#000000" font-family="sans-serif" font-size="14" lengthAdjust="spacing" textLength="82" x="576" y="1047.2139">Origin Gerrit</text><text fill="#000000" font-family="sans-serif" font-size="14" lengthAdjust="spacing" textLength="83" x="727.5" y="77.9951">Counterpart</text><ellipse cx="772" cy="13.5" fill="#E2E2F0" rx="8" ry="8" style="stroke:#181818;stroke-width:0.5;"/><path d="M772,21.5 L772,48.5 M759,29.5 L785,29.5 M772,48.5 L759,63.5 M772,48.5 L785,63.5 " fill="none" style="stroke:#181818;stroke-width:0.5;"/><text fill="#000000" font-family="sans-serif" font-size="14" lengthAdjust="spacing" textLength="83" x="727.5" y="1040.2139">Counterpart</text><ellipse cx="772" cy="1052.0156" fill="#E2E2F0" rx="8" ry="8" style="stroke:#181818;stroke-width:0.5;"/><path d="M772,1060.0156 L772,1087.0156 M759,1068.0156 L785,1068.0156 M772,1087.0156 L759,1102.0156 M772,1087.0156 L785,1102.0156 " fill="none" style="stroke:#181818;stroke-width:0.5;"/><rect fill="#FFFFFF" height="897.7891" style="stroke:#181818;stroke-width:1.0;" width="10" x="247" y="112.4297"/><rect fill="#E9967A" height="513.3906" style="stroke:#181818;stroke-width:1.0;" width="10" x="252" y="460.6953"/><polygon fill="#181818" points="235,108.4297,245,112.4297,235,116.4297,239,112.4297" style="stroke:#181818;stroke-width:1.0;"/><line style="stroke:#181818;stroke-width:1.0;" x1="39" x2="241" y1="112.4297" y2="112.4297"/><text fill="#000000" font-family="sans-serif" font-size="13" lengthAdjust="spacing" textLength="102" x="46" y="107.3638">creates form/bp</text><path d="M219,127.4297 L422,127.4297 L422,134.5625 L412,144.5625 L219,144.5625 L219,127.4297 " fill="#EEEEEE" style="stroke:#000000;stroke-width:1.5;"/><rect fill="none" height="75.3984" style="stroke:#000000;stroke-width:1.5;" width="340" x="219" y="127.4297"/><text fill="#000000" font-family="sans-serif" font-size="13" font-weight="bold" lengthAdjust="spacing" textLength="158" x="234" y="140.4966">Concurrent validation</text><polygon fill="#181818" points="483,161.6953,493,165.6953,483,169.6953,487,165.6953" style="stroke:#181818;stroke-width:1.0;"/><line style="stroke:#181818;stroke-width:1.0;" x1="257" x2="489" y1="165.6953" y2="165.6953"/><text fill="#000000" font-family="sans-serif" font-size="13" lengthAdjust="spacing" textLength="66" x="264" y="160.6294">file exists?</text><polygon fill="#181818" points="268,190.8281,258,194.8281,268,198.8281,264,194.8281" style="stroke:#181818;stroke-width:1.0;"/><line style="stroke:#181818;stroke-width:1.0;stroke-dasharray:2.0,2.0;" x1="262" x2="494" y1="194.8281" y2="194.8281"/><text fill="#000000" font-family="sans-serif" font-size="13" lengthAdjust="spacing" textLength="59" x="274" y="189.7622">response</text><path d="M10,216.8281 L74,216.8281 L74,223.9609 L64,233.9609 L10,233.9609 L10,216.8281 " fill="#EEEEEE" style="stroke:#000000;stroke-width:1.5;"/><rect fill="none" height="46.2656" style="stroke:#000000;stroke-width:1.5;" width="275" x="10" y="216.8281"/><text fill="#000000" font-family="sans-serif" font-size="13" font-weight="bold" lengthAdjust="spacing" textLength="19" x="25" y="229.895">alt</text><text fill="#000000" font-family="sans-serif" font-size="11" font-weight="bold" lengthAdjust="spacing" textLength="125" x="89" y="229.0386">[file already exists]</text><polygon fill="#181818" points="50,251.0938,40,255.0938,50,259.0938,46,255.0938" style="stroke:#181818;stroke-width:1.0;"/><line style="stroke:#181818;stroke-width:1.0;stroke-dasharray:2.0,2.0;" x1="44" x2="246" y1="255.0938" y2="255.0938"/><text fill="#000000" font-family="sans-serif" font-size="13" lengthAdjust="spacing" textLength="184" x="56" y="250.0278">HTTP 412 Precondition Failed</text><path d="M431,277.0938 L495,277.0938 L495,284.2266 L485,294.2266 L431,294.2266 L431,277.0938 " fill="#EEEEEE" style="stroke:#000000;stroke-width:1.5;"/><rect fill="none" height="105.3359" style="stroke:#000000;stroke-width:1.5;" width="395.5" x="431" y="277.0938"/><text fill="#000000" font-family="sans-serif" font-size="13" font-weight="bold" lengthAdjust="spacing" textLength="19" x="446" y="290.1606">alt</text><text fill="#000000" font-family="sans-serif" font-size="11" font-weight="bold" lengthAdjust="spacing" textLength="215" x="510" y="289.3042">[concurrent work in Admin Portal]</text><polygon fill="#181818" points="506,311.3594,496,315.3594,506,319.3594,502,315.3594" style="stroke:#181818;stroke-width:1.0;"/><line style="stroke:#181818;stroke-width:1.0;" x1="500" x2="771" y1="315.3594" y2="315.3594"/><text fill="#000000" font-family="sans-serif" font-size="13" lengthAdjust="spacing" textLength="237" x="512" y="310.2935">creates form/bp with the same name</text><line style="stroke:#000000;stroke-width:1.0;stroke-dasharray:2.0,2.0;" x1="431" x2="826.5" y1="324.3594" y2="324.3594"/><text fill="#000000" font-family="sans-serif" font-size="11" font-weight="bold" lengthAdjust="spacing" textLength="170" x="436" y="334.5698">[concurrent work in Gerrit]</text><polygon fill="#181818" points="628,370.4297,618,374.4297,628,378.4297,624,374.4297" style="stroke:#181818;stroke-width:1.0;"/><line style="stroke:#181818;stroke-width:1.0;" x1="622" x2="771" y1="374.4297" y2="374.4297"/><text fill="#000000" font-family="sans-serif" font-size="13" lengthAdjust="spacing" textLength="102" x="634" y="354.231">creates form/bp</text><text fill="#000000" font-family="sans-serif" font-size="13" lengthAdjust="spacing" textLength="131" x="634" y="369.3638">with the same name</text><line style="stroke:#181818;stroke-width:1.0;" x1="257" x2="299" y1="410.5625" y2="410.5625"/><line style="stroke:#181818;stroke-width:1.0;" x1="299" x2="299" y1="410.5625" y2="423.5625"/><line style="stroke:#181818;stroke-width:1.0;" x1="258" x2="299" y1="423.5625" y2="423.5625"/><polygon fill="#181818" points="268,419.5625,258,423.5625,268,427.5625,264,423.5625" style="stroke:#181818;stroke-width:1.0;"/><text fill="#000000" font-family="sans-serif" font-size="13" lengthAdjust="spacing" textLength="118" x="264" y="405.4966">do some side stuff</text><line style="stroke:#181818;stroke-width:1.0;" x1="257" x2="304" y1="447.6953" y2="447.6953"/><line style="stroke:#181818;stroke-width:1.0;" x1="304" x2="304" y1="447.6953" y2="460.6953"/><line style="stroke:#181818;stroke-width:1.0;" x1="263" x2="304" y1="460.6953" y2="460.6953"/><polygon fill="#181818" points="273,456.6953,263,460.6953,273,464.6953,269,460.6953" style="stroke:#181818;stroke-width:1.0;"/><text fill="#000000" font-family="sans-serif" font-size="13" lengthAdjust="spacing" textLength="76" x="269" y="442.6294">acquire lock</text><path d="M219,480.6953 L422,480.6953 L422,487.8281 L412,497.8281 L219,497.8281 L219,480.6953 " fill="#EEEEEE" style="stroke:#000000;stroke-width:1.5;"/><rect fill="none" height="75.3984" style="stroke:#000000;stroke-width:1.5;" width="340" x="219" y="480.6953"/><text fill="#000000" font-family="sans-serif" font-size="13" font-weight="bold" lengthAdjust="spacing" textLength="158" x="234" y="493.7622">Concurrent validation</text><polygon fill="#181818" points="483,514.9609,493,518.9609,483,522.9609,487,518.9609" style="stroke:#181818;stroke-width:1.0;"/><line style="stroke:#181818;stroke-width:1.0;" x1="262" x2="489" y1="518.9609" y2="518.9609"/><text fill="#000000" font-family="sans-serif" font-size="13" lengthAdjust="spacing" textLength="66" x="269" y="513.895">file exists?</text><polygon fill="#181818" points="273,544.0938,263,548.0938,273,552.0938,269,548.0938" style="stroke:#181818;stroke-width:1.0;"/><line style="stroke:#181818;stroke-width:1.0;stroke-dasharray:2.0,2.0;" x1="267" x2="494" y1="548.0938" y2="548.0938"/><text fill="#000000" font-family="sans-serif" font-size="13" lengthAdjust="spacing" textLength="59" x="279" y="543.0278">response</text><path d="M10,570.0938 L74,570.0938 L74,577.2266 L64,587.2266 L10,587.2266 L10,570.0938 " fill="#EEEEEE" style="stroke:#000000;stroke-width:1.5;"/><rect fill="none" height="46.2656" style="stroke:#000000;stroke-width:1.5;" width="275" x="10" y="570.0938"/><text fill="#000000" font-family="sans-serif" font-size="13" font-weight="bold" lengthAdjust="spacing" textLength="19" x="25" y="583.1606">alt</text><text fill="#000000" font-family="sans-serif" font-size="11" font-weight="bold" lengthAdjust="spacing" textLength="125" x="89" y="582.3042">[file already exists]</text><polygon fill="#181818" points="50,604.3594,40,608.3594,50,612.3594,46,608.3594" style="stroke:#181818;stroke-width:1.0;"/><line style="stroke:#181818;stroke-width:1.0;stroke-dasharray:2.0,2.0;" x1="44" x2="251" y1="608.3594" y2="608.3594"/><text fill="#000000" font-family="sans-serif" font-size="13" lengthAdjust="spacing" textLength="184" x="56" y="603.2935">HTTP 412 Precondition Failed</text><polygon fill="#181818" points="483,640.4922,493,644.4922,483,648.4922,487,644.4922" style="stroke:#181818;stroke-width:1.0;"/><line style="stroke:#181818;stroke-width:1.0;" x1="262" x2="489" y1="644.4922" y2="644.4922"/><text fill="#000000" font-family="sans-serif" font-size="13" lengthAdjust="spacing" textLength="105" x="269" y="639.4263">write file content</text><polygon fill="#181818" points="483,699.8906,493,703.8906,483,707.8906,487,703.8906" style="stroke:#181818;stroke-width:1.0;"/><line style="stroke:#181818;stroke-width:1.0;" x1="262" x2="489" y1="703.8906" y2="703.8906"/><text fill="#000000" font-family="sans-serif" font-size="13" lengthAdjust="spacing" textLength="44" x="269" y="668.5591">git add</text><text fill="#000000" font-family="sans-serif" font-size="13" lengthAdjust="spacing" textLength="69" x="269" y="683.6919">git commit</text><text fill="#000000" font-family="sans-serif" font-size="13" lengthAdjust="spacing" textLength="51" x="269" y="698.8247">git push</text><polygon fill="#181818" points="605,729.0234,615,733.0234,605,737.0234,609,733.0234" style="stroke:#181818;stroke-width:1.0;"/><line style="stroke:#181818;stroke-width:1.0;" x1="495" x2="611" y1="733.0234" y2="733.0234"/><text fill="#000000" font-family="sans-serif" font-size="13" lengthAdjust="spacing" textLength="89" x="502" y="727.9575">push changes</text><path d="M10,748.0234 L74,748.0234 L74,755.1563 L64,765.1563 L10,765.1563 L10,748.0234 " fill="#EEEEEE" style="stroke:#000000;stroke-width:1.5;"/><rect fill="none" height="191.9297" style="stroke:#000000;stroke-width:1.5;" width="665" x="10" y="748.0234"/><text fill="#000000" font-family="sans-serif" font-size="13" font-weight="bold" lengthAdjust="spacing" textLength="19" x="25" y="761.0903">alt</text><text fill="#000000" font-family="sans-serif" font-size="11" font-weight="bold" lengthAdjust="spacing" textLength="102" x="89" y="760.2339">[merge conflict]</text><polygon fill="#181818" points="506,782.2891,496,786.2891,506,790.2891,502,786.2891" style="stroke:#181818;stroke-width:1.0;"/><line style="stroke:#181818;stroke-width:1.0;stroke-dasharray:2.0,2.0;" x1="500" x2="616" y1="786.2891" y2="786.2891"/><text fill="#000000" font-family="sans-serif" font-size="13" lengthAdjust="spacing" textLength="98" x="512" y="781.2231">merge conflicts</text><polygon fill="#181818" points="273,811.4219,263,815.4219,273,819.4219,269,815.4219" style="stroke:#181818;stroke-width:1.0;"/><line style="stroke:#181818;stroke-width:1.0;stroke-dasharray:2.0,2.0;" x1="267" x2="494" y1="815.4219" y2="815.4219"/><text fill="#000000" font-family="sans-serif" font-size="13" lengthAdjust="spacing" textLength="98" x="279" y="810.356">merge conflicts</text><polygon fill="#181818" points="483,840.5547,493,844.5547,483,848.5547,487,844.5547" style="stroke:#181818;stroke-width:1.0;"/><line style="stroke:#181818;stroke-width:1.0;" x1="262" x2="489" y1="844.5547" y2="844.5547"/><text fill="#000000" font-family="sans-serif" font-size="13" lengthAdjust="spacing" textLength="52" x="269" y="839.4888">git fetch</text><polygon fill="#181818" points="605,869.6875,615,873.6875,605,877.6875,609,873.6875" style="stroke:#181818;stroke-width:1.0;"/><line style="stroke:#181818;stroke-width:1.0;" x1="495" x2="611" y1="873.6875" y2="873.6875"/><text fill="#000000" font-family="sans-serif" font-size="13" lengthAdjust="spacing" textLength="52" x="502" y="868.6216">git fetch</text><polygon fill="#181818" points="483,898.8203,493,902.8203,483,906.8203,487,902.8203" style="stroke:#181818;stroke-width:1.0;"/><line style="stroke:#181818;stroke-width:1.0;" x1="262" x2="489" y1="902.8203" y2="902.8203"/><text fill="#000000" font-family="sans-serif" font-size="13" lengthAdjust="spacing" textLength="209" x="269" y="897.7544">hard reset on origin head branch</text><polygon fill="#181818" points="50,927.9531,40,931.9531,50,935.9531,46,931.9531" style="stroke:#181818;stroke-width:1.0;"/><line style="stroke:#181818;stroke-width:1.0;stroke-dasharray:2.0,2.0;" x1="44" x2="251" y1="931.9531" y2="931.9531"/><text fill="#000000" font-family="sans-serif" font-size="13" lengthAdjust="spacing" textLength="184" x="56" y="926.8872">HTTP 412 Precondition Failed</text><line style="stroke:#181818;stroke-width:1.0;" x1="262" x2="304" y1="973.0859" y2="973.0859"/><line style="stroke:#181818;stroke-width:1.0;" x1="304" x2="304" y1="973.0859" y2="986.0859"/><line style="stroke:#181818;stroke-width:1.0;" x1="257" x2="304" y1="986.0859" y2="986.0859"/><polygon fill="#181818" points="267,982.0859,257,986.0859,267,990.0859,263,986.0859" style="stroke:#181818;stroke-width:1.0;"/><text fill="#000000" font-family="sans-serif" font-size="13" lengthAdjust="spacing" textLength="76" x="269" y="968.02">release lock</text><polygon fill="#181818" points="50,1006.2188,40,1010.2188,50,1014.2188,46,1010.2188" style="stroke:#181818;stroke-width:1.0;"/><line style="stroke:#181818;stroke-width:1.0;stroke-dasharray:2.0,2.0;" x1="44" x2="251" y1="1010.2188" y2="1010.2188"/><text fill="#000000" font-family="sans-serif" font-size="13" lengthAdjust="spacing" textLength="15" x="56" y="1005.1528">ok</text><!--SRC=[rLEnZjim3Dtr5KHk3eeMDsLeKLpHwz2YmVMwtSAJQ5k8BBgKV6d_lfJim74kIyTwa6Kzyl7nqKARMU1d8W5CCEhR32ZPMpzWp23Ib_FDmyEtpGfeVQx0LxOOu5w_X0Q-Y26HEUox-DP7kAyd6uErgkKnPfAIKeFkbk-DCKKBRDyN2JkmGfWfGSFIltaU2e5_qPE2cbPu7E2Eenr5I0k_OF0Ei-TeG9_IX1Afv1qqFX3GRvzo-b31qiZsL4Oe3HmJ6OhE60nvYiUWvTsVEM_XrBIYSWTV7X_tSFls7Uo5B4VdIstuZ9hi5YwxA3oo740D-UXwNVSi6KFbFVVafFcYUJZwt47k21Bs154NGo7HDVx9yAlC5Nb5_XIliPSEPXUhJuuXiQB9Ertos3Gh6EslqGj1O7jOZGfkFg4SVc3eTJJ_mTZE9HpLBfg8DJQhOBF2wurmxYcMZUM-ztdQ3sFgJDMxk5xEm7OOMqfLS4_ILk8cU3iDRBu-srE1TKXwRSErW4k53MNRBQcBeZLudjQXk68nPL1tUBh9dJeBpuBnFE6VZPsd5mZJ_BSuMbtjDIrVudy1]--></g></svg>