<?xml version="1.0" encoding="us-ascii" standalone="no"?><svg xmlns="http://www.w3.org/2000/svg" xmlns:xlink="http://www.w3.org/1999/xlink" contentStyleType="text/css" height="1178px" preserveAspectRatio="none" style="width:808px;height:1178px;background:#FFFFFF;" version="1.1" viewBox="0 0 808 1178" width="808px" zoomAndPan="magnify"><defs/><g><rect fill="#FFFFFF" height="966.9219" style="stroke:#181818;stroke-width:1.0;" width="10" x="247" y="112.4297"/><rect fill="#E9967A" height="555.5234" style="stroke:#181818;stroke-width:1.0;" width="10" x="252" y="487.6953"/><rect fill="none" height="117.5313" style="stroke:#000000;stroke-width:1.5;" width="340" x="219" y="127.4297"/><rect fill="none" height="46.2656" style="stroke:#000000;stroke-width:1.5;" width="275" x="10" y="258.9609"/><rect fill="none" height="90.2031" style="stroke:#000000;stroke-width:1.5;" width="370.5" x="431" y="319.2266"/><rect fill="none" height="117.5313" style="stroke:#000000;stroke-width:1.5;" width="340" x="219" y="507.6953"/><rect fill="none" height="46.2656" style="stroke:#000000;stroke-width:1.5;" width="275" x="10" y="639.2266"/><rect fill="none" height="191.9297" style="stroke:#000000;stroke-width:1.5;" width="665" x="10" y="817.1563"/><line style="stroke:#181818;stroke-width:0.5;stroke-dasharray:5.0,5.0;" x1="39" x2="39" y1="81.2969" y2="1097.3516"/><line style="stroke:#181818;stroke-width:0.5;stroke-dasharray:5.0,5.0;" x1="252" x2="252" y1="81.2969" y2="1097.3516"/><line style="stroke:#181818;stroke-width:0.5;stroke-dasharray:5.0,5.0;" x1="495" x2="495" y1="81.2969" y2="1097.3516"/><line style="stroke:#181818;stroke-width:0.5;stroke-dasharray:5.0,5.0;" x1="617" x2="617" y1="81.2969" y2="1097.3516"/><line style="stroke:#181818;stroke-width:0.5;stroke-dasharray:5.0,5.0;" x1="746.5" x2="746.5" y1="81.2969" y2="1097.3516"/><text fill="#000000" font-family="sans-serif" font-size="14" lengthAdjust="spacing" textLength="32" x="20" y="77.9951">User</text><ellipse cx="39" cy="13.5" fill="#E2E2F0" rx="8" ry="8" style="stroke:#181818;stroke-width:0.5;"/><path d="M39,21.5 L39,48.5 M26,29.5 L52,29.5 M39,48.5 L26,63.5 M39,48.5 L52,63.5 " fill="none" style="stroke:#181818;stroke-width:0.5;"/><text fill="#000000" font-family="sans-serif" font-size="14" lengthAdjust="spacing" textLength="32" x="20" y="1109.3467">User</text><ellipse cx="39" cy="1121.1484" fill="#E2E2F0" rx="8" ry="8" style="stroke:#181818;stroke-width:0.5;"/><path d="M39,1129.1484 L39,1156.1484 M26,1137.1484 L52,1137.1484 M39,1156.1484 L26,1171.1484 M39,1156.1484 L52,1171.1484 " fill="none" style="stroke:#181818;stroke-width:0.5;"/><rect fill="#E2E2F0" height="30.2969" rx="2.5" ry="2.5" style="stroke:#181818;stroke-width:0.5;" width="46" x="229" y="50"/><text fill="#000000" font-family="sans-serif" font-size="14" lengthAdjust="spacing" textLength="32" x="236" y="69.9951">RRM</text><rect fill="#E2E2F0" height="30.2969" rx="2.5" ry="2.5" style="stroke:#181818;stroke-width:0.5;" width="46" x="229" y="1096.3516"/><text fill="#000000" font-family="sans-serif" font-size="14" lengthAdjust="spacing" textLength="32" x="236" y="1116.3467">RRM</text><rect fill="#E2E2F0" height="30.2969" rx="2.5" ry="2.5" style="stroke:#181818;stroke-width:0.5;" width="108" x="441" y="50"/><text fill="#000000" font-family="sans-serif" font-size="14" lengthAdjust="spacing" textLength="94" x="448" y="69.9951">Local Git repo</text><rect fill="#E2E2F0" height="30.2969" rx="2.5" ry="2.5" style="stroke:#181818;stroke-width:0.5;" width="108" x="441" y="1096.3516"/><text fill="#000000" font-family="sans-serif" font-size="14" lengthAdjust="spacing" textLength="94" x="448" y="1116.3467">Local Git repo</text><rect fill="#E2E2F0" height="30.2969" rx="2.5" ry="2.5" style="stroke:#181818;stroke-width:0.5;" width="96" x="569" y="50"/><text fill="#000000" font-family="sans-serif" font-size="14" lengthAdjust="spacing" textLength="82" x="576" y="69.9951">Origin Gerrit</text><rect fill="#E2E2F0" height="30.2969" rx="2.5" ry="2.5" style="stroke:#181818;stroke-width:0.5;" width="96" x="569" y="1096.3516"/><text fill="#000000" font-family="sans-serif" font-size="14" lengthAdjust="spacing" textLength="82" x="576" y="1116.3467">Origin Gerrit</text><text fill="#000000" font-family="sans-serif" font-size="14" lengthAdjust="spacing" textLength="83" x="702.5" y="77.9951">Counterpart</text><ellipse cx="747" cy="13.5" fill="#E2E2F0" rx="8" ry="8" style="stroke:#181818;stroke-width:0.5;"/><path d="M747,21.5 L747,48.5 M734,29.5 L760,29.5 M747,48.5 L734,63.5 M747,48.5 L760,63.5 " fill="none" style="stroke:#181818;stroke-width:0.5;"/><text fill="#000000" font-family="sans-serif" font-size="14" lengthAdjust="spacing" textLength="83" x="702.5" y="1109.3467">Counterpart</text><ellipse cx="747" cy="1121.1484" fill="#E2E2F0" rx="8" ry="8" style="stroke:#181818;stroke-width:0.5;"/><path d="M747,1129.1484 L747,1156.1484 M734,1137.1484 L760,1137.1484 M747,1156.1484 L734,1171.1484 M747,1156.1484 L760,1171.1484 " fill="none" style="stroke:#181818;stroke-width:0.5;"/><rect fill="#FFFFFF" height="966.9219" style="stroke:#181818;stroke-width:1.0;" width="10" x="247" y="112.4297"/><rect fill="#E9967A" height="555.5234" style="stroke:#181818;stroke-width:1.0;" width="10" x="252" y="487.6953"/><polygon fill="#181818" points="235,108.4297,245,112.4297,235,116.4297,239,112.4297" style="stroke:#181818;stroke-width:1.0;"/><line style="stroke:#181818;stroke-width:1.0;" x1="39" x2="241" y1="112.4297" y2="112.4297"/><text fill="#000000" font-family="sans-serif" font-size="13" lengthAdjust="spacing" textLength="99" x="46" y="107.3638">update form/bp</text><path d="M219,127.4297 L422,127.4297 L422,134.5625 L412,144.5625 L219,144.5625 L219,127.4297 " fill="#EEEEEE" style="stroke:#000000;stroke-width:1.5;"/><rect fill="none" height="117.5313" style="stroke:#000000;stroke-width:1.5;" width="340" x="219" y="127.4297"/><text fill="#000000" font-family="sans-serif" font-size="13" font-weight="bold" lengthAdjust="spacing" textLength="158" x="234" y="140.4966">Concurrent validation</text><polygon fill="#181818" points="483,161.6953,493,165.6953,483,169.6953,487,165.6953" style="stroke:#181818;stroke-width:1.0;"/><line style="stroke:#181818;stroke-width:1.0;" x1="257" x2="489" y1="165.6953" y2="165.6953"/><text fill="#000000" font-family="sans-serif" font-size="13" lengthAdjust="spacing" textLength="96" x="264" y="160.6294">get file content</text><polygon fill="#181818" points="268,190.8281,258,194.8281,268,198.8281,264,194.8281" style="stroke:#181818;stroke-width:1.0;"/><line style="stroke:#181818;stroke-width:1.0;stroke-dasharray:2.0,2.0;" x1="262" x2="494" y1="194.8281" y2="194.8281"/><text fill="#000000" font-family="sans-serif" font-size="13" lengthAdjust="spacing" textLength="71" x="274" y="189.7622">file content</text><line style="stroke:#181818;stroke-width:1.0;" x1="257" x2="299" y1="223.9609" y2="223.9609"/><line style="stroke:#181818;stroke-width:1.0;" x1="299" x2="299" y1="223.9609" y2="236.9609"/><line style="stroke:#181818;stroke-width:1.0;" x1="258" x2="299" y1="236.9609" y2="236.9609"/><polygon fill="#181818" points="268,232.9609,258,236.9609,268,240.9609,264,236.9609" style="stroke:#181818;stroke-width:1.0;"/><text fill="#000000" font-family="sans-serif" font-size="13" lengthAdjust="spacing" textLength="97" x="264" y="218.895">compare etags</text><path d="M10,258.9609 L74,258.9609 L74,266.0938 L64,276.0938 L10,276.0938 L10,258.9609 " fill="#EEEEEE" style="stroke:#000000;stroke-width:1.5;"/><rect fill="none" height="46.2656" style="stroke:#000000;stroke-width:1.5;" width="275" x="10" y="258.9609"/><text fill="#000000" font-family="sans-serif" font-size="13" font-weight="bold" lengthAdjust="spacing" textLength="19" x="25" y="272.0278">alt</text><text fill="#000000" font-family="sans-serif" font-size="11" font-weight="bold" lengthAdjust="spacing" textLength="131" x="89" y="271.1714">[etags are different]</text><polygon fill="#181818" points="50,293.2266,40,297.2266,50,301.2266,46,297.2266" style="stroke:#181818;stroke-width:1.0;"/><line style="stroke:#181818;stroke-width:1.0;stroke-dasharray:2.0,2.0;" x1="44" x2="246" y1="297.2266" y2="297.2266"/><text fill="#000000" font-family="sans-serif" font-size="13" lengthAdjust="spacing" textLength="184" x="56" y="292.1606">HTTP 412 Precondition Failed</text><path d="M431,319.2266 L495,319.2266 L495,326.3594 L485,336.3594 L431,336.3594 L431,319.2266 " fill="#EEEEEE" style="stroke:#000000;stroke-width:1.5;"/><rect fill="none" height="90.2031" style="stroke:#000000;stroke-width:1.5;" width="370.5" x="431" y="319.2266"/><text fill="#000000" font-family="sans-serif" font-size="13" font-weight="bold" lengthAdjust="spacing" textLength="19" x="446" y="332.2935">alt</text><text fill="#000000" font-family="sans-serif" font-size="11" font-weight="bold" lengthAdjust="spacing" textLength="215" x="510" y="331.437">[concurrent work in Admin Portal]</text><polygon fill="#181818" points="506,353.4922,496,357.4922,506,361.4922,502,357.4922" style="stroke:#181818;stroke-width:1.0;"/><line style="stroke:#181818;stroke-width:1.0;" x1="500" x2="746" y1="357.4922" y2="357.4922"/><text fill="#000000" font-family="sans-serif" font-size="13" lengthAdjust="spacing" textLength="106" x="512" y="352.4263">updates form/bp</text><line style="stroke:#000000;stroke-width:1.0;stroke-dasharray:2.0,2.0;" x1="431" x2="801.5" y1="366.4922" y2="366.4922"/><text fill="#000000" font-family="sans-serif" font-size="11" font-weight="bold" lengthAdjust="spacing" textLength="170" x="436" y="376.7026">[concurrent work in Gerrit]</text><polygon fill="#181818" points="628,397.4297,618,401.4297,628,405.4297,624,401.4297" style="stroke:#181818;stroke-width:1.0;"/><line style="stroke:#181818;stroke-width:1.0;" x1="622" x2="746" y1="401.4297" y2="401.4297"/><text fill="#000000" font-family="sans-serif" font-size="13" lengthAdjust="spacing" textLength="106" x="634" y="396.3638">updates form/bp</text><line style="stroke:#181818;stroke-width:1.0;" x1="257" x2="299" y1="437.5625" y2="437.5625"/><line style="stroke:#181818;stroke-width:1.0;" x1="299" x2="299" y1="437.5625" y2="450.5625"/><line style="stroke:#181818;stroke-width:1.0;" x1="258" x2="299" y1="450.5625" y2="450.5625"/><polygon fill="#181818" points="268,446.5625,258,450.5625,268,454.5625,264,450.5625" style="stroke:#181818;stroke-width:1.0;"/><text fill="#000000" font-family="sans-serif" font-size="13" lengthAdjust="spacing" textLength="118" x="264" y="432.4966">do some side stuff</text><line style="stroke:#181818;stroke-width:1.0;" x1="257" x2="304" y1="474.6953" y2="474.6953"/><line style="stroke:#181818;stroke-width:1.0;" x1="304" x2="304" y1="474.6953" y2="487.6953"/><line style="stroke:#181818;stroke-width:1.0;" x1="263" x2="304" y1="487.6953" y2="487.6953"/><polygon fill="#181818" points="273,483.6953,263,487.6953,273,491.6953,269,487.6953" style="stroke:#181818;stroke-width:1.0;"/><text fill="#000000" font-family="sans-serif" font-size="13" lengthAdjust="spacing" textLength="76" x="269" y="469.6294">acquire lock</text><path d="M219,507.6953 L422,507.6953 L422,514.8281 L412,524.8281 L219,524.8281 L219,507.6953 " fill="#EEEEEE" style="stroke:#000000;stroke-width:1.5;"/><rect fill="none" height="117.5313" style="stroke:#000000;stroke-width:1.5;" width="340" x="219" y="507.6953"/><text fill="#000000" font-family="sans-serif" font-size="13" font-weight="bold" lengthAdjust="spacing" textLength="158" x="234" y="520.7622">Concurrent validation</text><polygon fill="#181818" points="483,541.9609,493,545.9609,483,549.9609,487,545.9609" style="stroke:#181818;stroke-width:1.0;"/><line style="stroke:#181818;stroke-width:1.0;" x1="262" x2="489" y1="545.9609" y2="545.9609"/><text fill="#000000" font-family="sans-serif" font-size="13" lengthAdjust="spacing" textLength="96" x="269" y="540.895">get file content</text><polygon fill="#181818" points="273,571.0938,263,575.0938,273,579.0938,269,575.0938" style="stroke:#181818;stroke-width:1.0;"/><line style="stroke:#181818;stroke-width:1.0;stroke-dasharray:2.0,2.0;" x1="267" x2="494" y1="575.0938" y2="575.0938"/><text fill="#000000" font-family="sans-serif" font-size="13" lengthAdjust="spacing" textLength="71" x="279" y="570.0278">file content</text><line style="stroke:#181818;stroke-width:1.0;" x1="262" x2="304" y1="604.2266" y2="604.2266"/><line style="stroke:#181818;stroke-width:1.0;" x1="304" x2="304" y1="604.2266" y2="617.2266"/><line style="stroke:#181818;stroke-width:1.0;" x1="263" x2="304" y1="617.2266" y2="617.2266"/><polygon fill="#181818" points="273,613.2266,263,617.2266,273,621.2266,269,617.2266" style="stroke:#181818;stroke-width:1.0;"/><text fill="#000000" font-family="sans-serif" font-size="13" lengthAdjust="spacing" textLength="97" x="269" y="599.1606">compare etags</text><path d="M10,639.2266 L74,639.2266 L74,646.3594 L64,656.3594 L10,656.3594 L10,639.2266 " fill="#EEEEEE" style="stroke:#000000;stroke-width:1.5;"/><rect fill="none" height="46.2656" style="stroke:#000000;stroke-width:1.5;" width="275" x="10" y="639.2266"/><text fill="#000000" font-family="sans-serif" font-size="13" font-weight="bold" lengthAdjust="spacing" textLength="19" x="25" y="652.2935">alt</text><text fill="#000000" font-family="sans-serif" font-size="11" font-weight="bold" lengthAdjust="spacing" textLength="131" x="89" y="651.437">[etags are different]</text><polygon fill="#181818" points="50,673.4922,40,677.4922,50,681.4922,46,677.4922" style="stroke:#181818;stroke-width:1.0;"/><line style="stroke:#181818;stroke-width:1.0;stroke-dasharray:2.0,2.0;" x1="44" x2="251" y1="677.4922" y2="677.4922"/><text fill="#000000" font-family="sans-serif" font-size="13" lengthAdjust="spacing" textLength="184" x="56" y="672.4263">HTTP 412 Precondition Failed</text><polygon fill="#181818" points="483,709.625,493,713.625,483,717.625,487,713.625" style="stroke:#181818;stroke-width:1.0;"/><line style="stroke:#181818;stroke-width:1.0;" x1="262" x2="489" y1="713.625" y2="713.625"/><text fill="#000000" font-family="sans-serif" font-size="13" lengthAdjust="spacing" textLength="105" x="269" y="708.5591">write file content</text><polygon fill="#181818" points="483,769.0234,493,773.0234,483,777.0234,487,773.0234" style="stroke:#181818;stroke-width:1.0;"/><line style="stroke:#181818;stroke-width:1.0;" x1="262" x2="489" y1="773.0234" y2="773.0234"/><text fill="#000000" font-family="sans-serif" font-size="13" lengthAdjust="spacing" textLength="44" x="269" y="737.6919">git add</text><text fill="#000000" font-family="sans-serif" font-size="13" lengthAdjust="spacing" textLength="69" x="269" y="752.8247">git commit</text><text fill="#000000" font-family="sans-serif" font-size="13" lengthAdjust="spacing" textLength="51" x="269" y="767.9575">git push</text><polygon fill="#181818" points="605,798.1563,615,802.1563,605,806.1563,609,802.1563" style="stroke:#181818;stroke-width:1.0;"/><line style="stroke:#181818;stroke-width:1.0;" x1="495" x2="611" y1="802.1563" y2="802.1563"/><text fill="#000000" font-family="sans-serif" font-size="13" lengthAdjust="spacing" textLength="89" x="502" y="797.0903">push changes</text><path d="M10,817.1563 L74,817.1563 L74,824.2891 L64,834.2891 L10,834.2891 L10,817.1563 " fill="#EEEEEE" style="stroke:#000000;stroke-width:1.5;"/><rect fill="none" height="191.9297" style="stroke:#000000;stroke-width:1.5;" width="665" x="10" y="817.1563"/><text fill="#000000" font-family="sans-serif" font-size="13" font-weight="bold" lengthAdjust="spacing" textLength="19" x="25" y="830.2231">alt</text><text fill="#000000" font-family="sans-serif" font-size="11" font-weight="bold" lengthAdjust="spacing" textLength="102" x="89" y="829.3667">[merge conflict]</text><polygon fill="#181818" points="506,851.4219,496,855.4219,506,859.4219,502,855.4219" style="stroke:#181818;stroke-width:1.0;"/><line style="stroke:#181818;stroke-width:1.0;stroke-dasharray:2.0,2.0;" x1="500" x2="616" y1="855.4219" y2="855.4219"/><text fill="#000000" font-family="sans-serif" font-size="13" lengthAdjust="spacing" textLength="98" x="512" y="850.356">merge conflicts</text><polygon fill="#181818" points="273,880.5547,263,884.5547,273,888.5547,269,884.5547" style="stroke:#181818;stroke-width:1.0;"/><line style="stroke:#181818;stroke-width:1.0;stroke-dasharray:2.0,2.0;" x1="267" x2="494" y1="884.5547" y2="884.5547"/><text fill="#000000" font-family="sans-serif" font-size="13" lengthAdjust="spacing" textLength="98" x="279" y="879.4888">merge conflicts</text><polygon fill="#181818" points="483,909.6875,493,913.6875,483,917.6875,487,913.6875" style="stroke:#181818;stroke-width:1.0;"/><line style="stroke:#181818;stroke-width:1.0;" x1="262" x2="489" y1="913.6875" y2="913.6875"/><text fill="#000000" font-family="sans-serif" font-size="13" lengthAdjust="spacing" textLength="52" x="269" y="908.6216">git fetch</text><polygon fill="#181818" points="605,938.8203,615,942.8203,605,946.8203,609,942.8203" style="stroke:#181818;stroke-width:1.0;"/><line style="stroke:#181818;stroke-width:1.0;" x1="495" x2="611" y1="942.8203" y2="942.8203"/><text fill="#000000" font-family="sans-serif" font-size="13" lengthAdjust="spacing" textLength="52" x="502" y="937.7544">git fetch</text><polygon fill="#181818" points="483,967.9531,493,971.9531,483,975.9531,487,971.9531" style="stroke:#181818;stroke-width:1.0;"/><line style="stroke:#181818;stroke-width:1.0;" x1="262" x2="489" y1="971.9531" y2="971.9531"/><text fill="#000000" font-family="sans-serif" font-size="13" lengthAdjust="spacing" textLength="209" x="269" y="966.8872">hard reset on origin head branch</text><polygon fill="#181818" points="50,997.0859,40,1001.0859,50,1005.0859,46,1001.0859" style="stroke:#181818;stroke-width:1.0;"/><line style="stroke:#181818;stroke-width:1.0;stroke-dasharray:2.0,2.0;" x1="44" x2="251" y1="1001.0859" y2="1001.0859"/><text fill="#000000" font-family="sans-serif" font-size="13" lengthAdjust="spacing" textLength="184" x="56" y="996.02">HTTP 412 Precondition Failed</text><line style="stroke:#181818;stroke-width:1.0;" x1="262" x2="304" y1="1042.2188" y2="1042.2188"/><line style="stroke:#181818;stroke-width:1.0;" x1="304" x2="304" y1="1042.2188" y2="1055.2188"/><line style="stroke:#181818;stroke-width:1.0;" x1="257" x2="304" y1="1055.2188" y2="1055.2188"/><polygon fill="#181818" points="267,1051.2188,257,1055.2188,267,1059.2188,263,1055.2188" style="stroke:#181818;stroke-width:1.0;"/><text fill="#000000" font-family="sans-serif" font-size="13" lengthAdjust="spacing" textLength="76" x="269" y="1037.1528">release lock</text><polygon fill="#181818" points="50,1075.3516,40,1079.3516,50,1083.3516,46,1079.3516" style="stroke:#181818;stroke-width:1.0;"/><line style="stroke:#181818;stroke-width:1.0;stroke-dasharray:2.0,2.0;" x1="44" x2="251" y1="1079.3516" y2="1079.3516"/><text fill="#000000" font-family="sans-serif" font-size="13" lengthAdjust="spacing" textLength="15" x="56" y="1074.2856">ok</text><!--SRC=[nLGzJ-Gm4EtzAqPBlKA7gBP0Ed4wA42i-EYk6Un9OgrZXx43Vv-niqlYPPkJJheKZkqt7s_UP88w1OQNI0mOOPIt6f2JrNP0du2vp_UhnyVxLGMqDXNWBcXqS2CdfY4SsH3ptko1RMizt9IRbSAILOVH9-BiKeokv_DAgSm5rbUPmWR6mM0YQ0Btvwz3zhVl-K90rN8O1xWENe_C97dVqLanjy4ha2VN8764yKOe9MYi8yajgNmg1hcMzI7JDtJlNa0TUc57G0dRgCWRfT2bwGWPCBPfY2jNySsbRE3s-NaBbpykOCia2OpD3E4tIa8pnz9p7H-1To2g_JIzhDl02Ls9knJkKDcaKFoIY5oaKy6c5fmCKv0JaJArfGecG0mzGRH6bZGsJGMZVXkjQE62tbMTWhDVoBidTBrqvhzsxHysRSdpG_IZcak5bw4nve_F6s7LspJjXp5sgXGqjo7VWUxGjnGBuPwuBO4RP_LUWsd2reS4jKdyhjCfWsE63INTpQupenfSkdN8Hdu0KVeaweHfs3j20w-CVkdmry8MsaoECEu_AKFL-DTXmp7-2G00]--></g></svg>