<?xml version="1.0" encoding="us-ascii" standalone="no"?><svg xmlns="http://www.w3.org/2000/svg" xmlns:xlink="http://www.w3.org/1999/xlink" contentStyleType="text/css" height="1988px" preserveAspectRatio="none" style="width:1748px;height:1988px;background:#FFFFFF;" version="1.1" viewBox="0 0 1748 1988" width="1748px" zoomAndPan="magnify"><defs/><g><rect fill="none" height="75.3984" style="stroke:#000000;stroke-width:1.5;" width="460" x="1271.5" y="1397.7422"/><rect fill="none" height="59.2656" style="stroke:#000000;stroke-width:1.5;" width="234" x="1271.5" y="1487.1406"/><line style="stroke:#2688D4;stroke-width:0.5;stroke-dasharray:5.0,5.0;" x1="50" x2="50" y1="81.2969" y2="1907.6016"/><line style="stroke:#2688D4;stroke-width:0.5;stroke-dasharray:5.0,5.0;" x1="391" x2="391" y1="81.2969" y2="1907.6016"/><line style="stroke:#2688D4;stroke-width:0.5;stroke-dasharray:5.0,5.0;" x1="867.5" x2="867.5" y1="81.2969" y2="1907.6016"/><line style="stroke:#2688D4;stroke-width:0.5;stroke-dasharray:5.0,5.0;" x1="982.5" x2="982.5" y1="81.2969" y2="1907.6016"/><line style="stroke:#2688D4;stroke-width:0.5;stroke-dasharray:5.0,5.0;" x1="1338.5" x2="1338.5" y1="81.2969" y2="1907.6016"/><line style="stroke:#2688D4;stroke-width:0.5;stroke-dasharray:5.0,5.0;" x1="1666.5" x2="1666.5" y1="81.2969" y2="1907.6016"/><text fill="#000000" font-family="sans-serif" font-size="14" lengthAdjust="spacing" textLength="85" x="5" y="77.9951">&#1050;&#1086;&#1088;&#1080;&#1089;&#1090;&#1091;&#1074;&#1072;&#1095;</text><ellipse cx="50.5" cy="13.5" fill="#FFFFFF" rx="8" ry="8" style="stroke:#2688D4;stroke-width:0.5;"/><path d="M50.5,21.5 L50.5,48.5 M37.5,29.5 L63.5,29.5 M50.5,48.5 L37.5,63.5 M50.5,48.5 L63.5,63.5 " fill="none" style="stroke:#2688D4;stroke-width:0.5;"/><text fill="#000000" font-family="sans-serif" font-size="14" lengthAdjust="spacing" textLength="85" x="5" y="1919.5967">&#1050;&#1086;&#1088;&#1080;&#1089;&#1090;&#1091;&#1074;&#1072;&#1095;</text><ellipse cx="50.5" cy="1931.3984" fill="#FFFFFF" rx="8" ry="8" style="stroke:#2688D4;stroke-width:0.5;"/><path d="M50.5,1939.3984 L50.5,1966.3984 M37.5,1947.3984 L63.5,1947.3984 M50.5,1966.3984 L37.5,1981.3984 M50.5,1966.3984 L63.5,1981.3984 " fill="none" style="stroke:#2688D4;stroke-width:0.5;"/><rect fill="#FFFFFF" height="30.2969" rx="2.5" ry="2.5" style="stroke:#2688D4;stroke-width:0.5;" width="167" x="308" y="50"/><text fill="#000000" font-family="sans-serif" font-size="14" lengthAdjust="spacing" textLength="153" x="315" y="69.9951">Ka&#1073;&#1110;&#1085;&#1077;&#1090; &#1050;&#1086;&#1088;&#1080;&#1089;&#1090;&#1091;&#1074;&#1072;&#1095;&#1072;</text><rect fill="#FFFFFF" height="30.2969" rx="2.5" ry="2.5" style="stroke:#2688D4;stroke-width:0.5;" width="167" x="308" y="1906.6016"/><text fill="#000000" font-family="sans-serif" font-size="14" lengthAdjust="spacing" textLength="153" x="315" y="1926.5967">Ka&#1073;&#1110;&#1085;&#1077;&#1090; &#1050;&#1086;&#1088;&#1080;&#1089;&#1090;&#1091;&#1074;&#1072;&#1095;&#1072;</text><rect fill="#FFFFFF" height="30.2969" rx="2.5" ry="2.5" style="stroke:#2688D4;stroke-width:0.5;" width="138" x="798.5" y="50"/><text fill="#000000" font-family="sans-serif" font-size="14" lengthAdjust="spacing" textLength="124" x="805.5" y="69.9951">Kong API Gateway</text><rect fill="#FFFFFF" height="30.2969" rx="2.5" ry="2.5" style="stroke:#2688D4;stroke-width:0.5;" width="138" x="798.5" y="1906.6016"/><text fill="#000000" font-family="sans-serif" font-size="14" lengthAdjust="spacing" textLength="124" x="805.5" y="1926.5967">Kong API Gateway</text><rect fill="#FFFFFF" height="30.2969" rx="2.5" ry="2.5" style="stroke:#2688D4;stroke-width:0.5;" width="54" x="955.5" y="50"/><text fill="#000000" font-family="sans-serif" font-size="14" lengthAdjust="spacing" textLength="40" x="962.5" y="69.9951">BPMS</text><rect fill="#FFFFFF" height="30.2969" rx="2.5" ry="2.5" style="stroke:#2688D4;stroke-width:0.5;" width="54" x="955.5" y="1906.6016"/><text fill="#000000" font-family="sans-serif" font-size="14" lengthAdjust="spacing" textLength="40" x="962.5" y="1926.5967">BPMS</text><rect fill="#FFFFFF" height="46.5938" rx="2.5" ry="2.5" style="stroke:#2688D4;stroke-width:0.5;" width="114" x="1281.5" y="33.7031"/><text fill="#000000" font-family="sans-serif" font-size="14" lengthAdjust="spacing" textLength="47" x="1315" y="53.6982">&#1057;&#1077;&#1088;&#1074;&#1110;&#1089;</text><text fill="#000000" font-family="sans-serif" font-size="14" lengthAdjust="spacing" textLength="96" x="1292.5" y="69.9951">&#1085;&#1072;&#1083;&#1072;&#1096;&#1090;&#1091;&#1074;&#1072;&#1085;&#1100;</text><rect fill="#FFFFFF" height="46.5938" rx="2.5" ry="2.5" style="stroke:#2688D4;stroke-width:0.5;" width="114" x="1281.5" y="1906.6016"/><text fill="#000000" font-family="sans-serif" font-size="14" lengthAdjust="spacing" textLength="47" x="1315" y="1926.5967">&#1057;&#1077;&#1088;&#1074;&#1110;&#1089;</text><text fill="#000000" font-family="sans-serif" font-size="14" lengthAdjust="spacing" textLength="96" x="1292.5" y="1942.8936">&#1085;&#1072;&#1083;&#1072;&#1096;&#1090;&#1091;&#1074;&#1072;&#1085;&#1100;</text><rect fill="#FFFFFF" height="46.5938" rx="2.5" ry="2.5" style="stroke:#2688D4;stroke-width:0.5;" width="110" x="1611.5" y="33.7031"/><text fill="#000000" font-family="sans-serif" font-size="14" lengthAdjust="spacing" textLength="22" x="1655.5" y="53.6982">&#1041;&#1044;</text><text fill="#000000" font-family="sans-serif" font-size="14" lengthAdjust="spacing" textLength="96" x="1618.5" y="69.9951">&#1085;&#1072;&#1083;&#1072;&#1096;&#1090;&#1091;&#1074;&#1072;&#1085;&#1100;</text><rect fill="#FFFFFF" height="46.5938" rx="2.5" ry="2.5" style="stroke:#2688D4;stroke-width:0.5;" width="110" x="1611.5" y="1906.6016"/><text fill="#000000" font-family="sans-serif" font-size="14" lengthAdjust="spacing" textLength="22" x="1655.5" y="1926.5967">&#1041;&#1044;</text><text fill="#000000" font-family="sans-serif" font-size="14" lengthAdjust="spacing" textLength="96" x="1618.5" y="1942.8936">&#1085;&#1072;&#1083;&#1072;&#1096;&#1090;&#1091;&#1074;&#1072;&#1085;&#1100;</text><rect fill="#EEEEEE" height="3" style="stroke:#EEEEEE;stroke-width:1.0;" width="1741.5" x="0" y="111.8633"/><line style="stroke:#000000;stroke-width:1.0;" x1="0" x2="1741.5" y1="111.8633" y2="111.8633"/><line style="stroke:#000000;stroke-width:1.0;" x1="0" x2="1741.5" y1="114.8633" y2="114.8633"/><rect fill="#EEEEEE" height="23.1328" style="stroke:#000000;stroke-width:2.0;" width="433" x="654.25" y="101.2969"/><text fill="#000000" font-family="sans-serif" font-size="13" font-weight="bold" lengthAdjust="spacing" textLength="414" x="660.25" y="117.3638">&#1054;&#1090;&#1088;&#1080;&#1084;&#1072;&#1085;&#1085;&#1103; &#1082;&#1086;&#1088;&#1080;&#1089;&#1090;&#1091;&#1074;&#1072;&#1095;&#1077;&#1084; &#1085;&#1072;&#1083;&#1072;&#1096;&#1090;&#1091;&#1074;&#1072;&#1085;&#1100; &#1095;&#1077;&#1088;&#1077;&#1079; &#1082;&#1072;&#1073;&#1110;&#1085;&#1077;&#1090;</text><polygon fill="#2688D4" points="379.5,151.5625,389.5,155.5625,379.5,159.5625,383.5,155.5625" style="stroke:#2688D4;stroke-width:1.0;"/><line style="stroke:#2688D4;stroke-width:1.0;" x1="50.5" x2="385.5" y1="155.5625" y2="155.5625"/><text fill="#000000" font-family="sans-serif" font-size="13" lengthAdjust="spacing" textLength="137" x="57.5" y="150.4966">&#1047;&#1072;&#1087;&#1080;&#1090; &#1085;&#1072;&#1083;&#1072;&#1096;&#1090;&#1091;&#1074;&#1072;&#1085;&#1100;</text><polygon fill="#2688D4" points="855.5,195.8281,865.5,199.8281,855.5,203.8281,859.5,199.8281" style="stroke:#2688D4;stroke-width:1.0;"/><line style="stroke:#2688D4;stroke-width:1.0;" x1="391.5" x2="861.5" y1="199.8281" y2="199.8281"/><text fill="#000000" font-family="sans-serif" font-size="13" lengthAdjust="spacing" textLength="42" x="398.5" y="179.6294">&#1047;&#1072;&#1087;&#1080;&#1090;</text><text fill="#000000" font-family="sans-serif" font-size="13" font-weight="bold" lengthAdjust="spacing" textLength="154" x="444.5" y="179.6294">GET /api/settings/me</text><text fill="#000000" font-family="sans-serif" font-size="13" lengthAdjust="spacing" textLength="4" x="598.5" y="179.6294">&#160;</text><text fill="#000000" font-family="sans-serif" font-size="13" lengthAdjust="spacing" textLength="129" x="398.5" y="194.7622">&#1055;&#1072;&#1088;&#1072;&#1084;&#1077;&#1090;&#1088;&#1080;: ID &#1089;&#1077;&#1089;&#1110;&#1111;</text><line style="stroke:#2688D4;stroke-width:1.0;" x1="867.5" x2="909.5" y1="228.9609" y2="228.9609"/><line style="stroke:#2688D4;stroke-width:1.0;" x1="909.5" x2="909.5" y1="228.9609" y2="241.9609"/><line style="stroke:#2688D4;stroke-width:1.0;" x1="868.5" x2="909.5" y1="241.9609" y2="241.9609"/><polygon fill="#2688D4" points="878.5,237.9609,868.5,241.9609,878.5,245.9609,874.5,241.9609" style="stroke:#2688D4;stroke-width:1.0;"/><text fill="#000000" font-family="sans-serif" font-size="13" lengthAdjust="spacing" textLength="101" x="874.5" y="223.895">&#1055;&#1077;&#1088;&#1077;&#1074;&#1110;&#1088;&#1082;&#1072; &#1089;&#1077;&#1089;&#1110;&#1111;</text><polygon fill="#2688D4" points="1326.5,282.2266,1336.5,286.2266,1326.5,290.2266,1330.5,286.2266" style="stroke:#2688D4;stroke-width:1.0;"/><line style="stroke:#2688D4;stroke-width:1.0;" x1="867.5" x2="1332.5" y1="286.2266" y2="286.2266"/><text fill="#000000" font-family="sans-serif" font-size="13" lengthAdjust="spacing" textLength="42" x="874.5" y="266.0278">&#1047;&#1072;&#1087;&#1080;&#1090;</text><text fill="#000000" font-family="sans-serif" font-size="13" font-weight="bold" lengthAdjust="spacing" textLength="154" x="920.5" y="266.0278">GET /api/settings/me</text><text fill="#000000" font-family="sans-serif" font-size="13" lengthAdjust="spacing" textLength="4" x="1074.5" y="266.0278">&#160;</text><text fill="#000000" font-family="sans-serif" font-size="13" lengthAdjust="spacing" textLength="112" x="874.5" y="281.1606">&#1079; X-Access-Token</text><line style="stroke:#2688D4;stroke-width:1.0;" x1="1338.5" x2="1380.5" y1="330.4922" y2="330.4922"/><line style="stroke:#2688D4;stroke-width:1.0;" x1="1380.5" x2="1380.5" y1="330.4922" y2="343.4922"/><line style="stroke:#2688D4;stroke-width:1.0;" x1="1339.5" x2="1380.5" y1="343.4922" y2="343.4922"/><polygon fill="#2688D4" points="1349.5,339.4922,1339.5,343.4922,1349.5,347.4922,1345.5,343.4922" style="stroke:#2688D4;stroke-width:1.0;"/><text fill="#000000" font-family="sans-serif" font-size="13" lengthAdjust="spacing" textLength="91" x="1345.5" y="310.2935">&#1054;&#1090;&#1088;&#1080;&#1084;&#1072;&#1085;&#1085;&#1103; id</text><text fill="#000000" font-family="sans-serif" font-size="13" lengthAdjust="spacing" textLength="151" x="1345.5" y="325.4263">&#1082;&#1086;&#1088;&#1080;&#1089;&#1090;&#1091;&#1074;&#1072;&#1095;&#1072; &#1079; &#1090;&#1086;&#1082;&#1077;&#1085;&#1072;</text><polygon fill="#2688D4" points="1654.5,383.7578,1664.5,387.7578,1654.5,391.7578,1658.5,387.7578" style="stroke:#2688D4;stroke-width:1.0;"/><line style="stroke:#2688D4;stroke-width:1.0;" x1="1338.5" x2="1660.5" y1="387.7578" y2="387.7578"/><text fill="#000000" font-family="sans-serif" font-size="13" lengthAdjust="spacing" textLength="137" x="1345.5" y="367.5591">&#1047;&#1072;&#1087;&#1080;&#1090; &#1085;&#1072;&#1083;&#1072;&#1096;&#1090;&#1091;&#1074;&#1072;&#1085;&#1100;</text><text fill="#000000" font-family="sans-serif" font-size="13" lengthAdjust="spacing" textLength="87" x="1345.5" y="382.6919">&#1082;&#1086;&#1088;&#1080;&#1089;&#1090;&#1091;&#1074;&#1072;&#1095;&#1072;</text><polygon fill="#2688D4" points="1349.5,412.8906,1339.5,416.8906,1349.5,420.8906,1345.5,416.8906" style="stroke:#2688D4;stroke-width:1.0;"/><line style="stroke:#2688D4;stroke-width:1.0;stroke-dasharray:2.0,2.0;" x1="1343.5" x2="1665.5" y1="416.8906" y2="416.8906"/><text fill="#000000" font-family="sans-serif" font-size="13" lengthAdjust="spacing" textLength="192" x="1355.5" y="411.8247">&#1053;&#1072;&#1083;&#1072;&#1096;&#1090;&#1091;&#1074;&#1072;&#1085;&#1085;&#1103; &#1082;&#1086;&#1088;&#1080;&#1089;&#1090;&#1091;&#1074;&#1072;&#1095;&#1072;</text><polygon fill="#2688D4" points="878.5,426.8906,868.5,430.8906,878.5,434.8906,874.5,430.8906" style="stroke:#2688D4;stroke-width:1.0;"/><line style="stroke:#2688D4;stroke-width:1.0;stroke-dasharray:2.0,2.0;" x1="872.5" x2="1337.5" y1="430.8906" y2="430.8906"/><polygon fill="#2688D4" points="402.5,440.8906,392.5,444.8906,402.5,448.8906,398.5,444.8906" style="stroke:#2688D4;stroke-width:1.0;"/><line style="stroke:#2688D4;stroke-width:1.0;stroke-dasharray:2.0,2.0;" x1="396.5" x2="866.5" y1="444.8906" y2="444.8906"/><polygon fill="#2688D4" points="61.5,454.8906,51.5,458.8906,61.5,462.8906,57.5,458.8906" style="stroke:#2688D4;stroke-width:1.0;"/><line style="stroke:#2688D4;stroke-width:1.0;stroke-dasharray:2.0,2.0;" x1="55.5" x2="390.5" y1="458.8906" y2="458.8906"/><rect fill="#EEEEEE" height="3" style="stroke:#EEEEEE;stroke-width:1.0;" width="1741.5" x="0" y="487.457"/><line style="stroke:#000000;stroke-width:1.0;" x1="0" x2="1741.5" y1="487.457" y2="487.457"/><line style="stroke:#000000;stroke-width:1.0;" x1="0" x2="1741.5" y1="490.457" y2="490.457"/><rect fill="#EEEEEE" height="23.1328" style="stroke:#000000;stroke-width:2.0;" width="513" x="614.25" y="476.8906"/><text fill="#000000" font-family="sans-serif" font-size="13" font-weight="bold" lengthAdjust="spacing" textLength="494" x="620.25" y="492.9575">&#1054;&#1090;&#1088;&#1080;&#1084;&#1072;&#1085;&#1085;&#1103; &#1085;&#1072;&#1083;&#1072;&#1096;&#1090;&#1091;&#1074;&#1072;&#1085;&#1100; &#1082;&#1086;&#1088;&#1080;&#1089;&#1090;&#1091;&#1074;&#1072;&#1095;&#1072; &#1076;&#1083;&#1103; &#1085;&#1086;&#1090;&#1080;&#1092;&#1110;&#1082;&#1072;&#1094;&#1110;&#1111; &#1095;&#1077;&#1088;&#1077;&#1079; &#1041;&#1055;</text><polygon fill="#2688D4" points="1326.5,542.2891,1336.5,546.2891,1326.5,550.2891,1330.5,546.2891" style="stroke:#2688D4;stroke-width:1.0;"/><line style="stroke:#2688D4;stroke-width:1.0;" x1="982.5" x2="1332.5" y1="546.2891" y2="546.2891"/><text fill="#000000" font-family="sans-serif" font-size="13" lengthAdjust="spacing" textLength="75" x="989.5" y="526.0903">&#1047;&#1072;&#1087;&#1080;&#1090; &#1079; &#1041;&#1055;</text><text fill="#000000" font-family="sans-serif" font-size="13" font-weight="bold" lengthAdjust="spacing" textLength="195" x="1068.5" y="526.0903">GET /api/settings/{userId}</text><text fill="#000000" font-family="sans-serif" font-size="13" lengthAdjust="spacing" textLength="4" x="1263.5" y="526.0903">&#160;</text><text fill="#000000" font-family="sans-serif" font-size="13" lengthAdjust="spacing" textLength="112" x="989.5" y="541.2231">&#1079; X-Access-Token</text><polygon fill="#2688D4" points="1654.5,586.5547,1664.5,590.5547,1654.5,594.5547,1658.5,590.5547" style="stroke:#2688D4;stroke-width:1.0;"/><line style="stroke:#2688D4;stroke-width:1.0;" x1="1338.5" x2="1660.5" y1="590.5547" y2="590.5547"/><text fill="#000000" font-family="sans-serif" font-size="13" lengthAdjust="spacing" textLength="137" x="1345.5" y="570.356">&#1047;&#1072;&#1087;&#1080;&#1090; &#1085;&#1072;&#1083;&#1072;&#1096;&#1090;&#1091;&#1074;&#1072;&#1085;&#1100;</text><text fill="#000000" font-family="sans-serif" font-size="13" lengthAdjust="spacing" textLength="87" x="1345.5" y="585.4888">&#1082;&#1086;&#1088;&#1080;&#1089;&#1090;&#1091;&#1074;&#1072;&#1095;&#1072;</text><polygon fill="#2688D4" points="1349.5,615.6875,1339.5,619.6875,1349.5,623.6875,1345.5,619.6875" style="stroke:#2688D4;stroke-width:1.0;"/><line style="stroke:#2688D4;stroke-width:1.0;stroke-dasharray:2.0,2.0;" x1="1343.5" x2="1665.5" y1="619.6875" y2="619.6875"/><text fill="#000000" font-family="sans-serif" font-size="13" lengthAdjust="spacing" textLength="192" x="1355.5" y="614.6216">&#1053;&#1072;&#1083;&#1072;&#1096;&#1090;&#1091;&#1074;&#1072;&#1085;&#1085;&#1103; &#1082;&#1086;&#1088;&#1080;&#1089;&#1090;&#1091;&#1074;&#1072;&#1095;&#1072;</text><polygon fill="#2688D4" points="993.5,629.6875,983.5,633.6875,993.5,637.6875,989.5,633.6875" style="stroke:#2688D4;stroke-width:1.0;"/><line style="stroke:#2688D4;stroke-width:1.0;stroke-dasharray:2.0,2.0;" x1="987.5" x2="1337.5" y1="633.6875" y2="633.6875"/><line style="stroke:#2688D4;stroke-width:1.0;" x1="982.5" x2="1024.5" y1="662.8203" y2="662.8203"/><line style="stroke:#2688D4;stroke-width:1.0;" x1="1024.5" x2="1024.5" y1="662.8203" y2="675.8203"/><line style="stroke:#2688D4;stroke-width:1.0;" x1="983.5" x2="1024.5" y1="675.8203" y2="675.8203"/><polygon fill="#2688D4" points="993.5,671.8203,983.5,675.8203,993.5,679.8203,989.5,675.8203" style="stroke:#2688D4;stroke-width:1.0;"/><text fill="#000000" font-family="sans-serif" font-size="13" lengthAdjust="spacing" textLength="117" x="989.5" y="657.7544">&#1055;&#1088;&#1086;&#1076;&#1086;&#1074;&#1078;&#1077;&#1085;&#1085;&#1103; &#1041;&#1055;</text><rect fill="#EEEEEE" height="3" style="stroke:#EEEEEE;stroke-width:1.0;" width="1741.5" x="0" y="704.3867"/><line style="stroke:#000000;stroke-width:1.0;" x1="0" x2="1741.5" y1="704.3867" y2="704.3867"/><line style="stroke:#000000;stroke-width:1.0;" x1="0" x2="1741.5" y1="707.3867" y2="707.3867"/><rect fill="#EEEEEE" height="23.1328" style="stroke:#000000;stroke-width:2.0;" width="255" x="743.25" y="693.8203"/><text fill="#000000" font-family="sans-serif" font-size="13" font-weight="bold" lengthAdjust="spacing" textLength="236" x="749.25" y="709.8872">&#1054;&#1085;&#1086;&#1074;&#1083;&#1077;&#1085;&#1085;&#1103; &#1082;&#1072;&#1085;&#1072;&#1083;&#1110;&#1074; (&#1072;&#1082;&#1090;&#1080;&#1074;&#1072;&#1094;&#1110;&#1103;)</text><polygon fill="#2688D4" points="379.5,744.0859,389.5,748.0859,379.5,752.0859,383.5,748.0859" style="stroke:#2688D4;stroke-width:1.0;"/><line style="stroke:#2688D4;stroke-width:1.0;" x1="50.5" x2="385.5" y1="748.0859" y2="748.0859"/><text fill="#000000" font-family="sans-serif" font-size="13" lengthAdjust="spacing" textLength="317" x="57.5" y="743.02">&#1047;&#1072;&#1087;&#1080;&#1090; &#1085;&#1072; &#1072;&#1082;&#1090;&#1080;&#1074;&#1072;&#1094;&#1110;&#1102; / &#1086;&#1085;&#1086;&#1074;&#1083;&#1077;&#1085;&#1085;&#1103; &#1085;&#1072;&#1083;&#1072;&#1096;&#1090;&#1091;&#1074;&#1072;&#1085;&#1100;</text><polygon fill="#2688D4" points="855.5,788.3516,865.5,792.3516,855.5,796.3516,859.5,792.3516" style="stroke:#2688D4;stroke-width:1.0;"/><line style="stroke:#2688D4;stroke-width:1.0;" x1="391.5" x2="861.5" y1="792.3516" y2="792.3516"/><text fill="#000000" font-family="sans-serif" font-size="13" lengthAdjust="spacing" textLength="42" x="398.5" y="772.1528">&#1047;&#1072;&#1087;&#1080;&#1090;</text><text fill="#000000" font-family="sans-serif" font-size="13" font-weight="bold" lengthAdjust="spacing" textLength="378" x="449.5" y="772.1528">POST /api/settings/me/channels/{channel}/activate</text><text fill="#000000" font-family="sans-serif" font-size="13" lengthAdjust="spacing" textLength="4" x="827.5" y="772.1528">&#160;</text><text fill="#000000" font-family="sans-serif" font-size="13" lengthAdjust="spacing" textLength="129" x="398.5" y="787.2856">&#1055;&#1072;&#1088;&#1072;&#1084;&#1077;&#1090;&#1088;&#1080;: ID &#1089;&#1077;&#1089;&#1110;&#1111;</text><line style="stroke:#2688D4;stroke-width:1.0;" x1="867.5" x2="909.5" y1="821.4844" y2="821.4844"/><line style="stroke:#2688D4;stroke-width:1.0;" x1="909.5" x2="909.5" y1="821.4844" y2="834.4844"/><line style="stroke:#2688D4;stroke-width:1.0;" x1="868.5" x2="909.5" y1="834.4844" y2="834.4844"/><polygon fill="#2688D4" points="878.5,830.4844,868.5,834.4844,878.5,838.4844,874.5,834.4844" style="stroke:#2688D4;stroke-width:1.0;"/><text fill="#000000" font-family="sans-serif" font-size="13" lengthAdjust="spacing" textLength="101" x="874.5" y="816.4185">&#1055;&#1077;&#1088;&#1077;&#1074;&#1110;&#1088;&#1082;&#1072; &#1089;&#1077;&#1089;&#1110;&#1111;</text><polygon fill="#2688D4" points="1326.5,874.75,1336.5,878.75,1326.5,882.75,1330.5,878.75" style="stroke:#2688D4;stroke-width:1.0;"/><line style="stroke:#2688D4;stroke-width:1.0;" x1="867.5" x2="1332.5" y1="878.75" y2="878.75"/><text fill="#000000" font-family="sans-serif" font-size="13" lengthAdjust="spacing" textLength="42" x="874.5" y="858.5513">&#1047;&#1072;&#1087;&#1080;&#1090;</text><text fill="#000000" font-family="sans-serif" font-size="13" font-weight="bold" lengthAdjust="spacing" textLength="378" x="920.5" y="858.5513">POST /api/settings/me/channels/{channel}/activate</text><text fill="#000000" font-family="sans-serif" font-size="13" lengthAdjust="spacing" textLength="4" x="1298.5" y="858.5513">&#160;</text><text fill="#000000" font-family="sans-serif" font-size="13" lengthAdjust="spacing" textLength="112" x="874.5" y="873.6841">&#1079; X-Access-Token</text><line style="stroke:#2688D4;stroke-width:1.0;" x1="1338.5" x2="1380.5" y1="907.8828" y2="907.8828"/><line style="stroke:#2688D4;stroke-width:1.0;" x1="1380.5" x2="1380.5" y1="907.8828" y2="920.8828"/><line style="stroke:#2688D4;stroke-width:1.0;" x1="1339.5" x2="1380.5" y1="920.8828" y2="920.8828"/><polygon fill="#2688D4" points="1349.5,916.8828,1339.5,920.8828,1349.5,924.8828,1345.5,920.8828" style="stroke:#2688D4;stroke-width:1.0;"/><text fill="#000000" font-family="sans-serif" font-size="13" lengthAdjust="spacing" textLength="111" x="1345.5" y="902.8169">&#1042;&#1072;&#1083;&#1110;&#1076;&#1072;&#1094;&#1110;&#1103; &#1076;&#1072;&#1085;&#1080;&#1093;</text><polygon fill="#2688D4" points="1654.5,946.0156,1664.5,950.0156,1654.5,954.0156,1658.5,950.0156" style="stroke:#2688D4;stroke-width:1.0;"/><line style="stroke:#2688D4;stroke-width:1.0;" x1="1338.5" x2="1660.5" y1="950.0156" y2="950.0156"/><text fill="#000000" font-family="sans-serif" font-size="13" lengthAdjust="spacing" textLength="288" x="1345.5" y="944.9497">&#1054;&#1090;&#1088;&#1080;&#1084;&#1072;&#1085;&#1085;&#1103; &#1087;&#1086;&#1090;&#1086;&#1095;&#1085;&#1086;&#1111; &#1110;&#1085;&#1092;&#1086;&#1088;&#1084;&#1072;&#1094;&#1110;&#1111; &#1087;&#1088;&#1086; &#1082;&#1072;&#1085;&#1072;&#1083;</text><polygon fill="#2688D4" points="1349.5,960.0156,1339.5,964.0156,1349.5,968.0156,1345.5,964.0156" style="stroke:#2688D4;stroke-width:1.0;"/><line style="stroke:#2688D4;stroke-width:1.0;stroke-dasharray:2.0,2.0;" x1="1343.5" x2="1665.5" y1="964.0156" y2="964.0156"/><polygon fill="#2688D4" points="1654.5,989.1484,1664.5,993.1484,1654.5,997.1484,1658.5,993.1484" style="stroke:#2688D4;stroke-width:1.0;"/><line style="stroke:#2688D4;stroke-width:1.0;" x1="1338.5" x2="1660.5" y1="993.1484" y2="993.1484"/><text fill="#000000" font-family="sans-serif" font-size="13" lengthAdjust="spacing" textLength="304" x="1345.5" y="988.0825">&#1047;&#1073;&#1077;&#1088;&#1077;&#1078;&#1077;&#1085;&#1085;&#1103; &#1086;&#1085;&#1086;&#1074;&#1083;&#1077;&#1085;&#1086;&#1111; &#1110;&#1085;&#1092;&#1086;&#1088;&#1084;&#1072;&#1094;&#1110;&#1111; &#1087;&#1088;&#1086; &#1082;&#1072;&#1085;&#1072;&#1083;</text><polygon fill="#2688D4" points="1349.5,1018.2813,1339.5,1022.2813,1349.5,1026.2813,1345.5,1022.2813" style="stroke:#2688D4;stroke-width:1.0;"/><line style="stroke:#2688D4;stroke-width:1.0;stroke-dasharray:2.0,2.0;" x1="1343.5" x2="1665.5" y1="1022.2813" y2="1022.2813"/><text fill="#000000" font-family="sans-serif" font-size="13" lengthAdjust="spacing" textLength="175" x="1355.5" y="1017.2153">&#1053;&#1072;&#1083;&#1072;&#1096;&#1090;&#1091;&#1074;&#1072;&#1085;&#1085;&#1103; &#1079;&#1073;&#1077;&#1088;&#1077;&#1078;&#1077;&#1085;&#1110;</text><polygon fill="#2688D4" points="878.5,1047.4141,868.5,1051.4141,878.5,1055.4141,874.5,1051.4141" style="stroke:#2688D4;stroke-width:1.0;"/><line style="stroke:#2688D4;stroke-width:1.0;stroke-dasharray:2.0,2.0;" x1="872.5" x2="1337.5" y1="1051.4141" y2="1051.4141"/><text fill="#000000" font-family="sans-serif" font-size="13" lengthAdjust="spacing" textLength="126" x="884.5" y="1046.3481">&#1050;&#1072;&#1085;&#1072;&#1083; &#1072;&#1082;&#1090;&#1080;&#1074;&#1086;&#1074;&#1072;&#1085;&#1086;</text><polygon fill="#2688D4" points="402.5,1061.4141,392.5,1065.4141,402.5,1069.4141,398.5,1065.4141" style="stroke:#2688D4;stroke-width:1.0;"/><line style="stroke:#2688D4;stroke-width:1.0;stroke-dasharray:2.0,2.0;" x1="396.5" x2="866.5" y1="1065.4141" y2="1065.4141"/><polygon fill="#2688D4" points="61.5,1075.4141,51.5,1079.4141,61.5,1083.4141,57.5,1079.4141" style="stroke:#2688D4;stroke-width:1.0;"/><line style="stroke:#2688D4;stroke-width:1.0;stroke-dasharray:2.0,2.0;" x1="55.5" x2="390.5" y1="1079.4141" y2="1079.4141"/><rect fill="#EEEEEE" height="3" style="stroke:#EEEEEE;stroke-width:1.0;" width="1741.5" x="0" y="1107.9805"/><line style="stroke:#000000;stroke-width:1.0;" x1="0" x2="1741.5" y1="1107.9805" y2="1107.9805"/><line style="stroke:#000000;stroke-width:1.0;" x1="0" x2="1741.5" y1="1110.9805" y2="1110.9805"/><rect fill="#EEEEEE" height="23.1328" style="stroke:#000000;stroke-width:2.0;" width="275" x="733.25" y="1097.4141"/><text fill="#000000" font-family="sans-serif" font-size="13" font-weight="bold" lengthAdjust="spacing" textLength="256" x="739.25" y="1113.481">&#1054;&#1085;&#1086;&#1074;&#1083;&#1077;&#1085;&#1085;&#1103; &#1082;&#1072;&#1085;&#1072;&#1083;&#1110;&#1074; (&#1076;&#1077;&#1072;&#1082;&#1090;&#1080;&#1074;&#1072;&#1094;&#1110;&#1103;)</text><polygon fill="#2688D4" points="379.5,1147.6797,389.5,1151.6797,379.5,1155.6797,383.5,1151.6797" style="stroke:#2688D4;stroke-width:1.0;"/><line style="stroke:#2688D4;stroke-width:1.0;" x1="50.5" x2="385.5" y1="1151.6797" y2="1151.6797"/><text fill="#000000" font-family="sans-serif" font-size="13" lengthAdjust="spacing" textLength="251" x="57.5" y="1146.6138">&#1047;&#1072;&#1087;&#1080;&#1090; &#1085;&#1072; &#1076;&#1077;&#1072;&#1082;&#1090;&#1080;&#1074;&#1072;&#1094;&#1110;&#1102; &#1085;&#1072;&#1083;&#1072;&#1096;&#1090;&#1091;&#1074;&#1072;&#1085;&#1100;</text><polygon fill="#2688D4" points="855.5,1191.9453,865.5,1195.9453,855.5,1199.9453,859.5,1195.9453" style="stroke:#2688D4;stroke-width:1.0;"/><line style="stroke:#2688D4;stroke-width:1.0;" x1="391.5" x2="861.5" y1="1195.9453" y2="1195.9453"/><text fill="#000000" font-family="sans-serif" font-size="13" lengthAdjust="spacing" textLength="42" x="398.5" y="1175.7466">&#1047;&#1072;&#1087;&#1080;&#1090;</text><text fill="#000000" font-family="sans-serif" font-size="13" font-weight="bold" lengthAdjust="spacing" textLength="397" x="449.5" y="1175.7466">POST /api/settings/me/channels/{channel}/deactivate</text><text fill="#000000" font-family="sans-serif" font-size="13" lengthAdjust="spacing" textLength="4" x="846.5" y="1175.7466">&#160;</text><text fill="#000000" font-family="sans-serif" font-size="13" lengthAdjust="spacing" textLength="129" x="398.5" y="1190.8794">&#1055;&#1072;&#1088;&#1072;&#1084;&#1077;&#1090;&#1088;&#1080;: ID &#1089;&#1077;&#1089;&#1110;&#1111;</text><line style="stroke:#2688D4;stroke-width:1.0;" x1="867.5" x2="909.5" y1="1225.0781" y2="1225.0781"/><line style="stroke:#2688D4;stroke-width:1.0;" x1="909.5" x2="909.5" y1="1225.0781" y2="1238.0781"/><line style="stroke:#2688D4;stroke-width:1.0;" x1="868.5" x2="909.5" y1="1238.0781" y2="1238.0781"/><polygon fill="#2688D4" points="878.5,1234.0781,868.5,1238.0781,878.5,1242.0781,874.5,1238.0781" style="stroke:#2688D4;stroke-width:1.0;"/><text fill="#000000" font-family="sans-serif" font-size="13" lengthAdjust="spacing" textLength="101" x="874.5" y="1220.0122">&#1055;&#1077;&#1088;&#1077;&#1074;&#1110;&#1088;&#1082;&#1072; &#1089;&#1077;&#1089;&#1110;&#1111;</text><polygon fill="#2688D4" points="1326.5,1278.3438,1336.5,1282.3438,1326.5,1286.3438,1330.5,1282.3438" style="stroke:#2688D4;stroke-width:1.0;"/><line style="stroke:#2688D4;stroke-width:1.0;" x1="867.5" x2="1332.5" y1="1282.3438" y2="1282.3438"/><text fill="#000000" font-family="sans-serif" font-size="13" lengthAdjust="spacing" textLength="42" x="874.5" y="1262.145">&#1047;&#1072;&#1087;&#1080;&#1090;</text><text fill="#000000" font-family="sans-serif" font-size="13" font-weight="bold" lengthAdjust="spacing" textLength="397" x="920.5" y="1262.145">POST /api/settings/me/channels/{channel}/deactivate</text><text fill="#000000" font-family="sans-serif" font-size="13" lengthAdjust="spacing" textLength="4" x="1317.5" y="1262.145">&#160;</text><text fill="#000000" font-family="sans-serif" font-size="13" lengthAdjust="spacing" textLength="112" x="874.5" y="1277.2778">&#1079; X-Access-Token</text><line style="stroke:#2688D4;stroke-width:1.0;" x1="1338.5" x2="1380.5" y1="1326.6094" y2="1326.6094"/><line style="stroke:#2688D4;stroke-width:1.0;" x1="1380.5" x2="1380.5" y1="1326.6094" y2="1339.6094"/><line style="stroke:#2688D4;stroke-width:1.0;" x1="1339.5" x2="1380.5" y1="1339.6094" y2="1339.6094"/><polygon fill="#2688D4" points="1349.5,1335.6094,1339.5,1339.6094,1349.5,1343.6094,1345.5,1339.6094" style="stroke:#2688D4;stroke-width:1.0;"/><text fill="#000000" font-family="sans-serif" font-size="13" lengthAdjust="spacing" textLength="91" x="1345.5" y="1306.4106">&#1054;&#1090;&#1088;&#1080;&#1084;&#1072;&#1085;&#1085;&#1103; id</text><text fill="#000000" font-family="sans-serif" font-size="13" lengthAdjust="spacing" textLength="151" x="1345.5" y="1321.5435">&#1082;&#1086;&#1088;&#1080;&#1089;&#1090;&#1091;&#1074;&#1072;&#1095;&#1072; &#1079; &#1090;&#1086;&#1082;&#1077;&#1085;&#1072;</text><polygon fill="#2688D4" points="1654.5,1364.7422,1664.5,1368.7422,1654.5,1372.7422,1658.5,1368.7422" style="stroke:#2688D4;stroke-width:1.0;"/><line style="stroke:#2688D4;stroke-width:1.0;" x1="1338.5" x2="1660.5" y1="1368.7422" y2="1368.7422"/><text fill="#000000" font-family="sans-serif" font-size="13" lengthAdjust="spacing" textLength="223" x="1345.5" y="1363.6763">&#1054;&#1090;&#1088;&#1080;&#1084;&#1072;&#1085;&#1085;&#1103; &#1110;&#1085;&#1092;&#1086;&#1088;&#1084;&#1072;&#1094;&#1110;&#1111; &#1087;&#1088;&#1086; &#1082;&#1072;&#1085;&#1072;&#1083;</text><polygon fill="#2688D4" points="1349.5,1378.7422,1339.5,1382.7422,1349.5,1386.7422,1345.5,1382.7422" style="stroke:#2688D4;stroke-width:1.0;"/><line style="stroke:#2688D4;stroke-width:1.0;stroke-dasharray:2.0,2.0;" x1="1343.5" x2="1665.5" y1="1382.7422" y2="1382.7422"/><path d="M1271.5,1397.7422 L1335.5,1397.7422 L1335.5,1404.875 L1325.5,1414.875 L1271.5,1414.875 L1271.5,1397.7422 " fill="#EEEEEE" style="stroke:#000000;stroke-width:1.5;"/><rect fill="none" height="75.3984" style="stroke:#000000;stroke-width:1.5;" width="460" x="1271.5" y="1397.7422"/><text fill="#000000" font-family="sans-serif" font-size="13" font-weight="bold" lengthAdjust="spacing" textLength="19" x="1286.5" y="1410.8091">alt</text><text fill="#000000" font-family="sans-serif" font-size="11" font-weight="bold" lengthAdjust="spacing" textLength="115" x="1350.5" y="1409.9526">[&#1050;&#1072;&#1085;&#1072;&#1083; &#1072;&#1082;&#1090;&#1080;&#1074;&#1085;&#1080;&#1081;]</text><polygon fill="#2688D4" points="1654.5,1432.0078,1664.5,1436.0078,1654.5,1440.0078,1658.5,1436.0078" style="stroke:#2688D4;stroke-width:1.0;"/><line style="stroke:#2688D4;stroke-width:1.0;" x1="1338.5" x2="1660.5" y1="1436.0078" y2="1436.0078"/><text fill="#000000" font-family="sans-serif" font-size="13" lengthAdjust="spacing" textLength="304" x="1345.5" y="1430.9419">&#1047;&#1073;&#1077;&#1088;&#1077;&#1078;&#1077;&#1085;&#1085;&#1103; &#1086;&#1085;&#1086;&#1074;&#1083;&#1077;&#1085;&#1086;&#1111; &#1110;&#1085;&#1092;&#1086;&#1088;&#1084;&#1072;&#1094;&#1110;&#1111; &#1087;&#1088;&#1086; &#1082;&#1072;&#1085;&#1072;&#1083;</text><polygon fill="#2688D4" points="1349.5,1461.1406,1339.5,1465.1406,1349.5,1469.1406,1345.5,1465.1406" style="stroke:#2688D4;stroke-width:1.0;"/><line style="stroke:#2688D4;stroke-width:1.0;stroke-dasharray:2.0,2.0;" x1="1343.5" x2="1665.5" y1="1465.1406" y2="1465.1406"/><text fill="#000000" font-family="sans-serif" font-size="13" lengthAdjust="spacing" textLength="175" x="1355.5" y="1460.0747">&#1053;&#1072;&#1083;&#1072;&#1096;&#1090;&#1091;&#1074;&#1072;&#1085;&#1085;&#1103; &#1079;&#1073;&#1077;&#1088;&#1077;&#1078;&#1077;&#1085;&#1110;</text><path d="M1271.5,1487.1406 L1335.5,1487.1406 L1335.5,1494.2734 L1325.5,1504.2734 L1271.5,1504.2734 L1271.5,1487.1406 " fill="#EEEEEE" style="stroke:#000000;stroke-width:1.5;"/><rect fill="none" height="59.2656" style="stroke:#000000;stroke-width:1.5;" width="234" x="1271.5" y="1487.1406"/><text fill="#000000" font-family="sans-serif" font-size="13" font-weight="bold" lengthAdjust="spacing" textLength="19" x="1286.5" y="1500.2075">alt</text><text fill="#000000" font-family="sans-serif" font-size="11" font-weight="bold" lengthAdjust="spacing" textLength="131" x="1350.5" y="1499.3511">[&#1050;&#1072;&#1085;&#1072;&#1083; &#1085;&#1077;&#1072;&#1082;&#1090;&#1080;&#1074;&#1085;&#1080;&#1081;]</text><line style="stroke:#2688D4;stroke-width:1.0;" x1="1338.5" x2="1380.5" y1="1525.4063" y2="1525.4063"/><line style="stroke:#2688D4;stroke-width:1.0;" x1="1380.5" x2="1380.5" y1="1525.4063" y2="1538.4063"/><line style="stroke:#2688D4;stroke-width:1.0;" x1="1339.5" x2="1380.5" y1="1538.4063" y2="1538.4063"/><polygon fill="#2688D4" points="1349.5,1534.4063,1339.5,1538.4063,1349.5,1542.4063,1345.5,1538.4063" style="stroke:#2688D4;stroke-width:1.0;"/><text fill="#000000" font-family="sans-serif" font-size="13" lengthAdjust="spacing" textLength="148" x="1345.5" y="1520.3403">&#1053;&#1077; &#1074;&#1080;&#1082;&#1086;&#1085;&#1091;&#1074;&#1072;&#1090;&#1080; &#1085;&#1110;&#1095;&#1086;&#1075;&#1086;</text><polygon fill="#2688D4" points="878.5,1555.4063,868.5,1559.4063,878.5,1563.4063,874.5,1559.4063" style="stroke:#2688D4;stroke-width:1.0;"/><line style="stroke:#2688D4;stroke-width:1.0;stroke-dasharray:2.0,2.0;" x1="872.5" x2="1337.5" y1="1559.4063" y2="1559.4063"/><polygon fill="#2688D4" points="402.5,1569.4063,392.5,1573.4063,402.5,1577.4063,398.5,1573.4063" style="stroke:#2688D4;stroke-width:1.0;"/><line style="stroke:#2688D4;stroke-width:1.0;stroke-dasharray:2.0,2.0;" x1="396.5" x2="866.5" y1="1573.4063" y2="1573.4063"/><polygon fill="#2688D4" points="61.5,1583.4063,51.5,1587.4063,61.5,1591.4063,57.5,1587.4063" style="stroke:#2688D4;stroke-width:1.0;"/><line style="stroke:#2688D4;stroke-width:1.0;stroke-dasharray:2.0,2.0;" x1="55.5" x2="390.5" y1="1587.4063" y2="1587.4063"/><rect fill="#EEEEEE" height="3" style="stroke:#EEEEEE;stroke-width:1.0;" width="1741.5" x="0" y="1615.9727"/><line style="stroke:#000000;stroke-width:1.0;" x1="0" x2="1741.5" y1="1615.9727" y2="1615.9727"/><line style="stroke:#000000;stroke-width:1.0;" x1="0" x2="1741.5" y1="1618.9727" y2="1618.9727"/><rect fill="#EEEEEE" height="23.1328" style="stroke:#000000;stroke-width:2.0;" width="234" x="753.75" y="1605.4063"/><text fill="#000000" font-family="sans-serif" font-size="13" font-weight="bold" lengthAdjust="spacing" textLength="215" x="759.75" y="1621.4731">&#1055;&#1077;&#1088;&#1074;&#1080;&#1085;&#1085;&#1072; &#1074;&#1072;&#1083;&#1110;&#1076;&#1072;&#1094;&#1110;&#1103; &#1082;&#1072;&#1085;&#1072;&#1083;&#1110;&#1074;</text><polygon fill="#2688D4" points="379.5,1655.6719,389.5,1659.6719,379.5,1663.6719,383.5,1659.6719" style="stroke:#2688D4;stroke-width:1.0;"/><line style="stroke:#2688D4;stroke-width:1.0;" x1="50.5" x2="385.5" y1="1659.6719" y2="1659.6719"/><text fill="#000000" font-family="sans-serif" font-size="13" lengthAdjust="spacing" textLength="187" x="57.5" y="1654.606">&#1047;&#1072;&#1087;&#1080;&#1090; &#1085;&#1072; &#1074;&#1072;&#1083;&#1110;&#1076;&#1072;&#1094;&#1110;&#1102; &#1072;&#1076;&#1088;&#1077;&#1089;&#1080;</text><polygon fill="#2688D4" points="855.5,1699.9375,865.5,1703.9375,855.5,1707.9375,859.5,1703.9375" style="stroke:#2688D4;stroke-width:1.0;"/><line style="stroke:#2688D4;stroke-width:1.0;" x1="391.5" x2="861.5" y1="1703.9375" y2="1703.9375"/><text fill="#000000" font-family="sans-serif" font-size="13" lengthAdjust="spacing" textLength="42" x="398.5" y="1683.7388">&#1047;&#1072;&#1087;&#1080;&#1090;</text><text fill="#000000" font-family="sans-serif" font-size="13" font-weight="bold" lengthAdjust="spacing" textLength="378" x="449.5" y="1683.7388">POST /api/settings/me/channels/{channel}/validate</text><text fill="#000000" font-family="sans-serif" font-size="13" lengthAdjust="spacing" textLength="4" x="827.5" y="1683.7388">&#160;</text><text fill="#000000" font-family="sans-serif" font-size="13" lengthAdjust="spacing" textLength="129" x="398.5" y="1698.8716">&#1055;&#1072;&#1088;&#1072;&#1084;&#1077;&#1090;&#1088;&#1080;: ID &#1089;&#1077;&#1089;&#1110;&#1111;</text><line style="stroke:#2688D4;stroke-width:1.0;" x1="867.5" x2="909.5" y1="1733.0703" y2="1733.0703"/><line style="stroke:#2688D4;stroke-width:1.0;" x1="909.5" x2="909.5" y1="1733.0703" y2="1746.0703"/><line style="stroke:#2688D4;stroke-width:1.0;" x1="868.5" x2="909.5" y1="1746.0703" y2="1746.0703"/><polygon fill="#2688D4" points="878.5,1742.0703,868.5,1746.0703,878.5,1750.0703,874.5,1746.0703" style="stroke:#2688D4;stroke-width:1.0;"/><text fill="#000000" font-family="sans-serif" font-size="13" lengthAdjust="spacing" textLength="101" x="874.5" y="1728.0044">&#1055;&#1077;&#1088;&#1077;&#1074;&#1110;&#1088;&#1082;&#1072; &#1089;&#1077;&#1089;&#1110;&#1111;</text><polygon fill="#2688D4" points="1326.5,1786.3359,1336.5,1790.3359,1326.5,1794.3359,1330.5,1790.3359" style="stroke:#2688D4;stroke-width:1.0;"/><line style="stroke:#2688D4;stroke-width:1.0;" x1="867.5" x2="1332.5" y1="1790.3359" y2="1790.3359"/><text fill="#000000" font-family="sans-serif" font-size="13" lengthAdjust="spacing" textLength="42" x="874.5" y="1770.1372">&#1047;&#1072;&#1087;&#1080;&#1090;</text><text fill="#000000" font-family="sans-serif" font-size="13" font-weight="bold" lengthAdjust="spacing" textLength="378" x="920.5" y="1770.1372">POST /api/settings/me/channels/{channel}/validate</text><text fill="#000000" font-family="sans-serif" font-size="13" lengthAdjust="spacing" textLength="4" x="1298.5" y="1770.1372">&#160;</text><text fill="#000000" font-family="sans-serif" font-size="13" lengthAdjust="spacing" textLength="112" x="874.5" y="1785.27">&#1079; X-Access-Token</text><line style="stroke:#2688D4;stroke-width:1.0;" x1="1338.5" x2="1380.5" y1="1819.4688" y2="1819.4688"/><line style="stroke:#2688D4;stroke-width:1.0;" x1="1380.5" x2="1380.5" y1="1819.4688" y2="1832.4688"/><line style="stroke:#2688D4;stroke-width:1.0;" x1="1339.5" x2="1380.5" y1="1832.4688" y2="1832.4688"/><polygon fill="#2688D4" points="1349.5,1828.4688,1339.5,1832.4688,1349.5,1836.4688,1345.5,1832.4688" style="stroke:#2688D4;stroke-width:1.0;"/><text fill="#000000" font-family="sans-serif" font-size="13" lengthAdjust="spacing" textLength="111" x="1345.5" y="1814.4028">&#1042;&#1072;&#1083;&#1110;&#1076;&#1072;&#1094;&#1110;&#1103; &#1076;&#1072;&#1085;&#1080;&#1093;</text><polygon fill="#2688D4" points="878.5,1857.6016,868.5,1861.6016,878.5,1865.6016,874.5,1861.6016" style="stroke:#2688D4;stroke-width:1.0;"/><line style="stroke:#2688D4;stroke-width:1.0;stroke-dasharray:2.0,2.0;" x1="872.5" x2="1337.5" y1="1861.6016" y2="1861.6016"/><text fill="#000000" font-family="sans-serif" font-size="13" lengthAdjust="spacing" textLength="137" x="884.5" y="1856.5356">&#1056;&#1077;&#1079;&#1091;&#1083;&#1100;&#1090;&#1072;&#1090; &#1074;&#1072;&#1083;&#1110;&#1076;&#1072;&#1094;&#1110;&#1111;</text><polygon fill="#2688D4" points="402.5,1871.6016,392.5,1875.6016,402.5,1879.6016,398.5,1875.6016" style="stroke:#2688D4;stroke-width:1.0;"/><line style="stroke:#2688D4;stroke-width:1.0;stroke-dasharray:2.0,2.0;" x1="396.5" x2="866.5" y1="1875.6016" y2="1875.6016"/><polygon fill="#2688D4" points="61.5,1885.6016,51.5,1889.6016,61.5,1893.6016,57.5,1889.6016" style="stroke:#2688D4;stroke-width:1.0;"/><line style="stroke:#2688D4;stroke-width:1.0;stroke-dasharray:2.0,2.0;" x1="55.5" x2="390.5" y1="1889.6016" y2="1889.6016"/><!--SRC=[rLPTJnDH47tVNp715stID37649AQ5324Y5g33pxmSjkzmAPbj-vkgOQGb8eV3mI2CP2OAFeF2hPIWIv_uTv_vCns2zsljY0eyaBRcJapzymvTzSgQ7g9cMm9h4Mc6XLDNu1vLhIuOfr59fdDSipYuonVM32DigvE64N3XCgYPaVc6QRApKxEhRltHqVLUprPpygyF12gazGNvubX3uHnS_gYPFAsOGw2cJ1qspIAmwRrRMZnbsMkvpciA81_6TCqAlvSzsTth0WW2iveytn6qtbSFCjCMyjh9QRRmwH4degInerNSVKKYgnRLHH6iyE8-2mSMHKjkIPhyequ47NvVWIO1ILkMeQkbCv7W957JEpB7T4MJLc3g4fHTslBMg3EGBrcijCmnMnUOQ_Tf0B-gFZpnhEFPzrOqQW4Gk8xDgsA0xaZr-Pqm1dguXXRVkWs5ssvuTPQtBRH7rQWVbjycjFxbAavHL7IQH1VCOJ74YSKnF0MYAE8apR5ISmKG57CRuf3AgttS9PEAnrU8Va0MHe3iOlnKuIknO0fPOroYInVTY8nzV0vf5X9ItKFd5hYYGJW8VSGf8gP9zIJ1X-3wKcGQ_Xr3VdRLGYj1tNF6vV8hTB4KRdTBaDFSGWlafbydbjMyhbHuBhIpGYWXVdMLAgF8hqE22jhmi5eamZpWQgv8GYDXLRK72Jzetq90yGBedSMZrkFF7VNxYBna-UhEAb5pnn7HaCSTueS9AKbrr5ek3xvZZRda-6ss2FneQzYTzbDYzhfIjdYvhIwEiHcRzGIw1xnpep_IEfOuI1j3kR_T2NaGk6vlOqGbnWxFeyTkHrn1YJt06xZfoCYssr8H6_T6MXh21LjGWgmKQZP1Uy0o3wT3VilbLzakiwBk3VlqseAhtjj6M_Vltz3N7B4OQ-FZzvg6jrra2jeOotvDYpC2CUTkkPnK3na8xGDNjPotTNMoPcNn2a9fqSCGQ56UM3VOwr7QFwLNxvTFryS-XlBdV35D4PFRm-wLvoEX-CClBa6-wI1eKjv9QfmyngjeVB_m1p18V_HqpKCTqcxiA8Teq5qhlY5hw_NR2Y0Fx8KrzNG6Te-uKQTmzUh2PZLeaqWOcS7M0a4Zyjmn0-q8RMvy6j5Hv24tUuuwY1yH_hTEjYKGOXDMbc3A46njwx2XikigAatsuJ-4Q_u2NL-bc_qpeQAE9ORg8WwxI18_swy1du3]--></g></svg>