<?xml version="1.0" encoding="us-ascii" standalone="no"?><svg xmlns="http://www.w3.org/2000/svg" xmlns:xlink="http://www.w3.org/1999/xlink" contentStyleType="text/css" height="934px" preserveAspectRatio="none" style="width:1083px;height:934px;background:#FFFFFF;" version="1.1" viewBox="0 0 1083 934" width="1083px" zoomAndPan="magnify"><defs/><g><rect fill="#FFFFFF" height="804.9297" style="stroke:#181818;stroke-width:1.0;" width="10" x="171" y="52.2969"/><rect fill="#FFFFFF" height="109.2031" style="stroke:#181818;stroke-width:1.0;" width="10" x="548" y="81.4297"/><rect fill="#FFFFFF" height="12" style="stroke:#181818;stroke-width:1.0;" width="10" x="548" y="236.8984"/><rect fill="#FFFFFF" height="12" style="stroke:#181818;stroke-width:1.0;" width="10" x="548" y="361.4297"/><rect fill="#FFFFFF" height="12" style="stroke:#181818;stroke-width:1.0;" width="10" x="548" y="816.0938"/><rect fill="#FFFFFF" height="12" style="stroke:#181818;stroke-width:1.0;" width="10" x="760.5" y="434.5"/><rect fill="#FFFFFF" height="12" style="stroke:#181818;stroke-width:1.0;" width="10" x="760.5" y="558.0313"/><rect fill="#FFFFFF" height="12" style="stroke:#181818;stroke-width:1.0;" width="10" x="934" y="492.7656"/><rect fill="#FFFFFF" height="12" style="stroke:#181818;stroke-width:1.0;" width="10" x="1035.5" y="616.2969"/><rect fill="none" height="785.9297" style="stroke:#000000;stroke-width:1.5;" width="1073" x="3" y="96.4297"/><rect fill="none" height="206.7344" style="stroke:#000000;stroke-width:1.5;" width="994.5" x="20.5" y="323.1641"/><line style="stroke:#181818;stroke-width:0.5;stroke-dasharray:5.0,5.0;" x1="175.5" x2="175.5" y1="36.2969" y2="899.3594"/><line style="stroke:#181818;stroke-width:0.5;stroke-dasharray:5.0,5.0;" x1="553" x2="553" y1="36.2969" y2="899.3594"/><line style="stroke:#181818;stroke-width:0.5;stroke-dasharray:5.0,5.0;" x1="765" x2="765" y1="36.2969" y2="899.3594"/><line style="stroke:#181818;stroke-width:0.5;stroke-dasharray:5.0,5.0;" x1="939" x2="939" y1="36.2969" y2="899.3594"/><line style="stroke:#181818;stroke-width:0.5;stroke-dasharray:5.0,5.0;" x1="1040" x2="1040" y1="36.2969" y2="899.3594"/><rect fill="#E2E2F0" height="30.2969" rx="2.5" ry="2.5" style="stroke:#181818;stroke-width:0.5;" width="291" x="30.5" y="5"/><text fill="#000000" font-family="sans-serif" font-size="14" lengthAdjust="spacing" textLength="277" x="37.5" y="24.9951">sign_submission(&lt;activity_id|event_id&gt;)</text><rect fill="#E2E2F0" height="30.2969" rx="2.5" ry="2.5" style="stroke:#181818;stroke-width:0.5;" width="291" x="30.5" y="898.3594"/><text fill="#000000" font-family="sans-serif" font-size="14" lengthAdjust="spacing" textLength="277" x="37.5" y="918.3545">sign_submission(&lt;activity_id|event_id&gt;)</text><rect fill="#E2E2F0" height="30.2969" rx="2.5" ry="2.5" style="stroke:#181818;stroke-width:0.5;" width="210" x="448" y="5"/><text fill="#000000" font-family="sans-serif" font-size="14" lengthAdjust="spacing" textLength="196" x="455" y="24.9951">Camunda Execution Context</text><rect fill="#E2E2F0" height="30.2969" rx="2.5" ry="2.5" style="stroke:#181818;stroke-width:0.5;" width="210" x="448" y="898.3594"/><text fill="#000000" font-family="sans-serif" font-size="14" lengthAdjust="spacing" textLength="196" x="455" y="918.3545">Camunda Execution Context</text><rect fill="#E2E2F0" height="30.2969" rx="2.5" ry="2.5" style="stroke:#181818;stroke-width:0.5;" width="195" x="668" y="5"/><text fill="#000000" font-family="sans-serif" font-size="14" lengthAdjust="spacing" textLength="181" x="675" y="24.9951">Spring Application Context</text><rect fill="#E2E2F0" height="30.2969" rx="2.5" ry="2.5" style="stroke:#181818;stroke-width:0.5;" width="195" x="668" y="898.3594"/><text fill="#000000" font-family="sans-serif" font-size="14" lengthAdjust="spacing" textLength="181" x="675" y="918.3545">Spring Application Context</text><rect fill="#E2E2F0" height="30.2969" rx="2.5" ry="2.5" style="stroke:#181818;stroke-width:0.5;" width="132" x="873" y="5"/><text fill="#000000" font-family="sans-serif" font-size="14" lengthAdjust="spacing" textLength="118" x="880" y="24.9951">CephKeyProvider</text><rect fill="#E2E2F0" height="30.2969" rx="2.5" ry="2.5" style="stroke:#181818;stroke-width:0.5;" width="132" x="873" y="898.3594"/><text fill="#000000" font-family="sans-serif" font-size="14" lengthAdjust="spacing" textLength="118" x="880" y="918.3545">CephKeyProvider</text><rect fill="#E2E2F0" height="30.2969" rx="2.5" ry="2.5" style="stroke:#181818;stroke-width:0.5;" width="51" x="1015" y="5"/><text fill="#000000" font-family="sans-serif" font-size="14" lengthAdjust="spacing" textLength="37" x="1022" y="24.9951">Ceph</text><rect fill="#E2E2F0" height="30.2969" rx="2.5" ry="2.5" style="stroke:#181818;stroke-width:0.5;" width="51" x="1015" y="898.3594"/><text fill="#000000" font-family="sans-serif" font-size="14" lengthAdjust="spacing" textLength="37" x="1022" y="918.3545">Ceph</text><rect fill="#FFFFFF" height="804.9297" style="stroke:#181818;stroke-width:1.0;" width="10" x="171" y="52.2969"/><rect fill="#FFFFFF" height="109.2031" style="stroke:#181818;stroke-width:1.0;" width="10" x="548" y="81.4297"/><rect fill="#FFFFFF" height="12" style="stroke:#181818;stroke-width:1.0;" width="10" x="548" y="236.8984"/><rect fill="#FFFFFF" height="12" style="stroke:#181818;stroke-width:1.0;" width="10" x="548" y="361.4297"/><rect fill="#FFFFFF" height="12" style="stroke:#181818;stroke-width:1.0;" width="10" x="548" y="816.0938"/><rect fill="#FFFFFF" height="12" style="stroke:#181818;stroke-width:1.0;" width="10" x="760.5" y="434.5"/><rect fill="#FFFFFF" height="12" style="stroke:#181818;stroke-width:1.0;" width="10" x="760.5" y="558.0313"/><rect fill="#FFFFFF" height="12" style="stroke:#181818;stroke-width:1.0;" width="10" x="934" y="492.7656"/><rect fill="#FFFFFF" height="12" style="stroke:#181818;stroke-width:1.0;" width="10" x="1035.5" y="616.2969"/><polygon fill="#181818" points="159,48.2969,169,52.2969,159,56.2969,163,52.2969" style="stroke:#181818;stroke-width:1.0;"/><line style="stroke:#181818;stroke-width:1.0;" x1="0" x2="165" y1="52.2969" y2="52.2969"/><polygon fill="#181818" points="536,77.4297,546,81.4297,536,85.4297,540,81.4297" style="stroke:#181818;stroke-width:1.0;"/><line style="stroke:#181818;stroke-width:1.0;" x1="181" x2="542" y1="81.4297" y2="81.4297"/><text fill="#000000" font-family="sans-serif" font-size="13" lengthAdjust="spacing" textLength="329" x="188" y="76.3638">&#1054;&#1090;&#1088;&#1080;&#1084;&#1072;&#1090;&#1080; &#1110;&#1089;&#1085;&#1091;&#1102;&#1095;&#1080;&#1081; SignUserFormDataDto &#1086;&#1073;'&#1108;&#1082;&#1090;</text><path d="M3,96.4297 L67,96.4297 L67,103.5625 L57,113.5625 L3,113.5625 L3,96.4297 " fill="#EEEEEE" style="stroke:#000000;stroke-width:1.5;"/><rect fill="none" height="785.9297" style="stroke:#000000;stroke-width:1.5;" width="1073" x="3" y="96.4297"/><text fill="#000000" font-family="sans-serif" font-size="13" font-weight="bold" lengthAdjust="spacing" textLength="19" x="18" y="109.4966">alt</text><text fill="#000000" font-family="sans-serif" font-size="11" font-weight="bold" lengthAdjust="spacing" textLength="263" x="82" y="108.6401">[&#1054;&#1073;'&#1108;&#1082;&#1090; SignUserFormDataDto &#1079;&#1085;&#1072;&#1081;&#1076;&#1077;&#1085;&#1086;]</text><polygon fill="#181818" points="192,113.5625,182,117.5625,192,121.5625,188,117.5625" style="stroke:#181818;stroke-width:1.0;"/><line style="stroke:#181818;stroke-width:1.0;stroke-dasharray:2.0,2.0;" x1="186" x2="547" y1="117.5625" y2="117.5625"/><text fill="#000000" font-family="sans-serif" font-size="13" lengthAdjust="spacing" textLength="271" x="198" y="130.6294">&#1047;&#1085;&#1072;&#1081;&#1076;&#1077;&#1085;&#1080;&#1081; &#1086;&#1073;'&#1108;&#1082;&#1090; SignUserFormDataDto</text><polygon fill="#181818" points="11,142.6953,1,146.6953,11,150.6953,7,146.6953" style="stroke:#181818;stroke-width:1.0;"/><line style="stroke:#181818;stroke-width:1.0;stroke-dasharray:2.0,2.0;" x1="5" x2="170" y1="146.6953" y2="146.6953"/><text fill="#000000" font-family="sans-serif" font-size="13" lengthAdjust="spacing" textLength="145" x="17" y="159.7622">SignUserFormDataDto</text><line style="stroke:#000000;stroke-width:1.0;stroke-dasharray:2.0,2.0;" x1="3" x2="1076" y1="172.8281" y2="172.8281"/><text fill="#000000" font-family="sans-serif" font-size="11" font-weight="bold" lengthAdjust="spacing" textLength="283" x="8" y="183.0386">[&#1054;&#1073;'&#1108;&#1082;&#1090; SignUserFormDataDto &#1085;&#1077; &#1079;&#1085;&#1072;&#1081;&#1076;&#1077;&#1085;&#1086;]</text><polygon fill="#181818" points="192,186.6328,182,190.6328,192,194.6328,188,190.6328" style="stroke:#181818;stroke-width:1.0;"/><line style="stroke:#181818;stroke-width:1.0;stroke-dasharray:2.0,2.0;" x1="186" x2="552" y1="190.6328" y2="190.6328"/><text fill="#000000" font-family="sans-serif" font-size="13" lengthAdjust="spacing" textLength="22" x="198" y="203.6997">null</text><polygon fill="#181818" points="536,232.8984,546,236.8984,536,240.8984,540,236.8984" style="stroke:#181818;stroke-width:1.0;"/><line style="stroke:#181818;stroke-width:1.0;" x1="181" x2="542" y1="236.8984" y2="236.8984"/><text fill="#000000" font-family="sans-serif" font-size="13" lengthAdjust="spacing" textLength="295" x="188" y="231.8325">&#1054;&#1090;&#1088;&#1080;&#1084;&#1072;&#1090;&#1080; &#1110;&#1076;&#1077;&#1085;&#1090;&#1080;&#1092;&#1110;&#1082;&#1072;&#1090;&#1086;&#1088; &#1089;&#1090;&#1072;&#1088;&#1090;&#1086;&#1074;&#1086;&#1111; &#1092;&#1086;&#1088;&#1084;&#1080;</text><polygon fill="#181818" points="192,244.8984,182,248.8984,192,252.8984,188,248.8984" style="stroke:#181818;stroke-width:1.0;"/><line style="stroke:#181818;stroke-width:1.0;stroke-dasharray:2.0,2.0;" x1="186" x2="552" y1="248.8984" y2="248.8984"/><text fill="#000000" font-family="sans-serif" font-size="13" lengthAdjust="spacing" textLength="101" x="198" y="261.9653">&#1030;&#1076;&#1077;&#1085;&#1090;&#1080;&#1092;&#1110;&#1082;&#1072;&#1090;&#1086;&#1088;</text><line style="stroke:#181818;stroke-width:1.0;" x1="181" x2="223" y1="295.1641" y2="295.1641"/><line style="stroke:#181818;stroke-width:1.0;" x1="223" x2="223" y1="295.1641" y2="308.1641"/><line style="stroke:#181818;stroke-width:1.0;" x1="182" x2="223" y1="308.1641" y2="308.1641"/><polygon fill="#181818" points="192,304.1641,182,308.1641,192,312.1641,188,308.1641" style="stroke:#181818;stroke-width:1.0;"/><text fill="#000000" font-family="sans-serif" font-size="13" lengthAdjust="spacing" textLength="277" x="188" y="290.0981">&#1042;&#1080;&#1079;&#1085;&#1072;&#1095;&#1080;&#1090;&#1080; &#1090;&#1080;&#1087; &#1077;&#1083;&#1077;&#1084;&#1077;&#1085;&#1090;&#1072; &#1073;&#1110;&#1079;&#1085;&#1077;&#1089;-&#1087;&#1088;&#1086;&#1094;&#1077;&#1089;&#1091;</text><path d="M20.5,323.1641 L84.5,323.1641 L84.5,330.2969 L74.5,340.2969 L20.5,340.2969 L20.5,323.1641 " fill="#EEEEEE" style="stroke:#000000;stroke-width:1.5;"/><rect fill="none" height="206.7344" style="stroke:#000000;stroke-width:1.5;" width="994.5" x="20.5" y="323.1641"/><text fill="#000000" font-family="sans-serif" font-size="13" font-weight="bold" lengthAdjust="spacing" textLength="19" x="35.5" y="336.231">alt</text><text fill="#000000" font-family="sans-serif" font-size="11" font-weight="bold" lengthAdjust="spacing" textLength="184" x="99.5" y="335.3745">[&#1045;&#1083;&#1077;&#1084;&#1077;&#1085;&#1090; - &#1089;&#1090;&#1072;&#1088;&#1090;&#1086;&#1074;&#1072; &#1092;&#1086;&#1088;&#1084;&#1072;]</text><polygon fill="#181818" points="536,357.4297,546,361.4297,536,365.4297,540,361.4297" style="stroke:#181818;stroke-width:1.0;"/><line style="stroke:#181818;stroke-width:1.0;" x1="181" x2="542" y1="361.4297" y2="361.4297"/><text fill="#000000" font-family="sans-serif" font-size="13" lengthAdjust="spacing" textLength="284" x="188" y="356.3638">&#1054;&#1090;&#1088;&#1080;&#1084;&#1072;&#1090;&#1080; &#1094;&#1077;&#1092; &#1082;&#1083;&#1102;&#1095; &#1079; &#1074;&#1110;&#1076;&#1087;&#1086;&#1074;&#1110;&#1076;&#1085;&#1086;&#1111; &#1079;&#1084;&#1110;&#1085;&#1085;&#1086;&#1111;</text><polygon fill="#181818" points="192,369.4297,182,373.4297,192,377.4297,188,373.4297" style="stroke:#181818;stroke-width:1.0;"/><line style="stroke:#181818;stroke-width:1.0;stroke-dasharray:2.0,2.0;" x1="186" x2="552" y1="373.4297" y2="373.4297"/><text fill="#000000" font-family="sans-serif" font-size="13" lengthAdjust="spacing" textLength="68" x="198" y="386.4966">&#1062;&#1077;&#1092; &#1082;&#1083;&#1102;&#1095;</text><line style="stroke:#000000;stroke-width:1.0;stroke-dasharray:2.0,2.0;" x1="20.5" x2="1015" y1="399.5625" y2="399.5625"/><text fill="#000000" font-family="sans-serif" font-size="11" font-weight="bold" lengthAdjust="spacing" textLength="225" x="25.5" y="409.7729">[&#1045;&#1083;&#1077;&#1084;&#1077;&#1085;&#1090; - &#1082;&#1086;&#1088;&#1080;&#1089;&#1090;&#1091;&#1074;&#1072;&#1094;&#1100;&#1082;&#1072; &#1079;&#1072;&#1076;&#1072;&#1095;&#1072;]</text><polygon fill="#181818" points="748.5,430.5,758.5,434.5,748.5,438.5,752.5,434.5" style="stroke:#181818;stroke-width:1.0;"/><line style="stroke:#181818;stroke-width:1.0;" x1="181" x2="754.5" y1="434.5" y2="434.5"/><text fill="#000000" font-family="sans-serif" font-size="13" lengthAdjust="spacing" textLength="240" x="188" y="429.4341">&#1054;&#1090;&#1088;&#1080;&#1084;&#1072;&#1090;&#1080; &#1073;&#1110;&#1085; &#1090;&#1080;&#1087;&#1091; CephKeyProvider</text><polygon fill="#181818" points="192,442.5,182,446.5,192,450.5,188,446.5" style="stroke:#181818;stroke-width:1.0;"/><line style="stroke:#181818;stroke-width:1.0;stroke-dasharray:2.0,2.0;" x1="186" x2="764.5" y1="446.5" y2="446.5"/><text fill="#000000" font-family="sans-serif" font-size="13" lengthAdjust="spacing" textLength="168" x="198" y="459.5669">&#1041;&#1110;&#1085; &#1090;&#1080;&#1087;&#1091; CephKeyProvider</text><polygon fill="#181818" points="922,488.7656,932,492.7656,922,496.7656,926,492.7656" style="stroke:#181818;stroke-width:1.0;"/><line style="stroke:#181818;stroke-width:1.0;" x1="181" x2="928" y1="492.7656" y2="492.7656"/><text fill="#000000" font-family="sans-serif" font-size="13" lengthAdjust="spacing" textLength="159" x="188" y="487.6997">&#1047;&#1075;&#1077;&#1085;&#1077;&#1088;&#1091;&#1074;&#1072;&#1090;&#1080; &#1094;&#1077;&#1092; &#1082;&#1083;&#1102;&#1095;</text><polygon fill="#181818" points="192,500.7656,182,504.7656,192,508.7656,188,504.7656" style="stroke:#181818;stroke-width:1.0;"/><line style="stroke:#181818;stroke-width:1.0;stroke-dasharray:2.0,2.0;" x1="186" x2="938" y1="504.7656" y2="504.7656"/><text fill="#000000" font-family="sans-serif" font-size="13" lengthAdjust="spacing" textLength="167" x="198" y="517.8325">&#1047;&#1075;&#1077;&#1085;&#1077;&#1088;&#1086;&#1074;&#1072;&#1085;&#1080;&#1081; &#1094;&#1077;&#1092; &#1082;&#1083;&#1102;&#1095;</text><polygon fill="#181818" points="748.5,554.0313,758.5,558.0313,748.5,562.0313,752.5,558.0313" style="stroke:#181818;stroke-width:1.0;"/><line style="stroke:#181818;stroke-width:1.0;" x1="181" x2="754.5" y1="558.0313" y2="558.0313"/><text fill="#000000" font-family="sans-serif" font-size="13" lengthAdjust="spacing" textLength="276" x="188" y="552.9653">&#1054;&#1090;&#1088;&#1080;&#1084;&#1072;&#1090;&#1080; &#1073;&#1110;&#1085; &#1090;&#1080;&#1087;&#1091; FormDataCephService</text><polygon fill="#181818" points="192,566.0313,182,570.0313,192,574.0313,188,570.0313" style="stroke:#181818;stroke-width:1.0;"/><line style="stroke:#181818;stroke-width:1.0;stroke-dasharray:2.0,2.0;" x1="186" x2="764.5" y1="570.0313" y2="570.0313"/><text fill="#000000" font-family="sans-serif" font-size="13" lengthAdjust="spacing" textLength="204" x="198" y="583.0981">&#1041;&#1110;&#1085; &#1090;&#1080;&#1087;&#1091; FormDataCephService</text><polygon fill="#181818" points="1023.5,612.2969,1033.5,616.2969,1023.5,620.2969,1027.5,616.2969" style="stroke:#181818;stroke-width:1.0;"/><line style="stroke:#181818;stroke-width:1.0;" x1="181" x2="1029.5" y1="616.2969" y2="616.2969"/><text fill="#000000" font-family="sans-serif" font-size="13" lengthAdjust="spacing" textLength="554" x="188" y="611.231">&#1054;&#1090;&#1088;&#1080;&#1084;&#1072;&#1090;&#1080; &#1094;&#1077;&#1092; &#1076;&#1086;&#1082;&#1091;&#1084;&#1077;&#1085;&#1090;, &#1103;&#1082;&#1080;&#1081; &#1084;&#1110;&#1089;&#1090;&#1080;&#1090;&#1100; &#1076;&#1072;&#1085;&#1110; &#1092;&#1086;&#1088;&#1084;&#1080; &#1079; &#1094;&#1077;&#1092;&#1091; &#1079;&#1072; &#1086;&#1090;&#1088;&#1080;&#1084;&#1072;&#1085;&#1080;&#1084; &#1082;&#1083;&#1102;&#1095;&#1077;&#1084;</text><polygon fill="#181818" points="192,624.2969,182,628.2969,192,632.2969,188,628.2969" style="stroke:#181818;stroke-width:1.0;"/><line style="stroke:#181818;stroke-width:1.0;stroke-dasharray:2.0,2.0;" x1="186" x2="1039.5" y1="628.2969" y2="628.2969"/><text fill="#000000" font-family="sans-serif" font-size="13" lengthAdjust="spacing" textLength="278" x="198" y="641.3638">&#1062;&#1077;&#1092; &#1076;&#1086;&#1082;&#1091;&#1084;&#1077;&#1085;&#1090;, &#1103;&#1082;&#1080;&#1081; &#1084;&#1110;&#1089;&#1090;&#1080;&#1090;&#1100; &#1076;&#1072;&#1085;&#1110; &#1092;&#1086;&#1088;&#1084;&#1080;</text><line style="stroke:#181818;stroke-width:1.0;" x1="181" x2="223" y1="674.5625" y2="674.5625"/><line style="stroke:#181818;stroke-width:1.0;" x1="223" x2="223" y1="674.5625" y2="687.5625"/><line style="stroke:#181818;stroke-width:1.0;" x1="182" x2="223" y1="687.5625" y2="687.5625"/><polygon fill="#181818" points="192,683.5625,182,687.5625,192,691.5625,188,687.5625" style="stroke:#181818;stroke-width:1.0;"/><text fill="#000000" font-family="sans-serif" font-size="13" lengthAdjust="spacing" textLength="272" x="188" y="669.4966">&#1054;&#1090;&#1088;&#1080;&#1084;&#1072;&#1090;&#1080; &#1076;&#1072;&#1085;&#1110; &#1092;&#1086;&#1088;&#1084;&#1080; &#1079; &#1094;&#1077;&#1092; &#1076;&#1086;&#1082;&#1091;&#1084;&#1077;&#1085;&#1090;&#1072;</text><line style="stroke:#181818;stroke-width:1.0;" x1="181" x2="223" y1="716.6953" y2="716.6953"/><line style="stroke:#181818;stroke-width:1.0;" x1="223" x2="223" y1="716.6953" y2="729.6953"/><line style="stroke:#181818;stroke-width:1.0;" x1="182" x2="223" y1="729.6953" y2="729.6953"/><polygon fill="#181818" points="192,725.6953,182,729.6953,192,733.6953,188,729.6953" style="stroke:#181818;stroke-width:1.0;"/><text fill="#000000" font-family="sans-serif" font-size="13" lengthAdjust="spacing" textLength="239" x="188" y="711.6294">&#1054;&#1090;&#1088;&#1080;&#1084;&#1072;&#1090;&#1080; &#1087;&#1110;&#1076;&#1087;&#1080;&#1089; &#1079; &#1094;&#1077;&#1092; &#1076;&#1086;&#1082;&#1091;&#1084;&#1077;&#1085;&#1090;&#1072;</text><line style="stroke:#181818;stroke-width:1.0;" x1="181" x2="223" y1="758.8281" y2="758.8281"/><line style="stroke:#181818;stroke-width:1.0;" x1="223" x2="223" y1="758.8281" y2="771.8281"/><line style="stroke:#181818;stroke-width:1.0;" x1="182" x2="223" y1="771.8281" y2="771.8281"/><polygon fill="#181818" points="192,767.8281,182,771.8281,192,775.8281,188,771.8281" style="stroke:#181818;stroke-width:1.0;"/><text fill="#000000" font-family="sans-serif" font-size="13" lengthAdjust="spacing" textLength="270" x="188" y="753.7622">&#1047;&#1073;&#1091;&#1076;&#1091;&#1074;&#1072;&#1090;&#1080; &#1086;&#1073;'&#1108;&#1082;&#1090; SignUserFormDataDto</text><polygon fill="#181818" points="536,812.0938,546,816.0938,536,820.0938,540,816.0938" style="stroke:#181818;stroke-width:1.0;"/><line style="stroke:#181818;stroke-width:1.0;" x1="181" x2="542" y1="816.0938" y2="816.0938"/><text fill="#000000" font-family="sans-serif" font-size="13" lengthAdjust="spacing" textLength="344" x="188" y="795.895">&#1047;&#1073;&#1077;&#1088;&#1077;&#1075;&#1090;&#1080; SignUserFormDataDto &#1086;&#1073;'&#1108;&#1082;&#1090; &#1091; &#1082;&#1086;&#1085;&#1090;&#1077;&#1082;&#1089;&#1090;&#1110;</text><text fill="#000000" font-family="sans-serif" font-size="13" lengthAdjust="spacing" textLength="166" x="188" y="811.0278">&#1091; &#1103;&#1082;&#1086;&#1089;&#1090;&#1110; transient &#1079;&#1084;&#1110;&#1085;&#1085;&#1086;&#1111;</text><polygon fill="#181818" points="192,824.0938,182,828.0938,192,832.0938,188,828.0938" style="stroke:#181818;stroke-width:1.0;"/><line style="stroke:#181818;stroke-width:1.0;stroke-dasharray:2.0,2.0;" x1="186" x2="552" y1="828.0938" y2="828.0938"/><text fill="#000000" font-family="sans-serif" font-size="13" lengthAdjust="spacing" textLength="77" x="198" y="841.1606">&#1047;&#1073;&#1077;&#1088;&#1077;&#1078;&#1077;&#1085;&#1086;</text><polygon fill="#181818" points="11,853.2266,1,857.2266,11,861.2266,7,857.2266" style="stroke:#181818;stroke-width:1.0;"/><line style="stroke:#181818;stroke-width:1.0;stroke-dasharray:2.0,2.0;" x1="5" x2="175" y1="857.2266" y2="857.2266"/><text fill="#000000" font-family="sans-serif" font-size="13" lengthAdjust="spacing" textLength="145" x="17" y="870.2935">SignUserFormDataDto</text><!--SRC=[hLPBJnin4BxpAomkRQL6egyBGaWKsajLgHBghLBa9bPgaNXNQoU0r0CaY5vGgrOjt7hiUNca3P37Nx3_KMUy9bdsaIN08T7QdkVtpOmjDxZmQK0R963IzuHaRvcKjCPUihgtkH84tYPHGPFDpH42SefNk4-58lEIrqHPDZysk9JS4m-NQ4Nn5bVRPLxzp5fCAFXOVZHFg2G9MU85LHQG9mj9cwkqqHHLIbvjiKfJeUIg9nJRKjPAnPr6sazJskj-m4MDhFX-dLTeIbr6nv7sixHlvdzwmxRV1LwBWqJa4VRA6soxxBjTf_qyKtkiugHUB21efULa-h1fiQAAfOxWB0aM6BZAV97etwPjTdHFztLeshf7pA7PrGFJCL_D5zW-9-kW_bwouBKNDDQeeclA8tgeZn-Od_h2jEFEdLbqIkiAR8-bigtyqmCTwdDzfhlmDGIrTBHBfL8ytADhAXXVB9OiBzOe6aaQNioK1d5Mbwmuze7ktYO1qQpNhLYLPS4sErkHRroOFLXTs8EXsI5c5pv2iuDBVG9RHyJiuGaezwoh3EQYxG8EzlDyElKPKakJedz0UXPNhByeIVZJ8m8-B-7NTxv3ee_1EOfspMv9Zo2peTd7XUbOVxO6VyMLI2a9IpW19Sp9le01zBX708HBR1ce2Q9FB2qZT62_1XPz2BKFoq6ql1C3Vwxvp8STjwDoJi80kfXr3-4m7GJ2x9i3f1BZ325en7yA96xwPI1YQHaurao790PXCl78q9Iy9vw-tyHm30PdUWglgNbiHyofRUSk54c4J0RFAVgIbgOHMU0rAamtthBznhdEzCn4DR_fRapTrSH3fDTPqE8LTd_qvHlFeJ27m6bTUGPONW2Bhl0V4_CDaBJNHXzlEZl3skO09G5nSnYRaTZAaHq85fi2hfg96qjFVymBDbTMJHIKGQoPxn9gTbNCCdLJbJ0DZrImRb3SqjN8ZKiOHlVbumWgkQFFOlrRz4oumUKBHcrxTlMfDLdmCY9ODZ1cRV1TsC5HUqW-2DYtt0xTZWgea1mUkFTvHKo2_HjxdEHVphCyaj9TcdgGmlpv3m00]--></g></svg>