<?xml version="1.0" encoding="us-ascii" standalone="no"?><svg xmlns="http://www.w3.org/2000/svg" xmlns:xlink="http://www.w3.org/1999/xlink" contentStyleType="text/css" height="357px" preserveAspectRatio="none" style="width:901px;height:357px;background:#FFFFFF;" version="1.1" viewBox="0 0 901 357" width="901px" zoomAndPan="magnify"><defs/><g><!--cluster el--><g id="cluster_el"><path d="M8.5,6 L23.5,6 A3.75,3.75 0 0 1 26,8.5 L33,28.2969 L891.5,28.2969 A2.5,2.5 0 0 1 894,30.7969 L894,348.39 A2.5,2.5 0 0 1 891.5,350.89 L8.5,350.89 A2.5,2.5 0 0 1 6,348.39 L6,8.5 A2.5,2.5 0 0 1 8.5,6 " fill="none" style="stroke:#000000;stroke-width:1.5;"/><line style="stroke:#000000;stroke-width:1.5;" x1="6" x2="33" y1="28.2969" y2="28.2969"/><text fill="#000000" font-family="sans-serif" font-size="14" font-weight="bold" lengthAdjust="spacing" textLength="14" x="10" y="20.9951">el</text></g><!--cluster juel--><g id="cluster_juel"><path d="M32.5,49 L61.5,49 A3.75,3.75 0 0 1 64,51.5 L71,71.2969 L565.5,71.2969 A2.5,2.5 0 0 1 568,73.7969 L568,308.09 A2.5,2.5 0 0 1 565.5,310.59 L32.5,310.59 A2.5,2.5 0 0 1 30,308.09 L30,51.5 A2.5,2.5 0 0 1 32.5,49 " fill="none" style="stroke:#000000;stroke-width:1.5;"/><line style="stroke:#000000;stroke-width:1.5;" x1="30" x2="71" y1="71.2969" y2="71.2969"/><text fill="#000000" font-family="sans-serif" font-size="14" font-weight="bold" lengthAdjust="spacing" textLength="28" x="34" y="63.9951">juel</text></g><!--cluster dto--><g id="cluster_dto"><path d="M620.5,179 L647.5,179 A3.75,3.75 0 0 1 650,181.5 L657,201.2969 L867.5,201.2969 A2.5,2.5 0 0 1 870,203.7969 L870,324.39 A2.5,2.5 0 0 1 867.5,326.89 L620.5,326.89 A2.5,2.5 0 0 1 618,324.39 L618,181.5 A2.5,2.5 0 0 1 620.5,179 " fill="none" style="stroke:#000000;stroke-width:1.5;"/><line style="stroke:#000000;stroke-width:1.5;" x1="618" x2="657" y1="201.2969" y2="201.2969"/><text fill="#000000" font-family="sans-serif" font-size="14" font-weight="bold" lengthAdjust="spacing" textLength="26" x="622" y="193.9951">dto</text></g><!--class AbstractApplicationContextAwareJuelFunction--><g id="elem_AbstractApplicationContextAwareJuelFunction"><rect codeLine="3" fill="#F1F1F1" height="48" id="AbstractApplicationContextAwareJuelFunction" rx="2.5" ry="2.5" style="stroke:#181818;stroke-width:0.5;" width="344" x="167" y="84"/><ellipse cx="182" cy="100" fill="#A9DCDF" rx="11" ry="11" style="stroke:#181818;stroke-width:1.0;"/><path d="M182.1094,95.3438 L180.9531,100.4219 L183.2813,100.4219 L182.1094,95.3438 Z M180.625,93.1094 L183.6094,93.1094 L186.9688,105.5 L184.5156,105.5 L183.75,102.4375 L180.4688,102.4375 L179.7188,105.5 L177.2813,105.5 L180.625,93.1094 Z " fill="#000000"/><text fill="#000000" font-family="sans-serif" font-size="14" font-style="italic" lengthAdjust="spacing" textLength="312" x="196" y="104.8467">AbstractApplicationContextAwareJuelFunction</text><line style="stroke:#181818;stroke-width:0.5;" x1="168" x2="510" y1="116" y2="116"/><line style="stroke:#181818;stroke-width:0.5;" x1="168" x2="510" y1="124" y2="124"/></g><!--class SignSubmissionJuelFunction--><g id="elem_SignSubmissionJuelFunction"><rect codeLine="4" fill="#ADD8E6" height="64.2969" id="SignSubmissionJuelFunction" rx="2.5" ry="2.5" style="stroke:#008000;stroke-width:0.5;" width="505" x="46.5" y="230.3"/><ellipse cx="197.75" cy="246.3" fill="#ADD1B2" rx="11" ry="11" style="stroke:#181818;stroke-width:1.0;"/><path d="M200.7188,251.9406 Q200.1406,252.2375 199.5,252.3781 Q198.8594,252.5344 198.1563,252.5344 Q195.6563,252.5344 194.3281,250.8937 Q193.0156,249.2375 193.0156,246.1125 Q193.0156,242.9875 194.3281,241.3312 Q195.6563,239.675 198.1563,239.675 Q198.8594,239.675 199.5,239.8312 Q200.1563,239.9875 200.7188,240.2844 L200.7188,243.0031 Q200.0938,242.425 199.5,242.1594 Q198.9063,241.8781 198.2813,241.8781 Q196.9375,241.8781 196.25,242.9562 Q195.5625,244.0187 195.5625,246.1125 Q195.5625,248.2062 196.25,249.2844 Q196.9375,250.3469 198.2813,250.3469 Q198.9063,250.3469 199.5,250.0812 Q200.0938,249.8 200.7188,249.2219 L200.7188,251.9406 Z " fill="#000000"/><text fill="#000000" font-family="sans-serif" font-size="14" lengthAdjust="spacing" textLength="194" x="218.25" y="251.1467">SignSubmissionJuelFunction</text><line style="stroke:#008000;stroke-width:0.5;" x1="47.5" x2="550.5" y1="262.3" y2="262.3"/><line style="stroke:#008000;stroke-width:0.5;" x1="47.5" x2="550.5" y1="270.3" y2="270.3"/><ellipse cx="57.5" cy="283.9484" fill="#84BE84" rx="3" ry="3" style="stroke:#038048;stroke-width:1.0;"/><text fill="#000000" font-family="sans-serif" font-size="14" lengthAdjust="spacing" text-decoration="underline" textLength="479" x="66.5" y="287.2951">SignUserFormDataDto sign_submission(String &lt;activity_id|event_id&gt;)</text></g><!--class SignUserFormDataDto--><g id="elem_SignUserFormDataDto"><rect codeLine="9" fill="#ADD8E6" height="96.8906" id="SignUserFormDataDto" rx="2.5" ry="2.5" style="stroke:#008000;stroke-width:0.5;" width="220" x="634" y="214"/><ellipse cx="664.3" cy="230" fill="#ADD1B2" rx="11" ry="11" style="stroke:#181818;stroke-width:1.0;"/><path d="M667.2688,235.6406 Q666.6906,235.9375 666.05,236.0781 Q665.4094,236.2344 664.7063,236.2344 Q662.2063,236.2344 660.8781,234.5938 Q659.5656,232.9375 659.5656,229.8125 Q659.5656,226.6875 660.8781,225.0313 Q662.2063,223.375 664.7063,223.375 Q665.4094,223.375 666.05,223.5313 Q666.7063,223.6875 667.2688,223.9844 L667.2688,226.7031 Q666.6438,226.125 666.05,225.8594 Q665.4563,225.5781 664.8313,225.5781 Q663.4875,225.5781 662.8,226.6563 Q662.1125,227.7188 662.1125,229.8125 Q662.1125,231.9063 662.8,232.9844 Q663.4875,234.0469 664.8313,234.0469 Q665.4563,234.0469 666.05,233.7813 Q666.6438,233.5 667.2688,232.9219 L667.2688,235.6406 Z " fill="#000000"/><text fill="#000000" font-family="sans-serif" font-size="14" lengthAdjust="spacing" textLength="154" x="681.7" y="234.8467">SignUserFormDataDto</text><line style="stroke:#008000;stroke-width:0.5;" x1="635" x2="853" y1="246" y2="246"/><rect fill="none" height="6" style="stroke:#C82930;stroke-width:1.0;" width="6" x="642" y="256.6484"/><text fill="#000000" font-family="sans-serif" font-size="14" lengthAdjust="spacing" textLength="163" x="654" y="262.9951">SpinJsonNode formData</text><rect fill="none" height="6" style="stroke:#C82930;stroke-width:1.0;" width="6" x="642" y="272.9453"/><text fill="#000000" font-family="sans-serif" font-size="14" lengthAdjust="spacing" textLength="109" x="654" y="279.292">String signature</text><rect fill="none" height="6" style="stroke:#C82930;stroke-width:1.0;" width="6" x="642" y="289.2422"/><text fill="#000000" font-family="sans-serif" font-size="14" lengthAdjust="spacing" textLength="194" x="654" y="295.5889">String signatureDocumentId</text><line style="stroke:#008000;stroke-width:0.5;" x1="635" x2="853" y1="302.8906" y2="302.8906"/></g><!--reverse link AbstractApplicationContextAwareJuelFunction to SignSubmissionJuelFunction--><g id="link_AbstractApplicationContextAwareJuelFunction_SignSubmissionJuelFunction"><path d="M327.51,152.78 C321.04,177.45 313.11,207.68 307.25,229.99 " fill="none" id="AbstractApplicationContextAwareJuelFunction-backto-SignSubmissionJuelFunction" style="stroke:#181818;stroke-width:1.0;"/><polygon fill="none" points="320.99,151.05,332.84,133.48,334.53,154.61,320.99,151.05" style="stroke:#181818;stroke-width:1.0;"/></g><!--link AbstractApplicationContextAwareJuelFunction to SignUserFormDataDto--><!--link SignSubmissionJuelFunction to SignUserFormDataDto--><g id="link_SignSubmissionJuelFunction_SignUserFormDataDto"><path codeLine="16" d="M551.73,262.44 C578.1,262.44 603.89,262.44 627.59,262.44 " fill="none" id="SignSubmissionJuelFunction-to-SignUserFormDataDto" style="stroke:#181818;stroke-width:1.0;stroke-dasharray:7.0,7.0;"/><polygon fill="#181818" points="632.57,262.44,623.57,258.44,627.57,262.44,623.57,266.44,632.57,262.44" style="stroke:#181818;stroke-width:1.0;"/><text fill="#000000" font-family="sans-serif" font-size="13" lengthAdjust="spacing" textLength="46" x="569.75" y="255.5069">returns</text></g><!--SRC=[bP7DIiD04CVlUOe1BugO1qYbK2m5U_0IF8cKpUwOhcvcm-waAZ7lxgH9_IYjsCF2VFxdDxErqY-gH407RG9GZ-vpCmO0L14vACsWdOeHPgCxgsjdjMBhwSOJunlFNbN0fJGk6j9zVDi-TEMsfBmfAXkZ97uMmLaXCpDdopKNhi69iuHP6H1fqgjcXPCyY8LaJXe_yWDSGXjPIdMtvRYF61O-L7F5QiuUeiHMyGlkFETWgOHhcM8tbjzNrdpW1ed5c5viDRjaUBjp6P5fzzRT7_E_FNVCLv3NbfRHqvqt24-Zq7TsWEpP5JS1ZoRcNZULmD-QN-Idt35D7zRM6AJ7wQ7DHEsFxqqFza060GMFOj9z0W00]--></g></svg>