<?xml version="1.0" encoding="us-ascii" standalone="no"?><svg xmlns="http://www.w3.org/2000/svg" xmlns:xlink="http://www.w3.org/1999/xlink" contentStyleType="text/css" height="364px" preserveAspectRatio="none" style="width:587px;height:364px;background:#FFFFFF;" version="1.1" viewBox="0 0 587 364" width="587px" zoomAndPan="magnify"><defs/><g><ellipse cx="172" cy="20" fill="#222222" rx="10" ry="10" style="stroke:#222222;stroke-width:1.0;"/><rect fill="#F1F1F1" height="33.9688" rx="12.5" ry="12.5" style="stroke:#181818;stroke-width:0.5;" width="178" x="83" y="50"/><text fill="#000000" font-family="sans-serif" font-size="12" lengthAdjust="spacing" textLength="158" x="93" y="71.1387">Fill tab "&#1044;&#1040;&#1053;&#1030; &#1055;&#1056;&#1054; &#1050;&#1051;&#1070;&#1063;"</text><polygon fill="#F1F1F1" points="122,103.9688,222,103.9688,234,115.9688,222,127.9688,122,127.9688,110,115.9688,122,103.9688" style="stroke:#181818;stroke-width:0.5;"/><text fill="#000000" font-family="sans-serif" font-size="11" lengthAdjust="spacing" textLength="100" x="122" y="119.7769">&#1060;&#1072;&#1081;&#1083;&#1086;&#1074;&#1080;&#1081; &#1085;&#1086;&#1089;&#1110;&#1081;?</text><text fill="#000000" font-family="sans-serif" font-size="11" lengthAdjust="spacing" textLength="20" x="90" y="113.3745">yes</text><text fill="#000000" font-family="sans-serif" font-size="11" lengthAdjust="spacing" textLength="14" x="234" y="113.3745">no</text><rect fill="#F1F1F1" height="47.9375" rx="12.5" ry="12.5" style="stroke:#181818;stroke-width:0.5;" width="150" x="11" y="137.9688"/><text fill="#000000" font-family="sans-serif" font-size="12" lengthAdjust="spacing" textLength="73" x="21" y="159.1074">set "griada:</text><text fill="#000000" font-family="sans-serif" font-size="12" lengthAdjust="spacing" textLength="94" x="57" y="173.0762">enabled: false"</text><path d="M355,155.1914 L355,178.8906 L335,182.8906 L355,186.8906 L355,210.5898 A0,0 0 0 0 355,210.5898 L575,210.5898 A0,0 0 0 0 575,210.5898 L575,165.1914 L565,155.1914 L355,155.1914 A0,0 0 0 0 355,155.1914 " fill="#FEFFDD" style="stroke:#181818;stroke-width:0.5;"/><path d="M565,155.1914 L565,165.1914 L575,165.1914 L565,155.1914 " fill="#FEFFDD" style="stroke:#181818;stroke-width:0.5;"/><text fill="#000000" font-family="sans-serif" font-size="13" lengthAdjust="spacing" textLength="126" x="361" y="172.2583">Griada ServiceEntry</text><text fill="#000000" font-family="sans-serif" font-size="13" font-weight="bold" lengthAdjust="spacing" textLength="18" x="491" y="172.2583">&#1085;&#1077;</text><text fill="#000000" font-family="sans-serif" font-size="13" lengthAdjust="spacing" textLength="199" x="361" y="187.3911">&#1087;&#1086;&#1074;&#1080;&#1085;&#1085;&#1072; &#1089;&#1090;&#1074;&#1086;&#1088;&#1102;&#1074;&#1072;&#1090;&#1080;&#1089;&#1100; &#1103;&#1082;&#1097;&#1086;</text><text fill="#000000" font-family="sans-serif" font-size="13" lengthAdjust="spacing" textLength="68" x="361" y="202.5239">url == null</text><rect fill="#F1F1F1" height="89.8438" rx="12.5" ry="12.5" style="stroke:#181818;stroke-width:0.5;" width="154" x="181" y="137.9688"/><text fill="#000000" font-family="sans-serif" font-size="12" lengthAdjust="spacing" textLength="73" x="191" y="159.1074">set "griada:</text><text fill="#000000" font-family="sans-serif" font-size="12" lengthAdjust="spacing" textLength="85" x="227" y="173.0762">enabled: true</text><text fill="#000000" font-family="sans-serif" font-size="12" lengthAdjust="spacing" textLength="73" x="227" y="187.0449">ip: some ip"</text><text fill="#000000" font-family="sans-serif" font-size="12" lengthAdjust="spacing" textLength="98" x="227" y="201.0137">port: some port</text><text fill="#000000" font-family="sans-serif" font-size="12" lengthAdjust="spacing" textLength="78" x="227" y="214.9824">url: some url</text><polygon fill="#F1F1F1" points="172,233.8125,184,245.8125,172,257.8125,160,245.8125,172,233.8125" style="stroke:#181818;stroke-width:0.5;"/><rect fill="#F1F1F1" height="33.9688" rx="12.5" ry="12.5" style="stroke:#181818;stroke-width:0.5;" width="159" x="92.5" y="277.8125"/><text fill="#000000" font-family="sans-serif" font-size="12" lengthAdjust="spacing" textLength="135" x="106.5" y="298.9512">Save data. Create MR</text><ellipse cx="172" cy="342.7813" fill="none" rx="11" ry="11" style="stroke:#222222;stroke-width:1.0;"/><ellipse cx="172" cy="342.7813" fill="#222222" rx="6" ry="6" style="stroke:#111111;stroke-width:1.0;"/><line style="stroke:#181818;stroke-width:1.0;" x1="172" x2="172" y1="30" y2="50"/><polygon fill="#181818" points="168,40,172,50,176,40,172,44" style="stroke:#181818;stroke-width:1.0;"/><line style="stroke:#181818;stroke-width:1.0;" x1="110" x2="86" y1="115.9688" y2="115.9688"/><line style="stroke:#181818;stroke-width:1.0;" x1="86" x2="86" y1="115.9688" y2="137.9688"/><polygon fill="#181818" points="82,127.9688,86,137.9688,90,127.9688,86,131.9688" style="stroke:#181818;stroke-width:1.0;"/><line style="stroke:#181818;stroke-width:1.0;" x1="234" x2="258" y1="115.9688" y2="115.9688"/><line style="stroke:#181818;stroke-width:1.0;" x1="258" x2="258" y1="115.9688" y2="137.9688"/><polygon fill="#181818" points="254,127.9688,258,137.9688,262,127.9688,258,131.9688" style="stroke:#181818;stroke-width:1.0;"/><line style="stroke:#181818;stroke-width:1.0;" x1="86" x2="86" y1="185.9063" y2="245.8125"/><line style="stroke:#181818;stroke-width:1.0;" x1="86" x2="160" y1="245.8125" y2="245.8125"/><polygon fill="#181818" points="150,241.8125,160,245.8125,150,249.8125,154,245.8125" style="stroke:#181818;stroke-width:1.0;"/><line style="stroke:#181818;stroke-width:1.0;" x1="258" x2="258" y1="227.8125" y2="245.8125"/><line style="stroke:#181818;stroke-width:1.0;" x1="258" x2="184" y1="245.8125" y2="245.8125"/><polygon fill="#181818" points="194,241.8125,184,245.8125,194,249.8125,190,245.8125" style="stroke:#181818;stroke-width:1.0;"/><line style="stroke:#181818;stroke-width:1.0;" x1="172" x2="172" y1="83.9688" y2="103.9688"/><polygon fill="#181818" points="168,93.9688,172,103.9688,176,93.9688,172,97.9688" style="stroke:#181818;stroke-width:1.0;"/><line style="stroke:#181818;stroke-width:1.0;" x1="172" x2="172" y1="257.8125" y2="277.8125"/><polygon fill="#181818" points="168,267.8125,172,277.8125,176,267.8125,172,271.8125" style="stroke:#181818;stroke-width:1.0;"/><line style="stroke:#181818;stroke-width:1.0;" x1="172" x2="172" y1="311.7813" y2="331.7813"/><polygon fill="#181818" points="168,321.7813,172,331.7813,176,321.7813,172,325.7813" style="stroke:#181818;stroke-width:1.0;"/><!--SRC=[ZK-xIWD15EtdAovR9OtscuU5g9MDQMrctPjaO9mDivD0EhKG154BiL1y58AT1458bAo_SFQFl0ahREbCSSzZPiwSF6WVLBnhhAMW4ufmYniyufpmZ1Sy4UxnW7UyHIrb-jJ0AsPOu1i5FZ37Wh14KPwMTrXiDIaCsL5ZodbJ4SKv1ue6tkXKnuUE_XOxdLXEO-fhcxEyopAeuR9_NGf-p3NTZ6BAisCM4DNaKUP3PQnWpHbxMnc2MfBeii3apM0OXEojWwd7VcAEUCS5FwLsqfMId-tDf2idy5DLNygUaLG_4rgK9-MLp9cmkMYNL5xZgxn0eTQHrEcG6rkhsANhn1KmVHLJJq-OKXtq1crxrlAN_OEMoaCs-WK0]--></g></svg>