<?xml version="1.0" encoding="us-ascii" standalone="no"?><svg xmlns="http://www.w3.org/2000/svg" xmlns:xlink="http://www.w3.org/1999/xlink" contentStyleType="text/css" height="377px" preserveAspectRatio="none" style="width:1160px;height:377px;background:#FFFFFF;" version="1.1" viewBox="0 0 1160 377" width="1160px" zoomAndPan="magnify"><defs/><g><!--class WebServiceGatewaySupport--><g id="elem_WebServiceGatewaySupport"><rect codeLine="1" fill="#F1F1F1" height="48" id="WebServiceGatewaySupport" rx="2.5" ry="2.5" style="stroke:#181818;stroke-width:0.5;" width="227" x="7" y="23.3"/><ellipse cx="22" cy="39.3" fill="#A9DCDF" rx="11" ry="11" style="stroke:#181818;stroke-width:1.0;"/><path d="M22.1094,34.6438 L20.9531,39.7219 L23.2813,39.7219 L22.1094,34.6438 Z M20.625,32.4094 L23.6094,32.4094 L26.9688,44.8 L24.5156,44.8 L23.75,41.7375 L20.4688,41.7375 L19.7188,44.8 L17.2813,44.8 L20.625,32.4094 Z " fill="#000000"/><text fill="#000000" font-family="sans-serif" font-size="14" font-style="italic" lengthAdjust="spacing" textLength="195" x="36" y="44.1467">WebServiceGatewaySupport</text><line style="stroke:#181818;stroke-width:0.5;" x1="8" x2="233" y1="55.3" y2="55.3"/><line style="stroke:#181818;stroke-width:0.5;" x1="8" x2="233" y1="63.3" y2="63.3"/></g><!--class EdrRegistryClient--><g id="elem_EdrRegistryClient"><rect codeLine="2" fill="#F1F1F1" height="80.5938" id="EdrRegistryClient" rx="2.5" ry="2.5" style="stroke:#181818;stroke-width:0.5;" width="485" x="309" y="164.6"/><ellipse cx="488.25" cy="180.6" fill="#ADD1B2" rx="11" ry="11" style="stroke:#181818;stroke-width:1.0;"/><path d="M491.2188,186.2406 Q490.6406,186.5375 490,186.6781 Q489.3594,186.8344 488.6563,186.8344 Q486.1563,186.8344 484.8281,185.1938 Q483.5156,183.5375 483.5156,180.4125 Q483.5156,177.2875 484.8281,175.6313 Q486.1563,173.975 488.6563,173.975 Q489.3594,173.975 490,174.1313 Q490.6563,174.2875 491.2188,174.5844 L491.2188,177.3031 Q490.5938,176.725 490,176.4594 Q489.4063,176.1781 488.7813,176.1781 Q487.4375,176.1781 486.75,177.2563 Q486.0625,178.3188 486.0625,180.4125 Q486.0625,182.5063 486.75,183.5844 Q487.4375,184.6469 488.7813,184.6469 Q489.4063,184.6469 490,184.3813 Q490.5938,184.1 491.2188,183.5219 L491.2188,186.2406 Z " fill="#000000"/><text fill="#000000" font-family="sans-serif" font-size="14" lengthAdjust="spacing" textLength="118" x="508.75" y="185.4467">EdrRegistryClient</text><line style="stroke:#181818;stroke-width:0.5;" x1="310" x2="793" y1="196.6" y2="196.6"/><line style="stroke:#181818;stroke-width:0.5;" x1="310" x2="793" y1="204.6" y2="204.6"/><text fill="#000000" font-family="sans-serif" font-size="14" lengthAdjust="spacing" textLength="450" x="315" y="221.5951">get(EdrRegistryGetRequestBody): EdrRegistryGetResponseBody</text><text fill="#000000" font-family="sans-serif" font-size="14" lengthAdjust="spacing" textLength="473" x="315" y="237.892">exist(EdrRegistryExistRequestBody): EdrRegistryExistResponseBody</text></g><!--class RegistryClientsConfig--><g id="elem_RegistryClientsConfig"><rect codeLine="6" fill="#F1F1F1" height="80.5938" id="RegistryClientsConfig" rx="2.5" ry="2.5" style="stroke:#181818;stroke-width:0.5;" width="262" x="269.5" y="7"/><ellipse cx="322.75" cy="23" fill="#ADD1B2" rx="11" ry="11" style="stroke:#181818;stroke-width:1.0;"/><path d="M325.7188,28.6406 Q325.1406,28.9375 324.5,29.0781 Q323.8594,29.2344 323.1563,29.2344 Q320.6563,29.2344 319.3281,27.5938 Q318.0156,25.9375 318.0156,22.8125 Q318.0156,19.6875 319.3281,18.0313 Q320.6563,16.375 323.1563,16.375 Q323.8594,16.375 324.5,16.5313 Q325.1563,16.6875 325.7188,16.9844 L325.7188,19.7031 Q325.0938,19.125 324.5,18.8594 Q323.9063,18.5781 323.2813,18.5781 Q321.9375,18.5781 321.25,19.6563 Q320.5625,20.7188 320.5625,22.8125 Q320.5625,24.9063 321.25,25.9844 Q321.9375,27.0469 323.2813,27.0469 Q323.9063,27.0469 324.5,26.7813 Q325.0938,26.5 325.7188,25.9219 L325.7188,28.6406 Z " fill="#000000"/><text fill="#000000" font-family="sans-serif" font-size="14" lengthAdjust="spacing" textLength="147" x="343.25" y="27.8467">RegistryClientsConfig</text><line style="stroke:#181818;stroke-width:0.5;" x1="270.5" x2="530.5" y1="39" y2="39"/><line style="stroke:#181818;stroke-width:0.5;" x1="270.5" x2="530.5" y1="47" y2="47"/><text fill="#000000" font-family="sans-serif" font-size="14" lengthAdjust="spacing" textLength="196" x="275.5" y="63.9951">marshaller(): Jaxb2Marshaller</text><text fill="#000000" font-family="sans-serif" font-size="14" lengthAdjust="spacing" textLength="250" x="275.5" y="80.292">edrRegistryClient() EdrRegistryClient</text></g><!--class EdrRegistryGetConnectorDelegate--><g id="elem_EdrRegistryGetConnectorDelegate"><rect codeLine="11" fill="#90EE90" height="80.5938" id="EdrRegistryGetConnectorDelegate" rx="2.5" ry="2.5" style="stroke:#008000;stroke-width:0.5;" width="272" x="566.5" y="7"/><ellipse cx="581.5" cy="23" fill="#ADD1B2" rx="11" ry="11" style="stroke:#181818;stroke-width:1.0;"/><path d="M584.4688,28.6406 Q583.8906,28.9375 583.25,29.0781 Q582.6094,29.2344 581.9063,29.2344 Q579.4063,29.2344 578.0781,27.5938 Q576.7656,25.9375 576.7656,22.8125 Q576.7656,19.6875 578.0781,18.0313 Q579.4063,16.375 581.9063,16.375 Q582.6094,16.375 583.25,16.5313 Q583.9063,16.6875 584.4688,16.9844 L584.4688,19.7031 Q583.8438,19.125 583.25,18.8594 Q582.6563,18.5781 582.0313,18.5781 Q580.6875,18.5781 580,19.6563 Q579.3125,20.7188 579.3125,22.8125 Q579.3125,24.9063 580,25.9844 Q580.6875,27.0469 582.0313,27.0469 Q582.6563,27.0469 583.25,26.7813 Q583.8438,26.5 584.4688,25.9219 L584.4688,28.6406 Z " fill="#000000"/><text fill="#000000" font-family="sans-serif" font-size="14" lengthAdjust="spacing" textLength="240" x="595.5" y="27.8467">EdrRegistryGetConnectorDelegate</text><line style="stroke:#008000;stroke-width:0.5;" x1="567.5" x2="837.5" y1="39" y2="39"/><text fill="#000000" font-family="sans-serif" font-size="14" lengthAdjust="spacing" textLength="159" x="572.5" y="55.9951">EdrRegistryClient client</text><line style="stroke:#008000;stroke-width:0.5;" x1="567.5" x2="837.5" y1="63.2969" y2="63.2969"/><text fill="#000000" font-family="sans-serif" font-size="14" lengthAdjust="spacing" textLength="197" x="572.5" y="80.292">execute(DelegateExecution)</text></g><!--class EdrRegistryExistConnectorDelegate--><g id="elem_EdrRegistryExistConnectorDelegate"><rect codeLine="15" fill="#90EE90" height="80.5938" id="EdrRegistryExistConnectorDelegate" rx="2.5" ry="2.5" style="stroke:#008000;stroke-width:0.5;" width="279" x="874" y="7"/><ellipse cx="889" cy="23" fill="#ADD1B2" rx="11" ry="11" style="stroke:#181818;stroke-width:1.0;"/><path d="M891.9688,28.6406 Q891.3906,28.9375 890.75,29.0781 Q890.1094,29.2344 889.4063,29.2344 Q886.9063,29.2344 885.5781,27.5938 Q884.2656,25.9375 884.2656,22.8125 Q884.2656,19.6875 885.5781,18.0313 Q886.9063,16.375 889.4063,16.375 Q890.1094,16.375 890.75,16.5313 Q891.4063,16.6875 891.9688,16.9844 L891.9688,19.7031 Q891.3438,19.125 890.75,18.8594 Q890.1563,18.5781 889.5313,18.5781 Q888.1875,18.5781 887.5,19.6563 Q886.8125,20.7188 886.8125,22.8125 Q886.8125,24.9063 887.5,25.9844 Q888.1875,27.0469 889.5313,27.0469 Q890.1563,27.0469 890.75,26.7813 Q891.3438,26.5 891.9688,25.9219 L891.9688,28.6406 Z " fill="#000000"/><text fill="#000000" font-family="sans-serif" font-size="14" lengthAdjust="spacing" textLength="247" x="903" y="27.8467">EdrRegistryExistConnectorDelegate</text><line style="stroke:#008000;stroke-width:0.5;" x1="875" x2="1152" y1="39" y2="39"/><text fill="#000000" font-family="sans-serif" font-size="14" lengthAdjust="spacing" textLength="159" x="880" y="55.9951">EdrRegistryClient client</text><line style="stroke:#008000;stroke-width:0.5;" x1="875" x2="1152" y1="63.2969" y2="63.2969"/><text fill="#000000" font-family="sans-serif" font-size="14" lengthAdjust="spacing" textLength="197" x="880" y="80.292">execute(DelegateExecution)</text></g><!--class EdrRegistryGetRequestBody--><g id="elem_EdrRegistryGetRequestBody"><rect codeLine="20" fill="#ADD8E6" height="48" id="EdrRegistryGetRequestBody" rx="2.5" ry="2.5" style="stroke:#0000FF;stroke-width:0.5;" width="230" x="88.5" y="322.19"/><ellipse cx="103.5" cy="338.19" fill="#ADD1B2" rx="11" ry="11" style="stroke:#181818;stroke-width:1.0;"/><path d="M106.4688,343.8306 Q105.8906,344.1275 105.25,344.2681 Q104.6094,344.4244 103.9063,344.4244 Q101.4063,344.4244 100.0781,342.7838 Q98.7656,341.1275 98.7656,338.0025 Q98.7656,334.8775 100.0781,333.2213 Q101.4063,331.565 103.9063,331.565 Q104.6094,331.565 105.25,331.7213 Q105.9063,331.8775 106.4688,332.1744 L106.4688,334.8931 Q105.8438,334.315 105.25,334.0494 Q104.6563,333.7681 104.0313,333.7681 Q102.6875,333.7681 102,334.8463 Q101.3125,335.9088 101.3125,338.0025 Q101.3125,340.0963 102,341.1744 Q102.6875,342.2369 104.0313,342.2369 Q104.6563,342.2369 105.25,341.9713 Q105.8438,341.69 106.4688,341.1119 L106.4688,343.8306 Z " fill="#000000"/><text fill="#000000" font-family="sans-serif" font-size="14" lengthAdjust="spacing" textLength="198" x="117.5" y="343.0367">EdrRegistryGetRequestBody</text><line style="stroke:#0000FF;stroke-width:0.5;" x1="89.5" x2="317.5" y1="354.19" y2="354.19"/><line style="stroke:#0000FF;stroke-width:0.5;" x1="89.5" x2="317.5" y1="362.19" y2="362.19"/></g><!--class EdrRegistryGetResponseBody--><g id="elem_EdrRegistryGetResponseBody"><rect codeLine="21" fill="#ADD8E6" height="48" id="EdrRegistryGetResponseBody" rx="2.5" ry="2.5" style="stroke:#0000FF;stroke-width:0.5;" width="242" x="353.5" y="322.19"/><ellipse cx="368.5" cy="338.19" fill="#ADD1B2" rx="11" ry="11" style="stroke:#181818;stroke-width:1.0;"/><path d="M371.4688,343.8306 Q370.8906,344.1275 370.25,344.2681 Q369.6094,344.4244 368.9063,344.4244 Q366.4063,344.4244 365.0781,342.7838 Q363.7656,341.1275 363.7656,338.0025 Q363.7656,334.8775 365.0781,333.2213 Q366.4063,331.565 368.9063,331.565 Q369.6094,331.565 370.25,331.7213 Q370.9063,331.8775 371.4688,332.1744 L371.4688,334.8931 Q370.8438,334.315 370.25,334.0494 Q369.6563,333.7681 369.0313,333.7681 Q367.6875,333.7681 367,334.8463 Q366.3125,335.9088 366.3125,338.0025 Q366.3125,340.0963 367,341.1744 Q367.6875,342.2369 369.0313,342.2369 Q369.6563,342.2369 370.25,341.9713 Q370.8438,341.69 371.4688,341.1119 L371.4688,343.8306 Z " fill="#000000"/><text fill="#000000" font-family="sans-serif" font-size="14" lengthAdjust="spacing" textLength="210" x="382.5" y="343.0367">EdrRegistryGetResponseBody</text><line style="stroke:#0000FF;stroke-width:0.5;" x1="354.5" x2="594.5" y1="354.19" y2="354.19"/><line style="stroke:#0000FF;stroke-width:0.5;" x1="354.5" x2="594.5" y1="362.19" y2="362.19"/></g><!--class EdrRegistryExistRequestBody--><g id="elem_EdrRegistryExistRequestBody"><rect codeLine="22" fill="#ADD8E6" height="48" id="EdrRegistryExistRequestBody" rx="2.5" ry="2.5" style="stroke:#0000FF;stroke-width:0.5;" width="237" x="631" y="322.19"/><ellipse cx="646" cy="338.19" fill="#ADD1B2" rx="11" ry="11" style="stroke:#181818;stroke-width:1.0;"/><path d="M648.9688,343.8306 Q648.3906,344.1275 647.75,344.2681 Q647.1094,344.4244 646.4063,344.4244 Q643.9063,344.4244 642.5781,342.7838 Q641.2656,341.1275 641.2656,338.0025 Q641.2656,334.8775 642.5781,333.2213 Q643.9063,331.565 646.4063,331.565 Q647.1094,331.565 647.75,331.7213 Q648.4063,331.8775 648.9688,332.1744 L648.9688,334.8931 Q648.3438,334.315 647.75,334.0494 Q647.1563,333.7681 646.5313,333.7681 Q645.1875,333.7681 644.5,334.8463 Q643.8125,335.9088 643.8125,338.0025 Q643.8125,340.0963 644.5,341.1744 Q645.1875,342.2369 646.5313,342.2369 Q647.1563,342.2369 647.75,341.9713 Q648.3438,341.69 648.9688,341.1119 L648.9688,343.8306 Z " fill="#000000"/><text fill="#000000" font-family="sans-serif" font-size="14" lengthAdjust="spacing" textLength="205" x="660" y="343.0367">EdrRegistryExistRequestBody</text><line style="stroke:#0000FF;stroke-width:0.5;" x1="632" x2="867" y1="354.19" y2="354.19"/><line style="stroke:#0000FF;stroke-width:0.5;" x1="632" x2="867" y1="362.19" y2="362.19"/></g><!--class EdrRegistryExistResponseBody--><g id="elem_EdrRegistryExistResponseBody"><rect codeLine="23" fill="#ADD8E6" height="48" id="EdrRegistryExistResponseBody" rx="2.5" ry="2.5" style="stroke:#0000FF;stroke-width:0.5;" width="249" x="903" y="322.19"/><ellipse cx="918" cy="338.19" fill="#ADD1B2" rx="11" ry="11" style="stroke:#181818;stroke-width:1.0;"/><path d="M920.9688,343.8306 Q920.3906,344.1275 919.75,344.2681 Q919.1094,344.4244 918.4063,344.4244 Q915.9063,344.4244 914.5781,342.7838 Q913.2656,341.1275 913.2656,338.0025 Q913.2656,334.8775 914.5781,333.2213 Q915.9063,331.565 918.4063,331.565 Q919.1094,331.565 919.75,331.7213 Q920.4063,331.8775 920.9688,332.1744 L920.9688,334.8931 Q920.3438,334.315 919.75,334.0494 Q919.1563,333.7681 918.5313,333.7681 Q917.1875,333.7681 916.5,334.8463 Q915.8125,335.9088 915.8125,338.0025 Q915.8125,340.0963 916.5,341.1744 Q917.1875,342.2369 918.5313,342.2369 Q919.1563,342.2369 919.75,341.9713 Q920.3438,341.69 920.9688,341.1119 L920.9688,343.8306 Z " fill="#000000"/><text fill="#000000" font-family="sans-serif" font-size="14" lengthAdjust="spacing" textLength="217" x="932" y="343.0367">EdrRegistryExistResponseBody</text><line style="stroke:#0000FF;stroke-width:0.5;" x1="904" x2="1151" y1="354.19" y2="354.19"/><line style="stroke:#0000FF;stroke-width:0.5;" x1="904" x2="1151" y1="362.19" y2="362.19"/></g><g id="elem_GMN12"><path d="M905.5,192.33 L905.5,217.4628 A0,0 0 0 0 905.5,217.4628 L1023.5,217.4628 L1027.5,321.91 L1031.5,217.4628 L1149.5,217.4628 A0,0 0 0 0 1149.5,217.4628 L1149.5,202.33 L1139.5,192.33 L905.5,192.33 A0,0 0 0 0 905.5,192.33 " fill="#FEFFDD" style="stroke:#181818;stroke-width:0.5;"/><path d="M1139.5,192.33 L1139.5,202.33 L1149.5,202.33 L1139.5,192.33 " fill="#FEFFDD" style="stroke:#181818;stroke-width:0.5;"/><text fill="#000000" font-family="sans-serif" font-size="13" lengthAdjust="spacing" textLength="223" x="911.5" y="209.3969">Generated classes based on WSDL</text></g><!--reverse link WebServiceGatewaySupport to EdrRegistryClient--><g id="link_WebServiceGatewaySupport_EdrRegistryClient"><path d="M205.09,78.84 C272.7,103.25 367.99,137.65 441.52,164.19 " fill="none" id="WebServiceGatewaySupport-backto-EdrRegistryClient" style="stroke:#181818;stroke-width:1.0;"/><polygon fill="none" points="202.93,85.14,186.49,71.76,207.68,71.97,202.93,85.14" style="stroke:#181818;stroke-width:1.0;"/></g><!--link EdrRegistryGetConnectorDelegate to EdrRegistryClient--><g id="link_EdrRegistryGetConnectorDelegate_EdrRegistryClient"><path codeLine="29" d="M664.01,87.96 C642.62,110 615.97,137.46 593.97,160.13 " fill="none" id="EdrRegistryGetConnectorDelegate-to-EdrRegistryClient" style="stroke:#181818;stroke-width:1.0;"/><polygon fill="#181818" points="590.92,163.3,600.0615,159.6348,594.4052,159.7148,594.3252,154.0585,590.92,163.3" style="stroke:#181818;stroke-width:1.0;"/><text fill="#000000" font-family="sans-serif" font-size="13" lengthAdjust="spacing" textLength="30" x="633.5" y="130.6669">uses</text></g><!--link EdrRegistryExistConnectorDelegate to EdrRegistryClient--><g id="link_EdrRegistryExistConnectorDelegate_EdrRegistryClient"><path codeLine="30" d="M895.42,88.07 C827.81,110.84 743.07,139.37 674.63,162.42 " fill="none" id="EdrRegistryExistConnectorDelegate-to-EdrRegistryClient" style="stroke:#181818;stroke-width:1.0;"/><polygon fill="#181818" points="670.32,164.21,680.1239,165.1498,675.062,162.6246,677.5872,157.5626,670.32,164.21" style="stroke:#181818;stroke-width:1.0;"/><text fill="#000000" font-family="sans-serif" font-size="13" lengthAdjust="spacing" textLength="30" x="796.5" y="130.6669">uses</text></g><!--link EdrRegistryClient to EdrRegistryGetRequestBody--><g id="link_EdrRegistryClient_EdrRegistryGetRequestBody"><path codeLine="31" d="M452.24,245.62 C392.93,269.37 319.31,298.83 267.61,319.53 " fill="none" id="EdrRegistryClient-to-EdrRegistryGetRequestBody" style="stroke:#181818;stroke-width:1.0;"/><polygon fill="#181818" points="263.04,321.76,272.8828,322.1053,267.6774,319.8908,269.892,314.6854,263.04,321.76" style="stroke:#181818;stroke-width:1.0;"/><text fill="#000000" font-family="sans-serif" font-size="13" lengthAdjust="spacing" textLength="30" x="378.5" y="288.2569">uses</text></g><!--link EdrRegistryClient to EdrRegistryGetResponseBody--><g id="link_EdrRegistryClient_EdrRegistryGetResponseBody"><path codeLine="32" d="M529.64,245.44 C517.1,268.13 501.64,296.1 490.28,316.64 " fill="none" id="EdrRegistryClient-to-EdrRegistryGetResponseBody" style="stroke:#181818;stroke-width:1.0;"/><polygon fill="#181818" points="487.49,320.69,495.3426,314.7455,489.9073,316.3132,488.3396,310.8779,487.49,320.69" style="stroke:#181818;stroke-width:1.0;"/><text fill="#000000" font-family="sans-serif" font-size="13" lengthAdjust="spacing" textLength="30" x="514.5" y="288.2569">uses</text></g><!--link EdrRegistryClient to EdrRegistryExistRequestBody--><g id="link_EdrRegistryClient_EdrRegistryExistRequestBody"><path codeLine="33" d="M607.97,245.62 C641.17,268.98 682.25,297.88 711.59,318.52 " fill="none" id="EdrRegistryClient-to-EdrRegistryExistRequestBody" style="stroke:#181818;stroke-width:1.0;"/><polygon fill="#181818" points="715.19,321.76,710.1463,313.3006,711.106,318.8755,705.5311,319.8351,715.19,321.76" style="stroke:#181818;stroke-width:1.0;"/><text fill="#000000" font-family="sans-serif" font-size="13" lengthAdjust="spacing" textLength="30" x="675.5" y="288.2569">uses</text></g><!--link EdrRegistryClient to EdrRegistryExistResponseBody--><g id="link_EdrRegistryClient_EdrRegistryExistResponseBody"><path codeLine="34" d="M687.27,245.62 C769.22,269.61 871.13,299.43 941.95,320.16 " fill="none" id="EdrRegistryClient-to-EdrRegistryExistResponseBody" style="stroke:#181818;stroke-width:1.0;"/><polygon fill="#181818" points="946.42,321.76,938.9175,315.3794,941.6239,320.3469,936.6564,323.0532,946.42,321.76" style="stroke:#181818;stroke-width:1.0;"/><text fill="#000000" font-family="sans-serif" font-size="13" lengthAdjust="spacing" textLength="30" x="846.5" y="288.2569">uses</text></g><!--link RegistryClientsConfig to EdrRegistryClient--><g id="link_RegistryClientsConfig_EdrRegistryClient"><path codeLine="35" d="M438.99,87.96 C460.38,110 487.03,137.46 509.03,160.13 " fill="none" id="RegistryClientsConfig-to-EdrRegistryClient" style="stroke:#181818;stroke-width:1.0;"/><polygon fill="#181818" points="512.08,163.3,508.6748,154.0585,508.5948,159.7148,502.9385,159.6348,512.08,163.3" style="stroke:#181818;stroke-width:1.0;"/><text fill="#000000" font-family="sans-serif" font-size="13" lengthAdjust="spacing" textLength="66" x="482.5" y="130.6669">configures</text></g><!--SRC=[nLInJiCm4Dtz5IUnf4CNnY0nq5QL42pDqDbnhgc5iODzWLQ8V-UIb3Oa3MrXO8lz_Duzlpj7fe6yL0JAo11WYMc2_bKhd4l2DxbDog9mdaG3ppA_m5mpPJin6Yq1RWXjDao4Tm6G8qKjwXnfWIyb1hfpsNOKGnSBXRC1Av39k66WJPzL6uC2ExGbyR4p_zrvc3Yxqddjxrdwi9R6e8zOx5vkqkl7_LPbeNljQDIFWklqK-BhS1sBYfoVei6Smu6hLAgdsEXyJRb7j3T6MuoRJ-90uzJmWTfPFt3L5AjoGLKIHb-oitgjdHtjRzoDvL-i70sbrRwsXzIKs5YelmuE1aGENVwbIdUM_YPpgHrX7VU0N05kzVCC0ypHekTii-QbOe1K1buv2yja-Y3u5K8b9yIfyHkFRuyqCuQIHSNfaJcNlWCwnpkzluZMYlTSNg-_5nBx9O__HOP2KJLSUWoV]--></g></svg>