<?xml version="1.0" encoding="us-ascii" standalone="no"?><svg xmlns="http://www.w3.org/2000/svg" xmlns:xlink="http://www.w3.org/1999/xlink" contentStyleType="text/css" height="850px" preserveAspectRatio="none" style="width:1027px;height:850px;background:#FFFFFF;" version="1.1" viewBox="0 0 1027 850" width="1027px" zoomAndPan="magnify"><defs/><g><rect fill="#FFFFFF" height="720.6641" style="stroke:#181818;stroke-width:1.0;" width="10" x="143" y="52.2969"/><rect fill="#FFFFFF" height="109.2031" style="stroke:#181818;stroke-width:1.0;" width="10" x="492" y="81.4297"/><rect fill="#FFFFFF" height="12" style="stroke:#181818;stroke-width:1.0;" width="10" x="492" y="236.8984"/><rect fill="#FFFFFF" height="12" style="stroke:#181818;stroke-width:1.0;" width="10" x="492" y="361.4297"/><rect fill="#FFFFFF" height="12" style="stroke:#181818;stroke-width:1.0;" width="10" x="492" y="731.8281"/><rect fill="#FFFFFF" height="12" style="stroke:#181818;stroke-width:1.0;" width="10" x="704.5" y="434.5"/><rect fill="#FFFFFF" height="12" style="stroke:#181818;stroke-width:1.0;" width="10" x="704.5" y="558.0313"/><rect fill="#FFFFFF" height="12" style="stroke:#181818;stroke-width:1.0;" width="10" x="878" y="492.7656"/><rect fill="#FFFFFF" height="12" style="stroke:#181818;stroke-width:1.0;" width="10" x="979.5" y="616.2969"/><rect fill="none" height="701.6641" style="stroke:#000000;stroke-width:1.5;" width="1017" x="3" y="96.4297"/><rect fill="none" height="206.7344" style="stroke:#000000;stroke-width:1.5;" width="948.5" x="10.5" y="323.1641"/><line style="stroke:#181818;stroke-width:0.5;stroke-dasharray:5.0,5.0;" x1="147.5" x2="147.5" y1="36.2969" y2="815.0938"/><line style="stroke:#181818;stroke-width:0.5;stroke-dasharray:5.0,5.0;" x1="497" x2="497" y1="36.2969" y2="815.0938"/><line style="stroke:#181818;stroke-width:0.5;stroke-dasharray:5.0,5.0;" x1="709" x2="709" y1="36.2969" y2="815.0938"/><line style="stroke:#181818;stroke-width:0.5;stroke-dasharray:5.0,5.0;" x1="883" x2="883" y1="36.2969" y2="815.0938"/><line style="stroke:#181818;stroke-width:0.5;stroke-dasharray:5.0,5.0;" x1="984" x2="984" y1="36.2969" y2="815.0938"/><rect fill="#E2E2F0" height="30.2969" rx="2.5" ry="2.5" style="stroke:#181818;stroke-width:0.5;" width="255" x="20.5" y="5"/><text fill="#000000" font-family="sans-serif" font-size="14" lengthAdjust="spacing" textLength="241" x="27.5" y="24.9951">submission(&lt;activity_id|event_id&gt;)</text><rect fill="#E2E2F0" height="30.2969" rx="2.5" ry="2.5" style="stroke:#181818;stroke-width:0.5;" width="255" x="20.5" y="814.0938"/><text fill="#000000" font-family="sans-serif" font-size="14" lengthAdjust="spacing" textLength="241" x="27.5" y="834.0889">submission(&lt;activity_id|event_id&gt;)</text><rect fill="#E2E2F0" height="30.2969" rx="2.5" ry="2.5" style="stroke:#181818;stroke-width:0.5;" width="210" x="392" y="5"/><text fill="#000000" font-family="sans-serif" font-size="14" lengthAdjust="spacing" textLength="196" x="399" y="24.9951">Camunda Execution Context</text><rect fill="#E2E2F0" height="30.2969" rx="2.5" ry="2.5" style="stroke:#181818;stroke-width:0.5;" width="210" x="392" y="814.0938"/><text fill="#000000" font-family="sans-serif" font-size="14" lengthAdjust="spacing" textLength="196" x="399" y="834.0889">Camunda Execution Context</text><rect fill="#E2E2F0" height="30.2969" rx="2.5" ry="2.5" style="stroke:#181818;stroke-width:0.5;" width="195" x="612" y="5"/><text fill="#000000" font-family="sans-serif" font-size="14" lengthAdjust="spacing" textLength="181" x="619" y="24.9951">Spring Application Context</text><rect fill="#E2E2F0" height="30.2969" rx="2.5" ry="2.5" style="stroke:#181818;stroke-width:0.5;" width="195" x="612" y="814.0938"/><text fill="#000000" font-family="sans-serif" font-size="14" lengthAdjust="spacing" textLength="181" x="619" y="834.0889">Spring Application Context</text><rect fill="#E2E2F0" height="30.2969" rx="2.5" ry="2.5" style="stroke:#181818;stroke-width:0.5;" width="132" x="817" y="5"/><text fill="#000000" font-family="sans-serif" font-size="14" lengthAdjust="spacing" textLength="118" x="824" y="24.9951">CephKeyProvider</text><rect fill="#E2E2F0" height="30.2969" rx="2.5" ry="2.5" style="stroke:#181818;stroke-width:0.5;" width="132" x="817" y="814.0938"/><text fill="#000000" font-family="sans-serif" font-size="14" lengthAdjust="spacing" textLength="118" x="824" y="834.0889">CephKeyProvider</text><rect fill="#E2E2F0" height="30.2969" rx="2.5" ry="2.5" style="stroke:#181818;stroke-width:0.5;" width="51" x="959" y="5"/><text fill="#000000" font-family="sans-serif" font-size="14" lengthAdjust="spacing" textLength="37" x="966" y="24.9951">Ceph</text><rect fill="#E2E2F0" height="30.2969" rx="2.5" ry="2.5" style="stroke:#181818;stroke-width:0.5;" width="51" x="959" y="814.0938"/><text fill="#000000" font-family="sans-serif" font-size="14" lengthAdjust="spacing" textLength="37" x="966" y="834.0889">Ceph</text><rect fill="#FFFFFF" height="720.6641" style="stroke:#181818;stroke-width:1.0;" width="10" x="143" y="52.2969"/><rect fill="#FFFFFF" height="109.2031" style="stroke:#181818;stroke-width:1.0;" width="10" x="492" y="81.4297"/><rect fill="#FFFFFF" height="12" style="stroke:#181818;stroke-width:1.0;" width="10" x="492" y="236.8984"/><rect fill="#FFFFFF" height="12" style="stroke:#181818;stroke-width:1.0;" width="10" x="492" y="361.4297"/><rect fill="#FFFFFF" height="12" style="stroke:#181818;stroke-width:1.0;" width="10" x="492" y="731.8281"/><rect fill="#FFFFFF" height="12" style="stroke:#181818;stroke-width:1.0;" width="10" x="704.5" y="434.5"/><rect fill="#FFFFFF" height="12" style="stroke:#181818;stroke-width:1.0;" width="10" x="704.5" y="558.0313"/><rect fill="#FFFFFF" height="12" style="stroke:#181818;stroke-width:1.0;" width="10" x="878" y="492.7656"/><rect fill="#FFFFFF" height="12" style="stroke:#181818;stroke-width:1.0;" width="10" x="979.5" y="616.2969"/><polygon fill="#181818" points="131,48.2969,141,52.2969,131,56.2969,135,52.2969" style="stroke:#181818;stroke-width:1.0;"/><line style="stroke:#181818;stroke-width:1.0;" x1="0" x2="137" y1="52.2969" y2="52.2969"/><polygon fill="#181818" points="480,77.4297,490,81.4297,480,85.4297,484,81.4297" style="stroke:#181818;stroke-width:1.0;"/><line style="stroke:#181818;stroke-width:1.0;" x1="153" x2="486" y1="81.4297" y2="81.4297"/><text fill="#000000" font-family="sans-serif" font-size="13" lengthAdjust="spacing" textLength="301" x="160" y="76.3638">&#1054;&#1090;&#1088;&#1080;&#1084;&#1072;&#1090;&#1080; &#1110;&#1089;&#1085;&#1091;&#1102;&#1095;&#1080;&#1081; UserFormDataDto &#1086;&#1073;'&#1108;&#1082;&#1090;</text><path d="M3,96.4297 L67,96.4297 L67,103.5625 L57,113.5625 L3,113.5625 L3,96.4297 " fill="#EEEEEE" style="stroke:#000000;stroke-width:1.5;"/><rect fill="none" height="701.6641" style="stroke:#000000;stroke-width:1.5;" width="1017" x="3" y="96.4297"/><text fill="#000000" font-family="sans-serif" font-size="13" font-weight="bold" lengthAdjust="spacing" textLength="19" x="18" y="109.4966">alt</text><text fill="#000000" font-family="sans-serif" font-size="11" font-weight="bold" lengthAdjust="spacing" textLength="235" x="82" y="108.6401">[&#1054;&#1073;'&#1108;&#1082;&#1090; UserFormDataDto &#1079;&#1085;&#1072;&#1081;&#1076;&#1077;&#1085;&#1086;]</text><polygon fill="#181818" points="164,113.5625,154,117.5625,164,121.5625,160,117.5625" style="stroke:#181818;stroke-width:1.0;"/><line style="stroke:#181818;stroke-width:1.0;stroke-dasharray:2.0,2.0;" x1="158" x2="491" y1="117.5625" y2="117.5625"/><text fill="#000000" font-family="sans-serif" font-size="13" lengthAdjust="spacing" textLength="243" x="170" y="130.6294">&#1047;&#1085;&#1072;&#1081;&#1076;&#1077;&#1085;&#1080;&#1081; &#1086;&#1073;'&#1108;&#1082;&#1090; UserFormDataDto</text><polygon fill="#181818" points="11,142.6953,1,146.6953,11,150.6953,7,146.6953" style="stroke:#181818;stroke-width:1.0;"/><line style="stroke:#181818;stroke-width:1.0;stroke-dasharray:2.0,2.0;" x1="5" x2="142" y1="146.6953" y2="146.6953"/><text fill="#000000" font-family="sans-serif" font-size="13" lengthAdjust="spacing" textLength="117" x="17" y="159.7622">UserFormDataDto</text><line style="stroke:#000000;stroke-width:1.0;stroke-dasharray:2.0,2.0;" x1="3" x2="1020" y1="172.8281" y2="172.8281"/><text fill="#000000" font-family="sans-serif" font-size="11" font-weight="bold" lengthAdjust="spacing" textLength="255" x="8" y="183.0386">[&#1054;&#1073;'&#1108;&#1082;&#1090; UserFormDataDto &#1085;&#1077; &#1079;&#1085;&#1072;&#1081;&#1076;&#1077;&#1085;&#1086;]</text><polygon fill="#181818" points="164,186.6328,154,190.6328,164,194.6328,160,190.6328" style="stroke:#181818;stroke-width:1.0;"/><line style="stroke:#181818;stroke-width:1.0;stroke-dasharray:2.0,2.0;" x1="158" x2="496" y1="190.6328" y2="190.6328"/><text fill="#000000" font-family="sans-serif" font-size="13" lengthAdjust="spacing" textLength="22" x="170" y="203.6997">null</text><polygon fill="#181818" points="480,232.8984,490,236.8984,480,240.8984,484,236.8984" style="stroke:#181818;stroke-width:1.0;"/><line style="stroke:#181818;stroke-width:1.0;" x1="153" x2="486" y1="236.8984" y2="236.8984"/><text fill="#000000" font-family="sans-serif" font-size="13" lengthAdjust="spacing" textLength="295" x="160" y="231.8325">&#1054;&#1090;&#1088;&#1080;&#1084;&#1072;&#1090;&#1080; &#1110;&#1076;&#1077;&#1085;&#1090;&#1080;&#1092;&#1110;&#1082;&#1072;&#1090;&#1086;&#1088; &#1089;&#1090;&#1072;&#1088;&#1090;&#1086;&#1074;&#1086;&#1111; &#1092;&#1086;&#1088;&#1084;&#1080;</text><polygon fill="#181818" points="164,244.8984,154,248.8984,164,252.8984,160,248.8984" style="stroke:#181818;stroke-width:1.0;"/><line style="stroke:#181818;stroke-width:1.0;stroke-dasharray:2.0,2.0;" x1="158" x2="496" y1="248.8984" y2="248.8984"/><text fill="#000000" font-family="sans-serif" font-size="13" lengthAdjust="spacing" textLength="101" x="170" y="261.9653">&#1030;&#1076;&#1077;&#1085;&#1090;&#1080;&#1092;&#1110;&#1082;&#1072;&#1090;&#1086;&#1088;</text><line style="stroke:#181818;stroke-width:1.0;" x1="153" x2="195" y1="295.1641" y2="295.1641"/><line style="stroke:#181818;stroke-width:1.0;" x1="195" x2="195" y1="295.1641" y2="308.1641"/><line style="stroke:#181818;stroke-width:1.0;" x1="154" x2="195" y1="308.1641" y2="308.1641"/><polygon fill="#181818" points="164,304.1641,154,308.1641,164,312.1641,160,308.1641" style="stroke:#181818;stroke-width:1.0;"/><text fill="#000000" font-family="sans-serif" font-size="13" lengthAdjust="spacing" textLength="277" x="160" y="290.0981">&#1042;&#1080;&#1079;&#1085;&#1072;&#1095;&#1080;&#1090;&#1080; &#1090;&#1080;&#1087; &#1077;&#1083;&#1077;&#1084;&#1077;&#1085;&#1090;&#1072; &#1073;&#1110;&#1079;&#1085;&#1077;&#1089;-&#1087;&#1088;&#1086;&#1094;&#1077;&#1089;&#1091;</text><path d="M10.5,323.1641 L74.5,323.1641 L74.5,330.2969 L64.5,340.2969 L10.5,340.2969 L10.5,323.1641 " fill="#EEEEEE" style="stroke:#000000;stroke-width:1.5;"/><rect fill="none" height="206.7344" style="stroke:#000000;stroke-width:1.5;" width="948.5" x="10.5" y="323.1641"/><text fill="#000000" font-family="sans-serif" font-size="13" font-weight="bold" lengthAdjust="spacing" textLength="19" x="25.5" y="336.231">alt</text><text fill="#000000" font-family="sans-serif" font-size="11" font-weight="bold" lengthAdjust="spacing" textLength="184" x="89.5" y="335.3745">[&#1045;&#1083;&#1077;&#1084;&#1077;&#1085;&#1090; - &#1089;&#1090;&#1072;&#1088;&#1090;&#1086;&#1074;&#1072; &#1092;&#1086;&#1088;&#1084;&#1072;]</text><polygon fill="#181818" points="480,357.4297,490,361.4297,480,365.4297,484,361.4297" style="stroke:#181818;stroke-width:1.0;"/><line style="stroke:#181818;stroke-width:1.0;" x1="153" x2="486" y1="361.4297" y2="361.4297"/><text fill="#000000" font-family="sans-serif" font-size="13" lengthAdjust="spacing" textLength="284" x="160" y="356.3638">&#1054;&#1090;&#1088;&#1080;&#1084;&#1072;&#1090;&#1080; &#1094;&#1077;&#1092; &#1082;&#1083;&#1102;&#1095; &#1079; &#1074;&#1110;&#1076;&#1087;&#1086;&#1074;&#1110;&#1076;&#1085;&#1086;&#1111; &#1079;&#1084;&#1110;&#1085;&#1085;&#1086;&#1111;</text><polygon fill="#181818" points="164,369.4297,154,373.4297,164,377.4297,160,373.4297" style="stroke:#181818;stroke-width:1.0;"/><line style="stroke:#181818;stroke-width:1.0;stroke-dasharray:2.0,2.0;" x1="158" x2="496" y1="373.4297" y2="373.4297"/><text fill="#000000" font-family="sans-serif" font-size="13" lengthAdjust="spacing" textLength="68" x="170" y="386.4966">&#1062;&#1077;&#1092; &#1082;&#1083;&#1102;&#1095;</text><line style="stroke:#000000;stroke-width:1.0;stroke-dasharray:2.0,2.0;" x1="10.5" x2="959" y1="399.5625" y2="399.5625"/><text fill="#000000" font-family="sans-serif" font-size="11" font-weight="bold" lengthAdjust="spacing" textLength="225" x="15.5" y="409.7729">[&#1045;&#1083;&#1077;&#1084;&#1077;&#1085;&#1090; - &#1082;&#1086;&#1088;&#1080;&#1089;&#1090;&#1091;&#1074;&#1072;&#1094;&#1100;&#1082;&#1072; &#1079;&#1072;&#1076;&#1072;&#1095;&#1072;]</text><polygon fill="#181818" points="692.5,430.5,702.5,434.5,692.5,438.5,696.5,434.5" style="stroke:#181818;stroke-width:1.0;"/><line style="stroke:#181818;stroke-width:1.0;" x1="153" x2="698.5" y1="434.5" y2="434.5"/><text fill="#000000" font-family="sans-serif" font-size="13" lengthAdjust="spacing" textLength="240" x="160" y="429.4341">&#1054;&#1090;&#1088;&#1080;&#1084;&#1072;&#1090;&#1080; &#1073;&#1110;&#1085; &#1090;&#1080;&#1087;&#1091; CephKeyProvider</text><polygon fill="#181818" points="164,442.5,154,446.5,164,450.5,160,446.5" style="stroke:#181818;stroke-width:1.0;"/><line style="stroke:#181818;stroke-width:1.0;stroke-dasharray:2.0,2.0;" x1="158" x2="708.5" y1="446.5" y2="446.5"/><text fill="#000000" font-family="sans-serif" font-size="13" lengthAdjust="spacing" textLength="168" x="170" y="459.5669">&#1041;&#1110;&#1085; &#1090;&#1080;&#1087;&#1091; CephKeyProvider</text><polygon fill="#181818" points="866,488.7656,876,492.7656,866,496.7656,870,492.7656" style="stroke:#181818;stroke-width:1.0;"/><line style="stroke:#181818;stroke-width:1.0;" x1="153" x2="872" y1="492.7656" y2="492.7656"/><text fill="#000000" font-family="sans-serif" font-size="13" lengthAdjust="spacing" textLength="159" x="160" y="487.6997">&#1047;&#1075;&#1077;&#1085;&#1077;&#1088;&#1091;&#1074;&#1072;&#1090;&#1080; &#1094;&#1077;&#1092; &#1082;&#1083;&#1102;&#1095;</text><polygon fill="#181818" points="164,500.7656,154,504.7656,164,508.7656,160,504.7656" style="stroke:#181818;stroke-width:1.0;"/><line style="stroke:#181818;stroke-width:1.0;stroke-dasharray:2.0,2.0;" x1="158" x2="882" y1="504.7656" y2="504.7656"/><text fill="#000000" font-family="sans-serif" font-size="13" lengthAdjust="spacing" textLength="167" x="170" y="517.8325">&#1047;&#1075;&#1077;&#1085;&#1077;&#1088;&#1086;&#1074;&#1072;&#1085;&#1080;&#1081; &#1094;&#1077;&#1092; &#1082;&#1083;&#1102;&#1095;</text><polygon fill="#181818" points="692.5,554.0313,702.5,558.0313,692.5,562.0313,696.5,558.0313" style="stroke:#181818;stroke-width:1.0;"/><line style="stroke:#181818;stroke-width:1.0;" x1="153" x2="698.5" y1="558.0313" y2="558.0313"/><text fill="#000000" font-family="sans-serif" font-size="13" lengthAdjust="spacing" textLength="276" x="160" y="552.9653">&#1054;&#1090;&#1088;&#1080;&#1084;&#1072;&#1090;&#1080; &#1073;&#1110;&#1085; &#1090;&#1080;&#1087;&#1091; FormDataCephService</text><polygon fill="#181818" points="164,566.0313,154,570.0313,164,574.0313,160,570.0313" style="stroke:#181818;stroke-width:1.0;"/><line style="stroke:#181818;stroke-width:1.0;stroke-dasharray:2.0,2.0;" x1="158" x2="708.5" y1="570.0313" y2="570.0313"/><text fill="#000000" font-family="sans-serif" font-size="13" lengthAdjust="spacing" textLength="204" x="170" y="583.0981">&#1041;&#1110;&#1085; &#1090;&#1080;&#1087;&#1091; FormDataCephService</text><polygon fill="#181818" points="967.5,612.2969,977.5,616.2969,967.5,620.2969,971.5,616.2969" style="stroke:#181818;stroke-width:1.0;"/><line style="stroke:#181818;stroke-width:1.0;" x1="153" x2="973.5" y1="616.2969" y2="616.2969"/><text fill="#000000" font-family="sans-serif" font-size="13" lengthAdjust="spacing" textLength="554" x="160" y="611.231">&#1054;&#1090;&#1088;&#1080;&#1084;&#1072;&#1090;&#1080; &#1094;&#1077;&#1092; &#1076;&#1086;&#1082;&#1091;&#1084;&#1077;&#1085;&#1090;, &#1103;&#1082;&#1080;&#1081; &#1084;&#1110;&#1089;&#1090;&#1080;&#1090;&#1100; &#1076;&#1072;&#1085;&#1110; &#1092;&#1086;&#1088;&#1084;&#1080; &#1079; &#1094;&#1077;&#1092;&#1091; &#1079;&#1072; &#1086;&#1090;&#1088;&#1080;&#1084;&#1072;&#1085;&#1080;&#1084; &#1082;&#1083;&#1102;&#1095;&#1077;&#1084;</text><polygon fill="#181818" points="164,624.2969,154,628.2969,164,632.2969,160,628.2969" style="stroke:#181818;stroke-width:1.0;"/><line style="stroke:#181818;stroke-width:1.0;stroke-dasharray:2.0,2.0;" x1="158" x2="983.5" y1="628.2969" y2="628.2969"/><text fill="#000000" font-family="sans-serif" font-size="13" lengthAdjust="spacing" textLength="278" x="170" y="641.3638">&#1062;&#1077;&#1092; &#1076;&#1086;&#1082;&#1091;&#1084;&#1077;&#1085;&#1090;, &#1103;&#1082;&#1080;&#1081; &#1084;&#1110;&#1089;&#1090;&#1080;&#1090;&#1100; &#1076;&#1072;&#1085;&#1110; &#1092;&#1086;&#1088;&#1084;&#1080;</text><line style="stroke:#181818;stroke-width:1.0;" x1="153" x2="195" y1="674.5625" y2="674.5625"/><line style="stroke:#181818;stroke-width:1.0;" x1="195" x2="195" y1="674.5625" y2="687.5625"/><line style="stroke:#181818;stroke-width:1.0;" x1="154" x2="195" y1="687.5625" y2="687.5625"/><polygon fill="#181818" points="164,683.5625,154,687.5625,164,691.5625,160,687.5625" style="stroke:#181818;stroke-width:1.0;"/><text fill="#000000" font-family="sans-serif" font-size="13" lengthAdjust="spacing" textLength="272" x="160" y="669.4966">&#1054;&#1090;&#1088;&#1080;&#1084;&#1072;&#1090;&#1080; &#1076;&#1072;&#1085;&#1110; &#1092;&#1086;&#1088;&#1084;&#1080; &#1079; &#1094;&#1077;&#1092; &#1076;&#1086;&#1082;&#1091;&#1084;&#1077;&#1085;&#1090;&#1072;</text><polygon fill="#181818" points="480,727.8281,490,731.8281,480,735.8281,484,731.8281" style="stroke:#181818;stroke-width:1.0;"/><line style="stroke:#181818;stroke-width:1.0;" x1="153" x2="486" y1="731.8281" y2="731.8281"/><text fill="#000000" font-family="sans-serif" font-size="13" lengthAdjust="spacing" textLength="316" x="160" y="711.6294">&#1047;&#1073;&#1077;&#1088;&#1077;&#1075;&#1090;&#1080; UserFormDataDto &#1086;&#1073;'&#1108;&#1082;&#1090; &#1091; &#1082;&#1086;&#1085;&#1090;&#1077;&#1082;&#1089;&#1090;&#1110;</text><text fill="#000000" font-family="sans-serif" font-size="13" lengthAdjust="spacing" textLength="166" x="160" y="726.7622">&#1091; &#1103;&#1082;&#1086;&#1089;&#1090;&#1110; transient &#1079;&#1084;&#1110;&#1085;&#1085;&#1086;&#1111;</text><polygon fill="#181818" points="164,739.8281,154,743.8281,164,747.8281,160,743.8281" style="stroke:#181818;stroke-width:1.0;"/><line style="stroke:#181818;stroke-width:1.0;stroke-dasharray:2.0,2.0;" x1="158" x2="496" y1="743.8281" y2="743.8281"/><text fill="#000000" font-family="sans-serif" font-size="13" lengthAdjust="spacing" textLength="77" x="170" y="756.895">&#1047;&#1073;&#1077;&#1088;&#1077;&#1078;&#1077;&#1085;&#1086;</text><polygon fill="#181818" points="11,768.9609,1,772.9609,11,776.9609,7,772.9609" style="stroke:#181818;stroke-width:1.0;"/><line style="stroke:#181818;stroke-width:1.0;stroke-dasharray:2.0,2.0;" x1="5" x2="147" y1="772.9609" y2="772.9609"/><text fill="#000000" font-family="sans-serif" font-size="13" lengthAdjust="spacing" textLength="117" x="17" y="786.0278">UserFormDataDto</text><!--SRC=[hLPBRnCn4BxtLunw0IGYbTUbgYgL5Yu82QdYXbIPn2gh9hihhvCs4eSsgSgb0e6WlN7al7q4qZQFls3_8sQysyJPzQOfz9387i_p-yRZZROyFsI2rK3mA0pyYB_cKSGs-NDU3RPNX0YsGOewdvi3G3tfbRsG-HBce_hxcXT5Nk3VNs9bwJKysTpmAXzvW_iI5yiFve55C5Q3G5IuW4SBMK-hh5RtAmnUxF1oNPBcQk1BlYEDWt9wcbW_pbclXyBpDs4b3AjUcUNCe-GuiNwIZyt33wzuyuq86Xvg915Hjh75cnjXAasjdpgjHoQfrhC5WggqR5MEUuCGazoMejX21oskIrq4zLEtzAxggfwATKjrGH_fFTNNRVrPVqBn1RoDk7WPYDeQasnD1g06wkIU_gukTSiEbxgaMAmgqUz8A-_XZ-ghM5seSzN1rG1D9X9SAfNi38ydj2abAuMiS-EB75Z-5dDAgCMh4P-UPLzrRfcgNwzMZKQ5kt2v5Gj9HDheVTnTceE1tWMzXujOxz9MdQBe6FG-dQ1nrqHni9A8Yp4-A0gNMivMq0JcwXlMO-2ZHaggmZyr18nqXRzU6Z46TO8XIRMZzqfgYAKCz05jTDj4CGtrmpQ2KXQ7U8n2d2_t1hGfs3vWrLVKziWwg5D3mP1ycrNV88rPzd3RJxR_YlQlYN3549CuwTDiyMXBjNO91DscylM1FYJQACKOyoNKtK2aWyg1W-6XdzAasv2PMTbo4qVkQiT1lixYqoe-zUhcC3SmpNmuCvUpWxsGGE7WD4TLrbC1QJS4J5el7Klka3Qlpg3ShpWlqymqNKyjWdQTYuPNvdT2LR7V0hhoP4sxRUS8tYKobdRrGz1V43epttlq2fbXrDA7f8aGwoDhpj4LJVnWdjJn-2QCmnW-UYCYwEQu-2-ctBga_vEbkmDkdfmvmgS1a4iHh_tqn-POdPZUxQWputxA2my4ByuQuxU34fetH_3EHxa1Of1Af61-vE47sHsDo76ElwsNj_WXck7HpxUk_Ts4j_0l]--></g></svg>