<?xml version="1.0" encoding="us-ascii" standalone="no"?><svg xmlns="http://www.w3.org/2000/svg" xmlns:xlink="http://www.w3.org/1999/xlink" contentStyleType="text/css" height="325px" preserveAspectRatio="none" style="width:803px;height:325px;background:#FFFFFF;" version="1.1" viewBox="0 0 803 325" width="803px" zoomAndPan="magnify"><defs/><g><!--cluster el--><g id="cluster_el"><path d="M8.5,6 L23.5,6 A3.75,3.75 0 0 1 26,8.5 L33,28.2969 L793.5,28.2969 A2.5,2.5 0 0 1 796,30.7969 L796,315.8 A2.5,2.5 0 0 1 793.5,318.3 L8.5,318.3 A2.5,2.5 0 0 1 6,315.8 L6,8.5 A2.5,2.5 0 0 1 8.5,6 " fill="none" style="stroke:#000000;stroke-width:1.5;"/><line style="stroke:#000000;stroke-width:1.5;" x1="6" x2="33" y1="28.2969" y2="28.2969"/><text fill="#000000" font-family="sans-serif" font-size="14" font-weight="bold" lengthAdjust="spacing" textLength="14" x="10" y="20.9951">el</text></g><!--cluster juel--><g id="cluster_juel"><path d="M32.5,49 L61.5,49 A3.75,3.75 0 0 1 64,51.5 L71,71.2969 L497.5,71.2969 A2.5,2.5 0 0 1 500,73.7969 L500,291.8 A2.5,2.5 0 0 1 497.5,294.3 L32.5,294.3 A2.5,2.5 0 0 1 30,291.8 L30,51.5 A2.5,2.5 0 0 1 32.5,49 " fill="none" style="stroke:#000000;stroke-width:1.5;"/><line style="stroke:#000000;stroke-width:1.5;" x1="30" x2="71" y1="71.2969" y2="71.2969"/><text fill="#000000" font-family="sans-serif" font-size="14" font-weight="bold" lengthAdjust="spacing" textLength="28" x="34" y="63.9951">juel</text></g><!--cluster dto--><g id="cluster_dto"><path d="M552.5,179 L579.5,179 A3.75,3.75 0 0 1 582,181.5 L589,201.2969 L769.5,201.2969 A2.5,2.5 0 0 1 772,203.7969 L772,291.8 A2.5,2.5 0 0 1 769.5,294.3 L552.5,294.3 A2.5,2.5 0 0 1 550,291.8 L550,181.5 A2.5,2.5 0 0 1 552.5,179 " fill="none" style="stroke:#000000;stroke-width:1.5;"/><line style="stroke:#000000;stroke-width:1.5;" x1="550" x2="589" y1="201.2969" y2="201.2969"/><text fill="#000000" font-family="sans-serif" font-size="14" font-weight="bold" lengthAdjust="spacing" textLength="26" x="554" y="193.9951">dto</text></g><!--class AbstractApplicationContextAwareJuelFunction--><g id="elem_AbstractApplicationContextAwareJuelFunction"><rect codeLine="3" fill="#F1F1F1" height="48" id="AbstractApplicationContextAwareJuelFunction" rx="2.5" ry="2.5" style="stroke:#181818;stroke-width:0.5;" width="344" x="117" y="84"/><ellipse cx="132" cy="100" fill="#A9DCDF" rx="11" ry="11" style="stroke:#181818;stroke-width:1.0;"/><path d="M132.1094,95.3438 L130.9531,100.4219 L133.2813,100.4219 L132.1094,95.3438 Z M130.625,93.1094 L133.6094,93.1094 L136.9688,105.5 L134.5156,105.5 L133.75,102.4375 L130.4688,102.4375 L129.7188,105.5 L127.2813,105.5 L130.625,93.1094 Z " fill="#000000"/><text fill="#000000" font-family="sans-serif" font-size="14" font-style="italic" lengthAdjust="spacing" textLength="312" x="146" y="104.8467">AbstractApplicationContextAwareJuelFunction</text><line style="stroke:#181818;stroke-width:0.5;" x1="118" x2="460" y1="116" y2="116"/><line style="stroke:#181818;stroke-width:0.5;" x1="118" x2="460" y1="124" y2="124"/></g><!--class SubmissionJuelFunction--><g id="elem_SubmissionJuelFunction"><rect codeLine="4" fill="#ADD8E6" height="64.2969" id="SubmissionJuelFunction" rx="2.5" ry="2.5" style="stroke:#008000;stroke-width:0.5;" width="439" x="45.5" y="214"/><ellipse cx="178.75" cy="230" fill="#ADD1B2" rx="11" ry="11" style="stroke:#181818;stroke-width:1.0;"/><path d="M181.7188,235.6406 Q181.1406,235.9375 180.5,236.0781 Q179.8594,236.2344 179.1563,236.2344 Q176.6563,236.2344 175.3281,234.5938 Q174.0156,232.9375 174.0156,229.8125 Q174.0156,226.6875 175.3281,225.0313 Q176.6563,223.375 179.1563,223.375 Q179.8594,223.375 180.5,223.5313 Q181.1563,223.6875 181.7188,223.9844 L181.7188,226.7031 Q181.0938,226.125 180.5,225.8594 Q179.9063,225.5781 179.2813,225.5781 Q177.9375,225.5781 177.25,226.6563 Q176.5625,227.7188 176.5625,229.8125 Q176.5625,231.9063 177.25,232.9844 Q177.9375,234.0469 179.2813,234.0469 Q179.9063,234.0469 180.5,233.7813 Q181.0938,233.5 181.7188,232.9219 L181.7188,235.6406 Z " fill="#000000"/><text fill="#000000" font-family="sans-serif" font-size="14" lengthAdjust="spacing" textLength="164" x="199.25" y="234.8467">SubmissionJuelFunction</text><line style="stroke:#008000;stroke-width:0.5;" x1="46.5" x2="483.5" y1="246" y2="246"/><line style="stroke:#008000;stroke-width:0.5;" x1="46.5" x2="483.5" y1="254" y2="254"/><ellipse cx="56.5" cy="267.6484" fill="#84BE84" rx="3" ry="3" style="stroke:#038048;stroke-width:1.0;"/><text fill="#000000" font-family="sans-serif" font-size="14" lengthAdjust="spacing" text-decoration="underline" textLength="413" x="65.5" y="270.9951">UserFormDataDto submission(String &lt;activity_id|event_id&gt;)</text></g><!--class UserFormDataDto--><g id="elem_UserFormDataDto"><rect codeLine="9" fill="#ADD8E6" height="64.2969" id="UserFormDataDto" rx="2.5" ry="2.5" style="stroke:#008000;stroke-width:0.5;" width="189" x="566.5" y="214"/><ellipse cx="596.35" cy="230" fill="#ADD1B2" rx="11" ry="11" style="stroke:#181818;stroke-width:1.0;"/><path d="M599.3188,235.6406 Q598.7406,235.9375 598.1,236.0781 Q597.4594,236.2344 596.7563,236.2344 Q594.2563,236.2344 592.9281,234.5938 Q591.6156,232.9375 591.6156,229.8125 Q591.6156,226.6875 592.9281,225.0313 Q594.2563,223.375 596.7563,223.375 Q597.4594,223.375 598.1,223.5313 Q598.7563,223.6875 599.3188,223.9844 L599.3188,226.7031 Q598.6938,226.125 598.1,225.8594 Q597.5063,225.5781 596.8813,225.5781 Q595.5375,225.5781 594.85,226.6563 Q594.1625,227.7188 594.1625,229.8125 Q594.1625,231.9063 594.85,232.9844 Q595.5375,234.0469 596.8813,234.0469 Q597.5063,234.0469 598.1,233.7813 Q598.6938,233.5 599.3188,232.9219 L599.3188,235.6406 Z " fill="#000000"/><text fill="#000000" font-family="sans-serif" font-size="14" lengthAdjust="spacing" textLength="124" x="613.65" y="234.8467">UserFormDataDto</text><line style="stroke:#008000;stroke-width:0.5;" x1="567.5" x2="754.5" y1="246" y2="246"/><rect fill="none" height="6" style="stroke:#C82930;stroke-width:1.0;" width="6" x="574.5" y="256.6484"/><text fill="#000000" font-family="sans-serif" font-size="14" lengthAdjust="spacing" textLength="163" x="586.5" y="262.9951">SpinJsonNode formData</text><line style="stroke:#008000;stroke-width:0.5;" x1="567.5" x2="754.5" y1="270.2969" y2="270.2969"/></g><!--reverse link AbstractApplicationContextAwareJuelFunction to SubmissionJuelFunction--><g id="link_AbstractApplicationContextAwareJuelFunction_SubmissionJuelFunction"><path d="M281.25,152.98 C277.76,172.75 273.73,195.63 270.55,213.65 " fill="none" id="AbstractApplicationContextAwareJuelFunction-backto-SubmissionJuelFunction" style="stroke:#181818;stroke-width:1.0;"/><polygon fill="none" points="274.51,151.89,284.87,133.41,288.3,154.32,274.51,151.89" style="stroke:#181818;stroke-width:1.0;"/></g><!--link AbstractApplicationContextAwareJuelFunction to UserFormDataDto--><!--link SubmissionJuelFunction to UserFormDataDto--><g id="link_SubmissionJuelFunction_UserFormDataDto"><path codeLine="14" d="M484.71,246.15 C511,246.15 536.78,246.15 560.15,246.15 " fill="none" id="SubmissionJuelFunction-to-UserFormDataDto" style="stroke:#181818;stroke-width:1.0;stroke-dasharray:7.0,7.0;"/><polygon fill="#181818" points="565.04,246.15,556.04,242.15,560.04,246.15,556.04,250.15,565.04,246.15" style="stroke:#181818;stroke-width:1.0;"/><text fill="#000000" font-family="sans-serif" font-size="13" lengthAdjust="spacing" textLength="46" x="502.5" y="239.2169">returns</text></g><!--SRC=[bP7FJiCm3CRlVGfBN428Fa279bLCE-p0fUA44CeVqnao9qhS0IfzTxAjGsC8QJj4ih_OFtzEWZ9lgaL01tq14CRqjHi50AMJH6K4Z5CfGJscTGYEZ1BoVETPy4FgTnLnaHld7PkDlctVTJMTNb5AMJmiW0kTvrMEsgLer-744MFLHaIUR8YLTlaUSeHipnezUWUuXZv9BZK3F2ICSnzNCoLg9XxIZwVBHY9n2xSPJckIpsUoNxX6bXnChxQeeTYT_GlPJEWFDZocdxRQtkODD85uaJpVUulmCe9-JJvd_R9yN9Aro4_JOsUPzCzlb7zgeOA8qaLEnV0D]--></g></svg>