<?xml version="1.0" encoding="us-ascii" standalone="no"?><svg xmlns="http://www.w3.org/2000/svg" xmlns:xlink="http://www.w3.org/1999/xlink" contentStyleType="text/css" height="426px" preserveAspectRatio="none" style="width:1702px;height:426px;background:#FFFFFF;" version="1.1" viewBox="0 0 1702 426" width="1702px" zoomAndPan="magnify"><defs/><g><!--class SpringProcessEngineConfiguration--><g id="elem_SpringProcessEngineConfiguration"><rect codeLine="1" fill="#F1F1F1" height="64.2969" id="SpringProcessEngineConfiguration" rx="2.5" ry="2.5" style="stroke:#181818;stroke-width:0.5;" width="272" x="287" y="15.15"/><ellipse cx="302" cy="31.15" fill="#ADD1B2" rx="11" ry="11" style="stroke:#181818;stroke-width:1.0;"/><path d="M304.9688,36.7906 Q304.3906,37.0875 303.75,37.2281 Q303.1094,37.3844 302.4063,37.3844 Q299.9063,37.3844 298.5781,35.7437 Q297.2656,34.0875 297.2656,30.9625 Q297.2656,27.8375 298.5781,26.1812 Q299.9063,24.525 302.4063,24.525 Q303.1094,24.525 303.75,24.6812 Q304.4063,24.8375 304.9688,25.1344 L304.9688,27.8531 Q304.3438,27.275 303.75,27.0094 Q303.1563,26.7281 302.5313,26.7281 Q301.1875,26.7281 300.5,27.8062 Q299.8125,28.8687 299.8125,30.9625 Q299.8125,33.0562 300.5,34.1344 Q301.1875,35.1969 302.5313,35.1969 Q303.1563,35.1969 303.75,34.9312 Q304.3438,34.65 304.9688,34.0719 L304.9688,36.7906 Z " fill="#000000"/><text fill="#000000" font-family="sans-serif" font-size="14" lengthAdjust="spacing" textLength="240" x="316" y="35.9967">SpringProcessEngineConfiguration</text><line style="stroke:#181818;stroke-width:0.5;" x1="288" x2="558" y1="47.15" y2="47.15"/><text fill="#000000" font-family="sans-serif" font-size="14" lengthAdjust="spacing" textLength="166" x="293" y="64.1451">TaskService taskService</text><line style="stroke:#181818;stroke-width:0.5;" x1="288" x2="558" y1="71.4469" y2="71.4469"/></g><!--class LowcodeSpringProcessEngineConfiguration--><g id="elem_LowcodeSpringProcessEngineConfiguration"><rect codeLine="5" fill="#ADD8E6" height="48" id="LowcodeSpringProcessEngineConfiguration" rx="2.5" ry="2.5" style="stroke:#008000;stroke-width:0.5;" width="334" x="197" y="148.6"/><ellipse cx="212" cy="164.6" fill="#ADD1B2" rx="11" ry="11" style="stroke:#181818;stroke-width:1.0;"/><path d="M214.9688,170.2406 Q214.3906,170.5375 213.75,170.6781 Q213.1094,170.8344 212.4063,170.8344 Q209.9063,170.8344 208.5781,169.1938 Q207.2656,167.5375 207.2656,164.4125 Q207.2656,161.2875 208.5781,159.6313 Q209.9063,157.975 212.4063,157.975 Q213.1094,157.975 213.75,158.1313 Q214.4063,158.2875 214.9688,158.5844 L214.9688,161.3031 Q214.3438,160.725 213.75,160.4594 Q213.1563,160.1781 212.5313,160.1781 Q211.1875,160.1781 210.5,161.2563 Q209.8125,162.3188 209.8125,164.4125 Q209.8125,166.5063 210.5,167.5844 Q211.1875,168.6469 212.5313,168.6469 Q213.1563,168.6469 213.75,168.3813 Q214.3438,168.1 214.9688,167.5219 L214.9688,170.2406 Z " fill="#000000"/><text fill="#000000" font-family="sans-serif" font-size="14" lengthAdjust="spacing" textLength="302" x="226" y="169.4467">LowcodeSpringProcessEngineConfiguration</text><line style="stroke:#008000;stroke-width:0.5;" x1="198" x2="530" y1="180.6" y2="180.6"/><line style="stroke:#008000;stroke-width:0.5;" x1="198" x2="530" y1="188.6" y2="188.6"/></g><!--class TaskService--><g id="elem_TaskService"><rect codeLine="7" fill="#F1F1F1" height="80.5938" id="TaskService" rx="2.5" ry="2.5" style="stroke:#181818;stroke-width:0.5;" width="270" x="604" y="7"/><ellipse cx="693.25" cy="23" fill="#B4A7E5" rx="11" ry="11" style="stroke:#181818;stroke-width:1.0;"/><path d="M689.1719,18.7656 L689.1719,16.6094 L696.5625,16.6094 L696.5625,18.7656 L694.0938,18.7656 L694.0938,26.8438 L696.5625,26.8438 L696.5625,29 L689.1719,29 L689.1719,26.8438 L691.6406,26.8438 L691.6406,18.7656 L689.1719,18.7656 Z " fill="#000000"/><text fill="#000000" font-family="sans-serif" font-size="14" font-style="italic" lengthAdjust="spacing" textLength="83" x="713.75" y="27.8467">TaskService</text><line style="stroke:#181818;stroke-width:0.5;" x1="605" x2="873" y1="39" y2="39"/><line style="stroke:#181818;stroke-width:0.5;" x1="605" x2="873" y1="47" y2="47"/><text fill="#000000" font-family="sans-serif" font-size="14" lengthAdjust="spacing" textLength="107" x="610" y="63.9951">void complete()</text><text fill="#000000" font-family="sans-serif" font-size="14" lengthAdjust="spacing" textLength="258" x="610" y="80.292">void completeWithVariablesInReturn()</text></g><!--class TaskServiceImpl--><g id="elem_TaskServiceImpl"><rect codeLine="12" fill="#F1F1F1" height="48" id="TaskServiceImpl" rx="2.5" ry="2.5" style="stroke:#181818;stroke-width:0.5;" width="143" x="674.5" y="148.6"/><ellipse cx="689.5" cy="164.6" fill="#ADD1B2" rx="11" ry="11" style="stroke:#181818;stroke-width:1.0;"/><path d="M692.4688,170.2406 Q691.8906,170.5375 691.25,170.6781 Q690.6094,170.8344 689.9063,170.8344 Q687.4063,170.8344 686.0781,169.1938 Q684.7656,167.5375 684.7656,164.4125 Q684.7656,161.2875 686.0781,159.6313 Q687.4063,157.975 689.9063,157.975 Q690.6094,157.975 691.25,158.1313 Q691.9063,158.2875 692.4688,158.5844 L692.4688,161.3031 Q691.8438,160.725 691.25,160.4594 Q690.6563,160.1781 690.0313,160.1781 Q688.6875,160.1781 688,161.2563 Q687.3125,162.3188 687.3125,164.4125 Q687.3125,166.5063 688,167.5844 Q688.6875,168.6469 690.0313,168.6469 Q690.6563,168.6469 691.25,168.3813 Q691.8438,168.1 692.4688,167.5219 L692.4688,170.2406 Z " fill="#000000"/><text fill="#000000" font-family="sans-serif" font-size="14" lengthAdjust="spacing" textLength="111" x="703.5" y="169.4467">TaskServiceImpl</text><line style="stroke:#181818;stroke-width:0.5;" x1="675.5" x2="816.5" y1="180.6" y2="180.6"/><line style="stroke:#181818;stroke-width:0.5;" x1="675.5" x2="816.5" y1="188.6" y2="188.6"/></g><!--class SynchronizedTaskServiceImpl--><g id="elem_SynchronizedTaskServiceImpl"><rect codeLine="14" fill="#ADD8E6" height="96.8906" id="SynchronizedTaskServiceImpl" rx="2.5" ry="2.5" style="stroke:#008000;stroke-width:0.5;" width="335" x="581.5" y="298.04"/><ellipse cx="642.25" cy="314.04" fill="#ADD1B2" rx="11" ry="11" style="stroke:#181818;stroke-width:1.0;"/><path d="M645.2188,319.6806 Q644.6406,319.9775 644,320.1181 Q643.3594,320.2744 642.6563,320.2744 Q640.1563,320.2744 638.8281,318.6337 Q637.5156,316.9775 637.5156,313.8525 Q637.5156,310.7275 638.8281,309.0712 Q640.1563,307.415 642.6563,307.415 Q643.3594,307.415 644,307.5712 Q644.6563,307.7275 645.2188,308.0244 L645.2188,310.7431 Q644.5938,310.165 644,309.8994 Q643.4063,309.6181 642.7813,309.6181 Q641.4375,309.6181 640.75,310.6962 Q640.0625,311.7587 640.0625,313.8525 Q640.0625,315.9462 640.75,317.0244 Q641.4375,318.0869 642.7813,318.0869 Q643.4063,318.0869 644,317.8212 Q644.5938,317.54 645.2188,316.9619 L645.2188,319.6806 Z " fill="#000000"/><text fill="#000000" font-family="sans-serif" font-size="14" lengthAdjust="spacing" textLength="205" x="662.75" y="318.8867">SynchronizedTaskServiceImpl</text><line style="stroke:#008000;stroke-width:0.5;" x1="582.5" x2="915.5" y1="330.04" y2="330.04"/><text fill="#000000" font-family="sans-serif" font-size="14" lengthAdjust="spacing" textLength="323" x="587.5" y="347.0351">SynchronizationService synchronizationService</text><line style="stroke:#008000;stroke-width:0.5;" x1="582.5" x2="915.5" y1="354.3369" y2="354.3369"/><text fill="#000000" font-family="sans-serif" font-size="14" lengthAdjust="spacing" textLength="107" x="587.5" y="371.332">void complete()</text><text fill="#000000" font-family="sans-serif" font-size="14" lengthAdjust="spacing" textLength="258" x="587.5" y="387.6289">void completeWithVariablesInReturn()</text></g><!--class SynchronizationService--><g id="elem_SynchronizationService"><rect codeLine="20" fill="#ADD8E6" height="145.7813" id="SynchronizationService" rx="2.5" ry="2.5" style="stroke:#008000;stroke-width:0.5;" width="744" x="951" y="273.6"/><ellipse cx="1238.75" cy="289.6" fill="#ADD1B2" rx="11" ry="11" style="stroke:#181818;stroke-width:1.0;"/><path d="M1241.7188,295.2406 Q1241.1406,295.5375 1240.5,295.6781 Q1239.8594,295.8344 1239.1563,295.8344 Q1236.6563,295.8344 1235.3281,294.1938 Q1234.0156,292.5375 1234.0156,289.4125 Q1234.0156,286.2875 1235.3281,284.6313 Q1236.6563,282.975 1239.1563,282.975 Q1239.8594,282.975 1240.5,283.1313 Q1241.1563,283.2875 1241.7188,283.5844 L1241.7188,286.3031 Q1241.0938,285.725 1240.5,285.4594 Q1239.9063,285.1781 1239.2813,285.1781 Q1237.9375,285.1781 1237.25,286.2563 Q1236.5625,287.3188 1236.5625,289.4125 Q1236.5625,291.5063 1237.25,292.5844 Q1237.9375,293.6469 1239.2813,293.6469 Q1239.9063,293.6469 1240.5,293.3813 Q1241.0938,293.1 1241.7188,292.5219 L1241.7188,295.2406 Z " fill="#000000"/><text fill="#000000" font-family="sans-serif" font-size="14" lengthAdjust="spacing" textLength="160" x="1259.25" y="294.4467">SynchronizationService</text><line style="stroke:#008000;stroke-width:0.5;" x1="952" x2="1694" y1="305.6" y2="305.6"/><text fill="#000000" font-family="sans-serif" font-size="14" lengthAdjust="spacing" textLength="298" x="957" y="322.5951">Cache&lt;Object, ReentrantLock&gt; lockCache</text><line style="stroke:#008000;stroke-width:0.5;" x1="952" x2="1694" y1="329.8969" y2="329.8969"/><text fill="#000000" font-family="sans-serif" font-size="14" lengthAdjust="spacing" textLength="243" x="957" y="346.892">ReentrantLock getLock(Object key)</text><text fill="#000000" font-family="sans-serif" font-size="14" lengthAdjust="spacing" textLength="310" x="957" y="363.1889">void execute(Object key, Runnable runnable)</text><text fill="#000000" font-family="sans-serif" font-size="14" lengthAdjust="spacing" textLength="312" x="957" y="379.4857">R evaluate(Object key, Supplier&lt;R&gt; supplier)</text><text fill="#000000" font-family="sans-serif" font-size="14" lengthAdjust="spacing" textLength="730" x="957" y="395.7826">void executeOrThrow(Object key, Runnable runnable, Supplier&lt;T extends Throwable&gt; exceptionSupplier)</text><text fill="#000000" font-family="sans-serif" font-size="14" lengthAdjust="spacing" textLength="732" x="957" y="412.0795">R evaluateOrThrow(Object key, Supplier&lt;R&gt; supplier, Supplier&lt;T extends Throwable&gt; exceptionSupplier)</text></g><!--class CamundaConfiguration--><g id="elem_CamundaConfiguration"><rect codeLine="30" fill="#ADD8E6" height="64.2969" id="CamundaConfiguration" rx="2.5" ry="2.5" style="stroke:#008000;stroke-width:0.5;" width="246" x="7" y="314.34"/><ellipse cx="47.2" cy="330.34" fill="#ADD1B2" rx="11" ry="11" style="stroke:#181818;stroke-width:1.0;"/><path d="M50.1688,335.9806 Q49.5906,336.2775 48.95,336.4181 Q48.3094,336.5744 47.6063,336.5744 Q45.1063,336.5744 43.7781,334.9338 Q42.4656,333.2775 42.4656,330.1525 Q42.4656,327.0275 43.7781,325.3713 Q45.1063,323.715 47.6063,323.715 Q48.3094,323.715 48.95,323.8713 Q49.6063,324.0275 50.1688,324.3244 L50.1688,327.0431 Q49.5438,326.465 48.95,326.1994 Q48.3563,325.9181 47.7313,325.9181 Q46.3875,325.9181 45.7,326.9963 Q45.0125,328.0588 45.0125,330.1525 Q45.0125,332.2463 45.7,333.3244 Q46.3875,334.3869 47.7313,334.3869 Q48.3563,334.3869 48.95,334.1213 Q49.5438,333.84 50.1688,333.2619 L50.1688,335.9806 Z " fill="#000000"/><text fill="#000000" font-family="sans-serif" font-size="14" lengthAdjust="spacing" textLength="158" x="66.8" y="335.1867">CamundaConfiguration</text><line style="stroke:#008000;stroke-width:0.5;" x1="8" x2="252" y1="346.34" y2="346.34"/><line style="stroke:#008000;stroke-width:0.5;" x1="8" x2="252" y1="354.34" y2="354.34"/><text fill="#000000" font-family="sans-serif" font-size="14" lengthAdjust="spacing" textLength="234" x="13" y="371.3351">processEngineConfigurationImpl()</text></g><!--reverse link SpringProcessEngineConfiguration to LowcodeSpringProcessEngineConfiguration--><g id="link_SpringProcessEngineConfiguration_LowcodeSpringProcessEngineConfiguration"><path d="M399.01,98.44 C390.73,115.74 381.85,134.3 375.1,148.4 " fill="none" id="SpringProcessEngineConfiguration-backto-LowcodeSpringProcessEngineConfiguration" style="stroke:#181818;stroke-width:1.0;"/><polygon fill="none" points="393.01,95.75,407.96,80.73,405.64,101.8,393.01,95.75" style="stroke:#181818;stroke-width:1.0;"/></g><!--reverse link TaskService to TaskServiceImpl--><g id="link_TaskService_TaskServiceImpl"><path d="M742.44,108.81 C743.23,122.81 744.03,136.89 744.67,148.16 " fill="none" id="TaskService-backto-TaskServiceImpl" style="stroke:#181818;stroke-width:1.0;stroke-dasharray:7.0,7.0;"/><polygon fill="none" points="735.4,109.36,741.25,88.99,749.38,108.56,735.4,109.36" style="stroke:#181818;stroke-width:1.0;"/></g><!--reverse link TaskServiceImpl to SynchronizedTaskServiceImpl--><g id="link_TaskServiceImpl_SynchronizedTaskServiceImpl"><path d="M746.77,217.65 C747.2,242.15 747.73,272.65 748.17,297.72 " fill="none" id="TaskServiceImpl-backto-SynchronizedTaskServiceImpl" style="stroke:#181818;stroke-width:1.0;"/><polygon fill="none" points="739.75,217.9,746.4,197.78,753.75,217.66,739.75,217.9" style="stroke:#181818;stroke-width:1.0;"/></g><!--reverse link SpringProcessEngineConfiguration to TaskService--><g id="link_SpringProcessEngineConfiguration_TaskService"><path codeLine="34" d="M573.21,47.3 C583.34,47.3 593.47,47.3 603.6,47.3 " fill="none" id="SpringProcessEngineConfiguration-backto-TaskService" style="stroke:#181818;stroke-width:1.0;"/><polygon fill="none" points="560.4,47.3,566.4,51.3,572.4,47.3,566.4,43.3,560.4,47.3" style="stroke:#181818;stroke-width:1.0;"/></g><!--reverse link LowcodeSpringProcessEngineConfiguration to CamundaConfiguration--><g id="link_LowcodeSpringProcessEngineConfiguration_CamundaConfiguration"><path codeLine="35" d="M327.73,200.24 C285.95,230.93 217.36,281.31 172.95,313.94 " fill="none" id="LowcodeSpringProcessEngineConfiguration-backto-CamundaConfiguration" style="stroke:#181818;stroke-width:1.0;"/><polygon fill="#181818" points="331.44,196.78,321.8179,198.8811,327.4093,199.7387,326.5518,205.3301,331.44,196.78" style="stroke:#181818;stroke-width:1.0;"/><text fill="#000000" font-family="sans-serif" font-size="13" lengthAdjust="spacing" textLength="48" x="290" y="239.6669">creates</text></g><!--reverse link CamundaConfiguration to SynchronizedTaskServiceImpl--><g id="link_CamundaConfiguration_SynchronizedTaskServiceImpl"><path codeLine="36" d="M267.14,346.49 C359.82,346.49 482.76,346.49 581.27,346.49 " fill="none" id="CamundaConfiguration-backto-SynchronizedTaskServiceImpl" style="stroke:#181818;stroke-width:1.0;"/><polygon fill="none" points="254.41,346.49,260.41,350.49,266.41,346.49,260.41,342.49,254.41,346.49" style="stroke:#181818;stroke-width:1.0;"/><text fill="#000000" font-family="sans-serif" font-size="13" lengthAdjust="spacing" textLength="292" x="271.25" y="339.5569">injects into SpringProcessEngineConfiguration</text></g><!--reverse link SynchronizedTaskServiceImpl to SynchronizationService--><g id="link_SynchronizedTaskServiceImpl_SynchronizationService"><path codeLine="37" d="M930.84,346.49 C937.43,346.49 944.01,346.49 950.59,346.49 " fill="none" id="SynchronizedTaskServiceImpl-backto-SynchronizationService" style="stroke:#181818;stroke-width:1.0;"/><polygon fill="none" points="917.88,346.49,923.88,350.49,929.88,346.49,923.88,342.49,917.88,346.49" style="stroke:#181818;stroke-width:1.0;"/></g><!--SRC=[hLJ9Ri8m4BtdAqRgXKhb1mBYWdf0gaG5g3qxpX1Sp3ZomjAg_ruxB0bHI5hKYpsQvSrxjiTSCcDWdcj1sQjM78rvfamGZXKjHUOqiq8HV4K02sRMSzHRmH5iQKVVKSGBb1Uruoh5Jh27XF5rB4MsiebqE90-8yuq8WqixcsSI1y7Ro6btToYI915lMIULfLYeBnL8WMkDhb4Yxt7kkTTsDKRqu8b4is4PcYT9fzsKLJ1c_WI4A5kWsIlGkVi-O7uIYiIdvZMA_-ckLuTj9JeXUopJDFe_WVjD_gr22beZXbVuN2QV22tJp3pVgiPsHV5roEGVYqI8fzv5OCCYxrth8Gr7YwKSO_SUGrbo0Cxea0TzCa8sJF0BPEErNBdBi-bG3sSZS2Sx3huL2-ys5rxZmhKehohK1UY8-_Yc1U7LUbIachgqSJjZZQNMnkpZQEKtJDmuVRocsCMtk7nUNJEj-fVJSTlluLXlzzCFmQkqP-VYHh3lbtRvCKWA9otyRjLtTz96zPLg-fO_000]--></g></svg>