<?xml version="1.0" encoding="us-ascii" standalone="no"?><svg xmlns="http://www.w3.org/2000/svg" xmlns:xlink="http://www.w3.org/1999/xlink" contentStyleType="text/css" height="202px" preserveAspectRatio="none" style="width:1133px;height:202px;background:#FFFFFF;" version="1.1" viewBox="0 0 1133 202" width="1133px" zoomAndPan="magnify"><defs/><g><!--class AbstractProcessEnginePlugin--><g id="elem_AbstractProcessEnginePlugin"><rect codeLine="1" fill="#F1F1F1" height="64.2969" id="AbstractProcessEnginePlugin" rx="2.5" ry="2.5" style="stroke:#181818;stroke-width:0.5;" width="235" x="95" y="7"/><ellipse cx="110" cy="23" fill="#ADD1B2" rx="11" ry="11" style="stroke:#181818;stroke-width:1.0;"/><path d="M112.9688,28.6406 Q112.3906,28.9375 111.75,29.0781 Q111.1094,29.2344 110.4063,29.2344 Q107.9063,29.2344 106.5781,27.5938 Q105.2656,25.9375 105.2656,22.8125 Q105.2656,19.6875 106.5781,18.0313 Q107.9063,16.375 110.4063,16.375 Q111.1094,16.375 111.75,16.5313 Q112.4063,16.6875 112.9688,16.9844 L112.9688,19.7031 Q112.3438,19.125 111.75,18.8594 Q111.1563,18.5781 110.5313,18.5781 Q109.1875,18.5781 108.5,19.6563 Q107.8125,20.7188 107.8125,22.8125 Q107.8125,24.9063 108.5,25.9844 Q109.1875,27.0469 110.5313,27.0469 Q111.1563,27.0469 111.75,26.7813 Q112.3438,26.5 112.9688,25.9219 L112.9688,28.6406 Z " fill="#000000"/><text fill="#000000" font-family="sans-serif" font-size="14" lengthAdjust="spacing" textLength="203" x="124" y="27.8467">AbstractProcessEnginePlugin</text><line style="stroke:#181818;stroke-width:0.5;" x1="96" x2="329" y1="39" y2="39"/><line style="stroke:#181818;stroke-width:0.5;" x1="96" x2="329" y1="47" y2="47"/><text fill="#000000" font-family="sans-serif" font-size="14" lengthAdjust="spacing" textLength="53" x="101" y="63.9951">preInit()</text></g><!--class CamundaEngineSystemVariablesSupportListenerPlugin--><g id="elem_CamundaEngineSystemVariablesSupportListenerPlugin"><rect codeLine="5" fill="#ADD8E6" height="64.2969" id="CamundaEngineSystemVariablesSupportListenerPlugin" rx="2.5" ry="2.5" style="stroke:#008000;stroke-width:0.5;" width="411" x="7" y="131.29"/><ellipse cx="22" cy="147.29" fill="#ADD1B2" rx="11" ry="11" style="stroke:#181818;stroke-width:1.0;"/><path d="M24.9688,152.9306 Q24.3906,153.2275 23.75,153.3681 Q23.1094,153.5244 22.4063,153.5244 Q19.9063,153.5244 18.5781,151.8838 Q17.2656,150.2275 17.2656,147.1025 Q17.2656,143.9775 18.5781,142.3213 Q19.9063,140.665 22.4063,140.665 Q23.1094,140.665 23.75,140.8213 Q24.4063,140.9775 24.9688,141.2744 L24.9688,143.9931 Q24.3438,143.415 23.75,143.1494 Q23.1563,142.8681 22.5313,142.8681 Q21.1875,142.8681 20.5,143.9463 Q19.8125,145.0088 19.8125,147.1025 Q19.8125,149.1963 20.5,150.2744 Q21.1875,151.3369 22.5313,151.3369 Q23.1563,151.3369 23.75,151.0713 Q24.3438,150.79 24.9688,150.2119 L24.9688,152.9306 Z " fill="#000000"/><text fill="#000000" font-family="sans-serif" font-size="14" lengthAdjust="spacing" textLength="379" x="36" y="152.1367">CamundaEngineSystemVariablesSupportListenerPlugin</text><line style="stroke:#008000;stroke-width:0.5;" x1="8" x2="417" y1="163.29" y2="163.29"/><line style="stroke:#008000;stroke-width:0.5;" x1="8" x2="417" y1="171.29" y2="171.29"/><text fill="#000000" font-family="sans-serif" font-size="14" lengthAdjust="spacing" textLength="53" x="13" y="188.2851">preInit()</text></g><!--class AbstractBpmnParseListener--><g id="elem_AbstractBpmnParseListener"><rect codeLine="9" fill="#F1F1F1" height="64.2969" id="AbstractBpmnParseListener" rx="2.5" ry="2.5" style="stroke:#181818;stroke-width:0.5;" width="224" x="525.5" y="7"/><ellipse cx="540.5" cy="23" fill="#ADD1B2" rx="11" ry="11" style="stroke:#181818;stroke-width:1.0;"/><path d="M543.4688,28.6406 Q542.8906,28.9375 542.25,29.0781 Q541.6094,29.2344 540.9063,29.2344 Q538.4063,29.2344 537.0781,27.5938 Q535.7656,25.9375 535.7656,22.8125 Q535.7656,19.6875 537.0781,18.0313 Q538.4063,16.375 540.9063,16.375 Q541.6094,16.375 542.25,16.5313 Q542.9063,16.6875 543.4688,16.9844 L543.4688,19.7031 Q542.8438,19.125 542.25,18.8594 Q541.6563,18.5781 541.0313,18.5781 Q539.6875,18.5781 539,19.6563 Q538.3125,20.7188 538.3125,22.8125 Q538.3125,24.9063 539,25.9844 Q539.6875,27.0469 541.0313,27.0469 Q541.6563,27.0469 542.25,26.7813 Q542.8438,26.5 543.4688,25.9219 L543.4688,28.6406 Z " fill="#000000"/><text fill="#000000" font-family="sans-serif" font-size="14" lengthAdjust="spacing" textLength="192" x="554.5" y="27.8467">AbstractBpmnParseListener</text><line style="stroke:#181818;stroke-width:0.5;" x1="526.5" x2="748.5" y1="39" y2="39"/><line style="stroke:#181818;stroke-width:0.5;" x1="526.5" x2="748.5" y1="47" y2="47"/><text fill="#000000" font-family="sans-serif" font-size="14" lengthAdjust="spacing" textLength="120" x="531.5" y="63.9951">parseStartEvent()</text></g><!--class CamundaEngineSystemVariablesSupportListener--><g id="elem_CamundaEngineSystemVariablesSupportListener"><rect codeLine="13" fill="#ADD8E6" height="64.2969" id="CamundaEngineSystemVariablesSupportListener" rx="2.5" ry="2.5" style="stroke:#008000;stroke-width:0.5;" width="369" x="453" y="131.29"/><ellipse cx="468" cy="147.29" fill="#ADD1B2" rx="11" ry="11" style="stroke:#181818;stroke-width:1.0;"/><path d="M470.9688,152.9306 Q470.3906,153.2275 469.75,153.3681 Q469.1094,153.5244 468.4063,153.5244 Q465.9063,153.5244 464.5781,151.8838 Q463.2656,150.2275 463.2656,147.1025 Q463.2656,143.9775 464.5781,142.3213 Q465.9063,140.665 468.4063,140.665 Q469.1094,140.665 469.75,140.8213 Q470.4063,140.9775 470.9688,141.2744 L470.9688,143.9931 Q470.3438,143.415 469.75,143.1494 Q469.1563,142.8681 468.5313,142.8681 Q467.1875,142.8681 466.5,143.9463 Q465.8125,145.0088 465.8125,147.1025 Q465.8125,149.1963 466.5,150.2744 Q467.1875,151.3369 468.5313,151.3369 Q469.1563,151.3369 469.75,151.0713 Q470.3438,150.79 470.9688,150.2119 L470.9688,152.9306 Z " fill="#000000"/><text fill="#000000" font-family="sans-serif" font-size="14" lengthAdjust="spacing" textLength="337" x="482" y="152.1367">CamundaEngineSystemVariablesSupportListener</text><line style="stroke:#008000;stroke-width:0.5;" x1="454" x2="821" y1="163.29" y2="163.29"/><line style="stroke:#008000;stroke-width:0.5;" x1="454" x2="821" y1="171.29" y2="171.29"/><text fill="#000000" font-family="sans-serif" font-size="14" lengthAdjust="spacing" textLength="120" x="459" y="188.2851">parseStartEvent()</text></g><!--class CamundaProperties--><g id="elem_CamundaProperties"><rect codeLine="17" fill="#ADD8E6" height="64.2969" id="CamundaProperties" rx="2.5" ry="2.5" style="stroke:#008000;stroke-width:0.5;" width="269" x="857" y="131.29"/><ellipse cx="918.75" cy="147.29" fill="#ADD1B2" rx="11" ry="11" style="stroke:#181818;stroke-width:1.0;"/><path d="M921.7188,152.9306 Q921.1406,153.2275 920.5,153.3681 Q919.8594,153.5244 919.1563,153.5244 Q916.6563,153.5244 915.3281,151.8838 Q914.0156,150.2275 914.0156,147.1025 Q914.0156,143.9775 915.3281,142.3213 Q916.6563,140.665 919.1563,140.665 Q919.8594,140.665 920.5,140.8213 Q921.1563,140.9775 921.7188,141.2744 L921.7188,143.9931 Q921.0938,143.415 920.5,143.1494 Q919.9063,142.8681 919.2813,142.8681 Q917.9375,142.8681 917.25,143.9463 Q916.5625,145.0088 916.5625,147.1025 Q916.5625,149.1963 917.25,150.2744 Q917.9375,151.3369 919.2813,151.3369 Q919.9063,151.3369 920.5,151.0713 Q921.0938,150.79 921.7188,150.2119 L921.7188,152.9306 Z " fill="#000000"/><text fill="#000000" font-family="sans-serif" font-size="14" lengthAdjust="spacing" textLength="137" x="939.25" y="152.1367">CamundaProperties</text><line style="stroke:#008000;stroke-width:0.5;" x1="858" x2="1125" y1="163.29" y2="163.29"/><text fill="#000000" font-family="sans-serif" font-size="14" lengthAdjust="spacing" textLength="257" x="863" y="180.2851">Map&lt;String, String&gt; systemVariables</text><line style="stroke:#008000;stroke-width:0.5;" x1="858" x2="1125" y1="187.5869" y2="187.5869"/></g><!--reverse link AbstractProcessEnginePlugin to CamundaEngineSystemVariablesSupportListenerPlugin--><g id="link_AbstractProcessEnginePlugin_CamundaEngineSystemVariablesSupportListenerPlugin"><path d="M212.5,92.22 C212.5,105.43 212.5,119.23 212.5,131.05 " fill="none" id="AbstractProcessEnginePlugin-backto-CamundaEngineSystemVariablesSupportListenerPlugin" style="stroke:#181818;stroke-width:1.0;"/><polygon fill="none" points="205.5,92.64,212.5,72.64,219.5,92.64,205.5,92.64" style="stroke:#181818;stroke-width:1.0;"/></g><!--reverse link AbstractBpmnParseListener to CamundaEngineSystemVariablesSupportListener--><g id="link_AbstractBpmnParseListener_CamundaEngineSystemVariablesSupportListener"><path d="M637.5,92.22 C637.5,105.43 637.5,119.23 637.5,131.05 " fill="none" id="AbstractBpmnParseListener-backto-CamundaEngineSystemVariablesSupportListener" style="stroke:#181818;stroke-width:1.0;"/><polygon fill="none" points="630.5,92.64,637.5,72.64,644.5,92.64,630.5,92.64" style="stroke:#181818;stroke-width:1.0;"/></g><!--link CamundaEngineSystemVariablesSupportListenerPlugin to CamundaEngineSystemVariablesSupportListener--><g id="link_CamundaEngineSystemVariablesSupportListenerPlugin_CamundaEngineSystemVariablesSupportListener"><path codeLine="21" d="M418.36,163.44 C427.81,163.44 437.26,163.44 446.71,163.44 " fill="none" id="CamundaEngineSystemVariablesSupportListenerPlugin-to-CamundaEngineSystemVariablesSupportListener" style="stroke:#181818;stroke-width:1.0;"/><polygon fill="#181818" points="451.6,163.44,442.6,159.44,446.6,163.44,442.6,167.44,451.6,163.44" style="stroke:#181818;stroke-width:1.0;"/></g><!--link CamundaEngineSystemVariablesSupportListener to CamundaProperties--><g id="link_CamundaEngineSystemVariablesSupportListener_CamundaProperties"><path codeLine="22" d="M822.45,163.44 C831.93,163.44 841.41,163.44 850.89,163.44 " fill="none" id="CamundaEngineSystemVariablesSupportListener-to-CamundaProperties" style="stroke:#181818;stroke-width:1.0;"/><polygon fill="#181818" points="855.79,163.44,846.79,159.44,850.79,163.44,846.79,167.44,855.79,163.44" style="stroke:#181818;stroke-width:1.0;"/></g><!--SRC=[dL7DQiCm3BxdAGoxjB2zG582Q-cXi44WiBliYCpKKOsab9RHTw-pB6oxDJb9IFx-B1T0nBnQKGQd5PySYkofzOHLw5CnNvanaV50NbVhx9PbxXkoWwwd1iQdzLKKkmzW3pQWr7sC9zOtdwQ4_4FqPC4Ty-3RJxMXno8aODuo8XMA5yrjI7kJEgHcaQK9ieqTLS22au4HC4ng1TRz6MbfbeKfbbfAwIEoUfG7XGVQTuYRMjbJ-sp6MXhvdseGcd_1btBELyqH-4Fz6_aE]--></g></svg>