<?xml version="1.0" encoding="us-ascii" standalone="no"?><svg xmlns="http://www.w3.org/2000/svg" xmlns:xlink="http://www.w3.org/1999/xlink" contentStyleType="text/css" height="513px" preserveAspectRatio="none" style="width:597px;height:513px;background:#FFFFFF;" version="1.1" viewBox="0 0 597 513" width="597px" zoomAndPan="magnify"><defs/><g><rect fill="#FFFFFF" height="383.3984" style="stroke:#181818;stroke-width:1.0;" width="10" x="79" y="52.2969"/><rect fill="#FFFFFF" height="109.2031" style="stroke:#181818;stroke-width:1.0;" width="10" x="385" y="81.4297"/><rect fill="#FFFFFF" height="12" style="stroke:#181818;stroke-width:1.0;" width="10" x="385" y="394.5625"/><rect fill="#FFFFFF" height="12" style="stroke:#181818;stroke-width:1.0;" width="10" x="537.5" y="236.8984"/><rect fill="none" height="364.3984" style="stroke:#000000;stroke-width:1.5;" width="587" x="3" y="96.4297"/><line style="stroke:#181818;stroke-width:0.5;stroke-dasharray:5.0,5.0;" x1="84" x2="84" y1="36.2969" y2="477.8281"/><line style="stroke:#181818;stroke-width:0.5;stroke-dasharray:5.0,5.0;" x1="390" x2="390" y1="36.2969" y2="477.8281"/><line style="stroke:#181818;stroke-width:0.5;stroke-dasharray:5.0,5.0;" x1="542" x2="542" y1="36.2969" y2="477.8281"/><rect fill="#E2E2F0" height="30.2969" rx="2.5" ry="2.5" style="stroke:#181818;stroke-width:0.5;" width="112" x="28" y="5"/><text fill="#000000" font-family="sans-serif" font-size="14" lengthAdjust="spacing" textLength="98" x="35" y="24.9951">system_user()</text><rect fill="#E2E2F0" height="30.2969" rx="2.5" ry="2.5" style="stroke:#181818;stroke-width:0.5;" width="112" x="28" y="476.8281"/><text fill="#000000" font-family="sans-serif" font-size="14" lengthAdjust="spacing" textLength="98" x="35" y="496.8232">system_user()</text><rect fill="#E2E2F0" height="30.2969" rx="2.5" ry="2.5" style="stroke:#181818;stroke-width:0.5;" width="210" x="285" y="5"/><text fill="#000000" font-family="sans-serif" font-size="14" lengthAdjust="spacing" textLength="196" x="292" y="24.9951">Camunda Execution Context</text><rect fill="#E2E2F0" height="30.2969" rx="2.5" ry="2.5" style="stroke:#181818;stroke-width:0.5;" width="210" x="285" y="476.8281"/><text fill="#000000" font-family="sans-serif" font-size="14" lengthAdjust="spacing" textLength="196" x="292" y="496.8232">Camunda Execution Context</text><rect fill="#E2E2F0" height="30.2969" rx="2.5" ry="2.5" style="stroke:#181818;stroke-width:0.5;" width="75" x="505" y="5"/><text fill="#000000" font-family="sans-serif" font-size="14" lengthAdjust="spacing" textLength="61" x="512" y="24.9951">Keycloak</text><rect fill="#E2E2F0" height="30.2969" rx="2.5" ry="2.5" style="stroke:#181818;stroke-width:0.5;" width="75" x="505" y="476.8281"/><text fill="#000000" font-family="sans-serif" font-size="14" lengthAdjust="spacing" textLength="61" x="512" y="496.8232">Keycloak</text><rect fill="#FFFFFF" height="383.3984" style="stroke:#181818;stroke-width:1.0;" width="10" x="79" y="52.2969"/><rect fill="#FFFFFF" height="109.2031" style="stroke:#181818;stroke-width:1.0;" width="10" x="385" y="81.4297"/><rect fill="#FFFFFF" height="12" style="stroke:#181818;stroke-width:1.0;" width="10" x="385" y="394.5625"/><rect fill="#FFFFFF" height="12" style="stroke:#181818;stroke-width:1.0;" width="10" x="537.5" y="236.8984"/><polygon fill="#181818" points="67,48.2969,77,52.2969,67,56.2969,71,52.2969" style="stroke:#181818;stroke-width:1.0;"/><line style="stroke:#181818;stroke-width:1.0;" x1="0" x2="73" y1="52.2969" y2="52.2969"/><polygon fill="#181818" points="373,77.4297,383,81.4297,373,85.4297,377,81.4297" style="stroke:#181818;stroke-width:1.0;"/><line style="stroke:#181818;stroke-width:1.0;" x1="89" x2="379" y1="81.4297" y2="81.4297"/><text fill="#000000" font-family="sans-serif" font-size="13" lengthAdjust="spacing" textLength="237" x="96" y="76.3638">&#1054;&#1090;&#1088;&#1080;&#1084;&#1072;&#1090;&#1080; &#1110;&#1089;&#1085;&#1091;&#1102;&#1095;&#1080;&#1081; UserDto &#1086;&#1073;'&#1108;&#1082;&#1090;</text><path d="M3,96.4297 L67,96.4297 L67,103.5625 L57,113.5625 L3,113.5625 L3,96.4297 " fill="#EEEEEE" style="stroke:#000000;stroke-width:1.5;"/><rect fill="none" height="364.3984" style="stroke:#000000;stroke-width:1.5;" width="587" x="3" y="96.4297"/><text fill="#000000" font-family="sans-serif" font-size="13" font-weight="bold" lengthAdjust="spacing" textLength="19" x="18" y="109.4966">alt</text><text fill="#000000" font-family="sans-serif" font-size="11" font-weight="bold" lengthAdjust="spacing" textLength="173" x="82" y="108.6401">[&#1054;&#1073;'&#1108;&#1082;&#1090; UserDto &#1079;&#1085;&#1072;&#1081;&#1076;&#1077;&#1085;&#1086;]</text><polygon fill="#181818" points="100,113.5625,90,117.5625,100,121.5625,96,117.5625" style="stroke:#181818;stroke-width:1.0;"/><line style="stroke:#181818;stroke-width:1.0;stroke-dasharray:2.0,2.0;" x1="94" x2="384" y1="117.5625" y2="117.5625"/><text fill="#000000" font-family="sans-serif" font-size="13" lengthAdjust="spacing" textLength="179" x="106" y="130.6294">&#1047;&#1085;&#1072;&#1081;&#1076;&#1077;&#1085;&#1080;&#1081; &#1086;&#1073;'&#1108;&#1082;&#1090; UserDto</text><polygon fill="#181818" points="11,142.6953,1,146.6953,11,150.6953,7,146.6953" style="stroke:#181818;stroke-width:1.0;"/><line style="stroke:#181818;stroke-width:1.0;stroke-dasharray:2.0,2.0;" x1="5" x2="78" y1="146.6953" y2="146.6953"/><text fill="#000000" font-family="sans-serif" font-size="13" lengthAdjust="spacing" textLength="53" x="17" y="159.7622">UserDto</text><line style="stroke:#000000;stroke-width:1.0;stroke-dasharray:2.0,2.0;" x1="3" x2="590" y1="172.8281" y2="172.8281"/><text fill="#000000" font-family="sans-serif" font-size="11" font-weight="bold" lengthAdjust="spacing" textLength="193" x="8" y="183.0386">[&#1054;&#1073;'&#1108;&#1082;&#1090; UserDto &#1085;&#1077; &#1079;&#1085;&#1072;&#1081;&#1076;&#1077;&#1085;&#1086;]</text><polygon fill="#181818" points="100,186.6328,90,190.6328,100,194.6328,96,190.6328" style="stroke:#181818;stroke-width:1.0;"/><line style="stroke:#181818;stroke-width:1.0;stroke-dasharray:2.0,2.0;" x1="94" x2="389" y1="190.6328" y2="190.6328"/><text fill="#000000" font-family="sans-serif" font-size="13" lengthAdjust="spacing" textLength="22" x="106" y="203.6997">null</text><polygon fill="#181818" points="525.5,232.8984,535.5,236.8984,525.5,240.8984,529.5,236.8984" style="stroke:#181818;stroke-width:1.0;"/><line style="stroke:#181818;stroke-width:1.0;" x1="89" x2="531.5" y1="236.8984" y2="236.8984"/><text fill="#000000" font-family="sans-serif" font-size="13" lengthAdjust="spacing" textLength="288" x="96" y="231.8325">&#1054;&#1090;&#1088;&#1080;&#1084;&#1072;&#1090;&#1080; &#1090;&#1086;&#1082;&#1077;&#1085; &#1089;&#1080;&#1089;&#1090;&#1077;&#1084;&#1085;&#1086;&#1075;&#1086; &#1082;&#1086;&#1088;&#1080;&#1089;&#1090;&#1091;&#1074;&#1072;&#1095;&#1072;</text><polygon fill="#181818" points="100,244.8984,90,248.8984,100,252.8984,96,248.8984" style="stroke:#181818;stroke-width:1.0;"/><line style="stroke:#181818;stroke-width:1.0;stroke-dasharray:2.0,2.0;" x1="94" x2="541.5" y1="248.8984" y2="248.8984"/><text fill="#000000" font-family="sans-serif" font-size="13" lengthAdjust="spacing" textLength="215" x="106" y="261.9653">&#1090;&#1086;&#1082;&#1077;&#1085; &#1089;&#1080;&#1089;&#1090;&#1077;&#1084;&#1085;&#1086;&#1075;&#1086; &#1082;&#1086;&#1088;&#1080;&#1089;&#1090;&#1091;&#1074;&#1072;&#1095;&#1072;</text><line style="stroke:#181818;stroke-width:1.0;" x1="89" x2="131" y1="295.1641" y2="295.1641"/><line style="stroke:#181818;stroke-width:1.0;" x1="131" x2="131" y1="295.1641" y2="308.1641"/><line style="stroke:#181818;stroke-width:1.0;" x1="90" x2="131" y1="308.1641" y2="308.1641"/><polygon fill="#181818" points="100,304.1641,90,308.1641,100,312.1641,96,308.1641" style="stroke:#181818;stroke-width:1.0;"/><text fill="#000000" font-family="sans-serif" font-size="13" lengthAdjust="spacing" textLength="282" x="96" y="290.0981">&#1055;&#1072;&#1088;&#1089;&#1080;&#1085;&#1075; &#1090;&#1086;&#1082;&#1077;&#1085;&#1072; &#1089;&#1080;&#1089;&#1090;&#1077;&#1084;&#1085;&#1086;&#1075;&#1086; &#1082;&#1086;&#1088;&#1080;&#1089;&#1090;&#1091;&#1074;&#1072;&#1095;&#1072;</text><line style="stroke:#181818;stroke-width:1.0;" x1="89" x2="131" y1="337.2969" y2="337.2969"/><line style="stroke:#181818;stroke-width:1.0;" x1="131" x2="131" y1="337.2969" y2="350.2969"/><line style="stroke:#181818;stroke-width:1.0;" x1="90" x2="131" y1="350.2969" y2="350.2969"/><polygon fill="#181818" points="100,346.2969,90,350.2969,100,354.2969,96,350.2969" style="stroke:#181818;stroke-width:1.0;"/><text fill="#000000" font-family="sans-serif" font-size="13" lengthAdjust="spacing" textLength="178" x="96" y="332.231">&#1047;&#1073;&#1091;&#1076;&#1091;&#1074;&#1072;&#1090;&#1080; &#1086;&#1073;'&#1108;&#1082;&#1090; UserDto</text><polygon fill="#181818" points="373,390.5625,383,394.5625,373,398.5625,377,394.5625" style="stroke:#181818;stroke-width:1.0;"/><line style="stroke:#181818;stroke-width:1.0;" x1="89" x2="379" y1="394.5625" y2="394.5625"/><text fill="#000000" font-family="sans-serif" font-size="13" lengthAdjust="spacing" textLength="252" x="96" y="374.3638">&#1047;&#1073;&#1077;&#1088;&#1077;&#1075;&#1090;&#1080; UserDto &#1086;&#1073;'&#1108;&#1082;&#1090; &#1091; &#1082;&#1086;&#1085;&#1090;&#1077;&#1082;&#1089;&#1090;&#1110;</text><text fill="#000000" font-family="sans-serif" font-size="13" lengthAdjust="spacing" textLength="166" x="96" y="389.4966">&#1091; &#1103;&#1082;&#1086;&#1089;&#1090;&#1110; transient &#1079;&#1084;&#1110;&#1085;&#1085;&#1086;&#1111;</text><polygon fill="#181818" points="100,402.5625,90,406.5625,100,410.5625,96,406.5625" style="stroke:#181818;stroke-width:1.0;"/><line style="stroke:#181818;stroke-width:1.0;stroke-dasharray:2.0,2.0;" x1="94" x2="389" y1="406.5625" y2="406.5625"/><text fill="#000000" font-family="sans-serif" font-size="13" lengthAdjust="spacing" textLength="77" x="106" y="419.6294">&#1047;&#1073;&#1077;&#1088;&#1077;&#1078;&#1077;&#1085;&#1086;</text><polygon fill="#181818" points="11,431.6953,1,435.6953,11,439.6953,7,435.6953" style="stroke:#181818;stroke-width:1.0;"/><line style="stroke:#181818;stroke-width:1.0;stroke-dasharray:2.0,2.0;" x1="5" x2="83" y1="435.6953" y2="435.6953"/><text fill="#000000" font-family="sans-serif" font-size="13" lengthAdjust="spacing" textLength="53" x="17" y="448.7622">UserDto</text><!--SRC=[fLGzJ-D04Etv5ICQe8Z4HuVGIST7XIZfaD3A6PsiEEl8k-QZWwIWksjGqd5_8RdW8qGals7s7p6xE66TB4Y8nhBVp9ltPdRMgX7BbiX44p9KhLGgF46bn2_SnoIz_9bbwINeBCUL5G3Eqt4KjuJKiAgkbSRcUQumMzzO1Q70Go3DwlpSsbna7OXcBki2ZgumodMSIZX8fSOhxIf4PVIDlRt4FiRhA4b5moKtoeyoUsVJMgpzy6qm828TNmYD5PXntooJPigxG0-cRMveH2_KDsqQWUcQMvgOZlbjxXX-XbFc7EeKQ4g3DNDFOzFsXSfILaGacklDizwPJpIXFZtJ8nNyDkNKggEzMistrAkaMm-UzgogAsA9Vg7TUPJ3c2WC-vbGyLLJCayIbrB7KEjB4vuVLsZ4RUvdR6M1PpqojmmK76KNDAGfS6ng2JPWElIFQNVKTohUu6SA9RvetJFmBJsltxbYgE7gCT1VBd9ZrLXbw3cW_fSzV2xKem7dFvOSEzxGieGALJPkG0NB5pHq9G8x3wRZJFBTiCx7pcWNpYJZve-p_uReJ4WL8rzWNh4Nq-KMkKdJMpo_sVQ4Zozexh-tgXzlucVNOebP_NsWhBy2]--></g></svg>