<?xml version="1.0" encoding="us-ascii" standalone="no"?><svg xmlns="http://www.w3.org/2000/svg" xmlns:xlink="http://www.w3.org/1999/xlink" contentStyleType="text/css" height="202px" preserveAspectRatio="none" style="width:443px;height:202px;background:#FFFFFF;" version="1.1" viewBox="0 0 443 202" width="443px" zoomAndPan="magnify"><defs/><g><!--class BpmnParse--><g id="elem_BpmnParse"><rect codeLine="1" fill="#F1F1F1" height="64.2969" id="BpmnParse" rx="2.5" ry="2.5" style="stroke:#181818;stroke-width:0.5;" width="191" x="23" y="7"/><ellipse cx="74.25" cy="23" fill="#ADD1B2" rx="11" ry="11" style="stroke:#181818;stroke-width:1.0;"/><path d="M77.2188,28.6406 Q76.6406,28.9375 76,29.0781 Q75.3594,29.2344 74.6563,29.2344 Q72.1563,29.2344 70.8281,27.5938 Q69.5156,25.9375 69.5156,22.8125 Q69.5156,19.6875 70.8281,18.0313 Q72.1563,16.375 74.6563,16.375 Q75.3594,16.375 76,16.5313 Q76.6563,16.6875 77.2188,16.9844 L77.2188,19.7031 Q76.5938,19.125 76,18.8594 Q75.4063,18.5781 74.7813,18.5781 Q73.4375,18.5781 72.75,19.6563 Q72.0625,20.7188 72.0625,22.8125 Q72.0625,24.9063 72.75,25.9844 Q73.4375,27.0469 74.7813,27.0469 Q75.4063,27.0469 76,26.7813 Q76.5938,26.5 77.2188,25.9219 L77.2188,28.6406 Z " fill="#000000"/><text fill="#000000" font-family="sans-serif" font-size="14" lengthAdjust="spacing" textLength="80" x="94.75" y="27.8467">BpmnParse</text><line style="stroke:#181818;stroke-width:0.5;" x1="24" x2="213" y1="39" y2="39"/><line style="stroke:#181818;stroke-width:0.5;" x1="24" x2="213" y1="47" y2="47"/><text fill="#000000" font-family="sans-serif" font-size="14" lengthAdjust="spacing" textLength="179" x="29" y="63.9951">parseActivityInputOutput()</text></g><!--class TransientBpmnParse--><g id="elem_TransientBpmnParse"><rect codeLine="5" fill="#ADD8E6" height="64.2969" id="TransientBpmnParse" rx="2.5" ry="2.5" style="stroke:#008000;stroke-width:0.5;" width="191" x="7" y="131.29"/><ellipse cx="28.3" cy="147.29" fill="#ADD1B2" rx="11" ry="11" style="stroke:#181818;stroke-width:1.0;"/><path d="M31.2688,152.9306 Q30.6906,153.2275 30.05,153.3681 Q29.4094,153.5244 28.7063,153.5244 Q26.2063,153.5244 24.8781,151.8838 Q23.5656,150.2275 23.5656,147.1025 Q23.5656,143.9775 24.8781,142.3213 Q26.2063,140.665 28.7063,140.665 Q29.4094,140.665 30.05,140.8213 Q30.7063,140.9775 31.2688,141.2744 L31.2688,143.9931 Q30.6438,143.415 30.05,143.1494 Q29.4563,142.8681 28.8313,142.8681 Q27.4875,142.8681 26.8,143.9463 Q26.1125,145.0088 26.1125,147.1025 Q26.1125,149.1963 26.8,150.2744 Q27.4875,151.3369 28.8313,151.3369 Q29.4563,151.3369 30.05,151.0713 Q30.6438,150.79 31.2688,150.2119 L31.2688,152.9306 Z " fill="#000000"/><text fill="#000000" font-family="sans-serif" font-size="14" lengthAdjust="spacing" textLength="145" x="43.7" y="152.1367">TransientBpmnParse</text><line style="stroke:#008000;stroke-width:0.5;" x1="8" x2="197" y1="163.29" y2="163.29"/><line style="stroke:#008000;stroke-width:0.5;" x1="8" x2="197" y1="171.29" y2="171.29"/><text fill="#000000" font-family="sans-serif" font-size="14" lengthAdjust="spacing" textLength="179" x="13" y="188.2851">parseActivityInputOutput()</text></g><!--class InputParameter--><g id="elem_InputParameter"><rect codeLine="9" fill="#F1F1F1" height="64.2969" id="InputParameter" rx="2.5" ry="2.5" style="stroke:#181818;stroke-width:0.5;" width="138" x="257.5" y="7"/><ellipse cx="272.5" cy="23" fill="#ADD1B2" rx="11" ry="11" style="stroke:#181818;stroke-width:1.0;"/><path d="M275.4688,28.6406 Q274.8906,28.9375 274.25,29.0781 Q273.6094,29.2344 272.9063,29.2344 Q270.4063,29.2344 269.0781,27.5938 Q267.7656,25.9375 267.7656,22.8125 Q267.7656,19.6875 269.0781,18.0313 Q270.4063,16.375 272.9063,16.375 Q273.6094,16.375 274.25,16.5313 Q274.9063,16.6875 275.4688,16.9844 L275.4688,19.7031 Q274.8438,19.125 274.25,18.8594 Q273.6563,18.5781 273.0313,18.5781 Q271.6875,18.5781 271,19.6563 Q270.3125,20.7188 270.3125,22.8125 Q270.3125,24.9063 271,25.9844 Q271.6875,27.0469 273.0313,27.0469 Q273.6563,27.0469 274.25,26.7813 Q274.8438,26.5 275.4688,25.9219 L275.4688,28.6406 Z " fill="#000000"/><text fill="#000000" font-family="sans-serif" font-size="14" lengthAdjust="spacing" textLength="106" x="286.5" y="27.8467">InputParameter</text><line style="stroke:#181818;stroke-width:0.5;" x1="258.5" x2="394.5" y1="39" y2="39"/><line style="stroke:#181818;stroke-width:0.5;" x1="258.5" x2="394.5" y1="47" y2="47"/><text fill="#000000" font-family="sans-serif" font-size="14" lengthAdjust="spacing" textLength="66" x="263.5" y="63.9951">execute()</text></g><!--class TransientInputParameter--><g id="elem_TransientInputParameter"><rect codeLine="13" fill="#ADD8E6" height="64.2969" id="TransientInputParameter" rx="2.5" ry="2.5" style="stroke:#008000;stroke-width:0.5;" width="203" x="233" y="131.29"/><ellipse cx="248" cy="147.29" fill="#ADD1B2" rx="11" ry="11" style="stroke:#181818;stroke-width:1.0;"/><path d="M250.9688,152.9306 Q250.3906,153.2275 249.75,153.3681 Q249.1094,153.5244 248.4063,153.5244 Q245.9063,153.5244 244.5781,151.8838 Q243.2656,150.2275 243.2656,147.1025 Q243.2656,143.9775 244.5781,142.3213 Q245.9063,140.665 248.4063,140.665 Q249.1094,140.665 249.75,140.8213 Q250.4063,140.9775 250.9688,141.2744 L250.9688,143.9931 Q250.3438,143.415 249.75,143.1494 Q249.1563,142.8681 248.5313,142.8681 Q247.1875,142.8681 246.5,143.9463 Q245.8125,145.0088 245.8125,147.1025 Q245.8125,149.1963 246.5,150.2744 Q247.1875,151.3369 248.5313,151.3369 Q249.1563,151.3369 249.75,151.0713 Q250.3438,150.79 250.9688,150.2119 L250.9688,152.9306 Z " fill="#000000"/><text fill="#000000" font-family="sans-serif" font-size="14" lengthAdjust="spacing" textLength="171" x="262" y="152.1367">TransientInputParameter</text><line style="stroke:#008000;stroke-width:0.5;" x1="234" x2="435" y1="163.29" y2="163.29"/><line style="stroke:#008000;stroke-width:0.5;" x1="234" x2="435" y1="171.29" y2="171.29"/><text fill="#000000" font-family="sans-serif" font-size="14" lengthAdjust="spacing" textLength="66" x="239" y="188.2851">execute()</text></g><!--reverse link BpmnParse to TransientBpmnParse--><g id="link_BpmnParse_TransientBpmnParse"><path d="M111.69,92.22 C109.96,105.43 108.15,119.23 106.61,131.05 " fill="none" id="BpmnParse-backto-TransientBpmnParse" style="stroke:#181818;stroke-width:1.0;"/><polygon fill="none" points="104.84,91.56,114.38,72.64,118.73,93.38,104.84,91.56" style="stroke:#181818;stroke-width:1.0;"/></g><!--reverse link InputParameter to TransientInputParameter--><g id="link_InputParameter_TransientInputParameter"><path d="M329.91,92.22 C330.77,105.43 331.67,119.23 332.45,131.05 " fill="none" id="InputParameter-backto-TransientInputParameter" style="stroke:#181818;stroke-width:1.0;"/><polygon fill="none" points="322.88,93.05,328.56,72.64,336.85,92.14,322.88,93.05" style="stroke:#181818;stroke-width:1.0;"/></g><!--link BpmnParse to InputParameter--><g id="link_BpmnParse_InputParameter"><path codeLine="17" d="M214.38,39.14 C226.78,39.14 239.19,39.14 251.6,39.14 " fill="none" id="BpmnParse-to-InputParameter" style="stroke:#181818;stroke-width:1.0;stroke-dasharray:7.0,7.0;"/><polygon fill="#181818" points="256.3,39.14,247.3,35.14,251.3,39.14,247.3,43.14,256.3,39.14" style="stroke:#181818;stroke-width:1.0;"/></g><!--link TransientBpmnParse to TransientInputParameter--><g id="link_TransientBpmnParse_TransientInputParameter"><path codeLine="18" d="M198.11,163.44 C207.67,163.44 217.23,163.44 226.79,163.44 " fill="none" id="TransientBpmnParse-to-TransientInputParameter" style="stroke:#181818;stroke-width:1.0;stroke-dasharray:7.0,7.0;"/><polygon fill="#181818" points="231.74,163.44,222.74,159.44,226.74,163.44,222.74,167.44,231.74,163.44" style="stroke:#181818;stroke-width:1.0;"/></g><!--SRC=[dP312i8m44Jl-Og05xtu0Ia8UlEa1tyWIOSQJ9UGRAGY_djZBeLI4Rqim-uCyrZhTKho47ewwvWWdqBAy5Pxo-xk-76aaFcKkSprHho4i3LnYPgI0_4KNHbjRygxxih6PpJU4LGN0MeO0olZorqM1Mh_gQph4j4z6B76CC1cnYBOpFuRtRUkYNwxcvd5mckAwGFN2000]--></g></svg>