<?xml version="1.0" encoding="us-ascii" standalone="no"?><svg xmlns="http://www.w3.org/2000/svg" xmlns:xlink="http://www.w3.org/1999/xlink" contentStyleType="text/css" height="314px" preserveAspectRatio="none" style="width:164px;height:314px;background:#FFFFFF;" version="1.1" viewBox="0 0 164 314" width="164px" zoomAndPan="magnify"><defs/><g><path d="M27,14.6146 L27,17.2813 L37.6667,17.2813 L37.6667,15.9479 L31,15.9479 L31,14.6146 L27,14.6146 M27,18.6146 L27,24.6146 C27,24.9879 27.2933,25.2813 27.6667,25.2813 L37,25.2813 C37.3733,25.2813 37.6667,24.9879 37.6667,24.6146 L37.6667,18.6146 L27,18.6146 " fill="#000000" style="stroke:;stroke-width:0.0;stroke-dasharray:;"/><text fill="#000000" font-family="sans-serif" font-size="16" font-weight="bold" lengthAdjust="spacing" textLength="6" x="38.6667" y="25.5078">&#160;</text><text fill="#000000" font-family="sans-serif" font-size="20" font-weight="bold" lengthAdjust="spacing" textLength="84" x="44.6667" y="24.5645">reports</text><path d="M37,32.25 L37,34.25 L45,34.25 L45,33.25 L40,33.25 L40,32.25 L37,32.25 M37,35.25 L37,39.75 C37,40.03 37.22,40.25 37.5,40.25 L44.5,40.25 C44.78,40.25 45,40.03 45,39.75 L45,35.25 L37,35.25 " fill="#000000" style="stroke:;stroke-width:0.0;stroke-dasharray:;"/><text fill="#000000" font-family="sans-serif" font-size="12" lengthAdjust="spacing" textLength="83" x="50" y="40.4199">officer-level-1</text><path d="M47,46.2188 L47,48.2188 L55,48.2188 L55,47.2188 L50,47.2188 L50,46.2188 L47,46.2188 M47,49.2188 L47,53.7188 C47,53.9988 47.22,54.2188 47.5,54.2188 L54.5,54.2188 C54.78,54.2188 55,53.9988 55,53.7188 L55,49.2188 L47,49.2188 " fill="#000000" style="stroke:;stroke-width:0.0;stroke-dasharray:;"/><text fill="#000000" font-family="sans-serif" font-size="12" lengthAdjust="spacing" textLength="47" x="60" y="54.3887">queries</text><path d="M67,60.1875 L67,68.1875 L74,68.1875 L74,64.1875 L70,64.1875 L70,60.1875 L67,60.1875 M71,60.1875 L71,63.1875 L74,63.1875 L71,60.1875 " fill="#000000" style="stroke:;stroke-width:0.0;stroke-dasharray:;"/><text fill="#000000" font-family="sans-serif" font-size="12" lengthAdjust="spacing" textLength="77" x="80" y="68.3574">queries.json</text><path d="M57,74.1563 L57,82.1563 L64,82.1563 L64,78.1563 L60,78.1563 L60,74.1563 L57,74.1563 M61,74.1563 L61,77.1563 L64,77.1563 L61,74.1563 " fill="#000000" style="stroke:;stroke-width:0.0;stroke-dasharray:;"/><text fill="#000000" font-family="sans-serif" font-size="12" lengthAdjust="spacing" textLength="63" x="70" y="82.3262">test1.json</text><path d="M57,88.125 L57,96.125 L64,96.125 L64,92.125 L60,92.125 L60,88.125 L57,88.125 M61,88.125 L61,91.125 L64,91.125 L61,88.125 " fill="#000000" style="stroke:;stroke-width:0.0;stroke-dasharray:;"/><text fill="#000000" font-family="sans-serif" font-size="12" lengthAdjust="spacing" textLength="63" x="70" y="96.2949">test2.json</text><path d="M37,102.0938 L37,104.0938 L45,104.0938 L45,103.0938 L40,103.0938 L40,102.0938 L37,102.0938 M37,105.0938 L37,109.5938 C37,109.8738 37.22,110.0938 37.5,110.0938 L44.5,110.0938 C44.78,110.0938 45,109.8738 45,109.5938 L45,105.0938 L37,105.0938 " fill="#000000" style="stroke:;stroke-width:0.0;stroke-dasharray:;"/><text fill="#000000" font-family="sans-serif" font-size="12" lengthAdjust="spacing" textLength="83" x="50" y="110.2637">officer-level-2</text><path d="M47,116.0625 L47,118.0625 L55,118.0625 L55,117.0625 L50,117.0625 L50,116.0625 L47,116.0625 M47,119.0625 L47,123.5625 C47,123.8425 47.22,124.0625 47.5,124.0625 L54.5,124.0625 C54.78,124.0625 55,123.8425 55,123.5625 L55,119.0625 L47,119.0625 " fill="#000000" style="stroke:;stroke-width:0.0;stroke-dasharray:;"/><text fill="#000000" font-family="sans-serif" font-size="12" lengthAdjust="spacing" textLength="47" x="60" y="124.2324">queries</text><path d="M67,130.0313 L67,138.0313 L74,138.0313 L74,134.0313 L70,134.0313 L70,130.0313 L67,130.0313 M71,130.0313 L71,133.0313 L74,133.0313 L71,130.0313 " fill="#000000" style="stroke:;stroke-width:0.0;stroke-dasharray:;"/><text fill="#000000" font-family="sans-serif" font-size="12" lengthAdjust="spacing" textLength="77" x="80" y="138.2012">queries.json</text><path d="M57,144 L57,152 L64,152 L64,148 L60,148 L60,144 L57,144 M61,144 L61,147 L64,147 L61,144 " fill="#000000" style="stroke:;stroke-width:0.0;stroke-dasharray:;"/><text fill="#000000" font-family="sans-serif" font-size="12" lengthAdjust="spacing" textLength="63" x="70" y="152.1699">test1.json</text><path d="M57,157.9688 L57,165.9688 L64,165.9688 L64,161.9688 L60,161.9688 L60,157.9688 L57,157.9688 M61,157.9688 L61,160.9688 L64,160.9688 L61,157.9688 " fill="#000000" style="stroke:;stroke-width:0.0;stroke-dasharray:;"/><text fill="#000000" font-family="sans-serif" font-size="12" lengthAdjust="spacing" textLength="63" x="70" y="166.1387">test2.json</text><path d="M57,171.9375 L57,179.9375 L64,179.9375 L64,175.9375 L60,175.9375 L60,171.9375 L57,171.9375 M61,171.9375 L61,174.9375 L64,174.9375 L61,171.9375 " fill="#000000" style="stroke:;stroke-width:0.0;stroke-dasharray:;"/><text fill="#000000" font-family="sans-serif" font-size="12" lengthAdjust="spacing" textLength="63" x="70" y="180.1074">test3.json</text><path d="M37,185.9063 L37,187.9063 L45,187.9063 L45,186.9063 L40,186.9063 L40,185.9063 L37,185.9063 M37,188.9063 L37,193.4063 C37,193.6863 37.22,193.9063 37.5,193.9063 L44.5,193.9063 C44.78,193.9063 45,193.6863 45,193.4063 L45,188.9063 L37,188.9063 " fill="#000000" style="stroke:;stroke-width:0.0;stroke-dasharray:;"/><text fill="#000000" font-family="sans-serif" font-size="12" lengthAdjust="spacing" textLength="36" x="50" y="194.0762">role-3</text><path d="M47,199.875 L47,201.875 L55,201.875 L55,200.875 L50,200.875 L50,199.875 L47,199.875 M47,202.875 L47,207.375 C47,207.655 47.22,207.875 47.5,207.875 L54.5,207.875 C54.78,207.875 55,207.655 55,207.375 L55,202.875 L47,202.875 " fill="#000000" style="stroke:;stroke-width:0.0;stroke-dasharray:;"/><text fill="#000000" font-family="sans-serif" font-size="12" lengthAdjust="spacing" textLength="47" x="60" y="208.0449">queries</text><path d="M67,213.8438 L67,221.8438 L74,221.8438 L74,217.8438 L70,217.8438 L70,213.8438 L67,213.8438 M71,213.8438 L71,216.8438 L74,216.8438 L71,213.8438 " fill="#000000" style="stroke:;stroke-width:0.0;stroke-dasharray:;"/><text fill="#000000" font-family="sans-serif" font-size="12" lengthAdjust="spacing" textLength="77" x="80" y="222.0137">queries.json</text><path d="M57,227.8125 L57,235.8125 L64,235.8125 L64,231.8125 L60,231.8125 L60,227.8125 L57,227.8125 M61,227.8125 L61,230.8125 L64,230.8125 L61,227.8125 " fill="#000000" style="stroke:;stroke-width:0.0;stroke-dasharray:;"/><text fill="#000000" font-family="sans-serif" font-size="12" lengthAdjust="spacing" textLength="63" x="70" y="235.9824">test4.json</text><path d="M57,241.7813 L57,249.7813 L64,249.7813 L64,245.7813 L60,245.7813 L60,241.7813 L57,241.7813 M61,241.7813 L61,244.7813 L64,244.7813 L61,241.7813 " fill="#000000" style="stroke:;stroke-width:0.0;stroke-dasharray:;"/><text fill="#000000" font-family="sans-serif" font-size="12" lengthAdjust="spacing" textLength="63" x="70" y="249.9512">test5.json</text><path d="M57,255.75 L57,263.75 L64,263.75 L64,259.75 L60,259.75 L60,255.75 L57,255.75 M61,255.75 L61,258.75 L64,258.75 L61,255.75 " fill="#000000" style="stroke:;stroke-width:0.0;stroke-dasharray:;"/><text fill="#000000" font-family="sans-serif" font-size="12" lengthAdjust="spacing" textLength="63" x="70" y="263.9199">test6.json</text><path d="M27,269.7188 L27,271.7188 L35,271.7188 L35,270.7188 L30,270.7188 L30,269.7188 L27,269.7188 M27,272.7188 L27,277.2188 C27,277.4988 27.22,277.7188 27.5,277.7188 L34.5,277.7188 C34.78,277.7188 35,277.4988 35,277.2188 L35,272.7188 L27,272.7188 " fill="#000000" style="stroke:;stroke-width:0.0;stroke-dasharray:;"/><text fill="#000000" font-family="sans-serif" font-size="12" lengthAdjust="spacing" textLength="4" x="36" y="277.8887">&#160;</text><text fill="#000000" font-family="sans-serif" font-size="12" font-weight="bold" lengthAdjust="spacing" textLength="36" x="40" y="277.8887">roles</text><path d="M37,283.6875 L37,291.6875 L44,291.6875 L44,287.6875 L40,287.6875 L40,283.6875 L37,283.6875 M41,283.6875 L41,286.6875 L44,286.6875 L41,283.6875 " fill="#000000" style="stroke:;stroke-width:0.0;stroke-dasharray:;"/><text fill="#000000" font-family="sans-serif" font-size="12" lengthAdjust="spacing" textLength="71" x="50" y="291.8574">citizen.yaml</text><path d="M37,297.6563 L37,305.6563 L44,305.6563 L44,301.6563 L40,301.6563 L40,297.6563 L37,297.6563 M41,297.6563 L41,300.6563 L44,300.6563 L41,297.6563 " fill="#000000" style="stroke:;stroke-width:0.0;stroke-dasharray:;"/><text fill="#000000" font-family="sans-serif" font-size="12" lengthAdjust="spacing" textLength="71" x="50" y="305.8262">officer.yaml</text><rect fill="none" height="2" style="stroke:#888888;stroke-width:1.0;" width="2" x="19" y="16.6406"/><rect fill="none" height="2" style="stroke:#888888;stroke-width:1.0;" width="2" x="29" y="35.2656"/><line style="stroke:#888888;stroke-width:1.0;" x1="20" x2="20" y1="19.6406" y2="36.2656"/><line style="stroke:#888888;stroke-width:1.0;" x1="20" x2="28" y1="36.2656" y2="36.2656"/><rect fill="none" height="2" style="stroke:#888888;stroke-width:1.0;" width="2" x="39" y="49.2344"/><line style="stroke:#888888;stroke-width:1.0;" x1="30" x2="30" y1="38.2656" y2="50.2344"/><line style="stroke:#888888;stroke-width:1.0;" x1="30" x2="38" y1="50.2344" y2="50.2344"/><line style="stroke:#888888;stroke-width:1.0;" x1="40" x2="40" y1="52.2344" y2="64.2031"/><line style="stroke:#888888;stroke-width:1.0;" x1="40" x2="58" y1="64.2031" y2="64.2031"/><line style="stroke:#888888;stroke-width:1.0;" x1="40" x2="40" y1="52.2344" y2="78.1719"/><line style="stroke:#888888;stroke-width:1.0;" x1="40" x2="48" y1="78.1719" y2="78.1719"/><line style="stroke:#888888;stroke-width:1.0;" x1="40" x2="40" y1="52.2344" y2="92.1406"/><line style="stroke:#888888;stroke-width:1.0;" x1="40" x2="48" y1="92.1406" y2="92.1406"/><rect fill="none" height="2" style="stroke:#888888;stroke-width:1.0;" width="2" x="29" y="105.1094"/><line style="stroke:#888888;stroke-width:1.0;" x1="20" x2="20" y1="19.6406" y2="106.1094"/><line style="stroke:#888888;stroke-width:1.0;" x1="20" x2="28" y1="106.1094" y2="106.1094"/><rect fill="none" height="2" style="stroke:#888888;stroke-width:1.0;" width="2" x="39" y="119.0781"/><line style="stroke:#888888;stroke-width:1.0;" x1="30" x2="30" y1="108.1094" y2="120.0781"/><line style="stroke:#888888;stroke-width:1.0;" x1="30" x2="38" y1="120.0781" y2="120.0781"/><line style="stroke:#888888;stroke-width:1.0;" x1="40" x2="40" y1="122.0781" y2="134.0469"/><line style="stroke:#888888;stroke-width:1.0;" x1="40" x2="58" y1="134.0469" y2="134.0469"/><line style="stroke:#888888;stroke-width:1.0;" x1="40" x2="40" y1="122.0781" y2="148.0156"/><line style="stroke:#888888;stroke-width:1.0;" x1="40" x2="48" y1="148.0156" y2="148.0156"/><line style="stroke:#888888;stroke-width:1.0;" x1="40" x2="40" y1="122.0781" y2="161.9844"/><line style="stroke:#888888;stroke-width:1.0;" x1="40" x2="48" y1="161.9844" y2="161.9844"/><line style="stroke:#888888;stroke-width:1.0;" x1="40" x2="40" y1="122.0781" y2="175.9531"/><line style="stroke:#888888;stroke-width:1.0;" x1="40" x2="48" y1="175.9531" y2="175.9531"/><rect fill="none" height="2" style="stroke:#888888;stroke-width:1.0;" width="2" x="29" y="188.9219"/><line style="stroke:#888888;stroke-width:1.0;" x1="20" x2="20" y1="19.6406" y2="189.9219"/><line style="stroke:#888888;stroke-width:1.0;" x1="20" x2="28" y1="189.9219" y2="189.9219"/><rect fill="none" height="2" style="stroke:#888888;stroke-width:1.0;" width="2" x="39" y="202.8906"/><line style="stroke:#888888;stroke-width:1.0;" x1="30" x2="30" y1="191.9219" y2="203.8906"/><line style="stroke:#888888;stroke-width:1.0;" x1="30" x2="38" y1="203.8906" y2="203.8906"/><line style="stroke:#888888;stroke-width:1.0;" x1="40" x2="40" y1="205.8906" y2="217.8594"/><line style="stroke:#888888;stroke-width:1.0;" x1="40" x2="58" y1="217.8594" y2="217.8594"/><line style="stroke:#888888;stroke-width:1.0;" x1="40" x2="40" y1="205.8906" y2="231.8281"/><line style="stroke:#888888;stroke-width:1.0;" x1="40" x2="48" y1="231.8281" y2="231.8281"/><line style="stroke:#888888;stroke-width:1.0;" x1="40" x2="40" y1="205.8906" y2="245.7969"/><line style="stroke:#888888;stroke-width:1.0;" x1="40" x2="48" y1="245.7969" y2="245.7969"/><line style="stroke:#888888;stroke-width:1.0;" x1="40" x2="40" y1="205.8906" y2="259.7656"/><line style="stroke:#888888;stroke-width:1.0;" x1="40" x2="48" y1="259.7656" y2="259.7656"/><rect fill="none" height="2" style="stroke:#888888;stroke-width:1.0;" width="2" x="19" y="272.7344"/><line style="stroke:#888888;stroke-width:1.0;" x1="20" x2="20" y1="275.7344" y2="287.7031"/><line style="stroke:#888888;stroke-width:1.0;" x1="20" x2="28" y1="287.7031" y2="287.7031"/><line style="stroke:#888888;stroke-width:1.0;" x1="20" x2="20" y1="275.7344" y2="301.6719"/><line style="stroke:#888888;stroke-width:1.0;" x1="20" x2="28" y1="301.6719" y2="301.6719"/><!--SRC=[lT9RJy8m50VmztwAysGWP9EDYsP1GWGrcH29N7mksncfAItsiWG9tzq2Yap59sFwTdwdf_-qxMX3bT6K6x8cwp4XbSeLjCuooLDKRMZDsWgNqdMqpcTjXvKZb5d64bGUnnov5sprc5yiAePwLzu3utWe-yzQ2b8aWze4fo3SmwyPml_9y1rgFuPJagDN-vjCzLFGE0NDGwOl3-fI5PvpjoDXXhsYy5TqmGlmViDxsBZLGP7kFWmPSYhCPD2779LcKa3WXzMmvWVLqXEc45iEGGX18shKe-e5JCPTs7gPbEw6VT3IgWGXPTeeDhF63IYJcEOK7gqmR84HF2nHnBtxZmBSY9mfAHOe38cdWy-6PjsxPWP6g5mKc0v83pDgkN4x4faoCO_SwRVU9UbJCRTqxcQZ85tfvggLiz4R]--></g></svg>