<svg width="52" height="52" viewBox="0 0 52 52" fill="none" xmlns="http://www.w3.org/2000/svg">
<path d="M35.9998 0H3.99998C1.79085 0 0 1.79085 0 3.99998V35.9998C0 38.209 1.79085 39.9998 3.99998 39.9998H35.9998C38.209 39.9998 39.9998 38.209 39.9998 35.9998V3.99998C39.9998 1.79085 38.209 0 35.9998 0Z" fill="#FFAAAA"/>
<path d="M48 12H16.0002C13.791 12 12.0002 13.7909 12.0002 16V47.9998C12.0002 50.209 13.791 51.9998 16.0002 51.9998H48C50.2091 51.9998 52 50.209 52 47.9998V16C52 13.7909 50.2091 12 48 12Z" fill="#AAFFAA"/>
<path d="M17.9998 22H29.9997V26H17.9998V22Z" fill="#FF0000"/>
<path d="M34 22H45.9999V26H34V22Z" fill="#FF0000"/>
<path d="M17.9998 36H21.9997V32H25.9997V36H29.9997V40H25.9997V43.9999H21.9997V40H17.9998V36Z" fill="#008000"/>
<path d="M34 36H38V32H42V36H45.9999V40H42V43.9999H38V40H34V36Z" fill="#008000"/>
</svg>