<svg width="26" height="52" viewBox="0 0 26 52" fill="none" xmlns="http://www.w3.org/2000/svg">
<path d="M16.4124 51.9382C16.3495 51.9043 15.6443 51.2213 14.8454 50.4202L13.3928 48.9637V39.4911C13.3928 34.2812 13.3796 30.0053 13.3635 29.9891C13.3338 29.9595 10.9528 31.1561 3.94923 34.7205C1.83774 35.7951 0.0810857 36.6631 0.045583 36.6495C0.00413272 36.6336 -0.00959253 36.5873 0.00728953 36.5202C0.0217011 36.4626 0.0538639 36.2236 0.0787524 35.9888C0.20475 34.8 1.14273 32.0072 2.13782 29.8582C4.84956 24.0019 9.23716 19.1485 14.8195 15.8302C15.7305 15.2886 16.4958 14.8926 16.5734 14.9224C16.6326 14.9451 16.6412 15.5615 16.6412 19.8223C16.6412 23.3125 16.6553 24.6962 16.6911 24.6962C16.7185 24.6962 16.9278 24.5997 17.1561 24.4818C18.7575 23.6546 19.9199 22.1097 20.3084 20.2919C20.4397 19.6772 20.4516 18.5569 20.3329 17.9625C20.115 16.8702 19.6121 15.8426 18.9031 15.0412C18.553 14.6454 17.3907 13.4232 15.337 11.2912C12.2317 8.06747 11.6631 7.45125 11.2993 6.9151C11.0324 6.52164 10.802 6.04066 10.6623 5.58549C10.5504 5.22044 10.5388 5.11393 10.5363 4.42854C10.5334 3.5919 10.5809 3.33153 10.8559 2.67866C11.3866 1.41882 12.7693 0.243665 13.919 0.0753014C14.7254 -0.0427358 15.7443 -0.0199976 16.4072 0.13098C16.9475 0.25405 17.8228 0.781786 18.4228 1.34621C19.1272 2.00887 19.4818 2.53779 22.1305 6.87621C25.256 11.9956 25.6286 12.6267 25.682 12.8898C25.7349 13.1503 25.6966 13.2603 25.5544 13.2571C25.4359 13.2544 25.4718 13.2912 19.8447 7.40235C19.3518 6.8865 18.4933 5.98064 17.9371 5.38931C16.4855 3.84609 15.8832 3.26464 15.6101 3.14303C15.2605 2.9873 14.7755 2.99443 14.4377 3.16033C13.7755 3.48557 13.462 4.2357 13.7118 4.89749C13.8357 5.22557 13.6631 5.03753 17.7321 9.27813C19.555 11.1779 21.2016 12.9176 21.3912 13.1441C24.4512 16.7988 24.2024 22.2294 20.8211 25.588C20.0447 26.3591 19.2686 26.8875 17.8307 27.6236C17.34 27.8748 16.8716 28.1215 16.7898 28.1719L16.6412 28.2634V40.0641C16.6412 46.5544 16.6287 51.8972 16.6134 51.9371C16.5812 52.0209 16.5663 52.0211 16.4124 51.9382ZM8.28568 29.0452C12.2911 26.9893 13.1177 26.5544 13.2351 26.4414C13.3088 26.3706 13.3409 26.2684 13.3629 26.0362C13.4072 25.5666 13.3987 20.6334 13.3535 20.6054C13.2539 20.5439 11.5715 22.0392 10.4419 23.1931C8.48918 25.1879 6.85665 27.4404 5.51455 29.9915C5.33905 30.3251 5.21003 30.5981 5.22783 30.5981C5.24563 30.5981 6.62172 29.8993 8.28572 29.0452H8.28568Z" fill="#C62B47"/>
</svg>

