<svg xmlns="http://www.w3.org/2000/svg" xmlns:xlink="http://www.w3.org/1999/xlink" xmlns:lucid="lucid" width="1740" height="1242"><g transform="translate(-60 -40.417322834645574)" lucid:page-tab-id="FftMILctbDlk"><path d="M170 346c0-3.3 2.7-6 6-6h168c3.3 0 6 2.7 6 6v108c0 3.3-2.7 6-6 6H176c-3.3 0-6-2.7-6-6z" stroke="#5e5e5e" stroke-width="3" fill="#fff"/><use xlink:href="#a" transform="matrix(1,0,0,1,182,352) translate(34.2037037037037 53.77777777777778)"/><use xlink:href="#b" transform="matrix(1,0,0,1,182,352) translate(85.99382716049382 53.77777777777778)"/><path d="M404 570c19.88 0 36 26.86 36 60s-16.12 60-36 60H116c-19.88 0-36-26.86-36-60s16.12-60 36-60z" stroke="#5e5e5e" stroke-width="3" fill="#fff"/><path d="M404 690c-19.88 0-36-26.86-36-60s16.12-60 36-60" stroke="#5e5e5e" stroke-width="3" fill="none"/><use xlink:href="#c" transform="matrix(1,0,0,1,85,575) translate(110.60493827160494 59.02777777777778)"/><path d="M170 806c0-3.3 2.7-6 6-6h168c3.3 0 6 2.7 6 6v108c0 3.3-2.7 6-6 6H176c-3.3 0-6-2.7-6-6z" stroke="#5e5e5e" stroke-width="3" fill="#fff"/><use xlink:href="#d" transform="matrix(1,0,0,1,182,812) translate(28.617283950617285 53.77777777777778)"/><use xlink:href="#b" transform="matrix(1,0,0,1,182,812) translate(91.58024691358025 53.77777777777778)"/><path d="M600 346c0-3.3 2.7-6 6-6h168c3.3 0 6 2.7 6 6v108c0 3.3-2.7 6-6 6H606c-3.3 0-6-2.7-6-6z" stroke="#5e5e5e" stroke-width="3" fill="#fff"/><use xlink:href="#e" transform="matrix(1,0,0,1,612,352) translate(53.55555555555556 53.77777777777778)"/><path d="M320 1138c0 6.63-26.86 12-60 12s-60-5.37-60-12v-96c0-6.63 26.86-12 60-12s60 5.37 60 12z" stroke="#5e5e5e" stroke-width="3" fill="#fff"/><path d="M320 1042c0 6.63-26.86 12-60 12s-60-5.37-60-12" stroke="#5e5e5e" stroke-width="3" fill="none"/><use xlink:href="#f" transform="matrix(1,0,0,1,205,1059) translate(7.5 47.34027777777778)"/><path d="M261 320h-2v-74.08h2zm0-127.42h-2V101h2zM260 335.26L255.36 321h9.28z" fill="#5e5e5e"/><path d="M260 338.5l-6-18.5h12zm-3.26-16.5l3.26 10.03 3.26-10.03zM261 101.03h-2V100h2z" fill="#5e5e5e"/><use xlink:href="#g" transform="matrix(1,0,0,1,208.2716049382716,192.58333333333334) translate(11.702530864197527 17.77777777777778)"/><use xlink:href="#h" transform="matrix(1,0,0,1,208.2716049382716,192.58333333333334) translate(0.005000000000002558 44.44444444444444)"/><use xlink:href="#i" transform="matrix(1,0,0,1,208.2716049382716,192.58333333333334) translate(57.906234567901244 44.44444444444444)"/><path d="M423.27 369.72H352.5v-2h70.77zm156.73 0h-53.27v-2H580z" fill="#5e5e5e"/><path d="M352.53 369.72h-1.03v-2h1.03zM595.26 368.72L581 373.35v-9.27z" fill="#5e5e5e"/><path d="M598.5 368.72l-18.5 6v-12zm-16.5 3.26l10.03-3.26-10.03-3.26z" fill="#5e5e5e"/><use xlink:href="#h" transform="matrix(1,0,0,1,423.2716049382716,355.38438488315643) translate(0 17.77777777777778)"/><use xlink:href="#i" transform="matrix(1,0,0,1,423.2716049382716,355.38438488315643) translate(57.90123456790124 17.77777777777778)"/><path d="M261 550h-2v-21.67h2zm0-48.33h-2V462.5h2z" fill="#5e5e5e"/><path d="M261 462.53h-2v-1.03h2zM260 565.26L255.36 551h9.28z" fill="#5e5e5e"/><path d="M260 568.5l-6-18.5h12zm-3.26-16.5l3.26 10.03 3.26-10.03z" fill="#5e5e5e"/><use xlink:href="#j" transform="matrix(1,0,0,1,181.17283950617286,501.6666666666667) translate(0 17.77777777777778)"/><use xlink:href="#i" transform="matrix(1,0,0,1,181.17283950617286,501.6666666666667) translate(112.09876543209876 17.77777777777778)"/><path d="M261 780h-2v-21.67h2zm0-48.33h-2V692.5h2z" fill="#5e5e5e"/><path d="M261 692.53h-2v-1.03h2zM260 795.26L255.36 781h9.28z" fill="#5e5e5e"/><path d="M260 798.5l-6-18.5h12zm-3.26-16.5l3.26 10.03 3.26-10.03z" fill="#5e5e5e"/><use xlink:href="#j" transform="matrix(1,0,0,1,181.17283950617286,731.6666666666666) translate(0 17.77777777777778)"/><use xlink:href="#i" transform="matrix(1,0,0,1,181.17283950617286,731.6666666666666) translate(112.09876543209876 17.77777777777778)"/><path d="M261 1010h-2v-21.67h2zm0-48.33h-2V922.5h2z" fill="#5e5e5e"/><path d="M261 922.53h-2v-1.03h2zM260 1025.26l-4.64-14.26h9.28z" fill="#5e5e5e"/><path d="M260 1028.5l-6-18.5h12zm-3.26-16.5l3.26 10.03 3.26-10.03z" fill="#5e5e5e"/><use xlink:href="#j" transform="matrix(1,0,0,1,181.17283950617286,961.6662280113152) translate(0 17.77777777777778)"/><use xlink:href="#i" transform="matrix(1,0,0,1,181.17283950617286,961.6662280113152) translate(112.09876543209876 17.77777777777778)"/><path d="M396.17 424.88H370v-2h26.17zm201.33 0h-43.67v-2h43.67z" fill="#5e5e5e"/><path d="M598.5 424.88h-1.03v-2h1.03zM369 428.5l-14.26-4.62 14.26-4.64z" fill="#5e5e5e"/><path d="M370 429.9l-18.5-6.02 18.5-6zm-12.03-6.02l10.03 3.26v-6.52z" fill="#5e5e5e"/><use xlink:href="#j" transform="matrix(1,0,0,1,396.17283950617286,410.54429735231435) translate(0 17.77777777777778)"/><use xlink:href="#i" transform="matrix(1,0,0,1,396.17283950617286,410.54429735231435) translate(112.09876543209876 17.77777777777778)"/><path d="M1170 346c0-3.3 2.7-6 6-6h168c3.3 0 6 2.7 6 6v108c0 3.3-2.7 6-6 6h-168c-3.3 0-6-2.7-6-6z" stroke="#5e5e5e" stroke-width="3" fill="#fff"/><use xlink:href="#a" transform="matrix(1,0,0,1,1182,352) translate(34.2037037037037 53.77777777777778)"/><use xlink:href="#b" transform="matrix(1,0,0,1,1182,352) translate(85.99382716049382 53.77777777777778)"/><path d="M1404 570c19.88 0 36 26.86 36 60s-16.12 60-36 60h-288c-19.88 0-36-26.86-36-60s16.12-60 36-60z" stroke="#5e5e5e" stroke-width="3" fill="#fff"/><path d="M1404 690c-19.88 0-36-26.86-36-60s16.12-60 36-60" stroke="#5e5e5e" stroke-width="3" fill="none"/><use xlink:href="#c" transform="matrix(1,0,0,1,1085,575) translate(110.60493827160494 59.02777777777778)"/><path d="M1170 806c0-3.3 2.7-6 6-6h168c3.3 0 6 2.7 6 6v108c0 3.3-2.7 6-6 6h-168c-3.3 0-6-2.7-6-6z" stroke="#5e5e5e" stroke-width="3" fill="#fff"/><use xlink:href="#d" transform="matrix(1,0,0,1,1182,812) translate(28.617283950617285 53.77777777777778)"/><use xlink:href="#b" transform="matrix(1,0,0,1,1182,812) translate(91.58024691358025 53.77777777777778)"/><path d="M1600 346c0-3.3 2.7-6 6-6h168c3.3 0 6 2.7 6 6v108c0 3.3-2.7 6-6 6h-168c-3.3 0-6-2.7-6-6z" stroke="#5e5e5e" stroke-width="3" fill="#fff"/><use xlink:href="#e" transform="matrix(1,0,0,1,1612,352) translate(53.55555555555556 53.77777777777778)"/><path d="M1320 1138c0 6.63-26.86 12-60 12s-60-5.37-60-12v-96c0-6.63 26.86-12 60-12s60 5.37 60 12z" stroke="#5e5e5e" stroke-width="3" fill="#fff"/><path d="M1320 1042c0 6.63-26.86 12-60 12s-60-5.37-60-12" stroke="#5e5e5e" stroke-width="3" fill="none"/><use xlink:href="#f" transform="matrix(1,0,0,1,1205,1059) translate(7.5 47.34027777777778)"/><path d="M1261 337.5h-2v-91.58h2zm0-144.92h-2V118.5h2z" fill="#5e5e5e"/><path d="M1261 338.5h-2v-1.03h2zM1264.64 117.5h-9.28l4.64-14.26z" fill="#5e5e5e"/><path d="M1266 118.5h-12l6-18.5zm-9.26-2h6.52l-3.26-10.03z" fill="#5e5e5e"/><use xlink:href="#g" transform="matrix(1,0,0,1,1208.2716049382716,192.58333333333334) translate(11.702530864197527 17.77777777777778)"/><use xlink:href="#h" transform="matrix(1,0,0,1,1208.2716049382716,192.58333333333334) translate(0.005000000000002558 44.44444444444444)"/><use xlink:href="#i" transform="matrix(1,0,0,1,1208.2716049382716,192.58333333333334) translate(57.906234567901244 44.44444444444444)"/><path d="M1423.27 369.72H1370v-2h53.27zm174.23 0h-70.77v-2h70.77zM1369 373.35l-14.26-4.63 14.26-4.64z" fill="#5e5e5e"/><path d="M1370 374.73l-18.5-6 18.5-6.02zm-12.03-6l10.03 3.25v-6.52zM1598.5 369.72h-1.03v-2h1.03z" fill="#5e5e5e"/><use xlink:href="#h" transform="matrix(1,0,0,1,1423.2716049382716,355.38438488315643) translate(0 17.77777777777778)"/><use xlink:href="#i" transform="matrix(1,0,0,1,1423.2716049382716,355.38438488315643) translate(57.90123456790124 17.77777777777778)"/><path d="M1261 567.5h-2v-39.17h2zm0-65.83h-2V480h2zM1264.64 479h-9.28l4.64-14.26z" fill="#5e5e5e"/><path d="M1266 480h-12l6-18.5zm-9.26-2h6.52l-3.26-10.03zM1261 568.5h-2v-1.03h2z" fill="#5e5e5e"/><use xlink:href="#j" transform="matrix(1,0,0,1,1181.1728395061727,501.6666666666667) translate(0 17.77777777777778)"/><use xlink:href="#i" transform="matrix(1,0,0,1,1181.1728395061727,501.6666666666667) translate(112.09876543209876 17.77777777777778)"/><path d="M1261 797.5h-2v-39.17h2zm0-65.83h-2V710h2zM1264.64 709h-9.28l4.64-14.26z" fill="#5e5e5e"/><path d="M1266 710h-12l6-18.5zm-9.26-2h6.52l-3.26-10.03zM1261 798.5h-2v-1.03h2z" fill="#5e5e5e"/><use xlink:href="#j" transform="matrix(1,0,0,1,1181.1728395061727,731.6666666666666) translate(0 17.77777777777778)"/><use xlink:href="#i" transform="matrix(1,0,0,1,1181.1728395061727,731.6666666666666) translate(112.09876543209876 17.77777777777778)"/><path d="M1261 1027.5h-2v-39.17h2zm0-65.83h-2V940h2zM1264.64 939h-9.28l4.64-14.26z" fill="#5e5e5e"/><path d="M1266 940h-12l6-18.5zm-9.26-2h6.52l-3.26-10.03zM1261 1028.54l-1-.04-1 .03v-1.06h2z" fill="#5e5e5e"/><use xlink:href="#j" transform="matrix(1,0,0,1,1181.1728395061727,961.6662280113152) translate(0 17.77777777777778)"/><use xlink:href="#i" transform="matrix(1,0,0,1,1181.1728395061727,961.6662280113152) translate(112.09876543209876 17.77777777777778)"/><path d="M1396.17 424.88h-43.67v-2h43.67zm183.83 0h-26.17v-2H1580zM1595.26 423.88L1581 428.5v-9.26z" fill="#5e5e5e"/><path d="M1598.5 423.88l-18.5 6v-12zm-16.5 3.26l10.03-3.26-10.03-3.26zM1352.53 424.88h-1.03v-2h1.03z" fill="#5e5e5e"/><use xlink:href="#j" transform="matrix(1,0,0,1,1396.1728395061727,410.54429735231435) translate(0 17.77777777777778)"/><use xlink:href="#i" transform="matrix(1,0,0,1,1396.1728395061727,410.54429735231435) translate(112.09876543209876 17.77777777777778)"/><path d="M630.2 380c-5.72 0-10.47 4.54-10.47 10 0 4.54 3.03 8.2 7.03 9.45l-2.28 2.36 2.86 2.38-2.86 2.54 2.86 2.36-2.86 2.74 5.7 5.1 4.75-4.74V398.9c3.43-1.8 5.7-5.1 5.7-9.08 0-5.46-4.73-9.82-10.44-9.82zm1.9 7.27s-.4 0-.58.37c0 0-.4.37-.58.37h-1.7l-.4-.36-.37-.55v-1.64l.38-.37.58-.38h1.7l.4.37.37.55v1.62z" stroke="#000" stroke-opacity="0" stroke-width="6.25" fill="#fcd116"/><path d="M631.14 400v13.1l1.9-1.83v-11.63c-.66.18-1.22.3-1.9.36z" stroke="#000" stroke-opacity="0" stroke-width="6.25" fill="#ff8c00" fill-opacity=".4"/><path d="M630.2 396.36c3.35.04 6.16-2.27 6.64-5.45h-13.3c.47 3.2 3.28 5.5 6.65 5.46z" stroke="#000" stroke-opacity="0" stroke-width="6.25" fill="#fff" fill-opacity=".4"/><path d="M641.4 385.1c.56 1.07.76 1.8.96 3.1 3.8 3.42 5.75 7.7 5.7 12.7 0 9.47-8.17 17.28-18.07 17.28-9.87 0-17.86-7.8-17.86-17.28-.04-5 1.88-9.28 5.67-12.7l1.17-3.1c-5.67 3.66-8.75 9.28-8.75 15.8 0 10.55 8.95 19.1 19.97 19.1 11 0 19.95-8.55 19.95-19.1 0-6.52-3.44-12.35-8.75-15.8z" stroke="#000" stroke-opacity="0" stroke-width="6.25" fill="#7fba00"/><path d="M630.26 381.8c11.02 0 19.96 8.55 19.96 19.07s-8.94 19.05-19.96 19.05c-11 0-19.95-8.53-19.95-19.05 0-10.52 8.95-19.06 19.96-19.06z" stroke="#000" stroke-opacity="0" stroke-width=".01" fill-opacity="0"/><g><use xlink:href="#k" transform="matrix(1,0,0,1,580.2241549382119,429) translate(32 14.4)"/><use xlink:href="#l" transform="matrix(1,0,0,1,580.2241549382119,429) translate(37 14.4)"/></g><path d="M1631.17 380c-5.7 0-10.46 4.54-10.46 10 0 4.54 3.05 8.2 7.04 9.45l-2.28 2.36 2.87 2.38-2.87 2.54 2.87 2.36-2.87 2.74 5.7 5.1 4.76-4.74V398.9c3.43-1.8 5.7-5.1 5.7-9.08 0-5.46-4.74-9.82-10.45-9.82zm1.9 7.27s-.37 0-.56.37c0 0-.4.37-.58.37h-1.7l-.4-.36-.37-.55v-1.64l.38-.37.6-.38h1.68l.4.37.38.55v1.62z" stroke="#000" stroke-opacity="0" stroke-width="6.25" fill="#fcd116"/><path d="M1632.12 400v13.1l1.9-1.83v-11.63c-.65.18-1.22.3-1.9.36z" stroke="#000" stroke-opacity="0" stroke-width="6.25" fill="#ff8c00" fill-opacity=".4"/><path d="M1631.17 396.36c3.37.04 6.17-2.27 6.65-5.45h-13.3c.47 3.2 3.28 5.5 6.65 5.46z" stroke="#000" stroke-opacity="0" stroke-width="6.25" fill="#fff" fill-opacity=".4"/><path d="M1642.4 385.1c.55 1.07.75 1.8.95 3.1 3.8 3.42 5.74 7.7 5.7 12.7 0 9.47-8.18 17.28-18.08 17.28-9.86 0-17.85-7.8-17.85-17.28-.04-5 1.88-9.28 5.67-12.7l1.15-3.1c-5.67 3.66-8.74 9.28-8.74 15.8 0 10.55 8.95 19.1 19.97 19.1s19.96-8.55 19.96-19.1c0-6.52-3.43-12.35-8.74-15.8z" stroke="#000" stroke-opacity="0" stroke-width="6.25" fill="#7fba00"/><path d="M1631.25 381.8c11.02 0 19.96 8.55 19.96 19.07s-8.93 19.05-19.95 19.05-19.96-8.53-19.96-19.05c0-10.52 8.93-19.06 19.95-19.06z" stroke="#000" stroke-opacity="0" stroke-width=".01" fill-opacity="0"/><g><use xlink:href="#k" transform="matrix(1,0,0,1,1581.2073743490907,429) translate(32 14.4)"/><use xlink:href="#l" transform="matrix(1,0,0,1,1581.2073743490907,429) translate(37 14.4)"/></g><path d="M940 52.42v4m0 8.02v8m0 8.02v8.02m0 8v8.02m0 8.02v8m0 8.02v8.02m0 8v8.02m0 8v8.03m0 8.02v8m0 8.03v8m0 8.02v8.02m0 8v8m0 8.03v8m0 8.02v8.02m0 8v8.02m0 8v8.02m0 8v8.02m0 8.02v8m0 8.02v8.02m0 8v8.02m0 8.02v8m0 8.02v8.02m0 8V409m0 8.02v8m0 8.02v8.02m0 8v8.02m0 8v8.03m0 8.02v8m0 8.03v8m0 8.02v8.02m0 8v8m0 8.03v8m0 8.02v8.02m0 8v8.02m0 8v8.02m0 8v8.02m0 8.02v8m0 8.02v8.02m0 8v8.02m0 8.02v8m0 8.02v8.02m0 8v8.02m0 8.02v8m0 8.02v8.02m0 8v8.02m0 8v8.03m0 8.02v8m0 8.03v8m0 8.02v8.02m0 8v8m0 8.03v8m0 8.02v8.02m0 8v8.02m0 8v8.02m0 8v8.02m0 8.02v8m0 8.02v8.02m0 8v8.02m0 8.02v8m0 8.02v8.02m0 8v8.02m0 8.02v8m0 8.02v8.02m0 8v8.02m0 8v8.03m0 8.02v8m0 8.03v8m0 8.02v8.02m0 8v8m0 8.03v8m0 8.02v8.02m0 8v8.02m0 8v8.02m0 8v8.02m0 8.02v8m0 8.02v8.02m0 8v4.02M940 52.44v-1.02M940 1270.4v1.02" stroke="#5e5e5e" stroke-width="2" fill="none"/><path d="M410.22 1206c0-3.3 2.7-6 6-6h228c3.32 0 6 2.7 6 6v48c0 3.3-2.68 6-6 6h-228c-3.3 0-6-2.7-6-6z" stroke="#000" stroke-opacity="0" stroke-width="3" fill="#fff" fill-opacity="0"/><g><use xlink:href="#m" transform="matrix(1,0,0,1,415.2241549382119,1205) translate(36.74074074074075 30.708333333333332)"/></g><path d="M1420 1206c0-3.3 2.7-6 6-6h228c3.3 0 6 2.7 6 6v48c0 3.3-2.7 6-6 6h-228c-3.3 0-6-2.7-6-6z" stroke="#000" stroke-opacity="0" stroke-width="3" fill="#fff" fill-opacity="0"/><g><use xlink:href="#n" transform="matrix(1,0,0,1,1425,1205) translate(76.51851851851853 30.708333333333332)"/></g><defs><path fill="#333" d="M233-177c-1 41-23 64-60 70L243 0h-38l-65-103H63V0H30v-248c88 3 205-21 203 71zM63-129c60-2 137 13 137-47 0-61-80-42-137-45v92" id="o"/><path fill="#333" d="M100-194c63 0 86 42 84 106H49c0 40 14 67 53 68 26 1 43-12 49-29l28 8c-11 28-37 45-77 45C44 4 14-33 15-96c1-61 26-98 85-98zm52 81c6-60-76-77-97-28-3 7-6 17-6 28h103" id="p"/><path fill="#333" d="M135-143c-3-34-86-38-87 0 15 53 115 12 119 90S17 21 10-45l28-5c4 36 97 45 98 0-10-56-113-15-118-90-4-57 82-63 122-42 12 7 21 19 24 35" id="q"/><path fill="#333" d="M59-47c-2 24 18 29 38 22v24C64 9 27 4 27-40v-127H5v-23h24l9-43h21v43h35v23H59v120" id="r"/><g id="a"><use transform="matrix(0.06172839506172839,0,0,0.06172839506172839,0,0)" xlink:href="#o"/><use transform="matrix(0.06172839506172839,0,0,0.06172839506172839,15.987654320987653,0)" xlink:href="#p"/><use transform="matrix(0.06172839506172839,0,0,0.06172839506172839,28.333333333333332,0)" xlink:href="#q"/><use transform="matrix(0.06172839506172839,0,0,0.06172839506172839,39.44444444444444,0)" xlink:href="#r"/></g><path fill="#333" d="M205 0l-28-72H64L36 0H1l101-248h38L239 0h-34zm-38-99l-47-123c-12 45-31 82-46 123h93" id="s"/><path fill="#333" d="M30-248c87 1 191-15 191 75 0 78-77 80-158 76V0H30v-248zm33 125c57 0 124 11 124-50 0-59-68-47-124-48v98" id="t"/><path fill="#333" d="M33 0v-248h34V0H33" id="u"/><g id="b"><use transform="matrix(0.06172839506172839,0,0,0.06172839506172839,0,0)" xlink:href="#s"/><use transform="matrix(0.06172839506172839,0,0,0.06172839506172839,14.814814814814813,0)" xlink:href="#t"/><use transform="matrix(0.06172839506172839,0,0,0.06172839506172839,29.629629629629626,0)" xlink:href="#u"/></g><path fill="#333" d="M194 0L95-120 63-95V0H30v-248h33v124l119-124h40L117-140 236 0h-42" id="v"/><path fill="#333" d="M141-36C126-15 110 5 73 4 37 3 15-17 15-53c-1-64 63-63 125-63 3-35-9-54-41-54-24 1-41 7-42 31l-33-3c5-37 33-52 76-52 45 0 72 20 72 64v82c-1 20 7 32 28 27v20c-31 9-61-2-59-35zM48-53c0 20 12 33 32 33 41-3 63-29 60-74-43 2-92-5-92 41" id="w"/><path fill="#333" d="M101-234c-31-9-42 10-38 44h38v23H63V0H32v-167H5v-23h27c-7-52 17-82 69-68v24" id="x"/><path fill="#333" d="M143 0L79-87 56-68V0H24v-261h32v163l83-92h37l-77 82L181 0h-38" id="y"/><g id="c"><use transform="matrix(0.06172839506172839,0,0,0.06172839506172839,0,0)" xlink:href="#v"/><use transform="matrix(0.06172839506172839,0,0,0.06172839506172839,14.814814814814813,0)" xlink:href="#w"/><use transform="matrix(0.06172839506172839,0,0,0.06172839506172839,27.160493827160494,0)" xlink:href="#x"/><use transform="matrix(0.06172839506172839,0,0,0.06172839506172839,33.333333333333336,0)" xlink:href="#y"/><use transform="matrix(0.06172839506172839,0,0,0.06172839506172839,44.44444444444444,0)" xlink:href="#w"/></g><g id="d"><use transform="matrix(0.06172839506172839,0,0,0.06172839506172839,0,0)" xlink:href="#v"/><use transform="matrix(0.06172839506172839,0,0,0.06172839506172839,14.814814814814813,0)" xlink:href="#w"/><use transform="matrix(0.06172839506172839,0,0,0.06172839506172839,27.160493827160494,0)" xlink:href="#x"/><use transform="matrix(0.06172839506172839,0,0,0.06172839506172839,33.333333333333336,0)" xlink:href="#y"/><use transform="matrix(0.06172839506172839,0,0,0.06172839506172839,44.44444444444444,0)" xlink:href="#w"/></g><path fill="#333" d="M137 0h-34L2-248h35l83 218 83-218h36" id="z"/><path fill="#333" d="M84 4C-5 8 30-112 23-190h32v120c0 31 7 50 39 49 72-2 45-101 50-169h31l1 190h-30c-1-10 1-25-2-33-11 22-28 36-60 37" id="A"/><path fill="#333" d="M24 0v-261h32V0H24" id="B"/><g id="e"><use transform="matrix(0.06172839506172839,0,0,0.06172839506172839,0,0)" xlink:href="#z"/><use transform="matrix(0.06172839506172839,0,0,0.06172839506172839,13.148148148148147,0)" xlink:href="#w"/><use transform="matrix(0.06172839506172839,0,0,0.06172839506172839,25.493827160493826,0)" xlink:href="#A"/><use transform="matrix(0.06172839506172839,0,0,0.06172839506172839,37.839506172839506,0)" xlink:href="#B"/><use transform="matrix(0.06172839506172839,0,0,0.06172839506172839,42.71604938271605,0)" xlink:href="#r"/></g><path fill="#333" d="M30-248c118-7 216 8 213 122C240-48 200 0 122 0H30v-248zM63-27c89 8 146-16 146-99s-60-101-146-95v194" id="C"/><path fill="#333" d="M115-194c53 0 69 39 70 98 0 66-23 100-70 100C84 3 66-7 56-30L54 0H23l1-261h32v101c10-23 28-34 59-34zm-8 174c40 0 45-34 45-75 0-40-5-75-45-74-42 0-51 32-51 76 0 43 10 73 51 73" id="D"/><g id="f"><use transform="matrix(0.06172839506172839,0,0,0.06172839506172839,0,0)" xlink:href="#C"/><use transform="matrix(0.06172839506172839,0,0,0.06172839506172839,15.987654320987653,0)" xlink:href="#w"/><use transform="matrix(0.06172839506172839,0,0,0.06172839506172839,28.333333333333332,0)" xlink:href="#r"/><use transform="matrix(0.06172839506172839,0,0,0.06172839506172839,34.50617283950617,0)" xlink:href="#w"/><use transform="matrix(0.06172839506172839,0,0,0.06172839506172839,46.85185185185185,0)" xlink:href="#D"/><use transform="matrix(0.06172839506172839,0,0,0.06172839506172839,59.197530864197525,0)" xlink:href="#w"/><use transform="matrix(0.06172839506172839,0,0,0.06172839506172839,71.5432098765432,0)" xlink:href="#q"/><use transform="matrix(0.06172839506172839,0,0,0.06172839506172839,82.65432098765432,0)" xlink:href="#p"/></g><path fill="#333" d="M135-150c-39-12-60 13-60 57V0H25l-1-190h47c2 13-1 29 3 40 6-28 27-53 61-41v41" id="E"/><path fill="#333" d="M185-48c-13 30-37 53-82 52C43 2 14-33 14-96s30-98 90-98c62 0 83 45 84 108H66c0 31 8 55 39 56 18 0 30-7 34-22zm-45-69c5-46-57-63-70-21-2 6-4 13-4 21h74" id="F"/><path fill="#333" d="M84 4C32 4 15-41 15-95c0-55 18-99 73-99 29 0 47 12 58 34l2-30h48l-1 265h-49V-32C136-9 114 4 84 4zm21-34c32 0 41-29 41-66 0-36-9-64-40-64-33 0-39 30-40 65 0 43 13 65 39 65" id="G"/><path fill="#333" d="M85 4C-2 5 27-109 22-190h50c7 57-23 150 33 157 60-5 35-97 40-157h50l1 190h-47c-2-12 1-28-3-38-12 25-28 42-61 42" id="H"/><path fill="#333" d="M137-138c1-29-70-34-71-4 15 46 118 7 119 86 1 83-164 76-172 9l43-7c4 19 20 25 44 25 33 8 57-30 24-41C81-84 22-81 20-136c-2-80 154-74 161-7" id="I"/><path fill="#333" d="M115-3C79 11 28 4 28-45v-112H4v-33h27l15-45h31v45h36v33H77v99c-1 23 16 31 38 25v30" id="J"/><g id="g"><use transform="matrix(0.06172839506172839,0,0,0.06172839506172839,0,0)" xlink:href="#E"/><use transform="matrix(0.06172839506172839,0,0,0.06172839506172839,8.641975308641975,0)" xlink:href="#F"/><use transform="matrix(0.06172839506172839,0,0,0.06172839506172839,20.98765432098765,0)" xlink:href="#G"/><use transform="matrix(0.06172839506172839,0,0,0.06172839506172839,34.50617283950617,0)" xlink:href="#H"/><use transform="matrix(0.06172839506172839,0,0,0.06172839506172839,48.02469135802469,0)" xlink:href="#F"/><use transform="matrix(0.06172839506172839,0,0,0.06172839506172839,60.37037037037037,0)" xlink:href="#I"/><use transform="matrix(0.06172839506172839,0,0,0.06172839506172839,72.71604938271605,0)" xlink:href="#J"/></g><path fill="#333" d="M135-194c53 0 70 44 70 98 0 56-19 98-73 100-31 1-45-17-59-34 3 33 2 69 2 105H25l-1-265h48c2 10 0 23 3 31 11-24 29-35 60-35zM114-30c33 0 39-31 40-66 0-38-9-64-40-64-56 0-55 130 0 130" id="K"/><path fill="#333" d="M25 0v-261h50V0H25" id="L"/><path fill="#333" d="M133-34C117-15 103 5 69 4 32 3 11-16 11-54c-1-60 55-63 116-61 1-26-3-47-28-47-18 1-26 9-28 27l-52-2c7-38 36-58 82-57s74 22 75 68l1 82c-1 14 12 18 25 15v27c-30 8-71 5-69-32zm-48 3c29 0 43-24 42-57-32 0-66-3-65 30 0 17 8 27 23 27" id="M"/><path fill="#333" d="M25-224v-37h50v37H25zM25 0v-190h50V0H25" id="N"/><path fill="#333" d="M135-194c87-1 58 113 63 194h-50c-7-57 23-157-34-157-59 0-34 97-39 157H25l-1-190h47c2 12-1 28 3 38 12-26 28-41 61-42" id="O"/><g id="h"><use transform="matrix(0.06172839506172839,0,0,0.06172839506172839,0,0)" xlink:href="#K"/><use transform="matrix(0.06172839506172839,0,0,0.06172839506172839,13.518518518518517,0)" xlink:href="#L"/><use transform="matrix(0.06172839506172839,0,0,0.06172839506172839,19.691358024691358,0)" xlink:href="#M"/><use transform="matrix(0.06172839506172839,0,0,0.06172839506172839,32.03703703703704,0)" xlink:href="#N"/><use transform="matrix(0.06172839506172839,0,0,0.06172839506172839,38.20987654320988,0)" xlink:href="#O"/></g><path fill="#333" d="M88-194c31-1 46 15 58 34l-1-101h50l1 261h-48c-2-10 0-23-3-31C134-8 116 4 84 4 32 4 16-41 15-95c0-56 19-97 73-99zm17 164c33 0 40-30 41-66 1-37-9-64-41-64s-38 30-39 65c0 43 13 65 39 65" id="P"/><g id="i"><use transform="matrix(0.06172839506172839,0,0,0.06172839506172839,0,0)" xlink:href="#P"/><use transform="matrix(0.06172839506172839,0,0,0.06172839506172839,13.518518518518517,0)" xlink:href="#M"/><use transform="matrix(0.06172839506172839,0,0,0.06172839506172839,25.864197530864196,0)" xlink:href="#J"/><use transform="matrix(0.06172839506172839,0,0,0.06172839506172839,33.20987654320987,0)" xlink:href="#M"/></g><path fill="#333" d="M190-63c-7 42-38 67-86 67-59 0-84-38-90-98-12-110 154-137 174-36l-49 2c-2-19-15-32-35-32-30 0-35 28-38 64-6 74 65 87 74 30" id="Q"/><path fill="#333" d="M123 10C108 53 80 86 19 72V37c35 8 53-11 59-39L3-190h52l48 148c12-52 28-100 44-148h51" id="R"/><g id="j"><use transform="matrix(0.06172839506172839,0,0,0.06172839506172839,0,0)" xlink:href="#F"/><use transform="matrix(0.06172839506172839,0,0,0.06172839506172839,12.345679012345679,0)" xlink:href="#O"/><use transform="matrix(0.06172839506172839,0,0,0.06172839506172839,25.864197530864196,0)" xlink:href="#Q"/><use transform="matrix(0.06172839506172839,0,0,0.06172839506172839,38.20987654320987,0)" xlink:href="#E"/><use transform="matrix(0.06172839506172839,0,0,0.06172839506172839,46.85185185185185,0)" xlink:href="#R"/><use transform="matrix(0.06172839506172839,0,0,0.06172839506172839,59.197530864197525,0)" xlink:href="#K"/><use transform="matrix(0.06172839506172839,0,0,0.06172839506172839,72.71604938271604,0)" xlink:href="#J"/><use transform="matrix(0.06172839506172839,0,0,0.06172839506172839,80.06172839506172,0)" xlink:href="#F"/><use transform="matrix(0.06172839506172839,0,0,0.06172839506172839,92.4074074074074,0)" xlink:href="#P"/></g><path d="M194 0L95-120 63-95V0H30v-248h33v124l119-124h40L117-140 236 0h-42" id="S"/><path d="M100-194c63 0 86 42 84 106H49c0 40 14 67 53 68 26 1 43-12 49-29l28 8c-11 28-37 45-77 45C44 4 14-33 15-96c1-61 26-98 85-98zm52 81c6-60-76-77-97-28-3 7-6 17-6 28h103" id="T"/><path d="M179-190L93 31C79 59 56 82 12 73V49c39 6 53-20 64-50L1-190h34L92-34l54-156h33" id="U"/><g id="l"><use transform="matrix(0.05,0,0,0.05,0,0)" xlink:href="#S"/><use transform="matrix(0.05,0,0,0.05,12,0)" xlink:href="#T"/><use transform="matrix(0.05,0,0,0.05,22,0)" xlink:href="#U"/></g><path fill="#333" d="M230 0l2-204L168 0h-37L68-204 70 0H24v-248h70l56 185 57-185h69V0h-46" id="V"/><path fill="#333" d="M110-194c64 0 96 36 96 99 0 64-35 99-97 99-61 0-95-36-95-99 0-62 34-99 96-99zm-1 164c35 0 45-28 45-65 0-40-10-65-43-65-34 0-45 26-45 65 0 36 10 65 43 65" id="W"/><path fill="#333" d="M121-226c-27-7-43 5-38 36h38v33H83V0H34v-157H6v-33h28c-9-59 32-81 87-68v32" id="X"/><g id="m"><use transform="matrix(0.07407407407407407,0,0,0.07407407407407407,0,0)" xlink:href="#V"/><use transform="matrix(0.07407407407407407,0,0,0.07407407407407407,22.148148148148145,0)" xlink:href="#W"/><use transform="matrix(0.07407407407407407,0,0,0.07407407407407407,38.37037037037037,0)" xlink:href="#P"/><use transform="matrix(0.07407407407407407,0,0,0.07407407407407407,54.59259259259259,0)" xlink:href="#N"/><use transform="matrix(0.07407407407407407,0,0,0.07407407407407407,62,0)" xlink:href="#X"/><use transform="matrix(0.07407407407407407,0,0,0.07407407407407407,70.81481481481481,0)" xlink:href="#N"/><use transform="matrix(0.07407407407407407,0,0,0.07407407407407407,78.22222222222221,0)" xlink:href="#Q"/><use transform="matrix(0.07407407407407407,0,0,0.07407407407407407,93.03703703703704,0)" xlink:href="#M"/><use transform="matrix(0.07407407407407407,0,0,0.07407407407407407,107.85185185185183,0)" xlink:href="#J"/><use transform="matrix(0.07407407407407407,0,0,0.07407407407407407,116.66666666666664,0)" xlink:href="#N"/><use transform="matrix(0.07407407407407407,0,0,0.07407407407407407,124.07407407407405,0)" xlink:href="#W"/><use transform="matrix(0.07407407407407407,0,0,0.07407407407407407,140.29629629629628,0)" xlink:href="#O"/></g><path fill="#333" d="M140-251c80 0 125 45 125 126 0 70-33 111-92 124 6 28 34 38 68 31l-1 36C177 83 129 55 120 2 51-6 15-50 15-125c0-81 44-126 125-126zm-1 214c52 0 73-35 73-88 0-50-21-86-72-86-52 0-73 35-73 86s22 88 72 88" id="Y"/><g id="n"><use transform="matrix(0.07407407407407407,0,0,0.07407407407407407,0,0)" xlink:href="#Y"/><use transform="matrix(0.07407407407407407,0,0,0.07407407407407407,20.74074074074074,0)" xlink:href="#H"/><use transform="matrix(0.07407407407407407,0,0,0.07407407407407407,36.96296296296296,0)" xlink:href="#F"/><use transform="matrix(0.07407407407407407,0,0,0.07407407407407407,51.77777777777777,0)" xlink:href="#E"/><use transform="matrix(0.07407407407407407,0,0,0.07407407407407407,62.14814814814814,0)" xlink:href="#R"/></g></defs></g></svg>