<?xml version="1.0" encoding="us-ascii" standalone="no"?><svg xmlns="http://www.w3.org/2000/svg" xmlns:xlink="http://www.w3.org/1999/xlink" contentStyleType="text/css" height="834px" preserveAspectRatio="none" style="width:1700px;height:834px;background:#FFFFFF;" version="1.1" viewBox="0 0 1700 834" width="1700px" zoomAndPan="magnify"><defs/><g><text fill="#000000" font-family="sans-serif" font-size="14" font-weight="bold" lengthAdjust="spacing" textLength="315" x="694.25" y="27.9951">Platform deployment sequence diagram</text><rect fill="none" height="191.9297" style="stroke:#000000;stroke-width:1.5;" width="873" x="10" y="135.5938"/><rect fill="none" height="394.8594" style="stroke:#000000;stroke-width:1.5;" width="1684.5" x="10" y="341.5234"/><line style="stroke:#181818;stroke-width:0.5;stroke-dasharray:5.0,5.0;" x1="98" x2="98" y1="118.5938" y2="753.3828"/><line style="stroke:#181818;stroke-width:0.5;stroke-dasharray:5.0,5.0;" x1="660" x2="660" y1="118.5938" y2="753.3828"/><line style="stroke:#181818;stroke-width:0.5;stroke-dasharray:5.0,5.0;" x1="805" x2="805" y1="118.5938" y2="753.3828"/><line style="stroke:#181818;stroke-width:0.5;stroke-dasharray:5.0,5.0;" x1="916" x2="916" y1="118.5938" y2="753.3828"/><line style="stroke:#181818;stroke-width:0.5;stroke-dasharray:5.0,5.0;" x1="1500.5" x2="1500.5" y1="118.5938" y2="753.3828"/><line style="stroke:#181818;stroke-width:0.5;stroke-dasharray:5.0,5.0;" x1="1600.5" x2="1600.5" y1="118.5938" y2="753.3828"/><line style="stroke:#181818;stroke-width:0.5;stroke-dasharray:5.0,5.0;" x1="1659.5" x2="1659.5" y1="118.5938" y2="753.3828"/><text fill="#000000" font-family="sans-serif" font-size="14" lengthAdjust="spacing" textLength="150" x="20" y="115.292">Platform administrator</text><ellipse cx="98" cy="50.7969" fill="#E2E2F0" rx="8" ry="8" style="stroke:#181818;stroke-width:0.5;"/><path d="M98,58.7969 L98,85.7969 M85,66.7969 L111,66.7969 M98,85.7969 L85,100.7969 M98,85.7969 L111,100.7969 " fill="none" style="stroke:#181818;stroke-width:0.5;"/><text fill="#000000" font-family="sans-serif" font-size="14" lengthAdjust="spacing" textLength="150" x="20" y="765.3779">Platform administrator</text><ellipse cx="98" cy="777.1797" fill="#E2E2F0" rx="8" ry="8" style="stroke:#181818;stroke-width:0.5;"/><path d="M98,785.1797 L98,812.1797 M85,793.1797 L111,793.1797 M98,812.1797 L85,827.1797 M98,812.1797 L111,827.1797 " fill="none" style="stroke:#181818;stroke-width:0.5;"/><rect fill="#E2E2F0" height="30.2969" rx="2.5" ry="2.5" style="stroke:#181818;stroke-width:0.5;" width="134" x="593" y="87.2969"/><text fill="#000000" font-family="sans-serif" font-size="14" lengthAdjust="spacing" textLength="120" x="600" y="107.292">Installation server</text><rect fill="#E2E2F0" height="30.2969" rx="2.5" ry="2.5" style="stroke:#181818;stroke-width:0.5;" width="134" x="593" y="752.3828"/><text fill="#000000" font-family="sans-serif" font-size="14" lengthAdjust="spacing" textLength="120" x="600" y="772.3779">Installation server</text><rect fill="#E2E2F0" height="30.2969" rx="2.5" ry="2.5" style="stroke:#181818;stroke-width:0.5;" width="136" x="737" y="87.2969"/><text fill="#000000" font-family="sans-serif" font-size="14" lengthAdjust="spacing" textLength="122" x="744" y="107.292">Installer container</text><rect fill="#E2E2F0" height="30.2969" rx="2.5" ry="2.5" style="stroke:#181818;stroke-width:0.5;" width="136" x="737" y="752.3828"/><text fill="#000000" font-family="sans-serif" font-size="14" lengthAdjust="spacing" textLength="122" x="744" y="772.3779">Installer container</text><rect fill="#E2E2F0" height="30.2969" rx="2.5" ry="2.5" style="stroke:#181818;stroke-width:0.5;" width="67" x="883" y="87.2969"/><text fill="#000000" font-family="sans-serif" font-size="14" lengthAdjust="spacing" textLength="53" x="890" y="107.292">Installer</text><rect fill="#E2E2F0" height="30.2969" rx="2.5" ry="2.5" style="stroke:#181818;stroke-width:0.5;" width="67" x="883" y="752.3828"/><text fill="#000000" font-family="sans-serif" font-size="14" lengthAdjust="spacing" textLength="53" x="890" y="772.3779">Installer</text><rect fill="#E2E2F0" height="30.2969" rx="2.5" ry="2.5" style="stroke:#181818;stroke-width:0.5;" width="132" x="1434.5" y="87.2969"/><text fill="#000000" font-family="sans-serif" font-size="14" lengthAdjust="spacing" textLength="118" x="1441.5" y="107.292">Openshift cluster</text><rect fill="#E2E2F0" height="30.2969" rx="2.5" ry="2.5" style="stroke:#181818;stroke-width:0.5;" width="132" x="1434.5" y="752.3828"/><text fill="#000000" font-family="sans-serif" font-size="14" lengthAdjust="spacing" textLength="118" x="1441.5" y="772.3779">Openshift cluster</text><rect fill="#E2E2F0" height="30.2969" rx="2.5" ry="2.5" style="stroke:#181818;stroke-width:0.5;" width="48" x="1576.5" y="87.2969"/><text fill="#000000" font-family="sans-serif" font-size="14" lengthAdjust="spacing" textLength="34" x="1583.5" y="107.292">Vault</text><rect fill="#E2E2F0" height="30.2969" rx="2.5" ry="2.5" style="stroke:#181818;stroke-width:0.5;" width="48" x="1576.5" y="752.3828"/><text fill="#000000" font-family="sans-serif" font-size="14" lengthAdjust="spacing" textLength="34" x="1583.5" y="772.3779">Vault</text><rect fill="#E2E2F0" height="30.2969" rx="2.5" ry="2.5" style="stroke:#181818;stroke-width:0.5;" width="50" x="1634.5" y="87.2969"/><text fill="#000000" font-family="sans-serif" font-size="14" lengthAdjust="spacing" textLength="36" x="1641.5" y="107.292">Minio</text><rect fill="#E2E2F0" height="30.2969" rx="2.5" ry="2.5" style="stroke:#181818;stroke-width:0.5;" width="50" x="1634.5" y="752.3828"/><text fill="#000000" font-family="sans-serif" font-size="14" lengthAdjust="spacing" textLength="36" x="1641.5" y="772.3779">Minio</text><path d="M10,135.5938 L340,135.5938 L340,142.7266 L330,152.7266 L10,152.7266 L10,135.5938 " fill="#EEEEEE" style="stroke:#000000;stroke-width:1.5;"/><rect fill="none" height="191.9297" style="stroke:#000000;stroke-width:1.5;" width="873" x="10" y="135.5938"/><text fill="#000000" font-family="sans-serif" font-size="13" font-weight="bold" lengthAdjust="spacing" textLength="285" x="25" y="148.6606">Preparing the Installer for deployment</text><polygon fill="#181818" points="648,169.8594,658,173.8594,648,177.8594,652,173.8594" style="stroke:#181818;stroke-width:1.0;"/><line style="stroke:#181818;stroke-width:1.0;" x1="98" x2="654" y1="173.8594" y2="173.8594"/><text fill="#000000" font-family="sans-serif" font-size="13" font-weight="bold" lengthAdjust="spacing" textLength="9" x="105" y="168.7935">1</text><text fill="#000000" font-family="sans-serif" font-size="13" lengthAdjust="spacing" textLength="210" x="118" y="168.7935">Downloading the Installer archive</text><polygon fill="#181818" points="648,198.9922,658,202.9922,648,206.9922,652,202.9922" style="stroke:#181818;stroke-width:1.0;"/><line style="stroke:#181818;stroke-width:1.0;" x1="98" x2="654" y1="202.9922" y2="202.9922"/><text fill="#000000" font-family="sans-serif" font-size="13" font-weight="bold" lengthAdjust="spacing" textLength="9" x="105" y="197.9263">2</text><text fill="#000000" font-family="sans-serif" font-size="13" lengthAdjust="spacing" textLength="290" x="118" y="197.9263">Downloading certificates digital-signature-ops</text><polygon fill="#181818" points="648,228.125,658,232.125,648,236.125,652,232.125" style="stroke:#181818;stroke-width:1.0;"/><line style="stroke:#181818;stroke-width:1.0;" x1="98" x2="654" y1="232.125" y2="232.125"/><text fill="#000000" font-family="sans-serif" font-size="13" font-weight="bold" lengthAdjust="spacing" textLength="9" x="105" y="227.0591">3</text><text fill="#000000" font-family="sans-serif" font-size="13" lengthAdjust="spacing" textLength="246" x="118" y="227.0591">Server readiness check (prerequisites)</text><polygon fill="#181818" points="793,257.2578,803,261.2578,793,265.2578,797,261.2578" style="stroke:#181818;stroke-width:1.0;"/><line style="stroke:#181818;stroke-width:1.0;" x1="98" x2="799" y1="261.2578" y2="261.2578"/><text fill="#000000" font-family="sans-serif" font-size="13" font-weight="bold" lengthAdjust="spacing" textLength="9" x="105" y="256.1919">4</text><text fill="#000000" font-family="sans-serif" font-size="13" lengthAdjust="spacing" textLength="173" x="118" y="256.1919">Authentication in Openshift</text><polygon fill="#181818" points="793,286.3906,803,290.3906,793,294.3906,797,290.3906" style="stroke:#181818;stroke-width:1.0;"/><line style="stroke:#181818;stroke-width:1.0;" x1="98" x2="799" y1="290.3906" y2="290.3906"/><text fill="#000000" font-family="sans-serif" font-size="13" font-weight="bold" lengthAdjust="spacing" textLength="9" x="105" y="285.3247">5</text><text fill="#000000" font-family="sans-serif" font-size="13" lengthAdjust="spacing" textLength="162" x="118" y="285.3247">Setting parameters (env)</text><polygon fill="#181818" points="793,315.5234,803,319.5234,793,323.5234,797,319.5234" style="stroke:#181818;stroke-width:1.0;"/><line style="stroke:#181818;stroke-width:1.0;" x1="98" x2="799" y1="319.5234" y2="319.5234"/><text fill="#000000" font-family="sans-serif" font-size="13" font-weight="bold" lengthAdjust="spacing" textLength="9" x="105" y="314.4575">6</text><text fill="#000000" font-family="sans-serif" font-size="13" lengthAdjust="spacing" textLength="226" x="118" y="314.4575">Launching the Installer (install.sh -i)</text><path d="M10,341.5234 L262,341.5234 L262,348.6563 L252,358.6563 L10,358.6563 L10,341.5234 " fill="#EEEEEE" style="stroke:#000000;stroke-width:1.5;"/><rect fill="none" height="394.8594" style="stroke:#000000;stroke-width:1.5;" width="1684.5" x="10" y="341.5234"/><text fill="#000000" font-family="sans-serif" font-size="13" font-weight="bold" lengthAdjust="spacing" textLength="207" x="25" y="354.5903">Deployment of the Platform</text><line style="stroke:#181818;stroke-width:1.0;" x1="916.5" x2="958.5" y1="379.7891" y2="379.7891"/><line style="stroke:#181818;stroke-width:1.0;" x1="958.5" x2="958.5" y1="379.7891" y2="392.7891"/><line style="stroke:#181818;stroke-width:1.0;" x1="917.5" x2="958.5" y1="392.7891" y2="392.7891"/><polygon fill="#181818" points="927.5,388.7891,917.5,392.7891,927.5,396.7891,923.5,392.7891" style="stroke:#181818;stroke-width:1.0;"/><text fill="#000000" font-family="sans-serif" font-size="13" font-weight="bold" lengthAdjust="spacing" textLength="9" x="923.5" y="374.7231">7</text><text fill="#000000" font-family="sans-serif" font-size="13" lengthAdjust="spacing" textLength="173" x="936.5" y="374.7231">Checking input parameters</text><polygon fill="#181818" points="1488.5,417.9219,1498.5,421.9219,1488.5,425.9219,1492.5,421.9219" style="stroke:#181818;stroke-width:1.0;"/><line style="stroke:#181818;stroke-width:1.0;" x1="916.5" x2="1494.5" y1="421.9219" y2="421.9219"/><text fill="#000000" font-family="sans-serif" font-size="13" font-weight="bold" lengthAdjust="spacing" textLength="9" x="923.5" y="416.856">8</text><text fill="#000000" font-family="sans-serif" font-size="13" lengthAdjust="spacing" textLength="152" x="936.5" y="416.856">Enable encryption ETCD</text><polygon fill="#181818" points="1488.5,462.1875,1498.5,466.1875,1488.5,470.1875,1492.5,466.1875" style="stroke:#181818;stroke-width:1.0;"/><line style="stroke:#181818;stroke-width:1.0;" x1="916.5" x2="1494.5" y1="466.1875" y2="466.1875"/><text fill="#000000" font-family="sans-serif" font-size="13" font-weight="bold" lengthAdjust="spacing" textLength="9" x="923.5" y="453.5552">9</text><text fill="#000000" font-family="sans-serif" font-size="13" lengthAdjust="spacing" textLength="289" x="936.5" y="445.9888">Deployment of basic cluster-mgmt resources</text><text fill="#000000" font-family="sans-serif" font-size="13" lengthAdjust="spacing" textLength="465" x="936.5" y="461.1216">(catalog-sources, storage, keycloak-operator-crd, logging, service-mesh)</text><polygon fill="#181818" points="1488.5,491.3203,1498.5,495.3203,1488.5,499.3203,1492.5,495.3203" style="stroke:#181818;stroke-width:1.0;"/><line style="stroke:#181818;stroke-width:1.0;" x1="916.5" x2="1494.5" y1="495.3203" y2="495.3203"/><text fill="#000000" font-family="sans-serif" font-size="13" font-weight="bold" lengthAdjust="spacing" textLength="18" x="923.5" y="490.2544">10</text><text fill="#000000" font-family="sans-serif" font-size="13" lengthAdjust="spacing" textLength="261" x="945.5" y="490.2544">Deployment nexus (control-plane-nexus)</text><polygon fill="#181818" points="1588.5,520.4531,1598.5,524.4531,1588.5,528.4531,1592.5,524.4531" style="stroke:#181818;stroke-width:1.0;"/><line style="stroke:#181818;stroke-width:1.0;" x1="916.5" x2="1594.5" y1="524.4531" y2="524.4531"/><text fill="#000000" font-family="sans-serif" font-size="13" font-weight="bold" lengthAdjust="spacing" textLength="18" x="923.5" y="519.3872">11</text><text fill="#000000" font-family="sans-serif" font-size="13" lengthAdjust="spacing" textLength="115" x="945.5" y="519.3872">Deployment Vault</text><polygon fill="#181818" points="1647.5,549.5859,1657.5,553.5859,1647.5,557.5859,1651.5,553.5859" style="stroke:#181818;stroke-width:1.0;"/><line style="stroke:#181818;stroke-width:1.0;" x1="916.5" x2="1653.5" y1="553.5859" y2="553.5859"/><text fill="#000000" font-family="sans-serif" font-size="13" font-weight="bold" lengthAdjust="spacing" textLength="18" x="923.5" y="548.52">12</text><text fill="#000000" font-family="sans-serif" font-size="13" lengthAdjust="spacing" textLength="115" x="945.5" y="548.52">Deployment Minio</text><polygon fill="#181818" points="1488.5,578.7188,1498.5,582.7188,1488.5,586.7188,1492.5,582.7188" style="stroke:#181818;stroke-width:1.0;"/><line style="stroke:#181818;stroke-width:1.0;" x1="916.5" x2="1494.5" y1="582.7188" y2="582.7188"/><text fill="#000000" font-family="sans-serif" font-size="13" font-weight="bold" lengthAdjust="spacing" textLength="18" x="923.5" y="577.6528">13</text><text fill="#000000" font-family="sans-serif" font-size="13" lengthAdjust="spacing" textLength="377" x="945.5" y="577.6528">Downloading docker images in nexus (control-plane-nexus)</text><polygon fill="#181818" points="1488.5,607.8516,1498.5,611.8516,1488.5,615.8516,1492.5,611.8516" style="stroke:#181818;stroke-width:1.0;"/><line style="stroke:#181818;stroke-width:1.0;" x1="916.5" x2="1494.5" y1="611.8516" y2="611.8516"/><text fill="#000000" font-family="sans-serif" font-size="13" font-weight="bold" lengthAdjust="spacing" textLength="18" x="923.5" y="606.7856">14</text><text fill="#000000" font-family="sans-serif" font-size="13" lengthAdjust="spacing" textLength="538" x="945.5" y="606.7856">Deployment of user-management and downloading digital-signature-ops certificates</text><polygon fill="#181818" points="1488.5,636.9844,1498.5,640.9844,1488.5,644.9844,1492.5,640.9844" style="stroke:#181818;stroke-width:1.0;"/><line style="stroke:#181818;stroke-width:1.0;" x1="916.5" x2="1494.5" y1="640.9844" y2="640.9844"/><text fill="#000000" font-family="sans-serif" font-size="13" font-weight="bold" lengthAdjust="spacing" textLength="18" x="923.5" y="635.9185">15</text><text fill="#000000" font-family="sans-serif" font-size="13" lengthAdjust="spacing" textLength="167" x="945.5" y="635.9185">Deployment Control Plane</text><polygon fill="#181818" points="1488.5,666.1172,1498.5,670.1172,1488.5,674.1172,1492.5,670.1172" style="stroke:#181818;stroke-width:1.0;"/><line style="stroke:#181818;stroke-width:1.0;" x1="916.5" x2="1494.5" y1="670.1172" y2="670.1172"/><text fill="#000000" font-family="sans-serif" font-size="13" font-weight="bold" lengthAdjust="spacing" textLength="18" x="923.5" y="665.0513">16</text><text fill="#000000" font-family="sans-serif" font-size="13" lengthAdjust="spacing" textLength="305" x="945.5" y="665.0513">Downloading xsd in nexus (control-plane-nexus)</text><polygon fill="#181818" points="1488.5,695.25,1498.5,699.25,1488.5,703.25,1492.5,699.25" style="stroke:#181818;stroke-width:1.0;"/><line style="stroke:#181818;stroke-width:1.0;" x1="916.5" x2="1494.5" y1="699.25" y2="699.25"/><text fill="#000000" font-family="sans-serif" font-size="13" font-weight="bold" lengthAdjust="spacing" textLength="18" x="923.5" y="694.1841">17</text><text fill="#000000" font-family="sans-serif" font-size="13" lengthAdjust="spacing" textLength="260" x="945.5" y="694.1841">Downloading access parameters in Minio</text><polygon fill="#181818" points="648,724.3828,658,728.3828,648,732.3828,652,728.3828" style="stroke:#181818;stroke-width:1.0;"/><line style="stroke:#181818;stroke-width:1.0;" x1="98" x2="654" y1="728.3828" y2="728.3828"/><text fill="#000000" font-family="sans-serif" font-size="13" font-weight="bold" lengthAdjust="spacing" textLength="18" x="105" y="723.3169">18</text><text fill="#000000" font-family="sans-serif" font-size="13" lengthAdjust="spacing" textLength="516" x="127" y="723.3169">Checking the log and saving the Control Plane access parameters in a safe place</text><!--SRC=[dLHBZn914BxFhwZi2HB6Q9GBXqqCxC54uoPhF9cOegUOQPcf7lk1yE-jRfZPOHOKlK5JNps-1wYyiN3tMAFV6Di05ercxRn5URy3T53GphGEZ2t8mflNMOlMQwLRP0zt7zXvh0Mi3OCZkwCZw4TeshNPmmdszZ9CVb66FMe-mGgZjcI_rmQB7Zg_0aq0VVpsobLT_RlHgCyjiQlqneEgW_CddEbVEzXep5SCjK-bk_YfAvkFkdyIiamgYxIPlcoUPHYyuT2ioMQPrxucw4akgAtDeI7fuEXd85O4XSRIOfDbfJMXXKTBCaXp2RuYUEPBy0DuTX8dl-yONy3A_E98u4iiMbNf7VqDf4WEt6Y5daGHNMg1vqwNZ3vOoWLwgSDJ4XyinIRa7AYAr1OchIKhDsgdfTrqW1nelO3tGLPb7uT69sc6NhTha2VoFguhD6538go32V7kweYF65ZkVy7APE2XN4ypug8JOVMiazaaM2TXDWJT3souW6MyEuxHt0O_M6-4wIsuW0V6jVX3V60FRIBWuSjoTRt-VAyrEgqwT-TDsNXHmPbW5RblF15AiJPbVdgPWPDaOqapsD912JTRaPHItdDbYnb8SIdxprAUjQAy8LTDRzg6QHz4XXXgQ-gyhP4fJuzZV4hL6JObRbILGdLMbGBtXrq6FZwg3xgHO-C_nJziTvNhu2B5oD8oFI4NCcSmyr9SpX9rqwJbSSLeDwRRhjsxulzl7FH1fM9w1wcIhaVMBwI-DtiCXnWd4U9mrpsT7NAvDqhzXa0sLHJ3zni0]--></g></svg>