<?xml version="1.0" encoding="us-ascii" standalone="no"?><svg xmlns="http://www.w3.org/2000/svg" xmlns:xlink="http://www.w3.org/1999/xlink" contentStyleType="text/css" height="165px" preserveAspectRatio="none" style="width:511px;height:165px;background:#FFFFFF;" version="1.1" viewBox="0 0 511 165" width="511px" zoomAndPan="magnify"><defs/><g><path d="M17,8.9688 L17,10.9688 L25,10.9688 L25,9.9688 L20,9.9688 L20,8.9688 L17,8.9688 M17,11.9688 L17,16.4688 C17,16.7488 17.22,16.9688 17.5,16.9688 L24.5,16.9688 C24.78,16.9688 25,16.7488 25,16.4688 L25,11.9688 L17,11.9688 " fill="#000000" style="stroke:;stroke-width:0.0;stroke-dasharray:;"/><text fill="#000000" font-family="sans-serif" font-size="12" lengthAdjust="spacing" textLength="79" x="30" y="17.1387">/app/secrets</text><path d="M47,22.9375 L47,24.9375 L55,24.9375 L55,23.9375 L50,23.9375 L50,22.9375 L47,22.9375 M47,25.9375 L47,30.4375 C47,30.7175 47.22,30.9375 47.5,30.9375 L54.5,30.9375 C54.78,30.9375 55,30.7175 55,30.4375 L55,25.9375 L47,25.9375 " fill="#000000" style="stroke:;stroke-width:0.0;stroke-dasharray:;"/><text fill="#000000" font-family="sans-serif" font-size="12" lengthAdjust="spacing" textLength="4" x="56" y="31.1074">&#160;</text><text fill="#000000" font-family="sans-serif" font-size="12" font-weight="bold" lengthAdjust="spacing" textLength="135" x="60" y="31.1074">trembita-registries</text><path d="M67,36.9063 L67,44.9063 L74,44.9063 L74,40.9063 L70,40.9063 L70,36.9063 L67,36.9063 M71,36.9063 L71,39.9063 L74,39.9063 L71,36.9063 " fill="#000000" style="stroke:;stroke-width:0.0;stroke-dasharray:;"/><text fill="#000000" font-family="sans-serif" font-size="12" lengthAdjust="spacing" textLength="355" x="80" y="45.0762">trembita.registries.&lt;registry-name-1&gt;.auth.secret.token</text><path d="M67,50.875 L67,58.875 L74,58.875 L74,54.875 L70,54.875 L70,50.875 L67,50.875 M71,50.875 L71,53.875 L74,53.875 L71,50.875 " fill="#000000" style="stroke:;stroke-width:0.0;stroke-dasharray:;"/><text fill="#000000" font-family="sans-serif" font-size="12" lengthAdjust="spacing" textLength="355" x="80" y="59.0449">trembita.registries.&lt;registry-name-2&gt;.auth.secret.token</text><path d="M67,64.8438 L67,72.8438 L74,72.8438 L74,68.8438 L70,68.8438 L70,64.8438 L67,64.8438 M71,64.8438 L71,67.8438 L74,67.8438 L71,64.8438 " fill="#000000" style="stroke:;stroke-width:0.0;stroke-dasharray:;"/><text fill="#000000" font-family="sans-serif" font-size="12" lengthAdjust="spacing" textLength="355" x="80" y="73.0137">trembita.registries.&lt;registry-name-3&gt;.auth.secret.token</text><path d="M47,78.8125 L47,80.8125 L55,80.8125 L55,79.8125 L50,79.8125 L50,78.8125 L47,78.8125 M47,81.8125 L47,86.3125 C47,86.5925 47.22,86.8125 47.5,86.8125 L54.5,86.8125 C54.78,86.8125 55,86.5925 55,86.3125 L55,81.8125 L47,81.8125 " fill="#000000" style="stroke:;stroke-width:0.0;stroke-dasharray:;"/><text fill="#000000" font-family="sans-serif" font-size="12" lengthAdjust="spacing" textLength="4" x="56" y="86.9824">&#160;</text><text fill="#000000" font-family="sans-serif" font-size="12" font-weight="bold" lengthAdjust="spacing" textLength="123" x="60" y="86.9824">external-systems</text><path d="M67,92.7813 L67,100.7813 L74,100.7813 L74,96.7813 L70,96.7813 L70,92.7813 L67,92.7813 M71,92.7813 L71,95.7813 L74,95.7813 L71,92.7813 " fill="#000000" style="stroke:;stroke-width:0.0;stroke-dasharray:;"/><text fill="#000000" font-family="sans-serif" font-size="12" lengthAdjust="spacing" textLength="424" x="80" y="100.9512">external-systems.&lt;external-system-name-1&gt;.auth.secret.username</text><path d="M67,106.75 L67,114.75 L74,114.75 L74,110.75 L70,110.75 L70,106.75 L67,106.75 M71,106.75 L71,109.75 L74,109.75 L71,106.75 " fill="#000000" style="stroke:;stroke-width:0.0;stroke-dasharray:;"/><text fill="#000000" font-family="sans-serif" font-size="12" lengthAdjust="spacing" textLength="421" x="80" y="114.9199">external-systems.&lt;external-system-name-1&gt;.auth.secret.password</text><path d="M67,120.7188 L67,128.7188 L74,128.7188 L74,124.7188 L70,124.7188 L70,120.7188 L67,120.7188 M71,120.7188 L71,123.7188 L74,123.7188 L71,120.7188 " fill="#000000" style="stroke:;stroke-width:0.0;stroke-dasharray:;"/><text fill="#000000" font-family="sans-serif" font-size="12" lengthAdjust="spacing" textLength="397" x="80" y="128.8887">external-systems.&lt;external-system-name-2&gt;.auth.secret.token</text><path d="M47,134.6875 L47,136.6875 L55,136.6875 L55,135.6875 L50,135.6875 L50,134.6875 L47,134.6875 M47,137.6875 L47,142.1875 C47,142.4675 47.22,142.6875 47.5,142.6875 L54.5,142.6875 C54.78,142.6875 55,142.4675 55,142.1875 L55,137.6875 L47,137.6875 " fill="#000000" style="stroke:;stroke-width:0.0;stroke-dasharray:;"/><text fill="#000000" font-family="sans-serif" font-size="12" lengthAdjust="spacing" textLength="4" x="56" y="142.8574">&#160;</text><text fill="#000000" font-family="sans-serif" font-size="12" font-weight="bold" lengthAdjust="spacing" textLength="26" x="60" y="142.8574">diia</text><path d="M67,148.6563 L67,156.6563 L74,156.6563 L74,152.6563 L70,152.6563 L70,148.6563 L67,148.6563 M71,148.6563 L71,151.6563 L74,151.6563 L71,148.6563 " fill="#000000" style="stroke:;stroke-width:0.0;stroke-dasharray:;"/><text fill="#000000" font-family="sans-serif" font-size="12" lengthAdjust="spacing" textLength="249" x="80" y="156.8262">external-systems.diia.auth.secret.token</text><rect fill="none" height="2" style="stroke:#888888;stroke-width:1.0;" width="2" x="9" y="11.9844"/><rect fill="none" height="2" style="stroke:#888888;stroke-width:1.0;" width="2" x="39" y="25.9531"/><line style="stroke:#888888;stroke-width:1.0;" x1="10" x2="10" y1="14.9844" y2="26.9531"/><line style="stroke:#888888;stroke-width:1.0;" x1="10" x2="38" y1="26.9531" y2="26.9531"/><line style="stroke:#888888;stroke-width:1.0;" x1="40" x2="40" y1="28.9531" y2="40.9219"/><line style="stroke:#888888;stroke-width:1.0;" x1="40" x2="58" y1="40.9219" y2="40.9219"/><line style="stroke:#888888;stroke-width:1.0;" x1="40" x2="40" y1="28.9531" y2="54.8906"/><line style="stroke:#888888;stroke-width:1.0;" x1="40" x2="58" y1="54.8906" y2="54.8906"/><line style="stroke:#888888;stroke-width:1.0;" x1="40" x2="40" y1="28.9531" y2="68.8594"/><line style="stroke:#888888;stroke-width:1.0;" x1="40" x2="58" y1="68.8594" y2="68.8594"/><rect fill="none" height="2" style="stroke:#888888;stroke-width:1.0;" width="2" x="39" y="81.8281"/><line style="stroke:#888888;stroke-width:1.0;" x1="10" x2="10" y1="14.9844" y2="82.8281"/><line style="stroke:#888888;stroke-width:1.0;" x1="10" x2="38" y1="82.8281" y2="82.8281"/><line style="stroke:#888888;stroke-width:1.0;" x1="40" x2="40" y1="84.8281" y2="96.7969"/><line style="stroke:#888888;stroke-width:1.0;" x1="40" x2="58" y1="96.7969" y2="96.7969"/><line style="stroke:#888888;stroke-width:1.0;" x1="40" x2="40" y1="84.8281" y2="110.7656"/><line style="stroke:#888888;stroke-width:1.0;" x1="40" x2="58" y1="110.7656" y2="110.7656"/><line style="stroke:#888888;stroke-width:1.0;" x1="40" x2="40" y1="84.8281" y2="124.7344"/><line style="stroke:#888888;stroke-width:1.0;" x1="40" x2="58" y1="124.7344" y2="124.7344"/><rect fill="none" height="2" style="stroke:#888888;stroke-width:1.0;" width="2" x="39" y="137.7031"/><line style="stroke:#888888;stroke-width:1.0;" x1="10" x2="10" y1="14.9844" y2="138.7031"/><line style="stroke:#888888;stroke-width:1.0;" x1="10" x2="38" y1="138.7031" y2="138.7031"/><line style="stroke:#888888;stroke-width:1.0;" x1="40" x2="40" y1="140.7031" y2="152.6719"/><line style="stroke:#888888;stroke-width:1.0;" x1="40" x2="58" y1="152.6719" y2="152.6719"/><!--SRC=[hPBVQy8m483VyrVSqr2arLRTHYb5fjkWKoRpnvvJUtPXRLgIgvl8_lT5dRY90n6Jbt3tvRjSaeuchaZpbDYAhSQi1lxLF4zZL07KUL7KDSuKacOrCtxb_2WWXLaaY5iA4w592TH-FGesv9OLAGQmm-mzPli_wwKbUOQM4zYyf3TxMykc_1tb6HhtCfhcVvg_xUCdeP8yjVHI4sP7UpzaRFyWShJ_Kg-H32zZAxZM7xcApxIvfzr6B0G_wGRMu17ZbvaTbF7c9x9XoYLD1drOeD8Yb-3ORiDjsawZyeenX6KAZWjEssktlCODJCPTMEUhhF8ux8FEIpL3Y3Vl6vLa15KMyWM7brAIoD23vm9bs7lQ1U1UBeJAPOQIM3WTx87hbdKd24Qep55WEc0zdFCo9RDZbiT29fwf_c3TiZwNISaJupRTT7FZLKkJ6tq3]--></g></svg>