<?xml version="1.0" encoding="us-ascii" standalone="no"?><svg xmlns="http://www.w3.org/2000/svg" xmlns:xlink="http://www.w3.org/1999/xlink" contentStyleType="text/css" height="702px" preserveAspectRatio="none" style="width:1354px;height:702px;background:#FFFFFF;" version="1.1" viewBox="0 0 1354 702" width="1354px" zoomAndPan="magnify"><defs/><g><text fill="#000000" font-family="sans-serif" font-size="14" font-weight="bold" lengthAdjust="spacing" textLength="315" x="521.25" y="27.9951">Platform deployment sequence diagram</text><rect fill="none" height="191.9297" style="stroke:#000000;stroke-width:1.5;" width="688" x="10" y="135.5938"/><rect fill="none" height="263.1953" style="stroke:#000000;stroke-width:1.5;" width="1338.5" x="10" y="341.5234"/><line style="stroke:#181818;stroke-width:0.5;stroke-dasharray:5.0,5.0;" x1="98" x2="98" y1="118.5938" y2="621.7188"/><line style="stroke:#181818;stroke-width:0.5;stroke-dasharray:5.0,5.0;" x1="472" x2="472" y1="118.5938" y2="621.7188"/><line style="stroke:#181818;stroke-width:0.5;stroke-dasharray:5.0,5.0;" x1="619" x2="619" y1="118.5938" y2="621.7188"/><line style="stroke:#181818;stroke-width:0.5;stroke-dasharray:5.0,5.0;" x1="731" x2="731" y1="118.5938" y2="621.7188"/><line style="stroke:#181818;stroke-width:0.5;stroke-dasharray:5.0,5.0;" x1="1154.5" x2="1154.5" y1="118.5938" y2="621.7188"/><line style="stroke:#181818;stroke-width:0.5;stroke-dasharray:5.0,5.0;" x1="1254.5" x2="1254.5" y1="118.5938" y2="621.7188"/><line style="stroke:#181818;stroke-width:0.5;stroke-dasharray:5.0,5.0;" x1="1313.5" x2="1313.5" y1="118.5938" y2="621.7188"/><text fill="#000000" font-family="sans-serif" font-size="14" lengthAdjust="spacing" textLength="151" x="20" y="115.292">Platform Administrator</text><ellipse cx="98.5" cy="50.7969" fill="#E2E2F0" rx="8" ry="8" style="stroke:#181818;stroke-width:0.5;"/><path d="M98.5,58.7969 L98.5,85.7969 M85.5,66.7969 L111.5,66.7969 M98.5,85.7969 L85.5,100.7969 M98.5,85.7969 L111.5,100.7969 " fill="none" style="stroke:#181818;stroke-width:0.5;"/><text fill="#000000" font-family="sans-serif" font-size="14" lengthAdjust="spacing" textLength="151" x="20" y="633.7139">Platform Administrator</text><ellipse cx="98.5" cy="645.5156" fill="#E2E2F0" rx="8" ry="8" style="stroke:#181818;stroke-width:0.5;"/><path d="M98.5,653.5156 L98.5,680.5156 M85.5,661.5156 L111.5,661.5156 M98.5,680.5156 L85.5,695.5156 M98.5,680.5156 L111.5,695.5156 " fill="none" style="stroke:#181818;stroke-width:0.5;"/><rect fill="#E2E2F0" height="30.2969" rx="2.5" ry="2.5" style="stroke:#181818;stroke-width:0.5;" width="135" x="405" y="87.2969"/><text fill="#000000" font-family="sans-serif" font-size="14" lengthAdjust="spacing" textLength="121" x="412" y="107.292">Installation Server</text><rect fill="#E2E2F0" height="30.2969" rx="2.5" ry="2.5" style="stroke:#181818;stroke-width:0.5;" width="135" x="405" y="620.7188"/><text fill="#000000" font-family="sans-serif" font-size="14" lengthAdjust="spacing" textLength="121" x="412" y="640.7139">Installation Server</text><rect fill="#E2E2F0" height="30.2969" rx="2.5" ry="2.5" style="stroke:#181818;stroke-width:0.5;" width="138" x="550" y="87.2969"/><text fill="#000000" font-family="sans-serif" font-size="14" lengthAdjust="spacing" textLength="124" x="557" y="107.292">Installer Container</text><rect fill="#E2E2F0" height="30.2969" rx="2.5" ry="2.5" style="stroke:#181818;stroke-width:0.5;" width="138" x="550" y="620.7188"/><text fill="#000000" font-family="sans-serif" font-size="14" lengthAdjust="spacing" textLength="124" x="557" y="640.7139">Installer Container</text><rect fill="#E2E2F0" height="30.2969" rx="2.5" ry="2.5" style="stroke:#181818;stroke-width:0.5;" width="67" x="698" y="87.2969"/><text fill="#000000" font-family="sans-serif" font-size="14" lengthAdjust="spacing" textLength="53" x="705" y="107.292">Installer</text><rect fill="#E2E2F0" height="30.2969" rx="2.5" ry="2.5" style="stroke:#181818;stroke-width:0.5;" width="67" x="698" y="620.7188"/><text fill="#000000" font-family="sans-serif" font-size="14" lengthAdjust="spacing" textLength="53" x="705" y="640.7139">Installer</text><rect fill="#E2E2F0" height="30.2969" rx="2.5" ry="2.5" style="stroke:#181818;stroke-width:0.5;" width="132" x="1088.5" y="87.2969"/><text fill="#000000" font-family="sans-serif" font-size="14" lengthAdjust="spacing" textLength="118" x="1095.5" y="107.292">Openshift cluster</text><rect fill="#E2E2F0" height="30.2969" rx="2.5" ry="2.5" style="stroke:#181818;stroke-width:0.5;" width="132" x="1088.5" y="620.7188"/><text fill="#000000" font-family="sans-serif" font-size="14" lengthAdjust="spacing" textLength="118" x="1095.5" y="640.7139">Openshift cluster</text><rect fill="#E2E2F0" height="30.2969" rx="2.5" ry="2.5" style="stroke:#181818;stroke-width:0.5;" width="48" x="1230.5" y="87.2969"/><text fill="#000000" font-family="sans-serif" font-size="14" lengthAdjust="spacing" textLength="34" x="1237.5" y="107.292">Vault</text><rect fill="#E2E2F0" height="30.2969" rx="2.5" ry="2.5" style="stroke:#181818;stroke-width:0.5;" width="48" x="1230.5" y="620.7188"/><text fill="#000000" font-family="sans-serif" font-size="14" lengthAdjust="spacing" textLength="34" x="1237.5" y="640.7139">Vault</text><rect fill="#E2E2F0" height="30.2969" rx="2.5" ry="2.5" style="stroke:#181818;stroke-width:0.5;" width="50" x="1288.5" y="87.2969"/><text fill="#000000" font-family="sans-serif" font-size="14" lengthAdjust="spacing" textLength="36" x="1295.5" y="107.292">Minio</text><rect fill="#E2E2F0" height="30.2969" rx="2.5" ry="2.5" style="stroke:#181818;stroke-width:0.5;" width="50" x="1288.5" y="620.7188"/><text fill="#000000" font-family="sans-serif" font-size="14" lengthAdjust="spacing" textLength="36" x="1295.5" y="640.7139">Minio</text><path d="M10,135.5938 L340,135.5938 L340,142.7266 L330,152.7266 L10,152.7266 L10,135.5938 " fill="#EEEEEE" style="stroke:#000000;stroke-width:1.5;"/><rect fill="none" height="191.9297" style="stroke:#000000;stroke-width:1.5;" width="688" x="10" y="135.5938"/><text fill="#000000" font-family="sans-serif" font-size="13" font-weight="bold" lengthAdjust="spacing" textLength="285" x="25" y="148.6606">Preparing the Installer for deployment</text><polygon fill="#181818" points="460.5,169.8594,470.5,173.8594,460.5,177.8594,464.5,173.8594" style="stroke:#181818;stroke-width:1.0;"/><line style="stroke:#181818;stroke-width:1.0;" x1="98.5" x2="466.5" y1="173.8594" y2="173.8594"/><text fill="#000000" font-family="sans-serif" font-size="13" font-weight="bold" lengthAdjust="spacing" textLength="9" x="105.5" y="168.7935">1</text><text fill="#000000" font-family="sans-serif" font-size="13" lengthAdjust="spacing" textLength="210" x="118.5" y="168.7935">Downloading the Installer archive</text><polygon fill="#181818" points="460.5,198.9922,470.5,202.9922,460.5,206.9922,464.5,202.9922" style="stroke:#181818;stroke-width:1.0;"/><line style="stroke:#181818;stroke-width:1.0;" x1="98.5" x2="466.5" y1="202.9922" y2="202.9922"/><text fill="#000000" font-family="sans-serif" font-size="13" font-weight="bold" lengthAdjust="spacing" textLength="9" x="105.5" y="197.9263">2</text><text fill="#000000" font-family="sans-serif" font-size="13" lengthAdjust="spacing" textLength="290" x="118.5" y="197.9263">Downloading certificates digital-signature-ops</text><polygon fill="#181818" points="460.5,228.125,470.5,232.125,460.5,236.125,464.5,232.125" style="stroke:#181818;stroke-width:1.0;"/><line style="stroke:#181818;stroke-width:1.0;" x1="98.5" x2="466.5" y1="232.125" y2="232.125"/><text fill="#000000" font-family="sans-serif" font-size="13" font-weight="bold" lengthAdjust="spacing" textLength="9" x="105.5" y="227.0591">3</text><text fill="#000000" font-family="sans-serif" font-size="13" lengthAdjust="spacing" textLength="246" x="118.5" y="227.0591">Server readiness check (prerequisites)</text><polygon fill="#181818" points="607,257.2578,617,261.2578,607,265.2578,611,261.2578" style="stroke:#181818;stroke-width:1.0;"/><line style="stroke:#181818;stroke-width:1.0;" x1="98.5" x2="613" y1="261.2578" y2="261.2578"/><text fill="#000000" font-family="sans-serif" font-size="13" font-weight="bold" lengthAdjust="spacing" textLength="9" x="105.5" y="256.1919">4</text><text fill="#000000" font-family="sans-serif" font-size="13" lengthAdjust="spacing" textLength="173" x="118.5" y="256.1919">Authentication in Openshift</text><polygon fill="#181818" points="607,286.3906,617,290.3906,607,294.3906,611,290.3906" style="stroke:#181818;stroke-width:1.0;"/><line style="stroke:#181818;stroke-width:1.0;" x1="98.5" x2="613" y1="290.3906" y2="290.3906"/><text fill="#000000" font-family="sans-serif" font-size="13" font-weight="bold" lengthAdjust="spacing" textLength="9" x="105.5" y="285.3247">5</text><text fill="#000000" font-family="sans-serif" font-size="13" lengthAdjust="spacing" textLength="162" x="118.5" y="285.3247">Setting parameters (env)</text><polygon fill="#181818" points="607,315.5234,617,319.5234,607,323.5234,611,319.5234" style="stroke:#181818;stroke-width:1.0;"/><line style="stroke:#181818;stroke-width:1.0;" x1="98.5" x2="613" y1="319.5234" y2="319.5234"/><text fill="#000000" font-family="sans-serif" font-size="13" font-weight="bold" lengthAdjust="spacing" textLength="9" x="105.5" y="314.4575">6</text><text fill="#000000" font-family="sans-serif" font-size="13" lengthAdjust="spacing" textLength="231" x="118.5" y="314.4575">Launching the Installer (install.sh -u)</text><path d="M10,341.5234 L262,341.5234 L262,348.6563 L252,358.6563 L10,358.6563 L10,341.5234 " fill="#EEEEEE" style="stroke:#000000;stroke-width:1.5;"/><rect fill="none" height="263.1953" style="stroke:#000000;stroke-width:1.5;" width="1338.5" x="10" y="341.5234"/><text fill="#000000" font-family="sans-serif" font-size="13" font-weight="bold" lengthAdjust="spacing" textLength="207" x="25" y="354.5903">Deployment of the Platform</text><line style="stroke:#181818;stroke-width:1.0;" x1="731.5" x2="773.5" y1="379.7891" y2="379.7891"/><line style="stroke:#181818;stroke-width:1.0;" x1="773.5" x2="773.5" y1="379.7891" y2="392.7891"/><line style="stroke:#181818;stroke-width:1.0;" x1="732.5" x2="773.5" y1="392.7891" y2="392.7891"/><polygon fill="#181818" points="742.5,388.7891,732.5,392.7891,742.5,396.7891,738.5,392.7891" style="stroke:#181818;stroke-width:1.0;"/><text fill="#000000" font-family="sans-serif" font-size="13" font-weight="bold" lengthAdjust="spacing" textLength="9" x="738.5" y="374.7231">7</text><text fill="#000000" font-family="sans-serif" font-size="13" lengthAdjust="spacing" textLength="173" x="751.5" y="374.7231">Checking input parameters</text><polygon fill="#181818" points="1242.5,417.9219,1252.5,421.9219,1242.5,425.9219,1246.5,421.9219" style="stroke:#181818;stroke-width:1.0;"/><line style="stroke:#181818;stroke-width:1.0;" x1="731.5" x2="1248.5" y1="421.9219" y2="421.9219"/><text fill="#000000" font-family="sans-serif" font-size="13" font-weight="bold" lengthAdjust="spacing" textLength="9" x="738.5" y="416.856">8</text><text fill="#000000" font-family="sans-serif" font-size="13" lengthAdjust="spacing" textLength="128" x="751.5" y="416.856">Status update Vault</text><polygon fill="#181818" points="1301.5,447.0547,1311.5,451.0547,1301.5,455.0547,1305.5,451.0547" style="stroke:#181818;stroke-width:1.0;"/><line style="stroke:#181818;stroke-width:1.0;" x1="731.5" x2="1307.5" y1="451.0547" y2="451.0547"/><text fill="#000000" font-family="sans-serif" font-size="13" font-weight="bold" lengthAdjust="spacing" textLength="9" x="738.5" y="445.9888">9</text><text fill="#000000" font-family="sans-serif" font-size="13" lengthAdjust="spacing" textLength="128" x="751.5" y="445.9888">Status update Minio</text><polygon fill="#181818" points="1142.5,476.1875,1152.5,480.1875,1142.5,484.1875,1146.5,480.1875" style="stroke:#181818;stroke-width:1.0;"/><line style="stroke:#181818;stroke-width:1.0;" x1="731.5" x2="1148.5" y1="480.1875" y2="480.1875"/><text fill="#000000" font-family="sans-serif" font-size="13" font-weight="bold" lengthAdjust="spacing" textLength="18" x="738.5" y="475.1216">10</text><text fill="#000000" font-family="sans-serif" font-size="13" lengthAdjust="spacing" textLength="377" x="760.5" y="475.1216">Downloading docker images in nexus (control-plane-nexus)</text><polygon fill="#181818" points="1142.5,505.3203,1152.5,509.3203,1142.5,513.3203,1146.5,509.3203" style="stroke:#181818;stroke-width:1.0;"/><line style="stroke:#181818;stroke-width:1.0;" x1="731.5" x2="1148.5" y1="509.3203" y2="509.3203"/><text fill="#000000" font-family="sans-serif" font-size="13" font-weight="bold" lengthAdjust="spacing" textLength="18" x="738.5" y="504.2544">11</text><text fill="#000000" font-family="sans-serif" font-size="13" lengthAdjust="spacing" textLength="183" x="760.5" y="504.2544">Deployment of Control Plane</text><polygon fill="#181818" points="1142.5,534.4531,1152.5,538.4531,1142.5,542.4531,1146.5,538.4531" style="stroke:#181818;stroke-width:1.0;"/><line style="stroke:#181818;stroke-width:1.0;" x1="731.5" x2="1148.5" y1="538.4531" y2="538.4531"/><text fill="#000000" font-family="sans-serif" font-size="13" font-weight="bold" lengthAdjust="spacing" textLength="18" x="738.5" y="533.3872">12</text><text fill="#000000" font-family="sans-serif" font-size="13" lengthAdjust="spacing" textLength="305" x="760.5" y="533.3872">Downloading xsd in nexus (control-plane-nexus)</text><polygon fill="#181818" points="1142.5,563.5859,1152.5,567.5859,1142.5,571.5859,1146.5,567.5859" style="stroke:#181818;stroke-width:1.0;"/><line style="stroke:#181818;stroke-width:1.0;" x1="731.5" x2="1148.5" y1="567.5859" y2="567.5859"/><text fill="#000000" font-family="sans-serif" font-size="13" font-weight="bold" lengthAdjust="spacing" textLength="18" x="738.5" y="562.52">13</text><text fill="#000000" font-family="sans-serif" font-size="13" lengthAdjust="spacing" textLength="260" x="760.5" y="562.52">Downloading access parameters in Minio</text><polygon fill="#181818" points="460.5,592.7188,470.5,596.7188,460.5,600.7188,464.5,596.7188" style="stroke:#181818;stroke-width:1.0;"/><line style="stroke:#181818;stroke-width:1.0;" x1="98.5" x2="466.5" y1="596.7188" y2="596.7188"/><text fill="#000000" font-family="sans-serif" font-size="13" font-weight="bold" lengthAdjust="spacing" textLength="18" x="105.5" y="591.6528">14</text><text fill="#000000" font-family="sans-serif" font-size="13" lengthAdjust="spacing" textLength="328" x="127.5" y="591.6528">Checking the log and the correctness of the update</text><!--SRC=[dPD1ZzCm48Nl-HMZdjf340XwwM6bLVU216AbbRWYhprDpIPZOuz3-VUCdIQRpRQ0k2NEV3EUzrwKPXTWTTygFhZGmQtfBDd8GSdv2bG4Wxtp4Lmm6E3Tsyghm5PRhuXXzP4YgrPWwmWUCFGuGDzJvn_T2SxO-ykOVDaxOcNfZ1cddp1yQvqo4xgzWXR03czlud6i_x0OzSKZnQCzCEWsHJvpRZeTiSMOhogrN4hx_3IMRHVTFujOhfHbsTnKjgqgbTXHwXunL1LRRX4caGtwrltgK3f4_96GD8AngWcggweckEJXFg0CijG07n6UzH9-XbTdS-gRKV4TtBcVb0LypQgWZxR7lq4QPS63rOfH7B6D5RoEjY75AM0jwAKEW_aGC3V1644VKJ_1sWSCigEDLjfjPkJCwntS9hagSHwQasG99j-k8G_8dAyhCgaEnTW8QwJ-weXFAf7i_qgLzIn3TTfKI6OquUxP9tSes6XXDOTkPZ7SmJxldSTOyebdrrim9LUo1eki4P8teZUKs2qAIxAMXILuYy8fr2_z75G0swa6yny3X2TfjDRowmNNrhvLX7KvtFoXumijzWERzI3yjskSeld_uRC-IkiShvdjqdMGuq8i9pUoUwqJd4nvrYu4r5oYUZPta3O7u3S0]--></g></svg>