<svg version="1.1" xmlns="http://www.w3.org/2000/svg" viewBox="0 0 799 362.80638966480444" width="1598" height="725.6127793296089">
  <!-- svg-source:excalidraw -->
  
  <defs>
    <style>
      @font-face {
        font-family: "Virgil";
        src: url("https://excalidraw.com/Virgil.woff2");
      }
      @font-face {
        font-family: "Cascadia";
        src: url("https://excalidraw.com/Cascadia.woff2");
      }
    </style>
  </defs>
  <rect x="0" y="0" width="799" height="362.80638966480444" fill="#ffffff"></rect><g stroke-opacity="0.4" fill-opacity="0.4" stroke-linecap="round" transform="translate(10 30.357170914804556) rotate(0 389.5 161.22460937499994)"><path d="M0 0 C0 0, 0 0, 0 0 M0 0 C0 0, 0 0, 0 0 M0.16 6.35 C0.98 4.41, 2.2 2.81, 5.49 0.33 M-0.13 6.65 C1.66 4.53, 3.04 2.29, 4.84 0.42 M0.2 10.52 C3.7 6.81, 7.34 4.16, 9.5 -0.99 M0.63 11.49 C1.96 9.03, 4.93 5.94, 10.85 0.05 M0.5 19.21 C1.94 14.76, 4.9 10.35, 16.73 1.58 M-0.45 17.58 C2.43 15.29, 6.26 11.26, 15.86 0.71 M-0.97 24.93 C9.17 13.55, 17.67 3.71, 20.49 -0.1 M0.27 23.93 C7.31 16.6, 14.47 7.03, 21.96 0.4 M-0.02 31.93 C9.01 19.28, 18.12 11.86, 24.65 -1.55 M-0.5 29.93 C9.3 21.21, 16.67 11.1, 26.67 -0.7 M-0.42 38.04 C12.3 23.55, 21.74 13.59, 31.7 -1.24 M-0.15 37.53 C10.73 22.43, 22.57 9, 32.29 0.03 M0.75 41.98 C9.96 29.96, 21.33 17.81, 37.81 -1.33 M0.7 41.63 C11.21 29.23, 23.42 13.87, 37.45 -0.01 M-0.26 46.97 C8.47 35.89, 22.82 23.07, 42.7 -0.4 M0.86 48.69 C11.54 36.85, 20.9 24.05, 43.02 -0.33 M-0.61 52.85 C16.95 36.98, 31.18 18.76, 49.07 1.97 M-0.08 53.75 C17.06 35.37, 32.44 17.41, 47.56 0.98 M0.46 59.44 C17.6 39.15, 40.43 16.72, 52.4 0.58 M-0.37 60.77 C11.03 48.58, 21.82 36.05, 53.25 -0.46 M-1.1 66.71 C16.97 48.49, 31.53 32.25, 56.37 -0.03 M-0.78 67.66 C16.49 48.38, 31.52 30.32, 57.34 1.02 M0.45 74.35 C24.65 48.08, 45.35 19.29, 62.74 -2.19 M0.11 72.88 C16.86 54.6, 33.93 35.52, 64.06 -0.58 M-0.68 77.43 C22.43 52.52, 44.4 24.76, 70.71 0.27 M0.62 79.99 C26.67 50.05, 50.48 20.82, 68.09 -0.6 M-0.57 86.52 C20.91 62.25, 39.54 41.23, 74.78 1.36 M1.24 84.68 C23.84 57.6, 49.33 27.68, 74.49 0.59 M1.76 91.05 C28.28 56.01, 56.41 26.05, 80.15 -1.63 M0.12 91.16 C19.21 70.18, 38.57 46.15, 80.1 -0.08 M1.58 99.47 C25.83 66.16, 54.16 34.03, 84.59 -0.8 M0.27 97.12 C33.29 59.48, 66.38 22.96, 85.54 -0.11 M-0.93 102.82 C29.56 68.5, 63.48 30.75, 89.8 1.74 M0.36 104.37 C25.21 77.7, 48.58 49, 90.6 0.93 M-1.94 110.41 C21.25 85.72, 41.07 63.48, 95.32 1.26 M-0.63 109.4 C22.71 84.05, 44.12 59.8, 96.2 -0.32 M-0.85 113.9 C34.95 73.7, 69.67 31.89, 101.86 1.77 M-0.06 116.37 C34.56 78.05, 67.32 39.76, 99.81 -0.7 M-0.84 122.72 C36.82 78.78, 76.13 36.49, 105.21 -0.6 M-0.27 121.52 C35.21 82.08, 70.43 40.98, 105.41 -0.17 M0.31 128.17 C40.69 83.51, 76.27 38.29, 111.58 1.79 M-1.22 128.16 C35.56 87.42, 72.44 46.43, 110.91 0.44 M0.88 135 C44.61 83.56, 88 33.41, 114.86 0.18 M0.15 133.26 C46.85 80.1, 92.98 26.44, 115.44 0.53 M1.88 141.16 C46.06 84.55, 95.26 32.37, 123.25 1.06 M0.73 140.03 C30.7 105.32, 61.12 69.21, 122.05 0.28 M0.27 145.77 C44.82 96.37, 83.52 49.16, 125.93 1.82 M0.41 146.94 C29.06 115.72, 55.68 84.95, 126.47 1.22 M0.28 152.59 C31.32 118.35, 60.7 83.97, 134.08 -1.08 M-0.32 152.1 C38.82 106.64, 77.73 61.51, 132.37 -0.64 M-1.08 158.29 C31.46 123.02, 65.59 85.66, 137.21 -1.07 M0.5 158.22 C27.56 126.74, 55.13 95.11, 136.8 1.04 M-0.2 163.59 C46.27 109.53, 91.62 56.99, 143.05 -1.62 M0.01 165.03 C55.71 100.1, 110.2 38.02, 143.79 0.39 M0.82 169.47 C48.03 115.76, 99.37 58.55, 147.2 -1.16 M-0.25 170.76 C35.17 130.9, 70.78 91.11, 148.85 0.29 M-0.45 176.55 C37.53 134.05, 73.87 91.01, 153.18 -1.55 M0.24 175.73 C60.72 108.5, 119.1 40.62, 153.74 -0.58 M-1.34 182.1 C39.4 139.46, 76.24 95.97, 157.36 -0.88 M-0.13 183.31 C42.28 136.55, 81.02 90.65, 158.17 0.24 M0.7 189.44 C34.88 147.81, 70.68 107.84, 164.84 -1.72 M0.05 189.98 C55.72 124.98, 112.1 60.73, 163.99 -0.06 M0.29 194.63 C67.43 120.97, 131.43 46.16, 168.16 -0.66 M0.49 194.62 C39.19 149.78, 77.64 104.99, 168.84 0.08 M-0.88 199.82 C70.43 119.38, 141.57 39.07, 175.99 0.22 M-0.53 200.85 C41.06 153.89, 81.87 107.02, 175.31 -0.87 M0.98 205.68 C70.55 127.4, 141.4 48.36, 179.27 0.61 M0.49 207.11 C39.28 163.13, 76.8 120.64, 179.75 0.29 M0.9 212.2 C44.89 162.11, 89.13 112.07, 185.68 0.17 M-0.28 213.14 C36.9 168.71, 75.28 123.78, 186.03 -0.51 M-0.27 220.76 C49.48 161.15, 100.18 103.56, 189.69 -0.65 M0.46 219.55 C53.04 159.13, 107.71 96.64, 191.39 -0.55 M-0.6 225.35 C51.08 165.23, 104.28 104.83, 196.82 0.41 M-0.5 225.62 C69.23 147.32, 135.88 69.21, 196.91 -0.82 M1.24 230.86 C43.19 181.89, 87.74 129.19, 200.78 -0.37 M0.61 231.96 C77.86 142.73, 156.54 54.47, 201.27 0.31 M-0.39 236.74 C68.46 161.75, 134.47 84.78, 206.99 0.03 M0.47 236.88 C61.83 166.31, 123.34 95.09, 206.43 -0.17 M0.15 244.14 C55.66 178.53, 113.96 111.34, 213.04 0.77 M0.01 244.03 C69.7 163.97, 138.77 84.58, 211.41 0.74 M-0.96 249.01 C74.31 163.28, 146.79 79.57, 217.57 0.93 M-0.69 250.26 C58.42 181.33, 115.98 114.82, 218.06 -0.91 M1.17 256.22 C52.35 196.82, 103.8 137.53, 223.6 0.79 M0.39 256.53 C77.28 168.09, 153.87 80.53, 222.2 -0.06 M-0.55 263.54 C80.09 168.98, 161.98 73.77, 227.83 -0.51 M0.25 262.18 C88.71 158.67, 180.25 53.63, 228.84 -0.77 M1.3 268.43 C68.25 188.54, 137.46 108.78, 232 -0.77 M0.03 267.88 C79.03 175.48, 160.02 82.64, 232.64 -0.48 M-0.03 274.67 C68.23 195.69, 137 116.02, 237.14 0.84 M0.08 273.9 C94.99 165.63, 189.19 57.44, 238.72 0.79 M0.42 280.2 C66.09 202.92, 132.1 127.52, 244.65 -0.61 M-0.15 280.29 C69.98 198.67, 140.46 116.49, 244.33 0.52 M-0.16 285.4 C90.08 180.09, 181.02 75.37, 249.9 -0.06 M0.24 286.73 C78.58 195.18, 159.55 102.93, 248.9 -0.06 M0.98 293.55 C88.08 189.67, 177.64 87.17, 254.63 0.48 M-0.46 292.63 C96.24 178.96, 194.52 66.92, 253.9 0.02 M0.21 299.36 C78.46 207.01, 158.95 115.66, 259.41 -0.84 M0.77 298.07 C98.56 183.9, 198.84 68.79, 259.2 0.44 M-0.67 305.4 C86.47 203.02, 172.6 104.25, 264.59 0.63 M-0.14 305.13 C75.9 215.65, 152.55 127.21, 265.24 -0.18 M0.83 310.41 C89.07 206.25, 180.21 101.04, 270.04 -0.21 M-0.1 310.65 C94.01 203.75, 188.93 95.01, 270.55 0.66 M0.01 316.82 C108.95 190.46, 217.35 64.77, 276.27 -0.63 M0.38 316.55 C88.58 214.19, 178.48 111.69, 276.22 0.09 M1.46 322.06 C102.1 203.48, 203.3 87.49, 279.69 0.78 M0.81 322.53 C92.51 214.77, 184.36 108.78, 281.06 0.59 M6.46 322.65 C101.09 211.69, 199.48 98.31, 286.52 -0.69 M5.46 323.2 C79.18 240.64, 149.72 158.67, 286.08 -0.3 M10.27 322.23 C68.74 258.99, 124.3 193.23, 291.11 -0.84 M10.97 322.96 C121.47 195.01, 233.79 66, 291.7 0.5 M15.62 323.62 C119.95 203.31, 223.31 85.15, 296.12 -0.28 M15.78 322.32 C99.37 225.43, 184.8 127.35, 297.12 -0.56 M22.63 323.32 C122.27 207.55, 222.39 92.27, 301.38 0.28 M21.57 322.17 C129.44 199.46, 235.6 77.31, 301.71 -0.16 M25.95 322.37 C93.88 248.99, 159.75 174.03, 307.34 -1.12 M27.27 322.74 C122.5 211.16, 219.8 100.13, 307.44 -0.2 M32.88 323.2 C101.11 244.06, 170.55 166.58, 312.28 1.1 M32.61 321.89 C101.22 241.6, 170.71 161.71, 312.97 0.42 M37.55 321.71 C127.27 218.51, 218.13 112.46, 317.83 0.22 M37.42 322.32 C122.77 222.56, 208.56 123.71, 318.23 0.01 M42.56 323.61 C144.26 210.41, 242.57 94.5, 324.08 0.6 M42.36 323.36 C135.55 214.2, 229.44 106.09, 323.68 0.19 M48.98 322.33 C109.36 251.46, 170.21 180.37, 328.89 -0.13 M48.41 322.31 C153.27 204.92, 257.47 85.16, 328.62 0.1 M52.62 322.92 C134.93 226.9, 218.36 134.03, 333.42 -0.15 M53.14 323.18 C141.32 219.43, 230.93 116.45, 333.6 0.46 M59.37 322.81 C140.51 227.57, 223.68 133.1, 339.29 -0.87 M58.77 322.15 C164.05 201.41, 268.82 82.02, 339.78 -0.16 M63.61 322.8 C162.59 208.86, 260.37 94.98, 343.74 -0.14 M64.22 323.15 C130.6 243.78, 198.62 165.99, 344.02 -0.26 M68.38 321.69 C155.48 223.28, 243.81 122.99, 348.69 1.05 M69.59 322.61 C178.34 195.84, 289.45 68.38, 349.08 0.57 M74.19 323.07 C167.74 214.44, 262.5 108.22, 354.89 -0.47 M74.48 322.97 C156.8 231.95, 236.45 139.47, 354.67 -0.1 M80.42 321.65 C147.86 246.96, 213.71 170.99, 360.35 1.19 M80.41 322.64 C186.68 199.23, 293.55 75.72, 360.03 0.07 M84.59 322.5 C172.95 220.87, 262.23 118.52, 365.18 -0.19 M84.89 323.2 C198.48 194.16, 309.94 65.32, 365.76 -0.01 M90 323.26 C158.51 245.09, 225.62 166.12, 370.89 0.46 M90.19 322.52 C181.66 216.74, 274.13 110.79, 371.01 0.23 M94.57 322.94 C177.89 227.91, 260.8 131.62, 375.54 -0.44 M95.32 323.05 C171.51 235.48, 247.92 147.11, 375.95 0.35 M100.55 322.87 C180.23 231.49, 257.62 141.48, 381.27 0.02 M101.57 322.81 C180.87 232.62, 258.59 142.54, 381.06 -0.16 M105.48 323.06 C203.17 207.75, 302.37 93.42, 387.46 -0.36 M106.69 322.59 C206.76 206.6, 307.22 91.27, 387.51 -0.45 M111.87 323.08 C198.98 221, 287.37 120.69, 391.96 -0.04 M111.42 322.24 C203.63 216.31, 296.66 109.57, 392.3 0.6 M116.1 322.58 C190.66 237.63, 266.24 151.7, 396.75 -1.15 M116.78 322.64 C188.16 239.8, 259.47 157.8, 398.01 -0.46 M122.24 322.25 C205.12 227.4, 286.69 134.63, 402.95 -0.69 M122.32 322.97 C190.97 243.86, 260.04 165.19, 402.7 -0.23 M126.79 322.21 C213.91 220.52, 303.9 118.46, 408.1 0.07 M127.51 322.75 C215.93 220.88, 304.52 117.5, 408.65 -0.59 M132.55 322.92 C238.24 203.1, 341.11 84.17, 413.72 0.17 M133.19 322.21 C194.12 251.33, 255.96 180.4, 413.31 0.63 M137.45 323.65 C215.72 233.61, 293.81 145.54, 418.41 -0.06 M137.67 323.28 C209.61 239.94, 280.45 156.99, 419.06 -0.4 M144.28 323.39 C225.24 229.63, 307.49 134.41, 423.29 -0.59 M143.45 322.67 C232.25 219.89, 320.02 118.07, 424.15 -0.03 M149.55 323.4 C207.67 255.29, 267.6 184.88, 429.3 -0.78 M149.15 322.25 C241.86 218.73, 332.23 113.29, 429.36 -0.25 M154.62 322.7 C212.37 255.79, 270.17 188.63, 434.33 -0.93 M153.44 322.87 C222.47 242.41, 292.43 161.79, 434.15 0.58 M159.92 323.1 C242.91 224.74, 328.82 127.3, 440.88 0.71 M159.67 322.63 C257.72 211.2, 354.32 99.44, 440.18 -0.19 M165.37 323.85 C235.17 242.93, 304.67 160.95, 444.88 0.13 M163.85 323.5 C270.63 199.96, 377.9 76.96, 445.37 -0.2 M169.07 323.33 C229.17 255.76, 286.98 191.38, 451.7 -1.13 M170.03 323.02 C247.48 230.9, 325.74 141.22, 450.57 -0.02 M174.84 323.72 C278.54 205.51, 380.41 86.76, 456.64 0.39 M174.97 322.62 C267.47 214.87, 361.67 107.08, 455.69 -0.07 M181.16 323.6 C257.81 232.91, 338.25 142.39, 460.9 0.58 M181.04 322.77 C252.29 241.66, 323.1 160.55, 461.15 -0.29 M184.6 322.6 C266.45 231.4, 345.53 137.56, 466.67 0.76 M185.11 322.97 C289.68 201.37, 395.55 79.41, 466.09 -0.11 M191.57 322.34 C301.37 195.64, 411.11 68.54, 471.64 1.01 M191.41 323.11 C283.09 216.96, 375.7 111.16, 471.3 0.53 M196.81 322.79 C293.36 211.11, 391.44 99.89, 477.78 -1.01 M196.24 323.45 C263.77 246.81, 329.16 171.5, 477.53 0.48 M201.41 323.16 C284.23 226.6, 367.17 130.42, 481.31 1.3 M201.9 322.91 C298.03 212.99, 395.03 101.71, 481.87 -0.14 M205.84 322.42 C282.89 233.73, 360.01 144.34, 488.12 0.09 M206.62 323.2 C287.54 230.08, 367.32 137.83, 487.84 0.12 M213.41 322.33 C283.3 244.43, 349.77 164.2, 492.11 0.7 M212.23 322.9 C289.6 233.49, 365.73 145.35, 492.23 -0.2 M217.03 323.74 C328.33 197.66, 439.73 71.51, 497.47 -0.35 M217.15 322.69 C318.48 207.16, 419.4 90.28, 497.95 0.15 M223.53 323.4 C330.08 198.34, 437.5 74.77, 503.29 -0.27 M223.13 322.52 C293.75 240.09, 364.66 158.92, 502.91 -0.16 M227.92 322.74 C290.55 250.71, 355.99 177.34, 509.23 0.52 M228.16 322.67 C326.91 210.46, 424.12 98.39, 508.77 -0.44 M233.52 322.59 C334.5 207.98, 434.99 92.38, 514.66 0.98 M234.28 322 C335.3 205.92, 437.64 89.46, 513.92 -0.21 M238.72 323.68 C324.09 225.8, 406.67 130.2, 520.12 0.34 M238.41 323.13 C344.22 200.83, 450.76 78.94, 519.12 0.23 M244.63 323.38 C332.37 220.84, 421.32 118.07, 524.48 0.75 M244.3 322.38 C315.07 241.96, 383.94 162.28, 524.7 -0.31 M250.17 322.47 C337.29 219.03, 425.28 117.97, 530.5 -0.19 M249.25 323.28 C319.93 242.87, 388.81 163.98, 529.89 -0.37 M255.54 321.9 C337.79 227.63, 419.75 132.49, 535.75 -0.54 M254.93 322.36 C338.29 226.45, 420.8 131.9, 535.23 -0.1 M259.41 323.31 C317.15 255.41, 374.01 190.71, 540.26 0.64 M260.44 322.62 C370.47 195.65, 481.7 68.52, 540.9 0.2 M266.53 321.59 C331.46 247.32, 396.49 172.57, 545.77 -0.39 M265.8 322.48 C335.64 239.95, 406.04 158.92, 545.98 -0.01 M270.37 322.07 C344.77 235.12, 419.6 150.66, 550.88 -0.68 M270.18 323 C359.57 218.47, 449.62 115.25, 551.96 -0.05 M274.65 323.44 C376.52 206.62, 478.33 90.14, 556.55 -0.52 M275.85 322.76 C337.37 253.05, 398.76 182.68, 556.86 -0.19 M281.29 322.86 C341.83 254.81, 401.03 186.15, 561.26 -0.42 M281.33 322.39 C386.21 203.46, 490.15 83.55, 561.83 -0.21 M286.74 323.05 C346.64 253.76, 407.99 182.97, 566.5 -0.61 M286.01 322.79 C354.35 244.38, 422.47 165.54, 567.29 0.53 M290.98 323.57 C388.29 213.79, 484.2 102.64, 571.91 -0.09 M292.04 322.15 C390.36 207.28, 489.86 92.46, 572.35 -0.66 M296.81 323.43 C357.46 253.66, 417.17 184.67, 578.73 -0.33 M297.28 323.13 C390.66 217.49, 482.84 111, 578.2 0.48 M302.93 322.01 C402.34 206.03, 504.71 88.08, 582.19 0.59 M303.06 322.88 C391.71 218.9, 482.27 115.44, 582.65 0.79 M307.34 323.71 C390.69 227.73, 473.69 132.49, 588.6 0.56 M307.15 323.35 C375.02 247.09, 442.19 168.93, 587.91 0.34 M312.89 322.23 C416.72 204.86, 519.61 85.95, 592.93 0.6 M313.56 322.34 C419.82 199.44, 527.84 75.56, 593.77 0.75 M318.24 321.92 C394.93 236.16, 467.67 151.31, 598.26 0.24 M318.28 322.78 C396.81 232.28, 476.23 141.73, 599.41 0.03 M323.4 322 C394.6 241.6, 466.07 160.95, 604.61 0.15 M324.25 322.73 C411.07 224.89, 496.5 125.96, 603.74 -0.13 M328.96 323.36 C400.17 241.59, 469.6 161.15, 610.39 -1.1 M329.17 322.58 C419.04 220.17, 508.32 117.35, 609.94 -0.27 M335.45 323.22 C420.99 224.03, 507.14 125.02, 613.68 -0.31 M334.26 322.34 C418.94 224.39, 502.99 128.17, 614.36 -0.07 M338.42 321.85 C413.37 237.05, 488.61 150.93, 619.93 0.88 M339.34 322.62 C442.21 201.88, 546.94 81.95, 620.4 -0.07 M344.37 321.49 C410.92 250.55, 474.3 176.14, 624.47 0.67 M345.32 322.9 C411.97 245.32, 477.32 169.08, 625.33 0.37 M349.24 322.61 C411.37 250.57, 473.73 178.92, 630.67 0.08 M350.36 322.54 C409.55 257.55, 467.29 191, 631.1 0.33 M356.43 322.82 C434.78 229.71, 516.32 137.39, 636.62 -0.69 M355.48 322.21 C420.81 247.88, 486.18 172.56, 636.32 0.38 M361.48 323.56 C452.77 215.55, 544.3 109.75, 640.73 0.76 M360.69 322.77 C458.34 210.86, 556.78 98.62, 641.86 -0.14 M365.97 322.76 C473.38 200.85, 578.47 78.98, 647.22 1.17 M366.44 322.54 C441.76 233.38, 518.14 146.22, 645.96 -0.05 M370.52 323.61 C451.66 230.83, 532.84 137.04, 652.94 -1.16 M370.82 322.46 C447.09 234.8, 523.39 146.97, 651.93 -0.16 M376.21 323.07 C480.55 202.62, 585.42 80.86, 657.04 0.33 M377.26 322.27 C482.42 202.1, 587.43 81.08, 657.01 -0.14 M381.69 322.7 C466.28 224.77, 552.41 126.55, 662.36 0.6 M382.3 322.58 C441.79 255.69, 499.73 187.73, 663.17 -0.25 M386.1 322.08 C488.18 207.01, 588.02 91.51, 668.43 0.18 M386.86 322.87 C451.92 248.53, 515.42 175.57, 668.07 -0.36 M393.57 321.76 C471.17 232.82, 550.39 141.77, 672.9 -0.19 M392.48 322.84 C489.49 213.44, 584.77 103.89, 673.78 -0.63 M397.11 322.07 C505.84 196.36, 616.35 70.55, 679.1 0.99 M397.68 322.8 C498.79 208.38, 599.93 92.18, 678.76 -0.44 M402.17 322.73 C461.81 252.9, 521.24 186.73, 684.91 0.61 M402.86 322.68 C460.17 257.45, 518.25 191.21, 684.52 -0.21 M407.22 323.37 C506.9 208.41, 604.88 96.67, 688.34 -0.15 M408.59 323.06 C508.94 205.58, 609.53 89.19, 688.66 -0.31 M413.43 322.33 C519.27 199.15, 627.36 76.41, 695.1 -1.21 M413.88 322.37 C494.71 230.64, 575.85 136.77, 694.6 -0.75 M419.78 323.46 C504.39 223.46, 590.07 126.85, 699.14 -0.96 M418.61 323.14 C493.88 235.16, 569.01 148.32, 699.44 -0.16 M424.46 322.43 C534.1 194.35, 643.94 67.06, 704.22 1.24 M424.94 322.95 C488.42 247.07, 554.4 172.02, 704.1 0.14 M430.36 323.94 C514.93 224.14, 601.71 124.45, 709.81 -0.26 M429.32 322.78 C536.24 199.19, 643.82 74.99, 710.68 -0.42 M436.07 321.76 C525.16 217.4, 617.99 112.74, 715.6 0.1 M435.39 322.1 C500.11 245.27, 566.34 168.99, 715.6 0.8 M439.26 322.22 C507.21 249.51, 571.91 173.88, 720.27 0.01 M439.69 323.06 C508.71 242.43, 577.15 162.24, 720.87 0.32 M446.47 322.14 C548.95 204.45, 653.09 85.16, 724.84 0.14 M445.64 322.47 C513.46 245.22, 581.85 166.15, 726.01 0 M451.48 321.92 C541.97 217.54, 633.15 113.35, 732.03 -1.11 M450.25 323.24 C522.78 239.33, 595.2 155.63, 731.63 0.09 M455.49 322.22 C569.4 195.77, 678.75 66.9, 737.14 1.16 M456.06 322.28 C556 205.14, 656.43 90.09, 736.56 0.22 M462.17 322.46 C532.65 243.94, 602.31 164.31, 741.96 0.6 M460.97 322.88 C538.51 233.72, 616.58 145.21, 742.48 -0.19 M466.62 321.67 C576.48 196.62, 684.93 71.25, 747.79 0.87 M467.02 322.65 C531.72 247.46, 597.43 170.94, 746.89 0.05 M471.21 323.23 C543 242.89, 611.04 163.21, 752.66 -0.04 M472.34 322.82 C585.77 193.92, 697.19 65.31, 752.92 0.16 M476.63 323.26 C541.79 251.4, 602.86 178.57, 756.83 1.1 M477.82 322.37 C556.34 231.53, 635.36 140.89, 758.18 0.43 M483.18 323.6 C586.76 203.76, 691.24 84.19, 764.2 -0.94 M482.22 323.18 C592.93 197, 701.76 70.53, 763.48 -0.52 M488.03 322.4 C563.62 237.27, 639.07 151.32, 769.02 -0.52 M487.76 322.07 C560.08 239.52, 631.48 156.59, 767.95 0.49 M492.8 322.89 C568.92 236.61, 643.48 151.25, 774.03 -1.11 M493.15 323.27 C568.24 237.45, 641.37 152.71, 773.62 0.05 M498.04 322.57 C605.31 199.44, 715.03 72.43, 779.24 -0.14 M498.57 322.88 C576.18 232.95, 652.79 143.72, 779.44 -0.35 M503.68 322.47 C604.15 205.33, 706.9 88.41, 779.53 6.17 M504.01 322.72 C579.33 232.61, 656.37 144.06, 778.98 6.52 M509.54 323.91 C605.18 211.73, 698.97 103.37, 778.65 11.88 M508.72 323.44 C564.54 259.14, 619.43 194.88, 779.67 11.73 M513.7 323.78 C600.96 223.53, 687.04 123.81, 778.39 18.24 M514.13 322.42 C609.4 212.48, 704.37 102.25, 779.27 18.07 M518.59 323.47 C578.98 255.56, 635.97 189.22, 780.16 25.3 M520.01 323.34 C589.16 244, 659.06 164.85, 779.13 24.74 M525.71 321.49 C618.51 214.8, 711.5 105.56, 779.82 29.61 M525.63 322.58 C594.59 239.46, 665.85 158.22, 779.54 31.14 M530.29 322.78 C619.65 221.64, 709.23 119.7, 779.44 35.79 M530.49 323.28 C588.83 257.75, 646.37 190.93, 778.91 37.45 M536.37 321.53 C613.43 230.04, 692.96 138.51, 778.9 43.68 M535.47 322.58 C598.62 248.45, 661.46 175.93, 779.09 42.54 M540.09 322.39 C592.49 263.45, 645.26 206.54, 779.08 48.33 M540.35 322.54 C595.57 260.01, 649.84 197.74, 779.27 48.8 M547.55 323.2 C599.36 257.64, 655.19 195.82, 779.45 55.42 M545.82 321.97 C632.6 221.64, 720.72 121.01, 779.62 54.62 M552.47 324.23 C630.14 233.1, 705.94 142.96, 778.07 60.83 M551.12 322.6 C628.4 235.56, 704.4 147.51, 778.93 60.49 M556.8 322.91 C624.42 243.47, 692.27 162.6, 779.37 66.3 M557.19 321.95 C635.97 229.56, 716.6 137.23, 778.47 67.92 M561.11 323.66 C646.43 227.17, 732.04 127.62, 779.44 72.62 M561.82 323.51 C644.57 227.28, 728.31 131.52, 779.18 72.61 M567.57 321.98 C649.25 228.5, 730.76 137.18, 777.58 79.86 M568.08 322.91 C609.64 271.91, 653.74 221.04, 778.74 78.95 M572.19 322.32 C636.23 247.82, 699.33 173.79, 778.98 85.7 M572.73 323.57 C647.71 237.26, 722.84 151.22, 779.37 85.63 M578.87 321.94 C633.34 259.47, 688.01 198.79, 778.7 92.48 M578.87 322.76 C647.49 244.44, 714.5 165.3, 778.94 91.62 M583.34 323.56 C649.15 248.66, 715.98 172.6, 777.77 97.22 M582.66 323.4 C623.08 275.8, 664.2 229.69, 778.82 98.28 M590.34 321.5 C664.12 235.72, 737.14 148.82, 779.09 103.59 M589.23 322.51 C636.93 265.22, 685.7 209.96, 779.6 103.23 M594.17 323.58 C634.62 278.3, 674.49 232.59, 779.98 110.62 M593.26 323.35 C633.44 277.1, 672.46 231.48, 779.54 110.19 M599.27 322.24 C664.62 248.13, 729.79 174.15, 780.06 117.13 M599.57 322.15 C653.05 261.86, 707.26 201.15, 779.72 114.95 M603.47 322.67 C671.31 245.41, 738.74 165.95, 779.58 122.81 M604.86 323.49 C642.96 279.37, 681.92 233.4, 779.28 122.27 M609.85 322.68 C670.98 250.57, 737.21 176.74, 778.46 127.06 M609.48 322.14 C654.13 271.17, 697.01 221.09, 779.09 128.53 M615.66 322.75 C674.49 252.2, 738.72 180.66, 777.81 132.59 M614.48 323.48 C653.48 276.75, 692.66 232.58, 778.65 133.49 M620.48 321.85 C659.94 273.99, 700.34 229.08, 778.65 139.07 M620.35 322.5 C682.39 250.83, 745.1 178.85, 779.53 139.84 M624.83 324.3 C658.81 282.57, 691.25 245.26, 780.39 145.35 M625.49 322.55 C657.32 285.41, 688.76 249.11, 779.15 146.49 M632.25 323.1 C662.7 287.01, 691.54 251.29, 779.21 153.43 M631.47 323.09 C661.03 286.77, 691.7 251.63, 779.19 153.14 M637.4 322.55 C669.53 284.88, 706.32 246.85, 780.12 157.4 M636.47 322.92 C670.02 285.09, 702.1 246.49, 779.22 158.54 M641.68 321.99 C673.08 288.2, 702.32 252.52, 778.42 164.21 M640.76 323.13 C676.6 283.26, 710.91 244.04, 778.48 164.92 M645.41 321.04 C683.32 283.93, 716.56 242.48, 779.06 169.37 M647.57 323.07 C695.94 264.77, 745.85 206.88, 778.17 171.84 M654.01 323.62 C691.33 278.39, 731.82 233.34, 780.96 177.53 M651.06 323.19 C694.43 273.73, 736.19 225.46, 779.67 176.2 M657.54 321.81 C683.67 293.58, 709.79 261.98, 778.31 184.45 M657 322.71 C688.91 288.7, 719.52 254.24, 779.63 182.51 M664.25 322.11 C690.94 290.61, 718.74 255.35, 778.63 191.35 M663.11 322.47 C699.34 280.71, 735.49 237.12, 778.9 188.55 M667.39 321.57 C701.82 283.02, 738.8 244.07, 777.22 193.36 M668.7 322.96 C692.14 296.36, 716.23 268, 779.62 195.57 M672.38 322.97 C697.9 291.63, 723.05 264.84, 779.86 202.99 M674.15 322.72 C706.8 283.21, 739.73 245.48, 779.83 200.9 M678.73 322.23 C706.76 293.33, 731.4 261.17, 780.04 206.24 M678.81 322.63 C719.03 278.67, 756.47 233.85, 778.75 207.03 M683.39 323.77 C711.15 291.14, 735.87 265.25, 778.29 213.99 M684.5 322.23 C713.95 287.24, 742.95 253.46, 778.22 213.93 M690.61 323.86 C716.89 294.87, 743.36 264.23, 779.44 218.11 M689.37 322.03 C711.28 298.66, 730.8 273.36, 777.99 220.08 M695.34 322.04 C723.36 289.2, 748.46 259.92, 779.25 227.09 M695.42 323.81 C721.37 291.82, 747.72 261.01, 778.45 225.08 M701.11 324.45 C724.07 297.33, 745.57 270.81, 779.08 233.68 M700.38 322.97 C730.58 287.83, 760.9 252.31, 779.3 232.18 M703.36 323.23 C736.52 288.75, 763.79 256.63, 779.13 238.98 M705.17 322.8 C733.64 288.64, 762.59 254.33, 778.88 237.34 M711.38 323.9 C727 302.23, 747.68 280.82, 777.77 243.84 M709.83 322.81 C726.52 305.58, 741.28 288.31, 779.59 243.58 M715.62 324.74 C732.4 305.75, 746.27 288.38, 780.76 249 M714.96 323.07 C733.65 301.78, 752.01 280.18, 779.17 249.98 M721.63 324.1 C743.61 300.02, 762.13 274.78, 779.98 254.68 M721.65 322.45 C735.58 305, 751.32 288.65, 779.42 256.31 M725.38 323.89 C740.64 305.67, 751.65 291.96, 779.98 264.22 M726.96 323.02 C746.16 301.1, 765.95 278.48, 778.93 261.54 M730.5 321.59 C746.93 307.27, 759.99 290.49, 779.28 268.2 M731.12 323.06 C749.77 301.39, 768.38 280.34, 778.32 268.93 M738.94 321.95 C743.42 313.62, 752.3 302.03, 777.71 275.86 M736.33 323.6 C749.08 308.57, 760.36 295.7, 779.75 274.34 M741.63 324.6 C750.67 313.52, 761.59 299.42, 777.64 279.13 M741.42 323.08 C751.86 313.4, 760.46 302.59, 778.13 281.28 M747.68 324.14 C753.98 312.35, 763.94 303.27, 778.61 288.35 M747.18 322.27 C757.1 310.23, 767.12 299.73, 779.87 285.49 M751.78 321.56 C760.53 309.78, 772.93 300.82, 780.05 291.85 M751.75 322.74 C758.46 316.74, 762.94 310.64, 779.62 293.49 M760.03 323.58 C768.44 312.87, 775.77 303.68, 778.41 300.06 M758.6 323.03 C761.62 318.52, 766.29 312.98, 779.49 297.64 M761.4 322.08 C768.63 315.77, 775.59 308.06, 778.6 304.94 M763.94 323.07 C766.12 319.56, 769.78 315.21, 778.56 304.46 M769.36 321.69 C773.15 318.42, 776.35 314.59, 779.1 311.85 M768.74 322.47 C771.64 319.38, 775.78 314.51, 778.28 311.6 M773.98 322.47 C775.17 322.1, 776.15 319.88, 779.16 316.63 M773.88 322.83 C774.65 321.46, 776.53 320.34, 778.86 316.92" stroke="#228be6" stroke-width="0.5" fill="none"></path><path d="M0.28 0.05 C228.15 -2.1, 455.11 -1.5, 778.96 0.16 M-0.31 0.24 C219.75 -2.94, 439.25 -2.82, 779.32 0.32 M777.85 0.63 C781.52 94.63, 780.57 191.03, 778.91 322.93 M778.79 0.36 C776.48 73.69, 776.89 146.55, 779.22 323.02 M779.38 322.81 C582.39 322.53, 384.98 323.36, 0.44 321.81 M779.34 322.21 C616.02 321.76, 452.24 321.52, 0.21 322.51 M-0.87 321.85 C2.09 209.4, 1.85 97.06, 0.04 -1.12 M0.43 322.4 C1.22 220.81, 0.75 117.92, -0.6 -0.58" stroke="#000000" stroke-width="1" fill="none"></path></g><g stroke-linecap="round" transform="translate(715.5834419392195 64.153030497636) rotate(0 9.87517181638475 8.640775339336727)"><path d="M19.75 8.64 C19.75 9.14, 19.7 9.65, 19.6 10.14 C19.5 10.63, 19.35 11.13, 19.15 11.6 C18.96 12.07, 18.71 12.53, 18.43 12.96 C18.14 13.39, 17.81 13.81, 17.44 14.19 C17.07 14.58, 16.66 14.94, 16.22 15.26 C15.78 15.58, 15.31 15.87, 14.81 16.12 C14.32 16.37, 13.79 16.59, 13.25 16.76 C12.72 16.93, 12.15 17.06, 11.59 17.15 C11.03 17.24, 10.45 17.28, 9.88 17.28 C9.3 17.28, 8.72 17.24, 8.16 17.15 C7.6 17.06, 7.03 16.93, 6.5 16.76 C5.96 16.59, 5.43 16.37, 4.94 16.12 C4.44 15.87, 3.97 15.58, 3.53 15.26 C3.09 14.94, 2.68 14.58, 2.31 14.19 C1.94 13.81, 1.61 13.39, 1.32 12.96 C1.04 12.53, 0.79 12.07, 0.6 11.6 C0.4 11.13, 0.25 10.63, 0.15 10.14 C0.05 9.65, 0 9.14, 0 8.64 C0 8.14, 0.05 7.63, 0.15 7.14 C0.25 6.65, 0.4 6.16, 0.6 5.69 C0.79 5.22, 1.04 4.75, 1.32 4.32 C1.61 3.89, 1.94 3.47, 2.31 3.09 C2.68 2.7, 3.09 2.34, 3.53 2.02 C3.97 1.7, 4.44 1.41, 4.94 1.16 C5.43 0.91, 5.96 0.69, 6.5 0.52 C7.03 0.35, 7.6 0.22, 8.16 0.13 C8.72 0.04, 9.3 0, 9.88 0 C10.45 0, 11.03 0.04, 11.59 0.13 C12.15 0.22, 12.72 0.35, 13.25 0.52 C13.79 0.69, 14.32 0.91, 14.81 1.16 C15.31 1.41, 15.78 1.7, 16.22 2.02 C16.66 2.34, 17.07 2.7, 17.44 3.09 C17.81 3.47, 18.14 3.89, 18.43 4.32 C18.71 4.75, 18.96 5.22, 19.15 5.69 C19.35 6.16, 19.5 6.65, 19.6 7.14 C19.7 7.63, 19.73 8.39, 19.75 8.64 C19.78 8.89, 19.78 8.39, 19.75 8.64" stroke="none" stroke-width="0" fill="#ced4da"></path><path d="M19.75 8.64 C19.75 9.14, 19.7 9.65, 19.6 10.14 C19.5 10.63, 19.35 11.13, 19.15 11.6 C18.96 12.07, 18.71 12.53, 18.43 12.96 C18.14 13.39, 17.81 13.81, 17.44 14.19 C17.07 14.58, 16.66 14.94, 16.22 15.26 C15.78 15.58, 15.31 15.87, 14.81 16.12 C14.32 16.37, 13.79 16.59, 13.25 16.76 C12.72 16.93, 12.15 17.06, 11.59 17.15 C11.03 17.24, 10.45 17.28, 9.88 17.28 C9.3 17.28, 8.72 17.24, 8.16 17.15 C7.6 17.06, 7.03 16.93, 6.5 16.76 C5.96 16.59, 5.43 16.37, 4.94 16.12 C4.44 15.87, 3.97 15.58, 3.53 15.26 C3.09 14.94, 2.68 14.58, 2.31 14.19 C1.94 13.81, 1.61 13.39, 1.32 12.96 C1.04 12.53, 0.79 12.07, 0.6 11.6 C0.4 11.13, 0.25 10.63, 0.15 10.14 C0.05 9.65, 0 9.14, 0 8.64 C0 8.14, 0.05 7.63, 0.15 7.14 C0.25 6.65, 0.4 6.16, 0.6 5.69 C0.79 5.22, 1.04 4.75, 1.32 4.32 C1.61 3.89, 1.94 3.47, 2.31 3.09 C2.68 2.7, 3.09 2.34, 3.53 2.02 C3.97 1.7, 4.44 1.41, 4.94 1.16 C5.43 0.91, 5.96 0.69, 6.5 0.52 C7.03 0.35, 7.6 0.22, 8.16 0.13 C8.72 0.04, 9.3 0, 9.88 0 C10.45 0, 11.03 0.04, 11.59 0.13 C12.15 0.22, 12.72 0.35, 13.25 0.52 C13.79 0.69, 14.32 0.91, 14.81 1.16 C15.31 1.41, 15.78 1.7, 16.22 2.02 C16.66 2.34, 17.07 2.7, 17.44 3.09 C17.81 3.47, 18.14 3.89, 18.43 4.32 C18.71 4.75, 18.96 5.22, 19.15 5.69 C19.35 6.16, 19.5 6.65, 19.6 7.14 C19.7 7.63, 19.73 8.39, 19.75 8.64 C19.78 8.89, 19.78 8.39, 19.75 8.64" stroke="#000000" stroke-width="2" fill="none"></path></g><g stroke-linecap="round" transform="translate(672.3997678148987 64.73609828127007) rotate(0 9.87517181638475 8.640775339336727)"><path d="M19.75 8.64 C19.75 9.14, 19.7 9.65, 19.6 10.14 C19.5 10.63, 19.35 11.13, 19.15 11.6 C18.96 12.07, 18.71 12.53, 18.43 12.96 C18.14 13.39, 17.81 13.81, 17.44 14.19 C17.07 14.58, 16.66 14.94, 16.22 15.26 C15.78 15.58, 15.31 15.87, 14.81 16.12 C14.32 16.37, 13.79 16.59, 13.25 16.76 C12.72 16.93, 12.15 17.06, 11.59 17.15 C11.03 17.24, 10.45 17.28, 9.88 17.28 C9.3 17.28, 8.72 17.24, 8.16 17.15 C7.6 17.06, 7.03 16.93, 6.5 16.76 C5.96 16.59, 5.43 16.37, 4.94 16.12 C4.44 15.87, 3.97 15.58, 3.53 15.26 C3.09 14.94, 2.68 14.58, 2.31 14.19 C1.94 13.81, 1.61 13.39, 1.32 12.96 C1.04 12.53, 0.79 12.07, 0.6 11.6 C0.4 11.13, 0.25 10.63, 0.15 10.14 C0.05 9.65, 0 9.14, 0 8.64 C0 8.14, 0.05 7.63, 0.15 7.14 C0.25 6.65, 0.4 6.16, 0.6 5.69 C0.79 5.22, 1.04 4.75, 1.32 4.32 C1.61 3.89, 1.94 3.47, 2.31 3.09 C2.68 2.7, 3.09 2.34, 3.53 2.02 C3.97 1.7, 4.44 1.41, 4.94 1.16 C5.43 0.91, 5.96 0.69, 6.5 0.52 C7.03 0.35, 7.6 0.22, 8.16 0.13 C8.72 0.04, 9.3 0, 9.88 0 C10.45 0, 11.03 0.04, 11.59 0.13 C12.15 0.22, 12.72 0.35, 13.25 0.52 C13.79 0.69, 14.32 0.91, 14.81 1.16 C15.31 1.41, 15.78 1.7, 16.22 2.02 C16.66 2.34, 17.07 2.7, 17.44 3.09 C17.81 3.47, 18.14 3.89, 18.43 4.32 C18.71 4.75, 18.96 5.22, 19.15 5.69 C19.35 6.16, 19.5 6.65, 19.6 7.14 C19.7 7.63, 19.73 8.39, 19.75 8.64 C19.78 8.89, 19.78 8.39, 19.75 8.64" stroke="none" stroke-width="0" fill="#ced4da"></path><path d="M19.75 8.64 C19.75 9.14, 19.7 9.65, 19.6 10.14 C19.5 10.63, 19.35 11.13, 19.15 11.6 C18.96 12.07, 18.71 12.53, 18.43 12.96 C18.14 13.39, 17.81 13.81, 17.44 14.19 C17.07 14.58, 16.66 14.94, 16.22 15.26 C15.78 15.58, 15.31 15.87, 14.81 16.12 C14.32 16.37, 13.79 16.59, 13.25 16.76 C12.72 16.93, 12.15 17.06, 11.59 17.15 C11.03 17.24, 10.45 17.28, 9.88 17.28 C9.3 17.28, 8.72 17.24, 8.16 17.15 C7.6 17.06, 7.03 16.93, 6.5 16.76 C5.96 16.59, 5.43 16.37, 4.94 16.12 C4.44 15.87, 3.97 15.58, 3.53 15.26 C3.09 14.94, 2.68 14.58, 2.31 14.19 C1.94 13.81, 1.61 13.39, 1.32 12.96 C1.04 12.53, 0.79 12.07, 0.6 11.6 C0.4 11.13, 0.25 10.63, 0.15 10.14 C0.05 9.65, 0 9.14, 0 8.64 C0 8.14, 0.05 7.63, 0.15 7.14 C0.25 6.65, 0.4 6.16, 0.6 5.69 C0.79 5.22, 1.04 4.75, 1.32 4.32 C1.61 3.89, 1.94 3.47, 2.31 3.09 C2.68 2.7, 3.09 2.34, 3.53 2.02 C3.97 1.7, 4.44 1.41, 4.94 1.16 C5.43 0.91, 5.96 0.69, 6.5 0.52 C7.03 0.35, 7.6 0.22, 8.16 0.13 C8.72 0.04, 9.3 0, 9.88 0 C10.45 0, 11.03 0.04, 11.59 0.13 C12.15 0.22, 12.72 0.35, 13.25 0.52 C13.79 0.69, 14.32 0.91, 14.81 1.16 C15.31 1.41, 15.78 1.7, 16.22 2.02 C16.66 2.34, 17.07 2.7, 17.44 3.09 C17.81 3.47, 18.14 3.89, 18.43 4.32 C18.71 4.75, 18.96 5.22, 19.15 5.69 C19.35 6.16, 19.5 6.65, 19.6 7.14 C19.7 7.63, 19.73 8.39, 19.75 8.64 C19.78 8.89, 19.78 8.39, 19.75 8.64" stroke="#000000" stroke-width="2" fill="none"></path></g><g stroke-linecap="round"><g transform="translate(682.8515878221629 123.66713401891968) rotate(0 21.90843989373377 -18.494048425191153)" fill-rule="evenodd"><path d="M0 0 L2.65 -18.77 L4.68 -24.67 L11.71 -33.11 L15.97 -35.95 L20.07 -37.23 L24.12 -36.69 L28.32 -34.63 L35.45 -27.36 L42.2 -14.5 L43.82 -7.55 L41.81 -2.56 L33.76 -0.3 L0 0" stroke="none" stroke-width="0" fill="#ced4da" fill-rule="evenodd"></path><path d="M0 0 C0.78 -4.11, 1.34 -18.46, 4.68 -24.67 C8.03 -30.87, 14.94 -36.78, 20.07 -37.23 C25.2 -37.68, 31.83 -33.14, 35.45 -27.36 C39.07 -21.58, 47.71 -7.12, 41.81 -2.56 C35.9 2, 6.97 -0.43, 0 0 M0 0 C0.78 -4.11, 1.34 -18.46, 4.68 -24.67 C8.03 -30.87, 14.94 -36.78, 20.07 -37.23 C25.2 -37.68, 31.83 -33.14, 35.45 -27.36 C39.07 -21.58, 47.71 -7.12, 41.81 -2.56 C35.9 2, 6.97 -0.43, 0 0" stroke="#000000" stroke-width="2" fill="none"></path></g></g><g stroke-linecap="round" transform="translate(693.3377099729723 67.09262269908265) rotate(0 10.702336545928915 9.364544477687815)"><path d="M21.4 9.36 C21.4 9.91, 21.35 10.46, 21.24 10.99 C21.13 11.52, 20.97 12.06, 20.76 12.57 C20.55 13.08, 20.28 13.58, 19.97 14.05 C19.66 14.52, 19.3 14.97, 18.9 15.38 C18.5 15.8, 18.06 16.19, 17.58 16.54 C17.11 16.89, 16.59 17.2, 16.05 17.47 C15.52 17.75, 14.94 17.98, 14.36 18.16 C13.78 18.35, 13.17 18.49, 12.56 18.59 C11.95 18.68, 11.32 18.73, 10.7 18.73 C10.08 18.73, 9.45 18.68, 8.84 18.59 C8.23 18.49, 7.62 18.35, 7.04 18.16 C6.46 17.98, 5.89 17.75, 5.35 17.47 C4.81 17.2, 4.3 16.89, 3.82 16.54 C3.35 16.19, 2.9 15.8, 2.5 15.38 C2.11 14.97, 1.74 14.52, 1.43 14.05 C1.12 13.58, 0.86 13.08, 0.65 12.57 C0.43 12.06, 0.27 11.52, 0.16 10.99 C0.06 10.46, 0 9.91, 0 9.36 C0 8.82, 0.06 8.27, 0.16 7.74 C0.27 7.2, 0.43 6.67, 0.65 6.16 C0.86 5.65, 1.12 5.15, 1.43 4.68 C1.74 4.21, 2.11 3.76, 2.5 3.35 C2.9 2.93, 3.35 2.54, 3.82 2.19 C4.3 1.84, 4.81 1.53, 5.35 1.25 C5.89 0.98, 6.46 0.75, 7.04 0.56 C7.62 0.38, 8.23 0.24, 8.84 0.14 C9.45 0.05, 10.08 0, 10.7 0 C11.32 0, 11.95 0.05, 12.56 0.14 C13.17 0.24, 13.78 0.38, 14.36 0.56 C14.94 0.75, 15.52 0.98, 16.05 1.25 C16.59 1.53, 17.11 1.84, 17.58 2.19 C18.06 2.54, 18.5 2.93, 18.9 3.35 C19.3 3.76, 19.66 4.21, 19.97 4.68 C20.28 5.15, 20.55 5.65, 20.76 6.16 C20.97 6.67, 21.13 7.2, 21.24 7.74 C21.35 8.27, 21.38 9.09, 21.4 9.36 C21.43 9.64, 21.43 9.09, 21.4 9.36" stroke="none" stroke-width="0" fill="#ced4da"></path><path d="M21.4 9.36 C21.4 9.91, 21.35 10.46, 21.24 10.99 C21.13 11.52, 20.97 12.06, 20.76 12.57 C20.55 13.08, 20.28 13.58, 19.97 14.05 C19.66 14.52, 19.3 14.97, 18.9 15.38 C18.5 15.8, 18.06 16.19, 17.58 16.54 C17.11 16.89, 16.59 17.2, 16.05 17.47 C15.52 17.75, 14.94 17.98, 14.36 18.16 C13.78 18.35, 13.17 18.49, 12.56 18.59 C11.95 18.68, 11.32 18.73, 10.7 18.73 C10.08 18.73, 9.45 18.68, 8.84 18.59 C8.23 18.49, 7.62 18.35, 7.04 18.16 C6.46 17.98, 5.89 17.75, 5.35 17.47 C4.81 17.2, 4.3 16.89, 3.82 16.54 C3.35 16.19, 2.9 15.8, 2.5 15.38 C2.11 14.97, 1.74 14.52, 1.43 14.05 C1.12 13.58, 0.86 13.08, 0.65 12.57 C0.43 12.06, 0.27 11.52, 0.16 10.99 C0.06 10.46, 0 9.91, 0 9.36 C0 8.82, 0.06 8.27, 0.16 7.74 C0.27 7.2, 0.43 6.67, 0.65 6.16 C0.86 5.65, 1.12 5.15, 1.43 4.68 C1.74 4.21, 2.11 3.76, 2.5 3.35 C2.9 2.93, 3.35 2.54, 3.82 2.19 C4.3 1.84, 4.81 1.53, 5.35 1.25 C5.89 0.98, 6.46 0.75, 7.04 0.56 C7.62 0.38, 8.23 0.24, 8.84 0.14 C9.45 0.05, 10.08 0, 10.7 0 C11.32 0, 11.95 0.05, 12.56 0.14 C13.17 0.24, 13.78 0.38, 14.36 0.56 C14.94 0.75, 15.52 0.98, 16.05 1.25 C16.59 1.53, 17.11 1.84, 17.58 2.19 C18.06 2.54, 18.5 2.93, 18.9 3.35 C19.3 3.76, 19.66 4.21, 19.97 4.68 C20.28 5.15, 20.55 5.65, 20.76 6.16 C20.97 6.67, 21.13 7.2, 21.24 7.74 C21.35 8.27, 21.38 9.09, 21.4 9.36 C21.43 9.64, 21.43 9.09, 21.4 9.36" stroke="#000000" stroke-width="2" fill="none"></path></g><g stroke-linecap="round"><g transform="translate(712.0029232766128 89.99806933386674) rotate(0 16.71865860152218 9.92115400104015)" fill-rule="evenodd"><path d="M0 0 L5.17 -5.57 L9.55 -8.36 L17.12 -8.76 L22.29 -7.56 L25.87 -3.58 L30.65 7.96 L33.44 19.51 L32.64 24.68 L29.46 27.07 L25.08 28.26 L18.71 28.66 L14.73 27.86 L14.33 22.29 L5.97 5.57 L0 0" stroke="none" stroke-width="0" fill="#ced4da" fill-rule="evenodd"></path><path d="M0 0 C0.86 -0.93, 3.58 -4.18, 5.17 -5.57 C6.77 -6.97, 7.56 -7.83, 9.55 -8.36 C11.54 -8.89, 14.99 -8.89, 17.12 -8.76 C19.24 -8.62, 20.83 -8.43, 22.29 -7.56 C23.75 -6.7, 24.88 -5.11, 25.87 -3.58 C26.87 -2.06, 27.47 -0.33, 28.26 1.59 C29.06 3.52, 29.92 5.84, 30.65 7.96 C31.38 10.08, 32.18 12.41, 32.64 14.33 C33.11 16.25, 33.44 17.78, 33.44 19.51 C33.44 21.23, 33.3 23.42, 32.64 24.68 C31.98 25.94, 30.72 26.47, 29.46 27.07 C28.2 27.67, 26.87 28, 25.08 28.26 C23.29 28.53, 20.43 28.73, 18.71 28.66 C16.98 28.59, 15.46 28.93, 14.73 27.86 C14 26.8, 14.66 23.82, 14.33 22.29 C14 20.77, 13.47 20.23, 12.74 18.71 C12.01 17.18, 11.08 15.33, 9.95 13.14 C8.82 10.95, 7.63 7.76, 5.97 5.57 C4.31 3.38, 1 0.93, 0 0 M0 0 C0.86 -0.93, 3.58 -4.18, 5.17 -5.57 C6.77 -6.97, 7.56 -7.83, 9.55 -8.36 C11.54 -8.89, 14.99 -8.89, 17.12 -8.76 C19.24 -8.62, 20.83 -8.43, 22.29 -7.56 C23.75 -6.7, 24.88 -5.11, 25.87 -3.58 C26.87 -2.06, 27.47 -0.33, 28.26 1.59 C29.06 3.52, 29.92 5.84, 30.65 7.96 C31.38 10.08, 32.18 12.41, 32.64 14.33 C33.11 16.25, 33.44 17.78, 33.44 19.51 C33.44 21.23, 33.3 23.42, 32.64 24.68 C31.98 25.94, 30.72 26.47, 29.46 27.07 C28.2 27.67, 26.87 28, 25.08 28.26 C23.29 28.53, 20.43 28.73, 18.71 28.66 C16.98 28.59, 15.46 28.93, 14.73 27.86 C14 26.8, 14.66 23.82, 14.33 22.29 C14 20.77, 13.47 20.23, 12.74 18.71 C12.01 17.18, 11.08 15.33, 9.95 13.14 C8.82 10.95, 7.63 7.76, 5.97 5.57 C4.31 3.38, 1 0.93, 0 0" stroke="#000000" stroke-width="2" fill="none"></path></g></g><g stroke-linecap="round"><g transform="translate(694.0841368232786 89.98619343046232) rotate(0 -16.121563651467795 12.19394740044197)" fill-rule="evenodd"><path d="M0 0 L-3.98 -4.38 L-8.36 -7.17 L-15.92 -7.56 L-21.1 -6.37 L-24.68 -2.39 L-29.46 9.16 L-32.24 20.7 L-31.45 25.87 L-24.28 30.25 L-14.18 31.97 L-11.15 31.45 L-8.36 14.73 L-4.78 6.77 L0 0" stroke="none" stroke-width="0" fill="#ced4da" fill-rule="evenodd"></path><path d="M0 0 C-0.66 -0.73, -2.59 -3.18, -3.98 -4.38 C-5.37 -5.57, -6.37 -6.63, -8.36 -7.17 C-10.35 -7.7, -13.8 -7.7, -15.92 -7.56 C-18.05 -7.43, -19.64 -7.23, -21.1 -6.37 C-22.56 -5.51, -23.68 -3.91, -24.68 -2.39 C-25.68 -0.86, -26.27 0.86, -27.07 2.79 C-27.86 4.71, -28.73 7.03, -29.46 9.16 C-30.19 11.28, -30.98 13.6, -31.45 15.52 C-31.91 17.45, -32.24 18.97, -32.24 20.7 C-32.24 22.42, -32.11 24.61, -31.45 25.87 C-30.78 27.13, -29.46 27.53, -28.26 28.26 C-27.07 28.99, -26.01 29.72, -24.28 30.25 C-22.56 30.78, -20.1 31.25, -17.91 31.45 C-15.72 31.65, -12.41 32.64, -11.15 31.45 C-9.89 30.25, -10.62 26.07, -10.35 24.28 C-10.08 22.49, -9.89 22.29, -9.55 20.7 C-9.22 19.11, -9.16 17.05, -8.36 14.73 C-7.56 12.41, -6.17 9.22, -4.78 6.77 C-3.38 4.31, -0.8 1.13, 0 0 M0 0 C-0.66 -0.73, -2.59 -3.18, -3.98 -4.38 C-5.37 -5.57, -6.37 -6.63, -8.36 -7.17 C-10.35 -7.7, -13.8 -7.7, -15.92 -7.56 C-18.05 -7.43, -19.64 -7.23, -21.1 -6.37 C-22.56 -5.51, -23.68 -3.91, -24.68 -2.39 C-25.68 -0.86, -26.27 0.86, -27.07 2.79 C-27.86 4.71, -28.73 7.03, -29.46 9.16 C-30.19 11.28, -30.98 13.6, -31.45 15.52 C-31.91 17.45, -32.24 18.97, -32.24 20.7 C-32.24 22.42, -32.11 24.61, -31.45 25.87 C-30.78 27.13, -29.46 27.53, -28.26 28.26 C-27.07 28.99, -26.01 29.72, -24.28 30.25 C-22.56 30.78, -20.1 31.25, -17.91 31.45 C-15.72 31.65, -12.41 32.64, -11.15 31.45 C-9.89 30.25, -10.62 26.07, -10.35 24.28 C-10.08 22.49, -9.89 22.29, -9.55 20.7 C-9.22 19.11, -9.16 17.05, -8.36 14.73 C-7.56 12.41, -6.17 9.22, -4.78 6.77 C-3.38 4.31, -0.8 1.13, 0 0" stroke="#000000" stroke-width="2" fill="none"></path></g></g><g stroke-linecap="round"><g transform="translate(312.640625 92.28295216480444) rotate(0 26.599837154205886 1.23875122739463)"><path d="M-0.57 1.19 C8.04 1.31, 42.59 0.6, 51.39 0.8 M1.32 0.77 C10.36 0.99, 45.41 1.79, 53.77 1.71" stroke="#000000" stroke-width="1" fill="none"></path></g></g><g transform="translate(368.640625 79.78295216480444) rotate(0 117 12)"><text x="117" y="9" font-family="Helvetica, Segoe UI Emoji" font-size="11.201058201058206px" fill="#000000" text-anchor="middle" style="white-space: pre;" direction="ltr">Налаштування розкладу створення та часу </text><text x="117" y="21" font-family="Helvetica, Segoe UI Emoji" font-size="11.201058201058206px" fill="#000000" text-anchor="middle" style="white-space: pre;" direction="ltr">зберігання резервного копіювання</text></g><g stroke-linecap="round"><g transform="translate(605.640625 94.28295216480444) rotate(0 28.928724494948995 -0.039904317632306174)"><path d="M-1.02 -1.17 C8.81 -0.91, 48.93 0.93, 58.88 1.09 M0.64 0.83 C10.32 0.82, 48.35 -0.49, 57.87 -0.46" stroke="#000000" stroke-width="1" fill="none"></path></g></g><g transform="translate(646.8170955882354 37.78295216480444) rotate(0 59.5 5.5)"><text x="59.5" y="9" font-family="Helvetica, Segoe UI Emoji" font-size="10.400262898455486px" fill="#000000" text-anchor="middle" style="white-space: pre;" direction="ltr">Адміністратори реєстру</text></g><g transform="translate(326.0351562500002 10) rotate(0 74.45454545454561 6.5)"><text x="74.45454545454558" y="10.000000000000018" font-family="Helvetica, Segoe UI Emoji" font-size="12.291219789083774px" fill="#000000" text-anchor="middle" style="white-space: pre;" direction="ltr">"control-plane" namespace</text></g><g stroke-linecap="round"><g transform="translate(76.939542258279 47.66339718204273) rotate(0 6.610055007571248 6.957223494341235)" fill-rule="evenodd"><path d="M1.5 -0.87 L3.43 9.41 L11.67 10.62 L0.29 0.22" stroke="none" stroke-width="0" fill="#000000" fill-rule="evenodd"></path><path d="M-1.1 1.1 C-1.13 2, -0.47 4.18, 0.19 5.71 C0.84 7.25, 1.76 9.31, 2.86 10.31 C3.96 11.31, 5.19 11.32, 6.79 11.72 C8.38 12.12, 12.23 13.55, 12.42 12.7 C12.61 11.85, 9.51 8.2, 7.93 6.62 C6.35 5.05, 4.08 4.32, 2.94 3.28 C1.81 2.23, 1.61 0.99, 1.12 0.34 M0.52 0.63 C0.31 1.69, -1.13 5.4, -0.77 7.18 C-0.4 8.95, 1.44 10.4, 2.72 11.29 C3.99 12.19, 4.94 12.17, 6.87 12.55 C8.8 12.93, 13.98 14.19, 14.3 13.56 C14.63 12.93, 10.7 10.69, 8.82 8.77 C6.93 6.84, 4.34 3.44, 2.98 2.01 C1.63 0.58, 1.46 0.29, 0.69 0.18" stroke="#000000" stroke-width="1" fill="none"></path></g></g><g stroke-linecap="round"><g transform="translate(76.92091221115635 47.6893412104987) rotate(0 -18.897748225763024 0.06646939410418895)"><path d="M1.1 -0.01 C-5.27 0.37, -31.29 1.24, -37.87 1.19 M0.21 -1.06 C-6.35 -0.88, -32.28 -0.62, -38.89 -0.31" stroke="#000000" stroke-width="1" fill="none"></path></g></g><g stroke-linecap="round"><g transform="translate(39.28043718381031 47.68968155167829) rotate(0 -0.14029799789599906 36.0837130584772)"><path d="M-0.01 -0.14 C0.37 11.71, 1.24 60.14, 1.19 72.22 M-1.47 -1.26 C-1.05 11.26, 0.83 60.99, 0.87 73.43" stroke="#000000" stroke-width="1" fill="none"></path></g></g><g stroke-linecap="round"><g transform="translate(39.21256818255051 120.53774702922641) rotate(0 25.525314216059883 0.4367969177663156)"><path d="M-0.14 1.19 C8.07 1.14, 41.91 -0.02, 50.35 -0.32 M-1.67 0.77 C6.84 0.89, 44.21 1.11, 52.72 1.06" stroke="#000000" stroke-width="1" fill="none"></path></g></g><g stroke-linecap="round"><g transform="translate(90.13135590163972 120.79510699524633) rotate(0 -0.09962176530564193 -30.15188167871213)"><path d="M1.19 -0.64 C1.15 -10.94, 0.01 -51.96, -0.27 -61.95 M0.36 1.64 C0.13 -8.49, -1.06 -50, -1.39 -60.68" stroke="#000000" stroke-width="1" fill="none"></path></g></g><g stroke-linecap="round"><g transform="translate(76.60157297070782 47.58139186812224) rotate(0 6.169306956812164 5.679250159045466)"><path d="M-0.64 -0.32 C1.55 1.43, 10.47 9.73, 12.98 11.66 M1.23 -1.53 C3.23 0.88, 9.62 10.63, 11.76 12.89" stroke="#000000" stroke-width="1" fill="none"></path></g></g><g stroke-linecap="round"><g transform="translate(40.762740598878395 90.19644375601655) rotate(0 25.141056389749764 9.89436337234224)" fill-rule="evenodd"><path d="M-0.12 0.72 L54.33 0.1 L55.21 4.33 L54.73 16.39 L44.4 19.22 L-5.29 19.46 L-6.22 13.89 L-7.27 4.17 L-6.68 2.21 L-0.67 1.67" stroke="none" stroke-width="0" fill="#fff" fill-rule="evenodd"></path><path d="M-0.32 -0.52 C3.33 -0.26, 14.76 0.92, 23.06 0.89 C31.37 0.85, 44.42 -0.83, 49.52 -0.73 C54.62 -0.63, 52.32 0.38, 53.68 1.49 C55.03 2.61, 57.16 4.09, 57.65 5.97 C58.14 7.86, 56.88 10.85, 56.63 12.82 C56.39 14.79, 57.01 16.81, 56.17 17.8 C55.33 18.79, 57.09 18.52, 51.58 18.74 C46.07 18.97, 31.74 18.95, 23.12 19.13 C14.49 19.3, 4.43 20.04, -0.19 19.79 C-4.8 19.55, -3.5 18.79, -4.58 17.67 C-5.67 16.55, -6.48 15.17, -6.69 13.07 C-6.91 10.96, -6.19 6.82, -5.87 5.03 C-5.56 3.25, -5.85 3.26, -4.79 2.34 C-3.73 1.43, -0.25 -0.24, 0.49 -0.47 M1.72 1.83 C5.66 1.81, 17.11 -0.48, 25.47 -0.77 C33.83 -1.06, 47.25 -0.47, 51.89 0.11 C56.53 0.68, 52.51 1.6, 53.32 2.68 C54.13 3.75, 55.98 4.47, 56.77 6.54 C57.56 8.62, 58.57 12.92, 58.05 15.13 C57.53 17.35, 54.78 19.37, 53.63 19.84 C52.47 20.3, 55.94 17.72, 51.11 17.92 C46.29 18.12, 33.09 20.78, 24.68 21.03 C16.27 21.28, 5.45 19.85, 0.67 19.41 C-4.11 18.97, -2.56 19.59, -3.99 18.4 C-5.42 17.21, -7.72 14.09, -7.9 12.27 C-8.09 10.46, -5.5 9.1, -5.11 7.51 C-4.71 5.92, -6.54 4.19, -5.51 2.73 C-4.48 1.26, 0.08 -0.66, 1.07 -1.27" stroke="#000000" stroke-width="1" fill="none"></path></g></g><g transform="translate(52.58548987797769 90.49033061878765) rotate(0 14.537454044117652 7.97215221774195)"><text x="0" y="12.944304435483893" font-family="Helvetica, Segoe UI Emoji" font-size="13.291758688567464px" fill="#000000" text-anchor="start" style="white-space: pre;" direction="ltr">yaml</text></g><g stroke-linecap="round"><g transform="translate(44.59450560728169 60.492108889971576) rotate(0 14.211952920592097 -0.012253262847679025)"><path d="M-0.59 0.89 C3.94 0.82, 22.28 -0.79, 26.83 -0.91 M1.31 0.31 C6.22 0.41, 24.4 -0.06, 29.01 0.15" stroke="#000000" stroke-width="1" fill="none"></path></g></g><g stroke-linecap="round"><g transform="translate(44.6296398409786 65.6254074714094) rotate(0 18.651376113116612 -0.10377275305742728)"><path d="M0.89 -1 C6.83 -1.1, 29.28 -1.5, 35.18 -1.15 M-0.11 1.08 C6.26 1.14, 31.47 0.07, 37.41 -0.22" stroke="#000000" stroke-width="1" fill="none"></path></g></g><g stroke-linecap="round"><g transform="translate(44.64230763327663 70.8608883333934) rotate(0 18.020465555165742 0.4943449035503704)"><path d="M-1 -0.91 C4.92 -1.03, 28.57 -0.06, 34.94 0.15 M0.67 1.23 C6.99 1.24, 30.98 2.28, 37.05 1.77" stroke="#000000" stroke-width="1" fill="none"></path></g></g><g stroke-linecap="round"><g transform="translate(44.64514659513719 76.10101088326849) rotate(0 17.664519682841217 -0.013642821460962296)"><path d="M-0.91 -1.15 C4.98 -0.8, 30.02 0.93, 36.24 1.12 M0.81 0.86 C6.48 1, 29.53 -0.49, 35.37 -0.41" stroke="#000000" stroke-width="1" fill="none"></path></g></g><g stroke-linecap="round"><g transform="translate(44.60158176883664 81.95528474710233) rotate(0 18.030011613981657 -0.6177534249431744)"><path d="M-1.15 0.15 C5.22 0.36, 31 0.47, 37.21 0.34 M0.45 -0.81 C6.84 -0.9, 31.04 -1.81, 36.85 -1.6" stroke="#000000" stroke-width="1" fill="none"></path></g></g><g transform="translate(37.140625 128.7578125) rotate(0 33.5 5.5)"><text x="33.5" y="9" font-family="Helvetica, Segoe UI Emoji" font-size="10.400262898455486px" fill="#000000" text-anchor="middle" style="white-space: pre;" direction="ltr">Codebase CR</text></g><g stroke-linecap="round"><g transform="translate(195.640625 92.28295216480444) rotate(0 -45.71517510625068 0.41008345206267904)"><path d="M0.27 0.08 C-14.78 0.35, -75.55 0.51, -90.84 0.83 M-1.05 -0.93 C-16.2 -0.48, -76.47 1.04, -91.7 1.75" stroke="#000000" stroke-width="1" fill="none"></path></g><g transform="translate(195.640625 92.28295216480444) rotate(0 -45.71517510625068 0.41008345206267904)"><path d="M-63.75 -9.2 C-73 -7.28, -78.14 -5.1, -92.11 3.65 M-63.47 -9.61 C-72.71 -5.19, -80.63 -3, -92.5 1.04" stroke="#000000" stroke-width="1" fill="none"></path></g><g transform="translate(195.640625 92.28295216480444) rotate(0 -45.71517510625068 0.41008345206267904)"><path d="M-63.04 11.31 C-72.33 8.01, -77.65 4.96, -92.11 3.65 M-62.76 10.9 C-72.39 8.84, -80.53 4.55, -92.5 1.04" stroke="#000000" stroke-width="1" fill="none"></path></g></g><g transform="translate(97.140625 65.78295216480444) rotate(0 49.5 5.5)"><text x="49.5" y="9" font-family="Helvetica, Segoe UI Emoji" font-size="10.400262898455486px" fill="#000000" text-anchor="middle" style="white-space: pre;" direction="ltr">Оновлення анотації</text></g><g stroke-linecap="round" transform="translate(202.640625 65.28295216480444) rotate(0 51 28)"><path d="M0 0 C0 0, 0 0, 0 0 M0 0 C0 0, 0 0, 0 0 M0.29 5.65 C1.19 4.76, 3.33 3.29, 5.76 1.12 M-0.18 6.8 C0.91 5.26, 2.09 3.72, 5.33 0.54 M0.14 12.28 C5.31 5.98, 10.01 1.31, 9.22 0.19 M0.58 12.2 C1.81 10.09, 4.42 7.01, 10.6 -0.68 M-2.01 19.55 C2.87 13.52, 7.46 11.45, 14.88 1.24 M-0.69 18.9 C7.22 11.7, 12.14 4.33, 14.82 -0.12 M-1.3 22.52 C6.38 15.29, 15.06 4.93, 21 1.69 M0.38 24.52 C7.32 16.29, 14.8 6.42, 21.95 0.75 M1.79 32.1 C7.52 22.52, 18.04 9.71, 24.33 0.91 M-0.09 29.93 C8.09 21.6, 16.86 12.26, 27.06 0.02 M-0.58 37.76 C9.27 24.32, 16.73 15.69, 32.91 0.46 M0.65 36.67 C6.3 27.63, 15.62 18.62, 32.76 0.7 M-0.93 43.2 C14.1 25.42, 29.44 7.64, 37.1 -0.48 M0.76 41.55 C8.71 33.2, 16.02 23.96, 36.68 0.93 M-1.8 50.03 C17.64 29.98, 31.79 13.76, 43.45 -1.74 M0.57 49.25 C13.68 32.51, 26.58 16.84, 43.38 0.22 M1.45 53.81 C17.71 34.4, 36.36 11.8, 46.08 1.24 M-0.15 55.34 C9.86 42.8, 19.37 33.41, 47.79 -0.16 M2.66 56.49 C16.27 42.91, 26.6 28.2, 52.56 0.74 M1.85 57.61 C22.23 35.16, 42.34 13.49, 53.16 -0.94 M8.83 56.51 C19.1 43.93, 29.62 33.14, 59.26 0.19 M7.36 59.14 C20.67 44.26, 32.04 31.96, 58.47 -0.48 M14.78 56.47 C33.9 35.66, 50.38 13.49, 65.24 1.48 M13.42 58.85 C24.77 46.78, 34.43 34.63, 64.39 -0.5 M19.03 56.68 C33.41 40.33, 46.91 26.05, 67.65 0.42 M17.28 58.11 C33.08 40.77, 47.97 21.84, 68.74 0.27 M22.45 58.32 C41.02 40.86, 57.18 19.01, 75.55 -2 M23.08 58.71 C39.16 41.4, 52.05 25.96, 74.37 0.35 M27.58 58.84 C44.83 39.22, 61.99 23.75, 81.35 -0.09 M29.24 57.23 C42.68 41.42, 55.99 25.14, 78.63 -0.1 M36.52 59.29 C53.07 34.96, 72.23 14.84, 86.61 -0.24 M34.46 57.37 C48.37 42.39, 61.24 25.62, 85.32 -1.04 M38.34 59.71 C52.88 42.82, 66.7 30.11, 89.5 -1.42 M39.1 58.22 C54.11 41.37, 67.14 27, 90.11 -0.21 M46.89 58.54 C61.96 41.55, 73.81 21.45, 94.61 0.14 M45.17 58.58 C66.01 35.27, 83.62 12.74, 96.47 -0.81 M48.25 59.93 C61.2 45.41, 72.91 31.59, 100.34 -1.69 M49.71 57.31 C63.42 44.06, 75.43 30.43, 101.12 0.81 M54.53 57.18 C72.75 36.15, 91.76 17.2, 102.82 2.74 M56.77 57.59 C66.7 46.85, 75.74 34.79, 104.01 1.71 M59.3 60.08 C68.94 48.33, 78.19 37.31, 105.91 7.19 M60.85 57.29 C69 48.39, 79.34 37.57, 104.37 7.69 M66.8 59.04 C79.24 45.04, 88.44 31.34, 103 12.38 M66.16 57.96 C75.09 48.04, 84.17 36.32, 104.56 13.02 M70.57 56.69 C82.22 47.21, 91.64 32.53, 104.5 18.43 M71.33 57.46 C79.5 49.01, 88.89 38.4, 103.67 19.85 M76.12 59.57 C80.81 53.7, 86.36 46.65, 103.03 24.45 M76.15 58.51 C85.42 46.26, 96.08 34.15, 104.74 26.75 M82.16 58.19 C89.36 52.19, 95.56 44.28, 104.79 31.94 M82.86 57.69 C88.74 50.77, 95.46 41.93, 104.17 33.01 M87.97 58.46 C91.96 53.43, 94.46 48.86, 102.72 36.86 M87.57 57.84 C93.28 50.27, 100.22 42.02, 105 39.68 M91.41 57.1 C93.8 53.95, 96.54 52.51, 103.36 45.23 M92.23 58.29 C96.01 54.27, 99.88 48.65, 103.75 44.2 M98.61 57.48 C99.27 55.44, 103.19 53.18, 104.53 50 M97.75 58.87 C99.77 56.23, 102.44 53.69, 104.45 50.83 M0.2 56.17 C0.2 56.17, 0.2 56.17, 0.2 56.17 M0.2 56.17 C0.2 56.17, 0.2 56.17, 0.2 56.17 M5.42 55.12 C3.68 53.97, 2.6 52.56, -0.6 50.64 M5.9 55.62 C3.7 54.65, 2 52.58, -0.25 50.17 M10.76 57.49 C7.6 51.87, 3.11 48.42, -0.58 44.99 M12.17 55.27 C9.97 53.14, 6.25 51.19, 0.25 45.31 M17.96 57.59 C13.74 50.29, 7.13 46.34, 1.1 40.75 M18.41 56.09 C10.89 49.49, 3.9 44.27, -1.19 39.72 M23.18 54.19 C20.89 51.87, 15.57 46.99, 1.43 36.24 M24.17 56.41 C15 46.96, 6.01 40.39, -0.74 35.16 M32.16 57.83 C23.87 49.42, 14.25 42.71, 0.06 30.22 M31.09 55.68 C24.19 50.54, 17.52 45.58, 0.73 29.57 M36.85 56.78 C24.55 46.37, 11.83 33.06, -1.72 25.32 M36.5 54.97 C23.52 44.64, 10.44 34.18, 0.23 24.44 M41.61 56.1 C27.7 43.05, 11.69 28.85, 1.43 20.05 M42.12 56.31 C26.78 41.54, 9.65 25.97, -0.67 17.8 M50.64 54.36 C36.86 48.4, 26.75 37.88, 1.56 15.4 M49.47 56.44 C30.34 40.9, 13.44 25.3, 0.86 13.77 M54.82 54.98 C39.33 40.85, 21.06 26.02, 0.01 7 M54.79 55.04 C41.52 44, 25.89 31.46, -0.46 7.62 M62.62 57.62 C46.9 43.63, 35.95 34.38, -1.89 3.72 M62.07 57.06 C40.61 37.54, 18.46 19.07, 0.77 3.35 M67.4 54.94 C44.08 32.72, 17.07 12.23, 1.2 -2.9 M66.36 56.43 C45.54 36.52, 25.78 18.75, 0.72 -1.95 M74.15 55.2 C57.19 45.06, 45.76 30.05, 9.38 0 M72.56 55.59 C58.36 42.31, 42.9 29.57, 7.11 -0.53 M78.75 55.06 C61.19 38.64, 44.33 23.61, 14.98 -1.15 M78.8 57.25 C64.22 44.18, 49.99 30.18, 12.77 -0.79 M86.92 54.96 C63.32 39.95, 45.26 21.94, 21.32 -1.25 M85.4 56.65 C70.87 42.03, 54.98 30.38, 20.45 -1.23 M93.07 54.4 C75.21 42.48, 57.8 26.07, 24.78 -0.33 M91.81 55.84 C67.76 35.58, 43.88 16.12, 24.93 -1.31 M95.67 56.76 C84.34 42.2, 71.24 30.6, 33.44 -0.93 M98.03 55.39 C71.38 32.45, 45.41 11.21, 31.78 -1.89 M103.15 55.26 C87.21 40.99, 73.75 28.19, 38.42 0.71 M102.56 55.35 C83.23 38.59, 63.31 20.24, 38.73 -1.53 M101.44 50.45 C90.01 39.86, 76.55 28.79, 44.81 -2.05 M102.05 49.6 C88 37.2, 75.81 26.64, 44.62 -2.18 M102.25 44.68 C92.44 33.72, 80.03 23.4, 50.51 -2.87 M103.6 45.3 C82.86 27.51, 63.64 11.02, 50.4 -0.93 M102.58 41.05 C89.79 31.17, 80.48 19.03, 57.6 -1.68 M102.33 38.8 C87 26.08, 73.4 13.93, 56.46 -2.25 M104.61 34.68 C87.62 20.62, 76.43 8.93, 62.99 -2.03 M103.37 33.78 C94.24 26.28, 85.69 20.66, 61.41 -0.47 M102.33 28.8 C89.23 19.4, 77.58 9.45, 69.77 -2.31 M102.51 28.34 C93.44 20.17, 85.02 13.17, 69.48 -2.05 M104.19 25.38 C98.27 17.98, 92.41 12.24, 74.1 -0.43 M102.94 22.54 C95.26 17.98, 89.54 11.89, 73.44 -1.26 M103.69 17.28 C96.15 14.76, 92.51 9.12, 80.09 -2.45 M101.88 17.49 C95.52 12.21, 89.91 5.48, 79.6 -1.97 M102.02 14.83 C95.68 8.38, 91.69 4, 87.15 -1.81 M103.34 12.88 C99.49 9.63, 94.81 5.18, 87.15 -1.85 M102.59 6.42 C97.94 3.58, 96.2 1.38, 92.63 -0.92 M102.61 7.77 C99.73 5.3, 97.66 3.81, 92.82 -1.05 M102.61 2.41 C102 1, 100.56 0.12, 99.05 -1.12 M102.96 2.07 C101.52 1.06, 100.43 0.03, 98.96 -1.21" stroke="#ced4da" stroke-width="0.5" fill="none"></path><path d="M1.69 1.86 C33.02 2.07, 66.47 -1.01, 101.52 1.82 M-0.73 0.38 C26.04 -0.53, 50.42 0.24, 101.33 0.22 M101.72 0.4 C103.2 21.01, 102.07 43.31, 101.64 54.75 M102.12 -0.94 C101.35 19.73, 102.19 41.17, 101.21 56.31 M102.57 56.65 C72.21 57.8, 41.04 57.36, 0.34 54.18 M101.97 56.42 C69.78 55.64, 36.22 56.55, 0.23 56.78 M-1.95 55.62 C-1.23 35.44, -1.41 12.72, -0.71 -0.69 M0.11 56.53 C-0.92 34.92, -0.89 11.68, -0.41 0.25" stroke="#000000" stroke-width="1" fill="none"></path></g><g transform="translate(209.640625 87.28295216480444) rotate(0 44 6.5)"><text x="0" y="10" font-family="Helvetica, Segoe UI Emoji" font-size="12.85714285714286px" fill="#000000" text-anchor="start" style="white-space: pre;" direction="ltr">адмін-консоль</text></g><g stroke-linecap="round" transform="translate(36.8125 283.88060841480444) rotate(0 51 28)"><path d="M0 0 C0 0, 0 0, 0 0 M0 0 C0 0, 0 0, 0 0 M-0.02 7.06 C0.89 4.61, 3.04 2.94, 4.49 0.22 M0.07 6.59 C1.69 4.44, 3.48 2.01, 4.85 0.09 M1.15 12.92 C1.22 8.77, 3.88 6.6, 9.48 1.45 M-0.16 11.48 C3.89 6.67, 7.89 2.04, 10.83 -0.53 M-1.92 17.47 C5.85 11.44, 11.68 5.47, 13.7 -1.27 M0.85 19.4 C3.1 12.45, 8.41 8.83, 16.44 0.65 M0.29 24.5 C6.66 18.53, 10.69 15.28, 22.54 0.91 M0.14 24.5 C6.29 17.43, 13.67 9.45, 21.8 -0.68 M1.75 29.8 C10.49 18.59, 18.7 6.94, 26.39 -0.96 M0.22 29.95 C5.56 22.72, 12.25 16.22, 25.88 -0.21 M1.21 37.19 C9.05 23.58, 21.85 12.45, 31.26 -0.37 M-0.82 35.95 C7.13 28.77, 12.8 20.99, 31.98 -0.57 M1.13 42.34 C8.17 33.26, 19.08 20.34, 37.85 0.47 M-0.64 42.18 C10.65 31.37, 19.64 19.64, 37.22 0.92 M-1.71 48.46 C13.7 30.76, 27.73 14.16, 43.44 -2.04 M0.07 48.37 C11.51 35.96, 24.58 21.98, 42.45 0.51 M1.06 54.34 C18.09 35.08, 32.78 16.13, 49.23 -1.52 M0.89 55.31 C16.65 37.41, 31.2 19.01, 47.72 0.38 M3.36 58.77 C19.75 37.71, 38.03 17.11, 54.24 1.81 M1.67 58.2 C19.66 38.92, 36.41 19.26, 52.18 -1.08 M8.67 58.67 C23.51 37.58, 42.3 16.34, 58.69 0.47 M6.63 57.75 C23.38 39.94, 39.44 20.94, 57.58 1.05 M12.62 56.72 C32.03 37.91, 50.44 15.44, 61.87 -0.94 M13.05 58.67 C23.69 44.39, 36.45 32.21, 64.12 0.54 M18.97 58.97 C37.7 34.18, 57.38 14.16, 69.5 1.75 M19.22 58.3 C33.55 40.58, 49.2 21.6, 67.98 0.33 M22.18 57.94 C35.03 45.1, 51.08 27.59, 75.62 -0.49 M23.15 58.6 C38.32 42.13, 50.48 28.04, 75.18 -1.2 M30.73 60.06 C47.32 39.86, 60.99 18.6, 77.95 1.6 M27.93 58.53 C44.88 39.66, 61.47 18.97, 79.08 0.15 M33.1 56.96 C46.9 44.48, 55.07 33.49, 83.81 -1.11 M33.74 58.31 C46.56 42.83, 59.64 30.28, 84.26 0.65 M41.03 56.92 C56.84 38.91, 73.74 18.14, 89.43 -0.77 M39.25 57.77 C56.78 37.97, 74.54 18.43, 89.99 0.98 M43.5 56.22 C63.49 37.56, 79 19.18, 93.86 -1.13 M45.57 58.64 C63.08 35.71, 82.7 15.59, 96.19 0.56 M50.03 58.49 C67.04 42.16, 79.19 23.42, 102.35 1.79 M49.67 58.88 C64.41 41.28, 81.03 24.07, 100.8 -0.17 M56.58 58.13 C72.4 37.91, 90.2 17.39, 106.26 1.34 M56.35 56.97 C72.63 40.19, 87.18 22.44, 103.83 2.83 M60.93 59.63 C73.38 42.86, 86.29 26.87, 105.02 8.64 M61.63 58.24 C71.55 45.76, 81.22 34.51, 103.36 8.52 M63.91 57.76 C80.72 41.88, 97.72 24.2, 103.98 15.38 M66.1 57.94 C76.23 47.51, 86.37 36.17, 105.42 14.54 M72.03 57.14 C80.25 46.48, 88.05 39.67, 105.91 22.29 M71.56 57.78 C79.11 50.12, 86.08 41.19, 103.61 20.58 M76.13 59.89 C83.4 49.94, 87.45 42.94, 104.14 26.68 M75.79 58.5 C86.77 47.01, 95.94 37.27, 104.25 26.95 M80.65 57.74 C87.98 49.18, 95.41 43.92, 105.94 33.91 M81.83 58.94 C87.42 51.36, 91.66 46.72, 103.84 32.84 M86.95 59.46 C91.07 52.32, 94.87 46.44, 105.74 37.42 M87.38 58.36 C93.68 49.92, 100.42 42.22, 104.38 39.43 M91.36 58.12 C95.31 53.73, 97.09 50.59, 103.86 46.21 M92.78 58.64 C96.02 55.93, 97.38 53.24, 104.06 44.42 M96.73 58.5 C99.07 54.83, 102.89 53.14, 104.51 50.14 M98.05 58.7 C99.67 55.58, 102.1 53.43, 104.01 50.73 M0.2 56.17 C0.2 56.17, 0.2 56.17, 0.2 56.17 M0.2 56.17 C0.2 56.17, 0.2 56.17, 0.2 56.17 M5.4 56.22 C4.16 54.82, 2.54 52.61, -0.95 51.3 M5.56 55.84 C3.92 53.98, 2.35 53.08, -0.1 50.54 M13.14 56.57 C9.72 51.19, 3.87 47.63, 0.36 46.13 M12.35 55.81 C8.38 53.25, 3.72 49.34, 0.26 45.66 M18.38 57.97 C12 51.57, 6.76 47.6, -1.17 39.74 M17.99 55.37 C15.06 53.19, 8.91 49.12, 0.6 40.53 M24.18 55.75 C17.8 50.22, 12.35 43.62, -1.72 35.45 M24.66 56.47 C15.73 48.38, 6.42 40.39, -0.44 34.61 M29.97 56.05 C18.6 45.96, 9.37 36.15, -0.93 30.77 M30.15 56.63 C21.88 48.3, 13.32 41.55, -0.29 29.55 M37.16 56.65 C26.8 48.68, 18.48 39.35, -0.67 24.43 M36.72 55.03 C28.47 49.44, 20.9 41.04, 0.31 24.64 M43.96 57.67 C31.01 43.45, 16.42 32.08, 1.61 16.67 M41.83 56 C30.5 45.26, 17.13 36.05, -0.04 17.89 M48.78 54.41 C27.36 40.65, 7.95 22.82, -0.44 11.82 M49.54 56.75 C36.63 46.33, 25.81 35.99, -0.66 13.59 M53.1 56.66 C36.43 40.94, 19.76 25.08, 0.48 6.48 M55.47 55.64 C42.07 44.36, 31.73 34.55, -0.12 7.36 M60.32 56.04 C39.39 34.62, 15.32 16.32, 0.02 4.12 M61.76 56.47 C43.71 43.06, 27.3 28.27, 0.43 3.74 M67.18 54.8 C38.66 33.83, 14.36 9.28, 2.27 0.51 M66.47 56.22 C48.11 39.93, 31.4 23.44, 1.49 -1.43 M74.36 56.42 C55.84 37.79, 33.61 24.43, 6.4 -1.64 M72.28 56.56 C52.09 38.14, 31 20.36, 7.87 -1.48 M77.85 54.43 C57.54 36.85, 31.49 16.04, 12.2 -0.44 M79.94 55.62 C57.43 36.77, 34.82 15.99, 12.32 -1.72 M83.81 55.72 C63.7 36.78, 40.06 15.41, 18.84 -1.7 M85.19 56.24 C61.47 35.43, 39.86 15.93, 20.34 -1.34 M91.52 55.9 C66.93 35.57, 42.77 14, 26.91 -2.7 M91.72 56.28 C70.91 37.06, 50.37 19.27, 24.26 -2.32 M96.64 56.07 C81.35 41.12, 62.15 26.97, 33.08 -1.65 M96.57 56.29 C77.47 39.11, 57.92 21.88, 32.01 -1.86 M101.19 56.79 C88.02 44.92, 74.57 32.72, 37.44 -0.82 M102.11 54.47 C79.69 35.5, 55.05 15.06, 38.48 -0.66 M101.08 51.6 C87.5 35.77, 72.58 20.98, 42.42 -3.24 M101.66 49.09 C89.96 37.87, 79.02 28.13, 44.52 -0.61 M102.36 45.43 C86.2 30.74, 70.89 18.92, 51.62 -1.37 M103.82 43.83 C86.9 29.01, 68.24 14.51, 49.86 -0.58 M100.73 37.61 C90.06 27.86, 80.68 18.56, 57.23 -0.26 M101.99 39.78 C88.82 26.33, 74.27 15.08, 56.5 -0.62 M101.47 33.11 C95.28 25.88, 86.25 18.65, 62.61 -3.01 M102.41 33.54 C92.26 24.42, 82.49 16.38, 61.49 -0.46 M102.03 26.62 C94.19 19.97, 87.73 16.03, 69.7 -1.9 M102.81 28.32 C90.39 17.58, 76.8 5.68, 68.28 -1.74 M102.7 25.23 C95.04 15.26, 87.93 9.93, 73.88 -3.13 M103.11 23.47 C94.39 17.29, 85.63 9.89, 73.7 -1.78 M101.19 16.5 C96.01 13.56, 91.02 5.69, 78.83 0.59 M102.08 17.58 C94.41 11.64, 86.56 4.99, 80.91 -1.25 M103.3 11.12 C97.84 7.54, 90.07 1.12, 87.94 -1.19 M102.08 12.02 C100.04 9, 94.56 7.44, 86.78 -2.49 M101.8 7.1 C101.08 5.63, 96.7 1.68, 91.5 -1.82 M101.95 7.72 C99.12 4.73, 96.5 1.75, 92.63 -1.71 M102.46 2.68 C101.72 1.13, 100.04 -0.44, 99.02 -1.31 M102.68 2.2 C101.72 1.27, 100.67 0.3, 99.17 -0.89" stroke="#ced4da" stroke-width="0.5" fill="none"></path><path d="M0.99 1.97 C34.43 2.11, 70.79 0.58, 101.67 -0.64 M0.25 -0.73 C29.47 -0.65, 57.56 -0.74, 102.49 0.92 M101.41 0.17 C99.84 12.01, 103.15 27.77, 103.36 56.6 M101 0.52 C102.32 14.09, 101.98 26.02, 101.94 55.27 M103.9 56.8 C78.4 57.81, 57.65 57.81, -1.81 56.18 M102.29 55.58 C80.33 55.59, 60.69 55.06, -0.68 56.15 M-1.77 55.85 C-1.03 43.15, 1.05 33.51, -0.84 -1.06 M-0.92 55.86 C1.06 41.26, 1.41 27.09, 0.8 -0.78" stroke="#000000" stroke-width="1" fill="none"></path></g><g transform="translate(60.8125 301.38060841480444) rotate(0 26.5 12.492857142857133)"><text x="26.500000000000014" y="9.492857142857147" font-family="Helvetica, Segoe UI Emoji" font-size="12.114285714285714px" fill="#000000" text-anchor="middle" style="white-space: pre;" direction="ltr">codebase</text><text x="26.500000000000014" y="21.985714285714295" font-family="Helvetica, Segoe UI Emoji" font-size="12.114285714285714px" fill="#000000" text-anchor="middle" style="white-space: pre;" direction="ltr">operator</text></g><g stroke-linecap="round"><g transform="translate(71.11328125 227.30248341480444) rotate(0 0.293117659819103 26.27142533287406)"><path d="M-1.01 -0.54 C-1.06 8.26, -0.93 44.34, -0.9 53.08 M0.66 1.8 C1.07 10.2, 1.91 42.71, 1.49 51.22" stroke="#000000" stroke-width="1" fill="none"></path></g></g><g transform="translate(33.4140625 210.90013966480444) rotate(0 37.5 6)"><text x="37.5" y="9" font-family="Helvetica, Segoe UI Emoji" font-size="11.201058201058206px" fill="#000000" text-anchor="middle" style="white-space: pre;" direction="ltr">"update" event</text></g><g stroke-linecap="round"><g transform="translate(70.640625 141.28295216480444) rotate(0 -0.6027296403283344 32.579690186576926)"><path d="M0.4 0.15 C-0.03 10.8, -1.65 53.87, -1.71 64.46 M-0.84 -0.81 C-0.99 9.98, 0.42 55.07, 0.51 65.97" stroke="#000000" stroke-width="1" fill="none"></path></g></g><g stroke-linecap="round" transform="translate(284.3125 281.88060841480444) rotate(0 51 28)"><path d="M0 0 C0 0, 0 0, 0 0 M0 0 C0 0, 0 0, 0 0 M-0.58 5.7 C1.24 4.36, 2.85 2.66, 5 -0.09 M0.11 6.51 C1.31 4.57, 2.71 2.98, 5.32 0.15 M-0.66 11 C3.67 8.19, 6.59 1.85, 9.58 0.84 M0.4 11.68 C2.83 9.78, 3.85 7.25, 9.85 0.33 M-2.05 17.54 C3.79 12.82, 6.94 10.61, 17.02 0.07 M-0.19 17.89 C3.74 14.17, 7.1 9.77, 15.52 0.4 M0.2 23.3 C5.03 18.87, 10.91 12.19, 23.05 1.38 M0.34 23.62 C4.24 19.56, 8.89 14.57, 20.66 0.25 M1.62 31.24 C12 20.48, 20.99 8, 25.6 0.68 M0.73 30.96 C8.27 19.5, 18.72 8.99, 26.17 0.76 M-1.23 36.87 C9.83 28.61, 18.49 14.89, 32.72 -1.17 M-0.44 37.63 C12.64 22.78, 24.8 8.58, 32.53 -0.31 M0.46 42.89 C12.77 27.14, 27.49 11.07, 38.48 0.52 M-0.27 41.87 C11.98 28.62, 24.62 14.38, 36.71 0.51 M-0.85 50.11 C9.58 37.19, 21.1 24, 41.55 0.86 M0.75 49.33 C11.49 36.39, 23.2 22.75, 41.71 -0.95 M0.92 52.72 C13.17 39.95, 24.71 26.79, 49.35 0.07 M-0.33 54.56 C13.38 39.12, 26.66 22.77, 47.64 0.21 M4.23 58.02 C22.27 34.04, 40.14 14.82, 52.67 -1.99 M2.74 58.64 C17.86 39.52, 32.14 22.05, 53.23 0.63 M8.61 59.71 C28.94 36.27, 49.26 11.62, 57.8 0.9 M7.13 58.66 C24.52 38.39, 41.09 19.74, 58.96 -0.61 M14.12 56.86 C27.89 38.11, 46.55 20.66, 65.16 -0.14 M13.18 58.66 C33.65 34.79, 53.32 12.49, 64.59 0.68 M17.94 58.71 C36.59 36.47, 56.59 16.46, 69.41 1.62 M18.08 58.56 C35.69 39.19, 53.22 18.27, 68.23 0.53 M25.76 59.07 C42.78 38.03, 57.72 16.92, 74.06 -0.93 M24.1 58.57 C41 36.32, 60.07 14.85, 73.87 -0.56 M27.88 58.92 C41.27 43.1, 58.67 26.57, 79.64 1.94 M29.67 57.91 C39.94 45.02, 51.28 32.12, 78.51 1.1 M33.87 57.07 C47.11 43.81, 59.23 28.51, 86.3 -0.64 M34.96 57.46 C51.4 39.38, 68.86 19.2, 85.66 -0.91 M40.65 56.79 C50.15 44.43, 60.28 34.59, 89.93 -1.42 M38.88 58.51 C53.01 43.17, 66.3 27.81, 90.42 -0.46 M47.14 56.37 C55.91 41.39, 68.38 27.95, 96.79 -0.5 M44.74 57.39 C61 38.15, 78.67 19.58, 95.07 -0.19 M50.38 59.85 C66.97 36.59, 88.56 14.15, 99.63 1.36 M49.21 58.17 C66.44 37.82, 85.72 17.21, 100.1 -0.77 M56.17 59.53 C74.29 35.47, 94.42 13.92, 102.38 3.6 M55.96 57.37 C68.8 44.39, 80.6 31.12, 103.81 2 M59.16 58.69 C75.66 43.81, 85.83 25.17, 102.84 9.46 M60.67 58.64 C76.79 38.87, 92.21 22.14, 104 8.86 M64.86 58.92 C74.47 47.85, 80.62 39.3, 103.29 12.1 M66 58.17 C76.54 46.14, 88.85 30.89, 103.48 13.29 M73.01 58.98 C86.12 43.49, 98.77 28.32, 102.72 22.28 M71.84 57.65 C77.88 50.64, 85.56 43.93, 103.26 21.23 M77.01 57.72 C85.62 49.51, 93.48 40.08, 102.75 27.17 M75.76 59.22 C81.72 52.63, 87.9 45.41, 105.35 25.97 M81.88 57.41 C87.87 53.84, 93.52 45.16, 103.73 33.04 M81.81 58.89 C89.76 49.69, 96.01 41.07, 103.88 32.87 M88.39 58.42 C89.82 54.23, 96.08 49.67, 102.75 40.58 M87.68 59.23 C92.66 51.94, 98.12 45.65, 103.99 38.81 M91.77 57.8 C97.09 54.12, 102.08 47.95, 104.93 43.87 M92.24 58.03 C95.94 54.61, 97.32 51.14, 104.18 45 M97.5 59.11 C98.93 56.77, 102.46 53.58, 103.69 49.88 M98.03 58.73 C98.81 56.16, 100.78 55.1, 104.36 50.58 M0.2 56.17 C0.2 56.17, 0.2 56.17, 0.2 56.17 M0.2 56.17 C0.2 56.17, 0.2 56.17, 0.2 56.17 M5.81 55.58 C3.6 53.5, 1.61 52.94, 0.42 50.22 M5.77 55.89 C4.22 54.51, 2.81 52.65, -0.11 50.67 M11.7 56.66 C8.71 54.15, 6.61 51.47, 1.46 44.24 M11.8 56.5 C10.19 53.81, 6.24 50.9, -0.19 45.95 M18.92 55.38 C14.27 52.4, 10.46 50.83, 0.66 41.31 M18.22 56.75 C12.53 51.92, 5.73 44.97, 0.26 40.47 M24.25 56.17 C15.3 50.51, 6.67 43.1, 1.64 35.01 M23.8 55.04 C17.79 50.9, 12.39 44.15, -0.38 34.55 M31.62 54.35 C23.29 51.14, 14.92 43.83, -0.9 29.19 M29.93 57.12 C24.21 50.32, 17.25 45.48, 0.26 29.32 M36.8 55.19 C26.62 47.79, 16.48 36.57, 1.57 24.97 M36.13 55.72 C24.77 44.51, 11.88 35.63, -0.48 24.39 M42.73 55.89 C31.86 44.64, 21.63 37.74, -0.98 19.75 M42.31 56.64 C33.26 47.93, 24.55 40.04, -0.1 19.33 M47.55 57.63 C31.61 40.92, 18.58 30.51, -1.64 13.16 M49.73 56.82 C33.23 42.7, 18.01 29.78, -0.65 13.68 M56.3 56.14 C42.47 44.93, 26.84 33.73, -1.31 6.38 M55.65 55.03 C37.84 41.81, 20.71 27.7, -0.38 8.33 M60.51 56.33 C40.11 36.43, 16.28 18.45, -1.24 4.03 M61.89 56.5 C45.92 43.14, 29.68 27.97, 0.56 3.51 M66.33 56.28 C39.18 33.16, 16.57 12.08, 1.81 -1.14 M65.8 55.01 C43.57 34.46, 19.54 13.16, 1.91 -0.53 M73.89 57.16 C51.1 39.76, 31.61 21.46, 6.98 -2.37 M72.7 56.86 C59.84 42.83, 45.22 32.38, 7.67 -1.5 M81.48 55.21 C56.85 36.18, 33.4 15.9, 11.59 -3.4 M78.85 56.92 C52.79 33.79, 27.4 12.21, 13.31 -1.59 M85.09 56.39 C71.68 42.22, 56.03 29.41, 18.62 -2.1 M86.05 55.32 C71.21 43.2, 55.28 29.16, 20.18 -0.95 M90.12 54.93 C77.89 42.97, 60.28 31.53, 23.54 -3.01 M92.2 56.1 C76.07 43.03, 61.7 30.79, 25.29 -2.28 M95.43 57.38 C73.94 36.01, 52.79 17.37, 29.7 0.52 M96.34 55.27 C73.72 35.38, 49.81 13.93, 31.62 -0.79 M104.04 55.81 C75.95 33.95, 50.71 10.02, 36.44 -1.65 M102.25 56.15 C86.06 39.61, 68.61 23.76, 37.17 -0.21 M103.4 48.61 C89.35 39.12, 80 27.66, 42.71 -1.83 M101.7 50.15 C88.44 38.25, 74.43 24.51, 43.55 -2.05 M102.42 46.1 C89.07 34.84, 76.77 21.49, 50.73 0.08 M102.4 44.5 C82.3 27.51, 63.44 9.83, 50.52 -0.99 M103.7 40.86 C86.77 26.63, 72.91 15.65, 54.07 -3.39 M103.13 38.6 C87.56 26.55, 72.15 11.75, 55.08 -0.79 M104.24 34.14 C93.28 25.69, 81.33 16.81, 61.06 -1.38 M103.44 34.53 C89.65 23.29, 76.65 10.58, 61.74 -2.32 M102.77 27.26 C89.88 16.59, 78.89 10.23, 66.9 -0.69 M101.89 28.5 C93.8 20.56, 85.34 12.85, 67.61 -1.47 M103.13 23.49 C93.39 13.69, 82.71 7.28, 73.27 -3.19 M102.4 22.77 C91.75 14.92, 81.31 5.83, 74.96 -0.55 M101.68 19.4 C95.89 12.9, 89.78 4.14, 79.99 0.81 M102.52 17.1 C96 12.86, 91.77 8.52, 79.8 -1.53 M102.63 14.77 C96.31 8.26, 93.79 3.1, 85.11 -3.46 M101.82 12.7 C98.67 8.31, 94.9 6.62, 86.89 -2.07 M101.78 7.68 C100.9 5.9, 97.34 4.33, 92.42 -1.31 M102.19 7.49 C99.13 3.92, 94.92 0.73, 92.27 -1.42 M103.12 2.08 C101.11 1.04, 100.15 -0.07, 99 -0.93 M102.5 2.36 C101.92 1.17, 101.18 0.51, 99.1 -0.96" stroke="#ced4da" stroke-width="0.5" fill="none"></path><path d="M0.44 0.75 C22.7 0.69, 48.73 0.74, 102.08 -1.99 M0.76 -0.63 C22.77 0.67, 45.84 0.72, 102.35 0.78 M102.99 1.68 C102.88 9.78, 100.78 23.01, 103.72 56.09 M101.69 -0.53 C102.88 22.57, 103.42 43.52, 101.41 56.22 M103.41 55 C71.35 57.92, 41.66 56.29, -0.8 57.18 M101.17 55.26 C71.49 55.68, 39.73 55.84, -0.36 56.08 M-1.62 56.13 C-0.51 38.62, 2.18 24, 1.42 -0.56 M-0.06 56.97 C-1.19 35.29, 0.25 15.9, -0.69 0.08" stroke="#000000" stroke-width="1" fill="none"></path></g><g stroke-linecap="round"><g transform="translate(253.7091264630161 124.28295216480444) rotate(0 0.31571214757013877 26.00045335193164)"><path d="M0.79 0.74 C1.04 9.03, 0.66 42.05, 0.73 50.45 M-0.25 0.08 C-0.08 8.51, -0.3 43.76, -0.14 51.92" stroke="#000000" stroke-width="1" fill="none"></path></g><g transform="translate(253.7091264630161 124.28295216480444) rotate(0 0.31571214757013877 26.00045335193164)"><path d="M-7.67 28.48 C-6.87 34.83, -3.65 37.54, -0.08 53.04 M-8.69 28.1 C-6.65 35.45, -3.26 41.46, -0.7 51.56" stroke="#000000" stroke-width="1" fill="none"></path></g><g transform="translate(253.7091264630161 124.28295216480444) rotate(0 0.31571214757013877 26.00045335193164)"><path d="M9.62 28.39 C6.3 34.88, 5.4 37.61, -0.08 53.04 M8.61 28.01 C5.58 35.23, 3.91 41.27, -0.7 51.56" stroke="#000000" stroke-width="1" fill="none"></path></g></g><g transform="translate(315.8125 305.38060841480444) rotate(0 21 6.5)"><text x="0" y="10" font-family="Helvetica, Segoe UI Emoji" font-size="12.85714285714286px" fill="#000000" text-anchor="start" style="white-space: pre;" direction="ltr">jenkins</text></g><g transform="translate(146.3125 293.88060841480444) rotate(0 55.5 6)"><text x="55.5" y="9" font-family="Helvetica, Segoe UI Emoji" font-size="11.201058201058206px" fill="#000000" text-anchor="middle" style="white-space: pre;" direction="ltr">trigger JobProvisioner</text></g><g stroke-linecap="round"><g transform="translate(141.8125 313.88060841480444) rotate(0 70.90459105989896 -0.7513824723660605)"><path d="M0.14 0.56 C23.76 0.18, 117.15 -1.51, 140.91 -2.07 M-1.24 -0.18 C22.81 -0.4, 119.12 -0.29, 143.05 -0.57" stroke="#000000" stroke-width="1" fill="none"></path></g><g transform="translate(141.8125 313.88060841480444) rotate(0 70.90459105989896 -0.7513824723660605)"><path d="M115.84 8 C121.33 8.57, 126.74 5.11, 142.42 -0.64 M114.15 10.78 C120.86 7.33, 126.4 5.99, 143.57 -0.51" stroke="#000000" stroke-width="1" fill="none"></path></g><g transform="translate(141.8125 313.88060841480444) rotate(0 70.90459105989896 -0.7513824723660605)"><path d="M115.75 -12.52 C121.31 -7.17, 126.74 -5.84, 142.42 -0.64 M114.06 -9.74 C120.71 -8.85, 126.27 -5.86, 143.57 -0.51" stroke="#000000" stroke-width="1" fill="none"></path></g></g><g transform="translate(392.7890625000001 228.91185841480439) rotate(0.7419365555406428 65 11)"><text x="65" y="9" font-family="Helvetica, Segoe UI Emoji" font-size="10.400262898455486px" fill="#000000" text-anchor="middle" style="white-space: pre;" direction="ltr">отримання налаштування </text><text x="65" y="20" font-family="Helvetica, Segoe UI Emoji" font-size="10.400262898455486px" fill="#000000" text-anchor="middle" style="white-space: pre;" direction="ltr">розкладу та часу </text></g><g stroke-linecap="round"><g transform="translate(264.21653721317534 175.93885642796073) rotate(0 5.912128797703247 5.2604139448887395)" fill-rule="evenodd"><path d="M1.68 1.97 L3.02 8.84 L10.81 11.13 L0.28 -0.44" stroke="none" stroke-width="0" fill="#000000" fill-rule="evenodd"></path><path d="M1.02 -0.48 C1.13 0.57, 1.05 4.16, 1.31 5.82 C1.56 7.47, 1.5 8.37, 2.55 9.44 C3.6 10.51, 6.23 11.98, 7.62 12.24 C9.01 12.5, 10.68 11.81, 10.89 11.02 C11.09 10.23, 9.84 8.87, 8.85 7.51 C7.85 6.14, 6.36 4.25, 4.93 2.84 C3.5 1.42, 1.18 -0.67, 0.25 -0.99 M0.1 -1.78 C0.09 -1.06, 0.58 1.87, 0.95 3.9 C1.32 5.93, 1.07 9.34, 2.31 10.39 C3.56 11.43, 6.72 9.98, 8.41 10.15 C10.1 10.33, 12.7 12.01, 12.45 11.44 C12.2 10.87, 8.55 8.4, 6.89 6.74 C5.23 5.08, 3.76 2.28, 2.5 1.46 C1.25 0.64, -0.4 2.05, -0.64 1.81" stroke="#000000" stroke-width="1" fill="none"></path></g></g><g stroke-linecap="round"><g transform="translate(264.1992458083166 175.96293627578615) rotate(0 -16.95393977056159 0.26666104214731945)"><path d="M-0.48 1.13 C-6.17 1.12, -28.76 1.02, -34.63 1 M1.47 0.67 C-4.31 0.87, -29.6 -0.35, -35.38 -0.59" stroke="#000000" stroke-width="1" fill="none"></path></g></g><g stroke-linecap="round"><g transform="translate(229.26338716641567 175.96325216211153) rotate(0 0.672035811580713 33.80830377546846)"><path d="M1.13 0.39 C1.12 11.62, 1.02 55.56, 1 66.91 M0.26 -0.46 C0.09 10.96, 0.49 56.89, 0.58 68.07" stroke="#000000" stroke-width="1" fill="none"></path></g></g><g stroke-linecap="round"><g transform="translate(229.2003948202123 243.5768972080523) rotate(0 24.035907702418285 0.31165323196864847)"><path d="M0.39 1 C8.23 0.99, 38.64 1.39, 46.61 1.03 M-0.87 0.48 C7.41 0.66, 40.81 -0.39, 48.94 -0.56" stroke="#000000" stroke-width="1" fill="none"></path></g></g><g stroke-linecap="round"><g transform="translate(276.4604670875972 243.81576484684854) rotate(0 0.6232893546122114 -28.131691718034148)"><path d="M1 -0.71 C0.99 -10.13, 1.42 -46.76, 1.07 -56.13 M0.07 1.52 C-0.11 -8.26, 0.48 -48.26, 0.66 -57.79" stroke="#000000" stroke-width="1" fill="none"></path></g></g><g stroke-linecap="round"><g transform="translate(263.9028523500774 175.86274351884015) rotate(0 6.346701145013128 5.805901073756473)"><path d="M-0.71 1.03 C1.46 2.56, 11.19 8.36, 13.41 10.18 M1.11 0.52 C3.17 2.67, 11.14 9.53, 12.93 11.09" stroke="#000000" stroke-width="1" fill="none"></path></g></g><g stroke-linecap="round"><g transform="translate(230.63918124275494 215.41573608046792) rotate(0 22.851168445977407 8.565214221432512)" fill-rule="evenodd"><path d="M1.42 -1.13 L50.73 1.22 L52.21 5.15 L51.86 16.96 L44 17.79 L-4.07 16.83 L-4.69 13.62 L-7.69 4.55 L-6.19 1.33 L0.76 0.22" stroke="none" stroke-width="0" fill="#fff" fill-rule="evenodd"></path><path d="M1.03 0.89 C4.32 1.02, 13.03 0.09, 20.76 0.05 C28.5 0.02, 42.24 0.49, 47.45 0.68 C52.66 0.87, 51.14 0.59, 52.02 1.18 C52.89 1.78, 52.73 2.21, 52.72 4.24 C52.7 6.27, 51.99 11.03, 51.92 13.36 C51.85 15.68, 53 17.51, 52.31 18.19 C51.62 18.87, 52.92 17.41, 47.78 17.46 C42.63 17.52, 29.43 18.43, 21.44 18.52 C13.45 18.6, 4.38 18.09, -0.17 17.99 C-4.71 17.89, -4.83 18.92, -5.82 17.93 C-6.82 16.93, -5.95 14.1, -6.12 12.02 C-6.3 9.94, -7.04 7.13, -6.87 5.45 C-6.7 3.77, -6.41 2.72, -5.12 1.93 C-3.82 1.14, -0.03 1.17, 0.92 0.71 M0.11 0.31 C3.66 0.71, 15.04 1.9, 22.85 1.62 C30.66 1.34, 42.58 -1.5, 46.97 -1.39 C51.36 -1.29, 48.46 1.34, 49.2 2.25 C49.93 3.17, 50.74 2.35, 51.38 4.11 C52.01 5.87, 53.26 10.57, 53 12.8 C52.74 15.02, 50.78 16.81, 49.82 17.47 C48.85 18.12, 51.68 16.76, 47.22 16.71 C42.75 16.66, 30.79 17.07, 23.03 17.18 C15.28 17.3, 5.54 17.62, 0.69 17.4 C-4.16 17.17, -4.74 16.85, -6.07 15.82 C-7.4 14.79, -7.16 13.06, -7.3 11.2 C-7.44 9.35, -7.07 6.21, -6.89 4.7 C-6.7 3.18, -7.63 2.84, -6.19 2.14 C-4.76 1.45, 0.98 0.88, 1.73 0.53" stroke="#000000" stroke-width="1" fill="none"></path></g></g><g stroke-linecap="round"><g transform="translate(234.19561884311224 187.84577467116293) rotate(0 12.598171080609802 -0.4993349178565438)"><path d="M-1.19 0.05 C3.04 -0.01, 21.69 0.53, 26.38 0.51 M0.39 -0.96 C4.42 -1.46, 21.33 -1.7, 25.72 -1.34" stroke="#000000" stroke-width="1" fill="none"></path></g></g><g stroke-linecap="round"><g transform="translate(234.22822854373464 192.61022553097513) rotate(0 16.31614232314996 0.3258168953117888)"><path d="M0.05 0.55 C5.57 0.94, 28.45 1.18, 34.01 1.13 M-1.38 -0.2 C3.95 -0.02, 27.66 -0.72, 33.33 -0.4" stroke="#000000" stroke-width="1" fill="none"></path></g></g><g stroke-linecap="round"><g transform="translate(234.23998610526144 197.46951647201047) rotate(0 17.003488673682 0.5913392088655485)"><path d="M0.55 0.51 C6.52 0.5, 29.09 0.19, 34.62 -0.06 M-0.62 -0.26 C5.4 -0.09, 28.65 1.43, 34.27 1.44" stroke="#000000" stroke-width="1" fill="none"></path></g></g><g stroke-linecap="round"><g transform="translate(234.24262107653055 202.33311557737977) rotate(0 16.379175205065565 -0.3058985157078098)"><path d="M0.51 1.13 C6.08 1.08, 28.1 0.54, 33.43 0.25 M-0.67 0.68 C4.72 0.19, 26.53 -1.69, 32.45 -1.74" stroke="#000000" stroke-width="1" fill="none"></path></g></g><g stroke-linecap="round"><g transform="translate(234.2021865545887 207.76673680583906) rotate(0 17.003731620127894 -0.5629020306158452)"><path d="M1.13 -0.06 C6.66 -0.31, 28.46 -1.15, 33.74 -0.99 M0.26 -1.14 C5.61 -1.32, 27.68 0, 32.93 0.03" stroke="#000000" stroke-width="1" fill="none"></path></g></g><g transform="translate(227.11002604166663 218.09087627194725) rotate(0 25.5703125 5.8114346590909065)"><text x="25.57031249999999" y="9.622869318181817" font-family="Helvetica, Segoe UI Emoji" font-size="9.563457486379814px" fill="#000000" text-anchor="middle" style="white-space: pre;" direction="ltr">values.yaml</text></g><g stroke-linecap="round"><g transform="translate(389.0546875 308.91881983240216) rotate(0 33.100804350338876 0.797395402485904)"><path d="M-1.93 1.64 C22.32 2.41, 42.07 1.3, 66.51 0.9 M0.99 -0.05 C16.74 -0.46, 35.66 -0.15, 68.13 -0.31" stroke="#000000" stroke-width="1" fill="none"></path></g></g><g stroke-linecap="round"><g transform="translate(456.1640625 254.07506983240222) rotate(0 0.16050764080137014 28.60599493328479)"><path d="M1.59 0.66 C-0.76 20.43, -1.41 36.17, 1.55 57.57 M0.7 -0.36 C0.54 14.59, -0.37 26.73, -1.27 55.12" stroke="#000000" stroke-width="1" fill="none"></path></g></g><g stroke-linecap="round"><g transform="translate(283.24609375 202.49694483240222) rotate(0 89.39127879682928 0.1597782038152218)"><path d="M0.04 1.79 C43.77 0.85, 91.38 0.86, 176.28 -1.47 M0.23 0.8 C52.86 1.18, 105.76 2.5, 178.75 -0.86" stroke="#000000" stroke-width="1" fill="none"></path></g></g><g stroke-linecap="round"><g transform="translate(459.54296875 227.89538233240222) rotate(0 -0.5345772271975875 -13.595427108928561)"><path d="M-0.43 -1.19 C-1.37 -9.64, 1.87 -13.85, -1.35 -25.72 M-0.22 1 C-0.14 -9.68, -0.18 -20.08, 0.28 -28.19" stroke="#000000" stroke-width="1" fill="none"></path></g></g></svg>