<svg width="56" height="56" viewBox="0 0 56 56" fill="none" xmlns="http://www.w3.org/2000/svg">
<path fill-rule="evenodd" clip-rule="evenodd" d="M47.5904 26.9983C47.5904 38.0881 38.8011 47.0783 27.959 47.0783C17.117 47.0783 8.32775 38.0881 8.32775 26.9983C8.32775 15.9083 17.117 6.91799 27.959 6.91799C38.8011 6.91799 47.5904 15.9083 47.5904 26.9983Z" fill="#D33833"/>
<path d="M9.12773 31.9715C9.12773 31.9715 7.70656 11.0314 27.0015 10.433L25.6555 8.18943L15.1854 11.7045L12.1939 15.1446L9.57645 20.1554L8.0806 25.9887L8.52932 29.8775" fill="#EF3D3A"/>
<path d="M14.5132 13.3001C11.0689 16.8243 8.93746 21.6902 8.93746 27.0733C8.93746 32.4552 11.0689 37.3217 14.5132 40.8453C17.9592 44.3689 22.7084 46.5432 27.9587 46.5432C33.2092 46.5432 37.9587 44.3689 41.4044 40.8453C44.8485 37.3217 46.9804 32.4552 46.9804 27.0733C46.9804 21.6902 44.8485 16.8243 41.4044 13.3001C37.9587 9.77722 33.2092 7.60296 27.9587 7.60251C22.7084 7.60296 17.9592 9.77722 14.5132 13.3001ZM13.6414 41.6977C9.98082 37.9541 7.71777 32.7803 7.71777 27.0733C7.71777 21.3654 9.98082 16.1921 13.6414 12.4482C17.3011 8.70366 22.367 6.38267 27.9587 6.38334C33.5505 6.38267 38.6169 8.70366 42.276 12.4482C45.9369 16.1921 48.2002 21.3658 48.1998 27.0733C48.2002 32.7803 45.9369 37.9541 42.276 41.6977C38.6169 45.442 33.5505 47.7627 27.9587 47.7627C22.367 47.7627 17.3011 45.442 13.6414 41.6977Z" fill="#231F20"/>
<path fill-rule="evenodd" clip-rule="evenodd" d="M36.2228 27.1096L33.2312 27.5583L29.1927 28.0071L26.5751 28.0818L24.0324 28.0071L22.0879 27.4087L20.3678 25.5391L19.0216 21.725L18.7225 20.9023L16.9276 20.3041L15.8806 18.584L15.1327 16.116L15.9555 13.9472L17.8998 13.2741L19.4703 14.0221L20.2183 15.6673L21.1158 15.5177L21.4148 15.1439L21.1158 13.4237L21.0408 11.2549L21.4896 8.26347L21.472 6.55475L22.8357 4.37466L25.2289 2.6545L29.4171 0.859625L34.0537 1.5327L38.0922 4.44937L39.962 7.44075L41.1585 9.60962L41.4575 14.9942L40.5601 19.6311L38.9149 23.7442L37.3444 25.9131" fill="#F0D6B7"/>
<path fill-rule="evenodd" clip-rule="evenodd" d="M33.6799 40.0475L22.9853 40.4962V42.2911L23.8827 48.5732L23.434 49.0968L15.9555 46.5539L15.4319 45.6565L14.684 37.2058L12.9642 32.1202L12.5901 30.9237L18.5729 26.8106L20.4427 26.0625L22.0879 28.0818L23.5088 29.3532L25.1542 29.8766L25.902 30.101L26.7994 33.9898L27.4725 34.8125L29.1927 34.2142L27.996 36.5327L34.5024 39.5988L33.6799 40.0475Z" fill="#335061"/>
<path fill-rule="evenodd" clip-rule="evenodd" d="M15.9555 13.9472L17.8998 13.2741L19.4703 14.0221L20.2183 15.6673L21.1158 15.5177L21.3401 14.6202L20.8914 12.9003L21.3401 8.7869L20.9661 6.54331L22.3122 4.9728L25.2289 2.6545L24.4062 1.5327L20.293 3.55193L18.5729 4.89809L17.6007 6.99203L16.1049 9.01126L15.6562 11.4045L15.9555 13.9472Z" fill="#6D6B6D"/>
<path fill-rule="evenodd" clip-rule="evenodd" d="M19.0216 6.91731C19.0216 6.91731 20.1434 4.1503 24.6306 2.80414C29.1178 1.45799 24.8549 1.83177 24.8549 1.83177L19.994 3.70158L18.1242 5.57116L17.3017 7.06696L19.0216 6.91731Z" fill="#DCD9D8"/>
<path fill-rule="evenodd" clip-rule="evenodd" d="M16.778 13.4237C16.778 13.4237 15.2075 8.18854 21.1904 7.44075L20.9661 6.54331L16.853 7.51569L15.6562 11.4045L15.9555 13.9472L16.778 13.4237Z" fill="#DCD9D8"/>
<path fill-rule="evenodd" clip-rule="evenodd" d="M19.1712 20.3789L20.1504 19.43C20.1504 19.43 20.5924 19.4814 20.6671 20.0049C20.7417 20.5285 20.9661 25.24 24.1819 27.7829C24.4752 28.0149 21.7888 27.4087 21.7888 27.4087L19.3956 23.6695" fill="#F7E4CD"/>
<path fill-rule="evenodd" clip-rule="evenodd" d="M32.9324 18.958C32.9324 18.958 33.1067 16.6911 33.7172 16.8654C34.3276 17.0397 34.3276 17.6502 34.3276 17.6502C34.3276 17.6502 32.8451 18.6093 32.9324 18.958Z" fill="#F7E4CD"/>
<path d="M39.1392 10.6567C39.1392 10.6567 37.9066 10.917 37.7931 12.0029C37.6796 13.089 39.1392 12.2272 39.3636 12.1525" fill="#F7E4CD"/>
<path d="M30.0901 10.7316C30.0901 10.7316 28.4447 10.956 28.4447 12.0029C28.4447 13.0499 30.3145 12.9752 30.838 12.5265" fill="#F7E4CD"/>
<path fill-rule="evenodd" clip-rule="evenodd" d="M19.919 15.5926C19.919 15.5926 17.077 13.8724 16.778 15.5179C16.4789 17.1631 15.8056 18.3598 17.2267 20.0798L16.2545 19.7807L15.3571 17.4624L15.0581 15.2188L16.778 13.4237L18.7225 13.5734L19.8443 14.4708L19.919 15.5926Z" fill="#F7E4CD"/>
<path fill-rule="evenodd" clip-rule="evenodd" d="M21.2652 10.8811C21.2652 10.8811 22.5366 4.29995 28.9683 3.02851C34.2635 1.98187 37.0451 3.25286 38.0922 4.44937C38.0922 4.44937 33.3806 -1.15938 28.8934 0.560557C24.4062 2.28072 21.1158 5.42174 21.1904 7.44075C21.3178 10.8797 21.2652 10.8811 21.2652 10.8811Z" fill="#F7E4CD"/>
<path fill-rule="evenodd" clip-rule="evenodd" d="M38.6158 5.19716C38.6158 5.19716 36.4472 5.12244 36.3722 7.06696C36.3722 7.06696 36.372 7.36603 36.5217 7.6651C36.5217 7.6651 38.242 5.72059 39.2889 6.76767" fill="#F7E4CD"/>
<path fill-rule="evenodd" clip-rule="evenodd" d="M29.1191 7.8677C29.1191 7.8677 28.7457 4.88305 26.2011 6.61825C24.5558 7.74004 24.7055 9.31055 25.0045 9.60962C25.3037 9.90892 25.2223 10.5113 25.45 10.0978C25.6776 9.68434 25.6027 8.33818 26.4255 7.9644C27.2481 7.59039 28.5967 7.17264 29.1191 7.8677Z" fill="#F7E4CD"/>
<path fill-rule="evenodd" clip-rule="evenodd" d="M22.0879 28.0818L15.0581 31.2228C15.0581 31.2228 17.9747 42.8148 16.4789 46.4045L15.4319 46.0307L15.3571 41.6182L13.4129 33.2423L12.5901 30.9237L19.919 25.9881L22.0879 28.0818Z" fill="#49728B"/>
<path fill-rule="evenodd" clip-rule="evenodd" d="M22.8107 34.4933L23.8081 35.7102V40.1974H22.6114C22.6114 40.1974 22.4619 37.0564 22.4619 36.6823C22.4619 36.3083 22.6114 34.9622 22.6114 34.9622" fill="#49728B"/>
<path fill-rule="evenodd" clip-rule="evenodd" d="M22.8357 40.8705L19.4703 41.0199L20.4427 41.693L22.8357 42.0669" fill="#49728B"/>
<path fill-rule="evenodd" clip-rule="evenodd" d="M34.353 40.1224L37.12 40.0477L37.7931 46.9282L34.9511 47.3019L34.353 40.1224Z" fill="#335061"/>
<path fill-rule="evenodd" clip-rule="evenodd" d="M35.1008 40.1224L39.2889 39.8981C39.2889 39.8981 41.0088 35.5605 41.0088 35.3362C41.0088 35.1118 42.5046 29.0541 42.5046 29.0541L39.1392 25.5393L38.4662 24.941L36.6713 26.7358V33.691L35.1008 40.1224Z" fill="#335061"/>
<path fill-rule="evenodd" clip-rule="evenodd" d="M36.9704 39.599L34.353 40.1224L34.7268 42.2166C35.6989 42.6653 37.3444 41.4686 37.3444 41.4686" fill="#49728B"/>
<path fill-rule="evenodd" clip-rule="evenodd" d="M37.0453 26.5115L42.2803 30.4003L42.4299 28.6054L38.4662 24.941L37.0453 26.5115Z" fill="#49728B"/>
<path fill-rule="evenodd" clip-rule="evenodd" d="M25.4311 54.8561L23.8827 48.5732L23.1127 43.9373L22.9853 40.4962L29.9931 40.1232L34.353 40.1224L33.9566 47.9757L34.6296 54.0334L34.5549 55.1552L28.8713 55.6039L25.4311 54.8561Z" fill="white"/>
<path fill-rule="evenodd" clip-rule="evenodd" d="M33.3806 40.0477C33.3806 40.0477 33.0068 47.8256 34.1286 53.3596C34.1286 53.3596 31.885 54.7807 28.5943 55.1545L34.8764 54.9301L35.6242 54.4814L34.7268 42.2166L34.5024 39.5988" fill="#DCD9D8"/>
<path fill-rule="evenodd" clip-rule="evenodd" d="M37.9205 46.3305L40.8372 45.5078L46.3712 45.2087L47.194 42.666L45.6982 38.2535L43.9782 38.0292L41.585 38.777L39.2889 39.8981L38.07 39.6744L37.12 40.0477" fill="white"/>
<path fill-rule="evenodd" clip-rule="evenodd" d="M37.8678 44.834C37.8678 44.834 39.8121 43.9367 40.1114 44.0115L39.2889 39.8981L40.261 39.5243C40.261 39.5243 40.9341 43.4131 40.9341 43.8618C40.9341 43.8618 45.122 44.0862 45.496 44.0862C45.496 44.0862 46.3934 42.366 46.1691 40.5712L46.9918 42.9644L47.0665 44.3105L45.87 46.1054L44.5239 46.4045L42.2803 46.3297L41.5325 45.3576L38.9149 45.7314L38.0922 46.0307" fill="#DCD9D8"/>
<path d="M34.9289 39.525L33.2837 35.3369L31.5635 32.8689C31.5635 32.8689 31.9373 31.8218 32.461 31.8218C32.9846 31.8218 34.1811 31.8218 34.1811 31.8218L35.8264 32.4202L35.6769 35.1873L34.9289 39.525Z" fill="white"/>
<path fill-rule="evenodd" clip-rule="evenodd" d="M35.2504 38.1032C35.2504 38.1032 33.1563 34.0649 33.1563 33.4666C33.1563 33.4666 33.5301 32.5692 34.0537 32.7935C34.5774 33.0179 35.6992 33.616 35.6992 33.616V32.1952L33.1563 31.6715L31.4363 31.8959L34.353 38.7763L34.9511 38.8512" fill="#DCD9D8"/>
<path d="M26.1043 28.2323L24.0324 28.0071L22.0879 27.4087V28.0818L23.038 29.1295L26.0294 30.4757" fill="white"/>
<path fill-rule="evenodd" clip-rule="evenodd" d="M22.7612 28.4565C22.7612 28.4565 25.0797 29.4288 25.8276 29.2045L25.902 30.101L23.8083 29.6532L22.5369 28.7557L22.7612 28.4565Z" fill="#DCD9D8"/>
<path fill-rule="evenodd" clip-rule="evenodd" d="M37.9125 32.0765C36.6435 32.0392 35.497 31.8885 34.4932 31.6053C34.5614 31.1939 34.4338 30.79 34.5363 30.4936C34.8161 30.2922 35.285 30.2953 35.7079 30.248C35.3422 30.0682 34.8284 29.9971 34.4064 30.101C34.3965 29.8154 34.2684 29.6384 34.1908 29.4149C34.9042 29.1603 36.5885 27.4908 37.536 28.0436C37.9874 28.3066 38.1792 29.8084 38.2142 30.5387C38.2434 31.1445 38.1593 31.7557 37.9125 32.0765Z" fill="#D33833"/>
<path fill-rule="evenodd" clip-rule="evenodd" d="M31.8442 30.0021C31.8409 30.0981 31.8368 30.1948 31.833 30.2917C31.4368 30.552 30.7971 30.5488 30.3623 30.7676C31.0033 30.7956 31.5079 30.95 31.9445 31.1676C31.9349 31.4095 31.9257 31.6511 31.9162 31.893C31.19 32.3901 30.5266 33.1305 29.6715 33.5968C29.2672 33.8173 27.8483 34.3846 27.4182 34.2844C27.1748 34.2279 27.1529 33.9259 27.0556 33.6412C26.8483 33.0316 26.3711 32.0612 26.3295 31.1436C26.2765 29.9846 26.1595 28.0421 27.4085 28.2808C28.4162 28.4731 29.5882 28.9373 30.3684 29.3635C30.8451 29.6242 31.1209 29.9464 31.8442 30.0021Z" fill="#D33833"/>
<path fill-rule="evenodd" clip-rule="evenodd" d="M32.5655 31.385C32.4547 30.7537 32.3266 30.5735 32.3762 30.0227C34.06 28.9 34.3761 31.9511 32.5655 31.385Z" fill="#D33833"/>
<path fill-rule="evenodd" clip-rule="evenodd" d="M35.0036 31.8968C35.0036 31.8968 34.48 31.1488 34.854 30.9244C35.228 30.7 35.602 30.9246 35.8264 30.5506C36.0507 30.1766 35.8264 29.9523 35.9011 29.5035C35.9758 29.0548 36.35 28.9799 36.7238 28.9052C37.0976 28.8305 38.1449 28.6808 38.2943 29.0548L37.8456 27.7087L36.9482 27.4096L34.1062 29.0548L33.9566 29.8775V31.5228" fill="#EF3D3A"/>
<path fill-rule="evenodd" clip-rule="evenodd" d="M27.1511 34.3647C27.0613 33.1976 26.9662 32.0321 26.8604 30.8661C26.7021 29.125 27.2786 29.4288 28.7878 29.4288C29.0183 29.4288 30.2071 29.7037 30.2921 29.8775C30.7 30.7106 29.61 30.5255 30.7619 31.1537C31.7343 31.6839 33.452 30.8317 33.0591 29.6532C32.8392 29.3911 31.9135 29.5715 31.5817 29.3994C30.9975 29.0965 30.4133 28.7937 29.829 28.4908C29.0856 28.1051 27.3676 27.5429 26.5751 28.0818C24.567 29.4474 26.7018 32.8597 27.4182 34.2844" fill="#EF3D3A"/>
<path fill-rule="evenodd" clip-rule="evenodd" d="M29.1191 7.8677C27.0807 7.39296 26.0679 8.72072 25.45 10.0978C24.8983 9.96411 25.1179 9.21386 25.2572 8.83155C25.6221 7.82822 27.0924 6.49261 28.2938 6.67366C28.8108 6.75152 29.5104 7.22424 29.1191 7.8677Z" fill="#231F20"/>
<path fill-rule="evenodd" clip-rule="evenodd" d="M39.0506 10.1889C39.0827 10.1903 39.1152 10.1914 39.1473 10.1927C39.6079 11.1496 40.0066 12.1633 40.5877 13.008C40.1984 13.9146 37.6401 14.7169 37.6796 13.089C38.2328 12.8471 39.1879 13.0396 39.6784 12.7307C39.3948 11.9524 38.9856 11.2898 39.0506 10.1889Z" fill="#231F20"/>
<path fill-rule="evenodd" clip-rule="evenodd" d="M30.1626 10.2138C30.5997 11.015 30.7419 11.8568 31.3632 12.4624C31.643 12.7349 32.187 13.0672 31.9174 13.8253C31.8543 14.0041 31.3937 14.4028 31.1278 14.4811C30.1566 14.7679 27.8934 14.5404 28.6598 13.3295C29.4631 13.367 30.5427 13.8511 31.1431 13.268C30.682 12.531 29.8601 11.0729 30.1626 10.2138Z" fill="#231F20"/>
<path fill-rule="evenodd" clip-rule="evenodd" d="M38.686 18.3567C37.2237 19.2961 35.593 20.3176 33.1969 20.0807C32.6849 19.6356 32.4897 18.645 32.9871 17.9908C33.246 18.4359 33.0834 19.2546 33.8049 19.3778C35.1645 19.6104 36.7469 18.5461 37.7249 18.1741C38.3313 17.1517 37.6726 16.7757 37.1263 16.1176C36.0079 14.7694 34.5076 13.0984 34.5621 11.0801C35.0142 10.7523 35.0532 11.5804 35.1181 11.7312C35.7021 13.098 37.1718 14.8459 38.2445 16.0157C38.5079 16.3038 38.9416 16.5802 38.9898 16.7707C39.1289 17.3247 38.6279 17.9883 38.686 18.3567Z" fill="#231F20"/>
<path fill-rule="evenodd" clip-rule="evenodd" d="M19.4072 17.3677C18.9489 17.1061 18.8398 15.9538 18.3016 15.9211C17.5326 15.8744 17.6728 17.416 17.6759 18.3174C17.1465 17.8369 17.0535 16.3572 17.4423 15.5973C16.9991 15.3797 16.8012 15.8374 16.5554 15.9987C16.8714 13.7035 19.9129 14.9341 19.4072 17.3677Z" fill="#231F20"/>
<path fill-rule="evenodd" clip-rule="evenodd" d="M39.6171 19.3125C38.9364 20.6082 37.9735 22.0351 35.976 22.0766C35.9354 21.6581 35.9042 21.0214 35.9783 20.7695C37.5052 20.6227 38.448 19.8456 39.6171 19.3125Z" fill="#231F20"/>
<path fill-rule="evenodd" clip-rule="evenodd" d="M30.0475 20.1525C31.3215 20.8224 33.6629 20.8944 35.3945 20.8437C35.4874 21.2231 35.4851 21.6918 35.4887 22.1544C33.2628 22.2655 30.6311 21.7147 30.0475 20.1525Z" fill="#231F20"/>
<path fill-rule="evenodd" clip-rule="evenodd" d="M29.8053 21.4017C30.6863 23.6137 33.7142 23.359 36.2677 23.298C36.1553 23.5852 35.9116 23.9244 35.6087 24.0471C34.7905 24.3801 32.5337 24.6327 31.3977 24.0294C30.6773 23.6464 30.2145 22.7811 29.8198 22.2738C29.6291 22.0288 28.68 21.4031 29.8053 21.4017Z" fill="#231F20"/>
<path fill-rule="evenodd" clip-rule="evenodd" d="M38.5797 33.603C37.5459 35.3737 36.5567 37.1923 35.3301 38.7541C35.8443 37.2421 36.0644 34.7115 36.142 32.7823C37.2178 32.2789 38.1391 32.8956 38.5797 33.603Z" fill="#81B0C4"/>
<path fill-rule="evenodd" clip-rule="evenodd" d="M44.1429 39.967C42.9854 40.1987 42.1721 41.3236 41.0429 41.2514C41.6635 40.3766 42.751 40.0078 44.1429 39.967Z" fill="#231F20"/>
<path fill-rule="evenodd" clip-rule="evenodd" d="M44.6535 41.7784C43.7101 41.8781 42.602 42.0308 41.6451 41.9521C42.0981 41.2602 43.8434 41.4989 44.6535 41.7784Z" fill="#231F20"/>
<path fill-rule="evenodd" clip-rule="evenodd" d="M44.9804 43.3402C43.9201 43.3631 42.6022 43.342 41.5944 43.2574C42.1905 42.6171 44.2928 43.0198 44.9804 43.3402Z" fill="#231F20"/>
<path fill-rule="evenodd" clip-rule="evenodd" d="M36.5847 47.614C36.7368 48.9456 37.2647 50.2949 37.1985 51.7532C36.6123 51.9509 36.2755 52.1238 35.49 52.1228C35.4346 50.8834 35.2688 48.9887 35.3184 47.8072C35.7048 47.8328 36.2744 47.5312 36.5847 47.614Z" fill="#DCD9D8"/>
<path fill-rule="evenodd" clip-rule="evenodd" d="M34.8753 27.9889C34.3429 28.3364 33.8895 28.7703 33.3782 29.1414C32.2442 29.1975 31.6255 29.0629 30.7924 28.4118C30.8061 28.3595 30.8898 28.3829 30.8929 28.3187C32.1067 28.8596 33.6496 28.0984 34.8753 27.9889Z" fill="#F0D6B7"/>
<path fill-rule="evenodd" clip-rule="evenodd" d="M28.5034 36.2628C28.8369 34.8177 30.1436 34.0692 31.3302 33.2734C32.555 34.8278 33.2999 36.8268 34.1201 38.7559C32.1821 38.1717 30.2019 37.2238 28.5034 36.2628Z" fill="#81B0C4"/>
<path fill-rule="evenodd" clip-rule="evenodd" d="M35.3184 47.8072C35.2688 48.9887 35.4346 50.8834 35.49 52.1228C36.2755 52.1238 36.6123 51.9509 37.1985 51.7532C37.2647 50.2949 36.7368 48.9456 36.5847 47.614C36.2744 47.5312 35.7048 47.8328 35.3184 47.8072ZM23.0877 41.0879C23.6056 45.8495 24.3558 49.8522 25.7318 54.0686C28.7856 54.9959 32.467 55.0767 35.1663 54.24C34.6707 51.8602 34.8872 48.9629 34.5975 46.4233C34.3792 44.5145 34.4905 42.594 34.1912 40.6465C30.9205 39.9661 26.2975 40.4875 23.0877 41.0879ZM34.9646 40.6764C34.937 42.7214 35.0561 44.7386 35.2123 46.7862C35.9975 46.6683 36.5304 46.5896 37.26 46.4296C37.0231 44.4585 37.0523 42.2404 36.5697 40.4967C36.0119 40.502 35.5208 40.4902 34.9646 40.6764ZM38.9481 40.3468C38.5754 40.2614 38.1415 40.3435 37.7855 40.3504C37.9528 42.0174 38.3589 43.8569 38.5018 45.6067C39.0621 45.6242 39.3614 45.3599 39.8222 45.2711C39.8469 43.7351 39.688 41.6189 38.9481 40.3468ZM44.9798 45.8577C46.1475 45.5741 46.8819 44.1438 46.5552 42.675C46.336 41.6878 45.9456 39.8289 45.5279 39.1974C45.2191 38.7303 44.3821 38.1187 43.7137 38.5468C42.6265 39.243 40.7111 39.4451 39.9182 40.2878C40.3158 41.6115 40.4392 43.4297 40.6032 45.107C41.9615 45.1917 43.6327 44.7332 44.7624 45.2197C43.9737 45.4752 42.9504 45.4772 42.2691 45.8495C42.8259 46.1184 44.1297 46.0641 44.9798 45.8577ZM34.1201 38.7559C33.2999 36.8268 32.555 34.8278 31.3302 33.2734C30.1436 34.0692 28.8369 34.8177 28.5034 36.2628C30.2019 37.2238 32.1821 38.1717 34.1201 38.7559ZM36.142 32.7823C36.0644 34.7115 35.8443 37.2421 35.3301 38.7541C36.5567 37.1923 37.5459 35.3737 38.5797 33.603C38.1391 32.8956 37.2178 32.2789 36.142 32.7823ZM33.85 31.9679C33.3853 31.9179 32.9909 32.5021 32.3867 32.2495C32.2483 32.4025 32.1224 32.5683 31.9813 32.7177C33.3158 34.3259 33.9222 36.6076 34.9529 38.4976C35.506 36.6821 35.4423 34.6931 35.5641 32.7116C34.8042 32.7599 34.3826 32.0244 33.85 31.9679ZM32.5655 31.385C32.4547 30.7537 32.3266 30.5735 32.3762 30.0227C34.06 28.9 34.3761 31.9511 32.5655 31.385ZM30.3684 29.3635C29.5882 28.9373 28.4162 28.4731 27.4085 28.2808C26.1595 28.0421 26.2765 29.9846 26.3295 31.1436C26.3711 32.0612 26.8483 33.0316 27.0556 33.6412C27.1529 33.9259 27.1748 34.2279 27.4182 34.2844C27.8483 34.3846 29.2672 33.8173 29.6715 33.5968C30.5266 33.1305 31.19 32.3901 31.9162 31.893C31.9257 31.6511 31.9349 31.4095 31.9445 31.1676C31.5079 30.95 31.0033 30.7956 30.3623 30.7676C30.7971 30.5488 31.4368 30.552 31.833 30.2917C31.8368 30.1948 31.8409 30.0981 31.8442 30.0021C31.1209 29.9464 30.8451 29.6242 30.3684 29.3635ZM22.9166 28.01C22.2691 28.6674 24.7327 29.5634 25.5171 29.6117C25.5127 29.1957 25.7541 28.8035 25.7055 28.5051C24.7739 28.3416 23.5496 28.4495 22.9166 28.01ZM30.8929 28.3187C30.8898 28.3829 30.8061 28.3595 30.7924 28.4118C31.6255 29.0629 32.2442 29.1975 33.3782 29.1414C33.8895 28.7703 34.3429 28.3364 34.8753 27.9889C33.6496 28.0984 32.1067 28.8596 30.8929 28.3187ZM38.2142 30.5387C38.1792 29.8084 37.9874 28.3066 37.536 28.0436C36.5885 27.4908 34.9042 29.1603 34.1908 29.4149C34.2684 29.6384 34.3965 29.8154 34.4064 30.101C34.8284 29.9971 35.3422 30.0682 35.7079 30.248C35.285 30.2953 34.8161 30.2922 34.5363 30.4936C34.4338 30.79 34.5614 31.1939 34.4932 31.6053C35.497 31.8885 36.6435 32.0392 37.9125 32.0765C38.1593 31.7557 38.2434 31.1445 38.2142 30.5387ZM21.8265 28.6458C21.6232 28.5009 20.2477 26.7112 20.0593 26.7854C17.5703 27.767 15.243 29.4643 13.1633 31.0696C15.1462 35.3243 15.9466 40.5371 16.088 45.5613C18.3595 46.6237 20.3546 48.1552 23.4369 48.3151C23.0802 45.7915 22.7546 43.5401 22.5522 41.1641C21.7777 40.8377 20.6666 41.179 19.9418 41.0629C19.9357 40.1895 21.0487 40.6805 21.1414 40.0931C21.2113 39.6488 20.529 39.6152 20.7512 38.9156C21.3178 39.1216 21.6153 39.5765 22.2196 39.7474C22.7717 38.5394 22.2119 36.4021 22.2915 35.3925C22.3065 35.203 22.3861 34.3423 22.8107 34.4933C23.1865 34.627 22.7893 36.7822 22.8305 37.7378C22.868 38.6181 22.7241 39.47 23.0807 40.0226C26.0591 39.6172 29.0858 39.3552 32.3084 39.2667C31.5994 38.9625 30.7572 38.6746 29.8338 38.1541C29.3332 37.8719 27.7552 37.2848 27.6108 36.8093C27.3803 36.0517 28.2155 35.6481 28.3584 34.9986C26.8549 35.8185 26.5616 34.2126 26.2059 33.0749C25.8837 32.0444 25.7002 31.2746 25.6212 30.6803C24.326 30.0629 22.9413 29.4376 21.8265 28.6458ZM36.8988 27.0019C38.9725 25.9964 39.3463 30.7602 38.5335 32.2948C38.6591 32.7525 39.0912 32.9277 39.2676 33.3392C38.1103 35.4122 36.825 37.3473 35.6442 39.396C36.5225 38.8492 37.7772 39.2982 38.8108 38.8889C39.1886 38.7395 39.4621 37.8746 39.7482 37.1826C40.535 35.279 41.3611 32.879 41.7286 31.0624C41.8116 30.6484 42.0377 29.7465 41.987 29.3781C41.8966 28.7185 41.0017 28.2294 40.5464 27.8215C39.7078 27.0681 39.1796 26.4051 38.3049 25.7007C37.9501 26.2243 37.1889 26.5761 36.8988 27.0019ZM17.0839 8.61168C16.0957 9.69892 16.3026 11.7361 16.4222 13.1855C18.2083 12.0619 20.579 13.2743 20.5566 15.1854C21.4094 15.1627 20.8752 14.1204 20.7209 13.4489C20.2169 11.2555 21.5702 8.87261 20.7823 6.86684C19.2525 6.98283 17.9958 7.60767 17.0839 8.61168ZM24.1543 2.30136C21.9172 2.9354 19.0503 4.56088 18.131 6.57046C18.8428 6.46703 19.3369 6.10806 20.0391 6.06363C20.3045 6.04636 20.6522 6.17492 20.9572 6.09908C21.5649 5.94831 22.0779 4.58555 22.5364 4.0785C22.9834 3.58334 23.5206 3.37178 23.8883 2.92037C24.1245 2.80639 24.4737 2.81424 24.4871 2.45953C24.3848 2.35004 24.2769 2.26658 24.1543 2.30136ZM35.7992 2.8977C33.4773 1.58767 29.5472 0.602286 27.0773 1.83357C25.0844 2.82725 22.3905 4.47136 21.472 6.55475C22.33 8.56524 21.2179 10.4074 21.1469 12.4487C21.1092 13.5348 21.6583 14.4829 21.7003 15.6653C21.4067 16.1497 20.5097 16.2094 19.8888 16.1762C19.6798 15.1302 19.3139 13.9546 18.2368 13.8366C16.7127 13.6699 15.5984 14.9312 15.5291 16.2493C15.4472 17.7994 16.7197 20.3685 18.5234 20.1902C19.2201 20.1213 19.3913 19.4229 20.1504 19.43C20.5619 20.251 19.5157 20.5088 19.4081 21.0959C19.3801 21.2476 19.4949 21.8403 19.5616 22.1183C19.8892 23.4719 20.6196 25.2237 21.3384 26.2541C22.2507 27.5613 24.0431 27.7582 25.9715 27.8864C26.3159 27.1444 27.5847 27.2054 28.4114 27.3995C27.4206 27.0071 26.4995 26.0558 25.7362 25.2138C24.8593 24.2477 23.9711 23.2114 23.9262 21.9487C25.5832 24.2475 26.9522 26.255 29.9653 27.2662C32.2451 28.0308 34.9078 26.9158 36.6596 25.6856C37.3866 25.1743 37.8205 24.363 38.3372 23.6204C40.2705 20.8395 41.1726 16.8701 40.9743 13.0228C40.8926 11.4361 40.8962 9.85485 40.3638 8.78735C39.8074 7.67116 37.9255 6.67254 36.8239 7.68216C36.6197 6.59671 37.7399 5.92543 39.0558 6.31604C38.1175 5.10517 37.1328 3.6502 35.7992 2.8977ZM40.1251 38.698C41.9395 37.796 45.3295 36.2702 46.467 38.7014C46.8868 39.5975 47.3793 41.1123 47.5967 42.0374C47.9038 43.3424 47.2637 46.0855 45.9223 46.5234C44.7374 46.9102 43.355 46.8866 41.9278 46.5999C41.7598 46.4602 41.5726 46.2165 41.4418 45.9625C40.4228 45.923 39.4686 46.0172 38.6636 46.4361C38.7399 47.1898 38.2301 47.3107 37.7523 47.4659C37.398 48.8706 38.461 50.705 38.2066 51.9859C38.0251 52.8984 36.9024 53.0395 36.0772 53.2102C36.0503 53.7173 36.1133 54.1406 36.1696 54.5696C35.9809 55.2648 35.1347 55.6606 34.3328 55.7576C31.6946 56.0748 27.6888 56.2173 25.1512 55.3048C24.443 53.5679 23.8852 51.4553 23.2954 49.4719C20.8204 49.7362 18.8187 48.404 16.9317 47.5312C16.2783 47.2283 15.3745 47.0615 15.1304 46.5414C14.8938 46.0379 14.9906 45.0729 14.9319 44.1614C14.7825 41.8332 14.6545 39.5876 14.0397 37.2038C13.7636 36.134 13.2825 35.1901 12.9468 34.1594C12.6366 33.2041 12.0945 32.0235 11.9532 31.0709C11.7435 29.659 13.073 29.5805 13.9231 28.9687C15.2373 28.0225 16.2688 27.4993 17.6921 26.6454C18.1136 26.3926 19.3849 25.7525 19.5295 25.4577C19.8169 24.8732 19.0361 24.0491 18.8273 23.591C18.4971 22.8665 18.3249 22.2511 18.2775 21.5363C17.0836 21.3476 16.1786 20.6371 15.6319 19.8359C14.7275 18.5099 14.1003 16.0568 14.8828 14.1908C14.9442 14.0439 15.2502 13.7549 15.2953 13.5292C15.3844 13.0847 15.1277 12.4938 15.1118 12.021C15.0296 9.59571 15.5221 7.50603 17.1549 6.77462C17.8177 4.13414 20.19 3.25623 22.4251 1.94395C23.2606 1.45351 24.1816 1.14007 25.1328 0.790074C28.5449 -0.465663 33.78 -0.229187 36.6118 1.91254C37.8126 2.82075 39.732 4.73834 40.4185 6.12668C42.2318 9.79203 42.103 15.9177 40.8347 20.3764C40.6642 20.975 40.417 21.8549 40.0717 22.574C39.8309 23.0761 39.0827 24.0808 39.1736 24.5241C39.2671 24.9825 40.8796 26.2068 41.2253 26.5402C41.8479 27.1408 43.0308 27.938 43.1266 28.6958C43.2295 29.5024 42.7712 30.6058 42.539 31.3841C41.7627 33.9815 41.0052 36.3824 40.1251 38.698Z" fill="#231F20"/>
<path fill-rule="evenodd" clip-rule="evenodd" d="M28.0202 20.7183C28.1187 20.5873 28.6598 20.3883 29.4171 20.7529C29.4171 20.7529 28.5196 20.9025 28.5943 22.3988L28.2203 22.3238C28.2203 22.3238 27.8338 20.9671 28.0202 20.7183Z" fill="#F7E4CD"/>
<path fill-rule="evenodd" clip-rule="evenodd" d="M34.5774 33.5788C34.5774 33.8059 34.3932 33.99 34.1659 33.99C33.9388 33.99 33.7546 33.8059 33.7546 33.5788C33.7546 33.3517 33.9388 33.1673 34.1659 33.1673C34.3932 33.1673 34.5774 33.3517 34.5774 33.5788Z" fill="#1D1919"/>
<path fill-rule="evenodd" clip-rule="evenodd" d="M34.9886 35.4858C34.9886 35.7129 34.8044 35.897 34.5771 35.897C34.3501 35.897 34.1659 35.7129 34.1659 35.4858C34.1659 35.2588 34.3501 35.0744 34.5771 35.0744C34.8044 35.0744 34.9886 35.2588 34.9886 35.4858Z" fill="#1D1919"/>
</svg>