<svg width="46" height="52" viewBox="0 0 46 52" fill="none" xmlns="http://www.w3.org/2000/svg">
<path d="M23.5448 33.2309V24.074C23.9719 23.5883 24.4958 23.1973 25.083 22.926C25.6701 22.6547 26.3074 22.5091 26.9541 22.4986C27.2927 22.4888 27.6313 22.5177 27.9633 22.5848V19.0278C27.1135 19.0648 26.2811 19.2801 25.5199 19.6596C24.7587 20.0392 24.0858 20.5745 23.5448 21.2309V19.3724H19.8525V33.2309H23.5448Z" fill="#29B473"/>
<path d="M0 12.5292V38.8431L22.7692 52L45.5385 38.8431V13.9077L39.9508 17.1323V35.6185L22.7692 45.5385L5.6 35.6185V15.7662L21.6985 6.46154V0L0 12.5292Z" fill="#1C1F2A"/>
<path d="M23.9387 0V6.46154L39.0526 15.2L44.6403 11.9754L23.9387 0Z" fill="#29B473"/>
</svg>